<?xml version="1.0" encoding="UTF-8"?>
<svg data-bbox="6.393 8.289 335.869 327.216" xmlns="http://www.w3.org/2000/svg" viewBox="0 0 350 341" height="341" width="350" data-type="ugc">
    <g>
        <path fill="#960D0D" d="M173.988 104.317h2.667l2.306 1.778h3.03l1.822-.889h1.514l.795-5.56-2.944-3.358-5.546-6.752h-1.826l-.856 2.71.856 2.477s-.305.709-.729 1.417c.123.4.123.536.123.536l-.921 2.97z" clip-rule="evenodd" fill-rule="evenodd"/>
        <path fill="#483029" d="m171.824 48.338-.717 1.187-.464 3.179.464 2.354 1.643-1.283.089-5.523z" clip-rule="evenodd" fill-rule="evenodd"/>
        <path fill="#D8D8D8" d="M179.363 20.458h1.1l.606 2.574-1.413 6.127-.951 5.8-.585 1.64s.51 1.713.443 1.902c-.068.19-1.084-.807-1.084-.807l-.942-.81.776-2.73.562-3.277.83-5.47z" clip-rule="evenodd" fill-rule="evenodd"/>
        <path fill="#A5BD54" d="M172.366 61.242h-1.385l-1.327.527-.957-1.98 1.835-.695.449-3.918 1.385-1.4v-5.621l1.874-.197 1.2 5.696-.49 13.782.49 6.562 1.507 4.283 1.534 3.602.799 3.434-3.84.252-2.826-2.05-1.686-1.43 2.864-2.468-1.968-3.018-.388-10.369z" clip-rule="evenodd" fill-rule="evenodd"/>
        <path fill="#5B3D36" d="M181.07 20.194s-.596-.68-.721 0 .15 1.078 0 2.533c-.145 1.41-.51 1.29-.872 2.95-.227 1.043-.253 1.863-.376 3.29-.138 1.607-.146 2.779-.146 2.779s-.635 2.961-1.079 5.266c.078.487.078.487 1.079 2.039 1.099-1.556 4.552-10.084 4.552-10.084l1.821-6.522s-.677-2.087-1.519-2.965c-.487-.507-1.14.195-1.14.195z" clip-rule="evenodd" fill-rule="evenodd"/>
        <path fill="#C2A1A1" d="m190.92 25.408-2.254 2.781-2.615 2.945-1.401 4.87.678 11.027.795 3.383 9.419-.889 9.943-3.773 1.009-5.228-4.961-12.335-5.961-2.781z" clip-rule="evenodd" fill-rule="evenodd"/>
        <path fill="#C2A1A1" d="M178.88 85.317v-1.211l-.399-1.323h-.848V80.84l-1.879-2.94v-1.766l-.804-2.626v-2.53l-1.158-3.716.448-1.028v-7.647l.71-5.107-.71-5.522 2.096-2.206 1.297-2.794.848-4.122.399-1.551-.399-2.578v-2.483l2.589-6.816 3.049-3.427-2.759 18.543-2.405 32.236 2.405 10.023v1.961s3.414 4.865 4.488 8.546c.274 3.6.308 5.657 0 6.076-1.026-1.104-.855-.873-1.198-1.167-.324-.28-1.186-1.108-1.257-1.225-.08-.131-2.043-1.079-4.026-6.248-.428-1.118-.487-5.409-.487-5.409" clip-rule="evenodd" fill-rule="evenodd"/>
        <path fill="#1B1D29" d="m202.649 191.124 1.813 1.317 3.018 1.098h2.04v-4.245l-1.845-1.681v-1.296l1.845-2.905v-1.552l-1.845-5.399-1.591-5.319V159.6l1.396-3.815-1.396-2.803v-15.166l-1.622-2.081s-20.169-35.641-22.554-29.497c-.957 2.464-6.948 8.442-3.671 21.129.28 1.085-.277 1.977-1.011 3.926.527 1.62 0 3.705 0 5.719.356.721.527 8.454 1.011 10.076 1.935 6.483 16.451 13.82 16.451 13.82l2.961 14.81 1.755 11.895z" clip-rule="evenodd" fill-rule="evenodd"/>
        <g opacity=".767">
            <path fill="#181923" d="m207.743 178.139-3.281-5.196-1.511-2.594-4.305-4.303v7.648l5.201 4.445 4.577 3.501z" clip-rule="evenodd" fill-rule="evenodd"/>
            <path fill="#181923" d="m205.458 163.775-1.611-2.577-1.744-1.603-3.457-1.033 1.751 2.606 2.507.748 1.667 2.721z" clip-rule="evenodd" fill-rule="evenodd"/>
            <path fill="#181923" d="m205.459 158.562-1.612-2.084-2.958-1.449h-2.481l2.481 1.767 1.759 1.766 2.181 3.037z" clip-rule="evenodd" fill-rule="evenodd"/>
            <path fill="#181923" d="m207.252 187.318-1.767 1.031-3.381-.515 3.381 2.224h4.034z" clip-rule="evenodd" fill-rule="evenodd"/>
        </g>
        <path fill="#212331" d="M216.818 92.673v3.615l-2.029 9.013 1.014.794-1.014 2.461-1.628 1.199-1.581 2.271v2.58l-1.09 2.637-3.995 11.362v7.755l-2.174 4.749v3.818l-1.369 3.834-1.123 1.776v5.311l-1.176 1.826v5.489l-1.248 2.619 1.248 3.643v9.011l2.299 4.033v2.592l-1.123 1.113.82 2.656-.82 1.162.607 2.74-7.748-2.74s-1.632-.102-2.484-.306c-.853-.203-2.385-.856-2.385-.856l-2.055-.922-3.113-3.851h-2.659v-2.642l1.187-1.725-2.109-2.97v-4.508l2.109-4.323-1.432-5.955-1.169-4.26-.81-6.151-.487-2.762v-8.833l-.4-10.521-.4-.802 1.692-2.471 1.819-5.943 1.187-4.656-1.187-5.78 2.659-3.66 19.67-9.807 8.84-3.615z" clip-rule="evenodd" fill-rule="evenodd"/>
        <path fill="#1C1E29" d="M200.653 178.139c-.589-.809-.918-.701-2.124-1.24-.794-.354-1.493-.642-1.878-.251-.494.503 0 1.792 0 1.792s.936.57 1.996.935c.941.324 2.006.442 2.006.442s.473-1.028 0-1.678" clip-rule="evenodd" fill-rule="evenodd"/>
        <path fill="#1C1E29" d="M203.848 141.695s-1.124-1.284-2.958-1.937c-.885-.316-1.409-.469-2.639-.332-1.809.201-2.146.572-3.439 1.007-1.585.533-2.158 1.262-2.158 1.262s2.39-.281 4.258 0c1.009.151 1.546.509 2.435 1.228 1.1.89.49.869 1.543 1.463.712.401 2.062.886 2.495.492 0-1.241.463-3.183.463-3.183" clip-rule="evenodd" fill-rule="evenodd"/>
        <path fill="#1C1E29" d="M181.649 174.874h1.746l2.098.858s1.086.803 2.238.937c.734-.429 1.236-.429 2.285-.208 1.412.296 2.638 1.243 2.638 1.243s.763-1.035 1.366-1.722l-.251-.169c-.553-.375-2.688-1.879-2.688-1.879l-2.616-2.249-1.693-2.357-1.279-1.145-1.443 1.145s-.229 1.272-.229 2.357c-1.55.588-2.172.92-2.172.92s-.249 1.329 0 2.269" clip-rule="evenodd" fill-rule="evenodd"/>
        <path fill="#1C1E29" d="m179.28 129.499 6.427-4.376 4.726-3.92 7.976-7.819-7.976 6.463-4.31 3.56-5.95 3.847z" clip-rule="evenodd" fill-rule="evenodd"/>
        <path fill="#1C1E29" d="M200.889 110.058h1.759l1.199.808h2.647l.986 1.577 2.039-1.193v2.134l-1.844.849-2.19-2.088-1.638.298-1.199-1.193h-3.244z" clip-rule="evenodd" fill-rule="evenodd"/>
        <path fill="#1C1E29" d="M202.905 145.024s-.714 1.034-1.422 1.414c-.767.147-1.104 0-1.705.558-.326.275-.149 1.209-.149 1.209s.236 1.049 1.398 1.381c.828-.423 1.622-1.942 1.622-1.942z" clip-rule="evenodd" fill-rule="evenodd"/>
        <path fill="#1C1E29" d="M183.18 115.535s.849-1.215 2.109-2.151c1.366-1.014 1.16-1.278 2.775-2.142 2.214-1.186 4.884-1.958 4.884-1.958s-.294-.728-1.27-.728c-2.032.265-4.543 1.871-4.543 1.871s-1.532.996-2.484 2.225c-1.025 1.325-1.471 2.883-1.471 2.883" clip-rule="evenodd" fill-rule="evenodd"/>
        <path fill="#C2A1A1" d="m185.824 105.542 1.702-.734 1.56-.932 10.981-3.435 7.287-3.009 10.115-3.966 3.783-1.368s-.227-.603-.59-2.654c-.034-.194-.351-.283-.399-.508-.286-1.368-1.3-5.98-1.3-5.98l-.501-5.507-1.645.925s-.554 1.968-1.038 2.661c-.719 1.03-2.619 2.24-2.619 2.24l-2.322 1.22-5.909 5.332-3.251 2.565-4.96 2.785-5.868 2.255-3.324.806h-1.702v3.358l-.286 1.905s-.195 1.307-.316 1.609c-.829.096-.979.096-1.409.096-.204 0-.849.591-1.906 1.032.166.137 1.449.735 2.181.643.347-.425.595-.808.614-.799.13.064 1.122-.54 1.122-.54" clip-rule="evenodd" fill-rule="evenodd"/>
        <path fill="#790909" d="M174.172 104.121s-.757-.377-1.558-.78c-.152-.789-.313-1.437-.313-1.437v-1.528l.595-1.957-.358-1.529.701-.75 2.994.148-.434 5.02z" clip-rule="evenodd" fill-rule="evenodd"/>
        <path fill="#B99898" d="M216.807 90.481c-.033.196-.961.303-1.834.654-1.033.414-.297.27-1.977.876-.834.302-1.571.658-1.571.658l-4.076 1.794-2.695 1.19-2.826 1.547-2.474 1.022-1.211.263s1.619-.784 3.184-1.592c1.609-.83 1.505-.962 3.164-1.683 1.354-.588 1.464-.65 2.719-1.17 1.802-.747 3.317-1.648 3.317-1.648s1.207-.37 2.268-.816c1.989-.836 3.833-1.749 3.833-1.749s.233.337.179.654" clip-rule="evenodd" fill-rule="evenodd"/>
        <path fill="#CCE774" d="M187.526 98.239s-1.859 1.217-2.238 0c-.53-1.703.419-5.84.419-5.84l-1.858-2.572-3.272-4.258-.405-2.786-1.691-4.884s-.451-2.65-.848-5.139c-.406-1.658 0-3.43 0-3.43s-.406-.69-.686-1.719c.28-1.265.28-2.814.28-2.814l-.28-7.362s.284-5.878.686-8.713c.848-1.691 1.104-2.97 1.104-2.97l.476-3.478 2.778-10.37 1.127-4.51v-5.68l-.681-1.177h-2.859s1.504-2.702 2.413-3.045 2.681.345 2.681.345l2.424.381.172.052 2.578 1.473 4.196.553 3.108.902s2.618 1.548 5.428 3.331l.25.268c2.476 2.651 3.304 3.537 5.779 8.546 1.872 3.789 2.829 9.112 2.829 9.112l1.724 6.267 2.258 10.777 1.399 5.298 3.052 6.533v3.173l-1.184 1.612V77.9l-1.868.79-1.399 3.196-3.982 2.588-6.663 5.821-6.63 4.372s-5.115 2.12-7.199 2.721c-2.084.6-3.418.852-3.418.852m2.358-71.045c.588-.792.77-1.038 1.592-1.652.827-.195 1.293-.138 1.823-.074.289.036.598.074.995.074 1.248 1.003 2.856 2.647 2.856 2.647l3.962 1.394 2.416 5.075 1.245 6.875-1.245 8.88-5.385 5.415h-7.013l-5.08-6.847s-.433-2.665-.577-5.368c-.025-.459-.048-.846-.068-1.186-.098-1.654-.129-2.163.068-4.248.053-.567.097-1.07.137-1.525.175-2.003.268-3.063.73-4.526.313-.43.496-.732.637-.964.329-.542.43-.708 1.415-1.262.181-.366.298-.647.401-.895.189-.457.331-.799.734-1.334q.202-.269.357-.479" clip-rule="evenodd" fill-rule="evenodd"/>
        <path fill="#B7C767" d="m213.374 60.858-.213-1.277-.479-1.468v-1.922l-.552-2.537v-2.15l-.55-2.523-1.091 2.238.221 3.7v1.273l.495 1.243v3.991l.375 2.102 1.794 7.45.808 2.53v2.162l.546 2.23 1.135.79 1.471.398 1.754-.399v-.79h-1.754l-.517-.643 1.336-.653.935-.933h-1.754l-1.05.492-.421-1.148-.694-2.254v-2.847l.694-1.467-.694-2.394z" clip-rule="evenodd" fill-rule="evenodd" opacity=".45"/>
        <path fill="#5B0909" d="m172.8 97.95.992-.135.624.067.995.161.217-.403-.886-.168v-.498h-.753l-.073.535h-.802l-.314.131z" clip-rule="evenodd" fill-rule="evenodd"/>
        <path fill="#AFACAC" d="m189.847 88.894 1.83-2.3h.977l4.606-4.616 3.238-1.756 7.177-4.498 5.136-5.311.35-1.967 2.008-1.355v-1.479l1.649-.815-1.301-5.703-2.356 2.291v.87l-1.581.874v1.317l-1.091 1.726-8.553 6.131-11.503 7.157-4.382 4.96-4.06 2.728 1.858 5.098z" clip-rule="evenodd" fill-rule="evenodd"/>
        <path fill="#0C0A03" d="m185.288 94.666-.174.362h-.464l-1.485-.305-.799-.193-7.98-.896-1.1-.622-4.033-1.885-.787-1.3-.185-3.523.701-2.364 1.099-1.157.847-.694 4.811 2.662 5.546 1.042 3.728 2.027 1.109 1.716-.834 4.994" clip-rule="evenodd" fill-rule="evenodd"/>
        <path fill="#918383" d="m172.327 88.256 2.306.302h1.376l1.451.248 1.42.543.4-1.545-2.333-.717-.938-.458-2.623-.33-1.338-.982z" clip-rule="evenodd" fill-rule="evenodd" opacity=".347"/>
        <path fill="#B5C752" d="m185.012 83.268-.566-1.595-1.268-2.18-1.187-1.594-.922-.45h-2.189l-.4.45 1.692 4.884.405 2.534 3.49-.822z" clip-rule="evenodd" fill-rule="evenodd"/>
        <path fill="#AFACAC" d="m177.633 71.985.345-.367 1.13.183 1.306-.183.656-.391v-.61l1.522-.26 2.736-.636 1.223-.582.422-.564 3.4-2.347 2.699-1.257 9.313-9.143 3.891-4.609 2.239-2.497.53-2.2 1.059-3.101 1.384-.463 1.673 5.764-1.259.259-.414 1.041v.809l-.999.388v2.261l-2.814 3.027-11.896 15.11-3.795 2.89-2.457.416-2.976.253h-1.223l-.948.854-1.377.785h-1.331l-.602.635h-2.216l-.373.45z" clip-rule="evenodd" fill-rule="evenodd"/>
        <path fill="#A38888" d="m188.666 102.62 1.559-1.652 1.309-.911 1.226-1.572 1.928-1.812-1.41.811-1.036 1.001-1.039 1.161-.978.793-1.559 1.449z" clip-rule="evenodd" fill-rule="evenodd"/>
        <path fill="#693320" d="m185.701 95.308-1.051-.166h-1.14l-1.352-.588.242-.92s.279-1.278.548-1.567c.579-.624.334-.23.906-.441 1.251-.46 3.993-1.016 5.599-1.933.305-1.074.617-2.425.617-2.425s.109-.532.362-.87c6.263-5.626 14.302-17.826 14.302-17.826l2.755-9.423s.434-2.642-.149-3.309c-.147-2.78-1.099-5.324-1.635-5.685-3.901-2.19-6.457-1.367-10.724 2.906v4.747l-1.078 2.894s-.704 3.12-1.25 6.178c-2.492 6.895-5.751 13.192-5.751 13.192s-2.512 2.239-3.392 2.968c-2.342.548-5.647 2.88-5.877 3.357-.132 1.355-.431 2.161-.686 4.329.13 1.516.975 1.452 1.307 2.724h.687c.305.302.19.456.426 1.104.332-.093.637-.41.637-.41s.112.03.125.075c.173.564.173.923.351 1.089.334.09.75 0 .75 0s.816.812 1.718 1.232c1.124 0 2.351-.227 2.351-.227z" clip-rule="evenodd" fill-rule="evenodd"/>
        <path fill="#271A16" d="M187.268 54.023v-.369s.344-.677.875-.816c.97-.253 1.729-.184 2.781-.387 1.171-.226 1.729 0 1.729 0l.554-.28 2.189-.667 1.245-.285 1.063-.385s1.239-.776 2.843-1.104c.803-.164 2.294-.205 2.294-.205h2.981s.775.243 1.429.616c.495.281-.037 1.17-.037 1.17l-.339 1.14-.599-1.232s-.453-.87-1.16-.923c-1.108-.085-1.13.06-2.275.126-1.14.065-2.408.206-2.408.206s-1.449.392-2.64.876c-.705.287-1.152.666-1.152.666s-.79.35-1.219.95c-.331.466-.3 1.669-.3 1.669l.084 1.024-.084 1.622h-.753s-1.028-.52-2.318-.837c-.675-.166-1.045.133-1.781 0-.725-.131-1.105-.342-1.788-.785-.631-.41-.839-.919-.839-.919l-.375-.591z" clip-rule="evenodd" fill-rule="evenodd"/>
        <path fill="#512617" d="M207.503 58.89c-.484.181-1.061 0-1.061 0s-1.524-.639-1.915-.942c-.215.245.246 3.05.246 3.05l.41 3.44v2.522l1.755-5.961s.565-1.483.565-2.109" clip-rule="evenodd" fill-rule="evenodd" opacity=".572"/>
        <path fill="#5B3D36" d="m187.268 53.654 1.96-.77 1.854-.3h1.83l2.512-.838 2.281-.912 2.42-1.015 3.41-.294h2.287l1.43.616-1.43-3.578-.645-2.673-1.137-4.666-1.355-7.08-.864-.413-3.018-3.253-1.098-.556h-.834l-2.092-.366s-1.264-.324-2.277 0c-.23.366-.607.922-.607.922l-1.368-.289-.68.627-.156.767s-.348 1.353-.793 2.148c-.444.796-.155 3.158-.155 3.158l-.484 2.079-.991 2.335v6.063s-.45.515-.673.817-.544.824-.544.824l1.217 1.974-.409 2.486z" clip-rule="evenodd" fill-rule="evenodd"/>
        <path fill="#483029" d="M197.692 47.375c-.204-.634-.454-.956-.956-1.627-.445-.595-.459-.81-.884-1.197-.617-.564-.835-.486-1.287-1.028-.705-.847-1.18-1.99-1.18-1.99s.215 1.282.727 2.143a12 12 0 0 1 1.203 1.105s.575.666 1.112 1.383c.435.58.832 1.211.832 1.211s.49.18.433 0" clip-rule="evenodd" fill-rule="evenodd"/>
        <path fill="#4C4C4C" d="m173.821 110.351-1.783-2.014-1.331-.853-.709-.777.118-1.182.591-.197 1.043-.118-.205-1.641.993-.565 2.928 1.117-1.08 3.999z" clip-rule="evenodd" fill-rule="evenodd"/>
        <path fill="#483029" d="m197.84 45.47.458.694.782.44h.834l.384.32.2-.32-.79-.44-.71-.214-.515-.26-.643-.59-.58-.52z" clip-rule="evenodd" fill-rule="evenodd"/>
        <path fill="#483029" d="M190.297 50.385s-.131-.28.402-.404c.63-.146.949-.045 1.954-.181.892-.12 1.691-.275 1.691-.275s.636-.217 1.197-.444c1.014-.41 1.952-.828 1.952-.828s.729-.318 1.804-.52c.672-.128 1.691-.139 1.691-.139l3.275-.13s.838-.334.297-.384c-1.096-.1-1.933-.035-3.572.083-.893.064-1.067-.038-1.789.125-1.142.259-1.94.609-1.94.609s-.74.484-1.818.924c-.537.22-1.41.395-1.41.395s-.644.229-1.549.31c-.835.074-1.042.059-1.932.164-.276.032-.767.56-1.024.695 0 .057.771 0 .771 0" clip-rule="evenodd" fill-rule="evenodd"/>
        <path fill="#483029" d="m197.698 28.19 1.795 2.495.291 1.228.714 1.824.955 2.454.824 1.094-1.779-1.301-.714-1.96-.905-2.111v-.96l-1.619-2.4z" clip-rule="evenodd" fill-rule="evenodd"/>
        <path fill="#483029" d="M187.268 45.366v-5.888s.367-.814.933-2.193c.247-1.042.542-2.396.542-2.396s.008-1.665.216-2.62c.568-.832.888-2.442.888-2.442l-.156-.244-1.742 2.188-.186 1.21-.8.193-.368 2.23v1.35l-.313.703-.231 3.148.231 2.978.313 2.6z" clip-rule="evenodd" fill-rule="evenodd"/>
        <path fill="#965639" d="m182.715 94.666.819.139 1.076.309.504-.086.52.086s.182.156-.09.275c-.307.134-.894.144-.894.144l-1.411.083-.873-.32-.375-.491.375-.974v.7c.073.077.349.135.349.135" clip-rule="evenodd" fill-rule="evenodd"/>
        <path fill="#3C1E13" d="M180.129 94.219s-.105-1.05 0-1.749c.119-.788.448-1.226.448-1.226s-.152-.117-.224-.117c-.288.426-.369.428-.553 1.265-.092.423.07 1.307.07 1.307z" clip-rule="evenodd" fill-rule="evenodd"/>
        <path fill="#3C1E13" d="M178.941 93.45s.025-.648.065-.917v-1.07s-.151-.117-.224-.117c0 .47.081.288 0 1.125-.057.264 0 .713 0 .713z" clip-rule="evenodd" fill-rule="evenodd"/>
        <path fill="#B5C752" d="m202.228 91.346-1.795 1.327-2.025.961-1.764 1.032-2.56.95-1.962.358-2.238 1.141.548-1.14V94.81l-.548-1.408-.603-2.056-.567-1.519-2.189 1.884-1.237 3.099-.275 2.305.694 1.733 2.056-.363 3.087-1.053 1.272-.76 2.247-.132 2.275-1.339 2.2-1.045 1.853-1.033 1.951-1.412z" clip-rule="evenodd" fill-rule="evenodd"/>
        <path fill="#790B04" d="m183.886 91.614-.038 1.059.227 1.21s.294.386.679.515c.599.2.654.301 1.292.258.679-.047 1.899-.644 2.068-1.08.336-.866.355-1.13.283-1.962-.07-.822-.567-1.603-.567-1.603l-1.787-.184s-1.276.133-2.022.75c-.332.276-.135 1.037-.135 1.037" clip-rule="evenodd" fill-rule="evenodd"/>
        <path fill="#595959" d="M185.455 91.346s-.254.578-.122 1.046c.142.502.216.68.668.894.49.233 1.217 0 1.217 0s.418.024.545-.19c.211-.356.15-.518.15-1.032 0-.361-.15-.718-.15-.718s-.651-.498-1.303-.616c-.289-.053-1.005.616-1.005.616" clip-rule="evenodd" fill-rule="evenodd"/>
        <path fill="#312E2E" d="M185.455 91.346s-.254.578-.122 1.046c.142.502.216.68.668.894.49.233 1.217 0 1.217 0s.418.024.545-.19c-.503-.134-.545-.203-1.158-.433-.483-.271-.833-.816-.833-.816z" clip-rule="evenodd" fill-rule="evenodd"/>
        <path fill="#693320" d="M173.872 94.885c-.047-.168.376-.4.376-.881-.086-.554-.224-.712-.456-1.412-.244-.738-.495-1.465-.495-1.465l-.683-2.234.683-1.392.951-1.232.83-1.47-1.565-1.45-1.586-.566h-1.368l-1.862 2.534-.416 3.723.416 3.027 2.053 2.09 1.177.829 1.768 1.302h.747s.508-.597.508-1.006c0-.328-.238-.37-.508-.469-.269-.099-.294-.123-.57.072" clip-rule="evenodd" fill-rule="evenodd"/>
        <path fill="#3C1E13" d="M173.792 94.81h-.598l-.547-.3-.206-.41-.157-.65-.184-.68-.664-.703.388 1.594.364 1.005.662.348.624.187z" clip-rule="evenodd" fill-rule="evenodd"/>
        <path fill="#AFACAC" d="m190.502 66.499-.656-.873-.319-1.343-.93-1.743-1.329-1.108v-1.765l-1.218-2.232s-.465-1.748-1.026-3.411c-.502-1.492-1.1-2.9-1.1-2.9s.167-1.074.331-2.143c-.331-.803-.747-1.01-1.035-2.48v-3.226s-.297-2.716-.133-5.364c.188-3.025.259-3.08.837-5.982.391-1.96.391-2.346 1.1-3.74.934-1.375.893-1.398 2.244-2.121.267-.66.68-1.113 1.039-1.696 2.02-.71 3.36-1.167 4.346-1.167 2.029 0 3.998.976 3.998.976l1.757 1.227 3.015 1.199.854 1.582s.433.88.859 1.605c.76.626 1.029.927 1.388 1.148.249.987.249 1.503.442 2.661 1.257 1.357 1.528 2.736 1.528 2.736v2.044l1.009 1.587s.091.828.295 1.563c.218.351.332.697.332.697v1.662l1.039 3.032h.695s.625-1.835.625-3.462c-.401-.602-.708-1.374-.708-1.374s.065-.945-.227-1.803a7.6 7.6 0 0 0-.997-1.902v-2.044l-.427-.65-.456-1.143v-.943l-1.18-1.674-1.009-2.346s-.712-.866-1.29-1.73a27 27 0 0 0-2.772-2.445s-1.655-1.6-3.725-2.841c-5.579-2.503-10.43.638-10.43.638l-2.618 3.402-1.563 3.9-.822 4.039-.638 4.51v2.027l-.558 1.147s.025 2.284.248 4.513c.166 1.644.393 1.907.53 3.232 0 1.485-.22 2.875-.22 2.875l.638 2.978 1.243 4.26.416 2.452 1.404 3.959 1.94 2.64z" clip-rule="evenodd" fill-rule="evenodd"/>
        <path fill="#A4A1A1" d="M186.996 68.854h.541l2.895 3.485-.291.765-2.604-3.138z" clip-rule="evenodd" fill-rule="evenodd"/>
        <path fill="#A4A0A0" d="m211.579 49.525-.28-2.06-.469-1.282-.341-.885.341-2.065h-.54l-.45 2.95.45 3.019v2.302l1.009-.68z" clip-rule="evenodd" fill-rule="evenodd"/>
        <path fill="#A4A3A3" d="m204.966 33.604.712.944.816.415 1.466.447-.285-.903-1.181-.477-.816-.426-.712-.229z" clip-rule="evenodd" fill-rule="evenodd"/>
        <path fill="#A4A3A3" d="m206.801 38.836 1.013.355 1.352.112-.644-.934h-2.059z" clip-rule="evenodd" fill-rule="evenodd"/>
        <path fill="#604F4F" d="m208.425 195.236.488-.595.306-.832.3-1.077-3.163-1.334-1.261-1.454-2.413-.421h-.947l.369 1.875-.369 1.043.701 2.495h1.1l1.294.3z" clip-rule="evenodd" fill-rule="evenodd"/>
        <path fill="#91775B" d="m156.297 199.003 16.034-9.288s4.374-5.463 6.122-13.964c1.424-6.314.468-8.286.028-16.336-.434-7.939-.789-7.985-1.776-15.641-1.222-9.482-3.009-18.368-3.009-18.368v-9.871l-4.604-1.745s.084 8.263.954 15.145c1.777 14.062 4.338 27.462 4.338 27.462l.626 10.469-.626 8.388s-1.753 6.807-4.338 10.302c-4.287 4.388-3.799 3.914-7.688 6.183-4.404 2.571-8.402 4.924-8.402 4.924z" clip-rule="evenodd" fill-rule="evenodd"/>
        <path fill="#634E39" d="m156.296 199.003 7.079-4.067 5.716-3.713s3.114-1.819 5.407-4.744c1.885-2.404 1.859-2.717 2.95-5.914 1.219-3.571 1.158-3.744 1.67-7.622.366-2.777-.257-7.741-.257-7.741l-.842 1.575s.131 3.126 0 4.444c-.316 3.172-1.081 5.482-1.628 7.101-1.106 3.27-1.736 4.823-3.481 7.234-1.922 2.653-1.801 2.693-4.401 4.654-2.501 1.888-6.756 3.904-6.81 3.934-3.367 1.832-3.853 1.76-6.578 3.857-.31.238 1.175 1.002 1.175 1.002" clip-rule="evenodd" fill-rule="evenodd" opacity=".509"/>
        <path fill="#9F9C9C" d="m181.36 70.413 1.307 2.69.811.941 1.81 1.254-.908.732-1.201.573-.87-1.619-.619-1.476-.33-1.276-.291-1.615z" clip-rule="evenodd" fill-rule="evenodd"/>
        <path fill="#A4A0A0" d="M213.16 68.446s.866-.267 2.008-1.355v-1.479s-.879-3.668-1.142-5.183c-.866.956-.984.956-.866 1.515-.727.515-1.581 1.185-1.581 1.185z" clip-rule="evenodd" fill-rule="evenodd"/>
        <path fill="#BD370A" d="m169.576 154.708-4.588 33.096-1.612 11.277v2.589h3.1l2.284-16.114 3.38-26.994.77-3.533z" clip-rule="evenodd" fill-rule="evenodd"/>
        <path fill="#D84F20" d="m169.092 158.314.617.399.749.196-2.315 12.227-1.822 14.42-.709 3.549-.604-.417.604-3.548 1.869-14.319z" clip-rule="evenodd" fill-rule="evenodd"/>
        <path fill="#8C8585" d="m169.092 158.314.617.399.979.211h1.406l.816-3.895-3.516-.321z" clip-rule="evenodd" fill-rule="evenodd"/>
        <path fill="#74311E" d="m172.094 158.924-1.059 8.02-1.943 14.183.595-12.475v-1.708l.906-8.02z" clip-rule="evenodd" fill-rule="evenodd"/>
        <path fill="#B8B4B4" d="m169.092 158.314.302-3.606 1.607.169-.544 4.032z" clip-rule="evenodd" fill-rule="evenodd"/>
        <path fill="#8C8585" d="m166.476 201.67 1.667-11.726s-.814.43-1.234.41c-.377-.017-1.216.164-1.586 0-.421-.186-.595-.583-.773-.639-.154 2.203-1.174 9.151-1.174 9.151v2.804z" clip-rule="evenodd" fill-rule="evenodd"/>
        <g opacity=".51">
            <path fill="#91DCD1" d="M190.432 114.233h-.905s-.861.631-1.579 1.302c-.185 1.108.484 2.944.484 2.944s.872.482 1.76.745c.697-.745.697-.745 1.485-2.184v-1.505l1.27-2.151s0-2.098.883-3.326c-.883.777-3.398 4.175-3.398 4.175" clip-rule="evenodd" fill-rule="evenodd"/>
            <path fill="#91DCD1" d="M197.698 104.317c-.301.401-1.047.78-1.047.78l.499.998h.993s-.445-.998-.445-1.778" clip-rule="evenodd" fill-rule="evenodd"/>
            <path fill="#91DCD1" d="M189.707 128.344c-.323.361-1.122.703-1.122.703l.534.898h1.064s-.476-.898-.476-1.601" clip-rule="evenodd" fill-rule="evenodd"/>
            <path fill="#91DCD1" d="M187.785 127.367a.8.8 0 1 0 0-1.6.8.8 0 0 0 0 1.6" clip-rule="evenodd" fill-rule="evenodd"/>
            <path fill="#91DCD1" d="m204.773 112.046-.311 1.338.997.849.026 1.302 1.009-1.302-.709-2.088z" clip-rule="evenodd" fill-rule="evenodd"/>
            <path fill="#91DCD1" d="m192.654 142.702-1.764-1.721v1.721l.787.801v2.68l1.27-2.601z" clip-rule="evenodd" fill-rule="evenodd"/>
            <path fill="#91DCD1" d="M213.16 107.711c-.79-1.087-1.294-.83-1.872-1.264.567-.859.851-.859 1.59-1.557.404-.825.437-1.312.282-2.002-.282-.268-.79-.268-.79-.268l-1.66 1.697-.87-1.697v2.586l.311 1.675s.723 1.047 1.349 1.235c.87-.258.645.182 1.66-.405" clip-rule="evenodd" fill-rule="evenodd"/>
            <path fill="#91DCD1" d="M192.947 105.206a89 89 0 0 0-1.029 1.835l.514 1.515.515-1.969s.167-1.381 0-1.381" clip-rule="evenodd" fill-rule="evenodd"/>
            <path fill="#91DCD1" d="m201.235 108.556-.346 1.502h-1.485v1.192h.916l.569.895 1.164-.895z" clip-rule="evenodd" fill-rule="evenodd"/>
            <path fill="#91DCD1" d="m190.89 125.766.787-.36.241.36v1.601h-.514l.273-.8-.787-.18z" clip-rule="evenodd" fill-rule="evenodd"/>
        </g>
        <path fill="#B4C650" d="m205.784 40.294-.818-3.01-.193-1.874-.797-2.035-.694-1.643-1.005-2.15-1.165-1-1.881-1.188-1.533-.646-1.529-1.34h-2.045l.926.956 1.82 1.558h1.115l1.246 1.032 1.881.629s.435 1.116.943 2.15c1.381.727.388 1.642 1.381 2.66.492 1.576.54 3.49.54 3.49l.394 1.42.403 1.315v1.926l.712 1.463z" clip-rule="evenodd" fill-rule="evenodd"/>
        <path fill="#B4C650" d="M181.36 70.413s-.218-.815-.412-1.805c-.218-1.117-.197-1.034-.412-2.408-.13-.832-.119-1.03-.157-2.166-.041-1.215 0-2.535 0-2.535l-.31-.258s-.26 1.241-.378 2.793c-.071.934 0 2.179 0 2.179l.378 2.233.457 1.967.543.814z" clip-rule="evenodd" fill-rule="evenodd"/>
        <path fill="#1B1517" d="m195.663 199.951-1.712-.458-1.233.458h-2.225l-6.878.338 3.854-2.253 4.003-1.373h4.191z" clip-rule="evenodd" fill-rule="evenodd"/>
        <path fill="#373433" d="m195.275 199.003.541.948h4.162l4.852-.458h3.595l1.171-.49-.076-2.323-.467-1.444h-2.596l-3.347-.3-3.132.549-4.703 2.335z" clip-rule="evenodd" fill-rule="evenodd"/>
        <path fill="#2C2B2B" d="m172.538 103.991.975.448-.139 1.065-.76 1.75-.076.895.975 1.092.598-2.818.624-1.554v-.748l-.943-.858-1.06-.259z" clip-rule="evenodd" fill-rule="evenodd"/>
        <path fill="#1C1E29" d="m202.052 180.565 3.406 1.075 2.966 1.318-2.966 1.294-2.507-1.294-1.717-2.393" clip-rule="evenodd" fill-rule="evenodd"/>
        <path fill="#5F5855" d="M191.918 195.501v1.6l2.769 1.98 1.201-.429h1.761l4.284-1.002 1.602-1.326-1.483-3.883-1.163-.375z" clip-rule="evenodd" fill-rule="evenodd"/>
        <path fill="#332E2F" d="m192.539 195.236 1.144-.434 7.206-2.736-.3-.668-1.437.668-5.514 1.969-1.435.606z" clip-rule="evenodd" fill-rule="evenodd"/>
        <path fill="#ADA5AE" d="M165.904 198.275s.088 1.318 1.133 1.8c1.597.736-.105.334 3.169.636 1.856.18 2.523.182 4.071.182 2.912 0 3.31.043 5.83-.182 4.289-.384 4.604-.636 8.498-1.218a27 27 0 0 0 4.427-2.163l-.322-1.129-.507-1.868-4.432-6.672-2.783-3.409-3.465-.459-1.416.459s-.589-.199-.966 0c-.436.231-.66.86-.66.86l-.444.751-3.538.615-1.992 1.183-1.811 2.099s-1.74.887-3.397 2.972c-1.433 2.546-1.395 5.543-1.395 5.543" clip-rule="evenodd" fill-rule="evenodd"/>
        <path fill="#D8D8D8" d="m188.404 188.688-1.477.64-.99.922h-1.132l-1.629 1.148-2.026 1.043-2.032.538-1.507.56-1.572.489-.811.305-2.318-.524 2.576-1.743 3.361-1.275 2.187-.937 2.142-1.166 1.629-1.37 1.132-1.762z" clip-rule="evenodd" fill-rule="evenodd" opacity=".22"/>
        <path fill="#958F98" d="M184.914 198.513s-1.122-3.823-2.723-6.872c-1.122-2.136-2.723-3.498-2.723-3.498h.683l2.04 2.437s.32.336.55.818c1.316 2.755 1.383 2.728 2.541 5.655.249.63.273 1.46.273 1.46z" clip-rule="evenodd" fill-rule="evenodd"/>
        <path fill="#98939A" d="M178.636 189.105c.716.711 2.057 2.551 2.057 2.551l.457.785 2.287 5.059.178 1.013h-.785l-.906-2.15-.774-1.934-.739-1.697-.381-.666s-.933-1.686-1.549-2.586c-.082-.211.032-.16.155-.375" clip-rule="evenodd" fill-rule="evenodd"/>
        <path fill="#86A738" d="m174.267 83.852 2.063-1.733v-1.14l-1.379-3.08-1.159-1.296.197-.933 1.072.933v-1.576l-1.269-5.888-1.968-2.905 1.285-4.993v-7.466l.683-1.695s-.447-3.034-.683-3.986c.88-.136.305-.114 1.027-.457.644-.288.338-.044.815-.41.323 4.915.11 13.202.11 13.202v8.425l.859 6.173 1.028 4.874 1.533 2.882 1.175 2.534h-.741l-3.175.252z" clip-rule="evenodd" fill-rule="evenodd"/>
        <path fill="#98939A" d="m180.796 199.081 1.228-.209-2.557-5.855-1.754-2.226-.265.137 1.193 2.089z" clip-rule="evenodd" fill-rule="evenodd"/>
        <path fill="#98939A" d="m176.099 191.739 1.349 2.07 1.867 4.287.421.985-.734.151-2.198-5.168-1.319-1.998z" clip-rule="evenodd" fill-rule="evenodd"/>
        <path fill="#97909A" d="m179.118 199.081 4.497-.568h6.877s-.453.551-.775.719-1.112.261-1.112.261l-4.99-.261-4.497.261z" clip-rule="evenodd" fill-rule="evenodd"/>
        <path fill="#9E97A0" d="m178.453 186.983 1.633-1.427 1.939 1.762.81-.335h1.677v.724h-.897l-.78.697-1.068-.261-1.681-1.459-.618 1.459z" clip-rule="evenodd" fill-rule="evenodd"/>
        <path fill="#D8D8D8" d="M169.628 190.791s-1.195.862-1.977 1.941c-.721.994-1.091 2.204-1.091 2.204s-.411.989-.117 1.671c.412.953 1.723.885 1.723.885l1.696-.885 1.68-1.122 1.368-1.152c.439-.372 2.839-.524 2.839-.524z" clip-rule="evenodd" fill-rule="evenodd" opacity=".411"/>
        <path fill="#353535" d="m192.528 195.485 3.284-1.342 2.835-.826 2.588-1.251-1.346-.668-.737.668-1.097.375-2.243.83-3.609 1.37z" clip-rule="evenodd" fill-rule="evenodd"/>
        <path fill="#7B6666" d="m192.203 194.641 2.603-.957 2.843-.952 1.502-.666.882-.668s.003-.11-.954-.457c-.958-.348-3.608-.883-3.608-.883l-1.452-.372h-1.816l-1.355-.581-2.116-.962-.961-.482 3.7 5.656z" clip-rule="evenodd" fill-rule="evenodd" opacity=".962"/>
        <path fill="#675555" d="m191.714 193.809 1.934-.641 1.709-.436 1.68-.666 1.157-.668.885-.457-.671-.239-2.005 1.165-1.715.574-1.487.423-1.729.453z" clip-rule="evenodd" fill-rule="evenodd"/>
        <path fill="#4A3D3D" d="m202.994 194.936.541.12 1.294.18h3.595l.568-.737-1.745.142s-2.53-.191-3.025-.308c-.55-.131-1.576-.236-1.576-.236z" clip-rule="evenodd" fill-rule="evenodd"/>
        <path fill="#693320" d="m179.363 20.458-5.374-4.356-4.182 2.308-12.07 8.984-4.983 3.97 6.225 5.92 3.038.599 5.961 1.472 8.782-2.07 1.53-8.414.99-6.447z" clip-rule="evenodd" fill-rule="evenodd"/>
        <path fill="#57291A" d="M173.18 27.394v-1.363l-.542-1.065-.512-1.382-1.063-.817-1.231-.785-1.423.338-1.011.77v.943l1.011.932h1.034l1.296.815 1.899 1.614z" clip-rule="evenodd" fill-rule="evenodd" opacity=".857"/>
        <path fill="#220C07" d="M178.915 22.396s-3.269.8-5.32.275c-.415-.923-1.213-1.689-2.24-2.213-.609 0-2.491.466-2.491.466l-.616.8-2.189 1.096v-1.363l7.733-5.934s3.155 2.235 5.123 4.404c.04.914 0 2.47 0 2.47" clip-rule="evenodd" fill-rule="evenodd"/>
        <path fill="#232222" d="m164.815 26.499-1.316 2.66s-.901 1.6-1.648 3.087c-.784 1.56-1.766 2.92-1.766 2.92s-1.106 1.834-1.106 2.119c1.163 1.01 4.021 1.084 4.021 1.084s.969-.49 2.127-1.084c.668-.583.55-1.802.485-2.53-.092-1.036-.485-2.167-.485-2.167l.768-2.75 1.125-2.444-.961-2.885z" clip-rule="evenodd" fill-rule="evenodd"/>
        <path fill="#5A5A5A" d="m155.498 34.064-.693.678h-1.319l-.274.438s1.379 1.493 4.326 2.703c.334.142.215-.767.215-.767l-.531-.443v-1.305z" clip-rule="evenodd" fill-rule="evenodd" opacity=".739"/>
        <path fill="#3D3C3D" d="M153.212 35.18c.069-.438.274-.438.274-.438l3.736 2.117.531.257.031.56-.122.29s-3.176-1.237-4.45-2.785" clip-rule="evenodd" fill-rule="evenodd" opacity=".567"/>
        <path fill="#7B4D3D" d="M173.18 27.394v-1.363c-.632-1.246-1.054-2.447-1.054-2.447s-1.214-1.013-2.295-1.602c-.591.117-1.422.338-1.422.338l-1.011.77v.943l-.257-.257s-.055-.686-.121-1.205c.811-.51 1.228-.847 1.228-.847s.773-.269 1.777-.435c1.078.435 2.442 1.801 2.442 1.801l1.17 2.318s.157.78 0 1.463c-.072.31-.457.523-.457.523" clip-rule="evenodd" fill-rule="evenodd" opacity=".656"/>
        <path fill="#202020" d="m159.625 33.426-1.961 2.13-1.99-1.065-2.462-2.436 4.837-4.82 3.569-3.821.677 1.545-1.744 6.819z" clip-rule="evenodd" fill-rule="evenodd"/>
        <path fill="#383838" d="M169.811 24.688c-.151.072-.268.195-.268.195s-.214.698-.162.907c.053.21.43.586.43.586s.433.152.845.116c.412-.037.572-.006.801-.262.257-.286.172-.822.172-.822s-.026-.513-.34-.72c-.355-.234-1-.162-1-.162s-.256.055-.478.162" clip-rule="evenodd" fill-rule="evenodd"/>
        <path fill="#55122C" d="m168.99 47.958-1.971-.9-1.296-1.108-1.066-1.217-.286-1.308-.133-1.025 1.82-.553 1.235.045 1.697 3.5z" clip-rule="evenodd" fill-rule="evenodd"/>
        <path fill="#D8D8D8" d="m157.222 31.471 2.736 2.329 2.537-3.381.305-.836.612-3.084 1.076-1.811 1.23 4.556.842 4.556.459 4.302-.459 4.014s.193 0 1.226-.362c.455-.852 1.204-2.543 1.204-2.543l-.749-6.474-.843-4.548-1.68-4.595.34-2.305-2.646-.831-4.14 7.731z" clip-rule="evenodd" fill-rule="evenodd"/>
        <path fill="#2E2C2C" d="M162.294 38.37v1.91l1.181 2.163 1.915.515 1.139-.341.49-2.336v-1.912l-4.725-.404z" clip-rule="evenodd" fill-rule="evenodd"/>
        <path fill="#834C3E" d="M168.697 23.58h1.067s.921.257 1.52.761c.111 0 .516-.206.366-.38-.405-.47-.724-.657-1.477-.906-.629.053-1.476.176-1.476.176z" clip-rule="evenodd" fill-rule="evenodd"/>
        <path fill="#FF7C3D" d="M150.032 33.577c.306.328.559 0 1.506 0 .712-.349 2.409-2.138 2.409-2.138L166.62 20.7l7.685-4.597 2.455-.967s-.455-1.579-1.042-1.579c-1.563.285-3.894.554-3.894.554s-10.336-9.452-18.612-4.27c-5.961 4.27-7.886 10.306-6.91 14.848.93 2.706 3.391 6.751 3.391 6.751s.339 1.176.339 2.138" clip-rule="evenodd" fill-rule="evenodd"/>
        <path fill="#D35C1B" d="m150.097 32.29 2.657-1.568.458-.573-2.343-2.755-2.765 1.06 1.666 2.616z" clip-rule="evenodd" fill-rule="evenodd"/>
        <path fill="#D35C1B" d="m158.979 26.777 2.471-1.765.844-.997-3.315-3.557-1.962 1.994 1.269 2.128z" clip-rule="evenodd" fill-rule="evenodd" opacity=".897"/>
        <path fill="#D8D8D8" d="m157.017 22.194 2.992-2.816 2.285-1.945 2.696-1.91.356-.395-1.595-2.028-2.3 1.616-2.142 1.386-2.46 2.314-1.757 2.042 1.757 1.736" clip-rule="evenodd" fill-rule="evenodd" opacity=".661"/>
        <path fill="#E0C9C2" d="M148.104 28.453c1.037-.427 1.604-.9 1.604-.9l1.366-.776-.929-2.498s-1.018.23-2.041.652c-.731.698-1.289.964-1.289.964s.566 1.5 1.289 2.558" clip-rule="evenodd" fill-rule="evenodd"/>
        <path fill="#B34F19" d="M152.86 31.11c-1.08.93-1.351.97-2.202 1.822-.104.105-.071.221 0 .287s.265.227.416.099c3.23-2.73 6.445-5.79 6.445-5.79s-.26-.258-.421-.134c-2.169 1.668-2.098 1.877-4.238 3.717" clip-rule="evenodd" fill-rule="evenodd"/>
        <path fill="#D35C1B" d="m175.879 14.449-2.699.406v.668h1.098z" clip-rule="evenodd" fill-rule="evenodd"/>
        <path fill="#9D1D4F" d="M172.991 36.354c-1.388.237-1.794.56-3.214 1.611-.934.693-1.494 1.876-1.494 1.876l-1.263 2.132s-.268 1.338 0 2.526c.207.917.128 1.225.801 2.015.962 1.13 1.105 1.402 2.469 1.824 1.508.466 1.926.137 3.426-.38 1.624-.56 1.774-.61 3.044-1.775 1.017-.934 1.53-2.424 1.53-2.424s.733-1.713.666-3.297c-.068-1.585-.397-1.688-1.323-2.871-.681-.87-1.893-1.237-1.893-1.237s-1.411-.229-2.749 0" clip-rule="evenodd" fill-rule="evenodd"/>
        <path fill="#7F1840" d="M171.586 37.623s-.752.332-1.775 1.055c-.547.386-.758.614-1.245 1.305-.305.43-.435.596-.758 1.353l-.45 1.064s-.225 1.281 0 1.949c.32.947.815 1.726.815 1.726s.624.78 1.292 1.153c.567.316.612.226 1.177.226.085.086-.14.504-.14.504s-.671.13-1.286-.23c-.731-.428-1.408-1.346-1.408-1.346s-.448-.878-.789-1.883c-.258-.763-.134-2.099-.134-2.099l.473-1.498s.512-.783.934-1.313c.473-.595.446-.825 1.052-1.22.987-.643.869-.888 2.242-1.683.142-.047 0 .937 0 .937" clip-rule="evenodd" fill-rule="evenodd"/>
        <path fill="#551328" d="M170.933 40.649c.148.129.465.62.465.62s-.249.204-.465.426c-.175.236-.223.327-.265.705v.672l-.73.063v-.954l.326-.911s.297-.306.669-.621" clip-rule="evenodd" fill-rule="evenodd"/>
        <path fill="#551328" d="M175.32 39.809c-.086.176-.478.61-.478.61s-.261-.188-.531-.34c-.273-.107-.373-.13-.749-.073l-.647.173-.25-.69.919-.247.964.08s.372.209.772.487" clip-rule="evenodd" fill-rule="evenodd"/>
        <path fill="#551328" d="M171.334 45.563c.086-.177.49-.767.49-.767s.369.31.639.46c.273.109.503.057.879 0l.647-.173.276.677-1.159.37h-.852s-.52-.289-.92-.567" clip-rule="evenodd" fill-rule="evenodd"/>
        <path fill="#551328" d="M175.571 45.165c-.146-.132-.601-.684-.601-.684s.45-.443.67-.662c.099-.256.167-.54.093-.949a3.6 3.6 0 0 0-.09-.772l.726-.32s.146.363.265 1.18c-.036.568-.027.824-.324 1.292-.362.526-.362.606-.739.915" clip-rule="evenodd" fill-rule="evenodd"/>
        <path fill="#551328" d="m172.158 44.25.527-1.163.705.164s.326-.318.472-.466c.037-.25.109-.56.109-.56l1.091-.109-.059 1.056s-.132.655-.455 1.02c-.283.32-.331.38-.756.497-.474.13-1.065-.128-1.065-.128z" clip-rule="evenodd" fill-rule="evenodd"/>
        <path fill="#551328" d="m174.435 41.074-.567 1.144-.699-.19s-.337.307-.488.45a8 8 0 0 1-.129.555l-1.093.071.095-1.053s.155-.65.49-1.003c.294-.31.344-.368.773-.47.479-.115 1.06.165 1.06.165z" clip-rule="evenodd" fill-rule="evenodd"/>
        <path fill="#271513" d="m172.301 115.097-3.209-1.307v-1.249l.799-.631v-1.559l-.443-1.795 1.248-.828 1.842 1.143 1.676 1.187h1.526l-2.044 5.477z" clip-rule="evenodd" fill-rule="evenodd"/>
        <path fill="#C12662" d="M167.786 41.754c.482 0 .912.093.912.093l1.382-2.006s1.974-1.244 3.712-1.876c.467-.17 1.315-.208 1.948-.157.344.027 1.02.335 1.02.335l-1.02-1.46s-1.348-.216-2.457 0c-.918.398-1.029.481-1.884 1.03-1.16.742-2.147 1.553-2.147 1.553s-.966 1.096-1.466 2.488" clip-rule="evenodd" fill-rule="evenodd" opacity=".58"/>
        <path fill="#380E1B" d="M164.96 42.842s-.267.86 0 1.518c.251.62.338.477.763.979.545.641.423.69 1.082 1.196a6.7 6.7 0 0 0 1.156.693l.581.12s.263.219.449.366v.244l-1.03-.363-1.346-.758-1.195-1.253-.712-1.124-.239-1.325-.063-.45z" clip-rule="evenodd" fill-rule="evenodd"/>
        <path fill="#444343" d="M161.41 42.116h.433l.283.499 1.424-.078.486.078.37.07-.856.273h-1.78z" clip-rule="evenodd" fill-rule="evenodd"/>
        <path fill="#960D0D" d="m167.479 154.298 3.937.731 3.532.118v-.849l-.736-.808 1.463-7.307.519-2.601.918-.079.835-4.59-.835-.611.835-2.567.533-6.59v-5.705l1.761-1.188.649-6.717h.465l.636-10.167-7.256-1.799-.944 4.547-1.968 9.447v3.878l.79.811-.79 5.115-.407.977.019 1.601-.861 6.685v1.672h-1.122v3.443l-.755 1.837.755 1.442-.755 7.111-1.218.768z" clip-rule="evenodd" fill-rule="evenodd"/>
        <path fill="#600A0A" d="M172.74 122.647h1.996l1.958.307 1.787.486 1.681-1.178-.882-.821s-.835-.238-1.833-.356c-1.353-.16-1.848-.276-2.868-.2-1.716.128-2.755.556-2.755.556z" clip-rule="evenodd" fill-rule="evenodd"/>
        <path fill="#6E6A6A" d="m172.92 98.199.993-.156.894.078.615-1.448-.26-.385-1.249-.058h-.662l-.451.66z" clip-rule="evenodd" fill-rule="evenodd"/>
        <path fill="#5A0C0C" d="M171.103 141.227h-.833v.973l.833 1.382h1.9l.513.06 1.22.142 1.136.244 1.251-.852-2.847-.976h-.505l-1.955-.285z" clip-rule="evenodd" fill-rule="evenodd" opacity=".828"/>
        <path fill="#600A0A" d="M171.227 128.935a20 20 0 0 0 2.584.313c1.274.073 2.894 0 2.894 0l-.713.505h-2.102s-1.905-.027-2.428-.187c-.235-.318-.235-.631-.235-.631" clip-rule="evenodd" fill-rule="evenodd"/>
        <path fill="#540A0A" d="M167.479 154.298s1.784.416 2.935.65 2.387.306 2.387.306h2.209v-.718l-2.333.227-2.175-.406-3.023-.538z" clip-rule="evenodd" fill-rule="evenodd"/>
        <path fill="#B52521" d="m171.227 128.935.229-.805 1.891.33h3.358v.788l-1.97.11-1.388-.014-1.388-.255z" clip-rule="evenodd" fill-rule="evenodd"/>
        <path fill="#B52521" d="M170.577 138.667v-.653l1.612.256.993.109h.786l.116.78h-1.331l-1.096-.099h-.678z" clip-rule="evenodd" fill-rule="evenodd"/>
        <path fill="#B52521" d="M171.142 140.397v-.652l1.048.126.992.109h.787v.85h-1.262l-1.491-.07z" clip-rule="evenodd" fill-rule="evenodd"/>
        <path fill="#B52521" d="m170.481 142.536-1.56.598-.161.687.801.842h1.684l1.763.349.261-1.509h-2.127z" clip-rule="evenodd" fill-rule="evenodd"/>
        <path fill="#B52521" d="M167.479 153.699v-.796l.656-.398 3.476.467 2.601.518.798 1.046-2.42.172-4.147-.729z" clip-rule="evenodd" fill-rule="evenodd" opacity=".605"/>
        <path fill="#600A0A" d="M174.82 103.569c1.503.308 2.797.748 2.797.748l3.553.705s2.185-.283 2.86-.283c.193 0 .963-.021 1.191.085-.062.152-.162.346-.217.382-.08.052-1.191 0-1.191 0l-.997.624s-.598.476-1.301.397c-2.062-.233-4.229-1.021-4.229-1.021l-2.551-.889h-.747v-.748c0-.113.513-.066.832 0" clip-rule="evenodd" fill-rule="evenodd"/>
        <path fill="#600A0A" d="m180.435 99.23 1.311-.383.244 1.509-.967 1.028-1.368.52-.775-.52.775-1.008.4-1.271z" clip-rule="evenodd" fill-rule="evenodd"/>
        <path fill="#5B0909" d="M174.95 97.64h1.553l.155.63h.975l.515-.63s-.444-.281-.866-.597c-.224-.168-.536-.37-.536-.37h-1.541z" clip-rule="evenodd" fill-rule="evenodd"/>
        <path fill="#5B0909" d="m178.147 95.94.333-.107v-.938h.799l.088-.341s-.115-.674-.273-.904c-.109-.2-.214-.2-.214-.2h-.626l-.415-1.684h-.733v3.577z" clip-rule="evenodd" fill-rule="evenodd"/>
        <path fill="#B52521" d="m176.502 97.64-1.074 1.496-.29.936.107.939-.295 1.609.188.881h-1.15v-.881l.469-1.609-.103-.939.381-1.067.51-1.19z" clip-rule="evenodd" fill-rule="evenodd"/>
        <path fill="#B52521" d="m176.233 105.203-.497 3.562-1.652 8.377v3.719l-1.546.286.08-4.005 1.643-8.752.985-3.521z" clip-rule="evenodd" fill-rule="evenodd"/>
        <path fill="#600A0A" d="m180.89 115.535-.312-8.654h-.522l.106 10.058h.554c.174-.763.174-1.404.174-1.404" clip-rule="evenodd" fill-rule="evenodd"/>
        <path fill="#B52521" d="m175.206 96.673-.128-.533h1.65l1.753.915.249.585h-.582l-1.42-.968z" clip-rule="evenodd" fill-rule="evenodd"/>
        <path fill="#600A0A" d="m177.122 138.321-1.579-.532-2.175-.172h-1.825v-.288h1.825l2.175.172 1.682.513z" clip-rule="evenodd" fill-rule="evenodd"/>
        <path fill="#3E3E3E" d="m172.919 98.27-.381-1.38.381-.35.424-.069.084.341-.084.559.17.775z" clip-rule="evenodd" fill-rule="evenodd" opacity=".626"/>
        <path fill="#150908" d="m172.538 109.276-1.102.383-.496 1.338-1.066-.861-.426-1.58 1.492-1.072 1.598 1.072z" clip-rule="evenodd" fill-rule="evenodd"/>
        <path fill="#5B5858" d="M158.979 37.285q.17-.384.335-.709c.584-1.16 1.343-2.225 2.02-3.334l.269-.44 2.803.92.251 1.355-1.173 2.208-2.194.908s-1.344-.291-2.311-.908" clip-rule="evenodd" fill-rule="evenodd" opacity=".225"/>
        <path fill="#98DCD1" d="M207.015 321.004a63 63 0 0 1-16.501 7.66 65.13 65.13 0 0 1-39.267-.944 62.9 62.9 0 0 1-36.351-33.124 68.6 68.6 0 0 1-6.217-29.241 62.9 62.9 0 0 1 4.971-24.814c3.435-8.005 14.426-21.385 14.426-21.385l3.471.265 5.889-1.669 3.485-4.867s5.07-.468 7.554-1.508c2.984-1.221 8.486-5.161 8.486-5.161s1.544-2.516 2.767-2.917c.905.841 1.406 1.401 1.818 1.861l.082.091c.252-.189.482-.593.735-1.038.381-.67.815-1.433 1.456-1.694 1.187 0 2.084 0 3.342-1.623.647-.133 1.154-.226 1.579-.305 1.019-.189 1.574-.292 2.487-.64.624-.006 1.993.218 3.408.449 1.515.248 3.084.505 3.846.496 1.585-.017 2.553-.017 6.031.944 1.063-.497 1.557-.868 1.931-1.151.503-.379.792-.596 1.961-.738 3.067 0 8.506.725 11.629 1.985 4.137 1.835 5.721 3.294 9.917 7.155a365 365 0 0 0 4.838 4.394c.462.411 4.73 5.134 5.081 5.675 5.163 5.06 7.501 11.073 10.033 17.582a252 252 0 0 0 1.621 4.095 68.8 68.8 0 0 1 4.842 26.063 64.7 64.7 0 0 1-3.827 22.709 62.5 62.5 0 0 1-11.803 19.468 33.8 33.8 0 0 0 6.872 2.321c2.484.537 5.019.806 7.56.801h2.317v17.466h-1.598a49.4 49.4 0 0 1-14.192-2.177 68.7 68.7 0 0 1-14.679-6.484m-2.397-21.845a52 52 0 0 0 9.86-15.697 50.9 50.9 0 0 0 3.085-18.283 45.17 45.17 0 0 0-12.258-31.05c-3.681-4.146-7.578-9.519-7.578-9.519l-5.809-3.339-2.279-3.176-7.318 1.061s-3.479.473-4.417.265c-.969-.215-2.713-1.896-2.713-1.896s-2.128 1.623-3.048 1.635c-1.513-.009-5.007-1.065-5.007-1.065l-4.014 1.065-1.941 2.111s-1.92-1.098-3.052-.775c-2.371.677-8.414 2.771-8.414 2.771h-5.05l-3.471 8.965s-7.895 9.775-10.236 15.609a48.6 48.6 0 0 0-3.556 18.363c.001 2.076.153 4.149.455 6.203.341 2.32.813 4.618 1.415 6.884a33.9 33.9 0 0 1 9.077-3.145 59.6 59.6 0 0 1 11.491-.985 69.3 69.3 0 0 1 28.064 6.196 96.9 96.9 0 0 1 26.714 17.802m-34.321-3.266a71 71 0 0 1 20.608 13.504 58 58 0 0 1-9.213 2.922 40 40 0 0 1-8.487.944 43.9 43.9 0 0 1-21.087-5.243 46.9 46.9 0 0 1-16.454-14.881 39 39 0 0 1 5.954-1.424 41.4 41.4 0 0 1 6.304-.473 57.2 57.2 0 0 1 22.375 4.651" clip-rule="evenodd" fill-rule="evenodd"/>
        <path fill="#525A59" d="M169.146 206.216v-7.451h-6.378l-2.383-1.269-3.516-1.414h-2.973l-4.518-2.055-2.791 1.545-3.262.51v5.581l6.053-2.347v6.9l7.491-2.284 5.899 4.235z" clip-rule="evenodd" fill-rule="evenodd"/>
        <path fill="#ABEBE1" d="m153.896 196.082 2.339 2.244-2.77 1.965-1.054 1.549-1.24-1.549-1.794-.975-1.933.544-.73-.899 3.018-3.389h1.742z" clip-rule="evenodd" fill-rule="evenodd"/>
        <path fill="#ABEBE1" d="m163.347 203.846-1.324-.768v-1.238l1.803-.492-1.803-.643 1.324-1.179-1.324-.82h2.624l1.412.82 1.759-.82 1.327 1.999-1.327 2.373-1.07-.427-.689.832z" clip-rule="evenodd" fill-rule="evenodd"/>
        <path fill="#ABEBE1" d="m153.63 203.286 1.161.56v.671l1.444-.615v-.991l1.894-1.635-1.379-.985-1.406 1.549h-1.327z" clip-rule="evenodd" fill-rule="evenodd"/>
        <path fill="#577A75" d="M143.325 208.167h.461v-.658l.879-.917v-2.746l-.399-1.327-1.252-.679h-1.838l-.255 2.133 1.147 1.273.725 1.346z" clip-rule="evenodd" fill-rule="evenodd"/>
        <path fill="#ABEBE1" d="M133.363 206.102v-1.585h-1.816l1.816-2.677 1.744-1.549 1.289.985 3.345-.985 1.114-1.585 1.628 2.052v1.082h2.182v1.318l-.823 1.359v1.585z" clip-rule="evenodd" fill-rule="evenodd"/>
        <path fill="#ABEBE1" d="m146.714 206.102 1.378-.706 1.285.82 2.907-1.699-3.774-4.226-1.796 1.549-2.049 1.318z" clip-rule="evenodd" fill-rule="evenodd"/>
        <path fill="#ABEBE1" d="m143.013 207.175 2.99 1.184 2.424.881v.784h6.193l1.795.805v-.805l-1.795-1.665h-2.153l-2.753-1.184z" clip-rule="evenodd" fill-rule="evenodd"/>
        <path fill="#ABEBE1" d="m155.247 207.623-1.379-1.022h-2.864l2.864-2.051 2.25 1.007 2.25-1.584 3.051.577-1.032 1.007h-2.019l-1.271 1.044-.623 1.625-1.227.985z" clip-rule="evenodd" fill-rule="evenodd"/>
        <path fill="#525A59" d="m144.251 203.493-.552-1.585-1.657-1.428h-.599l-.742 1.428-.845-.618-2.242-.126s-.97-1.338-.97-1.626c.649.375 1.202.823 1.202.823l2.01-.31h.845l.348-1.858h1.447v1.345h1.203l.552-.764.714-1.545h.744l-.744 2.822v1.239z" clip-rule="evenodd" fill-rule="evenodd"/>
        <path fill="#ABEBE1" d="m156.961 207.137 1.168-1.035h2.019l1.033 1.827-1.033.238-1.077-.238-.942.987z" clip-rule="evenodd" fill-rule="evenodd"/>
        <path fill="#6E9690" d="m158.129 199.48.431-1.27h1.306l1.315 2.081-.758.985-.557-.985h-1.306z" clip-rule="evenodd" fill-rule="evenodd"/>
        <path fill="#6E9690" d="m144.665 201.84.565-.564-.565-.985v-1.585l2.049-1.547v2.341h1.796l-.036.791-3.244 2.963z" clip-rule="evenodd" fill-rule="evenodd"/>
        <path fill="#6E9690" d="m131.547 204.517 2.683 6.231h6.652l2.443-1.832v-2.7l-3.21-.988h-2.009l-3.876.874-.867-1.585z" clip-rule="evenodd" fill-rule="evenodd"/>
        <path fill="#6E9690" d="M143.786 207.509v1.702l4.001 1.257v.909h3.688l.809-.629h2.422l1.173-1.305h-2.249l-2.626.617h-2.495v-.849z" clip-rule="evenodd" fill-rule="evenodd"/>
        <path fill="#525A59" d="M144.665 203.254v4.379l2.841.534.578-.992.846.992 2.074-.992 1.28-2.658-2.907 1.699-1.293-.92-1.37.806z" clip-rule="evenodd" fill-rule="evenodd"/>
        <path fill="#6E9690" d="m151.004 206.592.47 1.575 1.852-.534 1.133.534.367 1.276.494-.527v-1.407l-1.452-.908z" clip-rule="evenodd" fill-rule="evenodd"/>
        <path fill="#ABEBE1" d="M142.496 199.538h1.203l.552-.764.714-1.545h.744l-.744-1.021-1.266.624-.457 1.041-1.025-.644h-1.422l-1.038.95-3.113 1.359 1.202.823 2.01-.31h.845l.475-1.872h1.32z" clip-rule="evenodd" fill-rule="evenodd"/>
        <path fill="#6E9690" d="m146.714 198.961 1.76 1.33 1.24 1.549h1.29l1.279 1.414 1.346-1.414 2.606-3.514-2.77 1.965-1.054 1.549-1.24-1.549-1.794-.975h-.903l-1.76-.61" clip-rule="evenodd" fill-rule="evenodd"/>
        <path fill="#CBE4E0" d="m143.325 196.082 1.34-1.749 3.845-1.601 2.965.807h5.048c-.311.326-.311.631-.311.631l-1.144.747 6.113.568.843 2.011h5.137l1.985 1.21-3.561.297h-.578l-1.631.078-5.909-2.873-3.511-.126-4.578-2.055-2.663 1.545z" clip-rule="evenodd" fill-rule="evenodd"/>
        <path fill="#7F8484" d="M156.523 193.539v1.521l-1.456-.143 1.145-.747v-.305z" clip-rule="evenodd" fill-rule="evenodd"/>
        <path fill="#525A59" d="m170.206 199.951-.478 4.022-.636 4.194 1.994 2.662.718 2.978-1.211 5.349h1.211l1.276-5.349-.594-3.781-2.029-2.008.136-3.501z" clip-rule="evenodd" fill-rule="evenodd"/>
        <path fill="#6E9690" d="m128.075 219.156 3.471.265 5.89-1.669 3.484-4.867h4.789l2.765-1.508-.687-.909-1.727-1.025-1.868 1.386-2.713-.361-2.57 1.833-2.266 3.665-4.404.79-1.817 1.401z" clip-rule="evenodd" fill-rule="evenodd"/>
        <path fill="#525A59" d="m140.239 211.817-1.336.851-2.26 3.298-4.404.79 1.905-5.927 6.095-.081 2.553-1.537.221-1.044h1.163l1.884 1.276-1.868 1.386-2.556-.081z" clip-rule="evenodd" fill-rule="evenodd"/>
        <path fill="#525A59" d="M163.375 219.021s-2.788-2.074-2.788-2.99v-4.654l-1.516-3.21-.942.749 1.526 2.461-.584 5.379 3.587 2.4z" clip-rule="evenodd" fill-rule="evenodd"/>
        <path fill="#6E9690" d="M204.829 199.493h3.595l1.171-.49 1.235 3.516 2.523 4.095s2.022 2.844 3.642 5.563 10.401 15.317 10.401 15.317 3.779 8.044 5.306 13.798 3.207 9.942 3.207 9.942l1.575 12.488v16.191l-7.285 17.301-8.225 11.439s3.694 2.087 5.422 2.491c2.036.476 4.619.23 5.306.348 1.905.33 5.47 0 5.47 0l.427 15.595-1.115 4.155v-19.043h-10.088l-6.661-3.122 8.568-12.247 5.889-16.917 1.163-14.317-1.163-12.357-3.062-10.232-4.734-11.703-5.422-9.518-10.121-10.369-4.728-5.979-5.39-2.919-6.46-.849-5.636.266-5.622 2.037h-5.536l-1.256-2.303-6.139-1.309s10.732-.163 12.931-.41c2.199-.248 6.164 0 6.164 0h2.537c.637-.208.945-.347 1.233-.458 1.048.25 1.387.25 1.952.25 1.205 0 2.05.208 4.075.208.498 0 4.851-.458 4.851-.458" clip-rule="evenodd" fill-rule="evenodd"/>
        <path fill="#525A59" d="M171.804 218.727v-3.034l.438-2.994 1.168-5.336 1.525-.749-.584.749s-.383 1.196-.483 1.912c-.101.716 0 1.549 0 1.549s2.593-3.166 2.832-2.934c-.814.853-1.765 2.934-1.765 2.934l-1.998 4.249-.027 4.083z" clip-rule="evenodd" fill-rule="evenodd"/>
        <path fill="#7BA09B" d="m128.318 277.397 5.36-2.199h4.095l5.24-.486 4.211-1.774 6.65.8h7.019l5.687.974 6.493 3.137 1.128 1.039h2.728l2.189.877 6.437 2.176 5.35 2.107 2.51 3.655 2.247.904h5.572l2.768 2.635s2.578.262 3.94 1.292.482 2.055.482 2.055l-3.582 4.57-13.937-10.552-11.787-6.666-12.538-4.544-5.812-.664-1.171-.134-7.421-.848-13.901 1.646h-4.095l-4.65 2.368z" clip-rule="evenodd" fill-rule="evenodd"/>
        <path fill="#7BA09B" d="m135.664 293.139 3.486 6.02 6.91 5.081 9.819 6.342 10.253 2.682h15.737l9.036-3.867-2.149-1.65-6.887 3.671-3.148-.836-1.934.836h-3.62l-4.623-.836-5.26-1.185-5.155-1.65-4.378-.611-2.6-1.773-1.73-2.161-1.466-.949h-1.895l-1.541-1.712-.679-.905h-1.399s-1.562-.312-1.92-.477c-.359-.165-.538-1.902-.538-1.902l-.833-2.775-.926-2.227z" clip-rule="evenodd" fill-rule="evenodd"/>
        <path fill="#98DCD1" d="M82.177 302.656v29.141h-23.68v-27.172H7.508l-1.115-15.048 11.53-16.058s5.858-2.918 6.36-3.616c.379-.527.541-1.947.683-3.18.106-.931.2-1.756.367-2.009.563-.859.3-2.005.078-2.965-.161-.701-.3-1.303-.078-1.624.44-.639 1.362-1.205 2.14-1.683.574-.353 1.07-.658 1.24-.909.151-.223.37-1.128.575-1.974.181-.745.35-1.446.453-1.594.252-.365.989-.699 1.676-1.011.604-.274 1.17-.53 1.336-.775.496-.73 1.212-1.401 1.88-2.026.613-.574 1.185-1.11 1.51-1.619.74-1.159 0-4.732 0-4.732l2.35-4.831 2.72-6.537 1.41 2.507.658-6.64 3.218-6.028 11.74-15.674h25.237v78.593H97.64v19.433zm-52.436-17.464h28.756v-45.058l-.515-.172-1.974 3.526z" clip-rule="evenodd" fill-rule="evenodd"/>
        <path fill="#6E9690" d="m58.044 206.619 4.275-1.699 4.603 1.296 2.788-1.296h4.574l8.016.265 1.873 1.031s1.528 14.616 1.413 19.88a314 314 0 0 0-.085 6.624c0 3.287.589 7.038.78 10.333.071 1.235.087 2.405-.005 3.464-.296 3.405-.795 5.723-.775 7.782.03 3.001.775 9.166.775 11.7 0 3.477-.69 7.855-.69 7.855v4.678l.69 3.586s4.867 1.424 7.51 1.424h5.03l-1.408 2.043-2.023 1.109-5.138-1.109-2.852 1.851-4.104-1.851-.722-71.093-2.134-3.341H78.43l-1.192-3.999z"/>
        <path fill="#6E9690" d="M82.178 331.797v-29.141l15.462 1.362v-18.826l1.177-1.65-.275 3.02.67 3.324.583 1.263v7.562l-.395 1.218.64 2.519-1.223 2.511-9.78-.941-5.055 1.544-1.07 1.618.548 1.904-.547 7.972.547 7.42.522 5.444z" clip-rule="evenodd" fill-rule="evenodd"/>
        <path fill="#6E9690" d="m58.044 239.962-9.782 17.637-.094.169-5.45 8.231-3.573 7.02-7.038 11.564h6.314l4.297-1.041h4.71l4.589.372 6.48-.372v1.65H29.741l5.98-10.107z" clip-rule="evenodd" fill-rule="evenodd"/>
        <path fill="#525A59" d="M75.347 207.152h-1.498l-.903 6.136-6.195 4.64-1.116 6.535-7.138 15.499 8.254-12.257 1.394-8.146 4.8-4.724 2.402-1.97z" clip-rule="evenodd" fill-rule="evenodd"/>
        <path fill="#5D6564" d="m42.624 234.941-1.17 6.228v4.085l-1.907 6.633 3.077 8.472v1.81l-3.077 7.029 1.717-8.839-2.886-7.521 1.785-6.932v-4.737z" clip-rule="evenodd" fill-rule="evenodd"/>
        <path fill="#5D6564" d="m58.497 206.599-2.02 2.645 1.01 4.799 2.051 4.846-1.494 4.668 2.823 4.603-1.328 9.512s1.366-2.201 1.958-3.431c.593-1.23 2.744-6.617 2.744-6.617l-1.603-1.14-3.1-2.927 1.96-4.668-2.511-4.846-.943-4.235z" clip-rule="evenodd" fill-rule="evenodd"/>
        <path fill="#98DCD1" d="m307.389 329.835 7.941-9.6 14.436 5.918 5.012-18.764-13.688-3.679 20.272-75.884-24.391-6.555-1.936 1.521-.571 5.36.732 5.212-2.65 4.121s1.775 2.198.003 6.785-5.066 13.544-5.066 13.544l-10.53 39.414-27.794-7.47 18.183-16.826-7.383-.002 1.419-14.857a7 7 0 0 0-.795.587c-.224.193-.837.294-1.491.401-.745.123-1.543.254-1.881.541-.137.117-.481.749-.848 1.422-.417.764-.862 1.58-1.065 1.756-.23.199-.788.364-1.433.556-.876.259-1.913.567-2.503 1.069-.297.252-.318.87-.343 1.588-.034.985-.075 2.16-.841 2.843-.226.201-.529.973-.873 1.844-.454 1.154-.978 2.483-1.48 2.894-.665.543-7.08 1.838-7.08 1.838l-15.285 12.511-2.803 14.819 49.279 13.244-4.544 12.231s1.043.001 3.504-1.549 9.008 5.722 9.008 5.722z" clip-rule="evenodd" fill-rule="evenodd"/>
        <path fill="#6E9690" d="m316.919 221.118 4.568-.533 4.112 2.446 3.028-.53 4.418 1.186 7.674 2.335 1.543 1.481s-2.3 14.514-3.771 19.569a311 311 0 0 0-1.794 6.376c-.849 3.175-1.25 6.951-1.917 10.184-.249 1.211-.537 2.345-.899 3.344-1.166 3.212-2.247 5.322-2.759 7.315-.747 2.907-1.62 9.055-2.275 11.503-.898 3.359-2.695 7.408-2.695 7.408l-1.209 4.519-.26 3.643s4.333 2.637 6.886 3.323l4.859 1.304-1.888 1.608-2.241.547-4.676-2.404-3.233 1.049-3.486-2.853 17.67-68.857-1.197-3.781-1.937-.52-.118-4.171z"/>
        <path fill="#6E9690" d="m296.389 330.58-.972-.834s1.406-2.133 2.492-1.951c3.516.588 1.889 0 1.889 0l6.171-3.812 3.723.573 5.704-4.271 14.449 5.765 5.021-18.771 1.562-1.288-1.258 6.23.238 1.371-.627 2.341-.312 1.167-1.015 3.797-.696 1.073-.887 2.586-.509 1.902-9.005-1.447-6.034 1.039-8.529 2.919-6 2.053z" clip-rule="evenodd" fill-rule="evenodd"/>
        <path fill="#6E9690" d="m285.957 275.717-6.279 12.109 1.103 2.791 1.459.829 4.549 1.221 4.337 1.549 6.356 1.321-.426 1.594-5.591-.413-5.102-2.457-4.572.508-7.168-1.923-6.154-3.389 9.199-7.993 9.121-8.258z" clip-rule="evenodd" fill-rule="evenodd"/>
        <path fill="#525A59" d="m333.495 226.119-1.446-.389-2.458 5.693-7.182 2.876-2.767 6.023-10.899 13.12 11.139-9.699 3.452-7.507 5.857-3.319 2.828-1.28z" clip-rule="evenodd" fill-rule="evenodd"/>
        <path fill="#5D6564" d="m317.363 221.216-1.368 1.817.989 5.288-1.79 5.036.841 3.959-3.491 5.698-3.801 12.013s3.486-5.299 4.376-6.333 4.36-5.68 4.36-5.68l-1.254-1.517 1.254-3.794-.495-3.894 1.449-5.099-1.07-4.726z" clip-rule="evenodd" fill-rule="evenodd"/>
        <path fill="#525A59" d="M306.829 328.796v-9.686h-8.29l-3.099-1.65-4.57-1.839h-3.865l-5.874-2.67-3.627 2.008-4.241.662v7.256l7.868-3.051v8.97l9.739-2.97 7.669 5.507z" clip-rule="evenodd" fill-rule="evenodd"/>
        <path fill="#ABEBE1" d="m287.005 315.621 3.041 2.917-3.6 2.556-1.371 2.013-1.611-2.013-2.333-1.268-2.512.707-.95-1.169 3.924-4.405h2.264z" clip-rule="evenodd" fill-rule="evenodd"/>
        <path fill="#ABEBE1" d="m299.292 325.715-1.721-.999v-1.609l2.344-.639-2.344-.836 1.721-1.534-1.721-1.065h3.411l1.836 1.065 2.286-1.065 1.725 2.599-1.725 3.084v-1.297l-2.286 1.824z" clip-rule="evenodd" fill-rule="evenodd"/>
        <path fill="#ABEBE1" d="m286.659 324.987 1.509.728v.873l1.878-.801v-1.288l2.462-2.125-1.792-1.28-1.828 2.013h-1.726z" clip-rule="evenodd" fill-rule="evenodd"/>
        <path fill="#577A75" d="M273.263 331.333h.6v-.856l1.142-1.192v-3.57l-.519-1.726-1.628-.882h-2.388l-.332 2.773 1.49 1.655.943 1.75z" clip-rule="evenodd" fill-rule="evenodd"/>
        <path fill="#ABEBE1" d="M260.312 328.647v-2.059h-2.361l2.361-3.481 2.268-2.013 1.675 1.28 4.348-1.28 1.448-2.061 2.117 2.667v1.407h2.837v1.714l-1.07 1.767v2.059z" clip-rule="evenodd" fill-rule="evenodd"/>
        <path fill="#ABEBE1" d="m277.669 328.647 1.791-.918 1.671 1.067 3.778-2.208-4.906-5.494-2.334 2.013-2.664 1.714z" clip-rule="evenodd" fill-rule="evenodd"/>
        <path fill="#ABEBE1" d="m272.857 330.042 3.888 1.54 3.151 1.145v1.019h8.051l2.334 1.046v-1.046l-2.334-2.164h-2.8l-3.578-1.54z" clip-rule="evenodd" fill-rule="evenodd"/>
        <path fill="#ABEBE1" d="m288.762 330.625-1.792-1.329h-3.724l3.724-2.667 2.924 1.311 2.925-2.06 3.967.749-1.342 1.311h-2.625l-1.652 1.356-.81 2.113-1.595 1.281z" clip-rule="evenodd" fill-rule="evenodd"/>
        <path fill="#525A59" d="m274.467 325.256-.717-2.061-2.155-1.857h-.779l-.965 1.857-1.098-.803-2.915-.164s-1.261-1.739-1.261-2.114a14 14 0 0 1 1.564 1.071l2.612-.404h1.098l.453-2.416h1.882v1.749h1.564l.717-.993.928-2.008h.967l-.967 3.668v1.611z" clip-rule="evenodd" fill-rule="evenodd"/>
        <path fill="#ABEBE1" d="m290.99 329.993 1.518-1.346h2.625l1.343 2.376-1.343.31-1.4-.31-1.225 1.283z" clip-rule="evenodd" fill-rule="evenodd"/>
        <path fill="#6E9690" d="m292.508 320.039.56-1.651h1.698l1.709 2.706-.985 1.28-.724-1.28h-1.698z" clip-rule="evenodd" fill-rule="evenodd"/>
        <path fill="#6E9690" d="m275.005 323.107.734-.733-.734-1.28v-2.061l2.664-2.011v3.043h2.334l-.046 1.029-4.218 3.851z" clip-rule="evenodd" fill-rule="evenodd"/>
        <path fill="#6E9690" d="m257.951 326.588 3.489 8.099h8.647l3.176-2.381v-3.51l-4.173-1.284h-2.612l-5.038 1.135-1.128-2.059z" clip-rule="evenodd" fill-rule="evenodd"/>
        <path fill="#6E9690" d="M273.862 330.477v2.213l5.201 1.634v1.181h4.794l1.052-.818h3.149l1.525-1.696h-2.924l-3.413.802h-3.243v-1.103z" clip-rule="evenodd" fill-rule="evenodd"/>
        <path fill="#525A59" d="M275.005 324.945v5.692l3.693.696.751-1.291 1.101 1.291 2.696-1.291 1.663-3.454-3.778 2.208-1.682-1.196-1.78 1.047z" clip-rule="evenodd" fill-rule="evenodd"/>
        <path fill="#6E9690" d="m283.246 329.285.612 2.048 2.407-.696 1.473.696.477 1.658.642-.685v-1.829l-1.887-1.181z" clip-rule="evenodd" fill-rule="evenodd"/>
        <path fill="#ABEBE1" d="M272.186 320.114h1.564l.717-.993.928-2.008h.967l-.967-1.328-1.645.811-.594 1.354-1.334-.837h-1.848l-1.35 1.235-4.047 1.766 1.564 1.071 2.612-.404h1.098l.619-2.433h1.716z" clip-rule="evenodd" fill-rule="evenodd"/>
        <path fill="#6E9690" d="m277.669 319.364 2.288 1.73 1.612 2.013h1.677l1.663 1.838 1.75-1.838 3.387-4.569-3.6 2.556-1.371 2.013-1.611-2.013-2.333-1.268h-1.174l-2.288-.793" clip-rule="evenodd" fill-rule="evenodd"/>
        <path fill="#CBE4E0" d="m273.263 315.621 1.742-2.274 4.998-2.081 3.854 1.05h6.563c-.404.423-.404.819-.404.819l-1.488.972 7.947.739 1.096 2.614h6.678l2.58 1.573-4.629.386h-.751l-2.121.102-7.681-3.736-4.564-.164-5.952-2.671-3.462 2.009z" clip-rule="evenodd" fill-rule="evenodd"/>
        <path fill="#7F8484" d="M290.421 312.316v1.977l-1.893-.186 1.488-.972v-.395z" clip-rule="evenodd" fill-rule="evenodd"/>
        <path fill="#525A59" d="M303.914 327.795v-7.451h6.377l2.384-1.269 3.515-1.415h2.973l4.519-2.054 2.79 1.545 3.262.509v5.582l-6.052-2.348v6.901l-7.492-2.285-5.899 4.236z" clip-rule="evenodd" fill-rule="evenodd"/>
        <path fill="#ABEBE1" d="m319.163 317.66-3.571.126-2.901 1.022 6.066 2.781 1.14.553.751 1.277 1.239-1.549 1.795-.976 1.932.545.731-.9-3.019-3.388h-1.742z" clip-rule="evenodd" fill-rule="evenodd"/>
        <path fill="#ABEBE1" d="m309.713 325.425 1.323-.768v-1.238l-1.802-.492 1.802-.643-1.323-1.18 1.323-.819h-2.624l-1.412.819-1.758-.819-1.327 1.999 1.327 2.373 1.069-.428.689.833z" clip-rule="evenodd" fill-rule="evenodd"/>
        <path fill="#ABEBE1" d="m319.43 324.864-1.161.561v.671l-1.445-.616v-.991l-3.728-1.634-.405-.985 1.695-.085 3.33 1.634h1.327z" clip-rule="evenodd" fill-rule="evenodd"/>
        <path fill="#577A75" d="M329.734 329.746h-.461v-.658l-.879-.917v-2.746l.4-1.328 1.252-.678h1.837l.256 2.132-1.147 1.274-.725 1.346z" clip-rule="evenodd" fill-rule="evenodd"/>
        <path fill="#ABEBE1" d="M339.697 327.68v-1.584h1.816l-1.816-2.677-1.745-1.549-1.289.985-3.344-.985-1.114-1.585-1.629 2.051v1.083h-2.181v1.318l.823 1.359v1.584z" clip-rule="evenodd" fill-rule="evenodd"/>
        <path fill="#ABEBE1" d="m326.345 327.68-1.377-.706-1.286.821-2.906-1.699 3.774-4.226 1.795 1.549 2.05 1.318z" clip-rule="evenodd" fill-rule="evenodd"/>
        <path fill="#ABEBE1" d="m330.046 328.753-2.99 1.185-2.425.881v.783h-6.192l-1.796.805v-.805l1.796-1.664h2.153l2.753-1.185z" clip-rule="evenodd" fill-rule="evenodd"/>
        <path fill="#ABEBE1" d="m317.813 329.201 1.378-1.021h2.865l-2.865-2.052-2.249 1.008-2.25-1.585-3.052.577 1.033 1.008h2.019l1.27 1.044.624 1.625 1.227.985z" clip-rule="evenodd" fill-rule="evenodd"/>
        <path fill="#525A59" d="m328.809 325.072.551-1.585 1.657-1.429h.6l.742 1.429.844-.618 2.243-.127s.97-1.337.97-1.626c-.649.375-1.203.824-1.203.824l-2.01-.31h-.844l-.348-1.859h-1.448v1.345h-1.203l-.551-.764-.714-1.544h-.744l.744 2.822v1.239z" clip-rule="evenodd" fill-rule="evenodd"/>
        <path fill="#ABEBE1" d="m316.099 328.715-1.168-1.035h-2.019l-1.033 1.827 1.033.239 1.077-.239.942.988z" clip-rule="evenodd" fill-rule="evenodd"/>
        <path fill="#6E9690" d="m314.931 321.059-.431-1.27h-1.307l-1.314 2.081.758.985.556-.985h1.307z" clip-rule="evenodd" fill-rule="evenodd"/>
        <path fill="#6E9690" d="m328.395 323.419-.565-.564.565-.985v-1.585l-2.05-1.547v2.34h-1.795l.035.792 3.245 2.962z" clip-rule="evenodd" fill-rule="evenodd"/>
        <path fill="#6E9690" d="m341.513 326.096-2.684 6.23h-6.652l-2.443-1.831v-2.7l3.21-.988h2.01l3.875.873.868-1.584z" clip-rule="evenodd" fill-rule="evenodd"/>
        <path fill="#6E9690" d="M329.273 329.088v1.702l-4 1.257v.909h-3.688l-.809-.63h-2.423l-1.173-1.304h2.25l2.625.616h2.495v-.848z" clip-rule="evenodd" fill-rule="evenodd"/>
        <path fill="#525A59" d="M328.395 324.832v4.379l-2.841.535-.578-.993-.847.993-2.074-.993-1.279-2.657 2.906 1.699 1.294-.92 1.369.805z" clip-rule="evenodd" fill-rule="evenodd"/>
        <path fill="#6E9690" d="m322.056 328.171-.471 1.575-1.851-.535-1.134.535-.367 1.276-.494-.527v-1.407l1.452-.908z" clip-rule="evenodd" fill-rule="evenodd"/>
        <path fill="#ABEBE1" d="M330.563 321.116h-1.203l-.551-.764-.714-1.544h-.744l.744-1.022 1.265.624.457 1.041 1.026-.643h1.421l1.039.949 3.113 1.359-1.203.824-2.01-.31h-.844l-.476-1.873h-1.32z" clip-rule="evenodd" fill-rule="evenodd"/>
        <path fill="#6E9690" d="m326.345 320.539-1.76 1.331-1.241 1.549h-1.289l-1.28 1.413-1.346-1.413-4.499-2.36-.545-1.538 5.208 2.349 1.055 1.549 1.239-1.549 1.795-.976h.903l1.76-.609" clip-rule="evenodd" fill-rule="evenodd"/>
        <path fill="#CBE4E0" d="m329.734 317.66-1.34-1.749-3.844-1.601-2.965.808h-5.049c.311.325.311.63.311.63l1.145.747h-6.352l-1.956.656-5.011.509s-1.657 1.57-1.852 2.244 1.093.381 1.093.381l3.561.296h.577l1.632.079 5.908-2.874 3.511-.126 4.579-2.054 2.663 1.545z" clip-rule="evenodd" fill-rule="evenodd"/>
        <path fill="#7F8484" d="M316.537 315.118v1.52l1.455-.143-1.144-.747v-.304z" clip-rule="evenodd" fill-rule="evenodd"/>
    </g>
</svg>
