<svg height="1654" viewBox="0 0 7552 1654" width="7552" xmlns="http://www.w3.org/2000/svg"><g fill-rule="evenodd" opacity=".5"><path d="m0 1614.5h7552" style="stroke-dasharray:20 1;stroke-linecap:square;opacity:.618;stroke-width:.5;stroke:#595959;fill:none"/><g opacity=".651"><g fill="#9ea0a5"><path d="m1628.536 1568.353q23.855-8.889 37.166 0 33.825 17.16 87.753 11.006 23.685-46.66 17.477-171.92 20.948-95.642 36.55-138.017 0-65.588 24.247-135.626l17.477-83.768 12.838 74.767 26.43 104.531v270.445q4.978 40.8 23.653 47.204 52.569 18.027 103.224-.619l11.587-123.43q7.522-58.833 0-110.68 0-65.37-28.085-108.412 19.646-65.453 28.085-134.21v-94.59l-11.587-107.562-153.307 22.095q-76.042 7.539-159.394 0-34.683 24.216-30.593 138.75-4.85 61.067-6.355 114.789-1.572 56.06-6.154 103.109-15.272 41.43-19.22 66.03-7.98 49.7 0 95.193l-11.792 60.142q-11.295 68.407 0 100.773"/><path d="m1702.65 889.567q70.81 9.09 141.113 5.13c92.479-10.061 102.638-17.472 171.588-22.742q7.425-15.7 0-66.023v-200.032l82.226-37.218q-38.985-91.254-74.8-161.323c-53.154-19.403-82.131-25.578-113.078-39.612-8.124 20.21-13.842 20.5-41.478 39.612-22.838 13.043-28.19 4.862-54.442 0q-25.34-4.694-29.56-25.578l-105.331 55.39-56 168.73q8.514 5.88 41.698 18.086 33.184 12.207 57.325 4.67-16.74 43.447-19.26 77.002 0 36.21 8.799 121.141v5.165q-2.175 9.004-8.8 24.403-2.247 14.714 0 33.2"/><path d="m1705.493 842.029q12.567 18.303 27.786 21.506c35.874 7.55 42.922 8.157 74.4 0q24.766-6.62 52.553-32.902 37.89 32.901 109.566 41.322 16.82 0 32.816-15.04l17.605-68.753 10.48-78.244v-60.588l-15.348-43.43 4.868-203.51q-25.755-19.6-73.747-34.644-7.267-2.28-36.773 0l-24.095 124.742q-25.371 102.083-36.398 113.411c-17.81-87.763-41.527-128.465-61.399-168.468-7.383-25.463 14.205-58.798 0-58.831q-54.527 22.845-109.574 51.871l12.662 67.414 14.598 151.445z"/><path d="m1982.394 867.509a15368 15368 0 0 1 -4.276-122.146c-1.315-42.161-1.78-38.098-2.328-77.734-.616-44.649-1.34-48.412 0-90.835 1.961-62.054 5.91-58.78 6.604-118.12q-4.276-56.389-4.276-80.72l-43.827-16.948q6.192 53.445 6.192 114.058 0 59.544-6.192 119.449l-5.902 73.116q-1.698 39.468 0 66.971c4.349 70.45 3.827 107.909 12.094 128.935q29.315 8.42 41.911 3.974"/><path d="m1911.764 379.85q-21.063-18.844-24.025-46.821h-84.047q-6.465 34.717-18.99 66.16c10.88 19.508 31.41 28.83 64.504 23.357 33.092-5.474 52.447-16.85 62.558-42.695"/><path d="m1784.702 869.045q0-66.608-11.098-124.22c-1.316-42.162.547-73.367 0-113.003-2.672-19.506-7.945-44.207-6.605-86.63-4.01-45.431-4.575-31.864-3.88-91.204q0-54.487 3.88-67.779l-52.681 21.149q5.28 17.98 5.28 78.594 0 59.543 6.228 117.851l-6.228 66.13q-1.698 39.468 0 66.971c4.35 70.45 9.396 105.368 17.663 126.394q29.315 8.421 47.44 5.747"/><path d="m1788.597 326.126c16.133 32.611 28.02 48.92 55.355 48.92q28.955 0 54.001-48.92 23.916-35.646 25.166-73.122c1.028-30.798-6.413-45.865-20.61-63.425-9.372-10.407-25.131-19.02-49.338-19.02q-27.248 0-53.571 19.02-26.076 26.396-28.668 58.574c-2.909 36.096 4.315 50.948 17.665 77.973"/><path d="m1762.84 256.4c41.628-22.755 125.424-30.24 145.69-30.828 6.022-.175 11.598 2.224 17.087 7.166q7.83-9.711 8.72-15.414l-12.285-11.394q-7.344-103.484-90.616-93.175c-83.272 10.309-68.596 88.48-68.596 112.817-8.811 5.404-5.967 5.404-8.373 12.58-2 5.96 2.406 11.089 8.373 18.249"/><path d="m2074.614 578.752q7.846 23.35 10.82 36.274c5.438 23.62 20.13 44.694 26.36 82.14q5.82 52.52-3.832 116.811h-48.812q-14.05-45.547-23.03-95.665-5.245-29.268-5.42-63.108l-15.35-49.304z"/><path d="m1702.528 631.822q5.79 38.845 0 86.652 5.821 52.519-32.434 150.571l-41.807-10.784v-97.955q4.962-44.737 20.805-89.638l4.01-51.387z"/><path d="m2036.589 825.03 20.857-14.441q48.585-4.082 56.538 9.144 4.148 14.755 0 49.312l4.148 8.634-4.148 11.888 8.42 20.34-11.491 42.613q-13.336 12.69-35.904 18.102c-17.23 2.942-27.258-1.31-38.42-5.412q-3.838-1.41-5.89-9.063h-6.57l-3.428-36.843q5.118-14.583 12.25-26.07 5.791-9.325 13.597-15.555-7.769-5.418-9.96-13.438-1.547-5.667 2.482-13.936z"/><path d="m1617.757 840.568q32.588 21.68 60.476 21.68l27.19 18.504-27.19 46.228-3.11 89.752h-13.625l-11.153-10.092a99 99 0 0 1 -22.058 2.454c-24.584-11.724-27.707-37.494-27.707-49.855q4.065-19.275 11.73-32.259l10.577-19.807q-10.576-43.638-5.131-66.605"/></g><path d="m2033.077 956.011 12.895-9.451 10.829-19.442 12.208-16.717" fill="none" opacity=".294" stroke="#979797" stroke-linecap="round" stroke-width=".1"/><path d="m1653.002 1007.581 4.139-16.402v-12.726l2.859-14.943" fill="none" opacity=".294" stroke="#979797" stroke-linecap="round" stroke-width=".1"/><path d="m1987.818 1648.333c68.062 17.95 84.668 2.682 90.25-10.459q5.58-13.14 0-32.842l-28.684-30.032-34.033-28.645q-31.435 9.351-60.384 6.873-28.541-2.442-54.595-16.712-9.6 24.045-3.884 44.467c4.355 15.56 8.606 18.387 27.504 28.328 11.197 5.89 22.478-3.636 30.975 3.334 15.572 12.774 0 21.803 32.85 35.687" fill="#9ea0a5"/><path d="m1611.334 1675.975c25.345-.824 66.597-23.477 74.205-34.815 9.304-13.867 17.355-13.867 29.91-17.838q19.923-6.303 37.298-26.803v-25.39l-67.208-17.287q-32.706-17.325-68.073 27.142c-10.657 14.124-29.262 15.56-51.78 42.338-3.523 11.197-8.496 32.492 0 39.462 15.572 12.774 21.02 6.335 45.648 13.191" fill="#9ea0a5"/></g><g opacity=".797"><g fill="#9ea0a5"><path d="m804.761 1567.313-8.748 21.854-2.013 2.784-48.568 11.341q-25.911-2.62-39.446 7.488c-8.973 6.207-16.442 13.654-21.362 32.08v24.217h99.256l69.963-8.042 28.732-19.8 22.928-59.007-16.127-23.381-80.872-13.69z"/><path d="m949.727 1586.014q-1.504 8.463 0 19.103 1.503 10.64 5.088 20.308 8.94 45.857-5.088 51.2-22.54 4.05-63.521 0 .8-9.549-10.502-9.548-11.304 0-48.772 9.548h-95.706q-14.19 2.975-14.189-11.69c0-10.959 7.263-29.514 14.189-38.48 12.403-9.94 27.074-14.608 51.391-21.338 21.179-5.861 31.206-5.544 44.315-13.166q6-15.105 0-26.737l113.652-8.367z"/><path d="m724.3 980.487 63.431 264.847q8.661 307.161 11.889 332.268 22.042 13.974 54.223 10.278l-18.242-349.83-20.18-153.301-43.05-128.777z"/><path d="m916.988 911.912q3.085 42.43 0 79.39-2.739 32.809-11.648 60.146l11.648 251.837 37.827 288.917q-42.477 14.805-84.529 9.846c-23.144-2.73-9.003 1.432-54.864-23.792q-21.114-97.856-9.598-251.28v-109.66l-45.575-113.029-24.31-173.273z"/><path d="m725.503 310.004q-4.23 29.103-4.23 56.612c2.812 23.44 4.988 39.213 14.667 39.213q9.678 0 36.43-4.574l24.846 48.575 66.632-59.93 33.866-85.117q-29.085-66.706-68.227-73.229c-53.37-6.511-48.876-4.366-80.616 19.58q-12.931 9.58-23.368 58.87"/><path d="m880.237 411.95.522.087c17.19 2.867 28.88 3.114 53.161 27.878 19.663 20.053 27.828 21.348 34.695 62.168 7.409 44.04-3.044 46.723 0 90.843 2.181 31.603 8.751 37.34 10.451 60.602q1.371 18.761-10.45 40.157-8.39 36.79-10.07 74.79c-1.393 31.526 2.563 41.772 3.758 89.713q10.157 50.279 6.311 124.872 3.202 16.745-34.695 32.916-25.104 7.293-87.792 14.05l-76.39-21.79-62.115-25.176q-2.06-32.782 0-64.288a758.4 758.4 0 0 1 18.452-123.933v-97.335l-.572-.183.571-3.39.001-8.811 1.467.114 22.61-133.96 28.31-52.177h27.362q7.823-29.717 20.861-49.267 13.633-20.443 32.482-30.719zm-10.778 57.442-10.292 29.705-5.884 52.177-10.453 38.702v76.767l30.9 19.962-9.854 18.858q48.534 37.737 79.361 27.202-5.991-36.594 0-79.237l7.12-60.602q5.51-74.759-7.12-114.9-9.316-16.433-37.897-28.196z"/><path d="m674.663 936.08q16.54 19.891 31.93 19.892 0-19.893 7.34-100.324l20.12-97.46 13.877-180.744q10.408-39.82 18.19-56.978 14.717-32.443 31.096-70.636-7.322-20.479-13.005-22.826-28.378 39.8-50.159 124.27-29.36 57.226-42.85 142.947c-9.615 61.094-1.51 83.534-6.836 161.427q-2.943 43.035-9.703 80.431"/><path d="m735.94 762.102q60.318 29.695 88.485 39.746c28.167 10.051 96.01 23.96 118.812 23.96 10.14 0 9.155-5.085 11.248-10.892-2.872-8.874 0-13.068 1.976-16.636q1.404-2.51 5.667-6.46.132-28.513-1.187-35.574c-4.48 5.856-2.381 9.393-8.886 17.152-3.808 2.361-.212-3.83-10.9 1.925-4.65 2.503-7.738 6.668-13.817 5.62-47.183-8.139-52.548-7.328-96.977-20.699q-49.14-14.788-94.421-39.256z"/><path d="m668.646 704.878 45.287 66.81 11.57 10.924 163.097-21.728v-22.363q-108.764-172.15-163.013-254.41h-4.764l-160.823 58.443z"/><path d="m839.753 673.68c20.184 7.239 28.48-11.329 43.066-11.329q21.405 0 31.993 3.048l34.77 8.282v-86.06q10.465-55.481 0-94.363c-7.65-28.429-10.384-35.972-29.293-43.428-18.793-7.41-31.374-1.872-47.444 14.685q-15.049 15.503-18.455 44.35-21.396 92.362-14.637 164.816"/><path d="m764.466 538.398c10.076-18.173 10.076-26.72 22.987-37.1 3.236 0 14.222-1.23 18.37-2.2 21.308-35.085 15.477-31.412 42.629-59.997 8.65-8.016 36.396-16.675 40.148-27.152-6.642-14.03-15.83-17.137-24.752-22.048-17.324 7.643-24.74 11.89-40.146 25.747q-17.91 16.109-26.486 34.182l-14.305 26.21q-12.393 29.478-22.662 56.615c2.059 4.291 2.059 8.122 4.217 5.743"/><path d="m601.503 635.394c0-4.865 0-6.638 2.172-8.862 5.824-3.194 11.09-4.83 20.541-3.194q12.996 3.308 33.447 7.19l29.585 17.938 6.277 14.914 107.446 29.649 59.181 5.437-10.06-27.548q17.858-26.194 44.645-26.194 27.285 0 48.5 21.478v66.563q-5.8 36.525-26.117 50.554-10.62 7.487-49.17 0l-52.528-19.81-128.174-59.714-50.036-2.096q-18.364-16.897-27.713-33.924-4.452-13.789 6.486-23.051-6.486-4.987-14.482-9.33"/><path d="m954.485 457.449c0-15.8-11.494-37.743-27.015-61.847q-15.85-24.615-38.87-43.209 13.302-27.99 6.137-47.528c-13.76-12.024-16.589-20.647-36.973-31.374-16.462-8.662-16.462-7.403-36.72-7.403-11.505 11.72-11.505 8.761-28.842 21.791 0 11.68-11.834 14.758-6.7 23.01 6.359 3.94 6.359 10.22 15.816 8.913 14.104-24.995 11.47-19.434 23.107-20.828q10.125 5.892 18.405 15.855 4.49 17.88 0 31.959c-4.712 14.776-4.712 17.41-18.405 25.753q0 8.116 13.705 10.436 19.635-6.75 28.454-6.75 2.764 19.375 60.886 66.762a4344 4344 0 0 1 27.015 14.46"/><path d="m693.915 309.88 69.318-17.435h79.837c21.982 0 46.666 12.338 54.644 12.338q7.978 0 36.206 15.019l-9.414-56.728q-20.473-48.174-35.72-61.314c-28.04-24.165-61.462-24.89-82.962-17.977-49.785 16.01-49.785 16.01-77.017 54.003a1746 1746 0 0 0 -14.874 45.666q-15.435 2.943-20.018 8.994-5.427 7.164 0 17.436"/><path d="m894.737 354.619c-13.13 17.768-18.141 23.13-25.39 31.954-2.256 0-4.588-6.238-4.718-12.052 4.364-13.95 9.535-19.902 16.977-27.128 5.285-2.588 14.833 2.112 13.13 7.226"/><path d="m713.933 855.648q1.682 8.493 10.367 16.49c17.221 11.07 184.139 61.113 208.872 54.276 7.109-7.45 4.69-11.167 17.864-21.058q3.909-2.934 16.304-4.594v37.25q-8.824 2.496-12.525 6.27c-11.904 12.136-1.975 20.333-18.686 25.548-16.712 5.216-196.277-47.12-211.829-51.102-17.862-5.375-14.39-8.812-17.707-17.966q4.205-24.605 7.34-45.114"/></g><path d="m687.77 836.86q7.503-1.194 18.823 16.747l-2.961 43.308q-8.728-11.73-19.678-16.627c2.131-19.407 2.131-29.567 3.816-43.428" fill="#b9a99b"/><path d="m899.03 417.836 11.86 11.518q-21.067 7.489-39.73 22.574c-12.263 9.911-16.62 18.443-25.064 35.78-9.472 19.45-7.48 24.355-14.883 48.773-7.933 26.162-5.459 26.726-11.999 52.68q-4.322 17.153-6.867 30.476l-24.616-38.046q11.746-24.796 21.577-51.491c10.347-28.097 5.92-34.102 18.78-58.093 12.22-22.8 14.323-22.467 31.378-35.489q18.417-14.063 39.564-18.682" fill="#9ea0a5"/></g><g opacity=".722"><g fill="#9ea0a5"><path d="m6995.536 1568.353q23.855-8.889 37.166 0 33.825 17.16 87.753 11.006 23.685-46.66 17.477-171.92 20.948-95.642 36.55-138.017 0-65.588 24.247-135.626l17.477-83.768 12.838 74.767 26.43 104.531v270.445q4.978 40.8 23.653 47.204 52.569 18.027 103.224-.619l11.587-123.43q7.522-58.833 0-110.68 0-65.37-28.085-108.412 19.646-65.453 28.085-134.21v-94.59l-11.587-107.562-153.307 22.095q-76.042 7.539-159.394 0-34.683 24.216-30.593 138.75-4.85 61.067-6.355 114.789-1.572 56.06-6.154 103.109-15.272 41.43-19.22 66.03-7.98 49.7 0 95.193l-11.792 60.142q-11.295 68.407 0 100.773"/><path d="m7069.65 889.567q70.81 9.09 141.113 5.13c92.479-10.061 102.638-17.472 171.588-22.742q7.425-15.7 0-66.023v-200.032l82.226-37.218q-38.985-91.254-74.8-161.323c-53.154-19.403-82.131-25.578-113.078-39.612-8.124 20.21-13.842 20.5-41.478 39.612-22.838 13.043-28.19 4.862-54.442 0q-25.34-4.694-29.56-25.578l-105.331 55.39-56 168.73q8.514 5.88 41.698 18.086 33.184 12.207 57.325 4.67-16.74 43.447-19.26 77.002 0 36.21 8.799 121.141v5.165q-2.175 9.004-8.8 24.403-2.247 14.714 0 33.2"/><path d="m7072.493 842.029q12.567 18.303 27.786 21.506c35.874 7.55 42.922 8.157 74.4 0q24.766-6.62 52.553-32.902 37.89 32.901 109.566 41.322 16.82 0 32.816-15.04l17.605-68.753 10.48-78.244v-60.588l-15.348-43.43 4.868-203.51q-25.755-19.6-73.747-34.644-7.267-2.28-36.773 0l-24.095 124.742q-25.371 102.083-36.398 113.411c-17.81-87.763-41.527-128.465-61.399-168.468-7.383-25.463 14.205-58.798 0-58.831q-54.527 22.845-109.574 51.871l12.662 67.414 14.598 151.445z"/><path d="m7349.394 867.509a15368 15368 0 0 1 -4.276-122.146c-1.315-42.161-1.78-38.098-2.328-77.734-.616-44.649-1.34-48.412 0-90.835 1.961-62.054 5.91-58.78 6.604-118.12q-4.276-56.389-4.276-80.72l-43.827-16.948q6.192 53.445 6.192 114.058 0 59.544-6.192 119.449l-5.902 73.116q-1.698 39.468 0 66.971c4.349 70.45 3.827 107.909 12.094 128.935q29.315 8.42 41.911 3.974"/><path d="m7278.764 379.85q-21.063-18.844-24.025-46.821h-84.047q-6.465 34.717-18.99 66.16c10.88 19.508 31.41 28.83 64.504 23.357 33.092-5.474 52.447-16.85 62.558-42.695"/><path d="m7151.702 869.045q0-66.608-11.098-124.22c-1.316-42.162.547-73.367 0-113.003-2.672-19.506-7.945-44.207-6.605-86.63-4.01-45.431-4.575-31.864-3.88-91.204q0-54.487 3.88-67.779l-52.681 21.149q5.28 17.98 5.28 78.594 0 59.543 6.228 117.851l-6.228 66.13q-1.698 39.468 0 66.971c4.35 70.45 9.396 105.368 17.663 126.394q29.315 8.421 47.44 5.747"/><path d="m7155.597 326.126c16.133 32.611 28.02 48.92 55.355 48.92q28.955 0 54.001-48.92 23.916-35.646 25.166-73.122c1.028-30.798-6.413-45.865-20.61-63.425-9.372-10.407-25.131-19.02-49.338-19.02q-27.248 0-53.571 19.02-26.076 26.396-28.668 58.574c-2.909 36.096 4.315 50.948 17.665 77.973"/><path d="m7129.84 256.4c41.628-22.755 125.424-30.24 145.69-30.828 6.022-.175 11.598 2.224 17.087 7.166q7.83-9.711 8.72-15.414l-12.285-11.394q-7.344-103.484-90.616-93.175c-83.272 10.309-68.596 88.48-68.596 112.817-8.811 5.404-5.967 5.404-8.373 12.58-2 5.96 2.406 11.089 8.373 18.249"/><path d="m7441.614 578.752q7.846 23.35 10.82 36.274c5.438 23.62 20.13 44.694 26.36 82.14q5.82 52.52-3.832 116.811h-48.812q-14.05-45.547-23.03-95.665-5.245-29.268-5.42-63.108l-15.35-49.304z"/><path d="m7069.528 631.822q5.79 38.845 0 86.652 5.821 52.519-32.434 150.571l-41.807-10.784v-97.955q4.962-44.737 20.805-89.638l4.01-51.387z"/><path d="m7403.589 825.03 20.857-14.441q48.585-4.082 56.538 9.144 4.148 14.755 0 49.312l4.148 8.634-4.148 11.888 8.42 20.34-11.491 42.613q-13.336 12.69-35.904 18.102c-17.23 2.942-27.258-1.31-38.42-5.412q-3.838-1.41-5.89-9.063h-6.57l-3.428-36.843q5.118-14.583 12.25-26.07 5.791-9.325 13.597-15.555-7.769-5.418-9.96-13.438-1.547-5.667 2.482-13.936z"/><path d="m6984.757 840.568q32.588 21.68 60.476 21.68l27.19 18.504-27.19 46.228-3.11 89.752h-13.625l-11.153-10.092a99 99 0 0 1 -22.058 2.454c-24.584-11.724-27.707-37.494-27.707-49.855q4.065-19.275 11.73-32.259l10.577-19.807q-10.576-43.638-5.131-66.605"/></g><path d="m7400.077 956.011 12.895-9.451 10.829-19.442 12.208-16.717" fill="none" opacity=".294" stroke="#979797" stroke-linecap="round" stroke-width=".1"/><path d="m7020.002 1007.581 4.139-16.402v-12.726l2.859-14.943" fill="none" opacity=".294" stroke="#979797" stroke-linecap="round" stroke-width=".1"/><path d="m7354.818 1648.333c68.062 17.95 84.668 2.682 90.25-10.459q5.58-13.14 0-32.842l-28.684-30.032-34.033-28.645q-31.435 9.351-60.384 6.873-28.541-2.442-54.595-16.712-9.6 24.045-3.884 44.467c4.355 15.56 8.606 18.387 27.504 28.328 11.197 5.89 22.478-3.636 30.975 3.334 15.572 12.774 0 21.803 32.85 35.687" fill="#9ea0a5"/><path d="m6978.334 1675.975c25.345-.824 66.597-23.477 74.205-34.815 9.304-13.867 17.355-13.867 29.91-17.838q19.923-6.303 37.298-26.803v-25.39l-67.208-17.287q-32.706-17.325-68.073 27.142c-10.657 14.124-29.262 15.56-51.78 42.338-3.523 11.197-8.496 32.492 0 39.462 15.572 12.774 21.02 6.335 45.648 13.191" fill="#9ea0a5"/></g><g fill="#9ea0a5"><path d="m6542.137 1594.925c3.009 8.53 9.584 13.464 21.473 17.212 6.623 2.088 29.9-1.527 38.223 0 18.285 3.354 18.396.446 36.27 2.932 29.345 4.08 37.688-.907 62.626-2.932 31.795-2.582 46.023 2.465 50.84-6.282 30.19-10.93 22.253-19.824 21.954-20.693-4.41-12.825-.624-12.825-12.517-30.324q-8.345-12.278-76.241-20.664l-27.092 3.673-43.108 16.991-45.052 8.033-22.58 3.898q-9.31 15.355-4.796 28.156"/><path d="m6560.133 1621.73c3.008 8.53 6.632 11.782 18.521 15.53 6.624 2.087 16.331-1.528 24.655 0 18.284 3.354 10.687 7.276 28.561 9.762q29.344 4.08 61.866 3.37 32.883.778 37.7-7.97c6.874-14.578 12.721-24.668 0-43.384q-8.344-12.278-42.132-18.605l-22.285-19.222-53.21 5.96-39.636 6.973-9.146 17.71-1.417 2.744q-7.991 14.331-3.477 27.131"/><path d="m6640.326 1561.211-52.04 14.19h-47.622q-20.776-6.72-20.776-41.227c0-91.9 12.832-142.163 20.776-211.585q7.942-69.421 29.607-112.918 15.308-133.61 18.015-171.208t0-78.976l43.584-54.18h59.405l18.616 169.73-34.155 126.405-27.014 168.242v82.25z"/><path d="m6563.61 1594.598h28.913l76.133-26.272h33.206l-23.16-86.445q1.385-63.633 12.422-130.713a7984 7984 0 0 0 18.767-119.896q18.552-45.648 18.552-106.256 0-92.462 8.047-147.797l7.363-73.858q-54.54-58.014-124.802-74.943c-43.174-11.04-26.528-11.04-76.21 6.402-19.613 18.876-25.005 65.314-19.613 92.881 7.591 38.804 12.242 33.04 19.613 44.84q18.84 30.163 40.799 35.884l23.743 116.591v86.492l-28.344 114.184v156.19z"/><path d="m6591.559 845.564q94.55 12.33 112.972 34.506l26.667 28.739q9.177 21.093 19.077 20.406 15.311-1.063 31.346-23.907l-8.098-124.937-42.325-155.942q-7.058-69.63-26.667-120.207-17.851-46.04-48.256-73.027-78.597-48.927-78.598-24.463 0 24.463-57.79 97.936l-10.887 94.476q8.019 32.091 10.888 65.76-10.888 49.919 0 62.038-1.699 13.767 4.596 57.684c-4.596 41.322-6.295 78.695 3.717 84.783 34.622-19.866 38.667-27.334 63.358-23.845"/><path d="m6545.946 531.849q33.612-21.362 45.669-22.725c12.057-1.363 17.49 9.532 23.274 14.931q5.786 5.4 0 15.693l6.64 30.73q36.705-20.086 38.969-46.423c2.906-33.798-2.613-68.305-38.969-80.72-20.831-11.307-50.442 17.702-61.41 35.982q-10.967 18.28-14.173 52.532"/><path d="m6770.034 768.004-47.818-5.11-30.044-6.446q-37.872-11.093-52.374-11.093c-15.304 0-33.922 0-70.487 4.332-15.451 0-15.451 7.525-34.39 0q-5.773-2.293-15.984 6.76l-5.951-43.853 81.306 2.229 66.87 6.758 48.73 5.5 50.698 5.791z"/><path d="m6750.275 687.276-26.17 9.79-33.621 7.916q-23.792 9.84-38.293 9.841-15.305 0-31.352-9.841-32.541-1.483-51.528-7.916c-21.671-7.344-10.848-12.113-29.787-19.637q-5.772-2.295-19.636 0l-5.952-43.854 68.672 20.278 84.644 11.05 50.862-11.05 20.431-7.776z"/><path d="m6545.946 531.849q-6.422 30.516-6.422 60.674c0 21.765 11.121 28.122 17.543 38.822q6.421 10.7 30.305 22.651-4.233 13.148-11.054 20.204c-10.658 11.027-19.668 5.8-23.905 15.962q-4.75 11.396 0 34.574l23.905 12.056 38.571-8.23 30.422-28.438q5.573 8.51 15.851 8.329c10.28-.183 12.506-.183 10.28-18.29q-2.227-18.109-10.28-49.036l-29.292-25.74q-8.73-11.756-11.616-28.919-2.923-17.385 11.616-22.01 0-58.821-28.316-58.822-35.862-7.665-57.608 26.213"/><path d="m6666.933 448.438 2.773-3.29 31.104-36.91h31.834q26.94-26.725 31.62-60.694c5.913-42.92 0-75.972-10.436-93.082s-38.331-49.921-53.018-49.921h-58.423c-30.713 0-43.385 38.372-46.6 57.692-1.715 10.302-4.34 27.623 7.767 60.298 8.767 25.013 8.767 19.263 17.084 46.418q-1.899 21.54-24.852 39.29z" opacity=".98"/><path d="m6740.71 303.193q-33.007 37.96-60.258 47.258-27.252 9.3-65.563 48.126l-54.513 49.86q-13.583 17.403-20.852 14.54c-7.268-2.865-17.626-19.834-14.171-31.936 11.439-40.072 27.09-33.88 43.958-72.335q8.965-20.439 7.707-45.456 5.021-53.035 26.536-75.321c20.558-21.294 35.476-13.845 57.608-11.839 22.133 2.006 57.23 7.074 74.31 28.774q11.892 15.11 5.238 48.329"/><path d="m6569.311 276.347 76 7.643 117.133 23.616 34.163 5.644q4.344-7.611 0-13.118c-7.197-9.123 0 0-23.084-16.142q-6.912-42.364-11.08-59.722-26.673-54.268-74.395-54.268c-47.72 0-78.647 16.5-93.755 40.065q-15.107 23.565-24.98 66.282"/><path d="m6552.48 646.215-12.956-38.448-4.8-25.517q-3.933-19.062 0-41.444 3.93-22.381 11.222-49.454l23.617-31.18 20.7-19.378q12.745-4.82 18.213 0 18.94 0 41.818 34.192a392 392 0 0 1 15.523 59.106c2.334 12.927.597 14.615 0 26.87-1.134 23.265-1.85 23.701 0 46.805a154 154 0 0 0 6.41 33.29v23.846l37.664-6.672-13.45-61.364q-1.806-24.093-6.123-47.37a305 305 0 0 0 -9.866-38.848l-19.29-33.223q-7.734-24.92-21.364-41.768c-11.405-14.098-16.126-15.398-31.322-18.281q-15.225-2.89-29.518 6.735l-26.478 31.712-24.341 41.82-8.25 43.162v68.164l11.735 32.087z"/><path d="m4078.873 1568.808q23.808-8.9 37.092 0 33.76 17.176 87.58 11.016 23.64-46.707 17.443-172.087 20.908-95.735 36.479-138.15 0-65.651 24.199-135.758l17.442-83.85 12.814 74.84 26.377 104.633v270.706q4.968 40.84 23.607 47.25 52.466 18.045 103.02-.619l11.565-123.55q7.508-58.89 0-110.787 0-65.433-28.03-108.517 19.607-65.517 28.03-134.34v-94.681l-11.564-107.668-153.005 22.117q-75.893 7.545-159.08 0-34.615 24.238-30.534 138.884-4.839 61.125-6.343 114.9-1.567 56.114-6.141 103.209-15.241 41.47-19.183 66.095-7.962 49.746 0 95.285l-11.768 60.2q-11.274 68.472 0 100.87"/><path d="m4152.841 889.364q70.671 9.098 140.835 5.134c92.297-10.071 102.437-17.489 171.25-22.763q7.411-15.716 0-66.087v-200.227l82.064-37.255q-38.908-91.343-74.653-161.48c-53.049-19.42-81.967-25.601-112.854-39.65-8.108 20.229-13.815 20.52-41.397 39.65-22.793 13.056-28.134 4.868-54.334 0q-25.29-4.698-29.503-25.602l-105.123 55.444-55.89 168.893q8.498 5.885 41.616 18.104 33.12 12.218 57.212 4.675-16.707 43.488-19.223 77.076 0 36.246 8.783 121.258v5.17q-2.172 9.012-8.783 24.427-2.242 14.728 0 33.233"/><path d="m4155.679 841.779q12.542 18.32 27.731 21.526c35.803 7.558 42.837 8.166 74.253 0q24.718-6.626 52.45-32.933 37.815 32.934 109.35 41.363 16.787 0 32.752-15.055l17.57-68.82 10.46-78.32v-60.647l-15.318-43.472 4.858-203.708q-25.705-19.62-73.602-34.677-7.252-2.28-36.7 0l-24.048 124.863q-25.322 102.182-36.327 113.522c-17.775-87.849-41.445-128.59-61.277-168.632-7.369-25.488 14.176-58.855 0-58.889q-54.42 22.868-109.359 51.922l12.638 67.48 14.569 151.591z"/><path d="m4432.035 867.284q-2.286-58.514-4.268-122.265c-1.313-42.202-1.777-38.135-2.323-77.81-.616-44.691-1.339-48.458 0-90.923 1.957-62.113 5.897-58.835 6.59-118.233q-4.267-56.445-4.267-80.8l-43.74-16.964q6.179 53.498 6.179 114.17 0 59.6-6.18 119.564l-5.89 73.187q-1.695 39.507 0 67.036c4.34 70.519 3.82 108.014 12.07 129.06q29.257 8.429 41.829 3.978"/><path d="m4361.543 379.153q-21.02-18.864-23.977-46.868h-83.882q-6.453 34.75-18.953 66.226c10.859 19.526 31.35 28.857 64.377 23.378 33.028-5.479 52.344-16.867 62.435-42.736"/><path d="m4234.731 868.822q0-66.673-11.076-124.342c-1.313-42.202.546-73.437 0-113.112-2.667-19.525-7.93-44.25-6.591-86.714-4.002-45.475-4.566-31.895-3.873-91.292q0-54.54 3.873-67.845l-52.578 21.17q5.27 17.998 5.27 78.67 0 59.6 6.215 117.965l-6.215 66.194q-1.695 39.507 0 67.036c4.34 70.519 9.377 105.47 17.628 126.516q29.257 8.43 47.347 5.754"/><path d="m4238.62 325.376c16.1 32.643 27.963 48.967 55.245 48.967q28.898 0 53.895-48.967 23.868-35.68 25.116-73.193c1.026-30.828-6.4-45.91-20.57-63.487-9.353-10.417-25.08-19.038-49.24-19.038q-27.194 0-53.466 19.038-26.024 26.422-28.612 58.632c-2.902 36.13 4.307 50.997 17.631 78.048"/><path d="m4212.912 255.583c41.547-22.778 125.178-30.27 145.405-30.859 6.009-.175 11.574 2.226 17.053 7.173q7.813-9.72 8.703-15.428l-12.263-11.406q-7.33-103.584-90.437-93.265c-83.108 10.319-68.46 88.565-68.46 112.926-8.794 5.41-5.956 5.41-8.357 12.592-1.995 5.966 2.401 11.1 8.356 18.267"/><path d="m4524.073 578.246q7.83 23.373 10.8 36.31c5.426 23.644 20.088 44.738 26.307 82.22q5.81 52.57-3.824 116.924h-48.716q-14.022-45.59-22.986-95.758-5.234-29.295-5.41-63.169l-15.317-49.352z"/><path d="m4152.72 631.368q5.776 38.884 0 86.736 5.808 52.57-32.37 150.718l-41.726-10.796v-98.05q4.953-44.78 20.765-89.725l4.003-51.437z"/><path d="m4486.122 824.763 20.817-14.455q48.49-4.084 56.426 9.153 4.14 14.77 0 49.36l4.14 8.643-4.14 11.9 8.404 20.359-11.469 42.654q-13.31 12.702-35.833 18.12c-17.197 2.945-27.205-1.312-38.345-5.418q-3.83-1.412-5.878-9.071h-6.558l-3.42-36.879q5.107-14.598 12.226-26.095 5.78-9.336 13.57-15.57-7.753-5.424-9.94-13.451-1.545-5.673 2.477-13.95z"/><path d="m4068.115 840.316q32.524 21.702 60.357 21.702l27.136 18.522-27.136 46.273-3.103 89.839h-13.599l-11.13-10.104a98.7 98.7 0 0 1 -22.015 2.457c-24.535-11.735-27.65-37.53-27.65-49.902q4.056-19.295 11.706-32.29l10.556-19.826q-10.556-43.682-5.12-66.67"/></g><path d="m4482.617 955.872 12.87-9.461 10.808-19.46 12.184-16.733" fill="none" opacity=".294" stroke="#979797" stroke-linecap="round" stroke-width=".1"/><path d="m4103.29 1007.492 4.131-16.419v-12.737l2.855-14.959" fill="none" opacity=".294" stroke="#979797" stroke-linecap="round" stroke-width=".1"/><path d="m4437.448 1648.865c67.928 17.967 84.5 2.684 90.072-10.47q5.57-13.152 0-32.873l-28.627-30.06-33.966-28.673q-31.374 9.36-60.266 6.88-28.484-2.445-54.488-16.729-9.579 24.068-3.875 44.51c4.346 15.575 8.589 18.405 27.45 28.356 11.175 5.896 22.434-3.64 30.913 3.337 15.542 12.787 0 21.824 32.787 35.722" fill="#9ea0a5"/><path d="m4061.705 1676.534c25.295-.825 66.466-23.5 74.059-34.85 9.286-13.88 17.32-13.88 29.85-17.855q19.886-6.31 37.226-26.828v-25.414l-67.076-17.305q-32.641-17.342-67.94 27.168c-10.636 14.138-29.204 15.575-51.677 42.38-3.516 11.208-8.48 32.523 0 39.5 15.541 12.786 20.978 6.341 45.558 13.204" fill="#9ea0a5"/><path d="m3542.751 779.808c50.439 19.779 60.559 14.434 147.472 19.779a1420 1420 0 0 0 174.136 0q26.896-43.158 26.896-91.846c0-127.993-.832-164.714-26.896-261.515-26.065-96.801-34.787-91.132-85.175-142.462q-62.182-45.636-88.96-34.926-55.716 34.044-97.034 177.388c-44.004 152.466-44.004 163.722-50.439 333.582" fill="#9ea0a5" opacity=".661"/><path d="m3558.91 577.021c7.28-5.497 38.42-5.497 64.298 0 27.018 4.1 28.717 12.067 71.9 12.823 73.92 1.294 129.946 0 196.147-8.723v71.411q-108.125 7.818-188.931 0c-47.536-4.598-52.556-17.551-91.214-24.833q-27.26-5.135-60.048 0 4.595-36.057 7.848-50.678" fill="#9ea0a5"/><path d="m3547.131 665.482c7.281-5.497 28.315 4.261 68.284 6.08 63.252 2.426 68.507 15.538 96.511 15.538 55.698-7.636 113.128 1.087 179.329-7.636v44.137q-97.342 1.555-185.975 7.257c-34.605-5.42-61.855-8.253-100.512-15.535q-27.26-5.135-58.978-6.611 1.341-29.249 1.341-43.23" fill="#9ea0a5"/><path d="m3677.93 488.51h129.124c18.802-53.8 1.945-131.453-25.156-157.186-27.102-25.733-64.895-15.246-95.225 42.885q-30.33 58.13-8.743 114.302" fill="#9ea0a5"/><path d="m3683.921 488.51q4.228 34.5 14.716 67.528 18.288 57.588 57.55 113.705l283.82-39.375q13.01-40.096 13.01-63.475-23.634-22.101-58.01-10.855-33.65 28.484-78.469 34.234-45.97 0-101.501-11.145 5.008-64.731-7.983-90.616-13.589-8.425-123.132 0" fill="#9ea0a5"/><path d="m3599.837 1543.4q-5.355 36.812-8.062 53.993-17.79 27.885-6.835 50.4l69.238 2.943q166.86.091 168.443 0c22.733-6.128 32.176-20.25 10.824-38.152-22.476-11.327-20.278-20.923-59.996-36.073q-38.834-11.938-48.825-16.445-45.458-6.876-80.342-3.425-31.68-1.51-44.445-13.24" fill="#9ea0a5"/><path d="m3649.926 1606.206q-16.821 16.935-19.527 34.116-2.668 16.934 8.777 34.115h96.735q117.455 3.258 173.31 0c5.046-11.057 16.778-28.061-4.574-45.963-22.476-11.327-31.484 3.823-71.202-11.327q0-18.28-37.095-36.452-57.783 19.16-83.74 27.022-31.681-1.51-62.684-13.596z" fill="#9ea0a5"/><path d="m3650.853 1565.509-59.078-21.629 10.963-31.538q.035-9.78 0-11.384c-.467-21.81-4.156-38.786-10.963-64.12 16.8-122.501 7.43-146.569 28.856-250.523q9.768-26.17 30.222-49.55l-6.052-52.594q5.54-53.302 6.052-75.727c.345-15.065-7.808-28.84-6.052-41.368q6.052-17.886 21.217-31.606-37.32-15.852-45.387-34.816 9.768-25.18 9.768-58.178l69.575-28.324 133.471 11.548-26.732 389.389-50.525 190.665-6.754 174.94z" fill="#9ea0a5"/><path d="m3649.507 1594.121q45.543 18.128 69.016 12.085 23.472-6.042 77.827-25.511l-24.33-34.177 33.477-207.653 40.923-171.908 22.05-193.991v-170.707l-238.071-8.883v70.752l19.108 62.05 34.415 55.737-14.968 185.042-30.672 398.552z" fill="#9ea0a5"/><path d="m3751.761 194.715c-9.766 24.57-16.07 34.772-34.758 80.2 1.52 6.816 39.185 0 81.406 53.982 0-22.612 20.648-33.263 36.67-47.166-44.487-34.246-59.038-73.902-83.318-87.016" fill="#9ea0a5"/><path d="m3874.856 286.448c27.725-38.684 44.154-48.867 57.891-132.48-5.442-65.698-14.003-125.203-57.891-129.87-43.889-4.667-111.915 9.178-118.668 49.979-6.754 40.8-14.193 83.934-4.427 120.638s95.37 130.417 123.095 91.733" fill="#9ea0a5"/><path d="m3725.572 138.568c14.51 0 34.2 2.083 50.47 0 27.633-55.843 38.264-43.604 78.835-17.786q20.527 12.78 98.01 38.651 1.278-68.506-6.022-92.121-10.93-35.353-61.944-59.767-67.906-20.785-103.146 15.687c-35.24 36.472-44.255 69.282-56.203 115.336" fill="#9ea0a5"/><path d="m3877.258 130.09q33.904 12.582 49.195 24.779 8.935 8.424 2.623 17.003 43.445 6.92 44.61 0c4.353-17.003-8.958-28.787-31.014-35.47q-20.417-8.351-65.414-6.312" fill="#9ea0a5"/><g opacity=".839"><path d="m2242.884 1651.169 40.792 8.302 59.846-8.302 53.255-5.27q10.905-19.534 0-40.905c-3.625-7.103-12.217-13.796-29.058-16.044q-13.416-1.79-36.114-3.37l-57.158-28.507-52.904 11.724-37.532 64.971z" fill="#9ea0a5"/><path d="m2321.691 976.67v184.646l-26.673 34.426v309.728l13.337 22.829v14.092l-61.337 54.527-33.222 20.024h-32.69l-16.852-20.024-11.761-141.733v-172.319l11.761-98.583 31.36-159.451 18.182-48.162 107.895-18.975z" fill="#9ea0a5"/><path d="m2219.031 484.714c-20.312-10.798-21.566-12.929-41.72-30.802a5600 5600 0 0 0 -36.974-32.501l-20.321-10.463q-1.608 6.766-10.621 10.463t-27.152 5.028l-34.941 10.81-14.886 16.663q26-9.894 42.812 0 9.36 5.507 7.015 30.802l10.13 61.886q4.167 48.748 0 68.85c-4.405 21.241-6.817 20.737-17.145 13.838q-14.447-9.653-27.926-44.093-1.633-31.293-6.456-38.595-4.822-7.3-19.037 0l4.808 68.85q-2.874 40.32-4.808 49.116c-12.248 55.677-5.598 123.266-5.598 186.182a4129 4129 0 0 1 -6.92 117.956q-10.047 15.659-15.2 30.708c-2.446 7.14-2.478 20.613 0 27.062q5.121 13.334 0 19.894 18.15 12.99 15.2 33.656c-4.65 32.561-15.2 51.399-15.2 65.409q0 11.47 15.2 10.59a557.5 557.5 0 0 1 6.92 87.696q0 54.372-6.92 109.399v71.086l17.326 72.78-4.808 43 4.808 98.731 140.501-41.097 10.192-100.634 8.103-118.902q-8.103-102.813-8.103-140.657c0-42.755 19.582-49.446 18.414-91.992-1.599-58.204 20.61-113.535 31.626-137.473l94.341-31.29q1.971-32.638 0-93.064-1.915-58.72 0-95.42v-218.204q15.808-38.62 14.47-62.168c-1.266-22.24-7.589-21.646-19.68-29.408-25.878-16.614-22.647-14.122-52.272-24.494q-13.595-4.761-28.958-6.9v37.702q-7.56 4.603-16.22 0" fill="#9ea0a5"/><path d="m2321.691 781.964-21.7 7.1q-18.138-7.1-36.172-7.1-13.416 0-26.727 7.1l-72.838-7.1h-48.456l18.472-54.33q1.323-14.274 0-27.882c-2.319-23.86-5.143-29.304-7.282-47.056-7.454-61.87.517-48.376-5.996-102.983q-2.675-22.425-12.38-51.08-3.086-23.707-11.178-42.633-7.364-17.22-19.734-29.658l25.58-5.185q19.03 12.723 30.99 34.843c18.527 34.269 20.986 36.376 29.984 77.937 13.405 61.913 9.167 59.556 13.192 118.759q2.799 41.167 0 81.981h33.413q37.299-3.757 52.96-3.757 27.654 8.801 57.872 3.757z" fill="#b4b0bd"/><path d="m2187.396 1185.803-28.022 9.605-81.674-9.605-21.66-5.675h-15.252l-8.613-7.464h-18.685v53.639h27.298l20.418 11.122 91.287 5.309 24.817-5.31z" fill="#b4b0bd"/><path d="m2177.601 1488.542h-20.36q-25.118.746-47.44 4.221c-23.969 4.221-38.926.229-43.982 4.221s-10.581 6.074-20.723 6.074q-9.46 0-18.479-6.074l-8.71-42.31h42.04c26.247-4.418 27.715-8.733 45.584-8.733h75.47z" fill="#b4b0bd"/><path d="m2169.111 1566.207-32.392 3.115h-49.952c-12.487 0-26.753 2.354-36.894 2.354q-9.46 0-27.976-2.354v-41.946h69.211c9.083 0 24.174 2.625 45.611 2.625q16.298 0 40.883-15.43z" fill="#b4b0bd"/><path d="m2321.691 564.844-5.194-12.198-8.24-5.947-15.335-55.25-29.93-45.17q17.967 12.595 32.616 12.595 10.347 8.858 20.89 32.574l5.193 36.399 8.975 24.8z" fill="#b4b0bd"/><path d="m2181.001 1218.005 26.563 7.132h43.624l29.13-3.566 16.511 15.445v-52.626l-26.036-5.916h-63.23l-20.167 5.916z" fill="#a8a4b1"/><path d="m2177.601 1488.542q12.714 3.349 26.143 4.064c24.728 1.317 25.409-1.275 50.174 0q14.386.741 28.128 4.031l14.783 9.35v-50.274q-12.038.69-24.794 0c-33.787-1.825-35.208-8.79-68.29-8.79q-11.986 0-22.744 4.453z" fill="#a6a2b0"/><path d="m2169.111 1566.207q10.941 1.38 24.372 2.095c29.511-7.664 39.337-10.052 49.685-14.008q14.386.74 30.747-7.315l26.77-19.96-3.856-9.492q-27.97 13.457-40.725 12.768c-33.163-1.792-40.818-3.832-53.216-8.438h-27.148z" fill="#a6a2b0"/><path d="m2332.966 547.842-11.275 17.002v55.485l22.55-15.219v-44.912z" fill="#d3dae0"/><g fill="#9ea0a5"><path d="m2028.619 547.924c-18.562 18.465-41.472 38.916-46.234 38.916s4.668 31.505 24.137 63.234c18.399 30.33 20.553 25.112 45.216 51.097q3.091 4.92-11.762 19.434-11.782 5.569-23.295 9.647-26.979-17.313-63.705-61.45l-68.764-81.962q-.31-15.576 6.586-21.996 45.754-45.173 91.587-72.677 34.296 29.71 46.234 55.757"/><path d="m2038.075 452.172q-45.83 16.563-77.32 53.39c15.208 7.973 40.212 8.099 44.399 65.376q12.929 0 17.468-6.094-3.4 2.394-9.345 6.094 8.387 7.813 30.463 16.738 19.747 31.837 33.96 44.777c4.24 2.463 11.503 4.047 13.054-3.967q6.345-44.99 6.344-96.304 1.77-39.262-9.613-63.447c-8.833-18.767-17.912-20.995-30.818-22.456q-9.202-1.042-18.592 5.894"/><path d="m2226.589 435.606v22.383l-8.36 20.086-69.3-53.596-4.623-40.374z"/><path d="m2222.793 179.343c-34.42-11.552-63.585-.622-91.276 4.489-18.304 3.378-34.18 31.923-57.324 90.914q-.273.695 0 37.08 3.507 12.44 8.331 12.44c2.336 0 12.88-8.677 25.528-18.068q-.374 3.514-.643 7.285-2.49 34.72 34.614 70.535 28.272 23.497 53.821 41.161c25.55 17.665 39.485 20.965 53.787 20.965 11.678 0 20.292 5.5 23.226-7.322 14.106-61.65 21.858-78.043 10.855-141.624a110 110 0 0 0 -2.22-10.07q19.436 2.685 40.2 6.487v-14.405l-32.769-8.273q-14.253-33.574-14.253-39.058c0-5.483-14.721-40.065-51.877-52.536"/><path d="m2262.992 275.745a266.4 266.4 0 0 0 -38.036 16.487c-21.508 11.379-23.758 9.929-41.826 25.763q-17.11 14.994-27.062 40.595a263 263 0 0 0 -9.523 31.447q-2.397 10.173-2.82 20.91l-29.331 10.21a8984 8984 0 0 0 -7.142-72.707c-1.845-18.027-3.909-23.074 0-43.776 2.956-15.651 9.5-22.143 23.618-39.038 14.118-16.896 25.372-20.4 53.14-27.883 23.965-6.458 26.355 5.574 50.417 17.148q15.43 7.421 28.565 20.843"/><path d="m2221.145 468.413c-35.45-31.709-33.494-39.293-71.497-73.077-5.313-4.723-10.398-6.92-15.137-3.938-8.325 5.241-17.652 12.554-11.586 19.55q38.727 32.848 88.482 71.734 14.527 6.7 20.854 4.282 6.576-2.513 4.952-15.38 1.914-15.724-2.637-25.44-1.374-2.935-9.21.135v14.582q-1.814 9.706-4.22 7.552"/><path d="m2343.241 564.844q14.603 14.063 21.551 35.503c3.827 11.806 4.03 19.067 0 30.99q-10.234 30.28-28.528 53.418l-14.573 16.439v-110.5z"/><path d="m2268.384 352.559c-20 22.176-32.14 21.154-55.144-4.768q-18.683-5.319-33.86-5.319h-15.126l3.75-10.576h31.692l18.21-3.345q37.946-15.464 48.303 9.334 6.978 2.478 10.593 2.479h6.856q3.796-6.333 5.265-4.806v19.606c-8.014 1.468-8.014-5.007-12.121-5.528s-4.108-2.366-8.418 2.923"/><path d="m2116.728 779.965c-17.938 1.961-30.528-16.655-51.112-22.948q-11.626-3.561-25.737 0-8.862.22-16.562-3.457c-7.699-3.678-11.67-20.092-13.624-23.308q16.278 0 30.186-9.647 8.667-7.158 9.517-14.573c.689-6.011-8.286-7.405-6.44-12.28 1.771-4.676 6.44-6.822 13.674-6.822 2.686 11.148 6.01 19.102 21.07 26.63 11.242 9.399 13.644.808 27.101 10.48q15.18 10.91 15.354 29.52 3.411 13.36-3.427 26.405"/><path d="m2209.593 1670.618q28.726-4.553 32.37-12.283c9.009-19.108 7.43-18.496-7.064-32.691q-6.639-6.502-35.203-8.702h-18.695l-16.747-20.024h-54.027l-77.042 20.024v35.088l32.307 18.588q10.93-6.863 22.01-6.863 11.288 0 22.725 6.863z"/></g><path d="m2214.942 564.844h-33.941l6.395 46.366h33.18z" fill="#b1b1b1"/></g><path d="m5218.728 1595.566q7.586-25.22 25.988-32.28c15.11-5.797 33.769-.5 51.62-6 15.314-9.3 2.484-12.61 26.347-18.024 34.324-7.788 45.891-4.613 89.17-3.424q33.69.925 57.918 3.424 9.966 24.034 6.852 43.74-2.011 12.73-10.25 25.36h-247.645z" fill="#706f6f"/><path d="m5472.024 229.642q.585 19.152 0 49.005c-.479 24.436 7.263 45.399 7.263 65.403 4.08 7.121 9.283 5.152 35.649 12.799 19.677-6.834 22.217 5.758 48.381-12.799q0-59.452-37.953-167.62-9.048-20.226-30.252-6.892-17.723 11.145-23.088 60.104" fill="#9ea0a5"/><path d="m5592.634 1534.182 5.109 37.09v37.09q29.678 8.082 60.88 8.082 23.469 0 39.382-8.083 17.35-10.395 17.35-17.884 0-29.6-17.35-56.294-9.672-9.74-22.413-12.926c-34.899-8.724-37.32-16.899-67.014-8.352q-11.682 3.363-15.944 21.278" fill="#706f6f"/><path d="m5311.65 1543.489h167.112l-5.29-43.247 18.555-68.242a5525 5525 0 0 1 21.13-141.953 3229 3229 0 0 1 19.477-108.405c15.953-77.408 16.888-129.958 34.481-153.427q0 42.362 21.4 94.238v98.544l13.506 94.944-13.506 103.724-6.95 41.06 6.95 63.44 41.752 13.955h62.23l29.449-77.396v-390.147l-12.157-182.306-107.768-15.406h-188.701l-29.19 155.35v153.427l-18.826 119.298v89.713q-13.449 43.749-19.664 70.071-6.216 26.323 0 13.208l-16.913 26.31z" fill="#9ea0a5"/><path d="m5592.634 1522.062q-1.092 11.537-3.43 29.765v56.534c29.199 6.973 25.506 8.131 64.79 8.131s51.238-1.215 61.36-13.646c10.124-12.431 3.698-26.272-5.047-46.499-6.998-16.185.939-7.687-12.302-22.164q-5.265-5.757-44.01-12.12-25.48-5.643-61.361 0" fill="#9ea0a5"/><path d="m5477.364 1586.548q-14.083 28.808-4.641 23.271h-151.248c-30.234 0-42.421 5.575-74.908 6.625q-29.116.942-37.74-16.636-6.922-13.305 6.656-24.47 13.579-11.166 65.652-22.327l34.998-18.828h161.231q11.603 14.551 0 52.365" fill="#9ea0a5"/><path d="m5806.538 762.946q-3.039 16.065 0 31.4 2.31 11.655 10.7 22.582 15.55-8.682 28.948-6.286 16.335 2.92 30.515 16.916 32.912 1.713 32.912 0c0-25.497-.338-27.676-17.493-53.579-11.75-17.74-17.456-19.921-40.088-19.921q-22.632 0-45.494 8.888" fill="#9ea0a5"/><path d="m5514.936 294.256q7.521 25.326 15.635 47.11 16.198 8.458 97.288-9.735 22.376-47.47 29.173-93.971 3.208-21.949-24.486-50.451l-83.318-4.777-49.798 9.084v38.544q6.212 20.407 6.212 28.973t9.294 35.222" fill="#9ea0a5"/><path d="m5436.613 245.107 60.604-7.646q42.432-3.405 82.66 0 29.897 2.532 47.847 7.646 28.57 9.673 42.422 13.927c7.02-9.697 12.26-11.5 9.469-21.573-2.644-9.545-11.858-8.31-20.337-17.663 0-28.866-11.041-99.99-79.4-95.604-68.36 4.384-54.275-2.026-70.29 10.266q-47.505 34.815-42.157 79.283-20.427 1.152-25.244 6.055-10.593 10.78-5.574 25.31" fill="#9ea0a5"/><path d="m5113.342 470.297c29.485 0 38.033-3.4 53.579 12.136q14.106 14.1 22.02 32.616l-22.02 63.053-24.094-15.945h-21.823q-20.553-12.92-35.25-20.947c-15.085-8.241 6.123-63.367 27.588-70.913" fill="#9ea0a5"/><path d="m5183.544 495.802 74.263 33.827h88.812l42.253-64.982q11.589-30.2 23.161-49.453 31.46-23.236 87.144-32.022l25.366-36.392 106.242-16.533 42.898 24.025 105.358 51.277 33.478 145.224 18.286 57.082 45.896 63.319v91.185h-79.983l-26.08-43.397-40.647-59.8-15.114 59.8v168.453l-125.672 34.315h-200.333l7.987-63.193v-106.729l10.207-80.634-10.207-63.319-50.24 51.306-77.154-3.992-119.853-64.467z" fill="#9ea0a5"/><path d="m5411.778 408.402c22.276-29.193 58.983-35.671 101.378-41 31.708 6.267 6.45 6.267 73.835 6.267 21.822 0 48.88-8.022 68.594-26.889 46.266-5.15 64.302 18.867 98 36.392q0 112.376-13.648 271.997-10.156 134.816-17.577 266.561c-52.016 18.767-89.018 15.048-166.45 18.767-90.462 4.345-90.462 2.437-171.571-18.767q5.55-145.212 17.11-303.676 10.33-145.31 10.33-209.652" fill="#adadad"/><path d="m5701.713 928.416q4.176-100.001 10.646-163.284c0-40.315 7.137-66.553 6.591-106.228-.615-44.692 1.658-50.796 2.996-93.26 1.957-62.114-3.69-75.398-2.996-134.796-4.268-56.444.376-60.242-6.591-74.95q-20.79-9.827-41.417-9.827 6.18 42.88 6.179 102.481v117.091q-1.358 41.169-6.18 103.307c-4.82 62.139-7.625 71.52-15.356 112.367s-18.82 88.16-38.658 156.193q38.658 4.78 84.786-9.094" fill="#9ea0a5"/><path d="m5534.304 942.392q-26.902-85.513-17.506-152.455c6.329-49.334 6.885-95.96 6.885-134.768 3.641-21.23-1.338-67.103 0-109.567 0-42.62-11.22-45.645-10.527-105.043q0-54.54-11.708-73.157-26.496 0-53.461 7.472c-6.397 17.152 8.684 39.168 8.684 99.84 0 59.6 2.095 40.147 6.216 95.575q2.655 35.718 7.336 86.715 5.275 106.563 0 137.955c-.399 2.375-15.587 126.387-7.336 147.433q29.256 8.43 71.417 0" fill="#9ea0a5"/><path d="m6205.564 293.646q13.752-10.75 21.763-23.402c0-5.503 0-9.585-10.674-9.585q-11.655 9.549-25.925 23.305l-16.387 24.121q-37.826 25.082-40.818 37.047c-.151.604 4.373-4.819 28.48 15.216 22.188 3.84 47.09 3.84 60.381-10.588-5.371-16.58-8.074-26.438-8.074-41.675q-6.996-8.043-11.291-5.663z" fill="#9ea0a5"/><path d="m6050.64 308.085-14.235-38.063-13.252-47.23q-5.683-47.91 22.766-82.836c55.108-56.737 98.149-33.259 128.422 8.501 16.381 88.284 9.433 172.201 0 172.201q-21.783 31.483-44.599 24.973-7.608 14.151-17.01 14.717-52.536 6.56-58.247-10.183z" fill="#9ea0a5"/><path d="m5990.271 772.141q41.458 31.583 86.1 43.358 93.568 24.4 184.663 9.302h45.43s-2.079-53.953-9.5-90.589c-5.587-27.577-11.736-27.577-16.518-50.31q-4.248-27.927 0-62.997v-23.557l-15.508-53.532-10.51-16.343q-14.885 16.343-34.4 16.343c-14.76-8.277-30.108-8.277-37.493-82.313 0-49.492-.895-96.648 44.792-101.155-36.873-23.246-44.792-10.183-100.012-23.246-15.378-4.957-11.94-4.957-29.364-16.106q-33.463-19.16-64.74-9.887-32.13 21.58-58.321 49.24c-8.463 8.443-26.008 17.018-39.577 39.647q-14.376 23.979-16.313 61.507l29.872 49.933q-1.585 26.286 1.43 51.676c0 46.449 12.129 53.222 12.129 62.513a624 624 0 0 1 5.702 62.556q-5.702 51.585 22.138 68.286 2.77 10.507 0 15.674" fill="#9ea0a5"/><path d="m6247.61 542.568q19.591-7.501 32.836-41.728l33.483-43.679-44.342-57.165q-24.039-39.648-49.559-39.648t-38.74 54.583v55.56l14.373 62.813q26.428 28.493 51.948 9.264" fill="#9ea0a5"/><path d="m6272.248 1613.536c26.705 0 38.63 8.57 82.15 2.643 15.11-12.91 23.865 3.748 41.597 0 107.555 7.166 107.555-31.53 107.555-31.53s-6.903-27.801-21.26-38.813q-7.583-5.151-37.844 0l-28.04-5.485-20.41-15.351q-86.052 11.457-123.747 20.836c2.495 17.487 2.495 17.487 2.495 34.974-2.495 3.84-11.451 10.702-2.495 32.726" fill="#9ea0a5"/><path d="m6045.673 1544.797 6.173 30.524-12.346 7.006q-6.135 15.936 6.173 30.846c18.217 3.697 43.763 4.306 71.202 0 11.403-10.868 10.488-8.998 25.568-13.006q26.698 2.138 46.193-6.065l5.895-22.865q-5.895-32.86-29.84-36.773l-42.838 20.474z" fill="#9ea0a5"/><path d="m6162.77 1545.48c7.86-6.272 0-49.47 0-95.138 0-55.393-11.703-56.704-16.594-105.163q-3.405-33.75 0-59.255 16.595-74.721 16.595-94.478 0-19.755 11.57-79.778l-28.165-153.12-137.466-101.951-46.278 23.914-12.128 63.945q-11.574 66.018 12.126 122.098c5.353 47.308.616 55.94 9.516 95.93q14.24 63.985 36.762 136.637v74.201l12.877 111.771 28.901 71.638q75.262 18.295 112.284-11.25" fill="#9ea0a5"/><path d="m6280.446 1567.499h49.186l60.912-10.768 17.695-30.435-17.695-41.203 17.695-48.051-32.406-90.981-18.227-48.962 18.227-76.852s-4.963-100.137-18.227-100.137 0-94.943 0-120.654q0-25.71-13.263-62.724l-30.414-80.135q-6.714-32.69-20.825-38.02-97.71-36.899-202.816-46.436l-111.014-31.81c-18.308 17.33 0 47.215 0 55.375 0 12.24-16.843 13.081-16.843 75.871 0 0 27.84 92.35 83.085 97.7 40.428 20.12 44.772 54.996 44.772 54.996s20.964-3.925 31.15 37.86c57.194 116.508 63.897 114.821 63.897 191.884 0 77.064 53.277 92.044 53.277 92.044s-10.544 42.45 0 90.98c0 44.158 8.997 33.603 15.817 48.052 0 0-.387 82.406 12.815 82.406z" fill="#9ea0a5"/><path d="m5968.133 688.18 55.425-5.916h62.67l64.516-6.175 50.768-9.864 43.163 9.864h35.771v-44.527c-4.612-3.836-23.44 1.386-41.867 0q-21.04-1.582-37.067-5.937h-31.947q-27.292 6.767-61.217 9.891c-19.778 1.822-29.616-.584-52.383 0-48.434 7.77-18.397 0-59.445 2.871a602 602 0 0 1 -34.09 0z" fill="#9ea0a5"/><path d="m6313.93 462.043q40.19 36.091 47.713 47.756 7.522 11.665 20.094 71.248l-8.62 12.813q-36.498 6.915-46.345 6.915c-9.847 0-17.363-2.792-41.642-6.915q-16.303-9.006-22.751-28.655l-4.291-44.012 22.358-44.633z" fill="#9ea0a5"/><path d="m5954.199 608.164h53.573c39.328 0 43.948 3.143 78.655 0s27.125-9.368 57.389-10.816c30.263-1.448 52.757 4.657 71.294 4.657 19.421 0 22.591 1.193 39.319 0q16.727-1.192 26.017-4.657l-8.342-34.236-17.675-5.844q8.004 1.522-39.319 0c-47.322-1.521-59.898-6.207-93.671-4.275s-46.276 8.317-66.52 10.12q-20.245 1.802-47.147 0h-57.47z" fill="#9ea0a5"/><path d="m6155.903 552.533q-2.203 3.134-6.513-36.442c-4.31-39.574-6.359-59.586-6.344-81.619s-4.796-11.683 6.429-42.115q11.224-30.433 26.997-48.511l-38.576-3.533q-16.255 23.217-22.521 39.532c-6.266 16.316-6.846 18.12-9.217 43.112-2.37 24.992-2.757 15.292 0 54.051q2.757 38.76 9.217 75.525z" fill="#9ea0a5"/><path d="m5950.303 511.436-4.044-40.124v-36.607l16.172-56.362-12.128 5.285q-14.99 28.346-14.99 61.19t14.99 66.618" fill="#9ea0a5"/><path d="m6068.243 264.889c32.533 0 17.845-4.23 35.99-4.23q17.594 0 40.36-13.003 18.677-28.833 0-35.187c-1.09-.37-3.03 4.184-4.24 3.854q-12.623-3.441-56.79-8.604-46.925 22.781-51.601 13.55-4.677-9.232-6.689 20.727-1.345 11.878 6.689 18.663c4.605 17.46 4.803 8.252 36.281 4.23" fill="#9ea0a5"/><path d="m6127.503 204.415c-5.752 10.402-12.971 18.633-23.593 25.119-26.595 14.307-49.57 15.991-71.948 26.278q-4.19-16.017-6.689-26.278 32.796-13.92 69.003-25.12 3.692-2.453 8.367-11.108 19 8.793 24.86 11.109" fill="#9ea0a5"/><path d="m6004.992 188.417c9.005-10.742 7.46-6.743 17.215-32.174s9.755-18.41 20.749-34.52c47.293-52.593 94.513-25.224 117.431-15.395 22.919 9.828 33.044 41.433 33.044 49.915 0 8.483 8.484 61.23 8.484 66.548 0 2.786 7.102 5.635 23.407 18.121q6.06 4.64-6.197 14.9l-44.784-27.386q-85.721-40.01-111.761-35.12t-39.427 29.485q-.946 10.547-27.167 5.635s-33.555-12.757 9.006-40.01" fill="#9ea0a5"/><path d="m6043.285 255.812c19.834-8.681 36.912-2.401 49.864-17.265 2.793-13.17 0-23.434-4.067-35.292-21.852 0-27.414 5.671-57.12 18.013 2.59 12.07 2.59 17.279 11.323 34.544" fill="#9ea0a5"/><path d="m3388.526 814.573c11.725 3.907 12.372 10.46 16.908 14.407 10.84 9.43 15.908 13.54 16.938 21.963 1.595 13.045.076 45.348-16.938 51.019-25.06-5.347-36.023-8.757-66.33-21.328-13.437-6.933-13.437-2.665-19.286-22.847q-5.517-16.39 0-38.108 11.487-8.698 24.593-9.672c21.249-1.579 20.578-3.277 44.115 4.566" fill="#9ea0a5"/><path d="m3487.266 905.957c-89.94 205.436-391.167 404.89-514.397 487.758-171.615-103.631-195.162-183.663-230.87-247.271 217.15-153.507 433.064-254.187 472.728-344.444 68.358 50.69 153.121 115.53 272.539 103.957" fill="#f6fffe" opacity=".374"/><path d="m3123.573 1585.352a124 124 0 0 0 0 23.252v57.464c29.207 6.967 29.207 6.967 68.503 6.967s55.15-12.668 65.276-25.088-2.92-19.134-11.668-39.343c-7-16.172-6.582-18.954-19.827-33.419q-5.266-5.752-18.19-15.671l-80.928 15.671q-2.675 4.985-3.166 10.167" fill="#9ea0a5"/><path d="m3230.59 1585.352 14.046-81.322v-299.518l-7.023-179.294q19.109-153.299-7.022-200.443-21.945-39.593-89.13 26.968l-100.964 5.018-113.262-31.986q-16.727 72.546-23.325 147.828-5.064 57.794 0 118.322-11.734 109.74-15.286 176.204-3.552 66.462 0 134.205-1.401 56.47-14.013 102.696c-42.537 45.526-60.597 88.975-42.537 104.574h163.61q-2.014-20.186 0-39.444c21.672-83.957 21.672-123.433 21.672-167.826q10.903-61.593 23.14-154.132l34.315-133.417 21.2-44.715v213.37l19.623 118.894q-19.623 65.995-19.623 102.696 0 40.245 19.623 81.322z" fill="#9ea0a5"/><path d="m2380.331 824.775 172.806 26.722 139.057-13.361-78.05-457.576-304.134-92.938z" fill="#fbffff" opacity=".467"/><path d="m3038.26 399.048v32.445l119.845-8.533-12.885-41.26z" fill="#80573f"/><path d="m2570.43 588.657c6.822 20.825 7.935 28.872 29.867 37.79q32.21 6.317 63.076 0l33.277 11.702 24.653-69.483q-15.698-2.919-24.653-10.286c-23.176-19.068-16.026-28.027-41.395-38.434q-23.387 0-49.04 4.46l-35.786 10.869q-8.11 28.62 0 53.382" fill="#9ea0a5"/><path d="m2675.553 665.116 163.728 60.321s17.837 13.238 49.258-8.348q31.421-21.585 36.786-51.973l-18.598 105.037v164.449q20.053 40.197 105.158 40.198c85.106 0 233.8-38.68 233.8-66.235v-183.128l48.435 44.716 18.523 54.036q78.978 14.181 78.978 0c0-14.182 21.026-69.691 0-98.752-21.025-29.06-78.978-257.758-97.5-257.758q-59.382-35.046-103.305-49.958l-43.713-8.76-108.843 8.76q-57.442 19.63-91.769 49.958-30.008 26.514-39.764 63.729l-67.446 85.875q-98.828-51.995-122.81-51.995-23.98 0-40.918 99.828" fill="#aeafb0"/><path d="m2995.684 1644.138q-14.087 28.783-72.234 14.297-24.462-3.981-51.01-3.981c-30.243 0-38.926 10.47-71.422 11.52q-29.125.94-51.821-7.54-13.583-13.759 0-24.915 16.753-13.76 60.67-24.915l62.573-23.252h123.244q7.53 23.252 0 58.786" fill="#9ea0a5"/><path d="m2993.894 281.334q6.665 20.284 6.08 50.062c-.478 24.375 6.33 37.034 6.33 56.988 4.083 7.103 5.581 10.585 31.956 18.213 17.51-12.387 60.835 15.17 65.613-14.731q0-59.302-37.773-157.736-27.65-24.007-48.862-10.705-17.728 11.116-23.344 57.909" fill="#9ea0a5"/><path d="m3038.26 352.102q23.118 203.535 49.434 199.123 16.204 8.45 93.691-9.497-6.798-206.293 0-252.753 3.21-21.93-8.07-44.055h-107.695l-53.736 8.993 10.059 35.062q16.316 24.45 16.316 33.009z" fill="#9ea0a5"/><path d="m2953.485 284.231q-6.63-11.571 0-19.551 7.717-9.29 28.692-14.986 16.628-70.915 65.852-85.12c49.225-14.202 76.262-15.632 118.744 29.204 19.902 49.96 14.171 35.296 23.371 70.902q2.486 9.621 10.208 19.551v10.889q-46.07 11.761-118.216 7.646-72.145-4.116-128.65-18.535" fill="#9ea0a5"/><path d="m251.961 1533.28-8.116 38.732q8.116 19.927 8.116 30.362c0 10.664-8.116 15.613-11.492 21.396-51.927 31.02-105.505 19.51-115.424 0-6.098-9.597-1.598-18.1 5.902-34.214q7.5-16.113 15.76-27.228l8.333-29.048z" fill="#9ea0a5"/><path d="m72.63 919.81q-8.331 23.655-5.883 33.404c7.365 29.325 6.13 24.429 25.51 44.428q9.956 10.275 28.796 3.925l5.57 15.43 19.589-8.44v-10.915l14.397-6.121 4.7-50.545-98.562-43.91z" fill="#9ea0a5"/><path d="m391.624 1562.13v48.8q2.203 18.489 23.676 28.405 21.755 10.045 62.781 11.517 25.677-7.893 51.837-7.893c31.418 0 36.336 7.893 63.319 7.893 26.982 0 34.116-2.017 43.815-11.517q17.411-17.055-16.694-47.269l-77.313-29.936-34.205-28.85h-93.54z" fill="#9ea0a5"/><path d="m145.03 1558.622c69.929 7.23 64.974 2.998 115.992 0 9.693-15.877 9.693-31.7 12.318-65.253 7.414-94.786 0-98.143 0-196.286 0-26.052-5.865-28.565 0-52.103q26.285-105.5 64.3-184.079 23.384 28.551 29.551 66.974 8.607 53.616 0 117.105 6.6 42.487 8.888 68.844 5.804 66.89 7.295 117.648v122.291l107.98 18.249q51.3-6.915 34.358-29.267c-1.398-1.845-16.217-70.132-25.346-111.273-16.546-74.569-12.09-37.118-9.012-105.737 1.486-33.106 18.14-40.478 18.14-61.498q0-22.53-9.128-84.255a1685 1685 0 0 0 9.129-119.08 1256 1256 0 0 0 0-102.813l-171.855-69.366-127.637 18.645-49.395 40.942q3.936 45.48 0 90.695-5.224 60.018 0 123.15v82.825q-9.462 29.29-12.054 60.528-3.435 41.405 0 84.758-20.34 54.555-17.608 91.625c3.295 44.68-.273 51.39 14.083 76.73" fill="#9ea0a5"/><path d="m549.964 915.604q2.75 6.106 0 18.82-4.048 15.262-9.816 26.163v43.974c33.673-5.087 57.693-10.74 72.384-23.192q9.339-7.914 12.177-36.598l-12.177-49.123z" fill="#9ea0a5"/><path d="m617.447 906.437a3568 3568 0 0 0 -37.513-225.429c-21.125-141.425-44.545-210.798-54.222-234.179q-46.46-46.365-127.492-63.077-.558-18.103-7.43-26.864c-8.168 14.636-16.023 23.466-20.049 32.542-22.111 4.98-36.3 4.98-61.12 0-24.82-4.982-21.412-5.678-25.836-25.056q-14.31 3.555-25.363 0-67.226 19.378-127.475 36.09c-34.782 46.365-47.018 71.85-66.394 246.059-13.226 97.274-13.405 174.64-8.895 234.572q.976 12.98 0 37.552l102.43 33.044q-9.426-89.704 0-190.755 20.842-87.57 20.842-179.21v369.965l156.12 21.455h122.658l55.663-21.455-34.12-297.299 17.641 106.544q22.568 128.93 50.593 161.888 17.842 20.985 69.962-16.387" fill="#9ea0a5"/><path d="m401.16 364.374q-46.583 140.936-58.308 228.83c-11.725 87.894 0 154.218 0 208.282v108.126q71.2 88.03 177.029 88.03v-222.085q-15.981-99.048-15.981-195.777c15.98-87.375 30.166-121.91 15.98-145.91q-54.514-51.722-118.72-69.496" fill="#9ea0a5"/><path d="m281.097 315.69-9.878 48.684 47.979 51.233 35.552-11.202 35.91-33.178 7.002-47.429z" fill="#9ea0a5"/><path d="m144.035 972.832q11.356 24.81 61.317 24.81 29.157 0 132.289-45.077v-369.795q-13.845-51.962-18.573-68.028-28.597-97.174-48.075-165.654l-36.485 15.287-90.473 21.962q-15.454 20.25-12.66 45.243c0 28.227 27.197 96.79 40.74 205.846v122.206q-16.723 50.24-16.723 108.583-6.713 50.972-11.357 104.618" fill="#9ea0a5"/><path d="m337.64 364.374c26.468 0 56.651-15.287 77.475-83.928 3.406-7.226 7.128-19.3 3.406-29.792 7.745-81.249-26.991-92.735-85.53-92.735-49.848.001-69.991 40.171-69.991 97.689 7.994 93.48 39.496 108.766 74.642 108.766" fill="#9ea0a5"/><path d="m244.103 228.458q0 8.014 13.301 6.973h174.272l11.302-22.81-11.302-13.596h-12.115q1.575-96.59-86.571-93.955c-39.966 15.918-80.642 29.485-78.03 100.981-11.284-2.568-10.858 8.732-10.858 22.407" fill="#9ea0a5"/><path d="m158.491 818.94q38.032 7.7 75.803 7.7c34.77 0 52.952-4.952 69.28-4.952q16.327 0 34.067 4.952v-53.938q-46.996 11.645-93.13 11.645c-40.033 0-46.778-9.697-76.635-11.645q-4.488 11.645-9.385 46.239" fill="#9ea0a5"/><path d="m154.078 877.387c14.699 8.167 42.76 4.952 80.532 4.952h58.356q5.14 3.96 44.99 10.621l-.315-43.638a1462 1462 0 0 0 -91.624-2.857c-40.033 0-59.376-4.471-89.233-6.419-2.706 11.985 0 24.599-2.706 37.341" fill="#9ea0a5"/><path d="m343.596 772.702v52.513q23.718-13.866 51.794-14.987c29.841-1.192 47.753 8.877 69.777 12.204q33.157 5.01 54.595 14.829v-41.901q-23.622-2.483-49.7-7.837c-29.103-5.975-27.574-10.649-60.663-14.82a924 924 0 0 0 -65.803 0" fill="#9ea0a5"/><path d="m343.596 837.26v40.027q30.67-10.086 58.746-11.208c29.841-1.192 31.724-1.522 65.105 5.326q33.38 6.848 52.315 9.21v-28.317q-19.417-9.684-45.496-15.037c-29.104-5.975-33.556-.523-66.644-4.695q-32.542-1.172-64.026 4.695" fill="#9ea0a5"/><path d="m1072.174 1604.621q7.588-25.2 25.996-32.253c15.115-5.792 33.78-.5 51.636-5.995 15.32-9.292 2.485-12.6 26.356-18.009 34.334-7.781 45.905-4.609 89.198-3.421q33.7.924 57.935 3.421 9.969 24.015 6.855 43.703-2.013 12.72-10.253 25.338h-247.723z" fill="#706f6f"/><path d="m1323.769 220.099q.585 19.134 0 48.963c-.479 24.416 7.265 45.36 7.265 65.348 4.082 7.115 9.286 5.147 35.66 12.787 18.537 3.512 22.224 5.754 48.396-12.787q0-59.403-37.964-167.478-9.052-20.211-30.262-6.887-17.729 11.136-23.095 60.054" fill="#9ea0a5"/><path d="m1446.196 1543.289 5.11 37.058v37.058q29.688 8.076 60.9 8.076 23.475 0 39.395-8.076 17.355-10.386 17.355-17.869 0-29.575-17.355-56.247-9.676-9.732-22.42-12.914c-34.91-8.718-37.331-16.885-67.035-8.345q-11.685 3.36-15.95 21.26" fill="#706f6f"/><path d="m1165.125 1552.588h167.164l-5.291-43.21 18.56-68.186a5514 5514 0 0 1 21.136-141.833 3223 3223 0 0 1 19.484-108.313c15.958-77.343 16.894-129.848 34.492-153.298q0 42.327 21.406 94.159v98.46l13.51 94.864-13.51 103.637-6.951 41.025 6.951 63.387 41.765 13.944h62.25l29.458-77.331v-389.819l-12.16-182.151-107.802-15.393h-188.76l-29.2 155.218v153.298l-18.83 119.197v89.637q-13.454 43.713-19.671 70.013t0 13.196l-16.918 26.288z" fill="#9ea0a5"/><path d="m1446.196 1531.179q-1.092 11.527-3.43 29.74v56.486c29.207 6.967 25.514 8.124 64.81 8.124s51.254-1.214 61.38-13.634 3.698-26.25-5.05-46.46c-7-16.171.94-7.68-12.305-22.146q-5.268-5.752-44.025-12.11-25.486-5.637-61.38 0" fill="#9ea0a5"/><path d="m1330.892 1595.611q-14.088 28.782-4.644 23.251h-151.294c-30.244 0-42.435 5.57-74.932 6.62q-29.125.94-37.752-16.623-6.924-13.293 6.659-24.45t65.672-22.307l35.008-18.813h161.283q11.606 14.54 0 52.322" fill="#9ea0a5"/><path d="m1660.167 772.703q-3.04 16.05 0 31.375 2.312 11.645 10.704 22.562 15.555-8.674 28.956-6.282 16.34 2.919 30.525 16.903 32.922 1.71 32.922 0c0-25.476-.338-27.653-17.498-53.534-11.754-17.725-17.462-19.905-40.101-19.905q-22.64 0-45.508 8.88" fill="#9ea0a5"/><path d="m1366.694 284.658q13.039 49.755 21.155 71.522 19.223-3.523 91.164-14.605 23.022-67.005 29.821-113.466 3.21-21.93-24.493-50.408l-83.344-4.772-49.814 9.076v38.512q6.215 20.39 6.215 28.948t9.296 35.193" fill="#9ea0a5"/><path d="m1288.347 235.551 60.623-7.64q42.444-3.405 82.686 0 29.906 2.53 47.861 7.64 28.58 9.664 42.436 13.914c7.022-9.688 12.262-11.49 9.471-21.554-2.644-9.538-11.861-8.303-20.343-17.649 0-28.841-11.044-99.904-79.425-95.523-68.381 4.38-54.291-2.024-70.312 10.258q-47.52 34.785-42.17 79.216-20.433 1.15-25.252 6.05-10.595 10.77-5.575 25.288" fill="#9ea0a5"/><path d="m925.544 465.795q23.052-10.776 41.938-5.47c28.517 8.01 37.319 16.579 52.869 32.102q14.111 14.088 22.026 32.588l-22.026 63-28.08-7.316-29.537 3.537q-22.49 4.484-37.19-3.537c-15.09-8.234-19.082-20.936-19.082-43.234q0-35.155 19.082-71.671" fill="#9ea0a5"/><path d="m1036.979 505.785 74.286 33.798h88.84l42.267-64.927q11.592-30.175 23.167-49.411 31.47-23.218 87.172-31.995l25.373-36.362 106.275-16.518 42.912 24.004 105.39 51.234 33.489 145.101 18.292 57.034 45.91 63.266v91.108h-80.008l-26.089-43.36-40.659-59.75-15.119 59.75v168.31l-125.71 34.286h-200.395l7.99-63.139v-106.639l10.209-80.566-10.21-63.266-50.256 51.263-77.178-3.989-119.89-64.413z" fill="#9ea0a5"/><path d="m1265.285 418.459c22.282-29.169 59.001-35.642 101.41-40.966 31.716 6.262 6.452 6.262 73.857 6.262 21.829 0 48.895-8.015 68.616-26.867 46.28-5.146 64.322 18.852 98.03 36.362q0 112.28-13.652 271.767-10.16 134.703-17.583 266.336c-52.033 18.752-89.045 15.036-166.501 18.752-90.49 4.34-90.49 2.434-171.624-18.752q5.55-145.089 17.115-303.42 10.333-145.186 10.333-209.474" fill="#9ea0a5"/><path d="m1555.31 938.034q4.177-99.918 10.649-163.146c0-40.281 7.14-66.498 6.593-106.139-.616-44.654 1.658-50.753 2.997-93.182 1.958-62.061-3.69-75.334-2.997-134.681-4.27-56.397.376-60.192-6.593-74.887q-20.798-9.819-41.43-9.819 6.18 42.844 6.18 102.394v116.993q-1.357 41.133-6.18 103.22c-4.823 62.086-7.628 71.46-15.361 112.272s-18.826 88.085-38.671 156.06q38.67 4.776 84.813-9.085" fill="#9ea0a5"/><path d="m1387.849 951.998q-26.91-85.44-17.512-152.327c6.331-49.292 6.887-95.88 6.887-134.654 3.643-21.212-1.339-67.046 0-109.475 0-42.584-11.223-45.606-10.53-104.954q0-54.493-11.712-73.095-26.504 0-53.478 7.466c-6.398 17.137 8.688 39.134 8.688 99.755 0 59.55 2.095 40.114 6.217 95.495q2.655 35.687 7.339 86.642 5.276 106.473 0 137.838c-.4 2.373-15.592 126.281-7.34 147.31q29.268 8.421 71.44 0" fill="#9ea0a5"/></g></svg>