<svg width="856" height="304" viewBox="0 0 856 304" fill="none" xmlns="http://www.w3.org/2000/svg">
<path fill-rule="evenodd" clip-rule="evenodd" d="M114.556 218.764L194.376 300.879L228.765 291.493L242.106 276.537L250.073 251.439L253.926 231.67L265.321 213.391L354.609 196.637L352.241 148.447L109.656 161.334L114.556 218.764Z" fill="#231716"/>
<path fill-rule="evenodd" clip-rule="evenodd" d="M358.887 286.691L372.308 284.846L381.177 279.172L387.785 273.72L392.036 265.777L395.014 258.765L397.523 248.106V240.226L367.196 241.08L355.12 263.458L358.887 286.691Z" fill="#292828"/>
<path fill-rule="evenodd" clip-rule="evenodd" d="M388.518 261.582L390.678 256.078L392.247 257.292V262.767L390.382 267.082L388.518 261.582Z" fill="#50463B"/>
<path fill-rule="evenodd" clip-rule="evenodd" d="M393.036 250.074L393.923 256.078L395.014 258.765L396.076 252.442L395.014 248.106L393.036 250.074Z" fill="#50463B"/>
<path fill-rule="evenodd" clip-rule="evenodd" d="M386.876 265.346L384.963 268.228V274.875L387.652 272.409L386.876 265.346Z" fill="#50463B"/>
<path fill-rule="evenodd" clip-rule="evenodd" d="M381.88 271.552L379.181 274.875V280.358L381.88 277.914V271.552Z" fill="#50463B"/>
<path fill-rule="evenodd" clip-rule="evenodd" d="M762.876 190.42L770.692 195.288L777.819 204.553L786.022 216.722L789.277 231.741V245.962L783.063 260.145L772.45 273.875L760.821 280.668L743.611 282.906H722.061L710.515 278.391L696.55 267.361L688.25 245.962V225.419L694.687 208.945L708.934 194.176L720.389 188.063L738.528 186.803L752.849 187.489L762.876 190.42Z" fill="#272320"/>
<path fill-rule="evenodd" clip-rule="evenodd" d="M741.442 276.34C719.783 276.34 702.225 258.782 702.225 237.123C702.225 215.464 719.783 197.906 741.442 197.906C763.101 197.906 780.659 215.464 780.659 237.123C780.659 258.782 763.101 276.34 741.442 276.34Z" fill="#2F2E31"/>
<path fill-rule="evenodd" clip-rule="evenodd" d="M741.03 277.669C718.637 277.669 700.483 259.516 700.483 237.123C700.483 214.73 718.637 196.576 741.03 196.576C763.423 196.576 781.576 214.73 781.576 237.123C781.576 259.516 763.423 277.669 741.03 277.669Z" fill="#1D1C1F"/>
<path fill-rule="evenodd" clip-rule="evenodd" d="M741.442 276.34C719.783 276.34 702.225 258.782 702.225 237.123C702.225 215.464 719.783 197.906 741.442 197.906C763.101 197.906 780.659 215.464 780.659 237.123C780.659 258.782 763.101 276.34 741.442 276.34Z" fill="#2F2E31"/>
<path fill-rule="evenodd" clip-rule="evenodd" d="M741.442 271.022C722.72 271.022 707.543 255.845 707.543 237.123C707.543 218.401 722.72 203.223 741.442 203.223C760.165 203.223 775.342 218.401 775.342 237.123C775.342 255.845 760.165 271.022 741.442 271.022Z" fill="#100605"/>
<path fill-rule="evenodd" clip-rule="evenodd" d="M742.772 263.046C729.189 263.046 718.178 252.035 718.178 238.452C718.178 224.869 729.189 213.858 742.772 213.858C756.354 213.858 767.365 224.869 767.365 238.452C767.365 252.035 756.354 263.046 742.772 263.046Z" fill="#856236"/>
<path fill-rule="evenodd" clip-rule="evenodd" d="M742.772 260.387C730.658 260.387 720.837 250.566 720.837 238.452C720.837 226.338 730.658 216.517 742.772 216.517C754.886 216.517 764.707 226.338 764.707 238.452C764.707 250.566 754.886 260.387 742.772 260.387Z" fill="#AA814E"/>
<path fill-rule="evenodd" clip-rule="evenodd" d="M744.101 258.431C733.455 258.431 724.217 249.098 724.217 238.452C724.217 227.806 733.455 217.855 744.101 217.855C754.747 217.855 763.377 227.806 763.377 238.452C763.377 249.098 754.747 258.431 744.101 258.431Z" fill="#9F763A"/>
<path fill-rule="evenodd" clip-rule="evenodd" d="M742.107 251.081C734.765 251.081 728.814 245.13 728.814 237.788C728.814 230.446 734.765 224.494 742.107 224.494C749.449 224.494 755.401 230.446 755.401 237.788C755.401 245.13 749.449 251.081 742.107 251.081Z" fill="#C79753"/>
<path fill-rule="evenodd" clip-rule="evenodd" d="M742.107 247.093C736.968 247.093 732.802 242.927 732.802 237.787C732.802 232.648 736.968 228.482 742.107 228.482C747.247 228.482 751.413 232.648 751.413 237.787C751.413 242.927 747.247 247.093 742.107 247.093Z" fill="#9A7A4E"/>
<path fill-rule="evenodd" clip-rule="evenodd" d="M742.107 245.764C737.701 245.764 734.13 242.193 734.13 237.787C734.13 233.382 737.701 229.811 742.107 229.811C746.512 229.811 750.083 233.382 750.083 237.787C750.083 242.193 746.512 245.764 742.107 245.764Z" fill="#C79753"/>
<path fill-rule="evenodd" clip-rule="evenodd" d="M741.934 245.099C737.896 245.099 734.623 241.826 734.623 237.787C734.623 233.749 737.896 230.476 741.934 230.476C745.973 230.476 749.246 233.749 749.246 237.787C749.246 241.826 745.973 245.099 741.934 245.099Z" fill="#A98555"/>
<path fill-rule="evenodd" clip-rule="evenodd" d="M702.226 261.138L697.99 256.811L695.392 261.138L694.655 263.819L697.99 267.432L702.226 261.138Z" fill="#463C34"/>
<path fill-rule="evenodd" clip-rule="evenodd" d="M697.802 252.461L696.429 247.093L691.859 254.03L693.311 257.728L697.802 252.461Z" fill="#463C34"/>
<path fill-rule="evenodd" clip-rule="evenodd" d="M702.226 260.856L697.925 256.811L694.83 263.046L697.925 267.432L702.226 260.856Z" fill="#463C34"/>
<path fill-rule="evenodd" clip-rule="evenodd" d="M707.543 268.038L703.242 263.993L699.934 269.67L703.845 272.498L707.543 268.038Z" fill="#463C34"/>
<path fill-rule="evenodd" clip-rule="evenodd" d="M695.578 244.484L694.205 239.117L690.67 242.174L688.25 245.962L690.67 251.687L692.854 247.093L695.578 244.484Z" fill="#463C34"/>
<path fill-rule="evenodd" clip-rule="evenodd" d="M695.578 235.179L697.282 229.052L690.67 232.868L688.251 236.656V242.967L692.854 237.787L695.578 235.179Z" fill="#4D433A"/>
<path fill-rule="evenodd" clip-rule="evenodd" d="M698.528 226.097H697.282L692.767 228.482L695.579 220.742L699.934 219.176L702.226 220.742L698.528 226.097Z" fill="#2C2727"/>
<path fill-rule="evenodd" clip-rule="evenodd" d="M705.239 213.304L703.669 212.303L701.14 212.303L698.707 216.828H701.14L702.225 218.045L705.239 213.304Z" fill="#2C2727"/>
<path fill-rule="evenodd" clip-rule="evenodd" d="M731.964 195.519V192.98L724.218 192.024L726.154 193.771V197.906L731.964 195.519Z" fill="#3A3535"/>
<path fill-rule="evenodd" clip-rule="evenodd" d="M712.948 198.723H715.558L716.325 203.223L712.948 206.192L712.042 202.458H709.663L712.948 198.723Z" fill="#3B3333"/>
<path fill-rule="evenodd" clip-rule="evenodd" d="M374.238 248.106H379.948L452.224 185.848C452.224 185.848 454.996 143.822 457.721 121.334C460.447 98.8469 463.339 56.8091 463.339 56.8091L464.394 50.0879L465.106 47.7058V45.6656L461.266 44.0855V42.9374H464.151L467.284 39.1023L422.262 27.1785L338.174 29.3075L313.652 31.6679L308.021 33.552L309.121 37.462H311.019L323.287 103.473V160.776V167.242H335.669V178.011H339.336V168.816H346.431V170.73L341.339 172.037V178.011L354.275 197.413L367.586 214.208L372.392 225.025L374.238 237.004V248.106Z" fill="#141414"/>
<path fill-rule="evenodd" clip-rule="evenodd" d="M370.384 173.289L374.368 174.866V197.878L382.842 217.514V226.23H379.323V217.514L370.384 197.878V173.289Z" fill="#080707"/>
<path fill-rule="evenodd" clip-rule="evenodd" d="M353.521 185.848L359.163 191.66V173.289L368.001 172.037L373.982 173.289H378.4V185.848H382.842V199.76L390.643 197.864L393.912 199.76H397.523V185.898L387.653 185.334L382.842 172.037V166.406H376.613L375.522 163.357H355.303L353.521 168.064H347.094V172.037H353.521V185.848Z" fill="#0A090A"/>
<path fill-rule="evenodd" clip-rule="evenodd" d="M387.653 187.934V190.45H396.084V187.934H387.653Z" fill="#3E3D46"/>
<path fill-rule="evenodd" clip-rule="evenodd" d="M326.364 35.7432V142.723H324.576V35.7432H326.364Z" fill="#5B5958"/>
<path fill-rule="evenodd" clip-rule="evenodd" d="M322.104 50.969L320.366 53.1286H314.942L314.013 38.9248H322.104V50.969Z" fill="#676767"/>
<path fill-rule="evenodd" clip-rule="evenodd" d="M322.104 38.9248H323.57V50.9428L321.734 53.8464H315.762L314.942 53.1286H320.366L322.104 50.9428V38.9248Z" fill="#2A2A29"/>
<path fill-rule="evenodd" clip-rule="evenodd" d="M390.539 56.8091H393.711V157.69H390.539L390.539 56.8091Z" fill="#3E4346"/>
<path fill-rule="evenodd" clip-rule="evenodd" d="M392.125 36.7712L395.094 33.5205L398.91 32.656L395.518 31.8318L393.155 32.656L390.539 36.7712H392.125Z" fill="#4C5153"/>
<path fill-rule="evenodd" clip-rule="evenodd" d="M412.316 172.037L410.934 173.289V176.514L412.316 178.653V192.97L411.625 196.637H413.703V192.97V178.011V175.024L412.316 172.037Z" fill="#494647"/>
<path fill-rule="evenodd" clip-rule="evenodd" d="M326.364 35.7431L335.004 33.8759L337.209 38.9249L343.094 36.4004V33.8759L390.538 31.8318V36.7712L387.652 39.1024H382.841V41.8522L335.004 45.6657L328.993 52.2575V112.225L368.006 151.792V160.776L349.271 161.619L326.364 162.546V35.7431Z" fill="#3F4347"/>
<path fill-rule="evenodd" clip-rule="evenodd" d="M426.122 118.751V121.334L429.121 121.859L427.622 123.904L430.209 126.038L426.122 123.904L427.622 127.943L424.423 129.044L421.946 123.904L424.423 121.859L420.08 115.294H418.926V106.085L420.08 104.948V99.8876H418.926V88.9858H417.666L416.695 78.2696L421.946 61.7929L424.423 57.5755L429.121 55.1907L439.899 52.7832V58.3237L442.763 61.7929L443.87 56.8092H448.292L446.829 73.6562L441.044 74.3678L438.621 76.8228V85.0492L439.899 86.5873H441.044V88.9858H432.494L429.121 90.9135L425.12 107.25V109.209H423.065V112.19H425.12V115.294H423.065V117.257L426.122 118.751Z" fill="#B6D1CC"/>
<path fill-rule="evenodd" clip-rule="evenodd" d="M441.262 85.2979H440.437V77.4488L441.801 75.5168H446.241V78.8777H443.339L441.801 80.4074L441.262 85.2979Z" fill="#AFD2CC"/>
<path fill-rule="evenodd" clip-rule="evenodd" d="M442.577 85.2978L443.612 80.8639L446.241 80.4072L445.628 87.0496H444.739V85.2978H442.577Z" fill="#AFD2CC"/>
<path fill-rule="evenodd" clip-rule="evenodd" d="M414.614 83.7286V114.39L415.987 117.025L416.695 116.282V90.0008L415.655 82.8381L414.614 83.7286Z" fill="#AFD2CC"/>
<path fill-rule="evenodd" clip-rule="evenodd" d="M413.119 112.393L410.598 120.377V123.151H411.858L415.655 117.772L414.073 115.532V111.585L413.119 112.393Z" fill="#AFD2CC"/>
<path fill-rule="evenodd" clip-rule="evenodd" d="M409.898 142.206L416.695 147.988V127.943L412.248 124.247H410.597L409.898 142.206Z" fill="#AFD2CC"/>
<path fill-rule="evenodd" clip-rule="evenodd" d="M420.392 128.473L418.328 132.436V133.675L420.392 134.985L423.064 134.49V131.035H421.741V127.943L420.392 128.473Z" fill="#B7D5D1"/>
<path fill-rule="evenodd" clip-rule="evenodd" d="M427.332 132.122L423.983 136.118H418.955V138.236L419.99 139.018V140.942H418.328V145.97H422.04L423.064 146.912V148.956L429.211 144.308V141.496L427.332 139.586V137.387L429.939 132.122H427.332Z" fill="#AFD2CC"/>
<path fill-rule="evenodd" clip-rule="evenodd" d="M354.608 92.896V80.4074L357.159 79.0646V77.7402L354.608 75.5169V68.454H355.883L357.159 70.3954L359.532 69.4203V66.8108H365.709L382.342 64.1863V79.0646L376.25 80.4074V82.8382L371.642 103.18H358.451L354.608 92.896Z" fill="#AFD2CC"/>
<path fill-rule="evenodd" clip-rule="evenodd" d="M427.767 101.914L427.235 118.506L433.582 120.02V121.859L441.015 126.946L441.573 120.86L438.769 120.02V107.249L442.501 106.399V101.187L441.573 94.9721L443.339 90.2994L434.735 88.884L432.493 92.1331H429.939L427.767 101.914Z" fill="#6D7878"/>
<path fill-rule="evenodd" clip-rule="evenodd" d="M428.751 140.539L433.599 134.985L435.287 132.295L439.233 133.365L440.437 136.417V139.586L437.689 144.383L428.751 142.08V140.539Z" fill="#3D4B4C"/>
<path fill-rule="evenodd" clip-rule="evenodd" d="M427.235 158.767H432.493L440.481 143.082L443.339 137.471L445.538 136.118H447.971L434.594 160.776H428.751L427.235 158.767Z" fill="#373734"/>
<path fill-rule="evenodd" clip-rule="evenodd" d="M402.214 158.457H424.134V160.776L402.214 159.616V158.457Z" fill="#3C3837"/>
<path fill-rule="evenodd" clip-rule="evenodd" d="M413.125 110.902V83.7285L420.696 56.8091L427.235 53.1286L442.5 50.0879H447.971L452.224 45.6656V43.4114L418.328 39.1023L406.034 64.1862V67.1438H409.898V85.2978L410.597 89.2327L407.604 97.1888V124.247L413.125 110.902Z" fill="#36353B"/>
<path fill-rule="evenodd" clip-rule="evenodd" d="M331.641 111.585L338.368 121.485L370.384 153.273L372.308 156.892L382.342 155.511L385.742 153.273V150.883H376.613L382.342 148.447L384.058 144.383H382.342L372.308 148.956L347.093 125.659L331.641 111.585Z" fill="#60676B"/>
<path fill-rule="evenodd" clip-rule="evenodd" d="M351.749 113.492L354.609 117.368V126.946H382.342V114.819L378.968 113.492L376.613 111.585H351.749V113.492Z" fill="#5E676C"/>
<path fill-rule="evenodd" clip-rule="evenodd" d="M434.594 176.272L435.287 178.011H416.695L415.654 176.272L434.594 176.272Z" fill="#444142"/>
<path fill-rule="evenodd" clip-rule="evenodd" d="M348.523 172.037H353.521V185.848L358.692 190.45V173.289H367.045L368.799 199.76L378.389 214.142L380.477 209.69L374.561 196.637V172.037L378.4 173.289L380.477 196.637L388.833 199.76L397.523 221.622L382.842 237.406H376.613L373.023 217.96L370.384 213.008L353.521 190.45L347.094 181.558L348.523 172.037Z" fill="#26201E"/>
<path fill-rule="evenodd" clip-rule="evenodd" d="M335.505 99.229H338.144V104.168L340.441 103.18L339.242 50.0498H337.973V59.7557H335.505V99.229Z" fill="#5A6367"/>
<path fill-rule="evenodd" clip-rule="evenodd" d="M344.738 94.8741V74.2317H346.154L347.5 62.5278V86.6025H346.154V98.3023H344.738V94.8741Z" fill="#68767B"/>
<path fill-rule="evenodd" clip-rule="evenodd" d="M391.868 178.769L392.125 171.441H399.24V173.801L395.554 178.011L391.868 178.769Z" fill="#AC875B"/>
<path fill-rule="evenodd" clip-rule="evenodd" d="M393.143 177.141V173.289H396.885V175.215L395.014 177.141H393.143Z" fill="#D8D8D8"/>
<path fill-rule="evenodd" clip-rule="evenodd" d="M375.421 250.074H390.539L399.24 242.555L449.517 193.141V187.934L410.216 221.708L380.178 247.867L374.238 248.106L375.421 250.074Z" fill="#7D6437"/>
<path fill-rule="evenodd" clip-rule="evenodd" d="M376.613 250.074H390.539L395.014 245.659H384.488L382.342 248.106L376.613 250.074Z" fill="#57493A"/>
<path fill-rule="evenodd" clip-rule="evenodd" d="M340.354 29.2693L390.538 20.5315V28.0166L340.354 29.2693Z" fill="#AAAAAA"/>
<path fill-rule="evenodd" clip-rule="evenodd" d="M390.539 28.0166V20.5315L429.13 24.7328L437.517 27.1784L442.9 29.5708L444.394 33.081L422.263 27.1784L390.539 28.0166Z" fill="#686868"/>
<path fill-rule="evenodd" clip-rule="evenodd" d="M398.91 21.5568L400.482 20.5314L408.021 19.999L411.068 20.7452V22.7813L398.91 21.5568Z" fill="#4E4F4D"/>
<path fill-rule="evenodd" clip-rule="evenodd" d="M398.91 21.557L398.91 11.6116L400.482 10.5611L406.035 10.1145L407.751 11.1064L408.44 19.9991H407.751L400.482 20.5316L398.91 21.557Z" fill="#E77D42"/>
<path fill-rule="evenodd" clip-rule="evenodd" d="M272.201 88.8651L270.85 51.0393L258.813 40.6724V51.0393L261.216 55.0858L262.387 82.6988L258.813 81.5643L255.99 82.6988L250.332 85.6935V82.6988L253.217 78.263V70.5091L245.065 66.5149H229.08L219.623 70.5091V79.409L229.08 82.6988V93.1522L245.065 91.9988L243.36 83.6832L245.912 82.6988V90.8203H251.32L257.52 86.4044H262.387V90.8203L272.201 88.8651Z" fill="#222122"/>
<path fill-rule="evenodd" clip-rule="evenodd" d="M220.901 79.0377L228.958 76.7091L234.731 75.9137H238.726H243.36L248.01 76.7091L253.217 78.263V70.5091L245.064 66.5149H229.079L220.323 70.5091L220.901 79.0377Z" fill="#595758"/>
<path fill-rule="evenodd" clip-rule="evenodd" d="M228.726 81.5572L232.721 80.4302L237.464 80.4302H242.106L245.912 80.9937L244.763 82.6448L240.466 82.0567H235.765H231.3L228.726 83.6833V81.5572Z" fill="#989898"/>
<path fill-rule="evenodd" clip-rule="evenodd" d="M258.812 40.6724V46.3857L268.79 53.8465L270.849 51.0393L258.812 40.6724Z" fill="#464344"/>
<path fill-rule="evenodd" clip-rule="evenodd" d="M261.217 55.0857L264.831 56.327L266.814 89.2328L262.387 90.8202L261.217 55.0857Z" fill="#474344"/>
<path fill-rule="evenodd" clip-rule="evenodd" d="M280.996 87.6343L283.699 83.6833H287.455L288.723 80.4302H297.905L298.788 82.0567H306.115L310.755 85.6936L300.624 89.2329H283.699L280.996 87.6343Z" fill="#2A2A2A"/>
<path fill-rule="evenodd" clip-rule="evenodd" d="M114.555 261.582H98.0017L59.2592 220.286H43.7424H35.7483L18.5482 218.764L7.98863 220.286L3.276 218.376L0 212.268L0 205.134L3.276 201.759L7.98863 200.802H27.2206H35.7483V187.76L41.5188 172.037L43.7424 164.451L50.6709 163.321L52.8325 164.627L57.2777 166.057L59.2592 167.771V174.342L62.5506 177.461L72.9402 162.852L90.3441 172.037L114.66 205.964C114.66 205.964 108.691 214.155 107.731 216.272C106.77 218.388 105.192 221.7 105.192 221.7L109.656 228.347L114.555 241.887V261.582Z" fill="#A38353"/>
<path fill-rule="evenodd" clip-rule="evenodd" d="M7.85156 218.376L19.0743 210.279V201.759L50.3149 203.421L48.6673 215.053L42.7423 218.764L19.0743 218.633L7.85156 218.376Z" fill="#805923"/>
<path fill-rule="evenodd" clip-rule="evenodd" d="M62.2915 201.759L55.2915 193.45V186.823L52.4209 175.079L59.7753 182.091V188.955L62.2915 195.112V201.759Z" fill="#694A1E"/>
<path fill-rule="evenodd" clip-rule="evenodd" d="M53.207 215.632L58.4214 214.862L62.2918 213.127L63.13 211.628L63.8096 207.984V205.47L66.3404 207.984L65.6633 213.127L63.8096 215.632L60.7003 217.742H57.3565L53.207 215.632Z" fill="#5B411C"/>
<path fill-rule="evenodd" clip-rule="evenodd" d="M42.7684 203.421L45.7667 200.27V197.427V191.84L41.7565 190.984V197.202L40.6735 200.27L37.7158 203.421H42.7684Z" fill="#E2B97B"/>
<path fill-rule="evenodd" clip-rule="evenodd" d="M71.4668 207.809L74.5177 205.134L76.2515 199.575L79.2034 188.419L88.0745 201.376L84.8535 204.278V207.809L85.8569 211.628L84.8535 216.917L71.4668 207.809Z" fill="#1D0F03"/>
<path fill-rule="evenodd" clip-rule="evenodd" d="M53.207 175.079L85.3227 210.262L83.0398 211.606L82.2089 214.054L83.9808 216.917L90.0357 218.764L92.1793 216.917V213.135L91.3484 210.262L88.0753 208.17L56.0494 172.401H53.207V175.079Z" fill="#E4A957"/>
<path fill-rule="evenodd" clip-rule="evenodd" d="M88.7266 218.632L91.3483 217.742L92.1791 216.917V214.112L91.3483 210.882L93.8384 212.217L94.4484 214.757V216.917V218.632L93.01 219.51L91.5875 220.255H90.7958L88.7266 218.632Z" fill="#815B25"/>
<path fill-rule="evenodd" clip-rule="evenodd" d="M68.8359 208.123L100.489 241.887L101.301 237.908V232.295L99.5594 227.659L95.1823 222.319L91.3482 218.764L83.9805 216.917L79.0702 213.864L68.8359 208.123Z" fill="#815E2B"/>
<path fill-rule="evenodd" clip-rule="evenodd" d="M88.7261 222.49H87.0332V224.663L91.3478 228.961L97.2542 234.358L98.3402 230.875L95.6263 226.498L88.7261 222.49Z" fill="#432C05"/>
<path fill-rule="evenodd" clip-rule="evenodd" d="M79.7713 224.663L75.7346 222.49L74.2295 223.576V225.65L75.7346 227.793L79.7713 232.551L85.8576 238.221L88.7266 241.298V234.358L79.7713 224.663Z" fill="#432C05"/>
<path fill-rule="evenodd" clip-rule="evenodd" d="M64.1163 218.764H66.3396L68.8355 218.632L70.255 216.917V215.568L72.6925 216.917L71.4669 218.764L69.5386 220.254H68.4044H66.3396H64.1163L60.9727 218.632L64.1163 218.764Z" fill="#7B551D"/>
<path fill-rule="evenodd" clip-rule="evenodd" d="M473.519 97.0296L474.808 106.085L465.783 110.802L461.267 173.289L511.404 145.139L742.741 141.196L737.882 117.356L544.853 97.0296L505.49 93.4414L473.519 93.4414V97.0296Z" fill="#313131"/>
<path fill-rule="evenodd" clip-rule="evenodd" d="M474.808 95.7146L478.124 106.085L508.544 108.518L571.92 106.085L736.151 122.768V119.149L505.826 93.9397L474.808 95.7146Z" fill="#555555"/>
<path fill-rule="evenodd" clip-rule="evenodd" d="M473.52 142.08L484.655 147.429L491.842 148.244L495.729 145.709H500.659L496.911 147.429L495.729 148.244L491.203 150.096L484.655 148.956L473.52 144.308V142.08Z" fill="#676767"/>
<path fill-rule="evenodd" clip-rule="evenodd" d="M467.66 95.195L473.519 93.4414L474.808 102.463V106.085L470.622 108.354L465.74 110.902L467.66 95.195Z" fill="#141413"/>
<path fill-rule="evenodd" clip-rule="evenodd" d="M633.035 106.085L634.782 88.4686L635.872 77.4817L639.871 75.5524L640.907 74.1541V69.7302V68.5153L627.324 67.0903L625.714 68.5153L626.443 73.3226L629.724 74.1541L630.705 76.6612L627.324 106.085H633.035Z" fill="#D59939"/>
<path fill-rule="evenodd" clip-rule="evenodd" d="M626.933 72.1631H634.237H635.357V73.8104L634.237 74.2419L635.357 74.6882H636.588L637.314 74.2419V72.8447L640.907 73.4257L639.871 75.5524L636.588 76.6325L635.357 78.1945H630.635V76.1292H633.92L633.311 75.1788L629.818 74.6882L626.933 73.4257V72.1631Z" fill="#3F2C19"/>
<path fill-rule="evenodd" clip-rule="evenodd" d="M630.946 78.7668L631.938 80.5427L633.311 81.1122V82.4875H630.946L629.875 83.4659L630.344 78.7668H630.946Z" fill="#5E441F"/>
<path fill-rule="evenodd" clip-rule="evenodd" d="M630.706 76.6611L627.324 106.085H629.875L633.311 76.6611L630.706 76.6611Z" fill="#FCBD71"/>
<path fill-rule="evenodd" clip-rule="evenodd" d="M546.833 158.86L550.566 73.7618V58.4696L554.346 56.5774H559.336L560.61 58.4696V63.8205L559.336 65.1376L555.944 161.193L550.566 163.083L546.833 161.193V158.86Z" fill="#2B292E"/>
<path fill-rule="evenodd" clip-rule="evenodd" d="M557.074 58.4696L555.431 70.7421L551.005 157.453L546.833 158.86L551.953 63.2847L551.005 58.4696L557.074 56.5774V58.4696Z" fill="#534F50"/>
<path fill-rule="evenodd" clip-rule="evenodd" d="M551.878 62.5568H553.722H555.432L557.128 62.8365H558.73L559.858 63.5704L559.346 64.0127L558.127 63.5704L556.378 63.4887H554.427L552.379 63.5704L551.005 64.0127V62.5568H551.878Z" fill="#3B3839"/>
<path fill-rule="evenodd" clip-rule="evenodd" d="M548.936 160.133L547.71 194.532H551.954L552.851 160.133H548.936Z" fill="#807B72"/>
<path fill-rule="evenodd" clip-rule="evenodd" d="M548.936 160.133H551.047L549.992 194.532H547.71L548.936 160.133Z" fill="#A09A90"/>
<path fill-rule="evenodd" clip-rule="evenodd" d="M547.71 188.599H551.833V187.507H547.71V188.599Z" fill="#2B292E"/>
<path fill-rule="evenodd" clip-rule="evenodd" d="M546.549 194.532L545.078 196.457L544.534 199.06L545.956 201.28L548.036 202.077L550.739 201.28L552.508 199.45L552.851 196.457L552.508 194.532L552.101 192.204V191.129H547.71L546.549 194.532Z" fill="#140C0A"/>
<path fill-rule="evenodd" clip-rule="evenodd" d="M546.395 196.603L547.285 195.265L549.379 194.531H551.047L551.833 195.567L552.111 196.14L551.833 197.661L551.047 199.564L550.281 200.478H548.32H547.285L546.395 199.564L545.94 198.269L546.395 196.603Z" fill="#2F211E"/>
<path fill-rule="evenodd" clip-rule="evenodd" d="M598.44 153.722L661.766 151.397L671.907 151.748L689.145 158.038L747.792 185.917L752.384 187.734H758.686L751.32 178.345L744.448 132.295L609.202 120.202H585.992L580.88 122.768V158.007H598.405L598.44 153.722Z" fill="#C78D3C"/>
<path fill-rule="evenodd" clip-rule="evenodd" d="M609.202 148.713H666.105H673.16L679.105 150.917L748.798 178.971V177.747L679.105 149.378L673.16 147.674L666.105 147.11L609.202 147.11V148.713Z" fill="#D1AD6B"/>
<path fill-rule="evenodd" clip-rule="evenodd" d="M607.398 150.917L609.203 149.544L673.161 148.713L748.799 178.971L747.333 180.958H743.95L671.389 151.396L609.203 151.748L607.398 150.917Z" fill="#A97937"/>
<path fill-rule="evenodd" clip-rule="evenodd" d="M715.522 134.421V140.726L718.486 144.318H731.221L745.396 155.352V172.075L750.232 175.887H751.319L748.798 134.421L715.522 130.974V134.421Z" fill="#CFA05B"/>
<path fill-rule="evenodd" clip-rule="evenodd" d="M751.25 175.887H748.798L744.358 173.082V156.892L730.733 145.36H718.252L714.466 140.835L715.523 140.726L718.252 143.913H731.628L745.396 155.352V172.075L748.798 174.761H751.32L751.25 175.887Z" fill="#67502E"/>
<path fill-rule="evenodd" clip-rule="evenodd" d="M715.522 140.726V130.974L714.465 131.364V140.835L715.522 140.726Z" fill="#E7B56D"/>
<path fill-rule="evenodd" clip-rule="evenodd" d="M476.86 250.074L482.856 235.955L490.485 231.664L501.062 229.32L537.765 227.279L582.4 224.953H613.935H619.607V212.431L729.436 210.722H741.543L751.249 193.329V189.777H733.218L731.48 191.452L552.463 194.452L551.292 192.207L544.933 193.329V196.107H539.764V202.732V203.802H543.738L546.019 202.732L546.836 205.4V207.9V210.02H506.946H501.062V210.722H485.679V213.604H476.86L472.752 215.181L469.264 216.686L466.099 219.925L463.11 224.216L459.728 230.132L445.56 250.074H476.86Z" fill="#D19639"/>
<path fill-rule="evenodd" clip-rule="evenodd" d="M486.743 214.678H618.683V212.323L486.743 213.948V214.678Z" fill="#4D3009"/>
<path fill-rule="evenodd" clip-rule="evenodd" d="M565.559 225.217L571.486 222.966L575.424 220.845L576.109 219.926V218.362L575.424 217.394L574.031 216.879L570.84 216.243L569.593 215.863L573.182 216.243L575.633 217.112L576.45 218.362V220.164L575.226 221.572L568.562 225.507L565.559 225.217Z" fill="#522F00"/>
<path fill-rule="evenodd" clip-rule="evenodd" d="M619.148 210.374L740.499 208.82H619.148H612.713L612.713 209.984H619.148V210.374Z" fill="#DCA652"/>
<path fill-rule="evenodd" clip-rule="evenodd" d="M548.03 194.452V197.855H544.129V201.909L548.03 200.828L549.37 208.766L552.713 207.269V200.828H557.68V197.855H552.713V196.47L737.882 194.452V192.792L552.713 195.394L551.095 192.792L548.03 194.452Z" fill="#DCA652"/>
<path fill-rule="evenodd" clip-rule="evenodd" d="M569.718 198.625H571.92V202.113H569.718V198.625Z" fill="#D0B895"/>
<path fill-rule="evenodd" clip-rule="evenodd" d="M573.543 202.113L575.691 207.03L576.45 208.766V209.779H559.741V208.766L575.338 209.082L572.597 202.488L573.543 202.113Z" fill="#F1BB65"/>
<path fill-rule="evenodd" clip-rule="evenodd" d="M572.326 202.915L571.005 203.802L572.326 207.866L561.803 207.554L560.251 208.766H574.853L572.326 202.915Z" fill="#93610C"/>
<path fill-rule="evenodd" clip-rule="evenodd" d="M578.806 199.023V203.261H585.991V199.437L578.806 199.023Z" fill="#E5C395"/>
<path fill-rule="evenodd" clip-rule="evenodd" d="M609.201 214.678H618.683V219.925H616.579V217.302L614.914 216.692L610.217 215.863L609.201 214.678Z" fill="#2C1E06"/>
<path fill-rule="evenodd" clip-rule="evenodd" d="M559.741 215.534H568.096L571.122 216.542L574.853 217.344L576.11 218.362V219.925L574.853 221.232L571.486 222.966L566.083 225.507L560.25 226.107H552.713C552.713 226.107 569.009 221.646 568.906 219.925C568.803 218.205 552.102 215.863 552.102 215.863L559.741 215.534Z" fill="#E8A733"/>
<path fill-rule="evenodd" clip-rule="evenodd" d="M494.757 166.406L497.423 172.037L506.3 173.289L514.585 172.037H518.439V166.406H520.184V175.024V185.334H526.722L528.57 183.806H531.932L532.794 172.037V168.119L535.983 164.63V154.733L545.87 151.792L553.551 152.162L555.911 154.733L583.442 153.546V118.746H567.045L569.114 116.411L567.045 114.655L567.887 113.153H569.114V110.099H567.887V108.366L569.708 107.826V106.085H567.887H554.505H548.276V107.826H544.216V106.085H542.629V107.826L526.722 108.366L517.256 111.981L514.585 113.153V115.536H517.256L514.585 118.746L510.128 119.678L506.3 128.214H497.423V143.311L500.176 142.404V135.778L502.315 136.736L500.176 144.607L471.945 165.548V173.289L495.936 156.307L494.757 166.406Z" fill="#B57E34"/>
<path fill-rule="evenodd" clip-rule="evenodd" d="M580.88 146.941V123.315H544.853V133.017H535.071L533.434 140.483L530.302 143.725V149.544L580.88 146.941Z" fill="#966419"/>
<path fill-rule="evenodd" clip-rule="evenodd" d="M516.294 151.532L514.742 152.85L513.743 154.505V158.308L514.157 161.981L515.859 162.546L516.977 161.178L517.892 157.823L518.639 154.505L517.892 152.85L516.294 151.532Z" fill="#A77A31"/>
<path fill-rule="evenodd" clip-rule="evenodd" d="M516.294 151.532L517.892 152.85L518.639 154.505L518.374 155.17V156.161H534.98V151.791L517.271 151.284L516.294 151.532Z" fill="#D0A167"/>
<path fill-rule="evenodd" clip-rule="evenodd" d="M514.741 156.161L515.408 153.633L516.302 152.85L516.976 153.633V155.501V156.161H514.741Z" fill="#552E00"/>
<path fill-rule="evenodd" clip-rule="evenodd" d="M518.533 150.096L517.892 137.768L518.533 135.099L520.325 134.064L522.421 135.099L523.97 136.526L524.642 137.278V150.096H518.533Z" fill="#5E3903"/>
<path fill-rule="evenodd" clip-rule="evenodd" d="M532.622 145.709H541.154V135.906L544.223 134.064L543.768 130.705H536.468L534.236 137.632L531.31 142.08L532.622 145.709Z" fill="#563C17"/>
<path fill-rule="evenodd" clip-rule="evenodd" d="M549.169 106.95V118.096L554.506 117.274H559.335V106.085L549.169 106.95Z" fill="#D5AC7C"/>
<path fill-rule="evenodd" clip-rule="evenodd" d="M528.444 117.356V119.935H532.265V121.833L528.269 128.416V138.207H531.309L536.301 124.587L536.822 124.326L539.486 122.992L543.047 121.833L541.554 120.796V117.356H528.444Z" fill="#7A5B34"/>
<path fill-rule="evenodd" clip-rule="evenodd" d="M536.387 113.153V114.681H542.292V113.153H536.387Z" fill="#6E420F"/>
<path fill-rule="evenodd" clip-rule="evenodd" d="M536.387 112.09V113.086H542.292V112.09H536.387Z" fill="#E1B37F"/>
<path fill-rule="evenodd" clip-rule="evenodd" d="M528.444 117.356H542.292V115.11H528.444V117.356Z" fill="#805610"/>
<path fill-rule="evenodd" clip-rule="evenodd" d="M537.766 126.734H543.46V122.768L541.598 123.804L539.339 124.285L537.766 126.734Z" fill="#C0986E"/>
<path fill-rule="evenodd" clip-rule="evenodd" d="M566.353 150.557H582.4V151.276H566.353V150.557Z" fill="#785222"/>
<path fill-rule="evenodd" clip-rule="evenodd" d="M566.353 151.748H582.4V152.346L566.353 152.707V151.748Z" fill="#A87D44"/>
<path fill-rule="evenodd" clip-rule="evenodd" d="M566.353 150.086H582.002L582.4 149.626V149.002L566.353 149.544V150.086Z" fill="#C19050"/>
<path fill-rule="evenodd" clip-rule="evenodd" d="M513.084 123.315L511.404 126.734H525.636L527.693 123.315H513.084Z" fill="#C79767"/>
<path fill-rule="evenodd" clip-rule="evenodd" d="M525.262 160.916V163.16L526.027 163.605H530.299L530.959 162.546V160.425H532.286V163.16L530.959 164.71H526.027L524.642 163.901L524.252 163.16V160.425L525.262 160.916Z" fill="#2C1B0A"/>
<path fill-rule="evenodd" clip-rule="evenodd" d="M525.636 156.892H530.76L530.389 157.521H525.206L525.636 156.892Z" fill="#D4A368"/>
<path fill-rule="evenodd" clip-rule="evenodd" d="M525.637 157.684H530.302V158.33H525.637V157.684Z" fill="#80541A"/>
<path fill-rule="evenodd" clip-rule="evenodd" d="M473.52 168.063V164.71L500.793 144.383H503.597L473.52 168.063Z" fill="#BC8F50"/>
<path fill-rule="evenodd" clip-rule="evenodd" d="M496.911 167.845H498.904L499.37 170.327H507.357V168.623H505.3V167.242H513.364V168.623H514.741V171.437L507.357 172.288L498.081 171.839L496.911 167.845Z" fill="#704711"/>
<path fill-rule="evenodd" clip-rule="evenodd" d="M498.35 164.709L508.555 165.08H511.446L511.87 163.393H514.07L513.742 166.694H504.905V168.372L506.832 168.848L506.21 170.045L499.056 169.765V167.242H496.911V165.807H498.35V164.709Z" fill="#957440"/>
<path fill-rule="evenodd" clip-rule="evenodd" d="M544.223 120.202H558.396V118.096H543.46L544.223 120.202Z" fill="#644413"/>
<path fill-rule="evenodd" clip-rule="evenodd" d="M530.76 174.13H527.969L528.268 182.56H530.76V174.13Z" fill="#382710"/>
<path fill-rule="evenodd" clip-rule="evenodd" d="M543.048 111.757H543.793L544.602 112.588V114.748L545.604 114.416V113.419L546.659 113.253V112.588H545.604L544.223 111.042H543.048V111.757Z" fill="#66461F"/>
<path fill-rule="evenodd" clip-rule="evenodd" d="M505.49 140.709L505.826 137.47L508.923 135.65H513.742L515.858 136.429V139.586V148.956L514.069 144.308L513.742 139.586H508.923L505.49 140.709Z" fill="#643800"/>
<path fill-rule="evenodd" clip-rule="evenodd" d="M505.491 140.183V137.671L508.923 135.65H513.743L516.191 136.429L515.859 148.956L518.639 150.096L517.892 137.077L518.639 134.953L520.325 134.064L522.691 134.953L524.642 137.077L525.207 150.096L526.293 148.956L525.637 135.65L523.331 134.064L520.325 132.295L517.892 134.064L513.743 133.538L508.923 134.064L505.491 134.953L503.598 136.429V140.183H505.491Z" fill="#CC923F"/>
<path fill-rule="evenodd" clip-rule="evenodd" d="M527.693 109.344V113.193L543.047 113.086L542.291 108.517L527.693 109.344Z" fill="#CC9D62"/>
<path fill-rule="evenodd" clip-rule="evenodd" d="M544.854 123.533L580.88 122.768V145.709L580.178 145.225V134.064H578.807V128.416L574.377 125.025L544.854 126.734V123.533Z" fill="#67450C"/>
<path fill-rule="evenodd" clip-rule="evenodd" d="M423.064 277.913L432.011 262.654L442.183 249.149L438.361 240.983V232.86L446.328 230.364L450.405 177.592L438.361 172.351V168.164H442.183L446.328 134.619V131.035L447.119 129.156V126.637L448.354 122.22L449.632 120.876H451.901H453.66L454.365 122.22H456.299L464.951 31.2815L466.374 29.562V26.5501L468.065 25.1813V19.999L473.519 22.2712L471.913 26.5501L473.519 27.7205L464.951 123.275L471.913 124.436L473.519 126.637V173.475V176.373H466.374L463.206 181.41L458.592 232.86L466.374 233.774V241.802L458.592 249.149L446.328 249.967L445.099 254.272L433.809 263.47L424.027 277.913H423.064Z" fill="#CD9A4C"/>
<path fill-rule="evenodd" clip-rule="evenodd" d="M465.74 133.675H454.926L452.225 169.415L464.394 170.73L465.74 133.675Z" fill="#B9873A"/>
<path fill-rule="evenodd" clip-rule="evenodd" d="M446.785 248.106L453.449 242.257L454.885 237.004H464.18V240.2H460.003H458.007L457.157 242.257H455.483L448.292 248.106H446.785Z" fill="#633D0B"/>
<path fill-rule="evenodd" clip-rule="evenodd" d="M453.181 237.825L439.108 235.577V234.084L455.483 235.577L453.181 237.825Z" fill="#F9C36F"/>
<path fill-rule="evenodd" clip-rule="evenodd" d="M446.327 131.035L448.291 127.943H454.926L453.203 131.035H446.327Z" fill="#E8BD82"/>
<path fill-rule="evenodd" clip-rule="evenodd" d="M452.52 178.011H458.592L455.483 231.664H448.292L452.52 178.011Z" fill="#DAA15A"/>
<path fill-rule="evenodd" clip-rule="evenodd" d="M453.442 131.035L450.626 170.73H442.501L446.327 131.035H453.442Z" fill="#E3AE6C"/>
<path fill-rule="evenodd" clip-rule="evenodd" d="M461.15 121.334L468.605 32.8484L469.924 26.0582V22.1682H468.605L467.182 26.0582L465.537 27.8643V31.1626L464.315 32.8484L456.755 121.334H461.15Z" fill="#ECAD60"/>
<path fill-rule="evenodd" clip-rule="evenodd" d="M442.501 173.1L451.4 177.132L461.948 178.011V177.132L457.535 176.268L460.843 175.556V174.34H452.224L451.4 172.037H442.501V173.1Z" fill="#6A4C17"/>
<path fill-rule="evenodd" clip-rule="evenodd" d="M453.442 162.091V164.24L454.927 165.641H457.711L455.577 168.035V169.564H457.711V172.037H461.949V169.564H459.341L458.593 168.035L459.341 167.064H461.949V163.377H460.061H457.711L456.755 162.091H465.741V160.776H453.442V162.091Z" fill="#41260D"/>
<path fill-rule="evenodd" clip-rule="evenodd" d="M465.741 144.383H463.905V140.63H464.823V138.431H463.905V136.711L464.823 136.03V133.944V131.035L466.503 130.558V133.342H467.66V135.436H465.783V137.471H467.023V141.675H465.783L465.741 144.383Z" fill="#2A160A"/>
<path fill-rule="evenodd" clip-rule="evenodd" d="M462.859 126.028H460.546V127.942H463.905L465.051 129.489L466.445 130.217H470.622V126.028H469.284V128.601H467.66V125.225H466.445V127.942H465.584V124.883H463.905V126.028L463.339 122.656L461.676 121.859H458.167V122.656H461.185L461.676 124.388L462.859 126.028Z" fill="#2D1507"/>
<path fill-rule="evenodd" clip-rule="evenodd" d="M454.926 147.429L458.592 142.491L461.602 138.055L462.54 135.047V133.724L461.602 129.044H456.755V130.217H459.369V131.035L458.167 131.446H456.755V132.314H459.369L460.188 131.833V132.843L459.369 133.724H456.755L457.093 135.047H459.369L461.153 133.724V135.047V136.617L460.637 138.055L457.553 142.141L454.926 146.183H452.903V147.429H454.926Z" fill="#2D1507"/>
<path fill-rule="evenodd" clip-rule="evenodd" d="M466.319 173.289H471.945V135.134V131.035H469.956V142.416V162.015H465.782L466.319 173.289Z" fill="#977437"/>
<path fill-rule="evenodd" clip-rule="evenodd" d="M462.175 10.2312L461.267 3.1009L462.175 0.804488L472.408 0H477.131L483.124 3.1009V5.11559H481.827V10.2312L479.463 12.7994H478.151V15.4663H476.037V12.7994L474.571 13.6222V16.1612L469.289 13.6222H466.003L463.34 12.7994V10.2312H462.175Z" fill="#D89D40"/>
<path fill-rule="evenodd" clip-rule="evenodd" d="M456.18 153.354V156.307H462.539V153.354H456.18Z" fill="#CAA871"/>
<path fill-rule="evenodd" clip-rule="evenodd" d="M452.903 153.354H454.926V156.892H452.225L452.903 153.354Z" fill="#D8B47B"/>
<path fill-rule="evenodd" clip-rule="evenodd" d="M462.539 145.894H470.622L469.924 144.383H462.539H459.591L462.539 145.894Z" fill="#D0A768"/>
<path fill-rule="evenodd" clip-rule="evenodd" d="M470.622 145.894V157.69H463.905V145.97L470.622 145.894Z" fill="#CB9742"/>
<path fill-rule="evenodd" clip-rule="evenodd" d="M467.412 8.45825L478.124 8.9217V10.2722L474.644 10.7063H472.768H469.232L466.727 8.9217L467.412 8.45825Z" fill="#664411"/>
<path fill-rule="evenodd" clip-rule="evenodd" d="M462.495 8.08057H464.874V11.6883L463.685 12.0886L463.34 10.0846H462.114L462.495 8.08057Z" fill="#5F471E"/>
<path fill-rule="evenodd" clip-rule="evenodd" d="M462.114 2.24865L470.761 1.43628L475.048 1.09863L476.789 1.43628L482.206 4.44257L481.659 5.49409L476.363 2.24865H474.612H470.761L462.114 2.92978V2.24865Z" fill="#624819"/>
<path fill-rule="evenodd" clip-rule="evenodd" d="M474.817 8.4582V6.20275L477.002 4.26594V2.32983H469.305V4.26594H471.011L470.434 8.08065L474.817 8.4582Z" fill="#E2B461"/>
<path fill-rule="evenodd" clip-rule="evenodd" d="M464.185 24.7162H462.114V13.3071H469.305L476.301 16.1613V17.9834H474.846V19.9992L478.124 20.6453V24.7162H477.003V22.8134H474.846V33.8759H473.519V27.7208V22.1684L468.065 19.9992L466.727 18.9007L464.185 17.3181V24.7162ZM467.285 14.7688H464.151V16.6849H465.718L467.285 16.1613V14.7688Z" fill="#3D3230"/>
<path fill-rule="evenodd" clip-rule="evenodd" d="M465.782 162.015H469.956V157.69H471.945V165.548H465.782V162.015Z" fill="#725521"/>
<path fill-rule="evenodd" clip-rule="evenodd" d="M487.041 213.5L618.684 212.323V210.374H486.744L487.041 213.5Z" fill="#D4A760"/>
<path fill-rule="evenodd" clip-rule="evenodd" d="M484.549 93.4413L483.124 78.4818L479.504 77.0001V64.2904L470.119 71.7513L471.945 45.2682L487.282 39.1023H490.952L492.794 41.8957L494.354 44.1014L492.794 58.7571L494.354 61.6498L497.422 64.2904L495.544 81.0888L497.422 82.6353V85.6108H492.794L490.952 93.4413H484.549Z" fill="#352F34"/>
<path fill-rule="evenodd" clip-rule="evenodd" d="M478.124 48.3394L481.504 47.7057L483.124 48.3394L485.914 59.9006L487.242 59.2342L483.124 46.5356L482.121 45.6655L478.913 46.5356L478.124 48.3394Z" fill="#4F4F4F"/>
<path fill-rule="evenodd" clip-rule="evenodd" d="M486.397 72.4004L484.549 73.9852L488.123 81.6921L489.476 83.9515V87.2608L488.123 93.4414L490.842 92.3347L491.36 85.3932V82.9209L488.123 75.6749L486.397 72.4004Z" fill="#4F4F4F"/>
<path fill-rule="evenodd" clip-rule="evenodd" d="M556.804 162.184L560.537 77.0853V61.7931L564.317 59.9009H569.307L570.581 61.7931V67.1439L569.307 68.461L565.915 164.517L560.537 166.406L556.804 164.517V162.184Z" fill="#2B292E"/>
<path fill-rule="evenodd" clip-rule="evenodd" d="M567.045 61.7931L565.402 74.0656L560.975 160.776L556.804 162.184L561.924 66.6081L560.975 61.7931L567.045 59.9009V61.7931Z" fill="#534F50"/>
<path fill-rule="evenodd" clip-rule="evenodd" d="M561.849 65.8802H563.693H565.402L567.099 66.16H568.701L569.829 66.8939L569.317 67.3362L568.097 66.8939L566.349 66.8122H564.398L562.35 66.8939L560.976 67.3362V65.8802H561.849Z" fill="#3B3839"/>
<path fill-rule="evenodd" clip-rule="evenodd" d="M558.907 163.456L557.681 197.855H561.925L562.822 163.456H558.907Z" fill="#807B72"/>
<path fill-rule="evenodd" clip-rule="evenodd" d="M558.907 163.456H561.017L559.962 197.855H557.681L558.907 163.456Z" fill="#A09A90"/>
<path fill-rule="evenodd" clip-rule="evenodd" d="M557.681 191.922H561.804V190.83H557.681V191.922Z" fill="#2B292E"/>
<path fill-rule="evenodd" clip-rule="evenodd" d="M556.519 197.855L555.049 199.781L554.505 202.383L555.926 204.603L558.006 205.401L560.71 204.603L562.479 202.773L562.822 199.781L562.479 197.855L562.071 195.528V194.452H557.681L556.519 197.855Z" fill="#140C0A"/>
<path fill-rule="evenodd" clip-rule="evenodd" d="M556.365 199.926L557.256 198.588L559.349 197.855H561.018L561.804 198.891L562.082 199.464L561.804 200.984L561.018 202.887L560.251 203.802H558.29H557.256L556.365 202.887L555.911 201.593L556.365 199.926Z" fill="#2F211E"/>
<path fill-rule="evenodd" clip-rule="evenodd" d="M737.882 116.979V137.02L746.162 145.301L748.798 158.306L747.792 184.436L755.401 188.112L764.707 190.127L792.86 192.792H805.65L803.225 140.726L801.335 130.974L766.842 120.202L737.882 116.979Z" fill="#BC873B"/>
<path fill-rule="evenodd" clip-rule="evenodd" d="M737.882 116.979V124.646L765.975 128.34L803.225 140.726L801.335 130.974L765.975 120.202L737.882 116.979Z" fill="#D49B4F"/>
<path fill-rule="evenodd" clip-rule="evenodd" d="M743.266 124.593L741.779 125.646L741.779 127.186L743.266 127.984L744.546 127.186L745.086 125.646L743.266 124.593Z" fill="#392F23"/>
<path fill-rule="evenodd" clip-rule="evenodd" d="M742.573 135.29L741.087 136.343L741.087 137.882L742.573 138.68L743.854 137.882L744.394 136.343L742.573 135.29Z" fill="#392F23"/>
<path fill-rule="evenodd" clip-rule="evenodd" d="M779.132 171.848L777.646 172.901L777.646 174.44L779.132 175.239L780.412 174.44L780.952 172.901L779.132 171.848Z" fill="#392F23"/>
<path fill-rule="evenodd" clip-rule="evenodd" d="M800.734 168.524L799.248 169.577L799.248 171.117L800.734 171.915L802.015 171.117L802.555 169.577L800.734 168.524Z" fill="#392F23"/>
<path fill-rule="evenodd" clip-rule="evenodd" d="M802.555 136.024H806.699L810.432 132.627L811.258 122.628L812.898 121.064H818.991L819.947 124.371L823.463 121.064L826.397 120.202L832.319 118.739H834.606L835.694 193.963L832.655 190.068L823.231 184.049L818.989 182.983L811.532 181.039L804.064 180.589L803.225 140.726L802.555 136.024Z" fill="#B88942"/>
<path fill-rule="evenodd" clip-rule="evenodd" d="M817.125 132.703L819.708 182.118L817.47 180.966L815.867 132.703H817.125Z" fill="#835A1B"/>
<path fill-rule="evenodd" clip-rule="evenodd" d="M831.828 121.995L832.903 188.044L830.469 186.643L829.725 121.995H831.828Z" fill="#815F23"/>
<path fill-rule="evenodd" clip-rule="evenodd" d="M803.226 136.954H805.65V158.276H804.438L803.793 141.237L803.226 136.954Z" fill="#46320E"/>
<path fill-rule="evenodd" clip-rule="evenodd" d="M807.618 138.778H808.933L811.894 178.761L807.821 177.911L807.618 138.778Z" fill="#7D5C30"/>
<path fill-rule="evenodd" clip-rule="evenodd" d="M807.619 151.955H811.286V154.886H807.02V151.955H807.619Z" fill="#B38B58"/>
<path fill-rule="evenodd" clip-rule="evenodd" d="M807.619 160.263H811.286V163.194H807.02V160.263H807.619Z" fill="#C69962"/>
<path fill-rule="evenodd" clip-rule="evenodd" d="M805.65 136.953H807.619V138.778L813.939 132.703H817.615L829.725 121.995L834.606 121.057V118.739H832.32L823.463 121.057L819.851 124.493L819.363 128.758L813.939 131.912L809.153 132.703L805.65 136.953Z" fill="#CBA97C"/>
<path fill-rule="evenodd" clip-rule="evenodd" d="M816.489 121.312H818.844L819.85 124.493L819.363 128.853L816.489 130.221V121.312Z" fill="#A57730"/>
<path fill-rule="evenodd" clip-rule="evenodd" d="M612.714 193.411L619.796 166.354H625.728L617.56 194.287L612.714 193.411Z" fill="#BD9976"/>
<path fill-rule="evenodd" clip-rule="evenodd" d="M626.168 167.033H629.949L623.116 194.287H618.684L626.168 167.033Z" fill="#BD9976"/>
<path fill-rule="evenodd" clip-rule="evenodd" d="M622.252 153.058L618.349 163.04V167.023L629.949 167.914V164.836L628.537 153.058H622.252Z" fill="#B68128"/>
<path fill-rule="evenodd" clip-rule="evenodd" d="M599.187 229.857L598.405 233.696L600.469 236.851L601.751 239.249V243.35L610.604 242.115L611.029 239.824L612.714 238.264L615.275 235.986L616.857 235.176L617.676 229.857H615.275V225.507L611.029 224.828V227.861H608.041L607.181 224.828H603.023V227.861L599.187 229.857Z" fill="#B48B43"/>
<path fill-rule="evenodd" clip-rule="evenodd" d="M610.604 238.598V233.952L611.804 232.096L615.99 231.508V235.053H613.943L612.714 236.628L610.604 238.598Z" fill="#442C10"/>
<path fill-rule="evenodd" clip-rule="evenodd" d="M599.142 230.368L611.441 231.639L610.604 232.91L599.142 231.639V230.368Z" fill="#E2B176"/>
<path fill-rule="evenodd" clip-rule="evenodd" d="M622.897 167.493H625.267L617.56 194.287H615.597L622.897 167.493Z" fill="#A37E5C"/>
<path fill-rule="evenodd" clip-rule="evenodd" d="M627.805 167.914H629.696L623.285 193.793L621.463 194.287L627.805 167.914Z" fill="#A37E5C"/>
<path fill-rule="evenodd" clip-rule="evenodd" d="M633.127 183.348L631.08 185.297V187.665V189.777L633.127 192.792H668.644L669.697 187.665V184.541L667.676 183.348L666.1 182.56L633.127 183.348Z" fill="#A55045"/>
<path fill-rule="evenodd" clip-rule="evenodd" d="M631.08 188.692L669.697 187.676L668.768 192.053L668.644 192.792H633.127L631.08 190.907L631.08 188.692Z" fill="#6B3D39"/>
<path fill-rule="evenodd" clip-rule="evenodd" d="M668.645 192.792L686.108 195.914L697.283 199.863L706.444 205.191L719.868 209.597L730.316 209.786L737.883 210.428L738.369 205.587L741.881 202.147L745.615 198.435L749.624 194.239L738.765 196.576L732.893 197.179L726.635 195.914L720.866 194.239L712.995 192.792L707.571 191.001L702.307 187.676L693.171 185.68L691.885 185.399H684.1L681.344 183.635L678.099 185.399H672.207H669.788L668.645 192.792Z" fill="#323131"/>
<path fill-rule="evenodd" clip-rule="evenodd" d="M684.391 188.333H692.767L698.709 190.234L705.24 193.419L709.664 197.478L718.179 199.827L727.273 202.147H731.965L741.443 200.779L744.606 199.827L741.443 203.223L732.802 204.479H727.273L716.326 201.455L709.134 198.756L702.227 193.419L695.58 190.234L686.542 189.777L684.391 188.333Z" fill="#212121"/>
<path fill-rule="evenodd" clip-rule="evenodd" d="M676.694 188.333L690.624 188.062L693.737 188.333L697.046 189.126L700.484 189.777L704.336 192.024L708.842 194.965L712.479 197.031L716.911 198.349L722.516 199.827L728.814 200.779L736.73 200.366L746.59 198.349V197.439L740.5 199.078L734.131 199.827H728.814L721.703 198.756L715.523 197.031L709.664 194.08L704.336 191.01L700.484 188.333L693.737 187.377L680.65 187.676L676.694 188.333Z" fill="#4A4A4A"/>
<path fill-rule="evenodd" clip-rule="evenodd" d="M672.957 192.745L686.886 192.473L690 192.745L693.308 193.538L696.747 194.188L700.599 196.435L705.105 199.376L708.742 201.443L713.174 202.761L718.581 205.011L724.446 207.145L730.316 207.769L741.444 208.056V207.145L736.225 207.372L729.925 206.982L724.446 206.192L717.768 203.94L711.785 201.443L705.926 198.491L700.599 195.421L696.747 192.745L690 191.788L676.913 192.087L672.957 192.745Z" fill="#4A4A4A"/>
<path fill-rule="evenodd" clip-rule="evenodd" d="M294.699 174.342L323.46 172.037V103.18L320.948 90.8201L308.022 83.6831L144.565 103.479L85.3226 110.654L81.3779 116.285L79.2041 126.946L83.0397 130.206L80.3086 130.304L79.2041 135.744H83.0397L82.0292 140.164L294.699 174.342Z" fill="#393838"/>
<path fill-rule="evenodd" clip-rule="evenodd" d="M84.8543 127.128L83.0397 123.668L85.3226 117.961L205.391 98.9228L304.318 94.4211L309.202 85.6934L208.94 94.4211L85.3226 111.471L81.3779 114.769L79.2041 122.201L82.2088 127.128H84.8543Z" fill="#666466"/>
<path fill-rule="evenodd" clip-rule="evenodd" d="M301.928 170.384L304.318 94.4211L309.202 85.6934L311.866 87.3008V168.724L301.928 170.384Z" fill="#0A0A0B"/>
<path fill-rule="evenodd" clip-rule="evenodd" d="M116.915 108.085V106.411V105.086L154.187 98.7828L156.022 99.8781L157.447 100.781L157.987 103.434L160.226 102.124L159.29 99.8781L156.022 97.2317H154.187L116.915 102.658L114.556 104.559V106.411V108.085H116.915Z" fill="#292828"/>
<path fill-rule="evenodd" clip-rule="evenodd" d="M215.678 94.4103L216.637 91.0847L218.603 90.2451L275.271 88.4752H276.659L277.229 90.2451L278.412 92.042L279.72 91.4428V89.3584L278.412 87.0073L276.659 86.4043L218.067 87.8191L215.678 88.4752L214.589 90.2451L213.83 92.042V93.9013V95.236H215.27L215.678 94.4103Z" fill="#222222"/>
<path fill-rule="evenodd" clip-rule="evenodd" d="M293.128 173.289V168.481H296.268V156.892H293.128L294.698 126.946H296.268V119.266H294.698V103.18L289.991 100.781L211.083 103.18L85.2173 122.253L79.0388 156.892L66.1978 134.239H58.7707L55.291 137.035L71.5265 168.481L79.0388 172.037L76.678 186.631L94.3408 210.838H125.091L146.98 186.631L159.688 177.461L178.976 173.289L198.188 177.461L216.619 186.631L224.221 192.624L237.477 207.404L246.917 218.632L277.47 210.838L293.128 207.404V186.631V173.289Z" fill="#BF8539"/>
<path fill-rule="evenodd" clip-rule="evenodd" d="M212.378 183.686L275.271 182.852V181.791L212.378 182.738L210.517 104.168H208.939L211.448 183.686H212.378Z" fill="#5C2F00"/>
<path fill-rule="evenodd" clip-rule="evenodd" d="M238.973 207.978H250.883V206.953H237.734L238.973 207.978Z" fill="#632D00"/>
<path fill-rule="evenodd" clip-rule="evenodd" d="M238.502 207.862H251.326L250.883 208.297H238.915L238.502 207.862Z" fill="#C99D52"/>
<path fill-rule="evenodd" clip-rule="evenodd" d="M211.448 183.686L275.271 182.852V183.686L212.383 184.426L211.448 183.686Z" fill="#D09C42"/>
<path fill-rule="evenodd" clip-rule="evenodd" d="M208.939 122.76H207.094V124.397V161.429L208.017 162.284H210.004V164.626H208.549H206.352L204.924 162.284L204.058 122.76L205.659 119.848H208.549L208.939 122.76Z" fill="#121212"/>
<path fill-rule="evenodd" clip-rule="evenodd" d="M198.188 177.461V167.554L199.243 166.865V155.797L198.188 154.195L197.633 128.349H198.438V116.285H197.633V126.99H196.598V154.195L198.438 155.797V166.14L197.633 167.554V177.461H198.188Z" fill="#4D2C11"/>
<path fill-rule="evenodd" clip-rule="evenodd" d="M196.597 115.918H197.92V105.39L196.597 105.712V115.918Z" fill="#632D00"/>
<path fill-rule="evenodd" clip-rule="evenodd" d="M126.456 131.653H124.809V169.321L125.633 171.152H127.665V174.342H124.809L122.815 171.811L121.955 169.321V132.401L122.815 129.375L124.81 128.497H126.456V131.653Z" fill="#121212"/>
<path fill-rule="evenodd" clip-rule="evenodd" d="M156.021 118.908V156.117H173.923V114.769L156.021 118.908Z" fill="#D4A76C"/>
<path fill-rule="evenodd" clip-rule="evenodd" d="M130.612 122.76L146.848 119.689V154.955H130.612V122.76Z" fill="#C79B64"/>
<path fill-rule="evenodd" clip-rule="evenodd" d="M157.446 119.848V154.955H172.914V116.285L157.446 119.848Z" fill="#63441D"/>
<path fill-rule="evenodd" clip-rule="evenodd" d="M131.521 123.325V154.149H145.095V153.301L146.058 152.143V121.026L131.521 123.325Z" fill="#684313"/>
<path fill-rule="evenodd" clip-rule="evenodd" d="M131.521 166.702V173.561H146.058V166.702H137.002H131.521Z" fill="#684313"/>
<path fill-rule="evenodd" clip-rule="evenodd" d="M131.521 188.955V181.344L132.385 179.43H146.058V182.384L131.521 188.955Z" fill="#684313"/>
<path fill-rule="evenodd" clip-rule="evenodd" d="M163.647 146.196V149.735H171.493V146.196H163.647Z" fill="#9D7F5F"/>
<path fill-rule="evenodd" clip-rule="evenodd" d="M163.647 146.195L164.218 145.28H171.493V146.195H163.647Z" fill="#AF9D8C"/>
<path fill-rule="evenodd" clip-rule="evenodd" d="M259.7 234.994L240.35 233.332L247.161 211.447L254.892 199.14L267.492 187.934L277.463 181.234L290.161 175.215L300.727 173.289L316.182 172.037L328.977 175.045L341.263 178.769L353.521 185.848L356.997 227.516L259.7 234.994Z" fill="black"/>
<path fill-rule="evenodd" clip-rule="evenodd" d="M240.35 233.332L250.073 211.628L258.136 199.76L271.671 189.192L282.973 181.558L295.742 177.461L308.022 175.045L318.315 175.757L332.897 178.46L341.263 181.558V179.572L333.962 177.461L318.315 173.289L308.022 173.289L293.233 175.045L279.477 181.234L269.03 187.76L256.734 197.727L250.073 208.518L244.944 218.625L240.35 233.332Z" fill="#414043"/>
<path fill-rule="evenodd" clip-rule="evenodd" d="M172.061 125.501L161.173 124.96V121.835H172.061V125.501Z" fill="#7C5833"/>
<path fill-rule="evenodd" clip-rule="evenodd" d="M193.035 118.834H195.531V117.088H192.339V117.961H193.035V118.834Z" fill="#4F3517"/>
<path fill-rule="evenodd" clip-rule="evenodd" d="M192.752 119.848H195.531V121.04H194.856V121.931H193.935L193.737 120.89H192.752V119.848Z" fill="#533410"/>
<path fill-rule="evenodd" clip-rule="evenodd" d="M193.611 156.624V158.135H195.535V156.624H193.611Z" fill="#583918"/>
<path fill-rule="evenodd" clip-rule="evenodd" d="M193.48 159.523V161.334H195.535V159.523H193.48Z" fill="#4F3315"/>
<path fill-rule="evenodd" clip-rule="evenodd" d="M201.273 131.481V133.747H203.191V131.481H201.273Z" fill="#452E11"/>
<path fill-rule="evenodd" clip-rule="evenodd" d="M201.637 148.071V150.337H203.555V148.071H201.637Z" fill="#452E11"/>
<path fill-rule="evenodd" clip-rule="evenodd" d="M214.719 139.978V142.245H216.637V139.978H214.719Z" fill="#452E11"/>
<path fill-rule="evenodd" clip-rule="evenodd" d="M214.719 147.612V149.878H216.637V147.612H214.719Z" fill="#452E11"/>
<path fill-rule="evenodd" clip-rule="evenodd" d="M201.678 164.451V166.718H203.596V164.451H201.678Z" fill="#452E11"/>
<path fill-rule="evenodd" clip-rule="evenodd" d="M201.023 115.349V117.615H202.941V115.349H201.023Z" fill="#452E11"/>
<path fill-rule="evenodd" clip-rule="evenodd" d="M221.549 142.964H219.182L218.667 143.656V145.529H221.549V146.989H218.667L217.698 145.759V143.212L218.399 142.237H221.549V142.964Z" fill="#4C4132"/>
<path fill-rule="evenodd" clip-rule="evenodd" d="M129.787 177.461V115.918H128.726V177.461H129.787Z" fill="#5D3E10"/>
<path fill-rule="evenodd" clip-rule="evenodd" d="M117.494 200.786H115.474L115.148 126.902H121.955V126.271L114.556 126.271L114.887 201.376H117.144L117.494 200.786Z" fill="#573608"/>
<path fill-rule="evenodd" clip-rule="evenodd" d="M288.367 175.045L243.36 132.614H290.161V100.781L294.699 103.18L291.862 173.398L288.367 175.045Z" fill="#D1A061"/>
<path fill-rule="evenodd" clip-rule="evenodd" d="M231.464 133.747L243.36 132.614L219.623 110.654V120.89L231.464 133.747Z" fill="#AB4D2F"/>
<path fill-rule="evenodd" clip-rule="evenodd" d="M219.623 110.654L243.36 133.122L290.16 132.614V101.719L219.623 104.168V110.654Z" fill="#393A3B"/>
<path fill-rule="evenodd" clip-rule="evenodd" d="M210.917 103.812L219.623 110.654V103.812H210.917Z" fill="#D99F55"/>
<path fill-rule="evenodd" clip-rule="evenodd" d="M90.3735 126.271V127.984H91.9777V126.271H90.3735Z" fill="#4B3215"/>
<path fill-rule="evenodd" clip-rule="evenodd" d="M96.3686 126.271V127.984H97.9728V126.271H96.3686Z" fill="#4B3215"/>
<path fill-rule="evenodd" clip-rule="evenodd" d="M103.009 130.304V132.018H104.613V130.304H103.009Z" fill="#4B3215"/>
<path fill-rule="evenodd" clip-rule="evenodd" d="M108.741 134.887V136.6H110.345V134.887H108.741Z" fill="#4B3215"/>
<path fill-rule="evenodd" clip-rule="evenodd" d="M108.77 150.471V152.184H110.374V150.471H108.77Z" fill="#4B3215"/>
<path fill-rule="evenodd" clip-rule="evenodd" d="M108.798 166.057V167.771H110.402V166.057H108.798Z" fill="#4B3215"/>
<path fill-rule="evenodd" clip-rule="evenodd" d="M108.854 181.234V182.947H110.458V181.234H108.854Z" fill="#4B3215"/>
<path fill-rule="evenodd" clip-rule="evenodd" d="M81.4067 190.127V191.84H83.0109V190.127H81.4067Z" fill="#4B3215"/>
<path fill-rule="evenodd" clip-rule="evenodd" d="M91.3774 203.421V205.134H92.9816V203.421H91.3774Z" fill="#4B3215"/>
<path fill-rule="evenodd" clip-rule="evenodd" d="M79.7104 182.091H77.5488V184.817H81.3778L82.2087 183.454H85.3225V140.888H79.7104V182.091Z" fill="#262626"/>
<path fill-rule="evenodd" clip-rule="evenodd" d="M79.2041 144.966H84.8543V152.184H79.2041" fill="#CBC88F"/>
<path fill-rule="evenodd" clip-rule="evenodd" d="M143.488 185.755L133.718 191.84L124.81 203.421L114.555 218.632L110.486 237.406V255.182L118.255 272.911L131.521 290.073L146.057 298.565L167.57 301.363H194.507L208.939 295.719L226.396 281.931L236.77 255.182V229.504L228.725 208.91L210.916 190.45L196.597 182.808L173.923 181.234L156.022 182.091L143.488 185.755Z" fill="#272320"/>
<path fill-rule="evenodd" clip-rule="evenodd" d="M170.28 293.155C197.354 293.155 219.301 271.207 219.301 244.133C219.301 217.06 197.354 195.112 170.28 195.112C143.206 195.112 121.259 217.06 121.259 244.133C121.259 271.207 143.206 293.155 170.28 293.155Z" fill="#2F2E31"/>
<path fill-rule="evenodd" clip-rule="evenodd" d="M170.796 294.816C198.788 294.816 221.479 272.125 221.479 244.133C221.479 216.142 198.788 193.45 170.796 193.45C142.805 193.45 120.113 216.142 120.113 244.133C120.113 272.125 142.805 294.816 170.796 294.816Z" fill="#1D1C1F"/>
<path fill-rule="evenodd" clip-rule="evenodd" d="M170.28 293.155C197.354 293.155 219.301 271.207 219.301 244.133C219.301 217.06 197.354 195.112 170.28 195.112C143.206 195.112 121.259 217.06 121.259 244.133C121.259 271.207 143.206 293.155 170.28 293.155Z" fill="#2F2E31"/>
<path fill-rule="evenodd" clip-rule="evenodd" d="M170.281 286.508C193.683 286.508 212.655 267.536 212.655 244.133C212.655 220.731 193.683 201.759 170.281 201.759C146.878 201.759 127.906 220.731 127.906 244.133C127.906 267.536 146.878 286.508 170.281 286.508Z" fill="#100605"/>
<path fill-rule="evenodd" clip-rule="evenodd" d="M168.618 276.537C185.597 276.537 199.36 262.774 199.36 245.795C199.36 228.817 185.597 215.053 168.618 215.053C151.64 215.053 137.876 228.817 137.876 245.795C137.876 262.774 151.64 276.537 168.618 276.537Z" fill="#B38143"/>
<path fill-rule="evenodd" clip-rule="evenodd" d="M168.618 273.214C183.761 273.214 196.037 260.938 196.037 245.795C196.037 230.652 183.761 218.376 168.618 218.376C153.475 218.376 141.199 230.652 141.199 245.795C141.199 260.938 153.475 273.214 168.618 273.214Z" fill="#D29E5E"/>
<path fill-rule="evenodd" clip-rule="evenodd" d="M170.28 269.89C183.587 269.89 194.375 259.102 194.375 245.795C194.375 232.487 183.587 221.7 170.28 221.7C156.972 221.7 146.185 232.487 146.185 245.795C146.185 259.102 156.972 269.89 170.28 269.89Z" fill="#9F763A"/>
<path fill-rule="evenodd" clip-rule="evenodd" d="M172.773 261.581C181.95 261.581 189.39 254.142 189.39 244.964C189.39 235.787 181.95 228.347 172.773 228.347C163.595 228.347 156.155 235.787 156.155 244.964C156.155 254.142 163.595 261.581 172.773 261.581Z" fill="#C79753"/>
<path fill-rule="evenodd" clip-rule="evenodd" d="M172.773 256.596C179.197 256.596 184.405 251.388 184.405 244.964C184.405 238.54 179.197 233.332 172.773 233.332C166.349 233.332 161.141 238.54 161.141 244.964C161.141 251.388 166.349 256.596 172.773 256.596Z" fill="#9A7A4E"/>
<path fill-rule="evenodd" clip-rule="evenodd" d="M172.772 254.934C178.279 254.934 182.743 250.471 182.743 244.964C182.743 239.458 178.279 234.994 172.772 234.994C167.266 234.994 162.802 239.458 162.802 244.964C162.802 250.471 167.266 254.934 172.772 254.934Z" fill="#C79753"/>
<path fill-rule="evenodd" clip-rule="evenodd" d="M172.989 254.104C178.037 254.104 182.129 250.012 182.129 244.964C182.129 239.917 178.037 235.825 172.989 235.825C167.942 235.825 163.85 239.917 163.85 244.964C163.85 250.012 167.942 254.104 172.989 254.104Z" fill="#A98555"/>
<path fill-rule="evenodd" clip-rule="evenodd" d="M219.302 274.152L224.596 268.743L227.844 274.152L228.765 277.503L224.596 282.02L219.302 274.152Z" fill="#463C34"/>
<path fill-rule="evenodd" clip-rule="evenodd" d="M224.831 263.306L226.548 256.596L232.259 265.267L230.445 269.89L224.831 263.306Z" fill="#463C34"/>
<path fill-rule="evenodd" clip-rule="evenodd" d="M219.302 273.8L224.677 268.743L228.546 276.537L224.677 282.02L219.302 273.8Z" fill="#463C34"/>
<path fill-rule="evenodd" clip-rule="evenodd" d="M212.654 282.778L218.03 277.721L222.166 284.817L217.276 288.352L212.654 282.778Z" fill="#463C34"/>
<path fill-rule="evenodd" clip-rule="evenodd" d="M227.61 253.335L229.327 246.626L233.746 250.448L236.77 255.183L233.746 262.339L231.016 256.596L227.61 253.335Z" fill="#463C34"/>
<path fill-rule="evenodd" clip-rule="evenodd" d="M227.61 241.703L225.48 234.045L233.746 238.815L236.77 243.55V251.439L231.015 244.964L227.61 241.703Z" fill="#4D433A"/>
<path fill-rule="evenodd" clip-rule="evenodd" d="M223.924 230.351H225.481L231.126 233.332L227.61 223.657L222.166 221.7L219.302 223.657L223.924 230.351Z" fill="#2C2727"/>
<path fill-rule="evenodd" clip-rule="evenodd" d="M215.534 214.36L217.497 213.109L220.658 213.109L223.699 218.764H220.658L219.301 220.286L215.534 214.36Z" fill="#2C2727"/>
<path fill-rule="evenodd" clip-rule="evenodd" d="M182.128 192.128V188.955L191.811 187.76L189.39 189.944V195.112L182.128 192.128Z" fill="#3A3535"/>
<path fill-rule="evenodd" clip-rule="evenodd" d="M205.898 196.133H202.636L201.677 201.759L205.898 205.471L207.031 200.802H210.004L205.898 196.133Z" fill="#3B3333"/>
<path fill-rule="evenodd" clip-rule="evenodd" d="M283.074 184.093L273.304 190.178L264.395 201.759L254.141 216.971L250.072 235.744V253.521L257.841 271.25L271.107 288.411L285.643 296.903L307.156 299.701H334.093L348.525 294.057L365.982 280.27L376.356 253.521V227.842L368.311 207.249L350.502 188.788L336.183 181.146L313.509 179.572L295.607 180.429L283.074 184.093Z" fill="#272320"/>
<path fill-rule="evenodd" clip-rule="evenodd" d="M309.866 291.493C336.94 291.493 358.887 269.545 358.887 242.471C358.887 215.398 336.94 193.45 309.866 193.45C282.792 193.45 260.845 215.398 260.845 242.471C260.845 269.545 282.792 291.493 309.866 291.493Z" fill="#2F2E31"/>
<path fill-rule="evenodd" clip-rule="evenodd" d="M310.382 293.154C338.374 293.154 361.065 270.463 361.065 242.471C361.065 214.48 338.374 191.788 310.382 191.788C282.391 191.788 259.699 214.48 259.699 242.471C259.699 270.463 282.391 293.154 310.382 293.154Z" fill="#1D1C1F"/>
<path fill-rule="evenodd" clip-rule="evenodd" d="M309.866 291.493C336.94 291.493 358.887 269.545 358.887 242.471C358.887 215.398 336.94 193.45 309.866 193.45C282.792 193.45 260.845 215.398 260.845 242.471C260.845 269.545 282.792 291.493 309.866 291.493Z" fill="#2F2E31"/>
<path fill-rule="evenodd" clip-rule="evenodd" d="M309.866 284.846C333.269 284.846 352.241 265.874 352.241 242.471C352.241 219.069 333.269 200.097 309.866 200.097C286.464 200.097 267.492 219.069 267.492 242.471C267.492 265.874 286.464 284.846 309.866 284.846Z" fill="#100605"/>
<path fill-rule="evenodd" clip-rule="evenodd" d="M308.204 274.875C325.182 274.875 338.946 261.112 338.946 244.133C338.946 227.155 325.182 213.391 308.204 213.391C291.226 213.391 277.462 227.155 277.462 244.133C277.462 261.112 291.226 274.875 308.204 274.875Z" fill="#B38143"/>
<path fill-rule="evenodd" clip-rule="evenodd" d="M308.204 271.552C323.347 271.552 335.622 259.276 335.622 244.133C335.622 228.99 323.347 216.715 308.204 216.715C293.061 216.715 280.785 228.99 280.785 244.133C280.785 259.276 293.061 271.552 308.204 271.552Z" fill="#D29E5E"/>
<path fill-rule="evenodd" clip-rule="evenodd" d="M309.866 268.228C323.173 268.228 333.961 257.441 333.961 244.133C333.961 230.826 323.173 220.038 309.866 220.038C296.558 220.038 285.771 230.826 285.771 244.133C285.771 257.441 296.558 268.228 309.866 268.228Z" fill="#9F763A"/>
<path fill-rule="evenodd" clip-rule="evenodd" d="M312.359 259.92C321.536 259.92 328.976 252.48 328.976 243.302C328.976 234.125 321.536 226.685 312.359 226.685C303.181 226.685 295.741 234.125 295.741 243.302C295.741 252.48 303.181 259.92 312.359 259.92Z" fill="#C79753"/>
<path fill-rule="evenodd" clip-rule="evenodd" d="M312.359 254.934C318.783 254.934 323.991 249.727 323.991 243.302C323.991 236.878 318.783 231.67 312.359 231.67C305.934 231.67 300.727 236.878 300.727 243.302C300.727 249.727 305.934 254.934 312.359 254.934Z" fill="#9A7A4E"/>
<path fill-rule="evenodd" clip-rule="evenodd" d="M312.358 253.273C317.865 253.273 322.329 248.809 322.329 243.302C322.329 237.796 317.865 233.332 312.358 233.332C306.852 233.332 302.388 237.796 302.388 243.302C302.388 248.809 306.852 253.273 312.358 253.273Z" fill="#C79753"/>
<path fill-rule="evenodd" clip-rule="evenodd" d="M312.575 252.442C317.623 252.442 321.715 248.35 321.715 243.302C321.715 238.255 317.623 234.163 312.575 234.163C307.527 234.163 303.436 238.255 303.436 243.302C303.436 248.35 307.527 252.442 312.575 252.442Z" fill="#A98555"/>
<path fill-rule="evenodd" clip-rule="evenodd" d="M358.888 272.49L364.182 267.081L367.43 272.49L368.351 275.842L364.182 280.358L358.888 272.49Z" fill="#463C34"/>
<path fill-rule="evenodd" clip-rule="evenodd" d="M364.417 261.644L366.133 254.934L371.845 263.605L370.03 268.228L364.417 261.644Z" fill="#463C34"/>
<path fill-rule="evenodd" clip-rule="evenodd" d="M358.888 272.138L364.263 267.081L368.132 274.875L364.263 280.358L358.888 272.138Z" fill="#463C34"/>
<path fill-rule="evenodd" clip-rule="evenodd" d="M352.24 281.116L357.616 276.059L361.752 283.155L356.862 286.69L352.24 281.116Z" fill="#463C34"/>
<path fill-rule="evenodd" clip-rule="evenodd" d="M367.196 251.673L368.913 244.964L373.332 248.786L376.356 253.521L373.332 260.677L370.602 254.935L367.196 251.673Z" fill="#463C34"/>
<path fill-rule="evenodd" clip-rule="evenodd" d="M367.196 240.041L365.066 232.383L373.332 237.154L376.356 241.888V249.777L370.601 243.302L367.196 240.041Z" fill="#4D433A"/>
<path fill-rule="evenodd" clip-rule="evenodd" d="M363.51 228.69H365.067L370.711 231.67L367.196 221.995L361.752 220.038L358.888 221.995L363.51 228.69Z" fill="#2C2727"/>
<path fill-rule="evenodd" clip-rule="evenodd" d="M355.12 212.698L357.083 211.447L360.244 211.447L363.285 217.102H360.244L358.887 218.625L355.12 212.698Z" fill="#2C2727"/>
<path fill-rule="evenodd" clip-rule="evenodd" d="M321.714 190.466V187.294L331.396 186.098L328.976 188.282V193.45L321.714 190.466Z" fill="#3A3535"/>
<path fill-rule="evenodd" clip-rule="evenodd" d="M345.484 194.471H342.222L341.263 200.097L345.484 203.809L346.617 199.14H349.59L345.484 194.471Z" fill="#3B3333"/>
<path fill-rule="evenodd" clip-rule="evenodd" d="M822.604 183.431L832.374 189.517L841.283 201.097L851.538 216.309L855.606 235.083V252.859L847.838 270.588L834.572 287.75L820.036 296.241L798.523 299.039H771.586L757.154 293.395L739.697 279.608L729.323 252.859V227.181L737.368 206.587L755.177 188.127L769.495 180.485L792.17 178.91L810.071 179.767L822.604 183.431Z" fill="#272320"/>
<path fill-rule="evenodd" clip-rule="evenodd" d="M795.813 290.831C768.739 290.831 746.792 268.883 746.792 241.81C746.792 214.736 768.739 192.789 795.813 192.789C822.886 192.789 844.834 214.736 844.834 241.81C844.834 268.883 822.886 290.831 795.813 290.831Z" fill="#2F2E31"/>
<path fill-rule="evenodd" clip-rule="evenodd" d="M795.297 292.493C767.305 292.493 744.614 269.801 744.614 241.81C744.614 213.818 767.305 191.127 795.297 191.127C823.288 191.127 845.979 213.818 845.979 241.81C845.979 269.801 823.288 292.493 795.297 292.493Z" fill="#1D1C1F"/>
<path fill-rule="evenodd" clip-rule="evenodd" d="M795.813 290.831C768.739 290.831 746.792 268.883 746.792 241.81C746.792 214.736 768.739 192.789 795.813 192.789C822.886 192.789 844.834 214.736 844.834 241.81C844.834 268.883 822.886 290.831 795.813 290.831Z" fill="#2F2E31"/>
<path fill-rule="evenodd" clip-rule="evenodd" d="M795.812 284.184C772.41 284.184 753.438 265.212 753.438 241.81C753.438 218.407 772.41 199.436 795.812 199.436C819.215 199.436 838.187 218.407 838.187 241.81C838.187 265.212 819.215 284.184 795.812 284.184Z" fill="#100605"/>
<path fill-rule="evenodd" clip-rule="evenodd" d="M797.475 274.214C780.496 274.214 766.733 260.45 766.733 243.472C766.733 226.493 780.496 212.729 797.475 212.729C814.453 212.729 828.217 226.493 828.217 243.472C828.217 260.45 814.453 274.214 797.475 274.214Z" fill="#B38143"/>
<path fill-rule="evenodd" clip-rule="evenodd" d="M797.475 270.89C782.332 270.89 770.056 258.615 770.056 243.472C770.056 228.329 782.332 216.053 797.475 216.053C812.618 216.053 824.894 228.329 824.894 243.472C824.894 258.615 812.618 270.89 797.475 270.89Z" fill="#D29E5E"/>
<path fill-rule="evenodd" clip-rule="evenodd" d="M799.136 268.445C785.829 268.445 774.282 256.779 774.282 243.471C774.282 230.164 785.829 217.725 799.136 217.725C812.444 217.725 823.231 230.164 823.231 243.471C823.231 256.779 812.444 268.445 799.136 268.445Z" fill="#9F763A"/>
<path fill-rule="evenodd" clip-rule="evenodd" d="M796.643 259.258C787.466 259.258 780.026 251.818 780.026 242.641C780.026 233.463 787.466 226.023 796.643 226.023C805.821 226.023 813.261 233.463 813.261 242.641C813.261 251.818 805.821 259.258 796.643 259.258Z" fill="#C79753"/>
<path fill-rule="evenodd" clip-rule="evenodd" d="M796.643 254.273C790.219 254.273 785.011 249.065 785.011 242.641C785.011 236.216 790.219 231.009 796.643 231.009C803.067 231.009 808.275 236.216 808.275 242.641C808.275 249.065 803.067 254.273 796.643 254.273Z" fill="#9A7A4E"/>
<path fill-rule="evenodd" clip-rule="evenodd" d="M796.644 252.611C791.137 252.611 786.673 248.147 786.673 242.641C786.673 237.134 791.137 232.67 796.644 232.67C802.15 232.67 806.614 237.134 806.614 242.641C806.614 248.147 802.15 252.611 796.644 252.611Z" fill="#C79753"/>
<path fill-rule="evenodd" clip-rule="evenodd" d="M796.428 251.78C791.38 251.78 787.288 247.688 787.288 242.641C787.288 237.593 791.38 233.501 796.428 233.501C801.475 233.501 805.567 237.593 805.567 242.641C805.567 247.688 801.475 251.78 796.428 251.78Z" fill="#A98555"/>
<path fill-rule="evenodd" clip-rule="evenodd" d="M746.791 271.828L741.496 266.42L738.249 271.828L737.328 275.18L741.496 279.696L746.791 271.828Z" fill="#463C34"/>
<path fill-rule="evenodd" clip-rule="evenodd" d="M741.262 260.982L739.545 254.273L733.834 262.943L735.648 267.567L741.262 260.982Z" fill="#463C34"/>
<path fill-rule="evenodd" clip-rule="evenodd" d="M746.791 271.477L741.415 266.42L737.547 274.214L741.415 279.696L746.791 271.477Z" fill="#463C34"/>
<path fill-rule="evenodd" clip-rule="evenodd" d="M753.438 280.454L748.063 275.397L743.927 282.493L748.816 286.029L753.438 280.454Z" fill="#463C34"/>
<path fill-rule="evenodd" clip-rule="evenodd" d="M738.482 251.012L736.766 244.302L732.347 248.124L729.322 252.859L732.347 260.015L735.077 254.273L738.482 251.012Z" fill="#463C34"/>
<path fill-rule="evenodd" clip-rule="evenodd" d="M738.483 239.38L740.612 231.721L732.347 236.492L729.323 241.227V249.115L735.077 242.641L738.483 239.38Z" fill="#4D433A"/>
<path fill-rule="evenodd" clip-rule="evenodd" d="M742.169 228.028H740.612L734.967 231.009L738.482 221.334L743.927 219.376L746.791 221.334L742.169 228.028Z" fill="#2C2727"/>
<path fill-rule="evenodd" clip-rule="evenodd" d="M750.559 212.037L748.596 210.786L745.435 210.786L742.394 216.441H745.435L746.791 217.963L750.559 212.037Z" fill="#2C2727"/>
<path fill-rule="evenodd" clip-rule="evenodd" d="M783.965 189.805V186.632L774.282 185.436L776.703 187.62V192.789L783.965 189.805Z" fill="#3A3535"/>
<path fill-rule="evenodd" clip-rule="evenodd" d="M760.195 193.81H763.457L764.416 199.436L760.195 203.147L759.062 198.478H756.089L760.195 193.81Z" fill="#3B3333"/>
<path opacity="0.937616" fill-rule="evenodd" clip-rule="evenodd" d="M424.21 277.544L421.986 281.621L418.707 299.701L602.514 273.937V268.665V263.218L605.291 256.273L608.04 251.958L614.107 248.771V245.154L451.658 254.923H444.037L433.809 263.47L424.21 277.544Z" fill="#4A4542"/>
<path opacity="0.964053" fill-rule="evenodd" clip-rule="evenodd" d="M518.638 251.513L444.037 256.273L445.56 250.074H478.417L499.984 247.901V246.229L501.816 246.074L512.692 245.154L510.14 240.086L508.12 241.014L505.911 238.681L499.984 241.999L493.677 242.792L487.743 241.999L480.963 240.086L482.514 236.327L484.826 234.674L492.506 230.578L501.72 229.034L519.725 227.724V232.173L516.693 234.674V237.759L518.638 241.999L523.833 240.086V238.681L528.503 236.327L525.011 234.674V227.724L567.552 225.507L564.106 229.034L559.742 231.369L555.91 234.674L552.102 240.086H555.952L557.972 236.327L562.177 235.053V236.327L565.559 237.759V241.014L564.833 242.792H568.859V244.454L611.44 242.116L614.107 245.154L518.638 251.513Z" fill="#442B1D"/>
</svg>
