<svg width="568" height="512" viewBox="0 0 568 512" fill="none" xmlns="http://www.w3.org/2000/svg">
<path fill-rule="evenodd" clip-rule="evenodd" d="M361.326 369.161L357.947 373.586V380.251V381.685L360.45 382.998H367.253V385.882V392.751L377.066 400.455L407.713 407.21L482.936 418.701L534.577 421.139L516.718 402.819L496.489 402.552L512.965 388.282L510.48 373.979L405.373 365.713L395.186 366.281L389.734 369.161L389.602 373.979L382.302 374.418L377.066 366.281L367.253 339.475L364.855 341.191L366.584 367.908L361.326 369.161Z" fill="#182123"/>
<path fill-rule="evenodd" clip-rule="evenodd" d="M368.168 371.26L365.691 373.98V377.092L366.253 380.251L368.168 381.685H371.182L372.625 380.251L373.443 375.52L372.625 372.72L371.182 371.26H368.168Z" fill="#3D3E3D"/>
<path fill-rule="evenodd" clip-rule="evenodd" d="M369.946 373.586L368.7 373.98L368.246 375.898L368.246 378.315L369.567 380.251L371.182 379.582L371.654 375.898L371.182 373.586H369.946Z" fill="#606160"/>
<path fill-rule="evenodd" clip-rule="evenodd" d="M371.183 385.882L372.609 383.393H397.672V384.637L371.183 385.882Z" fill="#625E5E"/>
<path fill-rule="evenodd" clip-rule="evenodd" d="M469.697 392.75L470.364 397.895H466.164L466.164 392.75H469.697Z" fill="#424650"/>
<path fill-rule="evenodd" clip-rule="evenodd" d="M458.585 396.776L461.272 395.323L464.476 394.537V396.776L462.466 397.157L460.95 398.691H458.585V396.776Z" fill="#414651"/>
<path fill-rule="evenodd" clip-rule="evenodd" d="M459.172 397.005V398.314H460.573V397.005H459.172Z" fill="#636976"/>
<path fill-rule="evenodd" clip-rule="evenodd" d="M479.795 416.065L472.881 416.591L456.896 419.718L448.768 443.324V455.15L453.648 482.793L456.336 488.55L461.861 490.127L466.414 490.266L515.661 464.818L550.248 411.706L544.692 406.713L537.615 405.275L527.86 400.852L511.325 402.552L494.561 411.099L479.795 416.065Z" fill="#141313"/>
<path fill-rule="evenodd" clip-rule="evenodd" d="M456.336 435.018L459.768 425.648L466.414 421.372L483.536 418.62L494.867 414.347L511.368 404.919L521.251 402.819L532.369 404.919L538.008 406.297L543.852 408.399H551.603H561.763L563.532 412.726H556.029V415.671H564.475L566.381 425.648H556.212L557.66 428.379H566.381L567.946 433.591V439.888H557.66L556.212 442.265H567.946V452.742H554.879V454.631H566.381L564.475 461.201L561.763 463.241L553.208 465.823L522.647 475.18H515.274L507.754 479.849L502.436 481.947H496.133L489.153 485.189L481.566 490.577H470.363L464.406 491.842V488.88L461.172 487.134L459.768 483.835L461.172 481.947L459.768 479.849L456.336 478.254V475.18V473.424V472.102L454.704 468.166L456.336 465.823V461.201L454.704 458.64L456.336 454.631L459.768 452.742V447.76L456.336 445.699V442.265L458.233 440.769L456.336 438.31V435.018Z" fill="#3D3B40"/>
<path fill-rule="evenodd" clip-rule="evenodd" d="M551.453 418.62H545.457L542.836 423.951V428.598V438.571V443.638L543.853 447.76L547.144 449.946L553.61 449.15L556.634 444.283L557.661 437.255V431.725L556.634 425.666L554.793 421.431L551.453 418.62Z" fill="#6D655F"/>
<path fill-rule="evenodd" clip-rule="evenodd" d="M551.453 418.62L548.287 424.557L547.718 429.927L548.287 437.255L548.935 444.283L553.209 449.156L547.144 449.946L543.853 447.76L542.836 444.283V438.571V429.927V423.951L545.457 418.62H551.453Z" fill="#2F2E30"/>
<path opacity="0.769485" fill-rule="evenodd" clip-rule="evenodd" d="M511.517 331.577L507.14 274.88L486.312 264.308L465.165 256.89L462.601 264.308L459.769 369.161L488.533 365.567L511.517 331.577Z" fill="#393D35"/>
<path fill-rule="evenodd" clip-rule="evenodd" d="M495.591 324.111L493.658 276.464L505.822 279.547L508.494 314.135L495.591 324.111Z" fill="#292E2A"/>
<path fill-rule="evenodd" clip-rule="evenodd" d="M496.488 280.586L497.411 318.877L505.465 313.026L503.273 283.447L496.488 280.586Z" fill="#82AAAB"/>
<path fill-rule="evenodd" clip-rule="evenodd" d="M467.729 286.288H471.473V294.888H467.729V286.288Z" fill="#77ABAC"/>
<path fill-rule="evenodd" clip-rule="evenodd" d="M472.929 297.911L473.591 286.288H478.436V312.312L476.6 308.964L474.636 308.373V299.3L472.929 297.911Z" fill="#77ABAC"/>
<path fill-rule="evenodd" clip-rule="evenodd" d="M481.845 307.415V286.288L487.893 285.465V307.415H481.845Z" fill="#77ABAC"/>
<path fill-rule="evenodd" clip-rule="evenodd" d="M481.845 312.312V310.841L489.007 310.057V312.312H481.845Z" fill="#77ABAC"/>
<path fill-rule="evenodd" clip-rule="evenodd" d="M473.851 360.883L471.473 337.586L472.662 324.111L491.54 326.865V346.289L481.506 360.883H473.851Z" fill="#223137"/>
<path fill-rule="evenodd" clip-rule="evenodd" d="M476.606 332.466L477.527 335.088L474.418 338.518V332.466H476.606Z" fill="#394E51"/>
<path fill-rule="evenodd" clip-rule="evenodd" d="M475.682 341.446L479.796 335.492L481.844 337.014V338.518H484.868V340.285L483.224 342.497H485.643V345.031L483.224 347.305H477.526L475.682 341.446Z" fill="#41545B"/>
<path fill-rule="evenodd" clip-rule="evenodd" d="M461.729 341.398L463.846 264.308L465.833 262.777L467.728 268.108L466.164 342.907L461.729 341.398Z" fill="#292E2A"/>
<path fill-rule="evenodd" clip-rule="evenodd" d="M465.833 314.135L491.54 318.877V323.171L484.869 322.182V324.949L465.833 323.171V314.135Z" fill="#282E2A"/>
<path fill-rule="evenodd" clip-rule="evenodd" d="M467.728 268.108H480.06L485.425 270.717L491.54 274.88L493.658 272.544L486.829 268.108L479.745 264.308L465.833 262.777L467.728 268.108Z" fill="#282E2A"/>
<path opacity="0.92127" fill-rule="evenodd" clip-rule="evenodd" d="M459.769 477.701H467.728L472.928 464.443L542.836 447.158V426.911L523.145 420.549L513.067 417.82L496.489 420.549L472.928 424.107H462.602L458.544 432.336L457.259 439.708L456.337 455.497V467.007L459.769 477.701Z" fill="#736B5F"/>
<path fill-rule="evenodd" clip-rule="evenodd" d="M506.959 411.706V423.091L509.833 420.938V411.706H506.959Z" fill="#978573"/>
<path fill-rule="evenodd" clip-rule="evenodd" d="M493.457 417.399V419.798L491.663 421.129L490.514 417.399L493.457 415.484V417.399Z" fill="#9A8571"/>
<path fill-rule="evenodd" clip-rule="evenodd" d="M474.355 488.355L486.644 485.448L496.133 481.947L502.679 477.701L509.832 475.593L520.29 472.137H530.109L538.009 468.166L550.248 464.712L557.661 461.201L542.836 458.64L536.399 461.201L526.378 462.553L520.29 464.712L509.832 468.166L504.126 472.137L494.867 473.497H486.644L479.462 477.701L471.791 480.203L466.415 481.947L462.602 485.448L466.415 488.355H474.355Z" fill="#685E5B"/>
<path fill-rule="evenodd" clip-rule="evenodd" d="M460.301 455.407L467.729 452.742V458.64L468.625 468.166L466.415 473.497H462.466L460.301 455.407Z" fill="#5A5754"/>
<path fill-rule="evenodd" clip-rule="evenodd" d="M106.472 141.83L128.62 156.921L222.769 189.641L274.987 211.534L309.669 236.855L336.965 264.308L370.696 308.964L398.747 373.586L426.946 359.751L389.734 300.287L364.855 262.777L340.054 236.855L322.147 220.579L299.807 203.793L266.616 189.641L214.165 170.645L151.101 148.366L141.733 141.83L95.8857 120.29L106.472 141.83Z" fill="#584634"/>
<path fill-rule="evenodd" clip-rule="evenodd" d="M151.101 148.366L132.257 138.175L109.721 126.47L95.8858 120.29L89.1465 101.135L127.608 104.745H135.794L151.101 109.46L324.091 165.89L341.12 178.083L356.545 191.892L401.44 269.433L420.255 300.287L426.946 360.883L367.253 265.885L328.42 228.17L305.109 208.121L285.452 197.861L261.416 187.729L167.873 154.727L151.101 148.366Z" fill="#C49F54"/>
<path fill-rule="evenodd" clip-rule="evenodd" d="M147.719 117.156L148.479 140.249L261.415 179.466L264.51 158.877L147.719 117.156Z" fill="#B68F40"/>
<path fill-rule="evenodd" clip-rule="evenodd" d="M148.479 110.69L323.649 168.333L336.522 176.624L339.692 179.327L354.97 193.832L400.241 272.343L405.373 283.193L403.12 284.172L398.48 274.88L352.731 193.832L338.098 181.023L323.649 170.915L149.583 113.098L148.479 110.69Z" fill="#593C22"/>
<path fill-rule="evenodd" clip-rule="evenodd" d="M271.43 186.616L272.325 177.724L274.067 173.635L289.82 179.355V181.919L289.265 183.648L286.061 192.488L271.43 186.616Z" fill="#4F4F4F"/>
<path fill-rule="evenodd" clip-rule="evenodd" d="M275.061 176.872L273.193 185.63L284.631 190.008L287.865 180.614L279.435 176.872H275.061Z" fill="#CBCBCB"/>
<path fill-rule="evenodd" clip-rule="evenodd" d="M275.061 176.872V182.566H277.768V181.326L279.966 181.867V183.44L282.331 184.183V182.566L285.836 184.718L286.764 182.566L282.331 180.795V177.768H279.966V180.795L277.768 179.94L276.926 176.872H275.061Z" fill="#3D3D3D"/>
<path fill-rule="evenodd" clip-rule="evenodd" d="M95.8858 110.69L100.41 115.855L104.181 113.273H109.886V107.196H113.859L115.779 110.69L111.969 115.855H115.779H117.628L125.301 118.505L123.799 120.29H120.865H117.628V123.621H120.865V126.768L123.799 129.522L125.301 125.134L131.084 120.29L141.16 123.621L145.487 126.768H141.16L135.634 125.134L131.084 123.621L129.617 125.134L131.084 126.768V130.938C131.084 130.938 131.733 128.105 129.617 129.522C127.5 130.938 129.617 133.894 129.617 133.894L135.634 135.765L139.068 129.522L141.16 130.938V133.894L139.068 135.765L143.438 137.61V140.348L141.16 141.539L125.301 133.894L108.503 126.768L95.8858 120.29L89.1465 101.135L109.886 103.683L107.047 107.196L100.41 103.683V107.196V110.69L95.8858 107.196V110.69Z" fill="#443A28"/>
<path fill-rule="evenodd" clip-rule="evenodd" d="M148.479 110.69L203.524 128.014L260.876 146.853L323.649 167.596L337.218 176.872L354.835 193.324L400.24 272.343L405.372 281.833L419.493 305.355L420.148 302.383L406.498 279.036L393.657 256.89L356.069 192.259L337.218 175.441L323.649 166.124L261.415 145.768L203.817 127.099L147.719 108.947L148.479 110.69Z" fill="#F1C977"/>
<path fill-rule="evenodd" clip-rule="evenodd" d="M401.692 365.713H459.768V307.415V259.889L408.53 264.308L405.372 268.828L400.24 326.865L401.692 365.713Z" fill="#3C453E"/>
<path fill-rule="evenodd" clip-rule="evenodd" d="M413.696 286.288L443.273 284.172H446.456V286.288L447.848 305.355H426.215L421.38 296.44L418.769 288.915L413.696 286.288Z" fill="#67ADAD"/>
<path fill-rule="evenodd" clip-rule="evenodd" d="M413.696 288.757V295.789H415.556L417.624 297.259V294.032L417.182 292.191L415.556 289.603L413.696 288.313V288.757Z" fill="#67ADAD"/>
<path fill-rule="evenodd" clip-rule="evenodd" d="M415.66 274.88V277.044L417.624 278.507V283.193L439.57 282.019V281.114L415.66 274.88Z" fill="#67ADAD"/>
<path fill-rule="evenodd" clip-rule="evenodd" d="M413.151 278.325V282.326L414.914 284.172L415.66 283.193V279.463L413.151 278.325Z" fill="#67ADAD"/>
<path fill-rule="evenodd" clip-rule="evenodd" d="M427.615 308.475H447.848V312.312L433.791 312.801V311.311L427.615 309.497V308.475Z" fill="#67ADAD"/>
<path fill-rule="evenodd" clip-rule="evenodd" d="M415.66 319.542L417.624 324.949L419.922 324.11L427.615 326.865V321.621L419.922 319.542H415.66Z" fill="#658383"/>
<path fill-rule="evenodd" clip-rule="evenodd" d="M423.789 333.717L426.735 341.446L430.004 350.875L432.182 360.883H433.518L430.772 348.682L428.653 340.507L426.735 333.717H423.789Z" fill="#466F6D"/>
<path fill-rule="evenodd" clip-rule="evenodd" d="M410.273 318.184H414.406L416.642 325.638L419.494 332.466H411.483H408.585L410.273 318.184Z" fill="#4F6E6D"/>
<path fill-rule="evenodd" clip-rule="evenodd" d="M413.151 364.303L410.991 362.551L406.903 356.652V335.492L409.261 302.842L413.151 279.036L415.659 268.829L445.843 265.885H458.543V261.54L413.151 265.885L409.261 272.19L406.903 300.287L404.121 335.492L403.119 364.303H413.151Z" fill="#282E2A"/>
<path fill-rule="evenodd" clip-rule="evenodd" d="M428.653 318.184L434.601 319.542L432.352 323.204H447.848L448.937 320.694H447.848L448.937 314.135L428.653 313.518V318.184Z" fill="#5D8483"/>
<path fill-rule="evenodd" clip-rule="evenodd" d="M448.937 364.303L455.543 359.751V338.518L452.24 336.841V333.717L455.543 332.466L456.401 270.539L452.669 265.885L453.07 262.777L464.856 259.889C464.856 259.889 462.626 263.804 462.601 264.308C462.203 272.42 462.033 286.545 461.557 306.852C461.322 316.858 460.558 341.398 460.558 341.398L458.543 365.567L448.937 364.303Z" fill="#1A2123"/>
<path fill-rule="evenodd" clip-rule="evenodd" d="M409.679 335.492H423.789V338.518L426.735 341.446L430.005 351.813L430.832 359.751H427.615L426.735 351.813L423.789 342.907L421.638 338.518H409.679V335.492Z" fill="#2F3832"/>
<path fill-rule="evenodd" clip-rule="evenodd" d="M157.871 458.208L190.076 459.761L154.52 375.116L110.536 284.172L81.1226 238.136L59.3174 246.938L82.43 299.54L122.532 382.525L157.871 458.208Z" fill="#222223"/>
<path fill-rule="evenodd" clip-rule="evenodd" d="M131.389 367.269L131.522 359.586L128.73 348.949L119.152 330.989L111.792 317.11L108.107 313.031L110.164 310.92L100.501 292.301L103.901 290.326L114.524 315.363L121.734 328.797L131.389 346.758L135.438 359.586V369.09L131.389 367.269Z" fill="#585757"/>
<path fill-rule="evenodd" clip-rule="evenodd" d="M97.8917 298.263L100.501 297.695L97.8917 292.003L101.643 288.889L100.501 286.499L95.8852 287.766L93.6734 284.959V282.785V278.568L95.4076 274.597H92.4526L89.9425 278.568L88.0225 285.837L91.0478 292.003H93.6734L97.8917 298.263Z" fill="#4A4949"/>
<path fill-rule="evenodd" clip-rule="evenodd" d="M94.0533 275.796L92.4521 281.204L92.4521 284.959L93.2527 287.069L95.4072 288.889L98.7723 287.069H100.501V285.837H98.1583L95.4072 287.069L94.0533 285.866V284.098V281.204L95.4072 275.796H94.0533Z" fill="#636161"/>
<path fill-rule="evenodd" clip-rule="evenodd" d="M157.871 421.36L175.506 457.503H176.888L160.521 423.09L157.871 421.36Z" fill="#66625D"/>
<path fill-rule="evenodd" clip-rule="evenodd" d="M162.718 425.244L178.954 458.438L181.118 457.503L165.567 426.489L162.718 425.244Z" fill="#4A4A4A"/>
<path fill-rule="evenodd" clip-rule="evenodd" d="M345.072 397.585L323.955 400.455L281.092 412.338L264.522 442.794L271.077 463.12L285.452 469.461L297.003 470.448L308.205 466.667L322.147 453.373L349.431 427.918L374.768 404.471L379.759 395.359L368.246 393.896L346.33 395.359L345.072 397.585Z" fill="#666462"/>
<path fill-rule="evenodd" clip-rule="evenodd" d="M335.734 405.163L327.953 406.828L325.451 408.491H321.626H318.008H314.524H310.207L308.608 410.667L306.247 408.491H302.056L299.989 409.82H297.595H293.116V410.667H290.639V413.592L288.643 415.55H287.573V418.476L285.451 420.353V422.379L283.6 423.519V426.036L282.179 427.926L283.6 431.142L282.179 434.729V438.923V441.99L281.092 444.455L282.179 446.354L283.6 449.737V452.708V455.565L285.451 457.59V459.704L286.564 462.363L289.819 467.573L291.48 468.685H297.595L301.272 466.688L307.426 467.573L313.329 466.688L318.008 464.757L319.904 465.619L327.076 464.757L331.86 462.363H343.276L351.098 459.704L359.725 457.59H364.225L368.451 455.565L373.337 454.704H379.233H383.332L386.604 453.717L389.733 452.742L400.24 444.869L407.713 423.971L446.389 415.006L453.74 402.819L456.401 397.895L460.3 391.512L434.007 392.751L409.678 397.895L393.041 392.751H373.337H364.225L357.695 395.961L351.098 400.607H346.544C346.544 400.607 343.032 400.476 340.892 402.819C338.751 405.163 335.734 405.163 335.734 405.163Z" fill="#222223"/>
<path fill-rule="evenodd" clip-rule="evenodd" d="M287.167 459.761L295.516 458.419H304.351L309.166 445.085L359.19 439.318L382.301 435.521V409.902L359.19 408.491L312.251 413.247L306.596 420.915L285.451 422.379V459.704L287.167 459.761Z" fill="#3C3A38"/>
<path fill-rule="evenodd" clip-rule="evenodd" d="M289.818 435.041L288.943 437.58L289.818 438.722L291.499 436.882L292.539 435.041L291.499 434.126H289.818V435.041Z" fill="#181817"/>
<path fill-rule="evenodd" clip-rule="evenodd" d="M297.003 451.537H299.424L302.553 453.373L303.968 451.537V446.161L305.108 440.247V434.126H302.553L301.056 436.424L302.553 437.801L303.968 440.247L301.056 441.219L298.092 440.247L297.003 438.722V451.537Z" fill="#3C352D"/>
<path fill-rule="evenodd" clip-rule="evenodd" d="M288.943 420.834L289.818 418.248L293.824 416.626H300.533L306.383 415.45V418.142L300.533 418.248V420.834L289.818 421.635L288.943 420.834Z" fill="#181817"/>
<path fill-rule="evenodd" clip-rule="evenodd" d="M292.028 413.922L301.056 413.251L308.205 412.432L307.212 411.014L305.109 409.616H301.58L299.477 411.014H294.915L293.966 411.769H291.409L292.028 413.922Z" fill="#181817"/>
<path fill-rule="evenodd" clip-rule="evenodd" d="M287.974 420.642L291.409 417.535L293.824 416.626H298.405L304.323 415.45H307.095L310.249 414.433V412.422L305.108 413.039L303.084 413.922H300.365L296.055 414.433L293.824 413.922L291.409 414.433L288.944 415.45L286.826 420.642H287.974Z" fill="#4D473F"/>
<path fill-rule="evenodd" clip-rule="evenodd" d="M309.669 447.498L310.249 450.699H313.184L313.999 449.098L315.698 448.216V445.933H310.249L309.669 447.498Z" fill="#575653"/>
<path fill-rule="evenodd" clip-rule="evenodd" d="M317.535 449.178V456.413H326.806L331.61 448.316V446.521L328.5 448.316L327.343 446.521V443.749L319.229 445.244L317.535 449.178Z" fill="#43423F"/>
<path fill-rule="evenodd" clip-rule="evenodd" d="M333.877 443.749V448.316L335.874 447.225L337.656 446.033L338.359 447.225L340.054 446.033V443.08L333.877 443.749Z" fill="#383734"/>
<path fill-rule="evenodd" clip-rule="evenodd" d="M288.943 463.104L291.409 466.667H297.003L301.056 464.885H306.383H310.249H322.174L328.891 461.823L341.314 459.761L352.521 457.948L362.967 456.413L365.759 451.848L341.314 456.413L328.891 457.948L331.61 455.302L324.572 457.948L318.815 459.761L315.698 457.948L312.683 459.258L309.669 459.761L302.844 461.823H298.537H294.817H291.409L288.943 463.104Z" fill="#463C35"/>
<path fill-rule="evenodd" clip-rule="evenodd" d="M320.069 449.143L319.377 449.588V450.699V451.848H320.069H320.546V450.496V449.143H320.069Z" fill="#2D2F38"/>
<path fill-rule="evenodd" clip-rule="evenodd" d="M377.066 397.895V405.275H371.182L370.696 407.21H422.414L424.945 402.819L446.389 402.553V397.895L377.066 397.895Z" fill="#35383E"/>
<path fill-rule="evenodd" clip-rule="evenodd" d="M339.109 195.889L338.32 194.238L335.305 195.43L332.438 197.961L331.15 201.696L331.674 205.649L332.438 208.81L334.418 209.734L336.219 210.291L339.109 209.734H342.386L339.109 200.584V195.889Z" fill="#413123"/>
<path fill-rule="evenodd" clip-rule="evenodd" d="M360.449 268.829L365.691 264.308H371.182L374.768 268.829L395.186 335.492L405.372 370.08L395.186 373.586L386.11 341.446L365.691 284.172L364.854 279.036L360.449 278.325V268.829Z" fill="#EFBD50"/>
<path fill-rule="evenodd" clip-rule="evenodd" d="M397.671 366.281L392.087 347.3L396.395 342.907L395.186 339.01L392.087 341.446L380.373 313.518L376.713 304.102L374.358 294.764L371.766 286.654V281.249L368.857 276.433L371.788 272.865H368.857L369.801 270.692L366.817 267.821L361.846 268.59V278.325L364.855 279.036L371.766 300.762L381.811 326.865L387.873 344.589L394.008 367.236L397.671 371.858V366.281Z" fill="#836C3D"/>
<path fill-rule="evenodd" clip-rule="evenodd" d="M364.522 267.046L361.846 268.59V269.928L363.184 270.692L368.986 268.869L371.133 267.046L371.788 265.885L371.133 264.95H368.986H366.817L364.522 267.046Z" fill="#422D1C"/>
<path fill-rule="evenodd" clip-rule="evenodd" d="M384.017 338.216C384.017 338.216 385.75 338.216 387.034 338.216C388.317 338.216 388.887 338.351 389.601 338.216C390.316 338.081 392.055 337.513 392.055 337.513L395.186 335.492L394.771 334.775L391.375 336.266L387.757 337.03L384.448 337.251L384.017 338.216Z" fill="#BB9757"/>
<path fill-rule="evenodd" clip-rule="evenodd" d="M384.017 338.216H387.447H389.601L392.055 337.513L395.186 335.492V336.266L392.6 338.216L389.601 339.01H387.447H384.402L384.017 338.216Z" fill="#503618"/>
<path fill-rule="evenodd" clip-rule="evenodd" d="M365.486 281.249H369.71L373.253 280.351L375.766 279.036L377.093 276.433L378.046 278.841L374.172 282.421L370.948 283.193H368.093H365.486V281.249Z" fill="#DEB86C"/>
<path fill-rule="evenodd" clip-rule="evenodd" d="M365.486 283.193V284.478H369.526L373.832 283.835L375.826 282.669L378.046 280.889V278.841L375.826 281.659L373.301 282.669L368.874 283.193H365.486Z" fill="#4C3119"/>
<path fill-rule="evenodd" clip-rule="evenodd" d="M364.499 268.846L344.312 218.324L341.444 210.798L337.594 206.774L336.768 202.803V199.172L337.594 195.889L339.543 194.238L342.987 194.92L341.444 200.811V202.803L344.312 206.774L347.735 208.299L369.166 265.885L367.834 267.821L364.499 268.846Z" fill="#7B7878"/>
<path fill-rule="evenodd" clip-rule="evenodd" d="M345.723 194.92L342.202 195.889L340.957 197.452V202.883L342.202 205.795L345.723 208.277L348.137 209.155L350.115 207.075L350.96 206.315L351.499 205.225L351.869 202.038V198.034L350.115 194.92L345.723 194.238V194.92Z" fill="#9D855C"/>
<path fill-rule="evenodd" clip-rule="evenodd" d="M343.731 196.349L342.731 197.852L342.203 200.123L342.731 202.522L343.731 204.29L346.085 206.119L348.137 207.075H350.115L347.838 208.81L345.724 208.277L342.203 205.795L340.957 203.182L340.286 200.123C340.286 200.123 340.739 198.089 340.957 197.452C341.176 196.816 342.203 195.889 342.203 195.889" fill="#2A2C35"/>
<path fill-rule="evenodd" clip-rule="evenodd" d="M347.53 195.43L346.413 195.92L345.536 197.102V198.555V200.325L346.533 201.696L347.53 203.494H349.66L351.545 202.029L351.869 199.132L350.473 195.92L349.17 195.43H347.53Z" fill="#564B32"/>
<path fill-rule="evenodd" clip-rule="evenodd" d="M348.152 196.647L346.923 197.313V198.76L347.162 200.425L348.152 201.696L350.115 201.404L350.96 200.198V198.118L349.551 196.647H348.152Z" fill="#A29277"/>
<path fill-rule="evenodd" clip-rule="evenodd" d="M358.518 371.858L366.817 369.161L371.182 365.567L366.817 357.236L364.85 339.01L361.846 336.525H358.518L350.96 319.416L342.385 294.764L333.877 267.821L331.15 265.885L318.962 270.692V274.88L324.919 284.478L346.923 338.276L342.385 339.906L345.072 342.907H348.702L358.518 365.567L355.147 369.161L358.518 371.858Z" fill="#CDA64A"/>
<path fill-rule="evenodd" clip-rule="evenodd" d="M328.009 289.964L347.62 336.525V339.01L345.639 339.634C345.639 339.634 343.5 339.719 343.5 340.307C343.5 340.895 345.072 341.446 345.072 341.446L349.418 342.614L358.564 364.303L361.845 369.161H364.854L352.967 342.614L332.697 289.964L326.522 276.433H322.146L326.522 285.009L328.009 289.964Z" fill="#A58C4E"/>
<path fill-rule="evenodd" clip-rule="evenodd" d="M321.552 272.008L320.482 273.678L321.552 274.885H324.877L328.753 273.678L331.856 272.008L332.563 268.846H330.453H326.523L321.552 272.008Z" fill="#452C19"/>
<path fill-rule="evenodd" clip-rule="evenodd" d="M324.853 288.378L325.447 289.963H329.864L333.933 289.571L337.265 287.676L339.262 285.636L340.542 283.496L339.262 283.149L337.959 284.813L336.768 286.556L333.464 288.378L329.864 288.769L324.853 288.378Z" fill="#503014"/>
<path fill-rule="evenodd" clip-rule="evenodd" d="M326.522 286.165H330.326H333.464L336.768 284.172L338.632 281.249L340.022 283.193L336.768 286.556L333.464 288.378L329.864 288.769L324.853 288.378L326.522 286.165Z" fill="#D4B26E"/>
<path fill-rule="evenodd" clip-rule="evenodd" d="M350.63 341.863V340.351H352.638L354.578 339.01L355.239 336.525L357.962 337.251V339.194L361.846 338.276V340.351H357.213L356.238 341.863H350.63Z" fill="#DAB262"/>
<path fill-rule="evenodd" clip-rule="evenodd" d="M324.008 271.866L318.962 259.915L312.678 241.754L310.704 235.752L317.452 241.754L324.008 254.907L329.377 270.692L327.499 272.747L324.008 271.866Z" fill="#625D5D"/>
<path fill-rule="evenodd" clip-rule="evenodd" d="M364.499 268.846L367.834 267.821L346.413 210.291L341.653 210.291L364.499 268.846Z" fill="#635D5D"/>
<path fill-rule="evenodd" clip-rule="evenodd" d="M312.684 431.725L421.504 435.957L420.255 411.349L361.289 408.49H327.352L310.249 412.422L308.205 432.024L312.684 431.725Z" fill="#4F4A49"/>
<path fill-rule="evenodd" clip-rule="evenodd" d="M310.249 429.927L312.684 428.091L405.645 430.122V432.024L310.249 429.927Z" fill="#645E59"/>
<path fill-rule="evenodd" clip-rule="evenodd" d="M312.684 416.065L327.352 411.349H331.61L315.698 416.591L312.684 416.065Z" fill="#181613"/>
<path fill-rule="evenodd" clip-rule="evenodd" d="M333.877 411.349L415.66 413.922L414.04 416.065L336.965 413.246L333.877 411.349Z" fill="#1C1A19"/>
<path fill-rule="evenodd" clip-rule="evenodd" d="M331.61 428.091V418.753L335.226 413.922L327.352 413.707L312.684 418.306V428.091H331.61Z" fill="#48433D"/>
<path fill-rule="evenodd" clip-rule="evenodd" d="M343.693 415.45L367.253 415.484V428.091L343.693 426.977H331.61V418.306L343.693 415.45Z" fill="#605A59"/>
<path fill-rule="evenodd" clip-rule="evenodd" d="M333.877 408.491L338.975 407.21L420.255 409.616L417.115 411.349L333.877 408.491Z" fill="#77706F"/>
<path fill-rule="evenodd" clip-rule="evenodd" d="M398.526 342.614H403.672V365.713H455.838V341.446H459.769L460.837 370.08L462.602 371.858H399L398.526 369.161V342.614Z" fill="#D7A424"/>
<path fill-rule="evenodd" clip-rule="evenodd" d="M399 371.858L395.187 380.251L399 388.785L462.602 391.512L562.425 388.785L567.947 384.381L562.425 377.036L462.602 371.858H399Z" fill="#F1C15E"/>
<path fill-rule="evenodd" clip-rule="evenodd" d="M399 388.784L395.187 380.251L466.165 381.685L567.947 384.518L562.425 388.784L462.602 391.512" fill="#D1AE59"/>
<path fill-rule="evenodd" clip-rule="evenodd" d="M466.164 381.685L462.602 391.512L562.424 388.784L567.946 384.381L466.164 381.685Z" fill="#AE8735"/>
<path fill-rule="evenodd" clip-rule="evenodd" d="M395.187 381.685L399 388.784L462.602 391.512L466.165 381.685H395.187Z" fill="#685730"/>
<path fill-rule="evenodd" clip-rule="evenodd" d="M395.187 380.251L399 371.858H462.602L466.165 381.685L395.187 380.251Z" fill="#D0A542"/>
<path fill-rule="evenodd" clip-rule="evenodd" d="M459.769 341.446L460.836 370.08L462.601 371.858L567.946 380.251V355.446V344.811L562.512 337.028H558.133V333.936L511.517 325.638V331.577L502.383 337.028L495.765 344.811L489.48 352.944L483.387 362.483L470.179 365.219V362.483V348.78L466.164 342.907L462.601 341.446H459.769Z" fill="#E8BE63"/>
<path fill-rule="evenodd" clip-rule="evenodd" d="M545.457 333.249L548.938 341.651L550.001 354.665V376.772H561.764L560.028 344.428V341.651H557.875V338.057L555.328 336.593V333.249H545.457Z" fill="#333A43"/>
<path fill-rule="evenodd" clip-rule="evenodd" d="M505.466 360.883L506.306 342.907L512.965 339.906L512.596 358.804L505.466 362.551V360.883Z" fill="#FFD369"/>
<path fill-rule="evenodd" clip-rule="evenodd" d="M462.602 361.12L463.642 358.915L463.122 343.517L465.48 342.614V351.867H467.728V361.12L466.164 363.035V361.12L463.642 362.373V365.566L462.602 364.138V361.12Z" fill="#AB833F"/>
<path fill-rule="evenodd" clip-rule="evenodd" d="M507.141 344.248V359.751L512.314 356.75V352.944H510.86V348.14L512.314 346.98V341.446L507.141 344.248Z" fill="#A5844A"/>
<path fill-rule="evenodd" clip-rule="evenodd" d="M511.368 371.858V369.161L514.695 369.706V371.858H511.368Z" fill="#6A522A"/>
<path fill-rule="evenodd" clip-rule="evenodd" d="M524.652 347.305V355.574L530.851 356.322V347.305H524.652Z" fill="#C9C9C3"/>
<path fill-rule="evenodd" clip-rule="evenodd" d="M479.796 364.03V365.713L483.498 364.871L485.159 363.486L490.788 355.01L496.896 346.146L503.797 338.893L511.368 335.109L520.905 336.13L535.538 338.096L548.191 340.293L544.412 331.787L514.695 326.865H512.314V331.787L503.797 336.872L495.765 344.811L487.987 355.01L483.388 362.483L479.796 364.03Z" fill="#FCD37A"/>
<path fill-rule="evenodd" clip-rule="evenodd" d="M549.79 341.446L559.042 342.303L556.721 337.796L555.159 334.241L545.457 332.147L549.79 341.446Z" fill="#707993"/>
<path fill-rule="evenodd" clip-rule="evenodd" d="M564.106 378.983L564.477 376.152L563.513 348.832H564.477V345.392H562.591L563.513 375.878L562.591 377.092L564.106 378.983Z" fill="#8D6B32"/>
<path fill-rule="evenodd" clip-rule="evenodd" d="M462.602 371.215L562.59 377.092V376.378L462.602 370.08V371.215Z" fill="#7C560F"/>
<path fill-rule="evenodd" clip-rule="evenodd" d="M517.532 312.312V308.373C517.532 308.373 517.289 306.834 517.532 305.669C517.753 304.606 518.461 303.918 518.461 303.918L519.416 301.87L518.461 299.026H515.769L513.858 299.751L512.984 301.87L512.314 305.669V308.373L512.984 309.973L517.532 312.312Z" fill="#3C4751"/>
<path fill-rule="evenodd" clip-rule="evenodd" d="M515.865 299.026L513.858 299.751L513.599 301.43L512.314 304.135V306.633V308.964L514.09 310.841H515.865L514.645 306.633V304.135L515.264 301.43L516.718 299.751V299.026H515.865Z" fill="#182A31"/>
<path fill-rule="evenodd" clip-rule="evenodd" d="M462.602 371.858L465.165 377.636L563.533 381.685L561.764 377.636L462.602 371.858Z" fill="#F4CF7C"/>
<path fill-rule="evenodd" clip-rule="evenodd" d="M398.526 342.614H399.907V370.08H460.837L462.602 371.858H398.526L397.672 369.343L398.526 342.614Z" fill="#825500"/>
<path fill-rule="evenodd" clip-rule="evenodd" d="M455.838 341.446H456.966V365.713H455.838V341.446Z" fill="#3F3D3D"/>
<path fill-rule="evenodd" clip-rule="evenodd" d="M412.007 268.959L417.342 266.184L453.071 262.777L457.26 264.485L465.166 261.139L473.488 262.777L484.072 266.184L490.782 268.959L492.907 272.484L504.789 274.88H507.141L504.789 268.959L498.2 266.184L489.198 261.139L479.797 259.148L472.137 256.89H462.602L456.402 259.148H448.772L432.927 261.139L419.206 262.777H410.388L405.373 266.184L412.007 268.959Z" fill="#E8BE63"/>
<path fill-rule="evenodd" clip-rule="evenodd" d="M410.992 261.152V264.308H416.39L419.205 262.777L451.908 259.235H456.257L461.154 258.11L469.789 256.89V255.47L410.992 261.152Z" fill="#1F2B33"/>
<path fill-rule="evenodd" clip-rule="evenodd" d="M512.315 324.456L510.48 308.374H513.858L516.957 311.48L534.586 314.149L536.812 316.415L538.511 322.629L539.277 330.458L512.315 325.638V324.456Z" fill="#57676C"/>
<path fill-rule="evenodd" clip-rule="evenodd" d="M519.416 322.641V319.416L536.583 322.641V324.949L519.416 322.641Z" fill="#1F2A2F"/>
<path fill-rule="evenodd" clip-rule="evenodd" d="M518.461 316.352V314.135L535.411 318.058V319.415L518.461 316.352Z" fill="#1C2A30"/>
<path fill-rule="evenodd" clip-rule="evenodd" d="M511.713 309.581L515.309 313.087L534.577 316.25V314.84L516.174 311.917L513.123 308.374H511.713V309.581Z" fill="#919CA6"/>
<path fill-rule="evenodd" clip-rule="evenodd" d="M510.48 308.964L512.895 324.949L516.719 325.638L513.994 311.35L510.48 308.964Z" fill="#3E4750"/>
<path fill-rule="evenodd" clip-rule="evenodd" d="M518.461 316.775L519.416 318.018L535.411 320.978V320.262L518.461 316.775Z" fill="#808D99"/>
<path fill-rule="evenodd" clip-rule="evenodd" d="M519.416 323.171L520.349 324.347L536.583 326.865V325.638L519.416 323.171Z" fill="#7D8D9A"/>
<path fill-rule="evenodd" clip-rule="evenodd" d="M524.652 347.305L524.878 355.01L530.851 356.322L529.976 356.551L524.381 355.312V347.653L524.652 347.305Z" fill="#856D2B"/>
<path fill-rule="evenodd" clip-rule="evenodd" d="M176.84 459.761L157.872 420.106L146.46 397.784H121.735L119.153 406.768V411.271L121.735 415.331L125.988 416.532H130.022L135.439 431.838L144.114 451.848L146.46 455.028V458.208L140.422 459.761L135.439 464.679L132.667 472.164L135.439 475.332L132.667 478.929L130.022 483.906L128.731 491.769L132.667 493.18L135.439 491.769L141.686 487.565V493.18L138.309 497.133L141.686 502.212H147.996H154.521L157.872 506.739L160.522 509.295L166.577 506.739L169.175 502.212L174.455 503.693L179.561 506.739L181.235 509.295L190.919 506.739H197.814L202.221 502.212L208.665 497.133H202.221L176.84 459.761Z" fill="#372F27"/>
<path opacity="0.836286" fill-rule="evenodd" clip-rule="evenodd" d="M151.99 423.09L156.191 435.521H162.918L160.522 442.784L162.918 448.623L166.576 452.624V457.503H171.772V451.078L157.319 421.36L151.99 423.09Z" fill="#937F6F"/>
<path fill-rule="evenodd" clip-rule="evenodd" d="M146.46 462.22L147.79 458.208V454.484L144.114 449.948L132.667 416.532L125.988 415.53L122.533 414.527L121.735 408.713V404.822L122.533 406.768L125.049 411.271L128.732 414.054H132.667L140.422 414.527L141.687 423.09L144.114 427.519H146.46L150.491 434.479V437.964L154.522 442.784V444.986L156.192 447.153L157.873 450.155L154.522 451.259L150.491 443.956H147.79L150.491 451.259L154.522 453.539V460.13L156.192 464.299V468.14H152.827L151.506 464.299L146.46 462.22Z" fill="#221E1B"/>
<path fill-rule="evenodd" clip-rule="evenodd" d="M144.113 469.456H146.46L147.789 471.095V473.441V468.888L146.46 468.14H144.113L140.422 469.456H144.113Z" fill="#241E1B"/>
<path fill-rule="evenodd" clip-rule="evenodd" d="M142.891 418.011L163.909 462.22L165.567 460.341L146.459 420.106L142.891 418.011Z" fill="#44423F"/>
<path fill-rule="evenodd" clip-rule="evenodd" d="M144.036 419.443L164.376 462.22H163.91L141.687 418.011L144.036 419.443Z" fill="#585757"/>
<path fill-rule="evenodd" clip-rule="evenodd" d="M132.595 418.011L153.613 462.22L155.271 460.341L136.164 420.106L132.595 418.011Z" fill="#44423F"/>
<path fill-rule="evenodd" clip-rule="evenodd" d="M133.74 419.443L154.08 462.22H153.614L131.391 418.011L133.74 419.443Z" fill="#585757"/>
<path fill-rule="evenodd" clip-rule="evenodd" d="M125.987 401.664L124.737 403.757L124.737 405.895L137.052 407.682V405.895L138.309 403.111L125.987 401.664Z" fill="#574B3F"/>
<path fill-rule="evenodd" clip-rule="evenodd" d="M473.253 439.637V458.64H476.058L533.374 445.14L535 429.927L473.253 439.637Z" fill="#857D75"/>
<path fill-rule="evenodd" clip-rule="evenodd" d="M473.253 459.994L474.055 461.201L538.009 445.893V444.283L533.374 445.14L473.253 459.994Z" fill="#928B82"/>
<path fill-rule="evenodd" clip-rule="evenodd" d="M482.668 438.31H486.103V444.283H491.662L490.101 446.22H481.626V438.31H482.668Z" fill="#605446"/>
<path fill-rule="evenodd" clip-rule="evenodd" d="M525.611 431.725H522.646V438.31H528.205L530.108 437.518L525.611 436.555V431.725Z" fill="#342210"/>
<path fill-rule="evenodd" clip-rule="evenodd" d="M486.644 438.31V444.283H491.662V442.265H489.153V437.255L486.644 438.31Z" fill="#8A7968"/>
<path fill-rule="evenodd" clip-rule="evenodd" d="M525.611 431.725V436.555L530.108 437.255V435.017L528.623 434.49V429.927L525.611 431.725Z" fill="#8D7966"/>
<path fill-rule="evenodd" clip-rule="evenodd" d="M494.561 437.255L492.352 438.31V439.887H494.561V437.255Z" fill="#37210C"/>
<path fill-rule="evenodd" clip-rule="evenodd" d="M493.457 444.283L494.562 443.638V446.22L493.457 447.76V444.283Z" fill="#37210C"/>
<path fill-rule="evenodd" clip-rule="evenodd" d="M462.466 433.591L467.702 437.255L468.624 468.166L470.364 465.116L469.544 437.255L462.466 431.725V433.591Z" fill="#474440"/>
<path fill-rule="evenodd" clip-rule="evenodd" d="M519.544 463.597L517.042 461.201L519.544 458.64H521.389L522.647 457.129H525.612L526.378 458.64L527.86 456.276L528.987 455.407H530.109L533.848 458.64V459.502V461.201L531.519 459.502H530.109V461.201H526.378H522.647L523.591 463.597H519.544Z" fill="#706A60"/>
<path fill-rule="evenodd" clip-rule="evenodd" d="M508.395 459.502L511.325 461.201L513.857 463.597V465.825H511.325V468.166H508.395L506.958 463.834L504.126 465.825L505.63 468.166V470.476H502.457L500.628 469.095H498.138L496.839 463.834H499.586L500.628 461.201L504.126 459.502L507.816 458.64L508.395 459.502Z" fill="#625D54"/>
<path fill-rule="evenodd" clip-rule="evenodd" d="M507.816 409.251L511.325 412.93H514.695L517.042 413.872H522.647L527.86 415.484H530.109H533.848L534.999 410.883H532.482V412.93H530.109V409.251H527.86V412.93H526.378L525.612 407.927H523.739V411.706H521.408V406.713H519.5V411.099H517.042V406.713H515.274V410.883H513.067L512.596 406.713H510.131V409.251L507.816 407.927V409.251Z" fill="#5A5650"/>
<path fill-rule="evenodd" clip-rule="evenodd" d="M497.504 414.609V419.582L499.586 418.948V414.609H497.504Z" fill="#494641"/>
<path fill-rule="evenodd" clip-rule="evenodd" d="M502.5 411.706L504.126 412.284V417.819L502.5 418.306V411.706Z" fill="#5B564F"/>
<path fill-rule="evenodd" clip-rule="evenodd" d="M486.644 419.123V421.129L489.153 420.126V418.306L486.644 419.123Z" fill="#5B564F"/>
<path fill-rule="evenodd" clip-rule="evenodd" d="M481.626 420.43V422.113L484.246 421.272V419.718L481.626 420.43Z" fill="#5B564F"/>
<path fill-rule="evenodd" clip-rule="evenodd" d="M479.243 421.129H476.211V423.091L479.243 422.528V421.129Z" fill="#5B564F"/>
<path fill-rule="evenodd" clip-rule="evenodd" d="M535.803 458.64L534.999 455.407H531.923L529.37 454.604L530.108 450.798H531.923V452.742L535.803 454.604L537.318 452.742H539.8L543.512 451.772L544.633 453.506L545.861 456.748H544.633L542.835 454.719H540.618V456.748L539.8 458.64L538.684 455.407L537.318 456.748V459.502L535.803 458.64Z" fill="#544740"/>
<path fill-rule="evenodd" clip-rule="evenodd" d="M567.269 443.835V451.473H550.248V448.986H552.517L553.208 449.945L556.634 444.283L567.269 443.835Z" fill="#534F57"/>
<path fill-rule="evenodd" clip-rule="evenodd" d="M557.416 429.927L557.661 431.725V437.255L557.416 439.01H566.644V433.591L565.094 429.927H557.416Z" fill="#544F58"/>
<path fill-rule="evenodd" clip-rule="evenodd" d="M557.416 461.845L562.77 461.201L564.958 455.963H548.99V457.887L547.582 458.904L557.416 460.575V461.845Z" fill="#4A474C"/>
<path fill-rule="evenodd" clip-rule="evenodd" d="M556.27 424.378H564.476L562.59 417.399L547.582 417.096V418.62H551.453L554.712 421.129L556.27 424.378Z" fill="#504953"/>
<path fill-rule="evenodd" clip-rule="evenodd" d="M164.375 464.679L158.896 466.742L154.521 471.095L147.789 486.309V495.619H151.99L157.724 488.92H162.007V494.269V497.232L158.896 502.114L163.399 505.1L167.335 503.122L172.912 499.983H181.235L184.063 503.122L186.73 509.073L190.076 506.788L193.754 500.988L195.846 498.834L198.985 500.988H204.929L206.628 498.834L204.41 494.269L207.244 490.001L164.375 464.679Z" fill="#605A53"/>
<path fill-rule="evenodd" clip-rule="evenodd" d="M152.667 486.309L157.08 482.564H162.654L165.585 484.437L168.143 489.184V493.18L172.64 494.588L176.839 493.18L181.118 491.759L185.015 493.18L186.73 497.602L189.06 499.011L191.41 496.657L193.858 494.588L198.049 493.18L201.112 489.184L164.344 472.165H159.077L152.667 483.906V486.309Z" fill="#666666"/>
<path fill-rule="evenodd" clip-rule="evenodd" d="M152.667 487.565L157.498 483.906L163.055 485.588L166.054 489.407V493.529L166.576 495.119L171.851 496.073H174.285L180.037 493.529L183.141 494.39L185.015 498.258L186.73 500.414L189.027 499.525L186.73 497.602L185.015 493.18L180.037 491.769L173.487 494.39L167.678 493.529V488.533L164.178 483.906L160.522 482.521L157.08 482.564L152.667 487.565Z" fill="#40403F"/>
<path fill-rule="evenodd" clip-rule="evenodd" d="M160.522 475.332L162.894 476.897L205.236 490.418L203.364 493.18H198.049L160.522 479.875L157.152 476.897L156.191 475.332L154.079 472.164L157.872 466.693L164.375 464.679L166.821 465.578L160.522 475.332Z" fill="#2F312E"/>
<path fill-rule="evenodd" clip-rule="evenodd" d="M136.635 476.063L140.421 482.521L146.459 479.985V486.876L157.872 489.694L171.772 487.565L173.833 493.18L182.592 497.756L187.444 502.885L192.04 500.414L195.846 497.756L201.111 499.011L197.813 502.885L182.592 506.69L175.399 502.885L167.548 500.414L161.881 506.69L157.872 502.885L152.667 500.414L157.872 495.778H154.521L147.789 499.011L141.686 500.414L139.803 497.756L144.113 489.694L140.421 485.588L132.666 491.376L130.021 489.694L136.635 476.063Z" fill="#231E1B"/>
<path fill-rule="evenodd" clip-rule="evenodd" d="M466.164 491.842L410.892 488.55L403.87 485.68L397.368 479.069L392.638 470.475L389.733 461.2V452.742V446.22L391.177 438.571L392.638 427.37L395.186 423.091L397.368 418.306L403.87 414.609L406.391 411.706L410.892 411.099L425.742 409.431L430.675 406.713L442.257 405.042L456.337 399.459L464.462 397.895H476.211L486.644 399.459L499.586 397.895L510.131 399.459H519.606H529.371L533.848 402.819H540.536H545.457L547.582 405.042L556.029 406.713L553.61 409.431H545.457L540.536 406.713H537.616L531.931 405.042L530.109 403.921L521.408 402.819L515.274 403.921L511.326 405.042L502.456 409.431L494.867 414.347L490.513 417.096L482.936 417.819L477.727 419.582L474.418 419.718H468.624L466.164 420.737L462.602 422.11L462.466 423.091L459.769 424.378L458.575 429.927L457.281 432.615L456.337 434.283V437.255L457.281 439.887L458.575 442.265H456.337V445.699L457.281 447.331V449.945H454.705V452.742L456.337 455.496V457.526L454.705 458.64L457.281 461.2V464.557L454.705 468.166L456.337 470.475L457.281 473.497L456.337 475.18L458.575 476.731V479.069L457.281 480.426L460.3 481.695V483.658V485.68L462.466 488.55L464.462 488.355V490.476H467.543L466.164 491.842Z" fill="#67574D"/>
<path fill-rule="evenodd" clip-rule="evenodd" d="M393.041 442.265L423.789 447.331H437.732L451.787 449.945V452.742L433.518 449.945H419.493L403.12 447.76L393.041 445.699V442.265Z" fill="#44362B"/>
<path fill-rule="evenodd" clip-rule="evenodd" d="M394.29 433.112L454.704 439.317V442.265L394.29 434.763V433.112Z" fill="#44362B"/>
<path fill-rule="evenodd" clip-rule="evenodd" d="M395.187 428.091L454.705 434.024V435.957L396.262 429.927L395.187 428.091Z" fill="#44362B"/>
<path fill-rule="evenodd" clip-rule="evenodd" d="M397.554 422.113L427.659 424.936L456.336 428.091V429.927L427.659 426.911L397.554 424.936V422.113Z" fill="#44362B"/>
<path fill-rule="evenodd" clip-rule="evenodd" d="M394.29 454.704L403.676 456.587L417.214 459.462H426.945L449.333 462.227L454.705 463.12V464.818L419.623 462.227L393.041 456.587L394.29 454.704Z" fill="#44362B"/>
<path fill-rule="evenodd" clip-rule="evenodd" d="M394.29 463.12L409.731 465.752H420.374L428.765 468.166L453.57 470.63L454.704 473.497L422.414 469.706L395.186 465.752L394.29 463.12Z" fill="#44362B"/>
<path fill-rule="evenodd" clip-rule="evenodd" d="M396.032 468.308L423.873 473.497L438.2 474.937L454.704 476.723L456.337 479.178L426.184 476.723L417.149 474.937L397.554 471.921L396.032 468.308Z" fill="#44362B"/>
<path fill-rule="evenodd" clip-rule="evenodd" d="M394.29 448.795L419.633 452.742L451.787 455.862V458.64L418.621 455.862L394.29 451.304V448.795Z" fill="#44362B"/>
<path fill-rule="evenodd" clip-rule="evenodd" d="M435.642 422.113L448.937 423.091L457.259 423.97L458.543 422.113L435.642 419.717L407.713 418.306L400.24 419.582L400.24 420.915H412.599L435.642 422.113Z" fill="#44362B"/>
<path fill-rule="evenodd" clip-rule="evenodd" d="M463.476 419.582H465.18V418.306L463.476 417.819H458.544L461.862 418.701L463.476 419.582Z" fill="#9D8469"/>
<path fill-rule="evenodd" clip-rule="evenodd" d="M394.29 439.887L396.032 439.317L422.414 442.265L433.346 443.638L450.746 445.699V447.331L429.392 444.868L421.028 444.283L395.186 440.769L394.29 439.887Z" fill="#7F6452"/>
<path fill-rule="evenodd" clip-rule="evenodd" d="M395.187 432.024L397.554 431.725L421.504 434.547L438.68 435.957L441.959 437.255L454.705 437.688V439.317L440.944 438.31L437.398 437.255L421.504 435.957L396.033 433.112L395.187 432.024Z" fill="#896A56"/>
<path fill-rule="evenodd" clip-rule="evenodd" d="M398.747 422.113L408.483 423.091L426.185 423.971L456.337 426.977V424.545L427.542 422.113L408.483 421.138L398.747 422.113Z" fill="#947355"/>
<path fill-rule="evenodd" clip-rule="evenodd" d="M395.187 454.704L416.011 458.64L426.946 459.462L434.312 460.488L454.705 463.12V461.201L434.312 458.912L426.946 457.75L416.011 457.022L396.033 453.717L395.187 454.704Z" fill="#9D8469"/>
<path fill-rule="evenodd" clip-rule="evenodd" d="M393.041 463.12L416.281 466.298H421.033L426.945 468.166L452.775 470.249L453.649 469.125L427.542 466.684L421.033 464.818H414.876L393.041 461.2V463.12Z" fill="#7F6452"/>
<path fill-rule="evenodd" clip-rule="evenodd" d="M407.713 418.306L427.542 418.701L433.518 419.717H440.595H450.746L459.768 420.915L460.3 419.717L450.746 417.819H439.662H431.734H424.497L409.678 416.591L407.713 418.306Z" fill="#896F55"/>
<path fill-rule="evenodd" clip-rule="evenodd" d="M436.9 411.706L462.602 412.881L474.518 414.609L477.728 416.591L479.243 415.484L477.728 414.149L474.518 412.881L462.602 411.098L438.106 409.902L436.9 411.098" fill="#3C3027"/>
<path fill-rule="evenodd" clip-rule="evenodd" d="M453.74 406.713L481.566 408.319L486.644 409.902H491.662L493.457 411.706L494.867 411.098L493.457 408.319H486.644L481.844 406.713L456.337 405.275L453.74 406.713Z" fill="#3C3027"/>
<path fill-rule="evenodd" clip-rule="evenodd" d="M418.246 414.609L435.231 415.484H454.705H457.166L447.228 414.609L435.231 413.246H419.484L418.246 414.609Z" fill="#3C3027"/>
<path fill-rule="evenodd" clip-rule="evenodd" d="M422.414 413.246L423.386 412.35L437.706 412.798L447.585 413.246L464.032 414.889H470.364V416.065L462.602 415.484L447.054 414.207L436.9 413.246H422.414Z" fill="#9E7C66"/>
<path fill-rule="evenodd" clip-rule="evenodd" d="M434.007 408.49L451.787 409.902H461.862L471.59 411.098L481.844 414.207H486.644V413.246L479.243 412.35L471.044 409.902L460.842 408.49H450.004H438.686H434.007Z" fill="#876955"/>
<path fill-rule="evenodd" clip-rule="evenodd" d="M398.747 473.743L422.414 477.701L442.22 479.178L456.337 480.25L458.544 483.937L459.769 486.049H446.055L459.769 488.355L462.602 491.842L411.941 488.355L405.645 486.049V483.907L403.12 481.846H400.241L395.187 473.743H398.747Z" fill="#50443D"/>
<path fill-rule="evenodd" clip-rule="evenodd" d="M160.522 475.332L164.375 477.562L201.112 488.862L211.005 491.759L215.155 488.862L219.631 472.164L215.486 466.919L204.41 452.904L197.814 455.028L190.077 453.373L186.594 447.153L182.593 457.503H173.487L164.375 464.679L160.522 475.332Z" fill="#807566"/>
<path fill-rule="evenodd" clip-rule="evenodd" d="M218.653 475.332H215.155L212.326 477.749L211.316 481.394V483.909L213.007 486.185L214.985 487.565H218.653L220.886 486.185L221.992 482.524V479.626L220.886 476.95L218.653 475.332Z" fill="#958D83"/>
<path fill-rule="evenodd" clip-rule="evenodd" d="M181.712 462.22L177.261 464.299L175.507 467.29V471.095L177.261 474.06H178.61H183.547L186.73 471.095V467.29L185.39 464.299L181.712 462.22Z" fill="#9A8D7B"/>
<path fill-rule="evenodd" clip-rule="evenodd" d="M217.908 475.332L215.601 474.364L213.672 474.841L211.974 476.187L210.568 478.104L209.69 480.964L209.437 483.08L210.069 485.073L212.326 486.967L215.155 487.565L213.141 486.26L211.317 483.912V481.711L211.758 479.272L212.326 477.749L214.053 476.187L215.601 475.332H217.908Z" fill="#4B3721"/>
<path fill-rule="evenodd" clip-rule="evenodd" d="M181.713 462.22L177.261 464.299L175.507 466.987V470.756L177.261 474.06L175.507 472.84L174.285 470.066L174.631 466.53L176.047 463.644L177.999 462.22H181.713Z" fill="#4E361D"/>
<path fill-rule="evenodd" clip-rule="evenodd" d="M178.955 481.448L182.339 482.124L184.698 478.057L190.919 479.463L187.553 483.906H190.077L192.041 480.289L194.952 480.982L195.332 479.463L184.698 476.063H182.339L178.955 481.448Z" fill="#968C7F"/>
<path fill-rule="evenodd" clip-rule="evenodd" d="M177.708 480.964L181.713 474.849L183.537 474.06L195.769 478.067L196.609 478.978L197.461 486.308H198.049L197.461 478.978L196.266 477.568L183.537 473.441L181.119 474.364L176.84 480.503L177.708 480.964Z" fill="#372819"/>
<path fill-rule="evenodd" clip-rule="evenodd" d="M160.522 475.332L162.894 476.897L165.898 466.282L173.833 459.768H183.697L187.143 449.441L185.645 448.623L181.713 457.635H173.487L164.375 464.679L160.522 475.332Z" fill="#A69885"/>
<path fill-rule="evenodd" clip-rule="evenodd" d="M197.813 479.985L198.985 486.309L202.126 485.601C202.126 485.601 205.469 484.021 206.357 483.147C207.244 482.273 205.236 476.063 205.236 476.063L203.73 474.364L197.813 479.985Z" fill="#948776"/>
<path fill-rule="evenodd" clip-rule="evenodd" d="M291.479 468.685L289.818 467.573L288.943 465.458L286.826 462.029L285.451 461.021V456.413H283.446V453.373V450.081V445.933H281.092L277.667 445.698L281.092 443.749L282.179 438.923L281.092 436.424L283.446 435.957V434.126L282.179 432.024L283.446 430.058L282.179 427.926L283.446 426.435V422.224H286.826L285.451 418.542H286.826V415.45H289.818V412.422L291.479 409.616H294.816L299.807 409.28L305.108 408.491L315.698 409.616L319.961 408.491H325.451L327.953 406.828L333.876 404.867H336.965L340.053 402.553L346.543 400.607H349.431V397.895H352.656H356.658L361.244 394.126H364.854H371.182L382.301 392.751L387.873 394.126H393.041H398.747H403.119L400.24 392.751L373.729 391.512L362.925 392.751H355.176H308.204L306.383 394.126L301.056 396.455V397.895H289.818L288.943 400.607L274.407 402.553H256.356L254.015 403.586H250.767L249.668 406.828L247.222 405.85V408.491H245.087L243.713 411.349L240.561 411.769V413.97L239.226 415.45V416.591L238.552 418.542V420.642L236.873 421.635V423.966L235.802 425.848V428.598L234.92 430.058V432.024L234.02 434.126V437.989L234.92 438.722V441.935H236.873L236.279 445.933L235.802 448.422H237.916V451.848H236.873L237.916 454.249H239.698V457.508H243.177V460.394H245.087L246.176 461.021V463.032H249.668V465.458H253.356V466.667L271.82 468.732L283.446 470.021L290.741 471.095H297.003L302.034 470.021L306.383 468.732L310.249 470.021L312.683 468.732L313.783 467.573V466.667H306.989L302.034 467.573L297.595 468.685L295.596 467.573L293.769 468.685H291.479Z" fill="#67574D"/>
<path fill-rule="evenodd" clip-rule="evenodd" d="M248.146 409.616H262.321L268.774 410.677L270.674 411.349L288.176 411.769L288.944 409.616H272.287H269.539L267.667 408.491L266.146 409.616L264.161 408.491H249.58L248.146 409.616Z" fill="#7A6A5B"/>
<path fill-rule="evenodd" clip-rule="evenodd" d="M242.865 413.97H263.413V412.423H244.151L242.865 413.97Z" fill="#7A6A5B"/>
<path fill-rule="evenodd" clip-rule="evenodd" d="M266.963 413.707V415.45H270.353H274.513L285.451 416.532V415.12L274.513 414.054H270.353L266.963 413.707Z" fill="#7A6A5B"/>
<path fill-rule="evenodd" clip-rule="evenodd" d="M238.581 424.212L261.199 426.021L263.981 426.753L281.091 427.519V425.865H282.864L282.285 423.381L265.927 422.228V424.873H261.811H254.265V422.228L255.43 421.635V420.642L240.139 420.106V422.228H238.581V424.212Z" fill="#7A6A5B"/>
<path fill-rule="evenodd" clip-rule="evenodd" d="M237.569 430.122L279.311 434.126H281.091V431.304L264.214 429.506V431.304H261.4H255.194V428.436H253.659V429.506L238.581 427.519V428.436H237.569V430.122Z" fill="#7A6A5B"/>
<path fill-rule="evenodd" clip-rule="evenodd" d="M236.222 435.957L251.175 437.138L259.331 437.767L280.186 440.189V437.138L264.91 435.957H260.723L258.204 436.424L252.355 435.957V434.126H248.146L247.331 434.751L236.222 434.126V435.957Z" fill="#7A6A5B"/>
<path fill-rule="evenodd" clip-rule="evenodd" d="M238.582 442.885L274.399 446.082L276.207 445.271L274.399 444.483L274.929 443.749H279.216V442.013L262.349 440.189V443.136H259.956L253.14 442.885L252.494 441.09L251.532 440.189L236.222 439.486V441.09H238.582V442.885Z" fill="#7A6A5B"/>
<path fill-rule="evenodd" clip-rule="evenodd" d="M240.511 448.335L254.417 450.093H259.331H261.684L263.373 451.848L281.705 453.373V451.848L264.353 450.093L261.684 448.335H258.204L257.719 449.442H253.467L239.893 446.937L240.511 448.335Z" fill="#7A6A5B"/>
<path fill-rule="evenodd" clip-rule="evenodd" d="M244.531 454.167L281.705 458.208V456.187L269.064 455.612L266.846 453.373H264.587V454.167L266.846 455.612L264.587 455.79L257.117 454.776L256.432 451.848H254.654L255.347 454.167L245.218 453.373L244.531 454.167Z" fill="#7A6A5B"/>
<path fill-rule="evenodd" clip-rule="evenodd" d="M255.952 460.632L273.343 462.699H279.216L281.705 464.679H286.201L285.451 462.699H281.705L279.216 461.266H273.343H271.076L255.952 459.761V460.632Z" fill="#7A6A5B"/>
<path fill-rule="evenodd" clip-rule="evenodd" d="M241.823 418.542H259.331L260.723 419.213H266.963L267.829 420.106L283.941 420.642V419.213L268.545 418.542L266.963 416.591H265.326V418.542H260.723V416.532H258.203L257.719 417.894L241.823 416.591V418.542Z" fill="#7A6A5B"/>
<path fill-rule="evenodd" clip-rule="evenodd" d="M252.066 440.189V438.062H254.293V439.486L255.952 441.23H257.718H259.33V439.486H261.905V441.23H260.723V442.784H254.935L252.066 440.189Z" fill="#2B2A2A"/>
<path fill-rule="evenodd" clip-rule="evenodd" d="M255.37 434.126V435.2H260.722V434.126H255.37Z" fill="#2B2A2A"/>
<path fill-rule="evenodd" clip-rule="evenodd" d="M256.985 428.167V429.544L257.718 430.099H261.176V428.167H256.985Z" fill="#2B2A2A"/>
<path fill-rule="evenodd" clip-rule="evenodd" d="M256.985 451.078V452.362L259.081 453.373L263.67 454.171V452.624H262.509L261.904 451.078H256.985Z" fill="#2B2A2A"/>
<path fill-rule="evenodd" clip-rule="evenodd" d="M262.075 421.559H263.842V424.134H256.596V422.846H255.288L255.873 422.102V420.642H257.721V422.846L262.882 423.219V422.388H262.075V421.559Z" fill="#2B2A2A"/>
<path fill-rule="evenodd" clip-rule="evenodd" d="M243.684 414.528H260.722V416.224L259.081 416.532L257.679 416.224V415.53L243.234 415.844L243.684 414.528Z" fill="#2B2A2A"/>
<path fill-rule="evenodd" clip-rule="evenodd" d="M254.079 459.761L250.09 459.258L244.531 457.503L245.254 459.761L246.842 462.22H250.09V464.679H254.079V466.667L273.07 468.685L284.762 469.807L289.818 471.095H292.539V469.807L286.826 468.732V467.381H289.818L288.943 465.458L284.762 466.667L283.941 464.679H280.185L279.216 462.699L259.081 462.22L255.37 461.28L254.079 459.761Z" fill="#2B2A2A"/>
<path fill-rule="evenodd" clip-rule="evenodd" d="M238.582 430.823L281.092 434.663L280.186 436.017L277.189 435.804L261.177 434.663V433.42L254.696 433.012L254.288 435.521H253.093L252.583 433.805L236.222 433.012L238.582 430.823Z" fill="#433528"/>
<path fill-rule="evenodd" clip-rule="evenodd" d="M263.841 429.133L264.176 429.166L281.091 430.822L280.663 428.167L260.798 427.043L238.581 425.013V426.615L252.516 428.167L254.299 427.918L256.356 428.167V427.519L261.905 427.918V429.553L263.841 429.133Z" fill="#473829"/>
<path fill-rule="evenodd" clip-rule="evenodd" d="M245.452 411.769V410.13L259.081 410.559H262.882L270.906 411.769L287.779 412.338V414.054L268.166 413.707L262.088 412.092L245.452 411.769Z" fill="#4E3D2E"/>
<path fill-rule="evenodd" clip-rule="evenodd" d="M239.893 444.151L261.177 446.082H263.842V447.427L281.092 448.017V450.155H278.307L263.842 449.443L260.723 447.427L257.719 448.017L256.986 449.443L252.698 448.647L239.893 446.082V444.151Z" fill="#473A31"/>
<path fill-rule="evenodd" clip-rule="evenodd" d="M264.522 415.45H266.963L268.545 416.532H281.092L285.452 417.103L285.049 418.587L268.545 418.083L266.616 417.019H264.522V415.45Z" fill="#4A3827"/>
<path fill-rule="evenodd" clip-rule="evenodd" d="M240.494 418.587H254.174H256.028L259.837 419.484L266.616 420.106L272.715 420.642H282.306V422.388H272.715L265.315 421.37V424.134H263.842V421.361L259.082 420.642L256.028 420.106H253.814H239.893L240.494 418.587Z" fill="#4A3827"/>
<path fill-rule="evenodd" clip-rule="evenodd" d="M282.306 404.266L294.51 405.35H301.055L303.216 407.21H305.108L304.139 405.267L303.216 404.266H299.806H292.539L283.941 403.325L282.306 404.266Z" fill="#7E6D63"/>
<path fill-rule="evenodd" clip-rule="evenodd" d="M305.108 402.295H326.373L331.61 403.325V404.471H333.876V402.295L327.273 401.25L297.003 400.455L305.108 402.295Z" fill="#7E6D63"/>
<path fill-rule="evenodd" clip-rule="evenodd" d="M274.386 404.472L279.216 405.267L299.807 406.105L301.055 407.21L278.062 406.105L271.928 405.267L261.177 404.472L261.905 403.325L274.386 404.472Z" fill="#7F6F64"/>
<path fill-rule="evenodd" clip-rule="evenodd" d="M56.8669 252.028H50.9038L46.135 246.938L42.8551 239.873L43.5935 233.083L40.2477 229.257L2.81173 118.258L0 31.1305V25.64L10.0937 15.8287L14.9885 3.48772L23.5303 0H28.0394L34.9876 3.48772L41.5701 15.8287L47.1457 31.1305L49.6248 38.4536L58.5886 44.7536L95.8854 86.4124L106.942 101.135L164.135 294.888L202.871 426.977L210.159 454.17L215.155 468.685L210.159 474.06L192.797 468.685L187.467 464.299L153.992 393.982L102.817 289.007L86.0057 259.635L79.044 246.938H71.5538L62.7983 250.558L56.8669 252.028Z" fill="#C49A39"/>
<path fill-rule="evenodd" clip-rule="evenodd" d="M35.9627 120.29L28.1367 108.947V35.7966L58.7099 60.3358L92.4526 95.0002L101.643 125.703L35.9627 120.29Z" fill="#D4A74C"/>
<path fill-rule="evenodd" clip-rule="evenodd" d="M46.1353 145.381L170.847 408.713L190.077 417.018L99.8699 145.381L41.2686 138.175L46.1353 145.381Z" fill="#DAAA4D"/>
<path fill-rule="evenodd" clip-rule="evenodd" d="M23.8115 127.394C23.8115 127.394 38.3026 178.692 46.1354 204.222C53.9683 229.752 56.3074 234.907 56.3074 234.907L59.4074 242.49C59.4074 242.49 61.2897 243.978 62.4778 244.528C63.666 245.078 66.3196 245.688 66.3196 245.688L73.859 242.49L76.0185 234.907L70.1306 223.47L47.6033 179.422L29.8139 141.54L23.8115 127.394Z" fill="#C49D51"/>
<path fill-rule="evenodd" clip-rule="evenodd" d="M6.82276 115.631L15.0568 108.947L13.219 27.235L3.25098 31.2611L4.45425 113.912L6.82276 115.631Z" fill="#A1834A"/>
<path fill-rule="evenodd" clip-rule="evenodd" d="M2.63206 29.5569L0.958984 28.6992L15.4946 18.4382H17.1489V27.0674H15.4946V22.7372L2.63206 29.5569Z" fill="#956D3B"/>
<path fill-rule="evenodd" clip-rule="evenodd" d="M15.9131 16.3955L17.1493 15.4615L30.5307 27.6014L33.066 30.4094L46.2358 39.8075L50.6471 45.5424L65.2804 56.5889L67.0009 58.9838L65.2804 60.3358L62.8582 57.7969L50.6471 48.5402L48.5833 46.9217L47.8518 44.6211L45.2711 40.9131L33.066 31.9138L28.9945 28.4263L15.9131 16.3955Z" fill="#9C6C30"/>
<path fill-rule="evenodd" clip-rule="evenodd" d="M31.2708 129.827L33.2902 128.7L68.2902 132.483L97.3059 134.813V132.483L67.3961 130.919L34.2217 127.394H31.2708L29.7715 128.7L31.2708 129.827Z" fill="#826942"/>
<path fill-rule="evenodd" clip-rule="evenodd" d="M34.9109 136.252V134.813L36.0612 133.825L72.3147 137.664L97.3062 140.249H99.1496V137.664L95.8857 138.682L72.3147 136.252L44.2304 133.825V132.037H42.8398V133.825L34.9109 132.962L33.4893 134.813V136.252H34.9109Z" fill="#86693B"/>
<path fill-rule="evenodd" clip-rule="evenodd" d="M17.1494 110.69L19.8788 108.947L158.897 398.495H155.534L76.0183 231.009L38.3641 158.252L19.8788 120.29L17.1494 110.69Z" fill="#8B6832"/>
<path fill-rule="evenodd" clip-rule="evenodd" d="M195.847 414.054L180.114 360.883L170.942 326.832L158.897 285.956L142.818 231.009L129.992 190.008L118.512 156.053L116.536 157.84L127.36 190.008L140.515 232.673L156.191 285.956L168.604 328.64L178.08 364.62L193.835 416.532L195.847 414.054Z" fill="#86693B"/>
<path fill-rule="evenodd" clip-rule="evenodd" d="M19.8787 108.947V95.4176V90.4962V85.896V76.9496V69.1842L18.8274 54.6448L19.353 39.5302L18.8274 22.7372H17.1493L15.9131 37.8987L15.9131 68.0755L17.1493 85.896V99.053V110.69L19.8787 108.947Z" fill="#916725"/>
<path fill-rule="evenodd" clip-rule="evenodd" d="M54.7309 245.688L49.9148 244.528L46.1352 231.009L26.9804 180.719L9.89094 131.103L5.47461 119.737L15.9132 113.724L19.8788 127.394L53.0013 228.238L58.7104 242.088L54.7309 245.688Z" fill="#8A703D"/>
<path fill-rule="evenodd" clip-rule="evenodd" d="M61.4911 245.688L58.355 244.27L56.0945 239.869L37.3293 179.96L28.1069 150.507L19.6966 126.268L16.2178 113.724L16.6834 113.244L20.6001 126.268L39.1095 179.96L54.9512 231.009L58.355 239.869L59.4074 242.49L62.4778 244.528L66.3196 245.688H61.4911Z" fill="#DCB975"/>
<path opacity="0.755999" fill-rule="evenodd" clip-rule="evenodd" d="M63.1922 228.725L59.162 231.435L58.71 234.93L59.162 238.514L60.9511 241.36L63.6322 243.062L66.4525 244.528L70.9628 243.583L73.981 240.858L74.7517 237.03V233.949L73.2105 231.435L72.1147 229.702L69.4439 228.725L66.0133 228.238L63.1922 228.725Z" fill="#312B28"/>
<path fill-rule="evenodd" clip-rule="evenodd" d="M63.8046 232.825L62.4717 235.383V238.136L63.0835 240.274L65.212 241.48L67.4395 242.088H70.0392L71.8363 240.274L72.729 237.557V235.383L71.2643 234.153L69.7514 232.197L66.7305 231.909L63.8046 232.825Z" fill="#C19A50"/>
<path fill-rule="evenodd" clip-rule="evenodd" d="M49.9145 229.062L46.9542 232.948V236.383L46.1458 239.598L48.0301 243.435L49.9145 246.938L53.1299 248.819H56.3069L55.3952 246.938L53.1299 245.688L51.2264 243.435L49.9145 240.393V237.557L51.2264 234.859L53.1299 232.948V231.009L48.0301 216.938L45.4102 208.446L43.601 203.444L42.4213 200.123L40.8796 197.133V193.567L37.9173 189.488L35.9629 190.393V193.567L37.9173 197.133L39.3128 202.601L42.4213 207.011L43.601 208.446L49.9145 226.492V229.062Z" fill="#313533"/>
<path fill-rule="evenodd" clip-rule="evenodd" d="M62.4717 238.136V235.383L63.8046 232.825L66.7305 231.909L69.7514 232.197L70.8183 233.589L68.7178 233.145H66.3187L64.6036 234.177L63.8046 235.023V236.383L63.0093 238.136H62.4717Z" fill="#CDAB69"/>
<path fill-rule="evenodd" clip-rule="evenodd" d="M37.797 29.5569L29.4129 22.7372L26.1758 20.6746L21.2305 15.4616L19.1357 12.6694V7.41364L21.2305 4.00087L24.585 1.63599L29.4129 1.63599L33.2995 5.09012L35.0445 7.41364L36.7695 11.1435L38.4629 15.5964L40.5494 17.5003V24.7609L42.5553 27.3428L37.797 29.5569Z" fill="#453F38"/>
<path fill-rule="evenodd" clip-rule="evenodd" d="M25.6211 5.15344L22.8135 7.39577V10.757L24.2173 13.2393L27.6919 15.4616L30.845 16.7062L33.4164 18.4382L34.2437 13.2393L33.4164 9.1642L30.845 5.15344H27.6919H25.6211Z" fill="#B38A4E"/>
<path fill-rule="evenodd" clip-rule="evenodd" d="M35.1224 89.5618H32.7381L32.4183 91.8821L30.9033 93.1255L31.5642 95.0001L34.2516 94.17L36.1707 95.0001L37.6817 93.6698V91.8821L37.6477 91.024L35.1224 89.5618Z" fill="#5D4825"/>
<path fill-rule="evenodd" clip-rule="evenodd" d="M55.023 80.8664L54.7002 81.6581V82.3894L54.8616 83.3859L56.0747 84.022H57.4617L59.0415 82.9555L59.9158 81.2818L59.5868 79.9634L59.0415 79.2148H57.9663L56.4209 79.639L56.0747 80.5192L55.023 80.8664Z" fill="#61481E"/>
<path fill-rule="evenodd" clip-rule="evenodd" d="M35.5996 90.519V88.6123L40.5498 85.8854L45.5686 80.9001L46.9431 78.8005L49.0438 77.5249H53.545L57.4616 78.8005V80.9001L49.9141 80.0665L47.7692 81.7235L41.4563 87.8289L37.6646 90.519H35.5996Z" fill="#DBB67A"/>
<path fill-rule="evenodd" clip-rule="evenodd" d="M37.6469 91.0241L36.1699 90.5191L41.4154 86.9179L45.8036 82.7421L48.2123 80.1526L50.0878 79.2148H51.7863L57.4618 80.1526V80.9002L51.7863 80.1526H50.0878L48.9222 81.355L46.5308 84.022L41.9073 87.9975L37.6469 91.0241Z" fill="#BB965C"/>
<path fill-rule="evenodd" clip-rule="evenodd" d="M22.8135 7.39577L23.4196 9.09711L24.7241 8.24644L26.1895 6.70282L27.8114 6.27226L29.3675 6.70282L30.845 7.39577L31.7367 9.09711L32.4884 11.3854V13.4535L31.7367 14.8904L33.4602 15.5964V13.4535V10.3001L32.4884 8.24644L30.845 6.27226L29.3675 5.15344L26.5953 5.60682L24.7241 6.27226L23.4196 7.39577H22.8135Z" fill="#E0AC61"/>
<path fill-rule="evenodd" clip-rule="evenodd" d="M29.7715 128.148V126.45L30.9028 125.703L57.462 128.148L70.1443 129.553L97.3059 131.103V132.483L76.018 131.103H69.1767L57.3083 129.553L32.0922 127.394L29.7715 128.148Z" fill="#E3B56D"/>
<path fill-rule="evenodd" clip-rule="evenodd" d="M35.6004 132.483L42.8398 133.825V132.037L35.6004 131.103L33.4893 132.483V134.812L35.6004 132.483Z" fill="#DAB275"/>
<path fill-rule="evenodd" clip-rule="evenodd" d="M195.332 456.781H188.361L178.284 437.964L175.507 434.126L188.361 423.09L190.919 425.244L192.625 430.822L195.332 434.989L201.112 448.1L202.126 452.904V456.781L204.41 458.604L205.236 462.954V466.182L208.574 468.45L207.244 471.095H205.236L204.929 468.45L202.126 466.182L195.847 468.45L195.332 466.182L199.882 465.004V461.472H202.126L204.41 462.954L202.126 458.604L199.882 455.421L195.332 456.781Z" fill="#715E3B"/>
<path fill-rule="evenodd" clip-rule="evenodd" d="M150.922 397.585L145.302 398.495L141.531 402.315L140.422 408.138L141.531 412.977L145.302 416.532L149.844 418.6L154.917 417.685L157.717 416.532L186.869 440.31L188.625 442.154V445.798L190.231 450.922L194.935 452.904H200.863L205.236 449.316L207.244 442.154L203.221 436.65L198.095 434.747H193.538L186.869 429.304L161.983 409.921L159.829 403.714L156.191 398.495L150.922 397.585Z" fill="#B3965C"/>
<path fill-rule="evenodd" clip-rule="evenodd" d="M156.191 414.463L153.353 415.331H150.49L147.789 414.897L144.749 411.855L144.113 409.04V406.831L144.749 403.521L146.459 401.292L150.152 400.218H153.353L156.191 401.292L158.896 406.831V410.283L158.187 412.637L156.191 414.463Z" fill="#C6AA75"/>
<path fill-rule="evenodd" clip-rule="evenodd" d="M151.601 402.392L148.554 404.094L147.789 406.778L148.554 409.162L149.695 411.271H151.601H154.521L156.191 409.162V405.256L154.521 402.886L151.601 402.392Z" fill="#DBBF7F"/>
<path fill-rule="evenodd" clip-rule="evenodd" d="M198.728 437.964L194.57 439.102L192.624 443.789L193.358 447.432L195.331 449.441L198.31 449.948H202.125L204.409 446.485L204.928 441.307L202.125 437.964H198.728Z" fill="#B49049"/>
<path fill-rule="evenodd" clip-rule="evenodd" d="M201.601 439.102L198.926 439.828L197.813 441.96V444.882L199.707 446.485H201.601L204.41 444.882V441.96L201.601 439.102Z" fill="#D6B66A"/>
<path fill-rule="evenodd" clip-rule="evenodd" d="M197.813 437.964L194.57 439.102L193.38 441.303L192.624 443.789L192.974 445.728L193.814 447.769L195.596 449.605L196.882 449.854H198.984L198.113 451.26L194.57 450.373L192.624 448.715L191.674 446.485L190.918 443.789L191.674 441.303L192.624 439.399L194.148 437.964H197.813Z" fill="#7C5E1F"/>
<path fill-rule="evenodd" clip-rule="evenodd" d="M197.813 440.531H196.359L195.656 442.077L195.331 444.185V445.615L195.656 447.127L196.572 448.307L198.53 449.041L200.702 449.44L202.125 449.041V447.127H200.375H198.728L197.813 446.485L197.112 444.986V443.438V442.077L197.813 440.531Z" fill="#7C5E1F"/>
<path fill-rule="evenodd" clip-rule="evenodd" d="M150.153 403.232L148.554 404.094L147.789 406.144V407.407L148.554 409.849L150.153 411.271H152.57H154.52L153.353 412.181L150.49 412.972L147.789 412.181L146.459 409.849V407.407V404.808L148.554 402.392H151.601L150.153 403.232Z" fill="#534844"/>
<path fill-rule="evenodd" clip-rule="evenodd" d="M141.264 403.417L143.046 400.758L145.301 398.495L141.638 399.474L139.102 402.392L138.309 408.138L139.822 413.903L144.113 417.859L148.944 420.233L153.534 419.918L157.117 418.6L186.923 442.794V446.485L189.097 451.536L190.918 452.904L195.331 454.484H201.111L203.734 451.931L205.236 449.316L201.111 452.904H194.951L190.918 451.259L188.665 445.966V442.457L161.32 419.513L157.717 416.532L154.916 417.685L149.843 418.6L145.301 416.532L141.53 412.977L140.421 408.138L141.264 403.417Z" fill="#997730"/>
<path fill-rule="evenodd" clip-rule="evenodd" d="M123.73 397.585H130.37L136.394 393.77L140.421 389.332L138.308 384.936V381.768L137.317 379.529H136.394L135.48 377.673L136.394 375.352L133.933 372.453H132.076L98.0373 299.974L95.8851 293.854L93.8388 293.119L90.415 289.193V287.607V285.018L91.3114 282.859L90.415 280.539H89.1458L77.0661 255.074L78.201 252.786L77.0661 249.462L76.0177 248.819L72.7708 248.011L68.8596 249.462L66.7307 250.773L60.3906 252.188L59.3174 252.786L61.0906 261.565L71.8656 282.859V289.193V292.508L73.7372 293.854L76.0177 293.119L78.201 296.958V299.974L77.0661 300.738L78.8887 304.636L81.9893 305.485L115.484 377.673L117.24 380.479L115.484 381.768V383.728L116.536 384.936L118.04 384.319L119.788 388.22L118.04 389.332L119.788 392.344H121.262L123.73 397.585Z" fill="#EFBD50"/>
<path fill-rule="evenodd" clip-rule="evenodd" d="M123.73 397.585L121.734 392.695L119.153 389.493L119.788 388.22L116.536 378.964L82.9097 305.831L78.7166 304.7L77.2134 301.763L78.7166 298.263L77.2134 294.381H72.7794L71.8656 292.509V282.859L61.0906 261.565L59.3174 251.883L62.798 250.558L66.7307 257.104L75.8769 280.285L81.1226 289.42L84.6699 297.695L89.1458 305.831L122.752 376.903L124.958 380.106L125.987 385.096L130.021 389.493V392.695L132.666 395.748C132.666 395.748 131.958 397.187 130.021 397.585C128.085 397.983 123.73 397.585 123.73 397.585Z" fill="#D0A74F"/>
<path fill-rule="evenodd" clip-rule="evenodd" d="M116.535 381.761H119.063L122.866 380.588L128.487 377.046L133.638 373.979L135.438 375.116L130.882 377.87L125.986 380.588L122.866 383.079H119.063L116.535 383.948V381.761Z" fill="#E2BE6D"/>
<path fill-rule="evenodd" clip-rule="evenodd" d="M136.197 380.698L138.308 381.768L132.601 386.17L130.02 387.801H128.047L124.176 389.493H120.204H119.152V387.801H124.176L128.047 386.17L131.475 383.948L136.197 380.698Z" fill="#E8BE5E"/>
<path fill-rule="evenodd" clip-rule="evenodd" d="M78.7168 301.813L79.828 303.994L83.6176 304.7L87.035 303.256L91.4175 301.813L94.9173 299.338L95.8852 298.392L96.6759 297.558L94.9173 294.381L92.6239 296.713L90.0505 298.392L87.035 299.54L83.6176 300.603L80.8904 301.168H78.7168V301.813Z" fill="#DDAB46"/>
<path fill-rule="evenodd" clip-rule="evenodd" d="M81.123 304.7H83.6178L91.4178 301.813L94.3943 299.54L95.8855 297.695L96.6762 298.451L95.8855 299.54L93.0551 301.813L91.4178 303.114L87.6966 304.7L84.6633 305.831H83.6178L81.123 304.7Z" fill="#744D28"/>
<path fill-rule="evenodd" clip-rule="evenodd" d="M122.444 391.327L128.731 390.484L132.676 388.406L134.968 386.649L137.695 383.948L138.309 385.533L135.438 387.637L133.901 389.493L129.626 391.327L127.554 392.132L123.548 392.695L121.734 392.132L122.444 391.327Z" fill="#8A673A"/>
<path fill-rule="evenodd" clip-rule="evenodd" d="M85.3846 295.692L83.0952 293.007L82.5704 291.482L81.932 290.584L79.1695 291.482L75.877 292.458V291.482L81.1226 289.42L84.3995 288.557L86.7387 287L89.1458 284.958V287.786L88.8992 288.937L89.1458 291.482L89.9425 293.679L87.6962 292.458L86.7387 293.007V294.93L85.3846 295.692Z" fill="#4E3E23"/>
<path fill-rule="evenodd" clip-rule="evenodd" d="M77.6637 285.866L82.9095 283.523L87.696 282.763L86.9798 281.421H85.5457L84.5296 279.315L74.7513 259.116L73.9547 257.16L75.8767 255.822L74.7513 254.879L72.7289 255.822L71.2209 254.529L70.0069 252.865L69.7304 250.536L68.8594 249.462L66.7305 250.536V253.721L67.6003 255.822H68.8594L70.8216 257.16H72.7289L84.5296 281.421L81.9846 282.763L77.6637 284.958V285.866Z" fill="#43351F"/>
<path fill-rule="evenodd" clip-rule="evenodd" d="M70.5777 248.819L69.541 250.191L69.9453 252.217L70.5777 253.721C70.5777 253.721 71.4115 254.627 71.8353 254.841C72.2592 255.055 73.8587 254.841 73.8587 254.841L75.2613 254.464L76.0176 252.685V250.628L75.2613 249.462L73.8587 248.819H72.0496H70.5777Z" fill="#B79751"/>
<path fill-rule="evenodd" clip-rule="evenodd" d="M76.5805 256.03L88.0228 279.683L88.8996 281.559V282.892H89.9429L88.8996 284.959L86.3736 286.499H84.5344V283.756L87.6967 282.892L86.9978 281.559L85.5464 281.421V279.683L74.918 258.428V256.788L76.5805 256.03Z" fill="#BE9B4F"/>
<path fill-rule="evenodd" clip-rule="evenodd" d="M137.421 382.525L138.308 383.948L134.211 387.443L130.021 389.493L125.987 391.289L122.849 391.927H119.897L119.152 389.493H122.849L128.047 387.8H130.021L137.421 382.525Z" fill="#CAA147"/>
<path fill-rule="evenodd" clip-rule="evenodd" d="M116.535 383.948L119.152 382.525L122.866 383.079L125.986 380.699L135.438 375.116V376.286L126.637 382.525L122.866 383.948H119.152L117.179 385.096L116.535 383.948Z" fill="#D5A945"/>
<path fill-rule="evenodd" clip-rule="evenodd" d="M78.7168 301.763V301.168H81.1228L88.3106 298.921L90.4387 297.695L94.1872 294.708L94.9173 294.381L95.4077 294.987L94.1872 295.693L91.1828 298.072L88.8993 299.54L81.4428 302.145L78.7168 301.763Z" fill="#E8BE5E"/>
<path fill-rule="evenodd" clip-rule="evenodd" d="M68.3805 257.377L65.4771 258.704V259.718H68.3805H69.88L70.818 262.777L72.7287 261.339L70.818 258.063L69.88 256.03H68.3805L66.7302 253.721V251.431L63.6016 252.554V254.841L65.4771 255.516L66.6447 256.03L68.3805 257.377Z" fill="#2C221A"/>
<path fill-rule="evenodd" clip-rule="evenodd" d="M72.709 287.583L77.2135 286.499L80.4126 284.958L85.7211 282.785L84.5622 284.945L82.9097 285.866L77.8376 288.045L75.2143 288.568L72.709 288.889V287.583Z" fill="#F9CC63"/>
<path fill-rule="evenodd" clip-rule="evenodd" d="M89.1455 228.238H89.9523L91.1414 227.394L92.6098 226.023L93.936 225.141L95.0596 224.929H95.8848L96.9529 225.141L97.5237 224.327L96.5927 223.65H94.8202L92.8085 224.327L91.4524 224.929L90.6155 226.023L89.9523 227.04L89.1455 228.238Z" fill="#977E45"/>
<path fill-rule="evenodd" clip-rule="evenodd" d="M152.825 365.126L155.461 369.09L162.917 363.695L159.915 359.585L152.825 365.126Z" fill="#C4A761"/>
<path fill-rule="evenodd" clip-rule="evenodd" d="M89.1459 228.238L91.1486 225.536L92.4526 224.327L94.8206 223.65H96.5931L97.5241 224.327L96.5931 221.62H94.8206H92.4526L89.9426 222.341L88.0225 224.394L87.6963 226.506L89.1459 228.238Z" fill="#CBAA5D"/>
<path fill-rule="evenodd" clip-rule="evenodd" d="M85.7139 221.374H86.5207L87.7098 220.53L89.1782 219.159L90.5043 218.277L91.6279 218.065H92.4532L93.5212 218.277L94.0921 217.463L93.1611 216.786H91.3886L89.3768 217.463L88.0208 218.065L87.1838 219.159L86.5207 220.176L85.7139 221.374Z" fill="#977E45"/>
<path fill-rule="evenodd" clip-rule="evenodd" d="M85.7133 221.374L87.716 218.672L89.02 217.463L91.388 216.786H93.1605L94.0915 217.463L93.1605 214.756H91.388H89.02L86.5099 215.477L84.5899 217.53L84.2637 219.642L85.7133 221.374Z" fill="#CBAA5D"/>
<path fill-rule="evenodd" clip-rule="evenodd" d="M152.825 365.126L151.72 366.418L154.669 370.843L162.336 365.771L162.917 363.695L155.46 369.09L152.825 365.126Z" fill="#A98633"/>
<path fill-rule="evenodd" clip-rule="evenodd" d="M161.545 375.116L111.748 271.264L88.022 219.153L85.7207 214.923L87.6958 211.785L96.6753 207.151L111.748 200.175L121.734 192.488L125.986 184.718L128.73 173.635L125.986 164.684L118.511 156.053L113.527 149.003L109.724 142.826L105.696 138.175H111.748L123.633 152.897L130.309 160.298L132.665 166.257L133.928 173.635L132.665 184.718L130.309 192.488L122.433 198.54L116.535 204.005L105.696 209.821L100.501 211.785L93.3826 214.923L91.6366 219.153L111.748 259.225L135.438 308.197L154.52 351.93L158.896 360.883V365.227L164.374 375.116H161.545Z" fill="#37291D"/>
<path fill-rule="evenodd" clip-rule="evenodd" d="M65.0122 217.428V209.64L66.3187 204.82L69.541 201.98L78.0054 197.737H88.0222H98.7683H107.577L114.09 195.215L119.608 185.809L122.433 173.704L119.608 158.183H116.535L119.608 173.704L117.316 184.51L112.839 192.398L107.577 194.384H99.1489H88.0222H77.2133L68.1654 198.894L63.5383 203.018L62.4717 209.129V217.428L64.519 222.341L72.7793 226.692L80.9894 231.009L85.7209 235.023L93.5296 242.088L97.3054 248.011L100.501 256.03V262.777L99.1489 272.839L97.3054 280.045L96.6756 285.837L100.501 286.499L101.698 279.154L103.518 267.664V257.104L98.7683 245.688L95.1365 239.624L88.0222 232.637L82.9095 228.238L76.0176 224.743L70.8183 222.341L66.3187 220.299L65.0122 217.428Z" fill="#312622"/>
<path fill-rule="evenodd" clip-rule="evenodd" d="M164.374 377.846L168.285 373.586L173.486 382.525L168.93 385.096L164.374 377.846Z" fill="#9E7B31"/>
<path fill-rule="evenodd" clip-rule="evenodd" d="M166.576 392.695L168.076 397.585L170.628 398.495L171.772 397.585L169.174 391.927L166.576 392.695Z" fill="#C29E58"/>
<path fill-rule="evenodd" clip-rule="evenodd" d="M166.575 392.695L164.374 393.571L166.575 398.495L168.93 400.218L170.72 399.019L168.075 397.585L166.575 392.695Z" fill="#876C39"/>
<path fill-rule="evenodd" clip-rule="evenodd" d="M174.454 406.832L177.885 408.713L176.17 409.86L172.911 407.774L174.454 406.832Z" fill="#8C6C2F"/>
<path fill-rule="evenodd" clip-rule="evenodd" d="M177.885 408.714L174.454 406.832L176.169 404.822L177.885 405.617L180.281 407.682L177.885 408.714Z" fill="#D4AF69"/>
<path fill-rule="evenodd" clip-rule="evenodd" d="M164.374 377.846L160.521 380.106L165.184 386.426L168.93 385.096L164.374 377.846Z" fill="#836B3C"/>
<path fill-rule="evenodd" clip-rule="evenodd" d="M88.8994 256.645L92.4527 254.948L96.676 253.721H102.067L105.243 251.883L110.542 251.431L114.411 252.774L117.482 254.948L119.96 257.99L121.805 261.121L124.062 264.97V269.284L125.048 284.172L125.812 287.374L127.637 291.47L131.63 294.381L137.515 295.693L142.481 292.79L145.977 287.997L148.479 282.785V276.437V266.652L147.719 262.777L144.634 253.721L141.055 241.087L137.515 228.238L132.666 211.088L131.63 206.261L130.634 202.333V198.305L130.309 192.488L128.799 193.258V198.305L129.537 202.333L136.406 228.238L143.563 254.287L146.575 262.777L147.719 266.652V276.437L147.306 282.785L145.396 287.374L141.686 292.252L137.515 294.899L131.63 293.565L128.234 290.995L126.573 287.374L125.812 284.172L125.048 269.284V264.539L122.433 260.648L120.666 257.353L118.029 254.287L114.411 251.883L110.542 250.558L105.243 251.028L102.067 252.774H96.676L92.4527 254.287L88.8994 255.621V256.645Z" fill="#2E2C2C"/>
<path fill-rule="evenodd" clip-rule="evenodd" d="M177.885 401.42L178.539 404.822H181.234V402.392L180.281 400.218L177.885 401.42Z" fill="#DAAE5C"/>
</svg>
