<svg width="528" height="336" viewBox="0 0 528 336" fill="none" xmlns="http://www.w3.org/2000/svg">
<path fill-rule="evenodd" clip-rule="evenodd" d="M200.548 291.614L210.495 298.614L218.439 301.222H229.079L237.613 296.87L247.607 287.066H250.36L253.502 301.222L258.2 314.519L264.5 320.718L275.623 323.684H283.457L292.551 320.718L298.87 321.863L309.228 320.718L315.369 318.09L323.05 309.8L326.156 300.51L344.798 301.222L345.644 299L343.758 298.614L348.909 292.847L331.676 294.172L330.588 287.066V277.242L283.457 275.147L238.304 274.316L203.249 280.033L200.548 291.614Z" fill="#25241B"/>
<path fill-rule="evenodd" clip-rule="evenodd" d="M98.9766 291.88L110.74 227.041L135.713 228.88L141.585 239.96L133.745 288.723L98.9766 291.88Z" fill="#25241C"/>
<path fill-rule="evenodd" clip-rule="evenodd" d="M153.279 251.042L237.614 246.895L300.985 242.915L315.495 248.153L350.008 244.277L345.645 237.059V222.681L332.579 220.468L265.569 218.844L183.494 217.692L178.396 215.896L110.74 217.692L115.544 220.468H139.46L151.43 239.324L153.279 251.042Z" fill="#25241A"/>
<path fill-rule="evenodd" clip-rule="evenodd" d="M30.5179 221.293L26.8568 223.786L23.7236 227.041L19.6636 235.224L18.229 244.277L16.8242 252.217V265.089V271.482H23.7236L36.5644 247.851L39.7409 232.084L30.5179 221.293Z" fill="#13130F"/>
<path fill-rule="evenodd" clip-rule="evenodd" d="M30.5182 221.293L23.7239 227.041L19.6639 235.224L18.2293 244.277L17.4715 272.768L10.0524 271.23L6.67625 267.702L3.13086 257.049L5.0393 207.682H25.4574V210.626L30.5182 205.359V221.293Z" fill="#FFAE1C"/>
<path fill-rule="evenodd" clip-rule="evenodd" d="M5.0393 207.682L10.0332 212.599L8.28482 270.375L3.13086 257.049L5.0393 207.682Z" fill="#D49A2A"/>
<path fill-rule="evenodd" clip-rule="evenodd" d="M8.10162 207.682V205.359H7.26953L7.26953 202.972L10.0331 202.359V204.086V208.896H8.65134L8.10162 207.682Z" fill="#E78F59"/>
<path fill-rule="evenodd" clip-rule="evenodd" d="M24.1016 207.682V205.359H23.2695L23.2695 202.972L26.0331 202.359V204.086V208.896H24.6513L24.1016 207.682Z" fill="#E78F59"/>
<path fill-rule="evenodd" clip-rule="evenodd" d="M47.5742 294.786L50.8899 298.614L67.0054 296.87L71.0428 291.88L73.0606 281.584L76.044 267.702L74.6744 255.937H53.621L50.8899 275.374L47.5742 294.786Z" fill="#2D2C27"/>
<path fill-rule="evenodd" clip-rule="evenodd" d="M47.5742 294.786L53.621 293.496L56.5185 285.727L59.4067 275.374L60.5547 265.089L59.4067 255.937H54.0644L47.5742 294.786Z" fill="#1C1B17"/>
<path fill-rule="evenodd" clip-rule="evenodd" d="M47.5742 294.786L45.1359 298.614L30.5185 300.057L23.7689 297.457L19.9168 288.723L17.4717 272.768V257.952L19.9168 242.401L26.1807 232.76L32.5229 230.985L37.9311 229.908L47.5742 239.993L52.0525 255.937V270.375L50.2215 285.567L47.5742 294.786Z" fill="#565558"/>
<path fill-rule="evenodd" clip-rule="evenodd" d="M24.9189 297.717L32.3373 298.614L36.2332 291.88L39.7416 280.111L40.9848 267.702L40.1312 254.438L37.1907 244.834L32.3373 238.149L26.2167 232.113L38.6567 229.088L47.5744 239.359L52.0526 255.937V268.963L51.0595 281.428L47.5744 294.786L44.4257 300.057H32.3373L24.9189 297.717Z" fill="#1C1B17"/>
<path fill-rule="evenodd" clip-rule="evenodd" d="M32.9127 275.437L30.5181 282.002L28.2828 284.403L24.9185 282.002L22.7988 275.437V264.572V254.842L26.5221 246.895H30.5181L32.9127 255.937V264.572V275.437Z" fill="#E68917"/>
<path fill-rule="evenodd" clip-rule="evenodd" d="M30.5181 249.716L28.2828 251.278L26.22 255.937L25.5719 263.118V270.375L26.22 275.437L28.045 279.286H31.2666L30.5181 282.002L28.2828 284.403L24.9185 282.002L22.7988 275.437V264.572V255.937L24.9185 248.981L28.2828 246.895H30.5181V249.716Z" fill="#FFAB00"/>
<path opacity="0.432687" fill-rule="evenodd" clip-rule="evenodd" d="M25.837 267.702L32.9127 255.937L30.5181 246.388L26.5221 246.895L23.803 251.535L22.7988 258.256V272.768L25.837 267.702Z" fill="#AF6400"/>
<path fill-rule="evenodd" clip-rule="evenodd" d="M129.098 331.546H135.53L141.586 325.407L145.206 314.439L148.124 301.222L151.43 272.768L150.177 254.191L145.206 246.895L141.586 239.96L135.53 237.059H129.098L123.384 242.401L118.28 254.191L115.133 267.702L113.728 282.252L115.133 300.359L118.28 314.439L123.384 328.182L129.098 331.546Z" fill="#565558"/>
<path fill-rule="evenodd" clip-rule="evenodd" d="M132.579 309.881L136.954 303.104L139.46 294.786V279.487V271.482L136.954 264.342L133.746 259.461L129.098 257.952L125.623 263.118L122.632 271.482L121.998 284.302V294.786L124.015 304.435L129.098 309.881H132.579Z" fill="#DA8C38"/>
<path fill-rule="evenodd" clip-rule="evenodd" d="M135.823 264.342L132.579 262.915L130.729 263.118L126.846 267.702L125.547 277.499V287.066V295.761L127.804 301.222L130.729 305.575L135.823 305.295L133.746 308.523L130.729 309.881L127.804 308.523L124.588 305.295L121.998 296.87V288.723V277.499L123.584 268.849L125.547 262.915L128.911 257.952L133.746 259.908L135.823 264.342Z" fill="#FFAE1C"/>
<path opacity="0.344657" fill-rule="evenodd" clip-rule="evenodd" d="M121.998 277.499L121.998 287.895L128.911 288.723L132.579 287.895L139.46 280.873V271.482L136.573 263.118C136.573 263.118 135.039 260.333 133.746 259.461C132.452 258.588 128.911 257.952 128.911 257.952L125.547 262.915L122.894 270.21L121.998 277.499Z" fill="#9A5F02"/>
<path fill-rule="evenodd" clip-rule="evenodd" d="M110.74 221.119L109.149 222.681L110.74 223.43V227.041L135.713 228.88L149.203 254.191L153.279 252.311V246.269L141.228 224.894L137.987 222.599L110.74 221.119Z" fill="#48444C"/>
<path fill-rule="evenodd" clip-rule="evenodd" d="M129.098 331.546L133.745 333.09H145.206L153.279 332.318L156.75 327.986L159.718 330.538H169.056H178.395L183.494 325.407L188.926 317.346L191.921 305.575V298.614L193.981 282.252L183.494 277.499L153.279 279.151L150.177 282.252L148.124 301.222L145.206 314.439L141.585 325.407L136.198 330.538L129.098 331.546Z" fill="#1C1B17"/>
<path fill-rule="evenodd" clip-rule="evenodd" d="M200.548 239.324L306.455 239.96L287.231 220.468H200.548V239.324Z" fill="#4C5861"/>
<path fill-rule="evenodd" clip-rule="evenodd" d="M148.177 252.311H153.279V246.269L176.829 244.473L180.111 246.269L202.816 244.473L200.549 239.96H305.331L312.001 244.473L350.008 241.984V290.874V294.539H330.589V290.874V284.148H312.001H305.331L205.193 287.422L202.816 290.874H180.111V300.186L176.829 305.575H155.149L145.206 300.186V296.706H148.177V284.148H145.206V269.294L148.177 266.968V252.311Z" fill="#F68A1F"/>
<path fill-rule="evenodd" clip-rule="evenodd" d="M312.001 284.148V244.473L306.456 239.96V282.252L312.001 284.148Z" fill="#FFC300"/>
<path fill-rule="evenodd" clip-rule="evenodd" d="M148.177 296.706H145.206V300.186L155.149 305.575V246.895H153.378V253.657L148.177 252.311V266.968L145.206 269.294V284.148H148.177V296.706Z" fill="#FD9C00"/>
<path fill-rule="evenodd" clip-rule="evenodd" d="M178.396 288.723L202.164 287.629L204.748 285.461L306.456 282.252H312.001H332.579V284.148H309.229H306.456L205.74 287.629L202.816 290.874L178.396 291.88V288.723Z" fill="#9B9B9B"/>
<path fill-rule="evenodd" clip-rule="evenodd" d="M165.382 245.264H159.718L176.972 263.118L178.395 257.165L165.382 245.264Z" fill="#272818"/>
<path fill-rule="evenodd" clip-rule="evenodd" d="M156.179 249.596L155.148 254.191L177.35 276.235L178.395 269.481L156.179 249.596Z" fill="#272816"/>
<path fill-rule="evenodd" clip-rule="evenodd" d="M155.148 267.356L178.395 288.723V282.252L155.148 259.908V267.356Z" fill="#272813"/>
<path fill-rule="evenodd" clip-rule="evenodd" d="M178.395 295.174L155.148 272.768V279.774L177.321 300.359L178.395 295.174Z" fill="#272810"/>
<path fill-rule="evenodd" clip-rule="evenodd" d="M174.854 305.575L155.148 283.997V291.88L169.057 305.575H174.854Z" fill="#27280C"/>
<path fill-rule="evenodd" clip-rule="evenodd" d="M162.747 305.575L162.089 304.822L155.148 296.87V305.575" fill="#262806"/>
<path fill-rule="evenodd" clip-rule="evenodd" d="M332.578 258.988L345.644 242.915H341.077L332.578 252.372V258.988Z" fill="#272816"/>
<path fill-rule="evenodd" clip-rule="evenodd" d="M155.148 300.359H178.395V296.87L155.148 298.614V300.359Z" fill="#D8D8D8"/>
<path fill-rule="evenodd" clip-rule="evenodd" d="M332.578 270.883L350.008 249.11V242.915L332.578 264.522V270.883Z" fill="#272813"/>
<path fill-rule="evenodd" clip-rule="evenodd" d="M332.578 282.252L350.008 260.873V253.835L332.578 276.725V282.252Z" fill="#272810"/>
<path fill-rule="evenodd" clip-rule="evenodd" d="M334.593 294.172L350.008 272.768V265.894L332.578 289.129V294.172H334.593Z" fill="#272810"/>
<path fill-rule="evenodd" clip-rule="evenodd" d="M339.112 294.172H342.803L350.008 282.252V277.242L337.508 294.172H339.112Z" fill="#27280C"/>
<path fill-rule="evenodd" clip-rule="evenodd" d="M345.645 294.172L350.008 289.056V294.172H345.645Z" fill="#27280C"/>
<path fill-rule="evenodd" clip-rule="evenodd" d="M172.021 245.264L177.395 251.042L178.395 245.264H172.021Z" fill="#272813"/>
<path fill-rule="evenodd" clip-rule="evenodd" d="M330.589 290.874L350.008 291.614V287.066L330.589 289.056V290.874Z" fill="#D8D8D8"/>
<path fill-rule="evenodd" clip-rule="evenodd" d="M238.304 276.091L239.958 274.203H272.719V275.147L238.304 276.091Z" fill="#C97118"/>
<path fill-rule="evenodd" clip-rule="evenodd" d="M200.548 239.96L232.442 239.324L217.661 220.468H200.548V239.96Z" fill="#25241D"/>
<path fill-rule="evenodd" clip-rule="evenodd" d="M205.95 285.448V244.473L200.548 239.96L202.815 244.473L203.912 288.723L205.95 285.448Z" fill="#D66C00"/>
<path fill-rule="evenodd" clip-rule="evenodd" d="M156.75 245.264V225.191L158.947 222.26L205.95 220.468V238.351L200.548 239.96L202.816 244.473L156.75 245.264Z" fill="#3F3D34"/>
<path fill-rule="evenodd" clip-rule="evenodd" d="M304.157 221.363V238.496L309.229 239.96H343.758V221.363H304.157Z" fill="#2A2820"/>
<path fill-rule="evenodd" clip-rule="evenodd" d="M166.771 226.734L169.056 224.894H181.35L183.494 226.734V235.106L181.35 237.059H171.655H169.056L166.771 226.734Z" fill="#E6E6E6"/>
<path fill-rule="evenodd" clip-rule="evenodd" d="M186.047 227.496L188.108 224.894H200.548L201.916 227.496V234.991L200.548 237.059H188.108L186.047 234.991V227.496Z" fill="#E8EBE7"/>
<path fill-rule="evenodd" clip-rule="evenodd" d="M309.229 235.64L306.456 233.389V226.085L307.842 223.835H318.032L319.358 226.085V233.389L318.032 235.64H309.229Z" fill="#CCCABD"/>
<path fill-rule="evenodd" clip-rule="evenodd" d="M323.957 235.64L321.616 233.869V226.097L323.957 223.835H333.63L334.786 226.097V233.869L333.63 235.64H323.957Z" fill="#E1E0D6"/>
<path fill-rule="evenodd" clip-rule="evenodd" d="M336.404 225.079V230.662H339.933V225.079H336.404Z" fill="#BE4C28"/>
<path fill-rule="evenodd" clip-rule="evenodd" d="M336.404 230.662V235.64L338.169 237.504H341.293L339.933 230.662H336.404Z" fill="#989794"/>
<path fill-rule="evenodd" clip-rule="evenodd" d="M165.49 224.894H160.478V232.866H165.49V224.894Z" fill="#CD4215"/>
<path fill-rule="evenodd" clip-rule="evenodd" d="M160.478 232.866V239.324H165.49V232.866H160.478Z" fill="#989794"/>
<path fill-rule="evenodd" clip-rule="evenodd" d="M304.157 239.324L287.231 221.363H304.157V239.324Z" fill="#384149"/>
<path fill-rule="evenodd" clip-rule="evenodd" d="M156.751 244.277L143.912 223.899L145.206 221.965L158.948 222.26L156.751 224.894V244.277Z" fill="#4C5964"/>
<path fill-rule="evenodd" clip-rule="evenodd" d="M273.154 275.147L273.669 248.153H272.72V273.752L273.154 275.147Z" fill="#D66C00"/>
<path opacity="0.594494" fill-rule="evenodd" clip-rule="evenodd" d="M238.304 274.203V248.153H236.923V276.235L238.304 274.203Z" fill="#D66C00"/>
<path fill-rule="evenodd" clip-rule="evenodd" d="M113.338 218.844L140.456 219.869L143.955 222.599L156.751 245.264L153.279 246.269L141.228 224.894L137.987 222.599L110.74 221.119L113.338 218.844Z" fill="#6C6A65"/>
<path fill-rule="evenodd" clip-rule="evenodd" d="M110.74 223.301V228.88L106.779 251.042L105.439 267.702H103.698L80.6474 264.342L77.584 263.199L77.584 257.974L87.9367 259.581L85.4902 242.401V236.095H87.9367L87.8724 233.121C87.8724 233.121 90.0082 235.79 90.0425 236.095C90.4481 239.697 90.0425 259.908 90.0425 259.908L103.747 263.199L103.91 248.153L109.149 222.681L110.74 223.301Z" fill="#49444D"/>
<path fill-rule="evenodd" clip-rule="evenodd" d="M79.4439 264.572L58.3538 264.97L52.0518 265.089V214.897H81.9577L79.4439 264.572Z" fill="#010101"/>
<path fill-rule="evenodd" clip-rule="evenodd" d="M52.0526 265.089H41.0658V251.042L42.9044 239.96L37.0901 228.88L30.5186 221.119V205.359L42.9044 215.894H53.6211L52.0526 265.089Z" fill="#363B42"/>
<path fill-rule="evenodd" clip-rule="evenodd" d="M53.6211 215.894H42.9044L30.5186 205.359H76.0441V212.576L81.9585 214.897L53.6211 215.894Z" fill="#6A6B6D"/>
<path fill-rule="evenodd" clip-rule="evenodd" d="M77.584 263.118L80.6474 264.342L105.439 267.702L101.815 291.88H98.9765L77.584 287.066V263.118Z" fill="#FAB045"/>
<path fill-rule="evenodd" clip-rule="evenodd" d="M90.043 259.908L103.91 263.118V246.895L90.043 236.095V259.908Z" fill="#FFAE1C"/>
<path fill-rule="evenodd" clip-rule="evenodd" d="M77.5843 257.974L87.8727 259.908V242.542H85.5899V236.095H87.8727V233.121L76.0439 224.894L77.5843 257.974Z" fill="#FFAE1C"/>
<path fill-rule="evenodd" clip-rule="evenodd" d="M90.0428 236.095L103.91 246.895L105.439 243.803L76.0439 221.119V224.894L90.0428 236.095Z" fill="#4A444E"/>
<path fill-rule="evenodd" clip-rule="evenodd" d="M156.751 224.894L159.718 221.965H205.951L201.916 220.468H192.469L145.206 221.119V221.965L156.751 222.681V224.894Z" fill="#666356"/>
<path fill-rule="evenodd" clip-rule="evenodd" d="M287.231 221.363H301.884L304.157 223.835L306.456 221.965L343.758 221.363L337.508 220.468L316.398 219.426L292.18 219.426L287.231 221.363Z" fill="#666354"/>
<path fill-rule="evenodd" clip-rule="evenodd" d="M103.91 244.277L76.0439 221.965V217.692H100.743L109.15 222.681L105.439 244.277H103.91Z" fill="#4C4B4D"/>
<path fill-rule="evenodd" clip-rule="evenodd" d="M76.0439 219.508L100.16 220.468L108.341 224.894L109.15 222.201L100.743 217.692H76.0439V219.508Z" fill="#6C6A64"/>
<path opacity="0.663318" fill-rule="evenodd" clip-rule="evenodd" d="M90.0426 220.468V259.908H88.8856V242.401H85.4902V236.095H87.7664L88.8856 234.007V220.468H90.0426Z" fill="#25241B"/>
<path opacity="0.872349" fill-rule="evenodd" clip-rule="evenodd" d="M73.8885 177.788L53.6211 180.668V205.359H76.0441L73.8885 177.788Z" fill="#FFC347"/>
<path fill-rule="evenodd" clip-rule="evenodd" d="M53.6208 180.668L50.8896 187.405V205.359H53.6208V180.668Z" fill="#2E3238"/>
<path fill-rule="evenodd" clip-rule="evenodd" d="M61.1953 203.221V182.624L72.0999 180.668L73.0602 203.221H61.1953Z" fill="#353B43"/>
<path opacity="0.553688" fill-rule="evenodd" clip-rule="evenodd" d="M156.751 224.894L159.718 221.965H145.206L143.912 223.43L156.751 224.894Z" fill="#8299AB"/>
<path fill-rule="evenodd" clip-rule="evenodd" d="M115.544 215.894V197.22L113.337 177.788L109.15 159.925L103.513 148.844C103.513 148.844 102.859 147.229 103.513 146.334C103.75 146.011 107.682 145.235 107.682 145.235L109.15 144.357L100.204 143.755L94.162 143.116L81.9582 145.235L77.5841 156.63L74.6445 173.762V180.668L76.0438 212.576L79.4244 215.894L81.9582 217.692H100.743L109.15 222.681L113.337 218.844L115.544 215.894Z" fill="#353436"/>
<path opacity="0.218029" fill-rule="evenodd" clip-rule="evenodd" d="M90.7412 213.358H100.228L106.798 208.556V196.754L103.909 177.788L90.7412 178.958V213.358Z" fill="#D8D8D8"/>
<path fill-rule="evenodd" clip-rule="evenodd" d="M90.7412 171.088H96.9759L98.9763 162.439L92.5964 149.81H90.7412V171.088Z" fill="#616065"/>
<path fill-rule="evenodd" clip-rule="evenodd" d="M79.0289 211.971L81.958 214.897H87.7664L87.8724 199.609L86.7801 197.704V196.041L87.8724 195.573L87.7664 176.363L77.584 178.993L79.0289 211.971Z" fill="#616065"/>
<path fill-rule="evenodd" clip-rule="evenodd" d="M77.584 172.614L86.4711 173.747L85.9631 170.04L88.777 169.564V149.81L85.9631 150.049L82.7282 149.81L78.9528 158.271L78.3141 168.176L77.584 172.614Z" fill="#616065"/>
<path fill-rule="evenodd" clip-rule="evenodd" d="M92.5967 181.745V209.311L93.2428 211.414H98.7698L104.587 207.324L105.439 196.781L102.584 180.668L92.5967 181.745Z" fill="#9A9899"/>
<path fill-rule="evenodd" clip-rule="evenodd" d="M92.5967 170.04H99.8312L100.865 163.415L94.162 149.81H92.5967V170.04Z" fill="#BCBAB8"/>
<path fill-rule="evenodd" clip-rule="evenodd" d="M78.9531 172.438V168.917L80.3792 159.925L83.7429 151.57H87.8727V168.917H85.4905V172.438H78.9531Z" fill="#BCBAB8"/>
<path fill-rule="evenodd" clip-rule="evenodd" d="M87.8727 213.358H81.9583L80.271 210.626L78.9531 179.543L86.7029 177.788V194.319L85.4905 197.22L87.7667 200.915L87.8727 213.358Z" fill="#9A9899"/>
<path opacity="0.830985" fill-rule="evenodd" clip-rule="evenodd" d="M96.731 144.357L103.91 154.476L107.968 165.796L110.74 177.788L113.727 193.014V207.682V217.692L110.74 220.468V207.682V193.014L109.15 179.543L106.27 166.505L102.506 155.971L94.8594 144.357H96.731Z" fill="#25241B"/>
<path fill-rule="evenodd" clip-rule="evenodd" d="M115.544 206.672L118.062 209.381L121.56 212.299L175.133 211.414L176.785 206.672L175.578 191.573L172.021 176.363L165.491 162.004L159.718 151.57L151.727 146.334H156.75L162.984 151.57L169.056 162.004L175.578 173.747L180.2 191.573L181.35 210.626V218.844H132.009H115.544V206.672Z" fill="#353436"/>
<path fill-rule="evenodd" clip-rule="evenodd" d="M116.585 212.132L118.242 215.332L121.798 215.896L175.578 215.332L179.158 211.414V205.223L177.897 192.401L176.939 194.409L177.897 205.223V210.25L175.578 213.358L121.798 214.223L119.132 213.358L116.585 211.414V212.132Z" fill="#141515"/>
<path fill-rule="evenodd" clip-rule="evenodd" d="M118.062 209.381V211.414L121.204 213.358L175.133 212.27L177.315 208.567L176.345 207.63L174.113 210.494L121.204 212.27L118.062 209.381Z" fill="#6B6A6B"/>
<path fill-rule="evenodd" clip-rule="evenodd" d="M153.279 146.334L160.477 151.57L165.49 160.449L171.812 173.747L175.578 187.481L176.938 194.409L177.315 208.567L176.344 207.63L175.578 194.409L174.107 187.481L170.534 173.747L164.397 161.778L159.718 153.064L151.814 146.334H153.279Z" fill="#6B6A6B"/>
<path fill-rule="evenodd" clip-rule="evenodd" d="M110.099 163.933L131.2 165.124L134.546 168.253L133.745 171.088L132.009 173.747L112.227 172.438L113.727 180.668H129.512L132.009 182.898V193.014V212.167L169.056 210.626L165.491 201.031L162.984 199.374L155.148 203.221L141.585 201.031L139.898 180.668H151.429L158.947 176.363L166.772 182.898H170.364H172.021L166.772 171.088H159.718L153.279 172.438L141.585 173.747V167.5L145.205 163.933L148.447 160.449L156.75 170.04H158.947L151.429 160.449L156.75 151.57L153.279 146.334L106.965 145.957H103.503L102.415 147.558L109.149 159.925L110.099 163.933Z" fill="#605F72"/>
<path fill-rule="evenodd" clip-rule="evenodd" d="M104.294 144.357L156.751 146.334V147.558H154.67L103.91 145.957L104.294 144.357Z" fill="#353436"/>
<path fill-rule="evenodd" clip-rule="evenodd" d="M112.934 173.747H132.01L135.596 168.455L134.73 165.329L110.74 163.933V167.5L112.934 173.747Z" fill="#C0C0C0"/>
<path fill-rule="evenodd" clip-rule="evenodd" d="M133.745 211.816V200.961L128.282 190.534L123.168 180.668L113.728 179.882V182.412H118.842L125.041 193.612L127.043 203.221V212.167L133.745 211.816Z" fill="#FFAB00"/>
<path fill-rule="evenodd" clip-rule="evenodd" d="M162.984 143.116L181.35 149.81L202.236 135.115L205.95 132.52L370.556 99.3784L376.7 98.1415V93.5161H380.791L382.486 90.1249L376.7 89.978L370.844 87.0428L368.028 88.8553C368.028 88.8553 302.536 103.6 269.881 111.518C237.225 119.436 239.29 120.07 239.29 120.07L232.442 117.792L179.629 131.445L162.984 143.116Z" fill="#E29032"/>
<path fill-rule="evenodd" clip-rule="evenodd" d="M127.043 212.167L121.561 212.299L118.062 209.381L115.545 206.672V197.22L114.818 191.3L113.728 182.412H118.842L125.041 193.612L127.043 203.221V212.167Z" fill="#9A9899"/>
<path fill-rule="evenodd" clip-rule="evenodd" d="M139.898 180.668L141.586 201.031L155.148 203.221L162.985 199.374L165.491 201.031L168.844 210.494H174.113L176.345 207.63L175.578 194.409L170.535 173.747L159.718 153.064L155.148 148.943L156.75 151.57L151.43 160.449L158.948 170.04H156.75L148.447 160.449L141.586 167.5V173.747L153.279 172.438L159.718 171.088H166.772L172.021 182.589L166.772 182.898L158.948 176.363L151.43 180.668H139.898Z" fill="#D8D8D8"/>
<path fill-rule="evenodd" clip-rule="evenodd" d="M123.168 180.668L132.579 199.027V182.898L130.33 179.882L123.168 180.668Z" fill="#D8D8D8"/>
<path fill-rule="evenodd" clip-rule="evenodd" d="M200.548 217.692V213.358L251.829 147.558V144.357L245.121 137.448H241.151L236.923 145.957L197.521 199.027H193.981V189.455L222.905 147.558L225.538 144.357L222.905 140.933L216.495 137.448H213.211L211.248 143.116L190.489 173.747L188.183 161.294L186.047 157.314H190.489L188.183 154.321H186.047L181.35 148.943L172.021 144.357L162.985 143.116L153.279 144.357L158.948 147.558L175.133 177.451L181.35 205.896L179.158 217.692H200.548Z" fill="#E6A345"/>
<path fill-rule="evenodd" clip-rule="evenodd" d="M186.047 176.363L176.345 167.5L171.072 163.933L166.772 155.048V151.996L164.565 144.357L181.351 148.943L186.047 156.091L189.066 171.089L186.047 176.363Z" fill="#DA7500"/>
<path fill-rule="evenodd" clip-rule="evenodd" d="M200.548 217.692V213.358L250.349 149.976L251.829 147.558L247.607 148.943H244.303L241.562 147.558L203.249 199.027L193.981 210.494L190.075 212.167L184.931 211.373V205.132L188.314 197.356L222.905 147.558L217.661 148.943L214.484 146.334L186.047 189.455L183.494 186.85V184.811L181.35 189.455V195.573V205.896L179.158 217.692H200.548Z" fill="#CE7900"/>
<path opacity="0.461937" fill-rule="evenodd" clip-rule="evenodd" d="M162.984 148.943L166.772 153.969L176.345 155.048L177.315 153.969L179.158 149.81L175.578 151.996H167.853L162.984 148.943Z" fill="#655B50"/>
<path fill-rule="evenodd" clip-rule="evenodd" d="M221.078 145.957L227.494 137.448L224.177 136.471L221.912 135.447L220.493 132.297L215.124 141.147L216.082 144.357L218.282 145.957H221.078Z" fill="#68696B"/>
<path opacity="0.555013" fill-rule="evenodd" clip-rule="evenodd" d="M221.078 145.957L227.493 137.448L225.039 136.929L218.838 145.957H221.078Z" fill="#1F2027"/>
<path fill-rule="evenodd" clip-rule="evenodd" d="M241.695 142.466V144.997L243.888 147.008L246.736 148.168L257.145 136.364L255.431 134.572L253.538 134.091L252.538 132.297V128.262L251.208 127.305L250.313 130.706L241.695 142.466Z" fill="#68696B"/>
<path opacity="0.803478" fill-rule="evenodd" clip-rule="evenodd" d="M246.736 148.168L257.145 136.364L254.704 134.81L244.75 147.302L246.736 148.168Z" fill="#3F4046"/>
<path fill-rule="evenodd" clip-rule="evenodd" d="M216.082 143.732L221.913 135.447L220.494 132.297L214.707 141.443L216.082 143.732Z" fill="#929396"/>
<path fill-rule="evenodd" clip-rule="evenodd" d="M220.493 132.297L221.912 135.447L224.101 137.448L226.344 137.736H228.352L229.61 135.447L230.861 133.4L234.166 129.638L233.66 128.312L232.365 127.305H230.861L227.33 132.297L225.802 132.52L225.159 130.937L223.166 129.638L221.309 130.472L220.493 132.297Z" fill="#F4B771"/>
<path fill-rule="evenodd" clip-rule="evenodd" d="M221.308 130.472L221.912 132.52L224.414 133.995L227.329 132.52L229.407 129.318L230.861 127.305H232.365V129.318L229.407 132.52L230.861 133.995L232.365 132.52L235.637 130.65L238.04 127.305L241.695 125.092L244.749 123.487L247.687 125.092L249.419 129.318L252.538 132.297L254.704 134.81L258.735 137.448L263.279 132.52L267.277 127.305L270.521 125.092L275.416 122.211H278.651L271.405 117.151L265.993 112.264L254.704 114.786L242.511 118.778H230.861L218.838 122.211L221.308 125.092V130.472Z" fill="#8C2A0E"/>
<path fill-rule="evenodd" clip-rule="evenodd" d="M224.101 131.856H225.782L227.493 129.799L229.707 127.305L231.554 124.856H233.605L236.286 126.725L237.32 128.356L233.605 131.856L230.71 134.245L229.707 133.106L232.807 129.55V127.305L231.554 127.761L229.177 129.799L225.782 133.575L224.55 134.245L222.685 133.575L221.309 131.856V130.472L222.685 131.244L224.101 131.856Z" fill="#A05F4A"/>
<path fill-rule="evenodd" clip-rule="evenodd" d="M232.366 132.52L237.32 127.858L241.695 124.856L244.75 123.487L247.943 119.549L245.686 117.792L241.091 118.25L235.403 121.964L231.93 125.156L233.21 127.858L232.366 130.125L230.638 132.297L232.366 132.52Z" fill="#5C220E"/>
<path fill-rule="evenodd" clip-rule="evenodd" d="M257.144 136.364L254.704 134.81L253.005 132.52L262.33 123.819L266.07 121.685L269.286 122.505V123.819L264.5 129.55L257.144 136.364Z" fill="#631D05"/>
<path fill-rule="evenodd" clip-rule="evenodd" d="M247.718 132.52L249.419 134.81L251.828 136.364L254.782 139.127C254.782 139.127 256.076 138.915 256.524 138.391C256.971 137.868 257.144 136.364 257.144 136.364L256.524 135.557L258.546 133.083L260.604 130.571L260.299 129.55L259.113 129.55L256.837 131.89L254.782 134.245L253.005 132.52L250.598 129.977H249.15L247.718 132.52Z" fill="#FDB564"/>
<path fill-rule="evenodd" clip-rule="evenodd" d="M272.479 112.264V114.327L277.32 117.792V121.685L278.652 125.156L281.175 127.305H284.284L285.534 124.856L288.079 126.218H291.138L293.286 122.718L294.416 118.04L294.639 114.696L296.846 110.87L298.2 110.581L299.289 119.087L301.318 115.5L303.508 112.264L307.578 110.87L303.508 108.209V104.313L272.479 112.264Z" fill="#981F00"/>
<path fill-rule="evenodd" clip-rule="evenodd" d="M278.652 122.211L280.113 124.856H282.103L283.696 122.211V120.119V117.792H285.512V121.324L286.291 122.881H288.184L290.029 122.211L291.2 120.119V115.809H293.769L292.193 122.211L290.029 124.206L288.184 124.856L285.512 124.206L283.696 125.895L281.175 127.305L278.652 125.895L277.608 123.616L278.652 122.211Z" fill="#AA5B44"/>
<path fill-rule="evenodd" clip-rule="evenodd" d="M279.077 118.335L280.295 117.792L281.455 118.818V120.305V121.685L280.295 123.117L279.077 123.459L278.308 122.349V120.626L279.077 118.335Z" stroke="#979797"/>
<path fill-rule="evenodd" clip-rule="evenodd" d="M287.593 117.223L286.894 117.792L286.188 118.42V119.47V120.626L286.891 122.42H288.211L289.571 120.626V118.791V117.223H287.593Z" stroke="#979797"/>
<path fill-rule="evenodd" clip-rule="evenodd" d="M293.285 122.718L294.465 118.446V115.173L295.587 112.264L296.942 110.581H298.493L299.168 112.831V117.223V119.821L298.493 119.193L297.728 115.809L296.226 116.649L295.587 119.193L294.465 123.459L293.285 122.718Z" fill="#6B1600"/>
<path fill-rule="evenodd" clip-rule="evenodd" d="M121.998 129.55H115.545V127.227H118.144V125.015L117.301 124.125H114.334V123.015L117.301 122.07L118.862 115.053V113.043H117.301V111H119.479V109.067L118.862 106.839L120.358 106.1V100.368H121.998V97.2786H124.732V100.368L133.063 101.425L148.448 103.125L150.236 101.425L152.482 102.021L153.28 99.8522L156.934 104.07L151.815 113.043L123.737 129.55H121.998Z" fill="#373737"/>
<path fill-rule="evenodd" clip-rule="evenodd" d="M127.043 130.593L121.998 129.55L127.873 103.125L148.934 106.125L142.043 124.125L127.043 130.593Z" fill="#E97000"/>
<path fill-rule="evenodd" clip-rule="evenodd" d="M287.879 139.981H293.769L296.967 138.015L298.041 134.81V123.459L298.493 119.193L296.967 115.809L295.626 117.792L293.769 123.459V130.572H289.571V127.305V126.154L286.188 125.156V133.665V136.929L287.879 139.981Z" fill="#F1A128"/>
<path fill-rule="evenodd" clip-rule="evenodd" d="M291.684 139.531L295.006 136.364L295.788 134.339L296.227 127.305L296.804 116.309L298.493 119.193V124.401L298.003 135.825L296.804 138.396L294.32 139.981H291.684V139.531Z" fill="#DA7500"/>
<path fill-rule="evenodd" clip-rule="evenodd" d="M293.286 131.445V137.448L292.341 137.736V131.445H293.286Z" fill="#E97000"/>
<path fill-rule="evenodd" clip-rule="evenodd" d="M295.089 139.981V144.357L298.493 148.168L300.707 153.241V160.36L299.169 166.217L296.227 170.673L292.341 172.137H287.88L284.799 168.453L283.371 163.933L284.106 151.479L286.189 150.167L289.571 151.989L287.88 156.661V158.634L289.031 161.886L292.314 162.632L292.341 157.626L291.684 153.241L289.571 150.167L288.544 147.559L287.88 141.443L289.571 139.981H295.089Z" fill="#68696B"/>
<path fill-rule="evenodd" clip-rule="evenodd" d="M292.814 139.981H295.089V144.357L297.755 148.168L300.707 153.241V161.431L299.169 166.217L296.227 170.673L293.769 172.137H290.029H287.88L285.113 169.33L283.371 164.917L284.137 162.407H285.113L286.189 166.217L287.277 169.33L290.029 170.673L292.814 170.101L295.089 168.287L297.755 164.052L298.493 160.051V154.591L297.032 150.47L294.309 147.239L292.814 145.957V142.251V139.981Z" fill="#352E2B"/>
<path fill-rule="evenodd" clip-rule="evenodd" d="M287.146 158.682L287.879 162.644L288.729 163.552L290.689 164.271L293.769 162.644L294.335 159.672V157.032L293.769 154.03L292.341 151.203L290.028 149.198V146.334L292.341 149.198L294.335 152.077L295.088 154.771L295.684 157.771L295.088 160.718L294.335 163.552L292.038 165.211H290.689L288.729 164.735L287.146 163.552L286.188 160.718L287.146 158.682Z" fill="#46474D"/>
<path fill-rule="evenodd" clip-rule="evenodd" d="M290.029 131.445H291.684V137.736L289.571 137.448L290.029 131.445Z" fill="#FFBE53"/>
<path fill-rule="evenodd" clip-rule="evenodd" d="M336.359 151.508L335.213 154.465V155.773L338.466 158.706L340.981 161.72V166.111V173.204L338.466 177.57L332.667 182.013L329.242 180.815L325.026 176.126L324.121 170.798L325.026 161.72L328.246 164.386V166.111V169.243L329.242 172.137H330.285H331.268L332.502 170.798L333.984 168.414V164.386L332.502 160.559L329.242 157.44L328.246 153.591L326.539 150.193V138.443V129.55L330.285 123.459L332.667 122.42L336.84 124.856L338.466 130.507V149.354L336.359 151.508ZM335.212 141.984H329.719V130.593L335.212 131.445V141.984Z" fill="#4E4F51"/>
<path fill-rule="evenodd" clip-rule="evenodd" d="M325.657 172.914L327.514 176.659L329.719 178.366L332.023 179.781L334.343 178.366L337.381 176.347L338.323 172.914L339.04 170.536V165.211V162.924L337.381 160.504L335.212 158.077L333.535 156.81V155.355L333.971 153.985H334.864V156.059L337.381 158.701L340.345 161.629V165.211V171.162L339.582 174.526L337.732 177.733L333.001 181.26L330.712 180.785L329.069 179.781L326.786 177.733L325.657 175.839V172.914Z" fill="#362D2B"/>
<path fill-rule="evenodd" clip-rule="evenodd" d="M320.881 107.724L317.503 104.313L347.23 97.5295L350.154 101.07L320.881 107.724Z" fill="#1C1C1C"/>
<path fill-rule="evenodd" clip-rule="evenodd" d="M333.491 153.584L337.03 149.442V143.301L337.598 131.445L337.03 128.145L335.545 125.38L334.284 124.856L336.113 129.435L336.526 132.193L336.113 143.301V148.806L333.001 152.217L333.491 153.584Z" fill="#332E2D"/>
<path fill-rule="evenodd" clip-rule="evenodd" d="M329.719 142.545C329.719 142.545 329.624 143.59 330.374 144.847C331.124 146.104 332.465 147.149 332.465 147.149H334.089L334.631 144.847L334.668 142.545H329.719Z" fill="#39393F"/>
<path fill-rule="evenodd" clip-rule="evenodd" d="M330.482 130.593C330.482 130.593 328.954 129.744 328.287 128.861C327.621 127.979 327.078 126.087 327.078 126.087L326.636 122.42V118.585V114.903L328.987 113.106V111.164L327.811 109.126V105.339L328.987 103.751L342.013 100.368L342.698 102.716L342.013 106.346L340.344 109.672V111.688L342.013 112.264V115.809L338.936 119.296V123.459L338.228 127.305L336.899 125.156L335.851 124.166V119.821H330.482C330.482 119.821 329.718 122.332 329.718 123.459C329.718 124.587 334.631 130.593 334.631 130.593H330.482Z" fill="#5D5F63"/>
<path fill-rule="evenodd" clip-rule="evenodd" d="M336.926 124.242L337.598 121.557V118.717L338.174 117.02L340.345 114.947L339.874 111.684L342.014 112.264V116.309L339.874 118.717L339.47 119.821V122.42L338.174 127.305L336.926 124.242Z" fill="#362D2B"/>
<path fill-rule="evenodd" clip-rule="evenodd" d="M328.354 108.947L330.366 110.581L334.088 111.684H336.925L338.977 110.581L341.45 106.984L340.981 110.581L338.977 112.955L336.925 113.836H334.088H332.465L329.718 112.264L327.812 109.126L328.354 108.947Z" fill="#323339"/>
<path fill-rule="evenodd" clip-rule="evenodd" d="M162.985 143.732L181.351 131.445L218.839 122.42L232.443 117.792L239.29 119.494L247.607 117.792L265.994 112.264L335.3 97.4442L371.099 88.8553V70.3582L363.975 42.5466V39.4441H371.099H380.791V35.7754L355.141 31.7662L343.758 37.607L338.849 48.1853L261.146 70.3582L260.605 67.6779L254.162 70.3582L255.487 72.3822L216.496 84.2051L176.816 97.4442L156.751 104.313L148.448 106.984L135.596 110.41L131.215 110.581L127.873 113.836L127.043 130.593L123.168 136.364L121.998 141.489L130.729 141.443V143.732H162.985Z" fill="#ECB369"/>
<path fill-rule="evenodd" clip-rule="evenodd" d="M181.35 131.445L186.22 106.984V100.368H183.785V106.984L179.158 132.52L181.35 131.445Z" fill="#E19941"/>
<path fill-rule="evenodd" clip-rule="evenodd" d="M230.638 117.02L239.29 106.015V117.02H230.638Z" fill="#E97000"/>
<path fill-rule="evenodd" clip-rule="evenodd" d="M226.471 117.792L233.385 108.262V111.518L228.52 117.792H226.471Z" fill="#E97000"/>
<path fill-rule="evenodd" clip-rule="evenodd" d="M217.013 119.821L223.789 110.125L224.603 112.264L220.493 119.821H217.013Z" fill="#E97000"/>
<path fill-rule="evenodd" clip-rule="evenodd" d="M221.912 118.872L229.314 109.456V111.518L224.603 118.872H221.912Z" fill="#E97000"/>
<path fill-rule="evenodd" clip-rule="evenodd" d="M239.29 115.809L312.001 98.9009L321.616 79.0599L323.957 81.3361L312.907 100.368L241.695 117.223L239.29 115.809Z" fill="#EC9625"/>
<path fill-rule="evenodd" clip-rule="evenodd" d="M321.964 87.7492L318.711 93.5161L346.936 86.6049V81.9572L321.964 87.7492Z" fill="#1A1916"/>
<path fill-rule="evenodd" clip-rule="evenodd" d="M357.409 92.5283L355.909 93.5161L354.08 93.0222V87.7492V73.5692L350.922 63.2394L346.936 59.2456L344.21 57.8188L345.573 63.2394L346.936 70.0271V93.5161L349.615 98.1414L354.08 100.368L357.409 98.1414L361.573 94.4634L357.409 92.5283Z" fill="#EC9625"/>
<path fill-rule="evenodd" clip-rule="evenodd" d="M355.266 53.3222L360.715 68.5731L359.86 91.2723L361.573 94.4634L364.662 96.6318H368.7L372.149 95.3001V92.1975L368.7 90.1296L365.415 88.7931L366.819 71.562L359.86 46.2151V39.6584L363.974 39.4441H382.486L382.855 35.7784L355.266 31.7662V53.3222Z" fill="#DC7831"/>
<path fill-rule="evenodd" clip-rule="evenodd" d="M350.922 63.2395L346.936 59.2456L344.21 57.8188L355.266 53.3222L356.768 56.7142L357.658 61.2219L350.922 63.2395Z" fill="#AF5515"/>
<path fill-rule="evenodd" clip-rule="evenodd" d="M344.21 57.8188L355.266 53.3222L355.141 31.7662L342.699 36.9096L344.21 57.8188Z" fill="#FFA050"/>
<path fill-rule="evenodd" clip-rule="evenodd" d="M344.21 46.4281L346.936 49.4649H348.982L352.891 46.4281L353.881 39.8784L350.934 36.6509L349.045 44.7925L346.185 46.4281H344.21Z" fill="#EB730F"/>
<path fill-rule="evenodd" clip-rule="evenodd" d="M344.79 46.3481L348.982 44.7925L350.934 37.6292L349.75 36.0179H347.862L344.79 36.6509L344.21 39.7586L343.525 43.0579L344.79 46.3481Z" fill="#F4B861"/>
<path fill-rule="evenodd" clip-rule="evenodd" d="M315.619 77.9909H313.44L312.402 79.0933V80.5915V81.9572L310.979 79.9741V77.9909L312.402 75.7656H314.786L315.619 77.9909Z" fill="#FC881C"/>
<path fill-rule="evenodd" clip-rule="evenodd" d="M161.602 143.116L165.303 139.58L166.977 135.676L167.68 130.041L168.218 126.499H169.153L168.682 130.588L167.68 135.676L166.241 140.384L162.984 143.732L161.602 143.116Z" fill="#EC9625"/>
<path fill-rule="evenodd" clip-rule="evenodd" d="M148.447 138.136L159.803 135.115H161.602L150.203 139.422L148.447 138.136Z" fill="#E97000"/>
<path fill-rule="evenodd" clip-rule="evenodd" d="M201.616 110.125L203.538 108.262V106.015H201.616L199.629 109.456L201.616 110.125Z" fill="#F09F51"/>
<path fill-rule="evenodd" clip-rule="evenodd" d="M200.934 106.978L201.583 106.015L203.538 106.015V108.07L202.236 107.043L200.934 106.978Z" fill="#DC8C3E"/>
<path fill-rule="evenodd" clip-rule="evenodd" d="M214.616 106.125L216.538 104.262V102.015H214.616L212.629 105.456L214.616 106.125Z" fill="#F09F51"/>
<path fill-rule="evenodd" clip-rule="evenodd" d="M213.934 102.978L214.583 102.015L216.538 102.015V104.07L215.236 103.043L213.934 102.978Z" fill="#DC8C3E"/>
<path fill-rule="evenodd" clip-rule="evenodd" d="M227.616 103.125L229.538 101.262V99.0155H227.616L225.629 102.456L227.616 103.125Z" fill="#F09F51"/>
<path fill-rule="evenodd" clip-rule="evenodd" d="M226.934 99.9776L227.583 99.0155L229.538 99.0155V101.07L228.236 100.043L226.934 99.9776Z" fill="#DC8C3E"/>
<path fill-rule="evenodd" clip-rule="evenodd" d="M242.616 99.1249L244.538 97.2622V95.0155H242.616L240.629 98.4559L242.616 99.1249Z" fill="#F09F51"/>
<path fill-rule="evenodd" clip-rule="evenodd" d="M241.934 95.9776L242.583 95.0155L244.538 95.0155V97.0702L243.236 96.0428L241.934 95.9776Z" fill="#DC8C3E"/>
<path fill-rule="evenodd" clip-rule="evenodd" d="M256.616 95.1249L258.538 93.2622V91.0155H256.616L254.629 94.4559L256.616 95.1249Z" fill="#F09F51"/>
<path fill-rule="evenodd" clip-rule="evenodd" d="M255.934 91.9776L256.583 91.0155L258.538 91.0155V93.0702L257.236 92.0428L255.934 91.9776Z" fill="#DC8C3E"/>
<path fill-rule="evenodd" clip-rule="evenodd" d="M273.616 90.1249L275.538 88.2622V86.0155H273.616L271.629 89.4559L273.616 90.1249Z" fill="#F09F51"/>
<path fill-rule="evenodd" clip-rule="evenodd" d="M272.934 86.9776L273.583 86.0155L275.538 86.0155V88.0702L274.236 87.0428L272.934 86.9776Z" fill="#DC8C3E"/>
<path fill-rule="evenodd" clip-rule="evenodd" d="M177.616 116.125L179.538 114.262V112.015H177.616L175.629 115.456L177.616 116.125Z" fill="#F09F51"/>
<path fill-rule="evenodd" clip-rule="evenodd" d="M176.934 112.978L177.583 112.015L179.538 112.015V114.07L178.236 113.043L176.934 112.978Z" fill="#DC8C3E"/>
<path fill-rule="evenodd" clip-rule="evenodd" d="M167.616 120.125L169.538 118.262V116.015H167.616L165.629 119.456L167.616 120.125Z" fill="#F09F51"/>
<path fill-rule="evenodd" clip-rule="evenodd" d="M166.934 116.978L167.583 116.015L169.538 116.015V118.07L168.236 117.043L166.934 116.978Z" fill="#DC8C3E"/>
<path fill-rule="evenodd" clip-rule="evenodd" d="M157.616 122.125L159.538 120.262V118.015H157.616L155.629 121.456L157.616 122.125Z" fill="#F09F51"/>
<path fill-rule="evenodd" clip-rule="evenodd" d="M156.934 118.978L157.583 118.015L159.538 118.015V120.07L158.236 119.043L156.934 118.978Z" fill="#DC8C3E"/>
<path fill-rule="evenodd" clip-rule="evenodd" d="M149.616 124.125L151.538 122.262V120.015H149.616L147.629 123.456L149.616 124.125Z" fill="#F09F51"/>
<path fill-rule="evenodd" clip-rule="evenodd" d="M148.934 120.978L149.583 120.015L151.538 120.015V122.07L150.236 121.043L148.934 120.978Z" fill="#DC8C3E"/>
<path fill-rule="evenodd" clip-rule="evenodd" d="M371.099 88.8553L372.344 70.2735L365.425 44.7925V42.0749H368.885L379.118 39.4442H363.975V44.7925L371.099 70.2735L368.885 88.8553H371.099Z" fill="#FFCD8C"/>
<path fill-rule="evenodd" clip-rule="evenodd" d="M162.984 143.732L181.35 149.81L202.554 135.115L201.583 132.52L181.35 131.445L162.984 143.732Z" fill="#AE5600"/>
<path fill-rule="evenodd" clip-rule="evenodd" d="M370.843 87.0429L376.7 90.125H382.486L380.791 93.5162H376.7V99.125V106.984L378.779 111.684H384.946L390.975 100.368L394.295 91.0155H398.034L406.967 87.7367V93.0702L417.188 93.5162V87.7367L421.281 86.0155V88.5155L431.432 90.125V78.8614H435.535L436.774 81.9573L445.944 83.6143V75.7656H451.376V78.8614L458.036 81.9573L459.775 75.7656L458.036 25.1931L434.278 33.1735L404.059 41.183L396.122 33.1735L392.523 36.0179L368.884 42.0749H365.425V46.3481L372.344 70.2735L370.843 87.0429Z" fill="#3B3B3B"/>
<path fill-rule="evenodd" clip-rule="evenodd" d="M372.344 83.6143L375.625 86.0155L393.065 81.9573L430.315 72.7512L441.375 70.1836L447.72 68.4383L454.114 75.7656H459.775L458.036 81.9573L451.576 79.0933V75.7656H445.938L405.349 88.8553L393.065 92.0428L385.212 111.518H379.042L386.654 98.1414L389.503 89.978L379.042 91.0155L370.844 87.0428L372.344 83.6143Z" fill="#2A2828"/>
<path fill-rule="evenodd" clip-rule="evenodd" d="M386.654 85.3053L385.079 81.9573L385.866 66.387L382.487 53.3222L380.791 58.2808L382.487 65.2285V85.3053L383.722 87.7367L385.866 92.1803L386.654 85.3053Z" fill="#1C1C1C"/>
<path fill-rule="evenodd" clip-rule="evenodd" d="M394.757 84.6173V63.2395L393.065 55.1102L394.757 49.4649L398.598 63.2395V79.0933H401.614L403.961 81.9573V86.0155L394.757 84.6173Z" fill="#1C1C1C"/>
<path fill-rule="evenodd" clip-rule="evenodd" d="M415.529 48.189L417.358 55.8094L416.444 75.7656L417.358 79.0933L420.091 81.9573L421.281 88.5155L431.432 90.1249V78.8614H427.058L423.481 77.1403V75.7656H429.179V72.7513H420.091L421.281 55.8094L416.444 43.0579L415.529 48.189Z" fill="#1C1C1C"/>
<path fill-rule="evenodd" clip-rule="evenodd" d="M435.325 77.3979L431.432 72.7512V51.0345L430.314 39.4441L432.82 36.6509L434.308 49.4649V70.1836H438.307L440.507 72.7512V77.3979L445.937 78.8614V83.6143L436.773 81.9572L435.325 77.3979Z" fill="#1C1C1C"/>
<path opacity="0.333891" fill-rule="evenodd" clip-rule="evenodd" d="M382.486 53.3222L385.34 64.199L385.079 81.9573L387.937 80.6821V64.1497L383.722 50.6727L382.486 53.3222Z" fill="#6E6D6E"/>
<path opacity="0.347749" fill-rule="evenodd" clip-rule="evenodd" d="M398.513 78.8614V63.2395L394.757 49.4649L396.635 46.3481L400.888 63.2395V77.2588L402.242 78.8614L400.888 79.0933L398.513 78.8614Z" fill="#6E6D6E"/>
<path opacity="0.377976" fill-rule="evenodd" clip-rule="evenodd" d="M416.444 43.0579L421.282 55.8094L420.091 72.7513H422.398L423.481 55.8094L418.58 43.0579H416.444Z" fill="#6E6D6E"/>
<path opacity="0.235026" fill-rule="evenodd" clip-rule="evenodd" d="M432.82 36.6509L434.778 53.3222L434.309 70.1836H436.394V53.3222L434.309 36.6509H432.82Z" fill="#6E6D6E"/>
<path fill-rule="evenodd" clip-rule="evenodd" d="M394.757 36.0179L402.242 57.8188V72.7513V78.8614L405.591 77.1067V57.4397L402.242 41.183L394.757 36.0179Z" fill="#252323"/>
<path fill-rule="evenodd" clip-rule="evenodd" d="M441.374 70.1836L447.426 67.7402L454.619 77.0657L491.483 70.1836L500.376 55.2076V29.6203L496.987 8.43284L494.977 4.88864L491.483 3.10632L464.679 10.5837L447.426 36.0179H445.937L438.126 36.6509L440.046 50.6727L441.374 70.1836Z" fill="#F5B25B"/>
<path fill-rule="evenodd" clip-rule="evenodd" d="M440.603 62.7207L467.193 10.2897H464.536L447.426 36.0179L441.336 46.3481L439.532 49.4649L440.603 62.7207Z" fill="#444442"/>
<path fill-rule="evenodd" clip-rule="evenodd" d="M445.938 67.7402L476.062 7.44664L487.2 4.52512L451.232 72.7512L447.426 67.7402H445.938Z" fill="#444442"/>
<path fill-rule="evenodd" clip-rule="evenodd" d="M467.194 74.0358L483.983 44.7925L474.013 46.3481L459.775 75.7656L467.194 74.0358Z" fill="#444442"/>
<path fill-rule="evenodd" clip-rule="evenodd" d="M481.283 32.8917L490.832 30.1983L498.502 17.4038L496.987 8.43283L495.32 6.18289L481.283 32.8917Z" fill="#444442"/>
<path fill-rule="evenodd" clip-rule="evenodd" d="M487.2 70.1836L500.377 49.4649V31.7662L477.217 72.7512L487.2 70.1836Z" fill="#303030"/>
<path fill-rule="evenodd" clip-rule="evenodd" d="M469.252 74.0706L474.196 80.8117L477.217 78.8614L510.494 71.4099L519.914 58.2808V49.4649H523.14L524.526 44.7925L523.14 41.183H519.914V32.8917L516.113 10.2897L512.304 6.18289L498.502 10.2897L501.577 30.45L500.377 55.2076L491.484 70.1836L469.252 74.0706Z" fill="#313131"/>
<path fill-rule="evenodd" clip-rule="evenodd" d="M387.937 72.7512L393.065 70.1836V72.7512L390.501 74.3638L387.937 72.7512Z" fill="#2C2C2D"/>
<path fill-rule="evenodd" clip-rule="evenodd" d="M390.501 52.2587L386.653 50.6727L389.484 47.9225H393.065L390.501 52.2587Z" fill="#2C2C2D"/>
<path fill-rule="evenodd" clip-rule="evenodd" d="M425.106 60.1326L428.115 57.9046L430.315 53.4173V58.2808L428.115 60.279L425.106 60.1326Z" fill="#202020"/>
<path fill-rule="evenodd" clip-rule="evenodd" d="M424 51.7153L427.009 49.4873L429.208 45V49.8636L427.009 51.8618L424 51.7153Z" fill="#202020"/>
<path fill-rule="evenodd" clip-rule="evenodd" d="M423 45.7153L426.009 43.4873L428.208 39V43.8636L426.009 45.8618L423 45.7153Z" fill="#202020"/>
<path fill-rule="evenodd" clip-rule="evenodd" d="M455.927 133.078V110.8L457.99 101.846V98.1414H471.879L474.456 100.368L473.808 110.8L474.786 110.737L477.217 110.581V123.459L471.879 124.856L477.217 128.381V133.078H455.927Z" fill="#4C4C4C"/>
<path fill-rule="evenodd" clip-rule="evenodd" d="M496.889 10.2897L502.239 9.3031L505.028 32.8917V54.8483L493.583 72.2737L470.43 75.7656L469.252 74.0706L491.484 70.1836L500.377 55.2076V29.6203L496.889 10.2897Z" fill="#1C1C1C"/>
<path fill-rule="evenodd" clip-rule="evenodd" d="M391.842 97.7606L394.757 100.368H400.174L403.961 95.6619V89.1142L400.432 89.978L398.034 91.0155H396.606H394.295L391.842 97.7606Z" fill="#AB5812"/>
<path fill-rule="evenodd" clip-rule="evenodd" d="M477.217 110.581L475.195 110.741L474.455 110.8L474.193 102.334L474.455 100.368L474.193 98.1414L478.985 98.1414L493.596 98.1414L505.027 98.1414L511.608 104.361V112.264H507.948V130.593H511.608L505.027 143.732H501.433L500.376 147.149L463.362 146.334L466.568 143.732L471.879 130.593H476.373V128.944L471.879 124.856L477.217 123.459V110.581Z" fill="#363636"/>
<path fill-rule="evenodd" clip-rule="evenodd" d="M483.983 125.305V130.05H498.676L501.856 128.593V125.305H483.983Z" fill="#1C1C1C"/>
<path fill-rule="evenodd" clip-rule="evenodd" d="M450.378 132.05L471.879 129.677L474.456 130.864L467.193 144.847H455.51L450.378 132.05Z" fill="#FDAE1F"/>
<path fill-rule="evenodd" clip-rule="evenodd" d="M452.078 111.684H471.879L474.456 110.8V102.385L470.394 100.368L452.078 102.385V111.684Z" fill="#FDB046"/>
<path fill-rule="evenodd" clip-rule="evenodd" d="M462.417 111.684L466.569 100.368H461.166L457.161 111.684H462.417Z" fill="#262323"/>
<path fill-rule="evenodd" clip-rule="evenodd" d="M457.161 101.846L453.363 111.684H452.078V102.385L457.161 101.846Z" fill="#262323"/>
<path fill-rule="evenodd" clip-rule="evenodd" d="M467.193 110.8L470.394 100.368L474.455 102.385L473.808 110.8L471.879 111.499L467.193 110.8Z" fill="#262323"/>
<path fill-rule="evenodd" clip-rule="evenodd" d="M463.363 144.847L465.047 139.281L469.252 129.677H466.699H465.047L460.886 140.795L459.775 144.847H463.363Z" fill="#272323"/>
<path fill-rule="evenodd" clip-rule="evenodd" d="M459.775 131.157L454.62 142.933L452.078 137.262L455.927 131.157H459.775Z" fill="#282323"/>
<path fill-rule="evenodd" clip-rule="evenodd" d="M471.88 129.677L474.456 130.864L467.194 144.847H465.691L471.88 129.677Z" fill="#282323"/>
<path fill-rule="evenodd" clip-rule="evenodd" d="M230.638 117.015H229.629L238.129 106.015L239.29 106.015L230.638 117.015Z" fill="#FBE2C2"/>
<path fill-rule="evenodd" clip-rule="evenodd" d="M226.471 117.792L233.385 108.262L232.473 108.07L225.629 117.792H226.471Z" fill="#FEE2BE"/>
<path fill-rule="evenodd" clip-rule="evenodd" d="M221.913 118.872L229.315 109.456H228.236L220.809 118.515L221.913 118.872Z" fill="#FFD49D"/>
<path fill-rule="evenodd" clip-rule="evenodd" d="M217.013 119.821L223.789 110.125H222.401L215.493 120.07L217.013 119.821Z" fill="#FED394"/>
<path fill-rule="evenodd" clip-rule="evenodd" d="M321.616 79.0599L247.718 101.07L250.216 100.635L321.247 79.4893L321.616 79.0599Z" fill="#FED394"/>
<path fill-rule="evenodd" clip-rule="evenodd" d="M477.518 146.628C477.518 146.628 475.077 149.894 474.455 152.217C473.834 154.539 473.491 155.465 474.455 157.472C475.42 159.478 474.394 157.254 477.217 160.642C480.04 164.029 481.591 165.224 482.814 167.5C484.037 169.776 483.983 170.435 483.983 173.233C483.983 176.03 482.814 178.822 482.814 178.822H479.676L477.217 176.301L475.93 170.673V167.622L470.073 161.706L467.193 162.985V176.301L470.824 186.371L477.217 191.368L485.805 193.094L491.996 191.368L496.888 184.929L499.307 175.591L498.502 167.5L496.888 161.706L493.305 157.472L489.892 153.985L485.805 152.217V146.628H477.518Z" fill="#4D4E51"/>
<path fill-rule="evenodd" clip-rule="evenodd" d="M467.193 163.761H468.475C468.475 163.761 468.328 169.783 469.251 175.41C469.962 179.738 469.831 180.304 471.744 183.673C473.773 187.245 474.455 188.034 477.135 189.293C479.815 190.553 485.708 190.824 488.797 189.293C491.885 187.762 492.767 187.51 494.614 184.706C496.462 181.902 496.203 181.821 496.793 177.159C497.383 172.497 496.793 167.5 496.793 167.5C496.793 167.5 496.19 165.072 495.04 163.345C493.436 160.935 492.994 160.744 491.285 159.226C488.947 157.151 486.522 155.276 486.522 155.276L483.983 153.291L483.25 151.431L483.983 147.149H485.805L486.522 152.218L489.892 153.985L494.614 158.471L497.496 162.461L499.307 167.5C499.307 167.5 500.516 170.636 500.014 175.41C499.511 180.185 499.488 180.79 497.496 184.706C495.503 188.622 495.03 189.359 492.153 191.215C489.277 193.071 485.805 193.094 485.805 193.094C485.805 193.094 478.666 193.111 475.749 191.215C472.832 189.319 470.824 186.003 470.824 186.003L467.193 177.159V163.761Z" fill="#22221F"/>
<path fill-rule="evenodd" clip-rule="evenodd" d="M474.455 142.933H497.495L501.855 134.59H478.896L474.455 142.933Z" fill="#484848"/>
<path fill-rule="evenodd" clip-rule="evenodd" d="M477.217 130.05H507.402V112.642L477.217 110.8V130.05Z" fill="#292A29"/>
<path fill-rule="evenodd" clip-rule="evenodd" d="M496.888 98.1414V115.809V120.626L494.614 124.856H498.502L500.377 119.821V113.836V98.1414L496.888 98.1414Z" fill="#1C1C1C"/>
<path fill-rule="evenodd" clip-rule="evenodd" d="M483.983 123.459H487.14L488.797 111.684L485.297 108.292V98.1414H482.814L483.983 123.459Z" fill="#1C1C1C"/>
<path fill-rule="evenodd" clip-rule="evenodd" d="M494.614 98.1414V115.011L491.996 124.856V115.985V98.1414H494.614Z" fill="#1C1C1C"/>
<path opacity="0.512602" fill-rule="evenodd" clip-rule="evenodd" d="M464.514 115.802C464.063 114.589 463.768 114.45 462.733 114.145C461.699 113.84 460.543 114.44 460.543 114.44C460.543 114.44 459.98 115.494 459.775 116.69C459.596 117.744 459.775 118.94 459.775 118.94C459.775 118.94 459.704 120.009 460.065 120.425C460.819 121.294 461.253 121.509 462.006 121.509C463.044 121.509 463.455 121.223 464.126 120.425C464.504 119.976 464.954 116.987 464.514 115.802Z" fill="#D8D8D8"/>
<path fill-rule="evenodd" clip-rule="evenodd" d="M461.59 116.213H462.733L462.416 118.422H461.59V116.213Z" fill="#1A1A18"/>
<path fill-rule="evenodd" clip-rule="evenodd" d="M474.456 175.825L477.217 179.951L480.954 183.355L485.806 182.013L488.797 177.035L490.01 171.223L488.156 166.687L483.984 162.461L478.929 158.439L477.217 153.584L478.929 149.81L480.954 150.6L478.929 153.584L480.043 156.876L485.806 160.491L490.01 165.346L491.997 170.121L490.971 177.035L487.486 183.355L481.762 185.597L478.929 184.774L475.767 181.26L473.21 175.825H474.456Z" fill="#37383D"/>
<path fill-rule="evenodd" clip-rule="evenodd" d="M124.775 124.125L123.736 125.015L127.043 126.499L130.33 127.695L131.469 125.015H127.873L124.775 124.125Z" fill="#FABD74"/>
<path fill-rule="evenodd" clip-rule="evenodd" d="M125.448 116.859L127.873 117.043L131.468 119.043L134.507 117.951L133.745 116.015H129.978L125.448 114.515V116.859Z" fill="#FABE6E"/>
<path fill-rule="evenodd" clip-rule="evenodd" d="M133.745 104.515V113.043H135.595L137.218 111.015L135.595 104.07L133.745 104.515Z" fill="#F9BC73"/>
<path fill-rule="evenodd" clip-rule="evenodd" d="M121.998 129.55H118.151L124.69 101.024L153.28 105.037L148.934 107.043V106.125L127.873 103.125L121.998 128.924V129.55Z" fill="#575757"/>
<path fill-rule="evenodd" clip-rule="evenodd" d="M461.865 121.509H464.588L465.693 120.388L466.181 118.422L465.948 115.495L464.695 114.042H462.417C462.417 114.042 463.63 114.283 464.37 115.495C464.769 116.15 464.695 117.776 464.695 117.776L464.37 119.842C464.37 119.842 463.819 120.918 463.363 121.157C462.907 121.396 461.865 121.509 461.865 121.509Z" fill="#1D1D1D"/>
<path fill-rule="evenodd" clip-rule="evenodd" d="M467.194 54.7815C468.068 54.1895 469.252 54.4374 469.252 54.4374C469.252 54.4374 470.652 55.4508 470.825 56.8482C471.038 58.5731 470.945 59.5411 470.024 60.6819C469.13 61.7888 467.194 61.3435 467.194 61.3435L465.691 60.1326V56.8482C465.691 56.8482 466.288 55.3949 467.194 54.7815Z" fill="#909090"/>
<path fill-rule="evenodd" clip-rule="evenodd" d="M468 57H469.143L468.827 59.2085H468V57Z" fill="#1A1A18"/>
<path fill-rule="evenodd" clip-rule="evenodd" d="M469.252 54.3643H470.921L471.879 55.4756V57.2344V59.1439L471.405 60.2791L470.566 61.4712H469.252L470.566 59.7723L470.921 58.3409V56.8482L470.566 55.8605L469.252 54.3643Z" fill="#222222"/>
<path fill-rule="evenodd" clip-rule="evenodd" d="M460.503 31.4172C461.377 30.8253 462.561 31.0732 462.561 31.0732C462.561 31.0732 463.961 32.0866 464.134 33.4839C464.347 35.2088 464.254 36.1768 463.333 37.3176C462.438 38.4245 460.503 37.9792 460.503 37.9792L459 36.7683V33.4839C459 33.4839 459.597 32.0306 460.503 31.4172Z" fill="#D8D8D8"/>
<path fill-rule="evenodd" clip-rule="evenodd" d="M462.561 31H464.229L465.188 32.1113V33.8701V35.7797L464.713 36.9148L463.874 38.107H462.561L463.874 36.4081L464.229 34.9767V33.4839L463.874 32.4963L462.561 31Z" fill="#222222"/>
<path fill-rule="evenodd" clip-rule="evenodd" d="M461 34H462.143L461.827 36.2085H461V34Z" fill="#1A1A18"/>
<path fill-rule="evenodd" clip-rule="evenodd" d="M127.873 325.939H135.823L139.46 320.178L143.912 305.295L145.206 291.88V276.091V267.702L143.912 254.191L139.898 249.596L137.217 254.191L139.898 257.952L141.585 267.702V277.499V291.88L139.46 305.295L135.595 312.897L130.729 315.182L124.91 312.897L120.385 305.575L123.736 320.178L127.873 325.939Z" fill="#626164"/>
<path fill-rule="evenodd" clip-rule="evenodd" d="M496.888 98.1414V74.249L494.614 74.9016V98.1414H496.888Z" fill="#6A6868"/>
<path fill-rule="evenodd" clip-rule="evenodd" d="M494.614 74.9016H495.751V98.1415H494.614V74.9016Z" fill="#464646"/>
<path fill-rule="evenodd" clip-rule="evenodd" d="M488.797 98.1414H491.021V75.7656L488.797 76.2609V98.1414Z" fill="#6A6868"/>
<path fill-rule="evenodd" clip-rule="evenodd" d="M485.805 98.1415H483.529L483.983 77.6797L485.805 77.0657V98.1415Z" fill="#6A6868"/>
<path fill-rule="evenodd" clip-rule="evenodd" d="M470.5 98.1414L470.92 75.7656L469.143 73.6423L467.901 98.1414H470.5Z" fill="#3A3B3A"/>
<path fill-rule="evenodd" clip-rule="evenodd" d="M483.529 77.6848H484.667V98.1414H483.529V77.6848Z" fill="#464646"/>
<path fill-rule="evenodd" clip-rule="evenodd" d="M477.217 98.1414L476.364 89.4016H475.221V86.9535H477.217V86.0155L475.221 85.108V83.6143H477.217V82.0569H475.221V80.8117H477.217V79.0933L472.849 79.0933V82.0569H468.571V85.108L469.852 86.5215L472.849 87.6036V89.4016H470.565V91.8936H474.455V98.1414H477.217Z" fill="#1C1C1C"/>
<path fill-rule="evenodd" clip-rule="evenodd" d="M379.674 39.4441L382.486 36.2085V23.0516L386.653 21.069L389.859 15.5265L394.757 14.1784L400.174 15.5265L403.11 21.069L405.591 23.0516V26.8113L416.444 32.8917L419.962 35.1043V36.6509L405.591 42.4309L394.757 34L393.065 36.2085L379.674 39.4441Z" fill="#666866"/>
<path fill-rule="evenodd" clip-rule="evenodd" d="M419.962 36.6509V34.5535L405.591 26.8113V23.0516L403.11 21.069L400.174 15.5265L394.757 14.1784L390.501 15.5265L387.937 21.069L382.486 23.0516V25.4147L387.937 23.0516L389.859 21.069L391.941 18.1664L394.757 16.6507H398.5L401.224 20.4066L402.243 23.0516V26.8113L403.11 29.8561L405.591 29.1242L419.962 36.6509Z" fill="#202020"/>
<path fill-rule="evenodd" clip-rule="evenodd" d="M393.065 36.5052L393.858 31.7662V18.6715L394.757 15.0777L399.819 16.4133L403.961 22.5907L404.889 28.3047L414.231 32.8917L419.963 36.6509L405.591 42.4309L394.757 34L393.065 36.5052Z" fill="#343533"/>
<path opacity="0.835682" fill-rule="evenodd" clip-rule="evenodd" d="M251.829 265.894L249.187 256.899H246.545L248.854 265.894H251.829Z" fill="#171717"/>
<path fill-rule="evenodd" clip-rule="evenodd" d="M246.545 265.894V262.194L245.784 258.219H245.063L243.329 265.894H246.545Z" fill="#322D28"/>
<path opacity="0.835682" fill-rule="evenodd" clip-rule="evenodd" d="M261.829 265.894L259.187 256.899H256.545L258.854 265.894H261.829Z" fill="#171717"/>
<path fill-rule="evenodd" clip-rule="evenodd" d="M256.545 265.894V262.194L255.784 258.219H255.063L253.329 265.894H256.545Z" fill="#322D28"/>
<path opacity="0.835682" fill-rule="evenodd" clip-rule="evenodd" d="M270.829 265.894L268.187 256.899H265.545L267.854 265.894H270.829Z" fill="#171717"/>
<path fill-rule="evenodd" clip-rule="evenodd" d="M265.545 265.894V262.194L264.784 258.219H264.063L262.329 265.894H265.545Z" fill="#322D28"/>
<path opacity="0.835682" fill-rule="evenodd" clip-rule="evenodd" d="M286.722 89.3263L285.689 78H283.047L283.99 90.1249L286.722 89.3263Z" fill="#171717"/>
<path fill-rule="evenodd" clip-rule="evenodd" d="M283.047 90.4695V87.4628L282.176 82.9532H281.455L280.826 91.1055L283.047 90.4695Z" fill="#322D28"/>
<path opacity="0.835682" fill-rule="evenodd" clip-rule="evenodd" d="M295.488 86.799L294.525 75H291.883L292.81 87.5503L295.488 86.799Z" fill="#171717"/>
<path fill-rule="evenodd" clip-rule="evenodd" d="M291.883 87.9459V82.7181L290.627 78.1232H289.905V88.4776L291.883 87.9459Z" fill="#322D28"/>
<path opacity="0.835682" fill-rule="evenodd" clip-rule="evenodd" d="M305.155 84L303.858 73L301.216 73L301.216 73.6078L302.654 84.7171L305.155 84Z" fill="#171717"/>
<path fill-rule="evenodd" clip-rule="evenodd" d="M301.216 85.0371V81.1824L300.329 75.4864H299.608L299.017 85.7869L301.216 85.0371Z" fill="#322D28"/>
<path fill-rule="evenodd" clip-rule="evenodd" d="M480.569 150.854L478.929 153.584L480.043 156.876L485.806 160.491L490.01 165.346L491.997 170.121L490.97 177.035L487.486 183.355L481.762 185.597L483.678 186.132L488.261 184.178L491.997 177.538L493.404 170.121L490.97 164.705L486.573 159.896L480.989 156.298L480.043 153.584L481.762 151.362L480.569 150.854Z" fill="#5D5F62"/>
</svg>
