<?xml version="1.0" encoding="UTF-8"?>
<svg data-bbox="0 0.177 81.296 201.729" xmlns="http://www.w3.org/2000/svg" viewBox="0 0 82 202" height="202" width="82" data-type="ugc">
    <g>
        <path fill="#960D0D" d="M40.867 60.16h1.669l1.442 1.11h1.896l1.14-.555h.948l.497-3.473-1.842-2.097-3.47-4.218h-1.142l-.536 1.693.536 1.547s-.191.443-.456.885c.077.25.077.335.077.335l-.577 1.855z" clip-rule="evenodd" fill-rule="evenodd"/>
        <path fill="#483029" d="m39.513 25.193-.448.742-.29 1.986.29 1.47 1.028-.801.056-3.45z" clip-rule="evenodd" fill-rule="evenodd"/>
        <path fill="#D8D8D8" d="M44.23 7.779h.69l.378 1.607-.884 3.828-.595 3.622-.366 1.024s.32 1.071.277 1.19c-.042.117-.678-.505-.678-.505l-.59-.507.486-1.704.352-2.047.52-3.417z" clip-rule="evenodd" fill-rule="evenodd"/>
        <path fill="#A5BD54" d="M39.852 33.254h-.866l-.83.329-.6-1.237 1.149-.434.28-2.447.867-.875v-3.512l1.173-.122.75 3.558-.306 8.609.306 4.099.944 2.675.96 2.25.5 2.145-2.404.157-1.768-1.28-1.055-.894 1.792-1.54-1.231-1.886-.243-6.477z" clip-rule="evenodd" fill-rule="evenodd"/>
        <path fill="#5B3D36" d="M45.298 7.614s-.373-.425-.45 0c-.08.424.093.673 0 1.582-.092.881-.32.805-.546 1.843-.142.65-.159 1.163-.236 2.055-.086 1.003-.09 1.736-.09 1.736s-.398 1.85-.676 3.29c.048.303.048.303.675 1.272.688-.971 2.848-6.298 2.848-6.298l1.14-4.074s-.424-1.304-.95-1.852c-.305-.317-.714.122-.714.122z" clip-rule="evenodd" fill-rule="evenodd"/>
        <path fill="#C2A1A1" d="m51.462 10.87-1.41 1.738-1.637 1.84-.876 3.041.424 6.888.497 2.113 5.894-.555 6.221-2.357.632-3.265-3.104-7.705-3.73-1.738z" clip-rule="evenodd" fill-rule="evenodd"/>
        <path fill="#C2A1A1" d="M43.928 48.292v-.757l-.25-.826h-.53v-1.214l-1.176-1.837v-1.102l-.503-1.64v-1.58l-.725-2.322.28-.642v-4.777l.445-3.19-.444-3.449 1.311-1.378.811-1.745.531-2.575.25-.969-.25-1.61v-1.551l1.62-4.258 1.908-2.14-1.726 11.583-1.505 20.136 1.505 6.26v1.225s2.136 3.039 2.808 5.338c.172 2.249.192 3.534 0 3.795-.642-.69-.535-.545-.75-.729-.203-.174-.742-.692-.786-.765-.05-.082-1.279-.674-2.52-3.903-.267-.698-.304-3.378-.304-3.378" clip-rule="evenodd" fill-rule="evenodd"/>
        <path fill="#1B1D29" d="m58.8 114.382 1.135.823 1.888.686H63.1v-2.652l-1.154-1.05v-.809l1.154-1.815v-.969l-1.154-3.373-.995-3.322v-7.21l.873-2.383-.873-1.75v-9.474l-1.015-1.3S47.315 57.523 45.822 61.36c-.598 1.539-4.347 5.273-2.296 13.198.175.677-.174 1.234-.633 2.452.33 1.012 0 2.314 0 3.572.222.45.33 5.28.633 6.294 1.21 4.05 10.293 8.633 10.293 8.633l1.853 9.25 1.098 7.43z" clip-rule="evenodd" fill-rule="evenodd"/>
        <g opacity=".767">
            <path fill="#181923" d="m61.989 106.272-2.054-3.246-.945-1.62-2.693-2.688v4.777l3.254 2.777 2.864 2.186z" clip-rule="evenodd" fill-rule="evenodd"/>
            <path fill="#181923" d="m60.56 97.3-1.009-1.61-1.091-1.002-2.163-.645 1.095 1.628 1.569.467 1.043 1.7z" clip-rule="evenodd" fill-rule="evenodd"/>
            <path fill="#181923" d="m60.559 94.043-1.008-1.301-1.851-.906h-1.553L57.7 92.94l1.1 1.103 1.365 1.897z" clip-rule="evenodd" fill-rule="evenodd"/>
            <path fill="#181923" d="m61.681 112.005-1.105.644-2.116-.322 2.116 1.39H63.1z" clip-rule="evenodd" fill-rule="evenodd"/>
        </g>
        <path fill="#212331" d="M67.665 52.887v2.258l-1.27 5.63.636.495-.635 1.538-1.019.749-.989 1.418v1.612l-.682 1.647-2.5 7.097v4.844l-1.36 2.966v2.385l-.857 2.395-.702 1.11v3.317l-.736 1.14v3.429l-.781 1.636.78 2.276v5.628l1.44 2.519v1.62l-.703.694.513 1.66-.513.726.38 1.711-4.849-1.711s-1.02-.065-1.554-.192-1.492-.534-1.492-.534l-1.286-.576-1.948-2.406h-1.664v-1.65l.743-1.078-1.32-1.855v-2.816l1.32-2.7-.896-3.72-.731-2.66-.507-3.843-.305-1.725v-5.518l-.25-6.571-.25-.5 1.058-1.545 1.138-3.712.743-2.908-.743-3.61 1.664-2.287 12.308-6.125 5.531-2.258z" clip-rule="evenodd" fill-rule="evenodd"/>
        <path fill="#1C1E29" d="M57.55 106.272c-.367-.506-.573-.438-1.328-.775-.497-.221-.934-.401-1.175-.157-.309.314 0 1.119 0 1.119s.586.357 1.249.585c.589.202 1.255.276 1.255.276s.296-.642 0-1.048" clip-rule="evenodd" fill-rule="evenodd"/>
        <path fill="#1C1E29" d="M59.55 83.507s-.703-.802-1.85-1.21c-.555-.197-.882-.292-1.652-.207-1.132.126-1.343.357-2.152.63-.992.332-1.35.787-1.35.787s1.495-.175 2.664 0c.631.095.968.319 1.523.767.69.557.307.543.966.914.446.25 1.29.554 1.561.308 0-.776.29-1.989.29-1.989" clip-rule="evenodd" fill-rule="evenodd"/>
        <path fill="#1C1E29" d="M45.66 104.232h1.093l1.312.536s.68.502 1.4.585c.46-.268.774-.268 1.43-.13.884.186 1.651.777 1.651.777s.477-.647.855-1.076l-.157-.105c-.347-.234-1.682-1.174-1.682-1.174l-1.637-1.405-1.06-1.472-.8-.715-.903.715s-.143.795-.143 1.472c-.97.367-1.359.575-1.359.575s-.156.83 0 1.417" clip-rule="evenodd" fill-rule="evenodd"/>
        <path fill="#1C1E29" d="m44.178 75.89 4.021-2.734 2.957-2.448 4.99-4.885-4.99 4.037-2.697 2.224-3.723 2.403z" clip-rule="evenodd" fill-rule="evenodd"/>
        <path fill="#1C1E29" d="M57.699 63.746h1.1l.75.505h1.657l.617.984 1.276-.744v1.332l-1.155.53-1.37-1.303-1.024.185-.75-.744h-2.03z" clip-rule="evenodd" fill-rule="evenodd"/>
        <path fill="#1C1E29" d="M58.96 85.587s-.447.645-.89.883c-.48.092-.69 0-1.067.349-.204.171-.093.755-.093.755s.148.655.875.862c.518-.264 1.015-1.213 1.015-1.213z" clip-rule="evenodd" fill-rule="evenodd"/>
        <path fill="#1C1E29" d="M46.617 67.167s.531-.76 1.32-1.344c.855-.633.726-.797 1.736-1.338 1.386-.74 3.056-1.223 3.056-1.223s-.183-.454-.794-.454c-1.272.165-2.843 1.168-2.843 1.168s-.959.622-1.554 1.39a6 6 0 0 0-.92 1.8" clip-rule="evenodd" fill-rule="evenodd"/>
        <path fill="#C2A1A1" d="m48.273 60.925 1.065-.458.976-.583 6.871-2.145 4.56-1.88 6.329-2.477 2.367-.855s-.142-.376-.37-1.657c-.02-.121-.22-.177-.249-.318-.18-.854-.813-3.735-.813-3.735l-.314-3.44-1.03.578s-.346 1.229-.649 1.662c-.45.643-1.638 1.4-1.638 1.4l-1.453.762-3.698 3.33-2.034 1.602-3.103 1.74-3.672 1.409-2.08.503h-1.065v2.097l-.18 1.19s-.12.817-.197 1.005c-.519.06-.612.06-.881.06-.128 0-.532.37-1.193.645.104.086.907.459 1.365.402.217-.266.372-.505.384-.5.082.04.702-.337.702-.337" clip-rule="evenodd" fill-rule="evenodd"/>
        <path fill="#790909" d="M40.982 60.038s-.474-.236-.975-.488a19 19 0 0 0-.195-.897v-.955l.372-1.222-.224-.955.439-.469 1.873.093L42 58.28z" clip-rule="evenodd" fill-rule="evenodd"/>
        <path fill="#B99898" d="M67.66 51.518c-.02.122-.601.189-1.148.408-.646.259-.185.168-1.237.547-.522.188-.983.411-.983.411l-2.55 1.12-1.686.744-1.768.967-1.548.638-.759.164s1.014-.49 1.993-.994c1.007-.519.942-.602 1.98-1.051.847-.368.916-.407 1.701-.732 1.128-.466 2.075-1.029 2.075-1.029s.756-.23 1.42-.51c1.244-.522 2.398-1.092 2.398-1.092s.146.21.112.409" clip-rule="evenodd" fill-rule="evenodd"/>
        <path fill="#CCE774" d="M49.338 56.363s-1.163.76-1.4 0c-.332-1.063.262-3.648.262-3.648l-1.163-1.606-2.047-2.66-.253-1.74-1.059-3.05s-.282-1.656-.53-3.21c-.254-1.036 0-2.143 0-2.143s-.254-.43-.43-1.074c.176-.79.176-1.758.176-1.758l-.175-4.598s.177-3.672.428-5.443c.531-1.056.692-1.855.692-1.855l.297-2.172 1.739-6.478.705-2.817V8.563l-.426-.735h-1.789s.94-1.688 1.51-1.902c.568-.214 1.677.216 1.677.216l1.517.238.107.032 1.614.92 2.625.346 1.945.563s1.638.967 3.397 2.08l.156.168c1.55 1.656 2.067 2.21 3.615 5.338 1.172 2.367 1.77 5.692 1.77 5.692l1.08 3.914 1.412 6.732.876 3.31 1.91 4.08v1.982l-.741 1.007v1.114l-1.17.494-.875 1.996-2.491 1.616-4.17 3.637-4.148 2.73s-3.2 1.325-4.504 1.7a26 26 0 0 1-2.139.532m1.475-44.376c.368-.495.482-.649.996-1.033.518-.122.81-.086 1.14-.046.182.023.375.046.624.046.78.627 1.787 1.654 1.787 1.654l2.479.87 1.512 3.17.779 4.295-.78 5.547-3.37 3.382h-4.387l-3.178-4.277s-.271-1.665-.362-3.353c-.015-.287-.03-.529-.042-.74-.062-1.034-.08-1.352.042-2.654q.05-.529.086-.953c.11-1.25.168-1.913.457-2.826.196-.27.31-.458.399-.603.206-.338.269-.442.885-.788a9 9 0 0 0 .25-.56c.12-.285.208-.498.46-.832z" clip-rule="evenodd" fill-rule="evenodd"/>
        <path fill="#B7C767" d="m65.511 33.014-.133-.798-.3-.917v-1.2l-.346-1.585v-1.343l-.344-1.576-.682 1.398.138 2.312v.794l.31.777v2.493l.234 1.313 1.123 4.654.505 1.58v1.35l.342 1.392.71.494.921.249 1.097-.25v-.493H67.99l-.323-.401.835-.408.585-.583H67.99l-.657.308-.263-.718-.435-1.407V38.67l.435-.916-.435-1.495z" clip-rule="evenodd" fill-rule="evenodd" opacity=".45"/>
        <path fill="#5B0909" d="m40.124 56.183.62-.084.391.042.623.1.136-.252-.554-.105v-.31h-.472l-.045.333h-.502l-.197.082z" clip-rule="evenodd" fill-rule="evenodd"/>
        <path fill="#AFACAC" d="m50.79 50.526 1.145-1.437h.612l2.882-2.883 2.026-1.097 4.49-2.81 3.214-3.317.22-1.228 1.256-.847v-.923l1.031-.51-.814-3.562-1.474 1.431v.544l-.989.545v.823l-.682 1.078-5.352 3.83-7.198 4.47-2.742 3.099-2.54 1.704 1.163 3.184z" clip-rule="evenodd" fill-rule="evenodd"/>
        <path fill="#0C0A03" d="m47.938 54.131-.109.226h-.29l-.93-.19-.5-.12-4.992-.56-.689-.388-2.523-1.178-.492-.812-.116-2.2.438-1.477.688-.723.53-.434 3.01 1.664 3.47.65 2.333 1.266.694 1.072-.522 3.12" clip-rule="evenodd" fill-rule="evenodd"/>
        <path fill="#918383" d="m39.828 50.128 1.443.188h.86l.909.155.889.34.25-.966-1.46-.447-.587-.286-1.641-.207-.838-.613z" clip-rule="evenodd" fill-rule="evenodd" opacity=".347"/>
        <path fill="#B5C752" d="m47.766 47.012-.354-.996-.794-1.361-.743-.997-.577-.28h-1.37l-.25.28 1.06 3.051.253 1.583 2.184-.514z" clip-rule="evenodd" fill-rule="evenodd"/>
        <path fill="#AFACAC" d="m43.148 39.964.216-.23.707.115.817-.114.41-.245v-.38l.952-.163 1.712-.397.765-.363.265-.353 2.127-1.466 1.689-.785 5.827-5.71 2.435-2.88 1.401-1.56.332-1.374.662-1.937.866-.29 1.047 3.601-.787.162-.26.65v.505l-.625.243v1.413l-1.761 1.89-7.443 9.439-2.375 1.804-1.537.26-1.863.158h-.764l-.593.534-.862.49h-.833l-.377.397H43.91l-.233.28z" clip-rule="evenodd" fill-rule="evenodd"/>
        <path fill="#A38888" d="m50.052 59.1.975-1.032.819-.57.767-.98 1.207-1.133-.882.507-.649.625-.65.725-.612.496-.975.904z" clip-rule="evenodd" fill-rule="evenodd"/>
        <path fill="#693320" d="m48.196 54.532-.657-.103h-.714l-.846-.367.151-.575s.175-.799.343-.979c.363-.39.21-.143.568-.276.782-.287 2.498-.634 3.503-1.207a37 37 0 0 0 .386-1.514s.068-.333.227-.544c3.918-3.514 8.948-11.134 8.948-11.134l1.724-5.886s.272-1.65-.093-2.067c-.092-1.736-.688-3.326-1.023-3.552-2.441-1.368-4.04-.853-6.71 1.816v2.965l-.675 1.807s-.44 1.949-.782 3.86c-1.559 4.306-3.598 8.24-3.598 8.24s-1.572 1.398-2.123 1.853c-1.466.343-3.533 1.8-3.678 2.098-.082.846-.269 1.35-.428 2.703.08.947.61.908.817 1.702h.43c.191.189.12.285.267.69.208-.058.398-.257.398-.257s.07.02.079.047c.108.352.108.577.22.68.208.057.468 0 .468 0s.511.508 1.075.77c.704 0 1.471-.142 1.471-.142z" clip-rule="evenodd" fill-rule="evenodd"/>
        <path fill="#271A16" d="M49.177 28.745v-.231s.215-.423.548-.51c.606-.158 1.081-.115 1.74-.242.732-.14 1.082 0 1.082 0l.346-.175 1.37-.416.779-.178.665-.24s.775-.485 1.779-.69c.503-.103 1.435-.128 1.435-.128h1.865s.485.152.895.384c.31.176-.024.732-.024.732l-.211.711-.375-.769s-.284-.543-.726-.577c-.694-.052-.707.038-1.424.08-.713.04-1.507.128-1.507.128s-.906.245-1.651.547c-.441.18-.721.416-.721.416s-.495.218-.763.594c-.207.29-.188 1.042-.188 1.042l.053.64-.053 1.013h-.47s-.644-.325-1.45-.523c-.423-.104-.655.083-1.115 0-.454-.082-.692-.214-1.12-.49-.394-.256-.524-.574-.524-.574l-.235-.37z" clip-rule="evenodd" fill-rule="evenodd"/>
        <path fill="#512617" d="M61.838 31.785c-.303.113-.664 0-.664 0s-.953-.4-1.198-.589c-.134.153.154 1.906.154 1.906l.256 2.148v1.575l1.099-3.723s.353-.927.353-1.317" clip-rule="evenodd" fill-rule="evenodd" opacity=".572"/>
        <path fill="#5B3D36" d="m49.177 28.514 1.226-.481 1.16-.188h1.145l1.572-.523 1.427-.57 1.515-.633 2.133-.184h1.431l.895.384-.895-2.234-.403-1.67-.712-2.914-.848-4.423-.54-.258-1.889-2.032-.687-.347h-.522l-1.308-.229s-.791-.202-1.426 0c-.143.23-.379.576-.379.576l-.856-.18-.426.391-.097.48s-.218.845-.496 1.341c-.279.497-.097 1.973-.097 1.973l-.303 1.298-.62 1.459v3.787s-.282.322-.422.51c-.14.189-.34.515-.34.515l.762 1.233-.256 1.553z" clip-rule="evenodd" fill-rule="evenodd"/>
        <path fill="#483029" d="M55.699 24.592c-.128-.396-.284-.598-.598-1.016-.279-.372-.287-.506-.553-.748-.387-.352-.523-.303-.805-.642-.442-.529-.74-1.243-.74-1.243s.136.8.456 1.338c.443.354.753.69.753.69s.36.417.695.864c.273.363.521.757.521.757s.307.112.27 0" clip-rule="evenodd" fill-rule="evenodd"/>
        <path fill="#4C4C4C" d="m40.762 63.93-1.115-1.259-.833-.533-.444-.485.074-.739.37-.123.652-.073-.128-1.026.622-.352 1.831.697-.675 2.498z" clip-rule="evenodd" fill-rule="evenodd"/>
        <path fill="#483029" d="m55.792 23.402.286.433.49.275h.522l.24.2.125-.2-.495-.275-.444-.133-.322-.163-.402-.368-.363-.324z" clip-rule="evenodd" fill-rule="evenodd"/>
        <path fill="#483029" d="M51.072 26.472s-.082-.175.252-.252c.394-.091.594-.028 1.222-.113a22 22 0 0 0 1.058-.172s.398-.136.75-.277c.634-.256 1.22-.518 1.22-.518s.457-.198 1.13-.325c.42-.08 1.057-.086 1.057-.086l2.05-.081s.524-.209.185-.24c-.685-.063-1.209-.022-2.235.052-.558.04-.667-.024-1.119.078-.714.161-1.214.38-1.214.38s-.463.302-1.137.577c-.336.137-.883.247-.883.247s-.402.143-.968.193c-.523.047-.653.037-1.21.103-.172.02-.48.35-.64.434 0 .036.482 0 .482 0" clip-rule="evenodd" fill-rule="evenodd"/>
        <path fill="#483029" d="m55.703 12.608 1.123 1.559.182.767.447 1.14.598 1.532.515.683-1.113-.812-.447-1.225-.566-1.318v-.6l-1.013-1.498z" clip-rule="evenodd" fill-rule="evenodd"/>
        <path fill="#483029" d="M49.177 23.337V19.66s.229-.509.584-1.37c.154-.651.339-1.497.339-1.497s.004-1.04.135-1.637c.355-.52.555-1.525.555-1.525l-.097-.153-1.09 1.367-.117.756-.5.12-.23 1.393v.844l-.196.439-.145 1.966.145 1.86.195 1.624z" clip-rule="evenodd" fill-rule="evenodd"/>
        <path fill="#965639" d="m46.328 54.131.512.087.674.193.315-.054.326.054s.113.098-.057.172c-.192.084-.56.09-.56.09l-.882.052-.546-.2-.235-.307.235-.608v.437c.045.049.218.084.218.084" clip-rule="evenodd" fill-rule="evenodd"/>
        <path fill="#3C1E13" d="M44.71 53.852s-.066-.655 0-1.092c.074-.492.28-.766.28-.766s-.094-.073-.14-.073c-.18.266-.23.267-.346.79-.058.264.044.817.044.817z" clip-rule="evenodd" fill-rule="evenodd"/>
        <path fill="#3C1E13" d="M43.967 53.372s.016-.405.04-.573v-.669s-.094-.072-.14-.072c0 .293.051.18 0 .703-.035.164 0 .445 0 .445z" clip-rule="evenodd" fill-rule="evenodd"/>
        <path fill="#B5C752" d="m58.537 52.058-1.122.829-1.268.6-1.103.644-1.603.594-1.227.224-1.4.712.343-.712v-.728l-.343-.879-.378-1.284-.354-.949-1.37 1.177-.774 1.935-.172 1.44.434 1.082 1.286-.226 1.932-.658.796-.474 1.406-.083 1.424-.836 1.376-.653 1.16-.646 1.22-.881z" clip-rule="evenodd" fill-rule="evenodd"/>
        <path fill="#790B04" d="m47.06 52.225-.023.662.142.755s.184.242.424.322c.375.126.41.188.81.161.424-.029 1.188-.402 1.293-.674.21-.541.222-.706.177-1.226-.044-.513-.354-1-.354-1l-1.119-.116s-.798.083-1.265.469c-.208.172-.084.647-.084.647" clip-rule="evenodd" fill-rule="evenodd"/>
        <path fill="#595959" d="M48.042 52.058s-.159.36-.076.653c.088.314.135.425.418.559.306.145.761 0 .761 0s.262.015.341-.119c.132-.223.094-.324.094-.645 0-.225-.094-.448-.094-.448s-.407-.311-.815-.385c-.181-.033-.63.385-.63.385" clip-rule="evenodd" fill-rule="evenodd"/>
        <path fill="#312E2E" d="M48.042 52.058s-.159.36-.076.653c.088.314.135.425.418.559.306.145.761 0 .761 0s.262.015.341-.119c-.315-.084-.34-.127-.725-.27-.302-.17-.521-.51-.521-.51z" clip-rule="evenodd" fill-rule="evenodd"/>
        <path fill="#693320" d="M40.795 54.269c-.03-.105.235-.25.235-.551-.054-.346-.14-.444-.285-.882-.152-.46-.31-.915-.31-.915l-.427-1.396.427-.87.595-.769.52-.918-.98-.905-.992-.354h-.856l-1.165 1.583-.26 2.325.26 1.891 1.284 1.305.737.518 1.106.814h.468s.318-.373.318-.629c0-.204-.15-.23-.318-.292-.169-.062-.184-.077-.357.045" clip-rule="evenodd" fill-rule="evenodd"/>
        <path fill="#3C1E13" d="M40.745 54.221h-.374l-.343-.187-.128-.256-.098-.406-.116-.425-.416-.439.243.995.229.628.414.218.39.117z" clip-rule="evenodd" fill-rule="evenodd"/>
        <path fill="#AFACAC" d="m51.2 36.537-.41-.545-.2-.838-.582-1.09-.832-.691V32.27l-.761-1.394s-.292-1.092-.642-2.131c-.315-.932-.689-1.811-.689-1.811s.105-.67.207-1.339c-.207-.501-.467-.63-.647-1.549v-2.015s-.186-1.697-.084-3.35c.118-1.89.162-1.925.524-3.737.245-1.224.245-1.466.689-2.336.584-.86.558-.873 1.403-1.325.167-.413.426-.695.65-1.06 1.264-.443 2.103-.728 2.72-.728 1.27 0 2.502.609 2.502.609l1.099.766 1.886.75.535.988s.27.55.537 1.002c.476.392.644.58.869.718.155.616.155.938.276 1.662.787.847.956 1.709.956 1.709v1.276l.632.991s.057.518.184.977c.136.22.208.435.208.435v1.039l.65 1.893h.435s.391-1.146.391-2.162c-.25-.376-.443-.858-.443-.858s.04-.59-.142-1.127a4.7 4.7 0 0 0-.624-1.188V17.7l-.267-.407-.285-.714v-.588l-.739-1.046-.631-1.466s-.446-.54-.807-1.08c-.83-.852-1.735-1.528-1.735-1.528s-1.035-.999-2.33-1.774c-3.491-1.563-6.527.399-6.527.399l-1.638 2.124-.978 2.437-.514 2.522-.4 2.818v1.266l-.348.716s.015 1.427.155 2.819c.103 1.027.246 1.191.332 2.019 0 .928-.138 1.796-.138 1.796l.399 1.86.778 2.661.26 1.531.878 2.473 1.214 1.65z" clip-rule="evenodd" fill-rule="evenodd"/>
        <path fill="#A4A1A1" d="M49.007 38.008h.338l1.812 2.178-.182.477-1.63-1.96z" clip-rule="evenodd" fill-rule="evenodd"/>
        <path fill="#A4A0A0" d="m64.39 25.935-.176-1.287-.294-.8-.213-.553.213-1.29h-.338l-.281 1.842.281 1.886v1.438l.632-.424z" clip-rule="evenodd" fill-rule="evenodd"/>
        <path fill="#A4A3A3" d="m60.25 15.99.446.59.51.26.918.278-.18-.564-.738-.298-.51-.266-.446-.143z" clip-rule="evenodd" fill-rule="evenodd"/>
        <path fill="#A4A3A3" d="m61.4 19.258.633.222.846.07-.403-.583h-1.289z" clip-rule="evenodd" fill-rule="evenodd"/>
        <path fill="#604F4F" d="m62.414 116.951.305-.372.192-.52.188-.672-1.98-.834-.788-.908-1.51-.262h-.593l.231 1.17-.23.652.438 1.559h.688l.81.187z" clip-rule="evenodd" fill-rule="evenodd"/>
        <path fill="#91775B" d="m29.798 119.304 10.032-5.801s2.737-3.413 3.83-8.723c.892-3.944.294-5.176.018-10.204-.271-4.959-.493-4.988-1.11-9.77-.766-5.923-1.884-11.473-1.884-11.473v-6.166l-2.88-1.09s.053 5.162.597 9.46c1.112 8.784 2.714 17.153 2.714 17.153l.392 6.54-.392 5.24s-1.097 4.251-2.714 6.434c-2.683 2.741-2.377 2.445-4.81 3.863-2.756 1.605-5.258 3.075-5.258 3.075z" clip-rule="evenodd" fill-rule="evenodd"/>
        <path fill="#634E39" d="m29.797 119.304 4.43-2.54 3.576-2.32s1.948-1.136 3.384-2.963c1.179-1.502 1.163-1.697 1.845-3.694.763-2.23.725-2.339 1.045-4.761.23-1.734-.16-4.835-.16-4.835l-.528.983s.082 1.953 0 2.777c-.197 1.981-.676 3.424-1.018 4.435-.693 2.042-1.086 3.013-2.179 4.518-1.202 1.658-1.126 1.683-2.753 2.908-1.565 1.179-4.227 2.438-4.261 2.457-2.107 1.144-2.411 1.099-4.116 2.409-.194.149.735.626.735.626" clip-rule="evenodd" fill-rule="evenodd" opacity=".509"/>
        <path fill="#9F9C9C" d="m45.48 38.982.817 1.681.508.588 1.133.782-.569.458-.751.357-.544-1.01-.388-.923-.206-.797-.182-1.008z" clip-rule="evenodd" fill-rule="evenodd"/>
        <path fill="#A4A0A0" d="M65.378 37.754s.542-.167 1.256-.847v-.923s-.55-2.291-.714-3.238c-.542.597-.616.597-.542.947-.455.321-.99.74-.99.74z" clip-rule="evenodd" fill-rule="evenodd"/>
        <path fill="#BD370A" d="m38.106 91.636-2.87 20.673-1.01 7.044v1.617h1.94l1.43-10.066 2.114-16.861.482-2.206z" clip-rule="evenodd" fill-rule="evenodd"/>
        <path fill="#D84F20" d="m37.803 93.889.386.248.468.123-1.448 7.637-1.14 9.007-.444 2.217-.378-.26.378-2.217 1.17-8.944z" clip-rule="evenodd" fill-rule="evenodd"/>
        <path fill="#8C8585" d="m37.803 93.889.386.248.612.132h.88l.51-2.432-2.199-.201z" clip-rule="evenodd" fill-rule="evenodd"/>
        <path fill="#74311E" d="m39.681 94.27-.662 5.01-1.216 8.858.372-7.792v-1.067l.567-5.01z" clip-rule="evenodd" fill-rule="evenodd"/>
        <path fill="#B8B4B4" d="m37.803 93.889.189-2.253 1.005.106-.34 2.518z" clip-rule="evenodd" fill-rule="evenodd"/>
        <path fill="#8C8585" d="m36.166 120.97 1.044-7.325s-.51.269-.773.257c-.236-.011-.76.102-.992 0-.263-.117-.373-.365-.484-.399-.096 1.375-.734 5.715-.734 5.715v1.752z" clip-rule="evenodd" fill-rule="evenodd"/>
        <g opacity=".51">
            <path fill="#91DCD1" d="M51.157 66.354h-.567s-.539.394-.988.813c-.116.692.303 1.84.303 1.84s.546.3 1.101.464c.437-.465.437-.465.93-1.364v-.94l.794-1.344s0-1.31.553-2.077c-.553.485-2.126 2.608-2.126 2.608" clip-rule="evenodd" fill-rule="evenodd"/>
            <path fill="#91DCD1" d="M55.702 60.16c-.188.25-.655.487-.655.487l.312.623h.621s-.278-.623-.278-1.11" clip-rule="evenodd" fill-rule="evenodd"/>
            <path fill="#91DCD1" d="M50.702 75.168c-.202.225-.702.439-.702.439l.334.561H51s-.298-.561-.298-1" clip-rule="evenodd" fill-rule="evenodd"/>
            <path fill="#91DCD1" d="M49.5 74.558a.5.5 0 1 0 0-1 .5.5 0 0 0 0 1" clip-rule="evenodd" fill-rule="evenodd"/>
            <path fill="#91DCD1" d="m60.13 64.987-.195.836.623.53.017.814.631-.813-.444-1.304z" clip-rule="evenodd" fill-rule="evenodd"/>
            <path fill="#91DCD1" d="m52.546 84.137-1.104-1.076v1.076l.493.5v1.674l.795-1.625z" clip-rule="evenodd" fill-rule="evenodd"/>
            <path fill="#91DCD1" d="M65.377 62.28c-.494-.68-.81-.518-1.171-.79.355-.536.532-.536.995-.972.252-.515.273-.82.176-1.25-.176-.168-.494-.168-.494-.168l-1.039 1.06-.544-1.06v1.615l.194 1.047s.453.653.845.771c.544-.161.403.114 1.038-.253" clip-rule="evenodd" fill-rule="evenodd"/>
            <path fill="#91DCD1" d="M52.73 60.715a57 57 0 0 0-.644 1.146l.322.947.322-1.23s.104-.863 0-.863" clip-rule="evenodd" fill-rule="evenodd"/>
            <path fill="#91DCD1" d="m57.915 62.808-.216.938h-.93v.744h.573l.357.56.728-.56z" clip-rule="evenodd" fill-rule="evenodd"/>
            <path fill="#91DCD1" d="m51.442 73.558.493-.225.151.225v1h-.322l.171-.5-.493-.113z" clip-rule="evenodd" fill-rule="evenodd"/>
        </g>
        <path fill="#B4C650" d="m60.763 20.169-.512-1.88-.121-1.17-.499-1.272-.434-1.026-.629-1.343-.729-.625-1.177-.742-.959-.403-.957-.838h-1.28l.58.598 1.14.973h.697l.78.645 1.176.392s.272.698.59 1.343c.864.455.243 1.026.864 1.662.308.984.338 2.18.338 2.18l.247.887.252.821v1.204l.445.913z" clip-rule="evenodd" fill-rule="evenodd"/>
        <path fill="#B4C650" d="M45.48 38.982s-.137-.509-.258-1.127c-.136-.698-.123-.646-.258-1.504-.081-.52-.074-.644-.098-1.353-.026-.759 0-1.584 0-1.584l-.194-.16s-.163.774-.237 1.744c-.044.583 0 1.36 0 1.36l.237 1.396.286 1.228.34.508z" clip-rule="evenodd" fill-rule="evenodd"/>
        <path fill="#1B1517" d="m54.43 119.896-1.072-.286-.771.286h-1.393l-4.303.211 2.41-1.407 2.506-.858h2.622z" clip-rule="evenodd" fill-rule="evenodd"/>
        <path fill="#373433" d="m54.187 119.304.338.592h2.604l3.036-.286h2.25l.732-.306-.048-1.451-.291-.902h-1.625l-2.094-.187-1.96.343-2.942 1.458z" clip-rule="evenodd" fill-rule="evenodd"/>
        <path fill="#2C2B2B" d="m39.96 59.956.61.28-.087.665-.476 1.094-.047.559.61.681.374-1.76.39-.97v-.468l-.59-.535-.663-.162z" clip-rule="evenodd" fill-rule="evenodd"/>
        <path fill="#1C1E29" d="m58.428 107.787 2.131.671 1.856.824-1.856.808-1.569-.808-1.074-1.495" clip-rule="evenodd" fill-rule="evenodd"/>
        <path fill="#5F5855" d="M52.086 117.117v.999l1.733 1.237.75-.268h1.103l2.68-.626 1.003-.828-.928-2.426-.728-.234z" clip-rule="evenodd" fill-rule="evenodd"/>
        <path fill="#332E2F" d="m52.475 116.951.716-.271 4.509-1.709-.188-.418-.9.418-3.45 1.23-.897.378z" clip-rule="evenodd" fill-rule="evenodd"/>
        <path fill="#ADA5AE" d="M35.81 118.849s.054.823.708 1.124c.999.46-.066.209 1.983.398 1.161.112 1.579.114 2.547.114 1.822 0 2.071.027 3.648-.114 2.684-.24 2.881-.398 5.317-.761 1.557-.585 2.77-1.351 2.77-1.351l-.201-.705-.317-1.167-2.773-4.168-1.742-2.129-2.168-.287-.886.287s-.368-.124-.604 0c-.273.144-.413.537-.413.537l-.278.469-2.214.385-1.246.738-1.133 1.311s-1.09.555-2.126 1.857c-.897 1.59-.873 3.462-.873 3.462" clip-rule="evenodd" fill-rule="evenodd"/>
        <path fill="#D8D8D8" d="m49.887 112.861-.924.4-.62.576h-.708l-1.02.716-1.267.652-1.271.336-.943.35-.984.305-.508.191-1.45-.328 1.612-1.088 2.103-.797 1.369-.585 1.34-.728 1.02-.856.707-1.101z" clip-rule="evenodd" fill-rule="evenodd" opacity=".22"/>
        <path fill="#958F98" d="M47.704 118.998S47 116.61 46 114.705c-.702-1.334-1.704-2.184-1.704-2.184h.427L46 114.042s.2.211.344.511c.823 1.722.865 1.704 1.59 3.533.156.394.171.912.171.912z" clip-rule="evenodd" fill-rule="evenodd"/>
        <path fill="#98939A" d="M43.775 113.121c.449.444 1.288 1.594 1.288 1.594l.286.49 1.43 3.16.112.633H46.4l-.567-1.343-.484-1.208-.463-1.06-.238-.416s-.584-1.053-.97-1.616c-.051-.131.02-.099.097-.234" clip-rule="evenodd" fill-rule="evenodd"/>
        <path fill="#86A738" d="m41.042 47.377 1.29-1.082v-.713l-.863-1.924-.725-.81.123-.582.671.583v-.984l-.794-3.678-1.231-1.815.803-3.118V28.59l.428-1.06s-.28-1.894-.428-2.489c.551-.085.191-.07.643-.285.403-.18.212-.028.51-.256.202 3.07.069 8.246.069 8.246v5.262l.538 3.856.642 3.045.96 1.8.735 1.583h-.464l-1.986.157z" clip-rule="evenodd" fill-rule="evenodd"/>
        <path fill="#98939A" d="m45.127 119.353.768-.131-1.6-3.657-1.097-1.391-.166.086.747 1.305z" clip-rule="evenodd" fill-rule="evenodd"/>
        <path fill="#98939A" d="m42.189 114.767.844 1.292 1.168 2.679.263.615-.459.094-1.375-3.228-.825-1.248z" clip-rule="evenodd" fill-rule="evenodd"/>
        <path fill="#97909A" d="m44.077 119.353 2.814-.355h4.304s-.284.344-.486.449c-.202.104-.696.163-.696.163l-3.122-.163-2.814.163z" clip-rule="evenodd" fill-rule="evenodd"/>
        <path fill="#9E97A0" d="m43.661 111.796 1.022-.892 1.213 1.101.507-.209h1.05v.452h-.562l-.488.435-.668-.162-1.052-.912-.387.912z" clip-rule="evenodd" fill-rule="evenodd"/>
        <path fill="#D8D8D8" d="M38.14 114.174s-.749.539-1.238 1.213c-.451.621-.683 1.377-.683 1.377s-.257.617-.073 1.043c.258.596 1.078.553 1.078.553l1.061-.553 1.051-.7.856-.72c.276-.233 1.777-.328 1.777-.328z" clip-rule="evenodd" fill-rule="evenodd" opacity=".411"/>
        <path fill="#353535" d="m52.468 117.107 2.055-.838 1.774-.517 1.619-.781-.842-.418-.462.418-.686.234-1.403.518-2.258.856z" clip-rule="evenodd" fill-rule="evenodd"/>
        <path fill="#7B6666" d="m52.264 116.579 1.63-.597 1.778-.595.94-.416.551-.418s.002-.068-.597-.285-2.257-.551-2.257-.551l-.908-.233h-1.137l-.848-.363-1.324-.601-.6-.301 2.314 3.533z" clip-rule="evenodd" fill-rule="evenodd" opacity=".962"/>
        <path fill="#675555" d="m51.958 116.059 1.21-.4 1.07-.272 1.05-.416.725-.418.554-.285-.42-.149-1.255.728-1.073.358-.93.264-1.082.283z" clip-rule="evenodd" fill-rule="evenodd"/>
        <path fill="#4A3D3D" d="m59.017 116.764.339.074.81.113h2.249l.355-.46-1.092.088s-1.583-.119-1.893-.192c-.344-.082-.986-.147-.986-.147z" clip-rule="evenodd" fill-rule="evenodd"/>
        <path fill="#693320" d="m44.23 7.779-3.362-2.721-2.617 1.441-7.552 5.612-3.118 2.48 3.895 3.698 1.901.374 3.73.92 5.495-1.294.957-5.255.62-4.027z" clip-rule="evenodd" fill-rule="evenodd"/>
        <path fill="#57291A" d="M40.362 12.111v-.851l-.34-.666-.32-.863-.665-.51-.77-.49-.89.21-.633.482v.589l.633.582h.647l.81.509 1.188 1.008z" clip-rule="evenodd" fill-rule="evenodd" opacity=".857"/>
        <path fill="#220C07" d="M43.95 8.99s-2.046.5-3.33.171c-.259-.577-.758-1.055-1.4-1.382-.382 0-1.56.291-1.56.291l-.385.5-1.37.684v-.851l4.84-3.707s1.974 1.396 3.205 2.75c.025.572 0 1.543 0 1.543" clip-rule="evenodd" fill-rule="evenodd"/>
        <path fill="#232222" d="m35.127 11.552-.823 1.662s-.564 1-1.032 1.928a15 15 0 0 1-1.105 1.824s-.691 1.145-.691 1.323c.727.631 2.515.678 2.515.678s.607-.306 1.331-.678c.418-.364.344-1.125.304-1.58-.058-.647-.304-1.354-.304-1.354l.48-1.717.705-1.527-.602-1.802z" clip-rule="evenodd" fill-rule="evenodd"/>
        <path fill="#5A5A5A" d="m29.298 16.278-.434.423h-.825l-.172.274s.863.932 2.707 1.688c.21.089.135-.48.135-.48l-.333-.276v-.815z" clip-rule="evenodd" fill-rule="evenodd" opacity=".739"/>
        <path fill="#3D3C3D" d="M27.867 16.975c.043-.274.172-.274.172-.274l2.337 1.323.333.16.02.35-.078.18s-1.987-.772-2.784-1.74" clip-rule="evenodd" fill-rule="evenodd" opacity=".567"/>
        <path fill="#7B4D3D" d="M40.362 12.111v-.851c-.396-.779-.66-1.529-.66-1.529s-.76-.633-1.436-1c-.37.073-.89.21-.89.21l-.632.482v.589l-.16-.16s-.036-.429-.077-.754c.508-.318.768-.528.768-.528s.484-.168 1.113-.272c.674.272 1.527 1.125 1.527 1.125l.732 1.447s.099.488 0 .915c-.044.194-.285.326-.285.326" clip-rule="evenodd" fill-rule="evenodd" opacity=".656"/>
        <path fill="#202020" d="m31.88 15.879-1.227 1.33-1.245-.665-1.54-1.521 3.026-3.01 2.233-2.388.423.966-1.09 4.259z" clip-rule="evenodd" fill-rule="evenodd"/>
        <path fill="#383838" d="M38.254 10.42c-.095.046-.168.123-.168.123s-.134.436-.101.567.269.365.269.365.27.095.528.072c.258-.022.358-.003.502-.163.16-.178.107-.514.107-.514s-.016-.32-.212-.45c-.223-.145-.626-.1-.626-.1s-.16.034-.3.1" clip-rule="evenodd" fill-rule="evenodd"/>
        <path fill="#55122C" d="m37.74 24.956-1.233-.562-.811-.692-.668-.76-.178-.818-.083-.64 1.138-.345.773.028 1.062 2.187z" clip-rule="evenodd" fill-rule="evenodd"/>
        <path fill="#D8D8D8" d="m30.376 14.658 1.712 1.455L33.676 14l.19-.523.383-1.926.673-1.131.77 2.846.527 2.846.288 2.687-.288 2.507s.121 0 .767-.226a33 33 0 0 0 .754-1.588l-.47-4.044-.527-2.841-1.05-2.87.212-1.44-1.656-.52-2.59 4.83z" clip-rule="evenodd" fill-rule="evenodd"/>
        <path fill="#2E2C2C" d="M33.55 18.967v1.194l.74 1.35 1.198.322.713-.213.306-1.46v-1.193l-2.956-.252z" clip-rule="evenodd" fill-rule="evenodd"/>
        <path fill="#834C3E" d="M37.557 9.729h.667s.577.16.95.476c.07 0 .324-.13.23-.238-.253-.293-.453-.41-.924-.566-.393.033-.923.11-.923.11z" clip-rule="evenodd" fill-rule="evenodd"/>
        <path fill="#FF7C3D" d="M25.877 15.973c.192.205.35 0 .943 0 .445-.218 1.507-1.335 1.507-1.335l7.93-6.71 4.808-2.87 1.536-.604s-.284-.986-.651-.986c-.978.178-2.437.345-2.437.345S33.045-2.09 27.867 1.146c-3.73 2.667-4.934 6.438-4.324 9.275.583 1.69 2.123 4.217 2.123 4.217s.211.734.211 1.335" clip-rule="evenodd" fill-rule="evenodd"/>
        <path fill="#D35C1B" d="m25.918 15.17 1.662-.98.287-.358-1.466-1.72-1.73.66 1.042 1.635z" clip-rule="evenodd" fill-rule="evenodd"/>
        <path fill="#D35C1B" d="m31.476 11.726 1.546-1.103.528-.622-2.074-2.222-1.228 1.245.795 1.33z" clip-rule="evenodd" fill-rule="evenodd" opacity=".897"/>
        <path fill="#D8D8D8" d="m30.249 8.863 1.872-1.759 1.43-1.215 1.686-1.193.223-.247-.998-1.266-1.44 1.009-1.34.866-1.539 1.445-1.1 1.276 1.1 1.084" clip-rule="evenodd" fill-rule="evenodd" opacity=".661"/>
        <path fill="#E0C9C2" d="M24.671 12.773c.65-.267 1.004-.562 1.004-.562l.855-.485-.581-1.56s-.638.143-1.278.407c-.457.436-.806.602-.806.602s.354.936.806 1.598" clip-rule="evenodd" fill-rule="evenodd"/>
        <path fill="#B34F19" d="M27.647 14.433c-.676.58-.845.605-1.378 1.138-.065.065-.044.138 0 .178.044.041.166.142.26.062 2.021-1.705 4.033-3.617 4.033-3.617s-.163-.16-.264-.083c-1.356 1.042-1.312 1.172-2.651 2.322" clip-rule="evenodd" fill-rule="evenodd"/>
        <path fill="#D35C1B" d="m42.05 4.025-1.689.254v.417h.688z" clip-rule="evenodd" fill-rule="evenodd"/>
        <path fill="#9D1D4F" d="M40.243 17.708c-.868.148-1.123.35-2.01 1.007-.586.432-.936 1.17-.936 1.17l-.79 1.333s-.168.835 0 1.578c.13.572.08.765.501 1.258.602.706.692.876 1.545 1.14.944.29 1.205.085 2.143-.238 1.017-.35 1.11-.38 1.905-1.109.637-.583.958-1.514.958-1.514s.459-1.07.416-2.06c-.042-.989-.248-1.053-.828-1.793-.426-.543-1.184-.772-1.184-.772s-.883-.143-1.72 0" clip-rule="evenodd" fill-rule="evenodd"/>
        <path fill="#7F1840" d="M39.364 18.5s-.47.208-1.11.66c-.343.24-.474.383-.78.814-.19.27-.272.373-.474.846-.139.326-.281.665-.281.665s-.141.8 0 1.217c.2.591.51 1.078.51 1.078s.39.487.808.72c.355.198.383.142.737.142.053.053-.088.314-.088.314s-.42.082-.805-.143c-.457-.268-.88-.841-.88-.841s-.281-.549-.494-1.177c-.162-.476-.084-1.31-.084-1.31l.296-.936s.32-.49.584-.82c.296-.372.28-.516.658-.762.618-.402.544-.555 1.403-1.052.089-.03 0 .585 0 .585" clip-rule="evenodd" fill-rule="evenodd"/>
        <path fill="#551328" d="M38.956 20.39c.092.081.29.388.29.388s-.155.127-.29.266c-.11.147-.14.204-.166.44v.42l-.457.04v-.596l.205-.57s.185-.19.418-.388" clip-rule="evenodd" fill-rule="evenodd"/>
        <path fill="#551328" d="M41.7 19.866c-.054.11-.3.381-.3.381s-.162-.117-.331-.212c-.17-.067-.233-.082-.469-.046l-.405.108-.156-.43.575-.155.603.05s.233.13.483.304" clip-rule="evenodd" fill-rule="evenodd"/>
        <path fill="#551328" d="M39.206 23.46c.054-.11.307-.479.307-.479s.231.193.4.288c.17.067.315.035.55 0l.405-.109.172.423-.724.231h-.534s-.325-.18-.576-.354" clip-rule="evenodd" fill-rule="evenodd"/>
        <path fill="#551328" d="M41.858 23.212c-.091-.083-.376-.427-.376-.427l.42-.414c.061-.16.103-.338.057-.593.004-.233-.056-.482-.056-.482l.455-.2s.09.227.165.737c-.022.355-.017.515-.203.807-.226.329-.226.379-.462.572" clip-rule="evenodd" fill-rule="evenodd"/>
        <path fill="#551328" d="m39.723 22.64.33-.727.44.103s.204-.198.295-.291c.024-.156.07-.35.07-.35l.681-.068-.036.66s-.083.409-.285.637c-.177.2-.207.237-.473.31-.297.082-.666-.08-.666-.08z" clip-rule="evenodd" fill-rule="evenodd"/>
        <path fill="#551328" d="m41.147 20.656-.355.715-.437-.118s-.21.19-.305.28c-.029.155-.08.347-.08.347l-.685.044.06-.657s.096-.407.306-.627c.184-.194.216-.23.484-.294.3-.071.663.103.663.103z" clip-rule="evenodd" fill-rule="evenodd"/>
        <path fill="#271513" d="m39.812 66.893-2.008-.816v-.78l.5-.394v-.974l-.278-1.121.782-.518 1.152.714 1.049.742h.954l-1.279 3.42z" clip-rule="evenodd" fill-rule="evenodd"/>
        <path fill="#C12662" d="M36.986 21.081c.302 0 .57.058.57.058l.866-1.253s1.235-.777 2.322-1.171c.293-.107.823-.13 1.22-.1.214.018.637.21.637.21l-.638-.911s-.843-.135-1.537 0c-.574.248-.644.3-1.18.642-.725.464-1.343.97-1.343.97s-.604.686-.917 1.555" clip-rule="evenodd" fill-rule="evenodd" opacity=".58"/>
        <path fill="#380E1B" d="M35.217 21.76s-.167.537 0 .948c.158.388.212.299.478.612.341.4.264.432.677.748.335.257.723.432.723.432l.364.075s.164.137.28.229v.152l-.644-.226-.842-.474-.747-.783-.446-.702-.15-.827-.039-.282z" clip-rule="evenodd" fill-rule="evenodd"/>
        <path fill="#444343" d="M32.997 21.307h.271l.177.312.89-.049.305.049.232.043-.536.17h-1.114z" clip-rule="evenodd" fill-rule="evenodd"/>
        <path fill="#960D0D" d="m36.795 91.38 2.463.457 2.21.073v-.53l-.46-.505.915-4.564.325-1.625.574-.05.523-2.867-.523-.381.523-1.603.333-4.117v-3.564l1.102-.742.406-4.195h.291l.398-6.35-4.54-1.125-.59 2.841-1.232 5.9v2.423l.494.507-.494 3.195-.255.61.012 1-.539 4.176v1.044h-.702v2.15l-.472 1.148.472.9-.472 4.442-.762.48z" clip-rule="evenodd" fill-rule="evenodd"/>
        <path fill="#600A0A" d="M40.086 71.61h1.249l1.225.191 1.118.304 1.052-.736-.552-.513s-.523-.149-1.147-.222c-.847-.1-1.156-.172-1.795-.125-1.073.08-1.723.347-1.723.347z" clip-rule="evenodd" fill-rule="evenodd"/>
        <path fill="#6E6A6A" d="m40.199 56.338.622-.097.56.049.384-.905-.163-.24-.781-.036h-.414l-.283.412z" clip-rule="evenodd" fill-rule="evenodd"/>
        <path fill="#5A0C0C" d="M39.062 83.215h-.522v.608l.522.863h1.189l.32.037.764.09.71.152.783-.533-1.781-.61h-.316l-1.223-.177z" clip-rule="evenodd" fill-rule="evenodd" opacity=".828"/>
        <path fill="#600A0A" d="M39.14 75.537s.7.143 1.617.196c.797.045 1.81 0 1.81 0l-.445.315h-1.316s-1.192-.017-1.52-.117c-.146-.198-.146-.394-.146-.394" clip-rule="evenodd" fill-rule="evenodd"/>
        <path fill="#540A0A" d="M36.795 91.38s1.116.26 1.836.406 1.493.19 1.493.19h1.383v-.447l-1.46.14-1.36-.252-1.892-.336z" clip-rule="evenodd" fill-rule="evenodd"/>
        <path fill="#B52521" d="m39.14 75.537.143-.503 1.183.206h2.102v.493l-1.233.068-.869-.008-.868-.16z" clip-rule="evenodd" fill-rule="evenodd"/>
        <path fill="#B52521" d="M38.733 81.616v-.408l1.01.16.62.068h.492l.073.487h-.833l-.686-.061h-.424z" clip-rule="evenodd" fill-rule="evenodd"/>
        <path fill="#B52521" d="M39.086 82.697v-.408l.656.079.62.068h.493v.53h-.79l-.932-.043z" clip-rule="evenodd" fill-rule="evenodd"/>
        <path fill="#B52521" d="m38.673 84.033-.976.374-.101.428.5.526h1.055l1.103.218.163-.942h-1.33z" clip-rule="evenodd" fill-rule="evenodd"/>
        <path fill="#B52521" d="M36.795 91.005v-.497l.41-.249 2.175.293 1.628.323.499.654-1.514.107-2.595-.456z" clip-rule="evenodd" fill-rule="evenodd" opacity=".605"/>
        <path fill="#600A0A" d="M41.388 59.692c.94.193 1.75.468 1.75.468l2.223.44s1.367-.177 1.79-.177c.12 0 .602-.013.745.054-.039.095-.102.216-.136.238-.05.033-.746 0-.746 0l-.623.39s-.374.297-.814.248c-1.29-.145-2.646-.638-2.646-.638l-1.597-.555h-.467v-.468c0-.07.321-.04.52 0" clip-rule="evenodd" fill-rule="evenodd"/>
        <path fill="#600A0A" d="m44.902 56.982.82-.239.153.942-.605.643-.856.325-.485-.325.485-.63.25-.794z" clip-rule="evenodd" fill-rule="evenodd"/>
        <path fill="#5B0909" d="M41.469 55.99h.971l.097.393h.61l.323-.394s-.278-.175-.542-.373a7 7 0 0 0-.335-.231h-.965z" clip-rule="evenodd" fill-rule="evenodd"/>
        <path fill="#5B0909" d="m43.47 54.928.208-.067v-.586h.5l.055-.213s-.072-.421-.171-.565c-.068-.125-.134-.125-.134-.125h-.392l-.26-1.052h-.458v2.234z" clip-rule="evenodd" fill-rule="evenodd"/>
        <path fill="#B52521" d="m42.44 55.99-.672.934-.181.584.067.587-.185 1.005.117.55h-.719v-.55l.294-1.005-.065-.587.238-.666.32-.743z" clip-rule="evenodd" fill-rule="evenodd"/>
        <path fill="#B52521" d="m42.272 60.714-.311 2.224-1.033 5.233v2.323l-.968.178.05-2.501 1.028-5.467.616-2.2z" clip-rule="evenodd" fill-rule="evenodd"/>
        <path fill="#600A0A" d="m45.186 67.167-.195-5.405h-.327l.066 6.282h.347c.11-.477.11-.877.11-.877" clip-rule="evenodd" fill-rule="evenodd"/>
        <path fill="#B52521" d="m41.629 55.385-.08-.333h1.032l1.097.572.156.365h-.364l-.889-.604z" clip-rule="evenodd" fill-rule="evenodd"/>
        <path fill="#600A0A" d="m42.829 81.4-.988-.332-1.361-.108h-1.142v-.18h1.142l1.36.108 1.053.32z" clip-rule="evenodd" fill-rule="evenodd"/>
        <path fill="#3E3E3E" d="m40.198 56.383-.238-.862.238-.219.266-.043.052.213-.052.349.106.484z" clip-rule="evenodd" fill-rule="evenodd" opacity=".626"/>
        <path fill="#150908" d="m39.96 63.257-.69.24-.31.836-.667-.538-.267-.987.934-.67 1 .67z" clip-rule="evenodd" fill-rule="evenodd"/>
        <path fill="#5B5858" d="m31.476 18.29.068-.153c.432-.932 1.038-1.772 1.573-2.648l1.754.575.157.846-.734 1.38-1.373.567s-.84-.182-1.445-.568" clip-rule="evenodd" fill-rule="evenodd" opacity=".225"/>
        <path fill="#98DCD1" d="M61.532 195.51a39.4 39.4 0 0 1-10.325 4.785 40.8 40.8 0 0 1-24.57-.59 39.34 39.34 0 0 1-22.745-20.69 42.8 42.8 0 0 1-3.89-18.265 39.3 39.3 0 0 1 3.11-15.5c2.15-5 9.027-13.358 9.027-13.358l2.172.166 3.685-1.043 2.18-3.04s3.173-.292 4.727-.942c1.867-.763 5.31-3.223 5.31-3.223s.966-1.572 1.73-1.823c.567.526.881.876 1.139 1.163l.05.057c.159-.118.302-.371.46-.649.24-.418.51-.895.912-1.058.743 0 1.304 0 2.09-1.013.406-.083.723-.142.99-.191.637-.118.984-.182 1.555-.4.39-.004 1.247.136 2.132.281.949.155 1.93.315 2.407.31.992-.011 1.597-.011 3.774.589.665-.31.974-.542 1.208-.719.315-.237.495-.372 1.227-.461 1.92 0 5.322.453 7.276 1.24 2.589 1.146 3.58 2.057 6.206 4.469v.001c.818.751 1.794 1.648 3.027 2.744.289.257 2.96 3.207 3.18 3.545 3.23 3.161 4.693 6.916 6.277 10.982.327.84.66 1.694 1.014 2.558a42.9 42.9 0 0 1 3.03 16.28 40.3 40.3 0 0 1-2.395 14.185 39 39 0 0 1-7.385 12.16 21.2 21.2 0 0 0 4.3 1.45 22.3 22.3 0 0 0 4.73.5h1.45v10.91h-1a31 31 0 0 1-8.88-1.36 43 43 0 0 1-9.185-4.05m-1.5-13.645a32.5 32.5 0 0 0 6.17-9.805 31.7 31.7 0 0 0 1.93-11.42 28.18 28.18 0 0 0-7.67-19.395c-2.303-2.59-4.742-5.946-4.742-5.946l-3.634-2.085-1.426-1.985-4.58.663s-2.176.296-2.763.166c-.606-.134-1.697-1.185-1.697-1.185s-1.332 1.014-1.908 1.022c-.947-.006-3.133-.666-3.133-.666l-2.511.666-1.215 1.319s-1.201-.687-1.91-.485c-1.483.423-5.264 1.731-5.264 1.731h-3.16l-2.172 5.6s-4.94 6.106-6.405 9.75a30.3 30.3 0 0 0-2.225 11.47c0 1.297.096 2.592.285 3.875q.32 2.175.885 4.3a21.2 21.2 0 0 1 5.68-1.965 37.3 37.3 0 0 1 7.19-.615 43.4 43.4 0 0 1 17.56 3.87 60.6 60.6 0 0 1 16.715 11.12m-21.475-2.04a44.4 44.4 0 0 1 12.895 8.435 36 36 0 0 1-5.765 1.825 25 25 0 0 1-5.31.59 27.5 27.5 0 0 1-13.195-3.275 29.36 29.36 0 0 1-10.295-9.295 24 24 0 0 1 3.725-.89 26 26 0 0 1 3.945-.295 35.8 35.8 0 0 1 14 2.905" clip-rule="evenodd" fill-rule="evenodd"/>
        <path fill="#525A59" d="M37.837 123.81v-4.655h-3.991l-1.49-.792-2.2-.884h-1.86l-2.828-1.283-1.746.965-2.041.318v3.487l3.787-1.467v4.311l4.687-1.427 3.691 2.645z" clip-rule="evenodd" fill-rule="evenodd"/>
        <path fill="#ABEBE1" d="m28.294 117.479 1.464 1.402-1.733 1.228-.66.967-.775-.967-1.123-.61-1.21.34-.456-.561 1.888-2.117h1.09z" clip-rule="evenodd" fill-rule="evenodd"/>
        <path fill="#ABEBE1" d="m34.209 122.329-.828-.48v-.773l1.128-.307-1.128-.402.828-.737-.828-.512h1.642l.883.512 1.1-.512.83 1.249-.83 1.482-.669-.267-.43.52z" clip-rule="evenodd" fill-rule="evenodd"/>
        <path fill="#ABEBE1" d="m28.128 121.979.726.35v.419l.904-.384v-.619l1.185-1.021-.863-.615-.88.967h-.83z" clip-rule="evenodd" fill-rule="evenodd"/>
        <path fill="#577A75" d="M21.68 125.028h.289v-.411l.55-.573v-1.715l-.25-.829-.784-.424h-1.15l-.16 1.332.718.796.454.84z" clip-rule="evenodd" fill-rule="evenodd"/>
        <path fill="#ABEBE1" d="M15.447 123.738v-.99H14.31l1.136-1.672 1.091-.967.807.615 2.093-.615.697-.991 1.018 1.282v.676h1.366v.823l-.515.849v.99h-6.557" clip-rule="evenodd" fill-rule="evenodd"/>
        <path fill="#ABEBE1" d="m23.8 123.738.863-.441.804.513 1.819-1.062-2.362-2.639-1.123.967-1.282.823z" clip-rule="evenodd" fill-rule="evenodd"/>
        <path fill="#ABEBE1" d="m21.485 124.408 1.871.74 1.517.55v.49h3.875l1.123.503v-.503l-1.123-1.04h-1.347l-1.723-.74z" clip-rule="evenodd" fill-rule="evenodd"/>
        <path fill="#ABEBE1" d="m29.14 124.688-.862-.638h-1.793l1.793-1.282 1.407.63 1.408-.99 1.91.36-.647.63h-1.263l-.795.652-.39 1.015-.768.615z" clip-rule="evenodd" fill-rule="evenodd"/>
        <path fill="#525A59" d="m22.26 122.109-.345-.991-1.037-.892h-.375l-.464.892-.529-.385-1.403-.08s-.607-.835-.607-1.015c.406.234.753.514.753.514l1.257-.193h.529l.217-1.161h.906v.84h.753l.345-.477.447-.965h.465l-.465 1.763v.774z" clip-rule="evenodd" fill-rule="evenodd"/>
        <path fill="#ABEBE1" d="m30.213 124.384.73-.646h1.264l.646 1.141-.646.149-.674-.149-.59.617z" clip-rule="evenodd" fill-rule="evenodd"/>
        <path fill="#6E9690" d="m30.943 119.602.27-.793h.818l.822 1.3-.474.615-.348-.615h-.818z" clip-rule="evenodd" fill-rule="evenodd"/>
        <path fill="#6E9690" d="m22.519 121.076.353-.352-.353-.615v-.991l1.282-.966v1.462h1.123l-.022.495-2.03 1.85z" clip-rule="evenodd" fill-rule="evenodd"/>
        <path fill="#6E9690" d="m14.31 122.748 1.68 3.892h4.162l1.528-1.144v-1.686l-2.008-.618h-1.257l-2.425.546-.543-.99z" clip-rule="evenodd" fill-rule="evenodd"/>
        <path fill="#6E9690" d="M21.969 124.617v1.063l2.503.786v.567h2.308l.506-.393h1.516l.734-.815h-1.408l-1.643.385h-1.56v-.53z" clip-rule="evenodd" fill-rule="evenodd"/>
        <path fill="#525A59" d="M22.519 121.959v2.735l1.777.334.362-.62.53.62 1.297-.62.8-1.66-1.818 1.062-.81-.575-.856.503z" clip-rule="evenodd" fill-rule="evenodd"/>
        <path fill="#6E9690" d="m26.485 124.044.295.984 1.158-.334.71.334.229.797.31-.329v-.879l-.91-.567z" clip-rule="evenodd" fill-rule="evenodd"/>
        <path fill="#ABEBE1" d="M21.162 119.638h.753l.345-.477.447-.965h.465l-.465-.638-.792.39-.286.65-.642-.402h-.89l-.65.593-1.947.849.753.514 1.257-.193h.529l.297-1.17h.826z" clip-rule="evenodd" fill-rule="evenodd"/>
        <path fill="#6E9690" d="m23.8 119.278 1.102.831.776.967h.807l.8.883.843-.883 1.63-2.195-1.733 1.228-.66.967-.775-.967-1.123-.61h-.565l-1.101-.381" clip-rule="evenodd" fill-rule="evenodd"/>
        <path fill="#CBE4E0" d="m21.68 117.479.84-1.092 2.405-1 1.855.504h3.159c-.195.203-.195.394-.195.394l-.716.467 3.825.355.528 1.256h3.214l1.242.755-2.228.186h-.362l-1.02.049-3.697-1.795-2.197-.079-2.865-1.283-1.667.965z" clip-rule="evenodd" fill-rule="evenodd"/>
        <path fill="#7F8484" d="M29.94 115.891v.95l-.912-.089.716-.467v-.19z" clip-rule="evenodd" fill-rule="evenodd"/>
        <path fill="#525A59" d="m38.5 119.896-.3 2.512-.397 2.62 1.248 1.663.449 1.86-.758 3.341h.758l.798-3.341-.372-2.362-1.27-1.254.086-2.187z" clip-rule="evenodd" fill-rule="evenodd"/>
        <path fill="#6E9690" d="m12.139 131.892 2.172.166 3.685-1.043 2.18-3.04h2.996l1.73-.942-.43-.567-1.08-.641-1.169.866-1.697-.225-1.608 1.144-1.418 2.29-2.756.493-1.137.875z" clip-rule="evenodd" fill-rule="evenodd"/>
        <path fill="#525A59" d="m19.75 127.308-.836.531L17.5 129.9l-2.756.493 1.192-3.702 3.814-.051 1.597-.96.138-.652h.728l1.179.797-1.169.866-1.6-.051z" clip-rule="evenodd" fill-rule="evenodd"/>
        <path fill="#525A59" d="M34.226 131.808s-1.745-1.295-1.745-1.868v-2.907l-.948-2.005-.59.468.955 1.537-.365 3.36 2.244 1.499z" clip-rule="evenodd" fill-rule="evenodd"/>
        <path fill="#6E9690" d="M58.459 119.766s1.645 2.295 2.755 3.234 1.506.937 3.346 1.935c1.659.9 2.203.9 3.217 2.598s6.508 9.567 6.508 9.567 2.365 5.025 3.32 8.619 2.007 6.21 2.007 6.21l.985 7.801v10.113L76.04 180.65l-5.147 7.145s2.312 1.303 3.393 1.556c1.274.297 2.89.143 3.32.218 1.192.206 3.423 0 3.423 0l.267 9.74-.698 2.596V190.01h-6.312l-4.168-1.95 5.36-7.65 3.686-10.567.728-8.943-.728-7.718-1.916-6.392-2.962-7.31-3.393-5.945-6.332-6.477-3.896-2.65-2.436-2.908-4.042-.53-3.526.166-3.518 1.272h-3.464l-.786-1.438-3.841-.818s6.715-.101 8.091-.256 3.857 0 3.857 0h1.587c.4-.13.592-.217.772-.286.656.156.868.156 1.221.156.754 0 1.283.13 2.55.13.312 0 1.33-.13 1.33-.13" clip-rule="evenodd" fill-rule="evenodd"/>
        <path fill="#525A59" d="M39.5 131.624v-1.895l.274-1.87.73-3.333.956-.468-.366.468s-.24.747-.303 1.194c-.062.448 0 .967 0 .967s1.623-1.977 1.773-1.832c-.51.533-1.105 1.832-1.105 1.832l-1.25 2.655-.017 2.55z" clip-rule="evenodd" fill-rule="evenodd"/>
    </g>
</svg>
