<?xml version="1.0" encoding="UTF-8"?>
<svg data-bbox="6.646 0.22 748.707 69.723" xmlns="http://www.w3.org/2000/svg" viewBox="0 0 762 86" height="86" width="762" data-type="ugc">
    <g>
        <path fill="#4A4747" d="m243.526 51.933 8.478 2.555h16.19l9.818 3.43 12.553 1.501 14.144 2.237-9.012-15.1-5.132-8.937-3.71-4.504-3.587-4.693-.418-2.913-6.607.861-10.265-2.445-16.158 11.902h-2.341z" clip-rule="evenodd" fill-rule="evenodd" opacity=".988"/>
        <path fill="#6E9690" d="m294.713 20.265-1.759-2.272-2.631 4.457z" clip-rule="evenodd" fill-rule="evenodd"/>
        <path fill="#98DCD1" d="m250.551 37.619 12.51-7.465v-7.236l5.35-5.016v-4.263h4.791l-.428-5.858 3.469-7.56-28.989 7.56 3.297 8.3-3.297 2.839v9.1l-2.267 7.81z" clip-rule="evenodd" fill-rule="evenodd"/>
        <path fill="#98DCD1" d="m281.743 9.633-6.055 3.53-5.696 4.205 2.681-.719 1.925.282-1.353 1.853 2.425-.65.68 2.538 2.757 1.94.584 2.18 1.338-1.384 4.851 1.664.381 1.422-1.431.383 1.927 1.468 4.613-3.22 3.711-3.33 3.228-.053 5.004-4.305 8.001-3.455 3.889-3.72-3.395-1.811-3.659.98-5.783.06-2.616.7-1.27-1.34-6.966.919-3.378.058-2.987.8z" clip-rule="evenodd" fill-rule="evenodd"/>
        <path fill="#6E9690" d="m269.992 17.368.422 1.572-.832.223 6.234 6.015 6.316 3.125 1.69 3.002 4.618-.571 4.596-1.898 2.803-2.924 4.167-1.117 3.002.218.53-1.164 2.849.259 3.07-.823 3.481-.933 1.454-1.412 1.341-8.702-.53-1.976-3.889 3.72-3.085.827-.784.966-4.477 1.2-4.659 4.767-3.065-.658-3.874 4.04-4.613 3.221-1.928-1.468 2.405-.644-1.536-1.838-2.703-1.14-1.966.153-1.338 1.383-.584-2.179-2.757-1.94-.68-2.538-1.327.355-1.098.295 1.353-1.853-1.925-.282-1.239.332z" clip-rule="evenodd" fill-rule="evenodd"/>
        <path fill="#8FC7BF" d="m286.757 28.345-.887 2.416 6.443-1.726 1.099-.295 2.011-2.717 5.128-1.374 2.457.364.53-1.164 2.849.259 3.67-.984 2.881-.772 1.454-1.412 1.341-8.702-.53-1.976-3.889 3.72-3.085.827-.784.966-4.893 1.311-4.244 4.656-3.065-.658-3.873 4.04z" clip-rule="evenodd" fill-rule="evenodd"/>
        <path fill="#6E9690" d="m250.552 37.619 2.745 1.771.653 1.402 1.847.798.846 2.001 4.83-2.001 1.795-2.2-1.795-3.096 2.672-3.476 2.885-2.883.78-3.068-1.832-2.942v-2.923l3.025 1.681 4.579-3.763 1.012-7.068 5.046-7.696L276.243.22l-3.365 6.774v6.645h-4.466v3.539l-6.164 5.505.814 7.47-13.242 7.466z" clip-rule="evenodd" fill-rule="evenodd"/>
        <path fill="#6E9690" d="m300.274 27.533 1.402-2.792h.919l-.654-1.073.654-1.094V20.64l.457-.816-1.111-1.356-.278-.285-1.389-1.04v-1.17l-.865.76v2.187l-1.556 1.72 1.125 5.993z" clip-rule="evenodd" fill-rule="evenodd"/>
        <path fill="#98DCD1" d="m266.02 50.168.566.374.556-.187.679.765 1.518-3.086h.592l.482-1.889v-.687l1.82-.531V43.59l.885-.8-.388-.444-1.732-.96h-1.843l-.399.598-.935.806-1.801.379-1.291.994v1.981l.808.784z" clip-rule="evenodd" fill-rule="evenodd"/>
        <path fill="#333333" d="m313.58 65.042 1.568-3.386 1.351-3.737 2.612-3.69.789-3.37 6.883-3.369 8.092-3.899 1.48-3.31-12.1-6.285-1.918-3.73-7.863.977-9.765-6.16h-3.005l-6.007.197v4.987l11.279 19.712 3.449 9.188 1.476 5.099z" clip-rule="evenodd" fill-rule="evenodd"/>
        <path fill="#6E9690" d="M267.821 51.12h2.05l1.146-.523.616-1.17v-1.394l.967-1.78v-1.59l1.047-1.072-.529-.8-.885.8v1.336l-1.82.53v.688l-.542 1.888h-.622l-1.111 2.564z" clip-rule="evenodd" fill-rule="evenodd"/>
        <path fill="#8FC7BF" d="M299.59 25.15v-.878h.417l.267-1.707-1.058-1.462-.704-.463-.429-.718-.735-1.334h-1.034l-.617-.596-.639-.85h-2.104l-.205.643.779 1.135.366.545v1.458l.731 1.88 1.259.47h.627l.837 2.683h1.492z" clip-rule="evenodd" fill-rule="evenodd"/>
        <path fill="#C3FFF5" d="m303.912 60.295.797-2.376h2.267l-5.99-9.69v-1.976l-5.928-12.585-2.104-2.556-1.878-3.324-2.123-3.863-2.099-3.66-4.005 1.64-1.363 3.604h1.782v2.913l5.685 6.669 5.278 9.333 4.35 7.397z" clip-rule="evenodd" fill-rule="evenodd"/>
        <path fill="#AADBD3" d="m306.976 57.919.848 1.611 2.171 2.126.901 1.801 1.149-.688h1.031l.618-1.113-.618-2.126-1.031-1.611h1.031v-4.83l-1.031-1.197-1.149-2.033-2.056-2.904-1.016 1.491-2.062-4.855 1.214-.8-2.771-3.175-1.69-1.997-.887-1.513.887-3.467-.887-2.21-.606-2.001-1.197-.806-.555-1.252h-2.788l-.785-2.445v-2.02l-1.466-2.407h-1.277l-1.339-.578-1.073.578h-1.692l-1.996.767 6.1 10.847 2.104 2.556 5.929 12.585.035 2.193 5.697 9.473" clip-rule="evenodd" fill-rule="evenodd"/>
        <path fill="#8AB9B2" d="M306.975 57.919h-2.266l-.797 2.376.465.714.577-.348.705.995h.595l.405.89.874-.312 1.039.687 1.041.536.381-.536.568-.375-.568-.89-2.171-2.126z" clip-rule="evenodd" fill-rule="evenodd"/>
        <path fill="#98DCD1" d="M234.166 58.499v1.154h.84l.975.654 2.102-.654 1.294.654.887.432v-1.12h.769l.589 1.12h5.239l2.388-1.086v-1.154l1.419-.604 1.842-1.387-.506-2.02-.588-1.441-2.961-.856-1.069-1.071h-2.398l-.813-.257-3.911.257-.887 1.071-.679 1.375h-1.69l-2.002 3.481z" clip-rule="evenodd" fill-rule="evenodd" opacity=".925"/>
        <path fill="#AEF7EC" d="m246.861 60.74-1.131-1.286-.757-.587v-.965l-1.447-1.282v-2.168l.458-2.686.989-.514 2.414-.132 1.069 1.071 2.96.856.721 1.647.373 1.814-1.311 1.013-1.515.98h-.781v.953z" clip-rule="evenodd" fill-rule="evenodd"/>
        <path fill="#6F9A94" d="m240.232 55.453.18-.147.619-.502v1.126l.988-.563.657-.563v1.52l.661.89-.901 1.012 1.09 1.089-1.507-.236-.425-.853.425-1.011-.425-.156-1.107.156-.668-.416-1.144.416v-.89l-1.763.474 1.763-1.995.854.563" clip-rule="evenodd" fill-rule="evenodd"/>
        <path fill="#6F9A94" d="M239.043 58.487h.668l.508-.685v1.513l-.588.52h-.588l-.912-.52-.718-.828h1.08l.8.828z" clip-rule="evenodd" fill-rule="evenodd"/>
        <path fill="#52716C" d="m265.978 21.002.391 1.755-.391 1.168 1.844 2.87 1.69-.425 2.43.425h1.177l1.845.488 1.279.902.628 1.383 2.769-1.383-1.628-.902v-1.774l-1.141-2.752-1.555-4.764-1.198 2.272-1.309.737-1.39.904-1.358 1.874-1.656 1.303v-1.741l-1.108-.585z" clip-rule="evenodd" fill-rule="evenodd"/>
        <path fill="#8FC7BF" d="m316.048 25.15 1.1-1.225 1.367.612.661-1.948 1.929-.683v-2.082l.7-.904v-.927l.532-1.573v-1.104l-1.232-1.677-2.59-.835-2.467-.524-4.146-1.063-1.907 1.063h-1.173l-3.48 1.36-1.352 1.676-.938 2.867v1.641l-.457 2.082v1.762l2.747.257 2.017 1.225z" clip-rule="evenodd" fill-rule="evenodd"/>
        <path fill="#ADF2E7" d="m267.06 22.584 1.345.758v1.742l1.581-1.16 1.295-1.706 2.837-1.953 1.198-2.272v-1.84l-.209-1.279-.989-.287-.697 1.565-.436 2.47-1.968 1.442-.675.924h-1.424l-.324 1.23-1.708-1.05-.607.432.249 1.742z" clip-rule="evenodd" fill-rule="evenodd"/>
        <path fill="#78ADA5" d="M304.222 14.91h.919l.362.862h1.473l.383 2.077 1.463 1.694 5.652 1.917 2.025 2.207-.451 1.613-6.639 1.09-1.526-.414-1.996-1.627-1.177-.404-.488-.258h-1.627v-1.33l.426-1.697.565-1.097-.565-1.36.565-1.682z" clip-rule="evenodd" fill-rule="evenodd"/>
        <path fill="#6E9690" d="m282.206 41.188 4.667 5.065 1.62-.385 1.309 1.087 1.738-1.852-1.094-.685 1.094-.827-1.094-.8-1.605.8-1.968-.8-.629-.593-.407-1.01-.925.199-1.645-1.107z" clip-rule="evenodd" fill-rule="evenodd"/>
        <path fill="#98DCD1" d="M309.077 41.188v-.908l-1.545.454-.981-1.654v-2.563l-.628-1.784v-1.718l-1.214-1.216.721-1.628-.721-1.534 1.214-1.116v-1.579l1.609-.855.419-2.237 1.126-.725.918-1.86h1.154l1.14-1.345 2.311 4.28 2.088 2.308v1.296l.62.716 1.206 1.116-.641 2.463v1.915l-.565 2.144-1.72.92-.988 1.652-2.311.651-1.14 1.55z" clip-rule="evenodd" fill-rule="evenodd"/>
        <path fill="#6E9690" d="m314.248 26.843.304.33v.36h.775l.537-.36.184-.655-.721-.277h-.775z" clip-rule="evenodd" fill-rule="evenodd"/>
        <path fill="#6E9690" d="m312.708 30.054.595.503h.945l.226.686h-.883l-.883.767v-.767l-.807-.211z" clip-rule="evenodd" fill-rule="evenodd"/>
        <path fill="#6E9690" d="m309.067 32.715.552.482.376-.241.591-.946v1.787l.69.203-.69 1.159-.967-.598-.379-.56-1.226.223.368-.64-1.024-.87v-1.248l.656-.434.368-.765.43 1.2-.43.543.43.705z" clip-rule="evenodd" fill-rule="evenodd"/>
        <path fill="#6E9690" d="M312.79 25.122v.51l-.41.397.205.604h1.109l.554-.392v-.364h-.554l-.38-.244.56-.511.972-.382-.373-.815-.599-.258-.18.258-.081.338h-.823z" clip-rule="evenodd" fill-rule="evenodd"/>
        <path fill="#6E9690" d="M308.822 26.24v.393h.733l.44-.392v-.962l-.586.54-.255.422z" clip-rule="evenodd" fill-rule="evenodd"/>
        <path fill="#6E9690" d="m313.187 35.865.506-.328.78-.56-.225-.94-.555-.197-.506.404-.5-.404v1.012l.212.307-.212.706z" clip-rule="evenodd" fill-rule="evenodd"/>
        <path fill="#8DCAC0" d="m309.077 41.188 2.073-1.257 1.14-1.549 2.184-.67 1.114-1.634 1.72-.92.565-2.143-.168-1.46.81-2.918-1.827-1.832-.357 3.004.357 1.938-.64 1.268h-.9l-.302 1.837-1.658 1.715-1.912.658-1.101 1.157-1.353 1.55z" clip-rule="evenodd" fill-rule="evenodd"/>
        <path fill="#8FC7BF" d="m318.515 31.032.701-1.888-.351-1.611 1.035-.646.857-1.803.813-1.416 1.251-2.119h.718l.716-1.284 1.956-1.345 2.023.475.461 1.245 1.406-.375 1.829 1.284v1.563l.569.813-.569 2.031.569 1.577-1.669 5.18-3.56-.703-1.582-.978-1.269-.394-2.849.765z" clip-rule="evenodd" fill-rule="evenodd"/>
        <path fill="#78ADA5" d="m331.576 30.267-1.432-.644-2.266-.398-3.459-1.26V26.24l.516-3.693v-2.283l-1.396 1.284h-1.202l-1.202 3.192-1.235 2.146-1.035.646v1.692l-.35 2.197h3.822l2.082-1.155 2.894 1.743 2.831.703z" clip-rule="evenodd" fill-rule="evenodd"/>
        <path fill="#98DCD1" d="M314.473 12.307h1.575l1.694.703h1.143l1.398.63v1.27h-2.541l-.364 1.339h-4.191l-1.575-1.338h-2.204v-1.272h3.278l1.007-.63z" clip-rule="evenodd" fill-rule="evenodd"/>
        <path fill="#8DCAC0" d="m309.546 45.514-.724-.48.724-.868.448-.548 1.282-.828v-.896h1.104l.306-1.614 1.007-.287h.78l.675-.358.577 1.553.774.44-.451 1.162v1.376l-.9.263v1.085l-.303 1.441-1.152 1.405h-1.007l-.306-1.405-1.104-.36h-1.282l-.448.805-1.024-2.367" clip-rule="evenodd" fill-rule="evenodd"/>
        <path fill="#76B2A8" d="m310.425 44.482.851.54.604.488h.631l.369.434.7-.434h1.465l.159-1.028.878-.31s-.107-.934-.034-1.382c.074-.448.451-1.162.451-1.162l-1.454 1.706-.571 1.148h-1.594l-1-.485-.604-.31z" clip-rule="evenodd" fill-rule="evenodd"/>
        <path fill="#6A9C93" d="m313.085 52.148-.301-1.086-.746.285-.426-1.139.426-.905-.942-1.17-1.549-.733.448-.804h1.281l1.235.445.273 1.32.91-.227.901-1.093.53-1.32v3.582l-.53 1.759-.679.774z" clip-rule="evenodd" fill-rule="evenodd"/>
        <path fill="#8FC7BF" d="m320.283 45.182-1.768-1.185-1.15-1.897.466-.472-2.683-1.993-.674-1.3 1.574-2.47 1.783-1.013v-2.14l1.594-1.68-.91-.978h.91l.858-1.61 2.054.64h4.229l.747.97 3.892-.461.725 2.417-.725 1.83 1.918.156 3.232 3.674-1.179 1.443-1.551-1.443v1.443l-1.695 1.167v3.506l-2.429.211-2.188 1.185-1.898-.579-.802.58-.93-.58-1.346-.606z" clip-rule="evenodd" fill-rule="evenodd"/>
        <path fill="#78ADA5" d="m317.365 42.1 1.15 1.897 1.768 1.185.827-.828.775-.357h1.042l1.686 1.185.801-.828 1.899.828 2.362-1.396h2.255l-1.315-2.598-1.479.44.539 1.162h-2.362l-1.068.996-1.597-.996-1.721-1.162-.59-1.348-1.227.908-.827-.908-.604.556-1.55-.556-.764-1.224-2.217.579 2.981 2.465z" clip-rule="evenodd" fill-rule="evenodd"/>
        <path fill="#6E9690" d="m324.418 41.188.435.44.561-.677h.535l.851.237.375-.574.229-.709h.771l.602.247-.602.462v.574h.971l-.597.44.597.491-.369.573h-.602l-1-.573-1.226-.491-.535.839h-.561z" clip-rule="evenodd" fill-rule="evenodd"/>
        <path fill="#6DA098" d="m325.193 34.994.496.312v.56l-.496.318-.774.283v-.912l.478-.25-1.131-.606h-.945v-.86l.945.157.489-.829h.642v.673l-.255.156.551.399" clip-rule="evenodd" fill-rule="evenodd"/>
        <path fill="#557E77" d="m315.126 54.229.693-.262v-.462h1.153l1.543-2.438v-1.365l1.106-.767.28-1.06h-1.386l-2.016-.385-.68.385v1.827l-.414.748-.633 1.698v1.111z" clip-rule="evenodd" fill-rule="evenodd"/>
        <path fill="#78ADA5" d="M300.007 24.272v.878l-.863 1h-2.315l-.346.22-.786-2.445V23.3l.815-.188.591 2.038h2.487v-.878z" clip-rule="evenodd" fill-rule="evenodd"/>
        <path fill="#AADBD3" d="m314.474 63.457 2.025 1.585v2.302l2.016 1.014-1.179 1.585h2.947l2.538-1.585h1.598l4.728-3.316 5.862-1.585 1.346-3.162 4.304-3.424 3.908-2.642 3.485-5.294 8.905-5.15 9.419-9.945-2.132-4.951-1.429-2.519-3.74.119v1.954l-2.118-.91-5.644 2.035h-3.261l-6.274 3.145-4.4 2.446-3.711 3.897-1.168 4.535-12.216 3.364-4.257 9.916z" clip-rule="evenodd" fill-rule="evenodd"/>
        <path fill="#91C8C0" d="m263.268 39.39-1.888-3.59 2.765-2.982 1.833-2.764h4.757l2.384-1.165 3.124 1.582v1.52l1.769-.974 4.838-.546.828 1.52 1.709-.47.57 1.297v3.567l-.57 1.234h-6.667l-7.23.66h-6.048z" clip-rule="evenodd" fill-rule="evenodd"/>
        <path fill="#91C8C0" d="m330.005 67.705-2.753-2.978 1.899-3.597 1.055-3.144 2.846-.763 1.749-.468 2.001-1.743 3.428.72.393 1.468 1.456-1.398 4.532-1.78 1.193 1.254 1.53-.896.886 1.105.923 3.445-.231 1.34-2.047.548-4.393 1.177-6.813 2.51-5.842 1.565z" clip-rule="evenodd" fill-rule="evenodd"/>
        <path fill="#52716C" d="m330.005 67.705-.216-.807-.894.24-1.643-2.41 1.174-1.092 2.593-.695 1.328.42 1.439-1.16 2.308-.62.445-1.062.43 1.604 1.129-1.078 1.161 1.011 1.454-.936 1.088-3.999-.191 3.763.551-.148.9 1.085.859-1.014 2.381.146 1.205-1.107.817.566 1.767-1.258.708-1.512.664 2.48-.904.78-1.451.82-3.112.834-2.662.282-1.691 1.749-2.638-.158-3.752 1.005-2.554.685-.556 1.014-2.037.946" clip-rule="evenodd" fill-rule="evenodd"/>
        <path fill="#52716C" d="M263.268 39.39v-.835h-.925l-.963-2.754 1.416-.75h2.685l1.174.75 1.69-.75h2.39l.705-.912v1.662l1.369-.75.86 1.278 1.647-.528 2.086-3.581-1.159 3.585h.57l.589 1.28 1.093-.756 2.261.757 1.451-.757.643.757 2.032-.757 1.075-1.278v2.568l-1.075.52-1.614.416h-3.222l-2.644-.417-2.086 1.252-2.507-.835h-6.529l-.799.835-2.213.387" clip-rule="evenodd" fill-rule="evenodd"/>
        <path fill="#7AA49D" d="m357.764 63.457 1.634 1.585 3.401 1.11 4.17-1.11 6.034-.237h5.179l5.229-3.149h5.944l3.503-1.36V56.19l2.164-1.961v-3.37l1.309-3.369-1.309-5.37-2.164-3.064 2.164-4.204-4.267-4.585-7.344.765-5.229 1.68-5.179-.702-4.477 1.157h-5.727l-3.401 3.646-5.148 6.805-8.541 7.242v5.33l-2.019 5.466-1.912 3.149 9.363 1.348z" clip-rule="evenodd" fill-rule="evenodd"/>
        <path fill="#8FC7BF" d="m366.776 60.688-1.969-2.77V54.23l-1.434-2.081h-2.767v-6.204l-1.531-1.947v-2.809l1.531-6.371 4.201-1.65 9.604.673h5.995l5.513-2.808 4.836-.765 3.369 6.546-1.56 3.467 3.767 4.782-2.207 3.873v4.331l-1.56 3.566v3.463l-2.918-2.376-4.874 1.1-2.527 1.669-1.839-.393-3.717 1.361-2.278-1.36-2.034 1.36z" clip-rule="evenodd" fill-rule="evenodd"/>
        <path fill="#A1E4DA" d="m393.617 56.29 1.641 1.758h1.073l.925 1.063 4.407.78 2.193 1.765 12.899-1.765 8.866-4.625v-3.62l2.023-2.181V48.21l-1.296-1.52h-1.589l-1.409-1.459v-1.548l-3.17-1.225 7.464 1.225-4.294-1.225-11.816-2.746-5.626-3.18h-4.99l-1.6-1.267-.806 1.267-2.181 1.18-2.714-1.18-.945 1.18v3.346l3.659 2.625v3.807l-1.073 3.138v2.306z" clip-rule="evenodd" fill-rule="evenodd"/>
        <path fill="#C3FFF5" d="m387.234 65.96-1.66-1.878 1.133-1.963-11.386.342-1.711-.988-13.863-1.158-3.265.544-3.819-.036-4.407-.093-4.219-.012-.581 4.289 2.44 2.982.89-1.543 2.523 1.456 8.618-1.59 10.721.097 8.581-.069z" clip-rule="evenodd" fill-rule="evenodd"/>
        <path fill="#AADBD3" d="m386.707 62.119 1.82.071 2.926-.817 2.011.12-.022-1.339.515-.893-.654-1.091-2.15-.528-1.911.087.515-.893-4.183-2.415-1.552.295-2.334-.022-3.544.329.784 1.625-5.236-.642-.086-1.451-4.135.812-2.575.465-1.753.012-2.56-2.502-2.357-.337-2.036-.475-1.296.634-1.362-.146-1.394 2.414-2.51-.543-1.749-1.009-2.818.066-.638 1.105-1.171.872-.035 1.217-.846 1.466-.334 2.112 12.444.14 3.265-.543 13.864 1.158 1.917 1.066 11.052-.197" clip-rule="evenodd" fill-rule="evenodd"/>
        <path fill="#8AB9B2" d="m386.707 62.119-1.133 1.963 1.66 1.878.85-.046-.012-.673 1.214-.114.297-.514.973.094.167-.914 1.115-.556.984-.633-.273-.598-.041-.68-1.054.047-2.927.817z" clip-rule="evenodd" fill-rule="evenodd"/>
        <path fill="#8FC7BF" d="m415.993 53.529-1.508 1.017-1.695-.509-.933-1.779h-1.121v-1.566l-1.8-1.04v-2.36l-1.708-.788-.642-1.705h-5.556v-1.562h-2.363v-1.999l-2.336 1.469.471 3.255-.471 2.499-.609 1.192v2.605l-2.105 4.032 1.642 1.758h2.015l.645 1.044h3.702l.886 1.996h6.429l2.921-1.523h2.628l3.144-.472.71-2.17h3.626l2.273-1.336 1.512-1.55-.668-2.874 2.562-1.51-1.006-2.36h-1.556l-.844-1.331h-3.139l.866-1.163-2.514.706.678 2.273v1.875h-1.79v2.163z" clip-rule="evenodd" fill-rule="evenodd"/>
        <path fill="#7AA49D" d="m424.237 45.962 1.98-.425.934-.73-.934-1.185-2.867-1.164h-6.837l-2.474-1.22-3.881.736-1.419.484 5.3 1.142 1.819.022 2.087-.022 2.582.022.548.676h2.275z" clip-rule="evenodd" fill-rule="evenodd"/>
        <path fill="#C3FFF5" d="m318.515 52.148 5.74-2.492h2.528l2.364-2.166 4.856-1.528 3.924-3.172 2.498-2.51 2.828.908 6.34-4.375.908-2.973 3.71-3.573 2.933 1.743 6.403-4.477-4.472-1.577v1.577h-4.864l-3.71 2.521h-3.378l-6.092 2.659-4.676 3.152-2.352 3.187-1.504 4.945-9.678 1.965-2.921 1.528z" clip-rule="evenodd" fill-rule="evenodd"/>
        <path fill="#76BDB1" d="M248.719 37.619v2.158l-1.775.503-1.956 1.107-1.462-1.107-1.527-.503-1.78-2.158-1.403-.713-1.403-.907 1.403-1.86-.584-1.92 1.987-1.442 1.78 1.443 1.067-2.023 1.922.58 1.956-1.888 1.074 2.78.701 4.33z" clip-rule="evenodd" fill-rule="evenodd"/>
        <path fill="#6E9690" d="m246.556 39.777-1.568-.387 1.568-1.771 1.081-2.189 1.082-.922v5.27l-1.386.7-1.82.909h-1.987v-1.61l1.987.702z" clip-rule="evenodd" fill-rule="evenodd"/>
        <path fill="#C2FFF5" d="M230.067 42.79v2.26l.969 1.203 1.273.702.497 1.59h1.36l1.108 1.805h1.639l1.295 1.88 2.057-1.11 3.261-.77 2.597-2.84.763-3.116 2.34-1.603.594-2.51-2.934-1.667-5.812-4.106-4.161-1.308-1.639 1.308h-1.722l-1.853 2.338-.663 2.931-.969 1.61" clip-rule="evenodd" fill-rule="evenodd"/>
        <path fill="#98DCD1" d="m239.943 51.12.276-2.973-1.403-1.894-.578-2.662-1.325-2.204.5-1.107-3.247-4.282-.542 1.95-.751 3.439-1.837-1.61-.969 1.61-1.067 2.23.556 1.342 1.48-.694v3.263l1.837.62 1.737.84 2.803 2.132z" clip-rule="evenodd" fill-rule="evenodd" opacity=".853"/>
        <path fill="#8DCAC0" d="m254.947 55.519.725-.481-.725-.868-.448-.548-1.281-.827v-.897h-1.104l-.307-1.613-1.007-.287h-.78l-.675-.359-.577 1.554-.773.44.45 1.162v1.375l.9.263v1.085l.303 1.442 1.152 1.405h1.007l.307-1.405 1.104-.36h1.281l.448.805 1.024-2.367" clip-rule="evenodd" fill-rule="evenodd"/>
        <path fill="#76B2A8" d="m255.971 54.487-.852.54-.603.487h-.632l-.368.434-.701-.434h-1.464l-.159-1.027-.879-.31s.108-.934.034-1.382c-.073-.448-.451-1.163-.451-1.163l1.455 1.706.571 1.149h1.594l1-.485.603-.31z" clip-rule="evenodd" fill-rule="evenodd"/>
        <path fill="#6A9C93" d="m251.059 62.153.301-1.086.745.285.426-1.14-.426-.905.942-1.169 1.55-.733-.448-.805h-1.282l-1.235.445-.272 1.32-.91-.227-.901-1.093-.531-1.32v3.582l.531 1.76.678.773z" clip-rule="evenodd" fill-rule="evenodd"/>
        <path fill="#6E9690" d="m240.22 43.618 1.244-1.442V40.28h2.062l2.597-2.333 3.697 2.333-.427 2.435-2.507 1.678-.763 3.117-3.057 3.353h-2.846v-2.716l-1.404-1.894z" clip-rule="evenodd" fill-rule="evenodd"/>
        <path fill="#C3FFF5" d="m252.509 54.229 1.146-3.11 1.713-.26V48.36l1.884-2.107 2.597 1.904h2.402l1.297 2.084 2.429-1.88 4.757 3.87 2.074 3.57-2.074 2.001.063 3.854-4.82 1.801-3.726 1.585-3.598-1.585h-3.285l-2.859 1.585h-4.491v-3.386l3.707-1.822 1.93-1.915v-2.272z" clip-rule="evenodd" fill-rule="evenodd"/>
        <path fill="#8DCAC0" d="m346.947 54.519.725-.481-.725-.868-.448-.548-1.281-.827v-.897h-1.104l-.307-1.613-1.007-.287h-.78l-.675-.359-.577 1.554-.773.44.45 1.162v1.375l.9.263v1.085l.303 1.442 1.152 1.405h1.007l.307-1.405 1.104-.36h1.281l.448.805 1.024-2.367" clip-rule="evenodd" fill-rule="evenodd"/>
        <path fill="#76B2A8" d="m347.971 53.487-.852.54-.603.487h-.632l-.368.434-.701-.434h-1.464l-.159-1.027-.879-.31s.108-.934.034-1.382c-.073-.448-.451-1.163-.451-1.163l1.455 1.706.571 1.149h1.594l1-.485.603-.31z" clip-rule="evenodd" fill-rule="evenodd"/>
        <path fill="#6A9C93" d="m343.059 61.153.301-1.086.745.285.426-1.14-.426-.905.942-1.169 1.55-.733-.448-.805h-1.282l-1.235.445-.272 1.32-.91-.227-.901-1.093-.531-1.32v3.582l.531 1.76.678.773z" clip-rule="evenodd" fill-rule="evenodd"/>
        <path fill="#98D4CA" d="m248.018 65.042.701 2.945 2.396 1.871 3.681-1.871 3.009 1.379 2.608-1.38 2.372-2.266 2.961.958h2.075l2.407-2.25 1.53-.97-1.024-1.802h-2.406l-2.582 1.801-3.495 1.585-3.598-1.585h-3.285l-2.859 1.585h-3.79" clip-rule="evenodd" fill-rule="evenodd"/>
        <path fill="#629890" d="m271.758 63.457-1.024-1.8v-3.855l2.075-2v2l-.696 1.401z" clip-rule="evenodd" fill-rule="evenodd"/>
        <path fill="#7EC9BF" d="m278.011 55.647 7.197-2.429 6.332 3.841 6.312-2.255 2.422 4.014 2.32 2.838-7.536 1.801-7.153-1.8h-15.097l-4.987-3.855z" clip-rule="evenodd" fill-rule="evenodd"/>
        <path fill="#5A9E93" d="m302.594 61.656-3.895 3.386h-3.842l-4.407.715-3.596-2.3-5.368-.928-5.243 1.178-2.662 1.335-2.847-2.513-2.913-4.61 5.297 3.737 14.775-.917 7.165 2.718z" clip-rule="evenodd" fill-rule="evenodd"/>
        <path fill="#4C4A4A" d="m359.075 44.405-2.543 2.55v1.98l-5.825 1.697-2.736 3.37 1.619.227 4.549 1.203 1.25-2.43h1.605l1.196-.472 4.394.812 2.475 2.46-.252-1.573-1.435-2.081h-2.767v-5.874z" clip-rule="evenodd" fill-rule="evenodd"/>
        <path fill="#4C4A4A" d="m386.904 54.726 2.333-1.724 3.435.862v1.938l1.286-1.076.905 2.622 1.468.591 2.15.637 2.842-.637v1.619l1.972.384v1.146h4.424l3.974-1.53 2.359.384 1.581 1.714-6.893.832h-4.688l-3.653-.75-7.727.75-.164-1.161.956.166-.021-1.339.515-.893-.661-1.061-1.347-.36-2.713-.095V56.29z" clip-rule="evenodd" fill-rule="evenodd"/>
        <path fill="#4A4747" d="m597.474 51.933-8.478 2.555h-16.19l-9.818 3.43-12.553 1.501-14.144 2.237 9.012-15.1 5.132-8.937 3.71-4.504 3.587-4.693.418-2.913 6.607.861 10.265-2.445 16.158 11.902h2.341z" clip-rule="evenodd" fill-rule="evenodd" opacity=".988"/>
        <path fill="#6E9690" d="m546.287 20.265 1.759-2.272 2.631 4.457z" clip-rule="evenodd" fill-rule="evenodd"/>
        <path fill="#98DCD1" d="m590.449 37.619-12.51-7.465v-7.236l-5.35-5.016v-4.263h-4.791l.428-5.858-3.469-7.56 28.989 7.56-3.297 8.3 3.297 2.839v9.1l2.267 7.81z" clip-rule="evenodd" fill-rule="evenodd"/>
        <path fill="#98DCD1" d="m559.257 9.633 6.055 3.53 5.696 4.205-2.681-.719-1.925.282 1.353 1.853-2.425-.65-.68 2.538-2.757 1.94-.584 2.18-1.338-1.384-4.851 1.664-.381 1.422 1.431.383-1.927 1.468-4.613-3.22-3.711-3.33-3.228-.053-5.004-4.305-8.001-3.455-3.889-3.72 3.395-1.811 3.659.98 5.783.06 2.616.7 1.27-1.34 6.966.919 3.378.058 2.987.8z" clip-rule="evenodd" fill-rule="evenodd"/>
        <path fill="#6E9690" d="m571.008 17.368-.422 1.572.832.223-6.234 6.015-6.316 3.125-1.69 3.002-4.618-.571-4.596-1.898-2.803-2.924-4.167-1.117-3.002.218-.53-1.164-2.849.259-3.07-.823-3.481-.933-1.454-1.412-1.341-8.702.53-1.976 3.889 3.72 3.085.827.784.966 4.477 1.2 4.659 4.767 3.065-.658 3.874 4.04 4.613 3.221 1.928-1.468-2.405-.644 1.536-1.838 2.703-1.14 1.966.153 1.338 1.383.584-2.179 2.757-1.94.68-2.538 1.327.355 1.098.295-1.353-1.853 1.925-.282 1.239.332z" clip-rule="evenodd" fill-rule="evenodd"/>
        <path fill="#8FC7BF" d="m554.243 28.345.887 2.416-6.443-1.726-1.099-.295-2.011-2.717-5.128-1.374-2.457.364-.53-1.164-2.849.259-3.67-.984-2.881-.772-1.454-1.412-1.341-8.702.53-1.976 3.889 3.72 3.085.827.784.966 4.893 1.311 4.244 4.656 3.065-.658 3.873 4.04z" clip-rule="evenodd" fill-rule="evenodd"/>
        <path fill="#6E9690" d="m590.448 37.619-2.745 1.771-.653 1.402-1.847.798-.846 2.001-4.83-2.001-1.795-2.2 1.795-3.096-2.672-3.476-2.885-2.883-.78-3.068 1.832-2.942v-2.923l-3.025 1.681-4.579-3.763-1.012-7.068-5.046-7.696L564.757.22l3.365 6.774v6.645h4.466v3.539l6.164 5.505-.814 7.47 13.242 7.466z" clip-rule="evenodd" fill-rule="evenodd"/>
        <path fill="#6E9690" d="m540.726 27.533-1.402-2.792h-.919l.654-1.073-.654-1.094V20.64l-.457-.816 1.111-1.356.278-.285 1.389-1.04v-1.17l.865.76v2.187l1.556 1.72-1.125 5.993z" clip-rule="evenodd" fill-rule="evenodd"/>
        <path fill="#98DCD1" d="m574.98 50.168-.566.374-.556-.187-.679.765-1.518-3.086h-.592l-.482-1.889v-.687l-1.82-.531V43.59l-.885-.8.388-.444 1.732-.96h1.843l.399.598.935.806 1.801.379 1.291.994v1.981l-.808.784z" clip-rule="evenodd" fill-rule="evenodd"/>
        <path fill="#333333" d="m527.42 65.042-1.568-3.386-1.351-3.737-2.612-3.69-.789-3.37-6.883-3.369-8.092-3.899-1.48-3.31 12.1-6.285 1.918-3.73 7.863.977 9.765-6.16h3.005l6.007.197v4.987l-11.279 19.712-3.449 9.188-1.476 5.099z" clip-rule="evenodd" fill-rule="evenodd"/>
        <path fill="#6E9690" d="M573.179 51.12h-2.05l-1.146-.523-.616-1.17v-1.394l-.967-1.78v-1.59l-1.047-1.072.529-.8.885.8v1.336l1.82.53v.688l.542 1.888h.622l1.111 2.564z" clip-rule="evenodd" fill-rule="evenodd"/>
        <path fill="#8FC7BF" d="M541.41 25.15v-.878h-.417l-.267-1.707 1.058-1.462.704-.463.429-.718.735-1.334h1.034l.617-.596.639-.85h2.104l.205.643-.779 1.135-.366.545v1.458l-.731 1.88-1.259.47h-.627l-.837 2.683h-1.492z" clip-rule="evenodd" fill-rule="evenodd"/>
        <path fill="#C3FFF5" d="m537.088 60.295-.797-2.376h-2.267l5.99-9.69v-1.976l5.928-12.585 2.104-2.556 1.878-3.324 2.123-3.863 2.099-3.66 4.005 1.64 1.363 3.604h-1.782v2.913l-5.685 6.669-5.278 9.333-4.35 7.397z" clip-rule="evenodd" fill-rule="evenodd"/>
        <path fill="#AADBD3" d="m534.024 57.919-.848 1.611-2.171 2.126-.901 1.801-1.149-.688h-1.031l-.618-1.113.618-2.126 1.031-1.611h-1.031v-4.83l1.031-1.197 1.149-2.033 2.056-2.904 1.016 1.491 2.062-4.855-1.214-.8 2.771-3.175 1.69-1.997.887-1.513-.887-3.467.887-2.21.606-2.001 1.197-.806.555-1.252h2.788l.785-2.445v-2.02l1.466-2.407h1.277l1.339-.578 1.073.578h1.692l1.996.767-6.1 10.847-2.104 2.556-5.929 12.585-.035 2.193-5.697 9.473" clip-rule="evenodd" fill-rule="evenodd"/>
        <path fill="#8AB9B2" d="M534.025 57.919h2.266l.797 2.376-.465.714-.577-.348-.705.995h-.595l-.405.89-.874-.312-1.039.687-1.041.536-.381-.536-.568-.375.568-.89 2.171-2.126z" clip-rule="evenodd" fill-rule="evenodd"/>
        <path fill="#98DCD1" d="M606.834 58.499v1.154h-.84l-.975.654-2.102-.654-1.294.654-.887.432v-1.12h-.769l-.589 1.12h-5.239l-2.388-1.086v-1.154l-1.419-.604-1.842-1.387.506-2.02.588-1.441 2.961-.856 1.069-1.071h2.398l.813-.257 3.911.257.887 1.071.679 1.375h1.69l2.002 3.481z" clip-rule="evenodd" fill-rule="evenodd" opacity=".925"/>
        <path fill="#AEF7EC" d="m594.139 60.74 1.131-1.286.757-.587v-.965l1.447-1.282v-2.168l-.458-2.686-.989-.514-2.414-.132-1.069 1.071-2.96.856-.721 1.647-.373 1.814 1.311 1.013 1.515.98h.781v.953z" clip-rule="evenodd" fill-rule="evenodd"/>
        <path fill="#6F9A94" d="m600.768 55.453-.18-.147-.619-.502v1.126l-.988-.563-.657-.563v1.52l-.661.89.901 1.012-1.09 1.089 1.507-.236.425-.853-.425-1.011.425-.156 1.107.156.668-.416 1.144.416v-.89l1.763.474-1.763-1.995-.854.563" clip-rule="evenodd" fill-rule="evenodd"/>
        <path fill="#6F9A94" d="M601.957 58.487h-.668l-.508-.685v1.513l.588.52h.588l.912-.52.718-.828h-1.08l-.8.828z" clip-rule="evenodd" fill-rule="evenodd"/>
        <path fill="#52716C" d="m575.022 21.002-.391 1.755.391 1.168-1.844 2.87-1.69-.425-2.43.425h-1.177l-1.845.488-1.279.902-.628 1.383-2.769-1.383 1.628-.902v-1.774l1.141-2.752 1.555-4.764 1.198 2.272 1.309.737 1.39.904 1.358 1.874 1.656 1.303v-1.741l1.108-.585z" clip-rule="evenodd" fill-rule="evenodd"/>
        <path fill="#8FC7BF" d="m524.952 25.15-1.1-1.225-1.367.612-.661-1.948-1.929-.683v-2.082l-.7-.904v-.927l-.532-1.573v-1.104l1.232-1.677 2.59-.835 2.467-.524 4.146-1.063 1.907 1.063h1.173l3.48 1.36 1.352 1.676.938 2.867v1.641l.457 2.082v1.762l-2.747.257-2.017 1.225z" clip-rule="evenodd" fill-rule="evenodd"/>
        <path fill="#ADF2E7" d="m573.94 22.584-1.345.758v1.742l-1.581-1.16-1.295-1.706-2.837-1.953-1.198-2.272v-1.84l.209-1.279.989-.287.697 1.565.436 2.47 1.968 1.442.675.924h1.424l.324 1.23 1.708-1.05.607.432-.249 1.742z" clip-rule="evenodd" fill-rule="evenodd"/>
        <path fill="#78ADA5" d="M536.778 14.91h-.919l-.362.862h-1.473l-.383 2.077-1.463 1.694-5.652 1.917-2.025 2.207.451 1.613 6.639 1.09 1.526-.414 1.996-1.627 1.177-.404.488-.258h1.627v-1.33l-.426-1.697-.565-1.097.565-1.36-.565-1.682z" clip-rule="evenodd" fill-rule="evenodd"/>
        <path fill="#6E9690" d="m558.794 41.188-4.667 5.065-1.62-.385-1.309 1.087-1.738-1.852 1.094-.685-1.094-.827 1.094-.8 1.605.8 1.968-.8.629-.593.407-1.01.925.199 1.645-1.107z" clip-rule="evenodd" fill-rule="evenodd"/>
        <path fill="#98DCD1" d="M531.923 41.188v-.908l1.545.454.981-1.654v-2.563l.628-1.784v-1.718l1.214-1.216-.721-1.628.721-1.534-1.214-1.116v-1.579l-1.609-.855-.419-2.237-1.126-.725-.918-1.86h-1.154l-1.14-1.345-2.311 4.28-2.088 2.308v1.296l-.62.716-1.206 1.116.641 2.463v1.915l.565 2.144 1.72.92.988 1.652 2.311.651 1.14 1.55z" clip-rule="evenodd" fill-rule="evenodd"/>
        <path fill="#6E9690" d="m526.752 26.843-.304.33v.36h-.775l-.537-.36-.184-.655.721-.277h.775z" clip-rule="evenodd" fill-rule="evenodd"/>
        <path fill="#6E9690" d="m528.292 30.054-.595.503h-.945l-.226.686h.883l.883.767v-.767l.807-.211z" clip-rule="evenodd" fill-rule="evenodd"/>
        <path fill="#6E9690" d="m531.933 32.715-.552.482-.376-.241-.591-.946v1.787l-.69.203.69 1.159.967-.598.379-.56 1.226.223-.368-.64 1.024-.87v-1.248l-.656-.434-.368-.765-.43 1.2.43.543-.43.705z" clip-rule="evenodd" fill-rule="evenodd"/>
        <path fill="#6E9690" d="M528.21 25.122v.51l.41.397-.205.604h-1.109l-.554-.392v-.364h.554l.38-.244-.56-.511-.972-.382.373-.815.599-.258.18.258.081.338h.823z" clip-rule="evenodd" fill-rule="evenodd"/>
        <path fill="#6E9690" d="M532.178 26.24v.393h-.733l-.44-.392v-.962l.586.54.255.422z" clip-rule="evenodd" fill-rule="evenodd"/>
        <path fill="#6E9690" d="m527.813 35.865-.506-.328-.78-.56.225-.94.555-.197.506.404.5-.404v1.012l-.212.307.212.706z" clip-rule="evenodd" fill-rule="evenodd"/>
        <path fill="#8DCAC0" d="m531.923 41.188-2.073-1.257-1.14-1.549-2.184-.67-1.114-1.634-1.72-.92-.565-2.143.168-1.46-.81-2.918 1.827-1.832.357 3.004-.357 1.938.64 1.268h.9l.302 1.837 1.658 1.715 1.912.658 1.101 1.157 1.353 1.55z" clip-rule="evenodd" fill-rule="evenodd"/>
        <path fill="#8FC7BF" d="m522.485 31.032-.701-1.888.351-1.611-1.035-.646-.857-1.803-.813-1.416-1.251-2.119h-.718l-.716-1.284-1.956-1.345-2.023.475-.461 1.245-1.406-.375-1.829 1.284v1.563l-.569.813.569 2.031-.569 1.577 1.669 5.18 3.56-.703 1.582-.978 1.269-.394 2.849.765z" clip-rule="evenodd" fill-rule="evenodd"/>
        <path fill="#78ADA5" d="m509.424 30.267 1.432-.644 2.266-.398 3.459-1.26V26.24l-.516-3.693v-2.283l1.396 1.284h1.202l1.202 3.192 1.235 2.146 1.035.646v1.692l.35 2.197h-3.822l-2.082-1.155-2.894 1.743-2.831.703z" clip-rule="evenodd" fill-rule="evenodd"/>
        <path fill="#98DCD1" d="M526.527 12.307h-1.575l-1.694.703h-1.143l-1.398.63v1.27h2.541l.364 1.339h4.191l1.575-1.338h2.204v-1.272h-3.278l-1.007-.63z" clip-rule="evenodd" fill-rule="evenodd"/>
        <path fill="#8DCAC0" d="m531.454 45.514.724-.48-.724-.868-.448-.548-1.282-.828v-.896h-1.104l-.306-1.614-1.007-.287h-.78l-.675-.358-.577 1.553-.774.44.451 1.162v1.376l.9.263v1.085l.303 1.441 1.152 1.405h1.007l.306-1.405 1.104-.36h1.282l.448.805 1.024-2.367" clip-rule="evenodd" fill-rule="evenodd"/>
        <path fill="#76B2A8" d="m530.575 44.482-.851.54-.604.488h-.631l-.369.434-.7-.434h-1.465l-.159-1.028-.878-.31s.107-.934.034-1.382c-.074-.448-.451-1.162-.451-1.162l1.454 1.706.571 1.148h1.594l1-.485.604-.31z" clip-rule="evenodd" fill-rule="evenodd"/>
        <path fill="#6A9C93" d="m527.915 52.148.301-1.086.746.285.426-1.139-.426-.905.942-1.17 1.549-.733-.448-.804h-1.281l-1.235.445-.273 1.32-.91-.227-.901-1.093-.53-1.32v3.582l.53 1.759.679.774z" clip-rule="evenodd" fill-rule="evenodd"/>
        <path fill="#8FC7BF" d="m520.717 45.182 1.768-1.185 1.15-1.897-.466-.472 2.683-1.993.674-1.3-1.574-2.47-1.783-1.013v-2.14l-1.594-1.68.91-.978h-.91l-.858-1.61-2.054.64h-4.229l-.747.97-3.892-.461-.725 2.417.725 1.83-1.918.156-3.232 3.674 1.179 1.443 1.551-1.443v1.443l1.695 1.167v3.506l2.429.211 2.188 1.185 1.898-.579.802.58.93-.58 1.346-.606z" clip-rule="evenodd" fill-rule="evenodd"/>
        <path fill="#78ADA5" d="m523.635 42.1-1.15 1.897-1.768 1.185-.827-.828-.775-.357h-1.042l-1.686 1.185-.801-.828-1.899.828-2.362-1.396h-2.255l1.315-2.598 1.479.44-.539 1.162h2.362l1.068.996 1.597-.996 1.721-1.162.59-1.348 1.227.908.827-.908.604.556 1.55-.556.764-1.224 2.217.579-2.981 2.465z" clip-rule="evenodd" fill-rule="evenodd"/>
        <path fill="#6E9690" d="m516.582 41.188-.435.44-.561-.677h-.535l-.851.237-.375-.574-.229-.709h-.771l-.602.247.602.462v.574h-.971l.597.44-.597.491.369.573h.602l1-.573 1.226-.491.535.839h.561z" clip-rule="evenodd" fill-rule="evenodd"/>
        <path fill="#6DA098" d="m515.807 34.994-.496.312v.56l.496.318.774.283v-.912l-.478-.25 1.131-.606h.945v-.86l-.945.157-.489-.829h-.642v.673l.255.156-.551.399" clip-rule="evenodd" fill-rule="evenodd"/>
        <path fill="#557E77" d="m525.874 54.229-.693-.262v-.462h-1.153l-1.543-2.438v-1.365l-1.106-.767-.28-1.06h1.386l2.016-.385.68.385v1.827l.414.748.633 1.698v1.111z" clip-rule="evenodd" fill-rule="evenodd"/>
        <path fill="#78ADA5" d="M540.993 24.272v.878l.863 1h2.315l.346.22.786-2.445V23.3l-.815-.188-.591 2.038h-2.487v-.878z" clip-rule="evenodd" fill-rule="evenodd"/>
        <path fill="#AADBD3" d="m526.526 63.457-2.025 1.585v2.302l-2.016 1.014 1.179 1.585h-2.947l-2.538-1.585h-1.598l-4.728-3.316-5.862-1.585-1.346-3.162-4.304-3.424-3.908-2.642-3.485-5.294-8.905-5.15-9.419-9.945 2.132-4.951 1.429-2.519 3.74.119v1.954l2.118-.91 5.644 2.035h3.261l6.274 3.145 4.4 2.446 3.711 3.897 1.168 4.535 12.216 3.364 4.257 9.916z" clip-rule="evenodd" fill-rule="evenodd"/>
        <path fill="#91C8C0" d="m577.732 39.39 1.888-3.59-2.765-2.982-1.833-2.764h-4.757l-2.384-1.165-3.124 1.582v1.52l-1.769-.974-4.838-.546-.828 1.52-1.709-.47-.57 1.297v3.567l.57 1.234h6.667l7.23.66h6.048z" clip-rule="evenodd" fill-rule="evenodd"/>
        <path fill="#91C8C0" d="m510.995 67.705 2.753-2.978-1.899-3.597-1.055-3.144-2.846-.763-1.749-.468-2.001-1.743-3.428.72-.393 1.468-1.456-1.398-4.532-1.78-1.193 1.254-1.53-.896-.886 1.105-.923 3.445.231 1.34 2.047.548 4.393 1.177 6.813 2.51 5.842 1.565z" clip-rule="evenodd" fill-rule="evenodd"/>
        <path fill="#52716C" d="m510.995 67.705.216-.807.894.24 1.643-2.41-1.174-1.092-2.593-.695-1.328.42-1.439-1.16-2.308-.62-.445-1.062-.43 1.604-1.129-1.078-1.161 1.011-1.454-.936-1.088-3.999.191 3.763-.551-.148-.9 1.085-.859-1.014-2.381.146-1.205-1.107-.817.566-1.767-1.258-.708-1.512-.664 2.48.904.78 1.451.82 3.112.834 2.662.282 1.691 1.749 2.638-.158 3.752 1.005 2.554.685.556 1.014 2.037.946" clip-rule="evenodd" fill-rule="evenodd"/>
        <path fill="#52716C" d="M577.732 39.39v-.835h.925l.963-2.754-1.416-.75h-2.685l-1.174.75-1.69-.75h-2.39l-.705-.912v1.662l-1.369-.75-.86 1.278-1.647-.528-2.086-3.581 1.159 3.585h-.57l-.589 1.28-1.093-.756-2.261.757-1.451-.757-.643.757-2.032-.757-1.075-1.278v2.568l1.075.52 1.614.416h3.222l2.644-.417 2.086 1.252 2.507-.835h6.529l.799.835 2.213.387" clip-rule="evenodd" fill-rule="evenodd"/>
        <path fill="#7AA49D" d="m483.236 63.457-1.634 1.585-3.401 1.11-4.17-1.11-6.034-.237h-5.179l-5.229-3.149h-5.944l-3.503-1.36V56.19l-2.164-1.961v-3.37l-1.309-3.369 1.309-5.37 2.164-3.064-2.164-4.204 4.267-4.585 7.344.765 5.229 1.68 5.179-.702 4.477 1.157h5.727l3.401 3.646 5.148 6.805 8.541 7.242v5.33l2.019 5.466 1.912 3.149-9.363 1.348z" clip-rule="evenodd" fill-rule="evenodd"/>
        <path fill="#8FC7BF" d="m474.224 60.688 1.969-2.77V54.23l1.434-2.081h2.767v-6.204l1.531-1.947v-2.809l-1.531-6.371-4.201-1.65-9.604.673h-5.995l-5.513-2.808-4.836-.765-3.369 6.546 1.56 3.467-3.767 4.782 2.207 3.873v4.331l1.56 3.566v3.463l2.918-2.376 4.874 1.1 2.527 1.669 1.839-.393 3.717 1.361 2.278-1.36 2.034 1.36z" clip-rule="evenodd" fill-rule="evenodd"/>
        <path fill="#A1E4DA" d="m447.383 56.29-1.641 1.758h-1.073l-.925 1.063-4.407.78-2.193 1.765-12.899-1.765-8.866-4.625v-3.62l-2.023-2.181V48.21l1.296-1.52h1.589l1.409-1.459v-1.548l3.17-1.225-7.464 1.225 4.294-1.225 11.816-2.746 5.626-3.18h4.99l1.6-1.267.806 1.267 2.181 1.18 2.714-1.18.945 1.18v3.346l-3.659 2.625v3.807l1.073 3.138v2.306z" clip-rule="evenodd" fill-rule="evenodd"/>
        <path fill="#C3FFF5" d="m453.766 65.96 1.66-1.878-1.133-1.963 11.386.342 1.711-.988 13.863-1.158 3.265.544 3.819-.036 4.407-.093 4.219-.012.581 4.289-2.44 2.982-.89-1.543-2.523 1.456-8.618-1.59-10.721.097-8.581-.069z" clip-rule="evenodd" fill-rule="evenodd"/>
        <path fill="#AADBD3" d="m454.293 62.119-1.82.071-2.926-.817-2.011.12.022-1.339-.515-.893.654-1.091 2.15-.528 1.911.087-.515-.893 4.183-2.415 1.552.295 2.334-.022 3.544.329-.784 1.625 5.236-.642.086-1.451 4.135.812 2.575.465 1.753.012 2.56-2.502 2.357-.337 2.036-.475 1.296.634 1.362-.146 1.394 2.414 2.51-.543 1.749-1.009 2.818.066.638 1.105 1.171.872.035 1.217.846 1.466.334 2.112-12.444.14-3.265-.543-13.864 1.158-1.917 1.066-11.052-.197" clip-rule="evenodd" fill-rule="evenodd"/>
        <path fill="#8AB9B2" d="m454.293 62.119 1.133 1.963-1.66 1.878-.85-.046.012-.673-1.214-.114-.297-.514-.973.094-.167-.914-1.115-.556-.984-.633.273-.598.041-.68 1.054.047 2.927.817z" clip-rule="evenodd" fill-rule="evenodd"/>
        <path fill="#8FC7BF" d="m425.007 53.529 1.508 1.017 1.695-.509.933-1.779h1.121v-1.566l1.8-1.04v-2.36l1.708-.788.642-1.705h5.556v-1.562h2.363v-1.999l2.336 1.469-.471 3.255.471 2.499.609 1.192v2.605l2.105 4.032-1.642 1.758h-2.015l-.645 1.044h-3.702l-.886 1.996h-6.429l-2.921-1.523h-2.628l-3.144-.472-.71-2.17h-3.626l-2.273-1.336-1.512-1.55.668-2.874-2.562-1.51 1.006-2.36h1.556l.844-1.331h3.139l-.866-1.163 2.514.706-.678 2.273v1.875h1.79v2.163z" clip-rule="evenodd" fill-rule="evenodd"/>
        <path fill="#7AA49D" d="m416.763 45.962-1.98-.425-.934-.73.934-1.185 2.867-1.164h6.837l2.474-1.22 3.881.736 1.419.484-5.3 1.142-1.819.022-2.087-.022-2.582.022-.548.676h-2.275z" clip-rule="evenodd" fill-rule="evenodd"/>
        <path fill="#C3FFF5" d="m522.485 52.148-5.74-2.492h-2.528l-2.364-2.166-4.856-1.528-3.924-3.172-2.498-2.51-2.828.908-6.34-4.375-.908-2.973-3.71-3.573-2.933 1.743-6.403-4.477 4.472-1.577v1.577h4.864l3.71 2.521h3.378l6.092 2.659 4.676 3.152 2.352 3.187 1.504 4.945 9.678 1.965 2.921 1.528z" clip-rule="evenodd" fill-rule="evenodd"/>
        <path fill="#76BDB1" d="M592.281 37.619v2.158l1.775.503 1.956 1.107 1.462-1.107 1.527-.503 1.78-2.158 1.403-.713 1.403-.907-1.403-1.86.584-1.92-1.987-1.442-1.78 1.443-1.067-2.023-1.922.58-1.956-1.888-1.074 2.78-.701 4.33z" clip-rule="evenodd" fill-rule="evenodd"/>
        <path fill="#6E9690" d="m594.444 39.777 1.568-.387-1.568-1.771-1.081-2.189-1.082-.922v5.27l1.386.7 1.82.909h1.987v-1.61l-1.987.702z" clip-rule="evenodd" fill-rule="evenodd"/>
        <path fill="#C2FFF5" d="M610.933 42.79v2.26l-.969 1.203-1.273.702-.497 1.59h-1.36l-1.108 1.805h-1.639l-1.295 1.88-2.057-1.11-3.261-.77-2.597-2.84-.763-3.116-2.34-1.603-.594-2.51 2.934-1.667 5.812-4.106 4.161-1.308 1.639 1.308h1.722l1.853 2.338.663 2.931.969 1.61" clip-rule="evenodd" fill-rule="evenodd"/>
        <path fill="#98DCD1" d="m601.057 51.12-.276-2.973 1.403-1.894.578-2.662 1.325-2.204-.5-1.107 3.247-4.282.542 1.95.751 3.439 1.837-1.61.969 1.61 1.067 2.23-.556 1.342-1.48-.694v3.263l-1.837.62-1.737.84-2.803 2.132z" clip-rule="evenodd" fill-rule="evenodd" opacity=".853"/>
        <path fill="#8DCAC0" d="m586.053 55.519-.725-.481.725-.868.448-.548 1.281-.827v-.897h1.104l.307-1.613 1.007-.287h.78l.675-.359.577 1.554.773.44-.45 1.162v1.375l-.9.263v1.085l-.303 1.442-1.152 1.405h-1.007l-.307-1.405-1.104-.36h-1.281l-.448.805-1.024-2.367" clip-rule="evenodd" fill-rule="evenodd"/>
        <path fill="#76B2A8" d="m585.029 54.487.852.54.603.487h.632l.368.434.701-.434h1.464l.159-1.027.879-.31s-.108-.934-.034-1.382c.073-.448.451-1.163.451-1.163l-1.455 1.706-.571 1.149h-1.594l-1-.485-.603-.31z" clip-rule="evenodd" fill-rule="evenodd"/>
        <path fill="#6A9C93" d="m589.941 62.153-.301-1.086-.745.285-.426-1.14.426-.905-.942-1.169-1.55-.733.448-.805h1.282l1.235.445.272 1.32.91-.227.901-1.093.531-1.32v3.582l-.531 1.76-.678.773z" clip-rule="evenodd" fill-rule="evenodd"/>
        <path fill="#6E9690" d="m600.78 43.618-1.244-1.442V40.28h-2.062l-2.597-2.333-3.697 2.333.427 2.435 2.507 1.678.763 3.117 3.057 3.353h2.846v-2.716l1.404-1.894z" clip-rule="evenodd" fill-rule="evenodd"/>
        <path fill="#C3FFF5" d="m588.491 54.229-1.146-3.11-1.713-.26V48.36l-1.884-2.107-2.597 1.904h-2.402l-1.297 2.084-2.429-1.88-4.757 3.87-2.074 3.57 2.074 2.001-.063 3.854 4.82 1.801 3.726 1.585 3.598-1.585h3.285l2.859 1.585h4.491v-3.386l-3.707-1.822-1.93-1.915v-2.272z" clip-rule="evenodd" fill-rule="evenodd"/>
        <path fill="#8DCAC0" d="m494.053 54.519-.725-.481.725-.868.448-.548 1.281-.827v-.897h1.104l.307-1.613 1.007-.287h.78l.675-.359.577 1.554.773.44-.45 1.162v1.375l-.9.263v1.085l-.303 1.442-1.152 1.405h-1.007l-.307-1.405-1.104-.36h-1.281l-.448.805-1.024-2.367" clip-rule="evenodd" fill-rule="evenodd"/>
        <path fill="#76B2A8" d="m493.029 53.487.852.54.603.487h.632l.368.434.701-.434h1.464l.159-1.027.879-.31s-.108-.934-.034-1.382c.073-.448.451-1.163.451-1.163l-1.455 1.706-.571 1.149h-1.594l-1-.485-.603-.31z" clip-rule="evenodd" fill-rule="evenodd"/>
        <path fill="#6A9C93" d="m497.941 61.153-.301-1.086-.745.285-.426-1.14.426-.905-.942-1.169-1.55-.733.448-.805h1.282l1.235.445.272 1.32.91-.227.901-1.093.531-1.32v3.582l-.531 1.76-.678.773z" clip-rule="evenodd" fill-rule="evenodd"/>
        <path fill="#98D4CA" d="m592.982 65.042-.701 2.945-2.396 1.871-3.681-1.871-3.009 1.379-2.608-1.38-2.372-2.266-2.961.958h-2.075l-2.407-2.25-1.53-.97 1.024-1.802h2.406l2.582 1.801 3.495 1.585 3.598-1.585h3.285l2.859 1.585h3.79" clip-rule="evenodd" fill-rule="evenodd"/>
        <path fill="#629890" d="m569.242 63.457 1.024-1.8v-3.855l-2.075-2v2l.696 1.401z" clip-rule="evenodd" fill-rule="evenodd"/>
        <path fill="#7EC9BF" d="m562.989 55.647-7.197-2.429-6.332 3.841-6.312-2.255-2.422 4.014-2.32 2.838 7.536 1.801 7.153-1.8h15.097l4.987-3.855z" clip-rule="evenodd" fill-rule="evenodd"/>
        <path fill="#5A9E93" d="m538.406 61.656 3.895 3.386h3.842l4.407.715 3.596-2.3 5.368-.928 5.243 1.178 2.662 1.335 2.847-2.513 2.913-4.61-5.297 3.737-14.775-.917-7.165 2.718z" clip-rule="evenodd" fill-rule="evenodd"/>
        <path fill="#4C4A4A" d="m481.925 44.405 2.543 2.55v1.98l5.825 1.697 2.736 3.37-1.619.227-4.549 1.203-1.25-2.43h-1.605l-1.196-.472-4.394.812-2.475 2.46.252-1.573 1.435-2.081h2.767v-5.874z" clip-rule="evenodd" fill-rule="evenodd"/>
        <path fill="#4C4A4A" d="m454.096 54.726-2.333-1.724-3.435.862v1.938l-1.286-1.076-.905 2.622-1.468.591-2.15.637-2.842-.637v1.619l-1.972.384v1.146h-4.424l-3.974-1.53-2.359.384-1.581 1.714 6.893.832h4.688l3.653-.75 7.727.75.164-1.161-.956.166.021-1.339-.515-.893.661-1.061 1.347-.36 2.713-.095V56.29z" clip-rule="evenodd" fill-rule="evenodd"/>
        <path fill="#4A4747" d="m740.474 47.933-8.478 2.555h-16.19l-9.818 3.43-12.553 1.501-14.144 2.237 9.012-15.1 5.132-8.937 3.71-4.504 3.587-4.693.418-2.913 6.607.861 10.265-2.445 16.158 11.902h2.341z" clip-rule="evenodd" fill-rule="evenodd" opacity=".988"/>
        <path fill="#6E9690" d="m689.287 16.265 1.759-2.272 2.631 4.457z" clip-rule="evenodd" fill-rule="evenodd"/>
        <path fill="#98DCD1" d="m752.684 34.388-14.124 3.567-1.509-1.509-1.29-1.29-2.318-2.317-7.329.236-3.015-3.014-3.387 3.387-3.84-4.445-7.799-2.893 25.844-15.153 3.538 8.202 4.339-.325 2.827 2.827 3.607 3.608 7.125 3.92z" clip-rule="evenodd" fill-rule="evenodd"/>
        <path fill="#6E9690" d="m752.684 34.388-.688 3.194.529 1.453-.742 1.87.817 2.013-4.83 2-2.825-.286-.92-3.459-4.347-.568-4.078.001-2.722-1.617-.785-3.376-2.067-2.067-.95 3.328-5.899.576-5.713-4.282-9.01-1.873-.381-5.185 7.169 2.41 4.699 4.699 3.158-3.158 2.502 2.502 8.252-.466 4.707 5.858 14.642-4.084z" clip-rule="evenodd" fill-rule="evenodd"/>
        <path fill="#6E9690" d="m683.727 23.533-1.402-2.792h-.919l.654-1.073-.654-1.094V16.64l-.457-.816 1.111-1.356.278-.285 1.389-1.04v-1.17l.865.76v2.187l1.556 1.72-1.125 5.993z" clip-rule="evenodd" fill-rule="evenodd"/>
        <path fill="#333333" d="m670.42 61.042-1.568-3.386-1.351-3.737-2.612-3.69-.789-3.37-6.883-3.369-8.092-3.899-1.48-3.31 12.1-6.284 1.918-3.73 7.863.976 9.765-6.16h3.005l6.007.197v4.987l-11.279 19.712-3.449 9.188-1.476 5.099z" clip-rule="evenodd" fill-rule="evenodd"/>
        <path fill="#8FC7BF" d="M684.41 21.15v-.878h-.417l-.267-1.707 1.058-1.462.704-.463.429-.718.735-1.334h1.034l.617-.596.639-.85h2.104l.205.643-.779 1.135-.366.545v1.458l-.731 1.88-1.259.47h-.627l-.837 2.683h-1.492z" clip-rule="evenodd" fill-rule="evenodd"/>
        <path fill="#C3FFF5" d="m680.088 56.295-.797-2.376h-2.267l5.99-9.69v-1.976l5.928-12.585 2.104-2.556 1.878-3.324 2.123-3.863 2.099-3.66 4.005 1.64 1.363 3.604h-1.782v2.913l-5.685 6.669-5.278 9.333-4.35 7.397z" clip-rule="evenodd" fill-rule="evenodd"/>
        <path fill="#AADBD3" d="m677.024 53.919-.848 1.611-2.171 2.126-.901 1.801-1.149-.688h-1.031l-.618-1.113.618-2.126 1.031-1.611h-1.031v-4.83l1.031-1.197 1.149-2.033 2.056-2.904 1.016 1.491 2.062-4.855-1.214-.8 2.771-3.175 1.69-1.997.887-1.513-.887-3.467.887-2.21.606-2.001 1.197-.806.555-1.252h2.788l.785-2.445v-2.02l1.466-2.407h1.277l1.339-.578 1.073.578h1.692l1.996.767-6.1 10.847-2.104 2.556-5.929 12.585-.035 2.193-5.697 9.473" clip-rule="evenodd" fill-rule="evenodd"/>
        <path fill="#8AB9B2" d="M677.025 53.919h2.266l.797 2.376-.465.714-.577-.348-.705.995h-.595l-.405.89-.874-.312-1.039.687-1.041.536-.381-.536-.568-.375.568-.89 2.171-2.126z" clip-rule="evenodd" fill-rule="evenodd"/>
        <path fill="#98DCD1" d="M749.834 54.499v1.154h-.84l-.975.654-2.102-.654-1.294.654-.887.432v-1.12h-.769l-.589 1.12h-5.239l-2.388-1.086v-1.154l-1.419-.604-1.842-1.387.506-2.02.588-1.441 2.961-.856 1.069-1.071h2.398l.813-.257 3.911.257.887 1.071.679 1.375h1.69l2.002 3.481z" clip-rule="evenodd" fill-rule="evenodd" opacity=".925"/>
        <path fill="#AEF7EC" d="m737.139 56.74 1.131-1.286.757-.587v-.965l1.447-1.282v-2.168l-.458-2.686-.989-.514-2.414-.132-1.069 1.071-2.96.856-.721 1.647-.373 1.814 1.311 1.013 1.515.98h.781v.953z" clip-rule="evenodd" fill-rule="evenodd"/>
        <path fill="#6F9A94" d="m743.768 51.453-.18-.147-.619-.502v1.126l-.988-.563-.657-.563v1.52l-.661.89.901 1.012-1.09 1.089 1.507-.236.425-.853-.425-1.011.425-.156 1.107.156.668-.416 1.144.416v-.89l1.763.474-1.763-1.995-.854.563" clip-rule="evenodd" fill-rule="evenodd"/>
        <path fill="#6F9A94" d="M744.957 54.487h-.668l-.508-.685v1.513l.588.52h.588l.912-.52.718-.828h-1.08l-.8.828z" clip-rule="evenodd" fill-rule="evenodd"/>
        <path fill="#52716C" d="m718.022 17.002-.391 1.755.391 1.168-1.844 2.87-1.69-.425-2.43.425h-1.177l-1.845.488-1.279.902-.628 1.383-2.769-1.383 1.628-.902v-1.774l1.141-2.752 1.555-4.764 1.198 2.272 1.309.737 1.39.904 1.358 1.874 1.656 1.303v-1.741l1.108-.585z" clip-rule="evenodd" fill-rule="evenodd"/>
        <path fill="#A5F6EA" d="m647.952 40.15-1.1-1.225-1.367.612-.661-1.948-1.929-.683v-2.082l-.7-.904v-.927l-.532-1.573v-1.104l1.232-1.677 2.59-.835 2.467-.524 4.146-1.064 1.907 1.064h1.173l3.48 1.36 1.352 1.677.938 2.866v1.641l.457 2.082v1.761l-2.747.258-2.017 1.225z" clip-rule="evenodd" fill-rule="evenodd"/>
        <path fill="#ADF2E7" d="m716.94 18.584-1.345.758v1.742l-1.581-1.16-1.295-1.706-2.837-1.953-1.198-2.272v-1.84l.209-1.279.989-.287.697 1.565.436 2.47 1.968 1.442.675.924h1.424l.324 1.23 1.708-1.05.607.432-.249 1.742z" clip-rule="evenodd" fill-rule="evenodd"/>
        <path fill="#6C9C94" d="M659.778 29.91h-.919l-.362.862h-1.473l-.383 2.077-1.463 1.694-5.652 1.917-2.025 2.207.451 1.613 6.639 1.09 1.526-.414 1.996-1.627 1.177-.404.488-.258h1.627v-1.33l-.426-1.697-.565-1.097.565-1.36-.565-1.682z" clip-rule="evenodd" fill-rule="evenodd"/>
        <path fill="#6E9690" d="m700.383 44.847-6.574 2.053-1.211-1.144-1.677.287-.579-2.472 1.29-.047-.534-1.263 1.348-.146.99 1.496 2.104.29.841-.198.857-.671.702.634 1.978-.136z" clip-rule="evenodd" fill-rule="evenodd"/>
        <path fill="#98DCD1" d="M674.923 37.188v-.908l1.545.454.981-1.654v-2.563l.628-1.784v-1.718l1.214-1.216-.721-1.628.721-1.534-1.214-1.116v-1.579l-1.609-.855-.419-2.237-1.126-.725-.918-1.86h-1.154l-1.14-1.345-2.311 4.28-2.088 2.308v1.296l-.62.716-1.206 1.116.641 2.463v1.915l.565 2.144 1.72.92.988 1.652 2.311.651 1.14 1.55z" clip-rule="evenodd" fill-rule="evenodd"/>
        <path fill="#6E9690" d="m669.752 22.843-.304.33v.36h-.775l-.537-.36-.184-.655.721-.277h.775z" clip-rule="evenodd" fill-rule="evenodd"/>
        <path fill="#6E9690" d="m671.292 26.054-.595.503h-.945l-.226.686h.883l.883.767v-.767l.807-.211z" clip-rule="evenodd" fill-rule="evenodd"/>
        <path fill="#6E9690" d="m674.933 28.715-.552.482-.376-.241-.591-.946v1.787l-.69.203.69 1.159.967-.598.379-.56 1.226.223-.368-.64 1.024-.87v-1.248l-.656-.434-.368-.765-.43 1.2.43.543-.43.705z" clip-rule="evenodd" fill-rule="evenodd"/>
        <path fill="#6E9690" d="M671.21 21.122v.51l.41.397-.205.604h-1.109l-.554-.392v-.364h.554l.38-.244-.56-.511-.972-.382.373-.815.599-.258.18.258.081.338h.823z" clip-rule="evenodd" fill-rule="evenodd"/>
        <path fill="#6E9690" d="M675.178 22.24v.393h-.733l-.44-.392v-.962l.586.54.255.422z" clip-rule="evenodd" fill-rule="evenodd"/>
        <path fill="#6E9690" d="m670.813 31.865-.506-.328-.78-.56.225-.94.555-.197.506.404.5-.404v1.012l-.212.307.212.706z" clip-rule="evenodd" fill-rule="evenodd"/>
        <path fill="#8DCAC0" d="m674.923 37.188-2.073-1.257-1.14-1.549-2.184-.67-1.114-1.634-1.72-.92-.565-2.143.168-1.46-.81-2.918 1.827-1.832.357 3.004-.357 1.938.64 1.268h.9l.302 1.837 1.658 1.715 1.912.658 1.101 1.157 1.353 1.55z" clip-rule="evenodd" fill-rule="evenodd"/>
        <path fill="#8FC7BF" d="m669.485 35.032-.701-1.888.351-1.611-1.035-.646-.857-1.803-.813-1.416-1.251-2.119h-.718l-.716-1.284-1.956-1.345-2.023.475-.461 1.245-1.406-.375-1.829 1.284v1.563l-.569.813.569 2.031-.569 1.577 1.669 5.18 3.56-.703 1.582-.978 1.269-.394 2.849.765z" clip-rule="evenodd" fill-rule="evenodd"/>
        <path fill="#78ADA5" d="m656.424 34.267 1.432-.644 2.266-.398 3.459-1.26V30.24l-.516-3.693v-2.283l1.396 1.284h1.202l1.202 3.192 1.235 2.146 1.035.646v1.692l.35 2.197h-3.822l-2.082-1.155-2.894 1.743-2.831.703z" clip-rule="evenodd" fill-rule="evenodd"/>
        <path fill="#BDFFF4" d="M649.527 27.307h-1.575l-1.694.703h-1.143l-1.398.63v1.27h2.541l.364 1.339h4.191l1.575-1.338h2.204v-1.272h-3.278l-1.007-.63z" clip-rule="evenodd" fill-rule="evenodd"/>
        <path fill="#8DCAC0" d="m674.454 41.514.724-.48-.724-.868-.448-.548-1.282-.828v-.896h-1.104l-.306-1.614-1.007-.287h-.78l-.675-.358-.577 1.553-.774.44.451 1.163v1.375l.9.263v1.085l.303 1.441 1.152 1.405h1.007l.306-1.405 1.104-.36h1.282l.448.805 1.024-2.367" clip-rule="evenodd" fill-rule="evenodd"/>
        <path fill="#76B2A8" d="m673.575 40.482-.851.54-.604.488h-.631l-.369.434-.7-.434h-1.465l-.159-1.028-.878-.31s.107-.933.034-1.381c-.074-.448-.451-1.163-.451-1.163l1.454 1.706.571 1.148h1.594l1-.485.604-.31z" clip-rule="evenodd" fill-rule="evenodd"/>
        <path fill="#6A9C93" d="m670.915 48.148.301-1.086.746.285.426-1.139-.426-.905.942-1.17 1.549-.733-.448-.804h-1.281l-1.235.445-.273 1.32-.91-.227-.901-1.093-.53-1.32v3.582l.53 1.759.679.774z" clip-rule="evenodd" fill-rule="evenodd"/>
        <path fill="#557E77" d="m668.875 50.229-.693-.262v-.462h-1.153l-1.543-2.438v-1.365l-1.106-.767-.28-1.06h1.386l2.016-.385.68.385v1.827l.414.748.633 1.698v1.111z" clip-rule="evenodd" fill-rule="evenodd"/>
        <path fill="#78ADA5" d="M683.993 20.272v.878l.863 1h2.315l.346.22.786-2.445V19.3l-.815-.188-.591 2.038h-2.487v-.878z" clip-rule="evenodd" fill-rule="evenodd"/>
        <path fill="#AADBD3" d="m669.526 59.457-2.025 1.585v2.302l-2.016 1.014 1.179 1.585h-2.947l-2.538-1.585h-1.598l-4.728-3.316-5.862-1.585-1.346-3.162-4.304-3.424-3.908-2.642-3.485-5.294-8.905-5.15-9.419-9.945 2.132-4.951 1.429-2.519 3.74.119v1.954l2.118-.91 5.644 2.035h3.261l6.274 3.145 4.4 2.446 3.711 3.897 1.168 4.535 12.216 3.364 4.257 9.916z" clip-rule="evenodd" fill-rule="evenodd"/>
        <path fill="#91C8C0" d="m716.733 41.39 1.888-3.59-2.765-2.982-1.833-2.764h-4.757l-2.384-1.165-3.124 1.582v1.52l-1.769-.974-4.838-.546-.828 1.52-1.709-.47-.57 1.297v3.567l.57 1.234h6.667l7.23.66h6.048z" clip-rule="evenodd" fill-rule="evenodd"/>
        <path fill="#91C8C0" d="m653.995 63.705 2.753-2.978-1.899-3.597-1.055-3.144-2.846-.763-1.749-.468-2.001-1.743-3.428.72-.393 1.468-1.456-1.398-4.532-1.78-1.193 1.254-1.53-.896-.886 1.105-.923 3.445.231 1.34 2.047.548 4.393 1.177 6.813 2.51 5.842 1.565z" clip-rule="evenodd" fill-rule="evenodd"/>
        <path fill="#52716C" d="m653.995 63.705.216-.807.894.24 1.643-2.41-1.174-1.092-2.593-.695-1.328.42-1.439-1.16-2.308-.62-.445-1.062-.43 1.604-1.129-1.078-1.161 1.011-1.454-.936-1.088-3.999.191 3.763-.551-.148-.9 1.085-.859-1.014-2.381.146-1.205-1.107-.817.566-1.767-1.258-.708-1.512-.664 2.48.904.78 1.451.82 3.112.834 2.662.282 1.691 1.75 2.638-.159 3.752 1.005 2.554.685.556 1.014 2.037.946" clip-rule="evenodd" fill-rule="evenodd"/>
        <path fill="#52716C" d="M716.733 41.39v-.835h.925l.963-2.754-1.416-.75h-2.685l-1.174.75-1.69-.75h-2.39l-.705-.912v1.662l-1.369-.75-.86 1.278-1.647-.528-2.086-3.581 1.159 3.585h-.57l-.589 1.28-1.093-.756-2.262.757-1.45-.757-.643.757-2.032-.757-1.075-1.278v2.568l1.075.52 1.614.416h3.222l2.644-.417 2.086 1.252 2.507-.835h6.529l.799.835 2.213.387" clip-rule="evenodd" fill-rule="evenodd"/>
        <path fill="#7AA49D" d="m626.237 59.457-1.634 1.585-3.401 1.11-4.17-1.11-6.034-.237h-5.179l-5.229-3.149h-5.944l-3.503-1.36V52.19l-2.164-1.961v-3.37l-1.309-3.369 1.309-5.37 2.164-3.064-2.164-4.204 4.267-4.585 7.344.765 5.229 1.68 5.179-.702 4.477 1.157h5.727l3.401 3.646 5.148 6.805 8.541 7.242v5.33l2.019 5.466 1.912 3.149-9.363 1.348z" clip-rule="evenodd" fill-rule="evenodd"/>
        <path fill="#4C4A4A" d="m570.684 41.962-4.629-4.774-6.389-1.553-3.309 2.484-2.78 4.881-6.077-1.056L539.627 43l-7.507 3.817-8.39 5.876-9.989.672-4.827 3.817 6.65 2.095 8.993-1.54 11.665.751 3.577-2.546L551 58.488l8.666-2.93 11.018-3.756z" clip-rule="evenodd" fill-rule="evenodd"/>
        <path fill="#8FC7BF" d="m617.225 56.688 1.969-2.77V50.23l1.434-2.081h2.767v-6.204l1.531-1.947v-2.809l-1.531-6.371-4.201-1.65-9.604.673h-5.995l-5.513-2.808-4.836-.765-3.369 6.546 1.56 3.467-3.767 4.782 2.207 3.873v4.331l1.56 3.566v3.463l2.918-2.376 4.874 1.1 2.527 1.669 1.839-.393 3.717 1.361 2.278-1.36 2.034 1.36z" clip-rule="evenodd" fill-rule="evenodd"/>
        <path fill="#A1E4DA" d="m590.383 52.29-1.641 1.758h-1.073l-.925 1.063-4.407.78-2.193 1.765-12.899-1.765-8.866-4.625v-3.62l-2.023-2.181V44.21l1.296-1.52h1.589l1.409-1.459v-1.548l3.17-1.225-7.464 1.225 4.294-1.225 11.816-2.746 5.626-3.18h4.99l1.6-1.267.806 1.267 2.181 1.18 2.714-1.18.945 1.18v3.346l-3.659 2.625v3.807l1.073 3.138v2.306z" clip-rule="evenodd" fill-rule="evenodd"/>
        <path fill="#C3FFF5" d="m596.766 61.96 1.66-1.878-1.133-1.963 11.386.342 1.711-.988 13.863-1.158 3.265.544 3.819-.036 4.407-.093 4.219-.012.581 4.289-2.44 2.982-.89-1.543-2.523 1.456-8.618-1.59-10.721.097-8.581-.069z" clip-rule="evenodd" fill-rule="evenodd"/>
        <path fill="#AADBD3" d="m597.293 58.119-1.82.071-2.926-.817-2.011.12.022-1.339-.515-.893.654-1.091 2.15-.528 1.911.087-.515-.893 4.183-2.415 1.552.295 2.334-.022 3.544.329-.784 1.625 5.236-.642.086-1.451 4.135.812 2.575.465 1.753.012 2.56-2.502 2.357-.337 2.036-.475 1.296.634 1.362-.146 1.394 2.414 2.51-.543 1.749-1.009 2.818.066.638 1.105 1.171.872.035 1.217.846 1.466.334 2.112-12.444.14-3.265-.543-13.864 1.158-1.917 1.066-11.052-.197" clip-rule="evenodd" fill-rule="evenodd"/>
        <path fill="#8AB9B2" d="m597.293 58.119 1.133 1.963-1.66 1.878-.85-.046.012-.673-1.214-.114-.297-.514-.973.094-.167-.914-1.115-.556-.984-.633.273-.598.041-.68 1.054.047 2.927.817z" clip-rule="evenodd" fill-rule="evenodd"/>
        <path fill="#8FC7BF" d="m568.007 49.529 1.508 1.017 1.695-.509.933-1.779h1.121v-1.566l1.8-1.04v-2.36l1.708-.788.642-1.705h5.556v-1.562h2.363v-1.999l2.336 1.469-.471 3.255.471 2.499.609 1.192v2.605l2.105 4.032-1.642 1.758h-2.015l-.645 1.044h-3.702l-.886 1.996h-6.429l-2.921-1.523h-2.628l-3.144-.472-.71-2.17h-3.626l-2.273-1.336-1.512-1.55.668-2.874-2.562-1.51 1.006-2.36h1.556l.844-1.331h3.139l-.866-1.163 2.514.706-.678 2.273v1.875h1.79v2.163z" clip-rule="evenodd" fill-rule="evenodd"/>
        <path fill="#7AA49D" d="m559.763 41.962-1.98-.425-.934-.73.934-1.185 2.867-1.164h6.837l2.474-1.22 3.881.736 1.419.484-5.3 1.142-1.819.022-2.087-.022-2.582.022-.548.676h-2.275z" clip-rule="evenodd" fill-rule="evenodd"/>
        <path fill="#C3FFF5" d="m665.485 48.148-5.74-2.492h-2.528l-2.364-2.166-4.856-1.528-3.924-3.172-2.498-2.51-2.828.908-6.34-4.375-.908-2.973-3.71-3.573-2.933 1.743-6.403-4.477 4.472-1.577v1.577h4.864l3.71 2.521h3.378l6.092 2.659 4.676 3.152 2.352 3.187 1.504 4.945 9.678 1.965 2.921 1.528z" clip-rule="evenodd" fill-rule="evenodd"/>
        <path fill="#98DCD1" d="m560.633 44.525 6.055 3.531 5.695 4.204-2.68-.718-1.925.282 1.353 1.852-2.425-.65-.68 2.539-2.757 1.94-.584 2.18-1.338-1.384-4.851 1.664-.381 1.421 1.431.384-1.927 1.468-4.613-3.22-3.711-3.33-3.228-.053-5.004-4.305-8.001-3.455-3.889-3.72 3.395-1.812 3.659.98 5.783.06 2.616.701 1.27-1.34 6.966.919 3.378.058 2.987.8z" clip-rule="evenodd" fill-rule="evenodd"/>
        <path fill="#6E9690" d="m572.384 52.26-.422 1.573.832.223-6.234 6.015-6.316 3.125-1.69 3.002-4.618-.572-4.596-1.897-2.803-2.925-4.167-1.116-3.002.218-.53-1.164-2.849.258-3.07-.822-3.482-.933-1.453-1.412-1.341-8.702.53-1.977 3.889 3.72 3.085.828.784.966 4.477 1.2 4.659 4.767 3.065-.658 3.874 4.04 4.613 3.221 1.928-1.468-2.405-.645 1.536-1.837 2.703-1.14 1.966.153 1.338 1.383.584-2.18 2.757-1.939.68-2.539 1.327.356 1.098.294-1.353-1.852 1.925-.282 1.239.332z" clip-rule="evenodd" fill-rule="evenodd"/>
        <path fill="#8FC7BF" d="m555.619 63.238.887 2.416-6.443-1.727-1.099-.294-2.011-2.717-5.128-1.374-2.457.364-.53-1.164-2.849.258-3.67-.983-2.881-.772-1.454-1.412-1.341-8.702.53-1.977 3.889 3.72 3.085.828.784.966 4.893 1.311 4.244 4.656 3.065-.658 3.873 4.04z" clip-rule="evenodd" fill-rule="evenodd"/>
        <path fill="#76BDB1" d="M735.281 33.619v2.158l1.775.503 1.956 1.107 1.462-1.107 1.527-.503 1.78-2.158 1.403-.712 1.403-.908-1.403-1.86.584-1.92-1.987-1.442-1.78 1.443-1.067-2.023-1.922.58-1.956-1.888-1.074 2.78-.701 4.33z" clip-rule="evenodd" fill-rule="evenodd"/>
        <path fill="#6E9690" d="m737.444 35.777 1.568-.387-1.568-1.771-1.081-2.189-1.082-.922v5.27l1.386.7 1.82.909h1.987v-1.61l-1.987.702z" clip-rule="evenodd" fill-rule="evenodd"/>
        <path fill="#C2FFF5" d="M753.933 38.79v2.26l-.969 1.203-1.273.702-.497 1.59h-1.36l-1.108 1.805h-1.639l-1.295 1.88-2.057-1.11-3.261-.77-2.597-2.84-.763-3.116-2.34-1.603-.594-2.51 2.934-1.667 5.812-4.106 4.161-1.307 1.639 1.307h1.722l1.853 2.338.663 2.931.969 1.61" clip-rule="evenodd" fill-rule="evenodd"/>
        <path fill="#98DCD1" d="m744.057 47.12-.276-2.973 1.403-1.894.578-2.662 1.325-2.204-.5-1.107 3.247-4.282.542 1.95.751 3.439 1.837-1.61.969 1.61 1.067 2.23-.556 1.342-1.48-.694v3.263l-1.837.62-1.737.84-2.803 2.132z" clip-rule="evenodd" fill-rule="evenodd" opacity=".853"/>
        <path fill="#8DCAC0" d="m729.053 51.519-.725-.481.725-.868.448-.548 1.281-.827v-.897h1.104l.307-1.613 1.007-.287h.78l.675-.359.577 1.554.773.44-.45 1.162v1.375l-.9.263v1.085l-.303 1.442-1.152 1.405h-1.007l-.307-1.405-1.104-.36h-1.281l-.448.805-1.024-2.367" clip-rule="evenodd" fill-rule="evenodd"/>
        <path fill="#76B2A8" d="m728.029 50.487.852.54.603.487h.632l.368.434.701-.434h1.464l.159-1.027.879-.31s-.108-.934-.034-1.382c.073-.448.451-1.163.451-1.163l-1.455 1.706-.571 1.149h-1.594l-1-.485-.603-.31z" clip-rule="evenodd" fill-rule="evenodd"/>
        <path fill="#6A9C93" d="m732.941 58.153-.301-1.086-.745.285-.426-1.14.426-.905-.942-1.169-1.55-.733.448-.805h1.282l1.235.445.272 1.32.91-.227.901-1.093.531-1.32v3.582l-.531 1.76-.678.773z" clip-rule="evenodd" fill-rule="evenodd"/>
        <path fill="#6E9690" d="m743.78 39.618-1.244-1.442V36.28h-2.062l-2.597-2.333-3.697 2.333.427 2.435 2.507 1.678.763 3.117 3.057 3.353h2.846v-2.716l1.404-1.894z" clip-rule="evenodd" fill-rule="evenodd"/>
        <path fill="#C3FFF5" d="m731.491 50.229-1.146-3.11-1.713-.26V44.36l-1.884-2.107-2.597 1.904h-2.402l-1.297 2.084-2.429-1.88-4.757 3.87-2.074 3.57 2.074 2.001-.063 3.854 4.82 1.801 3.726 1.585 3.598-1.585h3.285l2.859 1.585h4.491v-3.386l-3.707-1.822-1.93-1.915v-2.272z" clip-rule="evenodd" fill-rule="evenodd"/>
        <path fill="#8DCAC0" d="m637.053 50.519-.725-.481.725-.868.448-.548 1.281-.827v-.897h1.104l.307-1.613 1.007-.287h.78l.675-.359.577 1.554.773.44-.45 1.162v1.375l-.9.263v1.085l-.303 1.442-1.152 1.405h-1.007l-.307-1.405-1.104-.36h-1.281l-.448.805-1.024-2.367" clip-rule="evenodd" fill-rule="evenodd"/>
        <path fill="#76B2A8" d="m636.029 49.487.852.54.603.487h.632l.368.434.701-.434h1.464l.159-1.027.879-.31s-.108-.934-.034-1.382c.073-.448.451-1.163.451-1.163l-1.455 1.706-.571 1.149h-1.594l-1-.485-.603-.31z" clip-rule="evenodd" fill-rule="evenodd"/>
        <path fill="#6A9C93" d="m640.941 57.153-.301-1.086-.745.285-.426-1.14.426-.905-.942-1.169-1.55-.733.448-.805h1.282l1.235.445.272 1.32.91-.227.901-1.093.531-1.32v3.582l-.531 1.76-.678.773z" clip-rule="evenodd" fill-rule="evenodd"/>
        <path fill="#98D4CA" d="m735.982 61.042-.701 2.945-2.396 1.871-3.681-1.871-3.009 1.379-2.608-1.38-2.372-2.266-2.961.958h-2.075l-2.407-2.25-1.53-.97 1.024-1.802h2.406l2.582 1.801 3.495 1.585 3.598-1.585h3.285l2.859 1.585h3.79" clip-rule="evenodd" fill-rule="evenodd"/>
        <path fill="#629890" d="m712.242 59.457 1.024-1.8v-3.855l-2.075-2v2l.696 1.401z" clip-rule="evenodd" fill-rule="evenodd"/>
        <path fill="#7EC9BF" d="m705.989 51.647-7.197-2.429-6.332 3.841-6.312-2.255-2.422 4.014-2.32 2.838 7.536 1.801 7.153-1.8h15.097l4.987-3.855z" clip-rule="evenodd" fill-rule="evenodd"/>
        <path fill="#5A9E93" d="m681.406 57.656 3.895 3.386h3.842l4.407.715 3.596-2.3 5.368-.928 5.243 1.178 2.662 1.335 2.847-2.513 2.913-4.61-5.297 3.737-14.775-.917-7.165 2.718z" clip-rule="evenodd" fill-rule="evenodd"/>
        <path fill="#4C4A4A" d="m624.925 40.405 2.543 2.55v1.98l5.825 1.697 2.736 3.37-1.619.227-4.549 1.203-1.25-2.43h-1.605l-1.196-.472-4.394.812-2.475 2.46.252-1.573 1.435-2.081h2.767v-5.874z" clip-rule="evenodd" fill-rule="evenodd"/>
        <path fill="#4C4A4A" d="m597.097 50.726-2.333-1.724-3.435.862v1.938l-1.286-1.076-.905 2.622-1.468.591-2.15.637-2.842-.637v1.619l-1.972.384v1.146h-4.424l-3.974-1.53-2.359.384-1.581 1.714 6.893.832h4.688l3.653-.75 7.727.75.164-1.161-.956.166.021-1.339-.515-.893.661-1.061 1.347-.36 2.713-.095V52.29z" clip-rule="evenodd" fill-rule="evenodd"/>
        <path fill="#A2E6DC" d="m603.717 57.182 1.768-1.185 1.15-1.897-.466-.472 2.683-1.993.674-1.3-1.574-2.47-1.783-1.013v-2.14l-1.594-1.68.91-.978h-.91l-.858-1.61-2.054.64h-4.229l-.747.97-3.892-.461-.725 2.417.725 1.83-1.918.156-3.232 3.674 1.179 1.443 1.551-1.443v1.443l1.695 1.167v3.506l2.429.211 2.188 1.185 1.898-.579.802.58.93-.58 1.346-.606z" clip-rule="evenodd" fill-rule="evenodd"/>
        <path fill="#98DCD1" d="m717.98 46.168-.566.374-.556-.187-.679.765-1.518-3.086h-.592l-.482-1.889v-.687l-1.82-.531V39.59l-.885-.8.388-.444 1.732-.96h1.843l.399.598.935.806 1.801.379 1.291.994v1.981l-.808.784z" clip-rule="evenodd" fill-rule="evenodd"/>
        <path fill="#78ADA5" d="m606.635 54.1-1.15 1.897-1.768 1.185-.827-.828-.775-.357h-1.042l-1.686 1.185-.801-.828-1.899.828-2.362-1.396h-2.255l1.315-2.598 1.479.44-.539 1.163h2.362l1.068.995 1.597-.995 1.721-1.163.59-1.348 1.227.908.827-.908.604.556 1.55-.556.764-1.224 2.217.579-2.981 2.465z" clip-rule="evenodd" fill-rule="evenodd"/>
        <path fill="#6E9690" d="M716.179 47.12h-2.05l-1.146-.523-.616-1.17v-1.394l-.967-1.78v-1.59l-1.047-1.072.529-.8.885.8v1.336l1.82.53v.688l.542 1.888h.622l1.111 2.564z" clip-rule="evenodd" fill-rule="evenodd"/>
        <path fill="#6E9690" d="m599.582 53.188-.435.44-.561-.677h-.535l-.851.237-.375-.574-.229-.709h-.771l-.602.247.602.462v.574h-.971l.597.44-.597.491.369.573h.602l1-.573 1.226-.491.535.839h.561z" clip-rule="evenodd" fill-rule="evenodd"/>
        <path fill="#6DA098" d="m598.807 46.994-.496.312v.56l.496.318.774.283v-.912l-.478-.25 1.131-.606h.945v-.86l-.945.157-.489-.829h-.642v.673l.255.156-.551.399" clip-rule="evenodd" fill-rule="evenodd"/>
        <path fill="#4A4747" d="m21.526 47.933 8.478 2.555h16.19l9.818 3.43 12.553 1.501 14.145 2.237-9.013-15.1-5.132-8.937-3.71-4.504-3.587-4.693-.419-2.913-6.606.861-10.265-2.445L27.82 31.827h-2.34z" clip-rule="evenodd" fill-rule="evenodd" opacity=".988"/>
        <path fill="#6E9690" d="m72.713 16.265-1.759-2.272-2.63 4.457z" clip-rule="evenodd" fill-rule="evenodd"/>
        <path fill="#98DCD1" d="m9.316 34.388 14.124 3.567 1.51-1.509 1.289-1.29 2.318-2.317 7.33.236L38.9 30.06l3.387 3.387 3.84-4.445 7.8-2.893-25.845-15.153-3.538 8.202-4.339-.325-2.827 2.827-3.607 3.608-7.125 3.92z" clip-rule="evenodd" fill-rule="evenodd"/>
        <path fill="#6E9690" d="m9.316 34.388.688 3.194-.53 1.453.743 1.87-.817 2.013 4.83 2 2.825-.286.92-3.459 4.347-.568 4.078.001 2.722-1.617.785-3.376 2.067-2.067.95 3.328 5.899.576 5.713-4.282 9.01-1.873.381-5.185-7.17 2.41-4.698 4.699-3.158-3.158-2.502 2.502-8.252-.466-4.707 5.858-14.642-4.084z" clip-rule="evenodd" fill-rule="evenodd"/>
        <path fill="#6E9690" d="m78.273 23.533 1.402-2.792h.919l-.654-1.073.654-1.094V16.64l.457-.816-1.111-1.356-.278-.285-1.389-1.04v-1.17l-.865.76v2.187l-1.556 1.72 1.125 5.993z" clip-rule="evenodd" fill-rule="evenodd"/>
        <path fill="#333333" d="m91.58 61.042 1.568-3.386L94.5 53.92l2.612-3.69.79-3.37 6.882-3.369 8.092-3.899 1.48-3.31-12.1-6.284-1.918-3.73-7.864.976-9.764-6.16h-3.005l-6.007.197v4.987L84.977 45.98l3.449 9.188 1.476 5.099z" clip-rule="evenodd" fill-rule="evenodd"/>
        <path fill="#8FC7BF" d="M77.59 21.15v-.878h.417l.267-1.707-1.058-1.462-.704-.463-.429-.718-.735-1.334h-1.034l-.617-.596-.639-.85h-2.104l-.205.643.779 1.135.366.545v1.458l.731 1.88 1.258.47h.629l.836 2.683h1.492z" clip-rule="evenodd" fill-rule="evenodd"/>
        <path fill="#C3FFF5" d="m81.912 56.295.797-2.376h2.267l-5.99-9.69v-1.976l-5.928-12.585-2.104-2.556-1.878-3.324-2.123-3.863-2.099-3.66-4.005 1.64-1.363 3.604h1.782v2.913l5.685 6.669 5.278 9.333 4.35 7.397z" clip-rule="evenodd" fill-rule="evenodd"/>
        <path fill="#AADBD3" d="m84.976 53.919.848 1.611 2.17 2.126.902 1.801 1.149-.688h1.031l.618-1.113-.618-2.126-1.031-1.611h1.031v-4.83l-1.031-1.197-1.149-2.033-2.056-2.904-1.016 1.491-2.062-4.855 1.214-.8-2.77-3.175-1.691-1.997-.887-1.513.887-3.467-.887-2.21-.606-2.001-1.197-.806-.555-1.252h-2.787l-.786-2.445v-2.02l-1.466-2.407h-1.277l-1.34-.578-1.072.578H66.85l-1.995.767 6.1 10.847 2.103 2.556 5.929 12.585.035 2.193 5.697 9.473" clip-rule="evenodd" fill-rule="evenodd"/>
        <path fill="#8AB9B2" d="M84.975 53.919H82.71l-.797 2.376.465.714.577-.348.705.995h.595l.405.89.874-.312 1.04.687 1.04.536.381-.536.568-.375-.568-.89-2.17-2.126z" clip-rule="evenodd" fill-rule="evenodd"/>
        <path fill="#98DCD1" d="M12.166 54.499v1.154h.84l.975.654 2.102-.654 1.294.654.887.432v-1.12h.769l.59 1.12h5.238l2.388-1.086v-1.154l1.42-.604 1.84-1.387-.505-2.02-.588-1.441-2.96-.856-1.07-1.071h-2.398l-.813-.257-3.91.257-.888 1.071-.679 1.375h-1.69l-2.002 3.481z" clip-rule="evenodd" fill-rule="evenodd" opacity=".925"/>
        <path fill="#AEF7EC" d="m24.861 56.74-1.131-1.286-.757-.587v-.965l-1.447-1.282v-2.168l.458-2.686.989-.514 2.414-.132 1.069 1.071 2.96.856.72 1.647.374 1.814-1.311 1.013-1.515.98h-.782v.953z" clip-rule="evenodd" fill-rule="evenodd"/>
        <path fill="#6F9A94" d="m18.232 51.453.18-.147.619-.502v1.126l.988-.563.657-.563v1.52l.661.89-.901 1.012 1.09 1.089-1.507-.236-.425-.853.425-1.011-.425-.156-1.107.156-.668-.416-1.144.416v-.89l-1.763.474 1.763-1.995.854.563" clip-rule="evenodd" fill-rule="evenodd"/>
        <path fill="#6F9A94" d="M17.043 54.487h.668l.508-.685v1.513l-.588.52h-.588l-.912-.52-.718-.828h1.08l.8.828z" clip-rule="evenodd" fill-rule="evenodd"/>
        <path fill="#52716C" d="m43.978 17.002.391 1.755-.392 1.168 1.845 2.87 1.69-.425 2.43.425h1.177l1.845.488 1.279.902.628 1.383 2.769-1.383-1.628-.902v-1.774l-1.14-2.752-1.556-4.764-1.198 2.272-1.31.737-1.389.904-1.358 1.874-1.656 1.303v-1.741l-1.108-.585z" clip-rule="evenodd" fill-rule="evenodd"/>
        <path fill="#A5F6EA" d="m114.048 40.15 1.1-1.225 1.367.612.661-1.948 1.929-.683v-2.082l.7-.904v-.927l.532-1.573v-1.104l-1.232-1.677-2.59-.835-2.467-.524-4.146-1.064-1.907 1.064h-1.173l-3.48 1.36-1.352 1.677-.938 2.866v1.641l-.457 2.082v1.761l2.747.258 2.017 1.225z" clip-rule="evenodd" fill-rule="evenodd"/>
        <path fill="#ADF2E7" d="m45.06 18.584 1.345.758v1.742l1.58-1.16 1.297-1.706 2.836-1.953 1.198-2.272v-1.84l-.21-1.279-.988-.287-.697 1.565-.436 2.47-1.968 1.442-.675.924h-1.425l-.323 1.23-1.708-1.05-.607.432.249 1.742z" clip-rule="evenodd" fill-rule="evenodd"/>
        <path fill="#6C9C94" d="M102.222 29.91h.919l.362.862h1.473l.383 2.077 1.463 1.694 5.652 1.917 2.025 2.207-.451 1.613-6.639 1.09-1.526-.414-1.996-1.627-1.177-.404-.488-.258h-1.627v-1.33l.426-1.697.565-1.097-.565-1.36.565-1.682z" clip-rule="evenodd" fill-rule="evenodd"/>
        <path fill="#6E9690" d="m61.617 44.847 6.574 2.053 1.21-1.144 1.678.287.579-2.472-1.29-.047.534-1.263-1.348-.146-.99 1.496-2.104.29-.84-.198-.858-.671-.702.634-1.978-.136z" clip-rule="evenodd" fill-rule="evenodd"/>
        <path fill="#98DCD1" d="M87.077 37.188v-.908l-1.545.454-.981-1.654v-2.563l-.628-1.784v-1.718l-1.214-1.216.721-1.628-.721-1.534 1.214-1.116v-1.579l1.61-.855.418-2.237 1.126-.725.918-1.86h1.154l1.14-1.345L92.6 19.2l2.088 2.308v1.296l.62.716 1.206 1.116-.641 2.463v1.915l-.565 2.144-1.72.92-.988 1.652-2.31.651-1.14 1.55z" clip-rule="evenodd" fill-rule="evenodd"/>
        <path fill="#6E9690" d="m92.248 22.843.304.33v.36h.775l.537-.36.184-.655-.721-.277h-.775z" clip-rule="evenodd" fill-rule="evenodd"/>
        <path fill="#6E9690" d="m90.708 26.054.595.503h.946l.225.686h-.883l-.883.767v-.767l-.807-.211z" clip-rule="evenodd" fill-rule="evenodd"/>
        <path fill="#6E9690" d="m87.067 28.715.552.482.376-.241.591-.946v1.787l.69.203-.69 1.159-.967-.598-.379-.56-1.226.223.368-.64-1.024-.87v-1.248l.656-.434.368-.765.43 1.2-.43.543.43.705z" clip-rule="evenodd" fill-rule="evenodd"/>
        <path fill="#6E9690" d="M90.79 21.122v.51l-.41.397.205.604h1.109l.554-.392v-.364h-.555l-.379-.244.56-.511.972-.382-.373-.815-.599-.258-.18.258-.081.338h-.823z" clip-rule="evenodd" fill-rule="evenodd"/>
        <path fill="#6E9690" d="M86.822 22.24v.393h.733l.44-.392v-.962l-.586.54-.255.422z" clip-rule="evenodd" fill-rule="evenodd"/>
        <path fill="#6E9690" d="m91.187 31.865.507-.328.78-.56-.226-.94-.555-.197-.506.404-.5-.404v1.012l.212.307-.213.706z" clip-rule="evenodd" fill-rule="evenodd"/>
        <path fill="#8DCAC0" d="m87.077 37.188 2.073-1.257 1.14-1.549 2.184-.67 1.114-1.634 1.72-.92.565-2.143-.169-1.46.81-2.918-1.826-1.832-.357 3.004.357 1.938-.64 1.268h-.9l-.302 1.837-1.659 1.715-1.91.658-1.102 1.157-1.353 1.55z" clip-rule="evenodd" fill-rule="evenodd"/>
        <path fill="#8FC7BF" d="m92.515 35.032.701-1.888-.35-1.611 1.034-.646.857-1.803.813-1.416 1.251-2.119h.718l.716-1.284 1.956-1.345 2.023.475.461 1.245 1.406-.375 1.829 1.284v1.563l.569.813-.569 2.031.569 1.577-1.669 5.18-3.56-.703-1.582-.978-1.27-.394-2.848.765z" clip-rule="evenodd" fill-rule="evenodd"/>
        <path fill="#78ADA5" d="m105.576 34.267-1.432-.644-2.266-.398-3.46-1.26V30.24l.517-3.693v-2.283l-1.396 1.284h-1.202l-1.202 3.192-1.235 2.146-1.035.646v1.692l-.35 2.197h3.822l2.082-1.155 2.894 1.743 2.831.703z" clip-rule="evenodd" fill-rule="evenodd"/>
        <path fill="#BDFFF4" d="M112.473 27.307h1.575l1.694.703h1.143l1.398.63v1.27h-2.541l-.364 1.339h-4.191l-1.575-1.338h-2.204v-1.272h3.278l1.007-.63z" clip-rule="evenodd" fill-rule="evenodd"/>
        <path fill="#8DCAC0" d="m87.546 41.514-.724-.48.724-.868.448-.548 1.282-.828v-.896h1.104l.306-1.614 1.007-.287h.78l.675-.358.577 1.553.774.44-.451 1.163v1.375l-.9.263v1.085l-.303 1.441-1.152 1.405h-1.007l-.306-1.405-1.104-.36h-1.282l-.448.805-1.024-2.367" clip-rule="evenodd" fill-rule="evenodd"/>
        <path fill="#76B2A8" d="m88.425 40.482.851.54.603.488h.632l.369.434.7-.434h1.465l.159-1.028.878-.31s-.107-.933-.034-1.381c.074-.448.451-1.163.451-1.163l-1.454 1.706-.571 1.148H90.88l-1-.485-.604-.31z" clip-rule="evenodd" fill-rule="evenodd"/>
        <path fill="#6A9C93" d="m91.085 48.148-.301-1.086-.746.285-.426-1.139.426-.905-.942-1.17-1.55-.733.449-.804h1.281l1.235.445.273 1.32.91-.227.9-1.093.531-1.32v3.582l-.53 1.759-.679.774z" clip-rule="evenodd" fill-rule="evenodd"/>
        <path fill="#557E77" d="m93.125 50.229.693-.262v-.462h1.154l1.542-2.438v-1.365l1.106-.767.28-1.06h-1.386l-2.016-.385-.68.385v1.827l-.414.748-.632 1.698v1.111z" clip-rule="evenodd" fill-rule="evenodd"/>
        <path fill="#78ADA5" d="M78.007 20.272v.878l-.863 1H74.83l-.346.22-.786-2.445V19.3l.815-.188.591 2.038h2.487v-.878z" clip-rule="evenodd" fill-rule="evenodd"/>
        <path fill="#AADBD3" d="m92.474 59.457 2.025 1.585v2.302l2.016 1.014-1.178 1.585h2.946l2.538-1.585h1.598l4.728-3.316 5.862-1.585 1.346-3.162 4.304-3.424 3.908-2.642 3.485-5.294 8.905-5.15 9.419-9.945-2.132-4.951-1.429-2.519-3.74.119v1.954l-2.118-.91-5.644 2.035h-3.261l-6.274 3.145-4.4 2.446-3.711 3.897-1.168 4.535-12.216 3.364-4.257 9.916z" clip-rule="evenodd" fill-rule="evenodd"/>
        <path fill="#91C8C0" d="M45.267 41.39 43.38 37.8l2.765-2.982 1.833-2.764h4.757l2.384-1.165 3.124 1.582v1.52l1.769-.974 4.838-.546.828 1.52 1.71-.47.57 1.297v3.567l-.57 1.234H60.72l-7.23.66h-6.048z" clip-rule="evenodd" fill-rule="evenodd"/>
        <path fill="#91C8C0" d="m108.005 63.705-2.753-2.978 1.899-3.597 1.055-3.144 2.846-.763 1.749-.468 2.001-1.743 3.428.72.393 1.468 1.456-1.398 4.532-1.78 1.193 1.254 1.53-.896.886 1.105.923 3.445-.231 1.34-2.047.548-4.393 1.177-6.813 2.51-5.842 1.565z" clip-rule="evenodd" fill-rule="evenodd"/>
        <path fill="#52716C" d="m108.005 63.705-.216-.807-.894.24-1.643-2.41 1.174-1.092 2.593-.695 1.328.42 1.439-1.16 2.308-.62.445-1.062.43 1.604 1.129-1.078 1.161 1.011 1.454-.936 1.088-3.999-.191 3.763.551-.148.9 1.085.859-1.014 2.381.146 1.205-1.107.817.566 1.767-1.258.708-1.512.664 2.48-.904.78-1.451.82-3.112.834-2.662.282-1.691 1.75-2.638-.159-3.752 1.005-2.554.685-.556 1.014-2.037.946" clip-rule="evenodd" fill-rule="evenodd"/>
        <path fill="#52716C" d="M45.267 41.39v-.835h-.925l-.963-2.754 1.416-.75h2.685l1.174.75 1.69-.75h2.39l.705-.912v1.662l1.369-.75.86 1.278 1.647-.528 2.086-3.581-1.159 3.585h.57l.59 1.28 1.092-.756 2.261.757 1.45-.757.644.757 2.032-.757 1.075-1.278v2.568l-1.075.52-1.614.416h-3.222l-2.644-.417-2.086 1.252-2.507-.835h-6.529l-.8.835-2.212.387" clip-rule="evenodd" fill-rule="evenodd"/>
        <path fill="#7AA49D" d="m135.763 59.457 1.634 1.585 3.401 1.11 4.17-1.11 6.034-.237h5.179l5.229-3.149h5.944l3.503-1.36V52.19l2.164-1.961v-3.37l1.309-3.369-1.309-5.37-2.164-3.064 2.164-4.204-4.267-4.585-7.344.765-5.229 1.68-5.179-.702-4.477 1.157h-5.727l-3.401 3.646-5.148 6.805-8.541 7.242v5.33l-2.019 5.466-1.912 3.149 9.363 1.348z" clip-rule="evenodd" fill-rule="evenodd"/>
        <path fill="#4C4A4A" d="m191.316 41.962 4.629-4.774 6.389-1.553 3.309 2.484 2.78 4.881 6.077-1.056L222.373 43l7.507 3.817 8.39 5.876 9.989.672 4.827 3.817-6.65 2.095-8.993-1.54-11.665.751-3.577-2.546L211 58.488l-8.666-2.93-11.018-3.756z" clip-rule="evenodd" fill-rule="evenodd"/>
        <path fill="#8FC7BF" d="m144.775 56.688-1.969-2.77V50.23l-1.434-2.081h-2.767v-6.204l-1.531-1.947v-2.809l1.531-6.371 4.201-1.65 9.604.673h5.995l5.513-2.808 4.836-.765 3.369 6.546-1.56 3.467 3.767 4.782-2.207 3.873v4.331l-1.56 3.566v3.463l-2.918-2.376-4.874 1.1-2.527 1.669-1.839-.393-3.717 1.361-2.278-1.36-2.034 1.36z" clip-rule="evenodd" fill-rule="evenodd"/>
        <path fill="#A1E4DA" d="m171.617 52.29 1.641 1.758h1.073l.925 1.063 4.407.78 2.193 1.765 12.899-1.765 8.866-4.625v-3.62l2.023-2.181V44.21l-1.296-1.52h-1.589l-1.409-1.459v-1.548l-3.17-1.225 7.464 1.225-4.294-1.225-11.816-2.746-5.626-3.18h-4.99l-1.6-1.267-.806 1.267-2.181 1.18-2.714-1.18-.945 1.18v3.346l3.659 2.625v3.807l-1.073 3.138v2.306z" clip-rule="evenodd" fill-rule="evenodd"/>
        <path fill="#C3FFF5" d="m165.234 61.96-1.66-1.878 1.133-1.963-11.386.342-1.711-.988-13.863-1.158-3.265.544-3.819-.036-4.407-.093-4.219-.012-.581 4.289 2.44 2.982.89-1.543 2.523 1.456 8.618-1.59 10.721.097 8.581-.069z" clip-rule="evenodd" fill-rule="evenodd"/>
        <path fill="#AADBD3" d="m164.707 58.119 1.82.071 2.926-.817 2.011.12-.022-1.339.515-.893-.654-1.091-2.15-.528-1.911.087.515-.893-4.183-2.415-1.552.295-2.334-.022-3.544.329.784 1.625-5.236-.642-.086-1.451-4.135.812-2.575.465-1.753.012-2.56-2.502-2.357-.337-2.036-.475-1.296.634-1.362-.146-1.394 2.414-2.51-.543-1.749-1.009-2.818.066-.638 1.105-1.171.872-.035 1.217-.846 1.466-.334 2.112 12.444.14 3.265-.543 13.864 1.158 1.917 1.066 11.052-.197" clip-rule="evenodd" fill-rule="evenodd"/>
        <path fill="#8AB9B2" d="m164.707 58.119-1.133 1.963 1.66 1.878.85-.046-.012-.673 1.214-.114.297-.514.973.094.167-.914 1.115-.556.984-.633-.273-.598-.041-.68-1.054.047-2.927.817z" clip-rule="evenodd" fill-rule="evenodd"/>
        <path fill="#8FC7BF" d="m193.993 49.529-1.508 1.017-1.695-.509-.933-1.779h-1.121v-1.566l-1.8-1.04v-2.36l-1.708-.788-.642-1.705h-5.556v-1.562h-2.363v-1.999l-2.336 1.469.471 3.255-.471 2.499-.609 1.192v2.605l-2.105 4.032 1.642 1.758h2.015l.645 1.044h3.702l.886 1.996h6.429l2.921-1.523h2.628l3.144-.472.71-2.17h3.626l2.273-1.336 1.512-1.55-.668-2.874 2.562-1.51-1.006-2.36h-1.556l-.844-1.331h-3.139l.866-1.163-2.514.706.678 2.273v1.875h-1.79v2.163z" clip-rule="evenodd" fill-rule="evenodd"/>
        <path fill="#7AA49D" d="m202.237 41.962 1.98-.425.934-.73-.934-1.185-2.867-1.164h-6.837l-2.474-1.22-3.881.736-1.419.484 5.3 1.142 1.819.022 2.087-.022 2.582.022.548.676h2.275z" clip-rule="evenodd" fill-rule="evenodd"/>
        <path fill="#C3FFF5" d="m96.515 48.148 5.74-2.492h2.528l2.364-2.166 4.856-1.528 3.924-3.172 2.498-2.51 2.828.908 6.34-4.375.908-2.973 3.71-3.573 2.933 1.743 6.403-4.477-4.472-1.577v1.577h-4.864l-3.71 2.521h-3.378l-6.092 2.659-4.676 3.152-2.352 3.187-1.504 4.945-9.678 1.965-2.92 1.528z" clip-rule="evenodd" fill-rule="evenodd"/>
        <path fill="#98DCD1" d="m201.367 44.525-6.055 3.531-5.695 4.204 2.68-.718 1.925.282-1.353 1.852 2.425-.65.68 2.539 2.757 1.94.584 2.18 1.338-1.384 4.851 1.664.381 1.421-1.431.384 1.927 1.468 4.613-3.22 3.711-3.33 3.228-.053 5.004-4.305 8.001-3.455 3.889-3.72-3.395-1.812-3.659.98-5.783.06-2.616.701-1.27-1.34-6.966.919-3.378.058-2.987.8z" clip-rule="evenodd" fill-rule="evenodd"/>
        <path fill="#6E9690" d="m189.616 52.26.422 1.573-.832.223 6.234 6.015 6.316 3.125 1.69 3.002 4.618-.572 4.596-1.897 2.803-2.925 4.167-1.116 3.002.218.53-1.164 2.849.258 3.07-.822 3.482-.933 1.453-1.412 1.341-8.702-.53-1.977-3.889 3.72-3.085.828-.784.966-4.477 1.2-4.659 4.767-3.065-.658-3.874 4.04-4.613 3.221-1.928-1.468 2.405-.645-1.536-1.837-2.703-1.14-1.966.153-1.338 1.383-.584-2.18-2.757-1.939-.68-2.539-1.327.356-1.098.294 1.353-1.852-1.925-.282-1.239.332z" clip-rule="evenodd" fill-rule="evenodd"/>
        <path fill="#8FC7BF" d="m206.381 63.238-.887 2.416 6.443-1.727 1.099-.294 2.011-2.717 5.128-1.374 2.457.364.53-1.164 2.849.258 3.67-.983 2.881-.772 1.454-1.412 1.341-8.702-.53-1.977-3.889 3.72-3.085.828-.784.966-4.893 1.311-4.244 4.656-3.065-.658-3.873 4.04z" clip-rule="evenodd" fill-rule="evenodd"/>
        <path fill="#76BDB1" d="M26.719 33.619v2.158l-1.775.503-1.956 1.107-1.462-1.107L20 35.777l-1.78-2.158-1.403-.712-1.403-.908 1.403-1.86-.584-1.92 1.987-1.442L20 28.22l1.067-2.023 1.922.58 1.956-1.888 1.074 2.78.7 4.33z" clip-rule="evenodd" fill-rule="evenodd"/>
        <path fill="#6E9690" d="m24.556 35.777-1.568-.387 1.568-1.771 1.081-2.189 1.082-.922v5.27l-1.386.7-1.82.909h-1.987v-1.61l1.987.702z" clip-rule="evenodd" fill-rule="evenodd"/>
        <path fill="#C2FFF5" d="M8.067 38.79v2.26l.97 1.203 1.272.702.497 1.59h1.36l1.108 1.805h1.639l1.295 1.88 2.057-1.11 3.261-.77 2.597-2.84.763-3.116 2.34-1.603.594-2.51-2.934-1.667-5.812-4.106-4.161-1.307-1.64 1.307h-1.721l-1.853 2.338-.663 2.931-.969 1.61" clip-rule="evenodd" fill-rule="evenodd"/>
        <path fill="#98DCD1" d="m17.944 47.12.275-2.973-1.403-1.894-.578-2.662-1.325-2.204.5-1.107-3.247-4.282-.542 1.95-.751 3.439-1.837-1.61-.969 1.61L7 39.617l.556 1.342 1.48-.694v3.263l1.837.62 1.737.84 2.803 2.132z" clip-rule="evenodd" fill-rule="evenodd" opacity=".853"/>
        <path fill="#8DCAC0" d="m32.947 51.519.724-.481-.724-.868-.448-.548-1.281-.827v-.897h-1.104l-.307-1.613-1.007-.287h-.78l-.675-.359-.577 1.554-.773.44.45 1.162v1.375l.9.263v1.085l.303 1.442 1.152 1.405h1.007l.307-1.405 1.104-.36h1.28l.449.805 1.024-2.367" clip-rule="evenodd" fill-rule="evenodd"/>
        <path fill="#76B2A8" d="m33.97 50.487-.85.54-.604.487h-.632l-.368.434-.7-.434H29.35l-.158-1.027-.879-.31s.108-.934.034-1.382c-.073-.448-.45-1.163-.45-1.163l1.454 1.706.57 1.149h1.594l1.001-.485.603-.31z" clip-rule="evenodd" fill-rule="evenodd"/>
        <path fill="#6A9C93" d="m29.059 58.153.3-1.086.746.285.427-1.14-.427-.905.942-1.169 1.55-.733-.448-.805h-1.282l-1.235.445-.272 1.32-.91-.227-.901-1.093-.53-1.32v3.582l.53 1.76.678.773z" clip-rule="evenodd" fill-rule="evenodd"/>
        <path fill="#6E9690" d="m18.22 39.618 1.244-1.442V36.28h2.062l2.597-2.333 3.697 2.333-.427 2.435-2.507 1.678-.763 3.117-3.057 3.353H18.22v-2.716l-1.404-1.894z" clip-rule="evenodd" fill-rule="evenodd"/>
        <path fill="#C3FFF5" d="m30.51 50.229 1.145-3.11 1.712-.26V44.36l1.885-2.107 2.597 1.904h2.402l1.297 2.084 2.43-1.88 4.756 3.87 2.074 3.57-2.074 2.001.063 3.854-4.82 1.801-3.726 1.585-3.598-1.585h-3.285l-2.859 1.585h-4.491v-3.386l3.707-1.822 1.93-1.915v-2.272z" clip-rule="evenodd" fill-rule="evenodd"/>
        <path fill="#8DCAC0" d="m124.947 50.519.725-.481-.725-.868-.448-.548-1.281-.827v-.897h-1.104l-.307-1.613-1.007-.287h-.78l-.675-.359-.577 1.554-.773.44.45 1.162v1.375l.9.263v1.085l.303 1.442 1.152 1.405h1.007l.307-1.405 1.104-.36h1.281l.448.805 1.024-2.367" clip-rule="evenodd" fill-rule="evenodd"/>
        <path fill="#76B2A8" d="m125.971 49.487-.852.54-.603.487h-.632l-.368.434-.701-.434h-1.464l-.159-1.027-.879-.31s.108-.934.034-1.382c-.073-.448-.451-1.163-.451-1.163l1.455 1.706.571 1.149h1.594l1-.485.603-.31z" clip-rule="evenodd" fill-rule="evenodd"/>
        <path fill="#6A9C93" d="m121.059 57.153.301-1.086.745.285.426-1.14-.426-.905.942-1.169 1.55-.733-.448-.805h-1.282l-1.235.445-.272 1.32-.91-.227-.901-1.093-.531-1.32v3.582l.531 1.76.678.773z" clip-rule="evenodd" fill-rule="evenodd"/>
        <path fill="#98D4CA" d="m26.018 61.042.7 2.945 2.397 1.871 3.681-1.871 3.009 1.379 2.608-1.38 2.372-2.266 2.962.958h2.074l2.407-2.25 1.53-.97-1.024-1.802h-2.406l-2.582 1.801-3.495 1.585-3.598-1.585h-3.285l-2.859 1.585h-3.79" clip-rule="evenodd" fill-rule="evenodd"/>
        <path fill="#629890" d="m49.758 59.457-1.024-1.8v-3.855l2.075-2v2l-.696 1.401z" clip-rule="evenodd" fill-rule="evenodd"/>
        <path fill="#7EC9BF" d="m56.011 51.647 7.197-2.429 6.332 3.841 6.312-2.255 2.422 4.014 2.32 2.838-7.536 1.801-7.153-1.8H50.809l-4.988-3.855z" clip-rule="evenodd" fill-rule="evenodd"/>
        <path fill="#5A9E93" d="m80.594 57.656-3.895 3.386h-3.842l-4.406.715-3.597-2.3-5.368-.928-5.243 1.178-2.662 1.335-2.847-2.513-2.913-4.61 5.297 3.737 14.775-.917 7.165 2.718z" clip-rule="evenodd" fill-rule="evenodd"/>
        <path fill="#4C4A4A" d="m137.075 40.405-2.543 2.55v1.98l-5.825 1.697-2.736 3.37 1.619.227 4.549 1.203 1.25-2.43h1.605l1.196-.472 4.394.812 2.475 2.46-.252-1.573-1.435-2.081h-2.767v-5.874z" clip-rule="evenodd" fill-rule="evenodd"/>
        <path fill="#4C4A4A" d="m164.903 50.726 2.333-1.724 3.435.862v1.938l1.286-1.076.905 2.622 1.468.591 2.15.637 2.842-.637v1.619l1.972.384v1.146h4.424l3.974-1.53 2.359.384 1.581 1.714-6.893.832h-4.688l-3.653-.75-7.727.75-.164-1.161.956.166-.021-1.339.515-.893-.661-1.061-1.347-.36-2.713-.095V52.29z" clip-rule="evenodd" fill-rule="evenodd"/>
        <path fill="#A2E6DC" d="m158.283 57.182-1.768-1.185-1.15-1.897.466-.472-2.683-1.993-.674-1.3 1.574-2.47 1.783-1.013v-2.14l1.594-1.68-.91-.978h.91l.858-1.61 2.054.64h4.229l.747.97 3.892-.461.725 2.417-.725 1.83 1.918.156 3.232 3.674-1.179 1.443-1.551-1.443v1.443l-1.695 1.167v3.506l-2.429.211-2.188 1.185-1.898-.579-.802.58-.93-.58-1.346-.606z" clip-rule="evenodd" fill-rule="evenodd"/>
        <path fill="#98DCD1" d="m44.02 46.168.566.374.556-.187.68.765 1.517-3.086h.592l.482-1.889v-.687l1.82-.531V39.59l.886-.8-.389-.444-1.732-.96h-1.843l-.4.598-.934.806-1.8.379-1.291.994v1.981l.807.784z" clip-rule="evenodd" fill-rule="evenodd"/>
        <path fill="#78ADA5" d="m155.365 54.1 1.15 1.897 1.768 1.185.827-.828.775-.357h1.042l1.686 1.185.801-.828 1.899.828 2.362-1.396h2.255l-1.315-2.598-1.479.44.539 1.163h-2.362l-1.068.995-1.597-.995-1.721-1.163-.59-1.348-1.227.908-.827-.908-.604.556-1.55-.556-.764-1.224-2.217.579 2.981 2.465z" clip-rule="evenodd" fill-rule="evenodd"/>
        <path fill="#6E9690" d="M45.821 47.12h2.05l1.146-.523.616-1.17v-1.394l.967-1.78v-1.59l1.047-1.072-.529-.8-.885.8v1.336l-1.82.53v.688l-.542 1.888h-.622l-1.11 2.564z" clip-rule="evenodd" fill-rule="evenodd"/>
        <path fill="#6E9690" d="m162.418 53.188.435.44.561-.677h.535l.851.237.375-.574.229-.709h.771l.602.247-.602.462v.574h.971l-.597.44.597.491-.369.573h-.602l-1-.573-1.226-.491-.535.839h-.561z" clip-rule="evenodd" fill-rule="evenodd"/>
        <path fill="#6DA098" d="m163.193 46.994.496.312v.56l-.496.318-.774.283v-.912l.478-.25-1.131-.606h-.945v-.86l.945.157.489-.829h.642v.673l-.255.156.551.399" clip-rule="evenodd" fill-rule="evenodd"/>
    </g>
</svg>
