<?xml version="1.0" encoding="UTF-8"?>
<svg data-bbox="0.005 0 85.913 63.933" xmlns="http://www.w3.org/2000/svg" viewBox="0 0 88 65" height="65" width="88" data-type="ugc">
    <g>
        <path fill="#BBDA89" d="m41.806 52.652 1.668-2.001 1.076-4.067.666-3.325.968-3.504.722-6.97.802-4.536 2.065-3.668.706-2.12s-.706-.511-1.435-.449c-.595.268-1.336 1.458-1.336 1.458H46.38l-1.5 4.256-.33 1.48-.73 3.579-.346 1.774-.327 4.149.673 3.135-.346 1.416-.911 4.297z" clip-rule="evenodd" fill-rule="evenodd"/>
        <path fill="#A9AFBA" d="M48.161 22.816c-.359 1.379-1.812 4.462-1.812 4.462s.018.653-.063 1.161a52 52 0 0 1-.641 3.3l-.18 4.432-1.645 1.895 1.14-4.62s-.118-1.174 0-1.915c.134-.845.318-.908.504-2.068.156-.966.019-1.437.18-2.38.178-1.035.499-1.575.499-1.575l1.197-2.038s.335-.377.821-.654" clip-rule="evenodd" fill-rule="evenodd"/>
        <path fill="#B1BDA9" d="m43.328 44.127 1.372.545-.292 2.238-1.585-.435z" clip-rule="evenodd" fill-rule="evenodd"/>
        <path fill="#3E3F42" d="m42.563 53.447-.757 1.231-.434 1.445s-.293.446-.293.804c0 .357.292.642.292.642s-.415.13-.519.335c-.042.083.032.432 0 .516-.021.057-.355.323-.357.381-.006.238.244.262.159.427-.083.16-.293.212-.355.452-.02.074-.076.523-.102.604-.05.154-.124.065-.171.262-.141.589-.5.589-.378 1.25.022.117-.326.306-.36.434-.02.074.026.334 0 .42-.032.106-.172.01-.205.142-.008.032-.171.208-.18.24a.75.75 0 0 0 0 .43h11.035s-.039-.355-.35-.43c.311-.24.127-.308.225-.484.071-.127.125-.318.125-.318s-.126-.327-.125-.52c.002-.184.235.009.291-.167.016-.05-.14-.276-.112-.38.036-.131.26-.142.321-.2.085-.08.274-.282.274-.282l.18.682v2.099s6.423.521 9.902.162c-.137-.96-.315-.495-.139-1.394.037-.188-.233-.266-.256-.434-.022-.169.283-.097.256-.253-.055-.32.152-.865 0-1.259-.13-.336-.32-.48-.256-.768.015-.067-.418-.155-.154-.288.263-.132.132-.154.154-.223.164-.51-.01-.68.14-1.281.076-.301.197-.61.255-.797.208-.67.122-.873.236-1.831.14-1.176-.49-2.378-.49-2.378l-5.574-1.041-3.175.711-4.4-.711-3.843.337z" clip-rule="evenodd" fill-rule="evenodd"/>
        <path fill="#997A6D" d="m42.174 51.987-.368 1.68 1.017 1.392 1.877.85.843-1.581.805-2.341v1.68l.032 1.392.526.85 2.27.351 1.303-.351 3.394-3.257V34.484l.643-7.043-1.183-1.62-2.567 1.29.9-2.509-.365-2.275h-.822l-2.318 4.002-1.255 4.23-.526 2.91-.238 6.514-.918 2.254-.816 4.673-.985 3.74z" clip-rule="evenodd" fill-rule="evenodd"/>
        <path fill="#B59E95" d="M50.767 21.677s-.364.246-.68.48c-.13.222 0 .574 0 .574s.302.169.49.15c.462-.161.888-.297.888-.297z" clip-rule="evenodd" fill-rule="evenodd"/>
        <path fill="#D9A189" d="m51.85 23.093-1.4-1.645h-1.58s-.613-.163-.844-.496c-.19-.273-.13-.85-.13-.85l-.33-.286s-.66-.049-.66-.22c0-.232.66-.585.66-.585s-.53-.183-.77-.315c0-.328.11-.749.11-.749s-.38-.043-.631-.213c-.108-.18 0-.5 0-.5s.58-.584.762-1.039c.175-.44-.13-1.02-.13-1.02v-1.042l.549-1.398h8.513l1.884 2.236-.564 1.562-1.06 1.752s-.037.696.186 1.31c.19.525.64.97.64.97l-1.086 1.188z" clip-rule="evenodd" fill-rule="evenodd"/>
        <path fill="#C8E796" d="m57.854 21.156-7.916 8.408s-.503 1.415-.95 2.892c-.402 1.325-.474 1.565-.748 2.711-.612 2.566-1.08 2.394-1.334 5.042-.32 3.348.157 3.508 0 6.95-.106 2.348-.699 2.969-.526 4.631.17 1.637.357 2.266 1.213 2.932 1.873 1.537 4.87 1.537 4.87 1.537s2.109.02 4.205-.28c1.732-.25 1.683-.05 3.232-.843.736-.376 1.34-1.495 1.34-1.495l-.19-3.247s-.033-1.22.19-2.269c.396-1.877.837-2.21 1.313-4.686.585-3.046.807-6.359.807-6.359h-4.637s-1.48.198-2.25-1.016c-.594-.934-.64-1.863-.587-3.608.045-1.505.782-2.893.782-2.893s.949-1.592 2.055-2.285c1.18-.738 1.283-.534 2.516-.278 1.086.226 1.07.69 2.121 1.472.67.5.61 2.79.952 2.73.318-.056 1.075-1.76.672-2.73-1.133-2.723-3.745-4.655-3.745-4.655s-.864-1.344-1.846-2.116c-.71-.559-1.54-.545-1.54-.545" clip-rule="evenodd" fill-rule="evenodd"/>
        <path fill="#B1BDA9" d="M46.906 48.06h3.032l1.772.668h4.014l4.555-.334.879-.334.968-2.496-1.847.458h-9.536l-3.837-.93z" clip-rule="evenodd" fill-rule="evenodd"/>
        <path fill="#B1BDA9" d="M55.016 46.013s-.324-2.597-.697-5.147c-.21-1.444 0-2.357 0-3.158 0-1.069.074-1.185.197-2.466.083-.867 0-1.915 0-1.915l.933-3.23 1.357-2.301 3.608-3.634-1.773-.344s-1.277 1.855-2.601 3.46c-1.072 1.301-1.503 1.048-2.191 2.352-.771 1.46-1.319 3.697-1.319 3.697l-.414 3.17v1.527l-.407 1.827s-.086 1.368 0 2.672c.118 1.777.407 3.49.407 3.49z" clip-rule="evenodd" fill-rule="evenodd"/>
        <path fill="#D9A189" d="M44.545 33.707s-.177-.206-.22-.457c-.037-.21.06-.465.06-.465s.11-.185.253-.24a.66.66 0 0 1 .377 0l.208.24s.018.46-.15.687c-.263.235-.528.235-.528.235" clip-rule="evenodd" fill-rule="evenodd"/>
        <path fill="#D9A189" d="m48.052 40.21 8.96 4.882s.553-.928.553-1.7c0-.854-.552-1.716-.552-1.716l.367-1.288v-.89l-1.268.305s-1.947-.295-3.639-.959c-1.776-.697-3.297-1.764-3.297-1.764l-1.124 1.333z" clip-rule="evenodd" fill-rule="evenodd"/>
        <path fill="#D9A189" d="M39.57 32.785s-.176.325-.27.641c.126.28.27.636.27.636l-.27.68-.898 2.606 1.702 1.416 1.702-.326h.795l-.327-1.358-.468-1.565.795-.6.822-.852-.235-1.425-1.595-.575h-1.28z" clip-rule="evenodd" fill-rule="evenodd"/>
        <path fill="#E5B19B" d="M40.735 39.421s.302.163.595.145c.166-.01.322-.273.322-.273l.225.056s.422.128.502-.056c.059-.134.075-.452 0-.529-.212-.216-.287-.234-.573-.321-.239-.074-.357-.093-.307-.093.098 0 .153.2.603.093.089-.07.08-.3 0-.45-.145-.27-.45-.391-.45-.391l-.504-.254s.392.155.729 0c.14-.065.225-.44.225-.44l-.676-.344-.096-.067h.245v-.52l.179-.268.052-.516-.893-.583-.178-.083-.63.083v3.456z" clip-rule="evenodd" fill-rule="evenodd"/>
        <path fill="#D8D8D8" d="M48.134 40.21c-.044-.455-.274-1.033.218-1.785.433-.662 1.114-.741 1.587-.822-.343-.422-1.262-.822-1.262-.822l-.325-.311s0-.299-.218-.8c-.896-.818-.896-.83-1.76-1.687-.592-.587-.74-.825-1.151-1.198-.105.28-.105.493-.263.662-.16.168-.52.169-.52.169l.13.367s.285.504.47.753c.026.273-.35.454-.35.454l-1.246-.178-1.143-.276s-.328-.153-.557-.251c-.3.175-.547.385-.46.842.273.21.541.343.541.343l1.165.422s-.723-.322-1.433-.422c-.217.064-.36.085-.41.252 0 .277.037.277.193.468.248.305.373.422.633.515.457.163 1.017.076 1.017.076s-.61 0-.973.064v.339l.572.474v.232l.225.556s.491.383 1.006.661c.266-.048.337-.13.62-.317.355.221.783.563.783.563s.489.202.96.202c.3 0 .698-.135.698-.135s.799.448 1.253.59" clip-rule="evenodd" fill-rule="evenodd"/>
        <path fill="#D8D8D8" d="M38.402 38.268c.324.404.841.75.841.75s1.147.403 1.424.403c.164 0 .251-.403.251-.403s.55.305.699.305c.143-.02.257-.397.142-.531a81 81 0 0 1-1.185-.676s.16-.05.344-.158c.156-.2.243-.413.136-.571-.43-.333-.463-.252-.574-.509.094-.09.325-.182.325-.182s.195 0 .343-.312c-.482-.694-.507-.635-.898-1.093-.081-.158.053-.243.14-.447.075-.178.24-.178.344-.317a3.4 3.4 0 0 1-.344-.464l-.922.464-.918 1.31s-.148 1.44-.148 2.43" clip-rule="evenodd" fill-rule="evenodd"/>
        <path fill="#676666" d="m48.052 14.03.803.591.919.684v.89l.133 1.205s.193.316.22.209c.15-.577.134-1.576.134-1.576s.275-.164.499-.376c.289-.273.528-.595.528-.595s.796.157 1.243.595c.346.339.343.96.343.96s-.287.809.124 1.15c.98.811 2.658 1.155 2.658 1.155h.328l1.395-2.89-1.087-3.799-4.582-2.071-3.033 1.732z" clip-rule="evenodd" fill-rule="evenodd"/>
        <path fill="#3E3F42" d="M47.593 15.025h1.479l1.282-.057 2.423-.185-.246-.241h-4.939z" clip-rule="evenodd" fill-rule="evenodd"/>
        <path fill="#997A6D" d="m55.865 21.826 1.19-1.262s-.684-.782-.722-1.206c.267-.274.756-.274 1.232 0 .256.147.289 1.015.289 1.015l.111.715.011.068-.325.207-1.262 1.348z" clip-rule="evenodd" fill-rule="evenodd" opacity=".731"/>
        <path fill="#D8D8D8" d="M45.544 13.405c.684.35 1.363-.227 3.315.868 4.824-.291 4.241 1.327 5.58 1.703 2.913 0 3.557.22 4.812.22.276-.408.346-2.41.346-2.41s-.35-.113-.346-.154c.366-3.337-2.804-6.194-5.824-6.023-4.75-.291-6.407 3.493-6.538 5.292-.834.08-1.345.277-1.345.277s-.158.175 0 .227" clip-rule="evenodd" fill-rule="evenodd"/>
        <path fill="#D8D8D8" d="m53.779 16.195-.446.67.775.33.888.53h.764l.868.56.938-1.42-.277-.332h-1.53l-1.651-.5z" clip-rule="evenodd" fill-rule="evenodd"/>
        <path fill="#AEA9A9" d="M49.773 11.172h1.553l1.596.411.951.311-.255.34-1.088-.34-1.204-.191h-1.553z" clip-rule="evenodd" fill-rule="evenodd"/>
        <path fill="#3E3F42" d="M56.462 19.709c.09-.097.389-.053.389-.053l.256.159s.314.295.273.425c-.101.32-.443.62-.443.62l-.695.817-.201-.087.67-.818.226-.307-.34-.45s-.189-.25-.135-.306" clip-rule="evenodd" fill-rule="evenodd"/>
        <path fill="#3E3F42" d="M46.824 14.31c-.046.383-.047.68 0 1.152.035.347.164.485.164.485l.346.743.258.27v-3.254l-.47-.102s-.237.202-.298.706" clip-rule="evenodd" fill-rule="evenodd"/>
        <path fill="#997A6D" d="M39.334 32.986c.311 0 .45-.366.928-.536.428-.153.886-.11.886-.11s.95.011 1.467.387c.35.254.585.95.585.95l.326.62.99-4.947.873-3.158.992-2.596s-1.108 1.023-1.866 2.453c-.551 1.042-.408 1.454-1.092 2.466-.67.992-.852.617-1.617 1.29-.296.262-.857.9-.857.9s-.33.251-.844.831a3.6 3.6 0 0 0-.538.803s-.362.647-.233.647" clip-rule="evenodd" fill-rule="evenodd"/>
        <path fill="#997A6D" d="M56.799 45.336c1.055.33 1.77.677 1.77.677h.535l.493-.494h1.278l1.252-.427s.594-1.345 1.143-2.763c.687-1.774.911-1.588 1.33-3.621.496-2.41.5-5.265.5-5.265s-.082-1.56-.5-2.655c-.77-2.013-.612-2.54-1.875-3.562-1.08-.875-2.31-.885-2.31-.885s-1.43-.112-2.561.885c-.57.503-1.209 2.172-1.209 2.172l-.604 1.78s-.592 1.135-.592 2.265c0 1.11.312 1.503.592 2.212.156.396.431.409.431.409l.173.433s-.218.31-.173.457.436.394.436.394-.134.65-.109 1.06c.027.454.214.668.214.668l.552.345s-.088-.022-.413-.022c-.096.288-.14.627-.244 1.268.148.234.105.419.105.419s-.214.384-.367.718c.367.525.733.94.733.94s-.366 1.707-.58 2.592" clip-rule="evenodd" fill-rule="evenodd"/>
        <path fill="#B1BDA9" d="m57.565 27.492-.197.378-.448.78-.252.914-.118.3-.335.856-.175.457s-.121.28-.267.678c-.15.406-.265.949-.265.949s-.086.68-.029 1.138c.075.598.245.973.245.973s.238.54.444.993c.047.047 0 0 .304.156.011.14.112.177.078.162-.604-.194-.685-.43-.685-.43s-.35-.739-.538-1.78c-.082-.455-.082-.72 0-1.212.116-.697.3-1.238.3-1.238l.238-.675.533-1.327.27-.914.414-1.158z" clip-rule="evenodd" fill-rule="evenodd"/>
        <path fill="#D9A189" d="m67.018 17.18-.421-1.056-.585-.43.225-.242-.535-.35v-.824l-.869-.462v-.653l.65-1.655-.37-1.918 2.986-1.206 3.316 3.368v3.35l-3.913 2.392z" clip-rule="evenodd" fill-rule="evenodd"/>
        <path fill="#ECCCA9" d="M66.805 18.554c-.531-.237 0-1.177 0-1.177s.672-1.262 1.237-2.206c.86-1.439 1.854-1.763 1.615-3.108-.378-1.666-1.935-2.278-1.935-2.278l-1.71-.35 9.129-3.048 1.374 4.81v1.364c.826.964 2.546 1.61 2.546 1.61s1.534.371 2.254 1.188c.85.967 1.392 3.391.833 3.391-.833-1.774-.928-1.953-2.814-2.647-1.712-.63-4.381 0-4.381 0L70.98 17.74s-3.108 1.288-4.175.813" clip-rule="evenodd" fill-rule="evenodd"/>
        <path fill="#3E3F42" d="M84.374 61.17v1.898H65.332l.084-1.898z" clip-rule="evenodd" fill-rule="evenodd"/>
        <path fill="#D1F49A" d="M64.71 62.449c11.27 1.268 11.021 1.043 20.512-1.069 0-1.444.23-1.958 0-3.72-.347-5.92-.888-8.015-1.936-11.157-.95-2.038-1.862-3.113-1.862-3.113s1.139-1.824.913-3.227c1.099-3.938 2.267-7.78 2.267-7.78s.957-5.403.271-8.16c-.789-3.176-3.451-6.824-3.451-6.824s-1.036-2.095-2.718-2.095c-2.186 0-6.053 1.672-6.053 1.672H70.6s3.72 2.724 4.35 6.007c.51 2.65-.906 6.587-.906 6.587s-1.591 1.544-3.444 1.21c-1.69-.305-3.997-2.792-3.997-2.792s.375-.171-1.402-.601c0 3.018-.368 8.168-.368 8.168s-1.421 5.281-1.21 8.243c0 1.48.631 2.705.631 2.705s-.631 4.04-.631 8c0 3.9 0 2.06 1.087 7.946" clip-rule="evenodd" fill-rule="evenodd"/>
        <path fill="#5B5B5B" d="M81.98 27.22a.8.8 0 0 1-.268.129c-.193.054-.35-.017-.521-.094q-.1-.047-.211-.086c-.336-.115-.576-.59-.725-.907-.088-.187-.256-.917-.2-1.229.057-.312.225-.656.354-.78.12-.119.484-.45.654-.448.174-.002.488.09.65.154.131.053.33.29.483.472q.048.059.09.106c.103.12.168.376.22.581.027.103.05.192.072.247.069.17-.022.871-.06 1.07a.6.6 0 0 0-.02.21c.002.098.005.196-.056.262q.03.016.057.039c.025.02.05.04.08.046.051.011.266-.017.266-.017l.052.39s-.438.004-.534-.025l-.11-.03a1 1 0 0 1-.273-.09m-.02-1.213c.049-.053.028-.255.008-.445-.015-.149-.03-.29-.008-.342q-.033-.082-.065-.175c-.07-.194-.141-.395-.242-.43a.64.64 0 0 0-.311-.063h-.231c-.232 0-.34.021-.453.364-.123.377-.108.607-.102.648.007.048.063.334.075.38l.062-.032c.094-.05.249-.133.3-.143l.053-.013a.44.44 0 0 1 .332.013c.074.033.15.053.223.073.13.035.254.069.359.165m-.825.184a.94.94 0 0 1 .406.099c.154.064.244.147.364.257l.012.011a1 1 0 0 1-.192.06.93.93 0 0 1-.617-.088.8.8 0 0 1-.307-.273c.04-.013.29-.066.334-.066" clip-rule="evenodd" fill-rule="evenodd"/>
        <path fill="#364450" d="m83.585 27.37-.403-.014V25.76l-.37-.063-.08-.509.403.13-.056-.514c0-.209-.047-.28.056-.38.102-.102.66.147.66.147v.447c-.147.002-.21-.234-.21-.094v.393l.345.072.06.494-.405-.123z"/>
        <path fill="#364450" d="M84.224 27.38s.022-.728 0-1.253v-1.141l.326.152s.088.513.088 1.07v1.28z"/>
        <path fill="#364450" d="M84.821 26.599c0-.288.315-.55.956-.753 0 .391.141.762.141 1.524-.628-.203-1.095-.493-1.097-.771"/>
        <path fill="#A9AFBA" d="M64.602 36.438s1.745-1.321 5.154-.868c3.821.766 4.978 1.865 7.557 2.198 2.128.275 4.314 0 4.314 0h1.379l.823-2.952s-.789.337-1.587.3c-3.726 0-2.365-.3-4.16-.563 1.505-4.039 1.233-8.147 1.233-8.147l-.635-3.737s-.398-1.643-1.156-2.796c-1.196-1.822-2.123-3.154-3.996-3.154-.375-.223-.875.257-.875.257s.808.55 1.483 1.472c.884 1.209 1.166 1.317 1.636 2.788.62 1.945.7 2.001.85 4.036.118 1.628-.85 5.242-.85 5.242l-1 3.427s-2.544-.722-4.786-1.285c-3.156-.726-5.012 0-5.012 0z" clip-rule="evenodd" fill-rule="evenodd"/>
        <path fill="#B1BDA9" d="M63.734 51.35s1.307.382 2.905.488c3.532.236 3.924.374 7.474.195 4.547-.228 4.057-.144 7.371-.684 1.816-.295 2.89-.987 2.89-.987l-.924-3.42s-.104.533-1.164.866c-.98.308-1.154.208-2.918.416-2.85.336-2.593.32-6.16.453-3.482.13-3.415-.24-6.57-.186-1.2.02-.836.186-1.713.186-.515 0-.93-.288-.93-.288z" clip-rule="evenodd" fill-rule="evenodd"/>
        <path fill="#3E3F42" d="M73.322 16.648c0 .085.567 0 1.133 0 .615 0 .492-.052.976-.11.698-.085.777-.039 1.39-.176.564-.126.684-.238 1.217-.238.63 0 .488.029 1.134.238.506.164 1.004.284 1.287.453.91.543.789.543 1.394 1.203-.47-.792-.275-1.015-1.322-1.894-.638-.43-.867-.694-1.943-.82-.751-.088-1.084.176-2.087.39-.732.157-1.383.352-1.383.352s-1.796.48-1.796.602" clip-rule="evenodd" fill-rule="evenodd"/>
        <path fill="#3E3F42" d="M81.536 43.236s-.177-.21-.459-.21c-.302 0-.665.21-.665.21l-.441.266-1.056-1.025s.492.045.953 0c.363-.036.695-.051.695-.162 0-.319-.328-.423-.151-.493.183-.073.436.186 1.033.222.393.024.842-.59.856-.426-.091.22-.175.537-.406 1.015-.084.173-.359.603-.359.603" clip-rule="evenodd" fill-rule="evenodd"/>
        <path fill="#A9AFBA" d="M65.882 32.54s-.115-1.658 0-2.82c.118-1.188.467-1.878.467-1.878l-.11-.06-.537-.294s-.18 1.041-.287 2.233a63 63 0 0 0-.178 2.987z" clip-rule="evenodd" fill-rule="evenodd"/>
        <path fill="#D9A189" d="M46.448 25.494c.225.295.389.588.907.796.343.136.856 0 .856 0s1.769.192 2.664.416c.236-2.512 1.742-4.327 1.742-4.327s-3.18 1.298-4.002 1.45c-.822.15-1.573.084-1.573.084s-.674.656-.594 1.581" clip-rule="evenodd" fill-rule="evenodd"/>
        <path fill="#3E3F42" d="M50.875 26.706c.495.611 1.8.863 1.8.863l12.525-.182s.681.144 1.403.601c.954.605.557.811 1.534 1.413 1.342 1.066 2.156 1.541 3.083 1.434 1.302-.164 2.19-.363 2.824-1.265.737-1.896.999-3.864.999-3.864s.316-2.852-.711-4.613c-1.688-2.826-3.732-4.117-3.732-4.117s-1.77.345-3.264.91a5.5 5.5 0 0 0-1.722 1.095s-3.055 1.064-6.234 2.467c-.915.27-1.09-.087-2.126 0-.742.061-2.239.196-2.239.196s-2.239-.196-2.709.745c-.54.76-1.305 1.266-1.717 2.61-.239.778-.262 1.033.286 1.707" clip-rule="evenodd" fill-rule="evenodd"/>
        <path fill="#C59884" d="M42.636 24.706c-.061.115-.07.215-.033.374.041.173.19.29.19.29s.188.165.376.155c.238-.013.356-.013.476-.202.091-.143.07-.431.07-.431s.19-.027.368-.108c.135-.06.26-.175.26-.175l-.926-1.747-.624.648.082.505.075.454s-.218.057-.314.237" clip-rule="evenodd" fill-rule="evenodd"/>
        <path fill="#D8D8D8" d="M44.482 25.974c.111.3.576.46.576.46l.592-.114.79.114s1.207.133 1.218-.075c-.337-.039-.835-.305-1.166-.852 0-.338-.07-.46.08-.845.178-.463.145-.38.427-.688.157-.079.455.057.455-.031-.036-.301-.455-.433-.455-.433l-.243-.107s-.381-.886-.893-1.265c-.507-.104-.648-.454-1.381-.693-.654-.212-.837-.259-1.47-.202-.434.382-.698.667-1.192 1.406-.127.19-.15.292-.104.491.02.091.056.136.208.165.08.015.257-.075.257-.075l-.292.28s-.143.32-.07.464a.48.48 0 0 0 .454.238c.225-.024.276-.076.446-.238.158-.15.218-.247.351-.368.27-.247.401-.507.401-.507s.136.624.442 1.165c.199.352.569.62.569.62s-.176.614 0 1.09" clip-rule="evenodd" fill-rule="evenodd" opacity=".951"/>
        <path fill="#3E3F42" d="m70.98 8.7 3.734 1.69 1.779.955.271-2.006-4.746-1.518z" clip-rule="evenodd" fill-rule="evenodd"/>
        <path fill="#D8D8D8" d="M65.09 10.2h-1.533s-1.035-.078-1.035-.296c0-.348 1.035-.738 1.035-.738s.592-.173.796-.468c.308-3.64.488-5.592 4.852-7.706 2.227-1.079 5.133-.815 7.852.657 1.169 1.193 2.528 2.127 2.867 4.268.18 0 .464.056.513.183.229 1.245.226 3.066.226 3.066s-.94 1.692-4.171 2.586c.117-1.553 0-1.848.201-2.254-2.502-1.746-5.416-1.067-7.126-.43-2.02-.077-4.056 0-4.056 0z" clip-rule="evenodd" fill-rule="evenodd"/>
        <path fill="#B4B3B3" d="M67.921 9.021c-2.83-.17-3.514.217-4.366.52-.505.22-.68.504-.322.659h1.857s.724-.61 2.831-1.179" clip-rule="evenodd" fill-rule="evenodd"/>
        <path fill="#B4B3B3" d="M76.61 9.457s1.83-.171 2.998-.093c.44.029.133.412-.343.638a19 19 0 0 1-2.773 1.074l.118-.876z" clip-rule="evenodd" fill-rule="evenodd"/>
        <path fill="#D9B288" d="M73.397 11.076c-.333.676-.419.792-.849 2.185-.245.793-.562 2.434-.562 2.434s.708-.901 1.182-2.434c.227-.73.23-1.301.23-2.185" clip-rule="evenodd" fill-rule="evenodd"/>
        <path fill="#D9B288" d="M70.371 9.245c.515.763.794.87.889 1.831-.245.792-.889 2.253-.81 2.072.53-.901.49-.455.966-1.987 0-.748-.436-1.469-1.045-1.916" clip-rule="evenodd" fill-rule="evenodd"/>
        <path fill="#D9B288" d="M71.738 10.2c.09.508.106.556.067 1.084-.051.676-.247 1.324-.247 1.324s-.364.813-.728 1.214c-.646.71-.481.56-1.26 1.112-.377.267-.468.238-.872.675-.344.37-.867 1.044-.63.911.921-.982 1.757-1.435 2.912-2.515.407-.381.758-1.284.758-1.284s.176-.704.248-1.437c.052-.528.12-.635 0-1.085-.151-.57-.541-.954-.541-.954s.203.444.293.955" clip-rule="evenodd" fill-rule="evenodd"/>
        <path fill="#D9B288" d="M68.406 15.452c.24-.148.763-.418 1.272-1.148.376-.539.544-.939.674-1.594.13-.648.13-.838 0-1.365-.129-.527-.356-.901-.92-1.49a82 82 0 0 0-1.332-.518l.97.46s.56.437.961 1.548c.157.435.204.798.118 1.365-.11.721-.28.807-.51 1.21-.495.866-1.044 1.384-1.233 1.532" clip-rule="evenodd" fill-rule="evenodd"/>
        <path fill="#D9B288" d="M76.038 12.804c.404.814.53.995 1.179 1.536.505.422.627.34 1.32.697.252.13.48.299.815.415.614.213 1.359.824 1.311.637-.068-.272-.825-.68-1.637-1.275-.656-.48-.861-.448-1.372-.82-.755-.548-.782-.527-1.346-1.19-.366-.43-.503-1.311-.595-1.295 0 .441.09.821.325 1.295" clip-rule="evenodd" fill-rule="evenodd"/>
        <path fill="#D9B288" d="M73.397 10.008s1.132.65 1.721 2.245c.27.733.356 1.717 0 2.41-.857 1.668-2.843 1.985-2.843 1.985s2.135.072 3.158-1.69c.348-.599.324-2.055 0-2.705-.834-1.677-2.036-2.245-2.036-2.245" clip-rule="evenodd" fill-rule="evenodd"/>
        <path fill="#B67F66" d="M66.272 15.893s.358-.313.707-.678c.044-.055.004-.104-.09-.112h-1.186s.37.257.535.349c-.072.046-.226.243-.226.243z" clip-rule="evenodd" fill-rule="evenodd"/>
        <path fill="#A9AFBA" d="M66.735 27.998s-.291-.149-.57-.257c.62.636 2.363 2.928 4.435 3.358 1.916.397 3.586-1.33 3.855-1.685.92-2.554 1.35-4.586.571-7.773-1.834-2.752-3.9-4.665-3.9-4.665H70.6s3.2 3.109 4.133 4.91c.516 2.83.18 5.226-.49 7.097-1.65 1.97-2.723 1.867-3.643 1.797-1.786-.418-3.865-2.782-3.865-2.782" clip-rule="evenodd" fill-rule="evenodd"/>
        <path fill="#E1DDDD" d="M64.443 8.384c6.356-2.342 9.998-3.007 15.378-2.563-.7-2.36-1.418-3.248-3.652-4.892-3.4-1.072-6.468-2.41-11.335 3.585-.39 1.369-.39 1.528-.39 3.87" clip-rule="evenodd" fill-rule="evenodd" opacity=".772"/>
        <path fill="#AEA9A9" d="M68.124 3.478s.574-.854 2.325-1.325c.885-.238 1.636-.166 2.82 0 1.346.189 2.264.698 2.264.698l.959.769.107-.297-.915-.713s-.914-.673-2.415-.855c-1.17-.141-1.98-.261-2.899 0-1.708.646-2.246 1.355-2.246 1.355z" clip-rule="evenodd" fill-rule="evenodd"/>
        <path fill="#EEEEEE" d="M75.118 10.008c-.075.2 0 .797 0 .797s.595.399 1.48.704c.166 0 .497-.305.497-.305s.105-.685 0-1.005c-.407-.191-.472-.144-.962-.191-.5-.049-.84-.136-1.015 0" clip-rule="evenodd" fill-rule="evenodd"/>
        <path fill="#AEBCD6" d="M11.586 28.82s.344-.175.74-.256c.235-.047.522 0 .522 0s.011-.132-.156-.453c.301-.938 1.052-1.883 1.052-1.883s1.501.374 2.503.657c1.664.47 1.782.406 3.248 1.02a14.6 14.6 0 0 1 2.582 1.423l1.195 1.337.81.991v.637s.282.496 0 .693c-.214.15-.994 0-.994 0l-1.147-1.219-.726-.392s-1.973-.312-2.671-.482c-1.951-.585-3.526-1.565-3.526-1.565l-1.509-.507-1.327.128z" clip-rule="evenodd" fill-rule="evenodd"/>
        <path fill="#EBAF67" d="M3.346 63.932s-.238-.603-.202-1.22c.173-2.986.62-5.986.62-5.986s-.176-1.488-.418-2.958c-.194-1.174-.453-1.31-.453-2.329 0-1.722.138-1.93 0-3.819-.099-1.342-.47-1.308-.666-2.687-.238-1.661-.203-3.393-.203-3.393s-.685-1.127-.685-2.32c0-1.894.267-2.044.685-4.03.24-1.14.022-1.294.632-2.223 1.088-1.66 2.398-2.074 2.398-2.074l2.61-.7s1.344-.235 2.595-.79c.754-.334.506-.142 1.236-.514.244-.124.693-.051.916 0 .813.187.679.113 1.686.244.905.117.95.198 1.825.645 1.087.555 2.622 1.115 2.622 1.115s2.04.325 3.058.547c.61.51 2.423 2.72 2.423 2.72l1.988 1.847 1.403.095-.46 1.434s-.842 1.457-1.656 2.94c-.54.983-.627 1.013-1.053 1.992-.635 1.463-1.07 3.084-1.07 3.084v2.068l-.409 2.74v1.78l.41 2.08 2.122 2.62 2.924-.113.473 7.206z" clip-rule="evenodd" fill-rule="evenodd"/>
        <path fill="#424242" d="M8.329 37.477a.8.8 0 0 1-.291.052c-.277 0-.55-.067-.777-.226-.288-.203-.545-.598-.598-.947-.031-.206.011-.962.152-1.25s.397-.576.555-.662c.148-.082.552-.117.714-.07.166.047.544.198.68.304.134.107.364.382.462.599s.15.529.17.708c.019.183-.082.762-.174.945a1.6 1.6 0 0 1-.366.37q.024.022.043.052c.019.026.038.053.063.067.046.025.259.056.259.056l-.06.393s-.417-.116-.5-.17q-.043-.027-.097-.058c-.085-.05-.181-.106-.235-.163m.165-.504a.46.46 0 0 0 .15-.172q.029-.05.068-.101c.075-.104.285-.59.176-.802-.028-.193-.143-.493-.256-.573l-.065-.056c-.114-.099-.29-.251-.392-.279l-.016-.005c-.23-.067-.52-.152-.737.172-.222.333-.272.56-.278.603a9 9 0 0 0-.034.39l.068-.015a2 2 0 0 1 .325-.057c.08.008.45.145.602.274.12.102.207.274.288.434q.05.1.1.187m-.973-.445a.9.9 0 0 1 .36.206c.127.105.19.21.274.35l.008.014q-.1.011-.2.005a.9.9 0 0 1-.563-.254.8.8 0 0 1-.216-.349c.042-.001.295.015.337.028" clip-rule="evenodd" fill-rule="evenodd"/>
        <path fill="#364450" d="m10.057 37.92-.38-.125.088-1.59-.342-.097.001-.518.385.09v-.387c.059-.204.025-.283.15-.353.127-.07.642-.002.642-.002l-.001.497c-.141-.038-.322-.084-.361.052v.314l.316.064-.043.481-.384-.066z"/>
        <path fill="#364450" d="M10.598 38.099s.09-.64.138-1.246c.04-.486.037-.93.037-.93l.45.066s-.012.464-.065.959c-.07.656-.121 1.343-.121 1.343z"/>
        <path fill="#364450" d="M11.697 36.709c-.252.14-.365.349-.445.629-.077.27-.073.631.061.884.135.253.51.495.792.576a.98.98 0 0 0 .791-.11c.19-.11.244-.366.295-.606q.024-.112.05-.214c.077-.266 0-.507-.14-.759a1 1 0 0 0-.632-.498.98.98 0 0 0-.772.098m.363 1.632c-.204-.058-.554-.312-.489-.837a.567.567 0 0 1 .702-.527c.114.033.269.088.373.175.088.072.269.372.204.598-.063.221-.122.41-.3.518-.17.107-.3.132-.49.073" clip-rule="evenodd" fill-rule="evenodd"/>
        <path fill="#364450" d="m14.804 38.528.16-.995h.353l-.411 2.091-.164-.047-.333-1.486-.283 1.263-.526-.116s-.079-.627-.153-1.326a20 20 0 0 0-.166-1.088l.65.246s.088.255.1.592c.013.376 0 .43 0 .43l.182-.933.4.14z"/>
        <path fill="#3E3F42" d="M5.547 37.211c.112-.079.5-.092.917.08.831.342.501.34 1.41.798.395.2.555.354.979.427.38.065.82.18 1.268.336.781.218.806.511 1.859.78 1.606.465 3.279.684 3.279.684l-.004 1.273s-2.144-.424-3.606-.908c-1.271-.42-.884-.38-1.784-.85-.307-.16-.615-.15-1.015-.285-.633-.213-.735-.277-1.184-.498-.902-.445-.526-.503-1.204-.742a4.6 4.6 0 0 0-.918-.211z" clip-rule="evenodd" fill-rule="evenodd"/>
        <path fill="#A9AFBA" d="M23.086 33.238s-.076 1.026-.505 1.73c-.443.728-1.11 1.209-2.072 2.568-.543.767-.94 1.685-.94 1.685s-.325 1.033-.644 2.069c-.366 1.183-.725 2.37-.725 2.37l-.337 1.648-.382 1.165-.18 1.522-.288 1.515-.25 2.07v6.456h-1.745l-1.455-1.197-1.798-.893s-1.951-.319-4.041-.713c-.97-.183-2.508-.656-2.508-.656s-.47-.805-1.167-1.207c-.373-.216-.807-.254-.807-.254v3.723l1.748.727s.673.609 1.43.823c1.054.297 1.127-.073 2.191.2.895.23 1.728.807 1.728.807l2.825.674 1.854.953s1.237.678 2.463.678c1.05 0 2.089-.678 2.089-.678s.962-.625 1.926-.625c1.009 0 2.02.625 2.02.625l1.707.678 1.142-1.631-.514-2.034-2.335.736h-.935l-2.072-.736-.94-.47.355-4.816v-2.302s.37-2.731 1.021-5.349a23 23 0 0 1 1.133-3.295l1.008-2.583s.785-.76 1.4-1.685c.453-.683 1.365-1.755 1.365-1.755z" clip-rule="evenodd" fill-rule="evenodd"/>
        <path fill="#AEBCD6" d="m1.34 39.22-.472 1.164s-.2.824-.416 1.889c0 .942-.23 1.315-.23 2.399.23.658.23 1.227.23 1.227s-.558 2.385-.427 3.33a9.6 9.6 0 0 0 1.01 1.061l.968.244.89.905v-4.285l-.36-3.761-.53-3.643z" clip-rule="evenodd" fill-rule="evenodd"/>
        <path fill="#3E3F42" d="m27.176 36.522-1.563 2-1.48 2.473-.62 1.275-.336 1.014-.586 2.481s-.343 2.105-.376 2.889c-.042 1.017-.204 2.633-.108 3.486.103.908.784 1.788.784 1.788l.622.649-.727-2.846.105-2.216.287-2.159s.14-2.014.602-3.787c.314-1.206.95-2.155.95-2.155l1.123-1.88.611-1.012.425-.751.504-.959z" clip-rule="evenodd" fill-rule="evenodd"/>
        <path fill="#3E3F42" d="M11.586 28.82s.255.108.596.129c.692.042.856-.091 1.47 0 .804.12 1.366.421 1.366.421s1.077.538 2.303 1.04c.754.31.813.386 1.921.652 1.02 0 2.36.378 2.36.378l.628.55s-.174.022-.286 0c-.356-.07-.122-.054-.65-.185-.814-.203-1.25-.075-2.052-.267-1.201-.29-2.056-.733-2.056-.733l-2.383-1.052s-.463-.249-1.151-.383c-.623-.12-1.47-.127-1.47-.127l-.881-.294z" clip-rule="evenodd" fill-rule="evenodd"/>
        <path fill="#3E3F42" d="m4.609 31.054.445-.161s-.48.272-.938.714c-.704.679-1.082 1.027-1.387 1.527-.277.454-.374 1.1-.374 1.1s-.22.801-.4 1.664c-.205.986-.287.784-.371 1.716-.102 1.137 0 1.22 0 2.438v.85l-.245-1.048v-1.656s.161-1.452.342-2.53c.173-1.03.522-2.324.75-2.667.505-.756.555-.748 1.081-1.216.535-.476 1.097-.731 1.097-.731" clip-rule="evenodd" fill-rule="evenodd"/>
        <path fill="#A9AFBA" d="m2.83 47.154.562-4.36s-.13-.635-.195-1.319c-.102-1.078-.155-1.445 0-2.551.129-.922.333-.87.567-1.89a14 14 0 0 0 .244-1.638l.703-1.454s.415-1.321.963-1.941c1.148-1.298 2.43-1.894 2.43-1.894l-2.043.437s-.615.233-1.193.748c-.449.4-.59.611-1.104 1.505-.32.557-.595 1.052-1.075 2.377-.3.828-.377.83-.637 1.86-.213.846-.31 1.89-.31 1.89v1.979s.418.663.31 1.405.246 3.176.246 3.176z" clip-rule="evenodd" fill-rule="evenodd"/>
        <path fill="#364450" d="M4.179 50.29s.734.511 1.699.803c.686.208 2.481.443 3.233.498.048.246 0 .498 0 .498s.992.1 1.411.268c1.054.422.758.508 1.829.921.818.316 2.194.928 2.194.928v1.352l-2.613-1.2s-.734-.484-1.887-.836c-.733-.224-1.375.019-1.543-.097.059-.312.059-.501.059-.501s-1.581.07-2.683-.265c-1.09-.331-1.238-.331-1.888-.954 0-.866.189-1.415.189-1.415" clip-rule="evenodd" fill-rule="evenodd"/>
        <path fill="#AEBCD6" d="m26.601 38.295 2.096 1.455s.786.264 1.154 1.176c.209.518 0 1.686 0 1.686s.31.483.995 1.157v2.607l.938 2.107v1.753l1.446 2.946s-.156 1.424 0 2.376c.082.497.082.497.475 1.28.12.75 0 2.014 0 2.014s-.295.274-.475.782c-.195.551-.276 1.336-.276 1.336l-1.17 1.673-1.304 1.289-2.698-.4-1.417-1.317V60.97s-.901-.485-1.418-.928c-.16-.43 0-1.492 0-1.492s-.887-1.235-1.457-1.824c0-1.168.164-1.44 0-2.521-.236-1.563-.48-1.281-.799-2.766.25-2.25.25-3.198.487-5.887.3-1.724 1.242-3.674 1.242-3.674l1.509-2.714z" clip-rule="evenodd" fill-rule="evenodd"/>
        <path fill="#D6A366" d="m26.602 38.295 1.112.798s.514.461 1.222.785c.415.33.793.785.793.785l.122.946v1.237l.719.656s.068-.603 0-1.126a21 21 0 0 0-.245-1.272s.114-.77 0-1.226a35 35 0 0 0-1.03-1.343l-1.067-.54-.834-1.042-.437.583z" clip-rule="evenodd" fill-rule="evenodd"/>
        <path fill="#997A6D" d="M22.078 30.107c.405-1.055.614-1.942.614-1.942s.084-1.182.629-1.937c.337-.466 1.243-.664 1.243-.664s.582-1.279.858-2.023.943-1.938.943-1.938-5.497-2.791-9.599-3.541c-1.122-.206-1.747 1.887-1.747 1.887l-.215 2.842s.208.969 0 1.82c-.131.536-.545 1.346-.545 1.346l-.703 1.242s4.349 1.622 8.522 2.908" clip-rule="evenodd" fill-rule="evenodd"/>
        <path fill="#3E3F42" d="M27.298 36.953s.532.596 1.05 1.593c.183.277.619 1.025.619 1.025l.35.41s.288.38.459.777c.064.147.074.423.074.423l.12.835.078.887.294.33-.115-1.313s0-.808-.18-1.257c-.39-.66-.39-.73-.772-1.27-.029-.04-.488-.572-.673-.847-.572-1.063-1.209-1.818-1.209-1.818z" clip-rule="evenodd" fill-rule="evenodd"/>
        <path fill="#364450" d="m7.327 47.626.278-2.076s.21-.062.403 0c.164.052.172.19.31.226.293.077.382-.066.649 0 .207.052.093.404.3.45.276.06.455-.334.666-.235.216.1.188.784.188.784l-.188 1.845h-.665l.29-1.658s-.23-.306-.29-.187c-.235.453-.135 1.531-.135 1.531l-.621-.177.124-1.753h-.532l-.096 1.413z" clip-rule="evenodd" fill-rule="evenodd"/>
        <path fill="#364450" d="M13.031 48.62s-.016-.707-.268-.991c-.26-.292-.42-.247-.81-.216-.216.017-.403.31-.403.31s-.165.512-.165 1.014c0 .378-.041.578.165.78.32.316.45.284.888.313.195.014.377-.227.377-.227l.216-.397-.386-.306s-.072.305-.207.355c-.183.068-.374.077-.429-.118-.105-.377-.11-.601 0-.99.063-.222.229-.322.348-.231.122.093.197.342.197.547.26 0 .477.157.477.157" clip-rule="evenodd" fill-rule="evenodd"/>
        <path fill="#364450" d="M10.214 46.829s.226-.263.439-.197c.31.097.453.09.606.522.142.4 0 1.236 0 1.236l-.13 1.094-.46-.157v-.322s-.477.184-.64-.136c-.109-.215-.04-.656.096-.934.184-.38.639-.167.639-.167s.055-.27 0-.378c-.102-.2-.16-.255-.315-.236-.165.02-.324.315-.324.315z" clip-rule="evenodd" fill-rule="evenodd"/>
        <path fill="#3E3F42" d="M13.584 21.603c.617 1.55 2.348 2.663 2.348 2.663s1.245.908 2.612 1.207c1.395.305 2.913 0 2.913 0s1.557.313 2.38-.443c1.63-1.496 2.527-4.06 2.527-4.06l.934-1.602v-1.964s-.262-.702-.697-1.09c-.177-.156-.525 0-.525 0v-1.329l-.556-.938s-.666-.408-1.298-.87c-1.4-1.024-.765-1.424-2.765-2.102-1.095-.372-1.774-.303-2.913.316-.386.573-.422.625-.967.945-.344.203-.449-.165-.812 0-.908.413-1.104.28-1.962 1.194-.733.78-1.219 2.196-1.219 2.196s.058.823 0 1.678c-.139 2.083-.557 2.796 0 4.199" clip-rule="evenodd" fill-rule="evenodd"/>
        <path fill="#3E3F42" d="m22.23 27.7.826.697s.695-1.146.93-1.146c.237 0 .535-1.023.535-1.023l.214-1.185v-.433l-.748.433-.504.914z" clip-rule="evenodd" fill-rule="evenodd"/>
    </g>
</svg>
