<svg width="288" height="224" viewBox="0 0 288 224" fill="none" xmlns="http://www.w3.org/2000/svg">
<path fill-rule="evenodd" clip-rule="evenodd" d="M141.944 181.414L147.345 174.709L150.826 161.085L152.982 149.942L156.113 138.201L158.451 114.847L161.045 99.6481L167.731 87.3583L170.016 80.2526C170.016 80.2526 167.731 78.5429 165.371 78.752C163.445 79.6499 161.045 83.6361 161.045 83.6361H156.748L151.894 97.8976L150.826 102.858L148.463 114.847L147.345 120.79L146.285 134.693L148.463 145.199L147.345 149.942L144.394 164.34L141.944 181.414Z" fill="#BBDA89"/>
<path fill-rule="evenodd" clip-rule="evenodd" d="M162.512 81.4434C161.35 86.0656 156.646 96.3968 156.646 96.3968C156.646 96.3968 156.704 98.5839 156.444 100.286C155.564 106.058 154.367 111.344 154.367 111.344L153.784 126.193L148.463 132.541L152.15 117.064C152.15 117.064 151.769 113.13 152.15 110.647C152.585 107.815 153.179 107.605 153.784 103.718C154.287 100.48 153.844 98.9018 154.367 95.7428C154.942 92.2752 155.98 90.4644 155.98 90.4644L159.855 83.6361C159.855 83.6361 160.937 82.3719 162.512 81.4434Z" fill="#A9AFBA"/>
<path fill-rule="evenodd" clip-rule="evenodd" d="M146.87 152.852L151.31 154.677L150.366 162.175L145.236 160.717L146.87 152.852Z" fill="#B1BDA9"/>
<path fill-rule="evenodd" clip-rule="evenodd" d="M144.395 184.078L141.945 188.205L140.539 193.045C140.539 193.045 139.593 194.541 139.593 195.738C139.593 196.936 140.539 197.892 140.539 197.892C140.539 197.892 139.195 198.329 138.858 199.014C138.723 199.29 138.96 200.461 138.858 200.741C138.789 200.934 137.708 201.826 137.703 202.019C137.682 202.817 138.491 202.896 138.217 203.449C137.95 203.986 137.271 204.161 137.068 204.962C137.006 205.211 136.822 206.715 136.737 206.988C136.577 207.503 136.338 207.204 136.185 207.866C135.727 209.839 134.567 209.839 134.963 212.053C135.033 212.444 133.905 213.079 133.797 213.508C133.734 213.756 133.88 214.625 133.797 214.912C133.692 215.27 133.24 214.948 133.133 215.389C133.107 215.498 132.579 216.088 132.549 216.196C132.326 217.005 132.549 217.636 132.549 217.636H168.265C168.265 217.636 168.138 216.446 167.133 216.196C168.138 215.389 167.541 215.164 167.861 214.572C168.09 214.148 168.265 213.508 168.265 213.508C168.265 213.508 167.855 212.412 167.861 211.763C167.866 211.149 168.62 211.795 168.802 211.207C168.854 211.041 168.349 210.28 168.439 209.934C168.554 209.493 169.278 209.455 169.478 209.262C169.754 208.997 170.363 208.316 170.363 208.316L170.945 210.603V214.912V217.636C170.945 217.636 191.733 219.383 202.995 218.18C202.549 214.965 201.974 216.521 202.545 213.508C202.664 212.877 201.788 212.617 201.716 212.053C201.643 211.487 202.631 211.728 202.545 211.207C202.367 210.135 203.037 208.308 202.545 206.988C202.125 205.862 201.509 205.38 201.716 204.414C201.764 204.19 200.364 203.893 201.215 203.449C202.067 203.005 201.644 202.934 201.716 202.704C202.247 200.991 201.682 200.421 202.169 198.409C202.413 197.4 202.807 196.365 202.995 195.738C203.666 193.497 203.387 192.812 203.756 189.603C204.209 185.663 202.169 181.636 202.169 181.636L184.132 178.148L173.858 180.531L159.613 178.148L147.178 179.278L144.395 184.078Z" fill="#3E3F42"/>
<path fill-rule="evenodd" clip-rule="evenodd" d="M143.135 179.186L141.944 184.818L145.236 189.48L151.31 192.328L154.039 187.029L156.647 179.186V184.818L156.748 189.48L158.451 192.328L165.797 193.504L170.016 192.328L181 181.414V120.539L183.08 96.9411L179.25 91.5104L170.944 95.834L173.857 87.429L172.674 79.8052H170.016L162.512 93.2172L158.451 107.386L156.748 117.141L155.98 138.965L153.008 146.517L150.366 162.175L147.177 174.709L143.135 179.186Z" fill="#997A6D"/>
<path fill-rule="evenodd" clip-rule="evenodd" d="M170.945 77.6288C170.945 77.6288 169.766 78.4518 168.746 79.2367C168.324 79.9809 168.746 81.1591 168.746 81.1591C168.746 81.1591 169.723 81.726 170.332 81.6649C171.826 81.1224 173.204 80.6677 173.204 80.6677L170.945 77.6288Z" fill="#B59E95"/>
<path fill-rule="evenodd" clip-rule="evenodd" d="M174.449 82.3719L169.923 76.8619H164.805C164.805 76.8619 162.824 76.3135 162.075 75.1996C161.46 74.2842 161.655 72.3507 161.655 72.3507L160.585 71.3941C160.585 71.3941 158.451 71.2292 158.451 70.6532C158.451 69.8798 160.585 68.6953 160.585 68.6953C160.585 68.6953 158.874 68.0814 158.094 67.6401C158.094 66.5401 158.451 65.1307 158.451 65.1307C158.451 65.1307 157.222 64.9868 156.408 64.4159C156.059 63.8128 156.408 62.7383 156.408 62.7383C156.408 62.7383 158.289 60.784 158.875 59.2615C159.442 57.7868 158.451 55.8395 158.451 55.8395V52.3503L160.231 47.6663H187.783L193.882 55.1581L192.055 60.3932L188.625 66.264C188.625 66.264 188.505 68.5941 189.225 70.6532C189.84 72.4123 191.295 73.9005 191.295 73.9005L187.783 77.8839L174.449 82.3719Z" fill="#D9A189"/>
<path fill-rule="evenodd" clip-rule="evenodd" d="M193.881 75.8836L168.265 104.053C168.265 104.053 166.635 108.795 165.187 113.744C163.887 118.183 163.654 118.989 162.769 122.83C160.788 131.428 159.27 130.85 158.451 139.725C157.417 150.941 158.957 151.476 158.451 163.011C158.106 170.877 156.189 172.958 156.748 178.527C157.299 184.01 157.905 186.121 160.672 188.353C166.736 193.5 176.433 193.5 176.433 193.5C176.433 193.5 183.26 193.568 190.045 192.56C195.65 191.727 195.49 192.392 200.504 189.738C202.886 188.478 204.838 184.73 204.838 184.73L204.228 173.849C204.228 173.849 204.12 169.762 204.838 166.247C206.123 159.958 207.551 158.843 209.09 150.545C210.984 140.339 211.703 129.239 211.703 129.239H196.694C196.694 129.239 191.908 129.902 189.41 125.834C187.489 122.706 187.342 119.593 187.512 113.744C187.659 108.703 190.045 104.053 190.045 104.053C190.045 104.053 193.115 98.7169 196.694 96.3968C200.512 93.9223 200.846 94.6054 204.838 95.4643C208.351 96.2203 208.302 97.7741 211.703 100.397C213.871 102.069 213.674 109.743 214.783 109.543C215.811 109.357 218.263 103.645 216.957 100.397C213.29 91.2736 204.838 84.8004 204.838 84.8004C204.838 84.8004 202.041 80.2957 198.862 77.7087C196.563 75.8373 193.881 75.8836 193.881 75.8836Z" fill="#C8E796"/>
<path fill-rule="evenodd" clip-rule="evenodd" d="M158.451 166.029H164.182H168.264L173.997 168.267H181.042H186.989L201.732 167.148L204.575 166.029L207.709 157.664L201.732 159.199H189.352H177.553H170.867L158.451 156.083V166.029Z" fill="#B1BDA9"/>
<path fill-rule="evenodd" clip-rule="evenodd" d="M184.698 159.168C184.698 159.168 183.649 150.468 182.444 141.926C181.761 137.085 182.444 134.028 182.444 131.342C182.444 127.761 182.684 127.371 183.081 123.079C183.349 120.176 183.081 116.662 183.081 116.662L186.099 105.844L190.491 98.131L202.169 85.954L196.431 84.8004C196.431 84.8004 192.297 91.0167 188.013 96.3968C184.543 100.755 183.15 99.9055 180.922 104.277C178.427 109.171 176.654 116.662 176.654 116.662L175.315 127.286V132.4L173.997 138.523C173.997 138.523 173.718 143.107 173.997 147.476C174.377 153.429 175.315 159.168 175.315 159.168H184.698Z" fill="#B1BDA9"/>
<path fill-rule="evenodd" clip-rule="evenodd" d="M150.808 117.937C150.808 117.937 150.236 117.247 150.095 116.406C149.977 115.702 150.29 114.847 150.29 114.847C150.29 114.847 150.646 114.229 151.111 114.046C151.666 113.829 152.329 114.046 152.329 114.046L153.003 114.847C153.003 114.847 153.06 116.388 152.518 117.151C151.665 117.937 150.808 117.937 150.808 117.937Z" fill="#D9A189"/>
<path fill-rule="evenodd" clip-rule="evenodd" d="M162.158 139.725L191.16 156.083C191.16 156.083 192.949 152.975 192.949 150.391C192.949 147.525 191.16 144.637 191.16 144.637L192.347 140.324V137.34L188.245 138.361C188.245 138.361 181.943 137.374 176.467 135.149C170.719 132.813 165.798 129.239 165.798 129.239L162.158 133.705V139.725Z" fill="#D9A189"/>
<path fill-rule="evenodd" clip-rule="evenodd" d="M134.71 114.847C134.71 114.847 134.139 115.937 133.832 116.996C134.242 117.937 134.71 119.128 134.71 119.128L133.832 121.406L130.929 130.136L136.437 134.882L141.945 133.79H144.518L143.458 129.239L141.945 123.996L144.518 121.984L147.178 119.128L146.416 114.356L141.256 112.428H137.113L134.71 114.847Z" fill="#D9A189"/>
<path fill-rule="evenodd" clip-rule="evenodd" d="M138.475 137.083C138.475 137.083 139.455 137.628 140.402 137.569C140.939 137.535 141.444 136.655 141.444 136.655L142.173 136.84C142.173 136.84 143.539 137.268 143.798 136.655C143.987 136.205 144.039 135.138 143.798 134.882C143.113 134.157 142.869 134.097 141.945 133.804C141.171 133.558 140.789 133.496 140.951 133.496C141.267 133.496 141.444 134.162 142.901 133.804C143.188 133.572 143.161 132.799 142.901 132.297C142.432 131.391 141.444 130.988 141.444 130.988L139.813 130.136C139.813 130.136 141.082 130.656 142.173 130.136C142.626 129.92 142.901 128.665 142.901 128.665L140.713 127.508L140.402 127.286H141.196V125.54L141.774 124.644L141.945 122.917L139.053 120.962L138.475 120.683L136.437 120.962V127.286V132.541L138.475 137.083Z" fill="#E5B19B"/>
<path fill-rule="evenodd" clip-rule="evenodd" d="M162.423 139.725C162.283 138.201 161.539 136.265 163.13 133.745C164.53 131.526 166.736 131.261 168.265 130.99C167.157 129.576 164.182 128.235 164.182 128.235L163.13 127.195C163.13 127.195 163.13 126.194 162.423 124.516C159.524 121.773 159.524 121.73 156.73 118.863C154.814 116.896 154.332 116.098 153.003 114.847C152.665 115.786 152.665 116.499 152.151 117.064C151.637 117.629 150.471 117.631 150.471 117.631L150.889 118.863C150.889 118.863 151.813 120.551 152.411 121.386C152.496 122.301 151.279 122.907 151.279 122.907L147.246 122.31L143.546 121.386C143.546 121.386 142.484 120.873 141.745 120.543C140.77 121.13 139.973 121.835 140.257 123.364C141.139 124.071 142.007 124.516 142.007 124.516L145.778 125.929C145.778 125.929 143.436 124.85 141.139 124.516C140.436 124.73 139.976 124.8 139.813 125.359C139.813 126.287 139.932 126.287 140.436 126.927C141.24 127.948 141.644 128.342 142.484 128.653C143.963 129.199 145.778 128.908 145.778 128.908C145.778 128.908 143.803 128.908 142.629 129.12C142.629 129.65 142.629 130.257 142.629 130.257L144.479 131.844V132.621L145.206 134.486C145.206 134.486 146.797 135.768 148.464 136.701C149.325 136.541 149.553 136.266 150.471 135.64C151.618 136.381 153.003 137.526 153.003 137.526C153.003 137.526 154.586 138.201 156.113 138.201C157.082 138.201 158.37 137.751 158.37 137.751C158.37 137.751 160.955 139.25 162.423 139.725Z" fill="#D8D8D8"/>
<path fill-rule="evenodd" clip-rule="evenodd" d="M130.929 133.218C131.977 134.573 133.651 135.733 133.651 135.733C133.651 135.733 137.362 137.083 138.259 137.083C138.788 137.083 139.071 135.733 139.071 135.733C139.071 135.733 140.85 136.755 141.332 136.755C141.796 136.686 142.165 135.424 141.791 134.975C139.998 133.942 137.958 132.71 137.958 132.71C137.958 132.71 138.476 132.544 139.071 132.181C139.574 131.513 139.856 130.798 139.512 130.266C138.12 129.151 138.012 129.422 137.654 128.562C137.958 128.261 138.705 127.952 138.705 127.952C138.705 127.952 139.336 127.952 139.814 126.908C138.255 124.582 138.175 124.78 136.909 123.243C136.646 122.715 137.081 122.431 137.362 121.746C137.606 121.151 138.14 121.151 138.476 120.683C137.958 120.126 137.362 119.128 137.362 119.128L134.376 120.683L131.407 125.073C131.407 125.073 130.929 129.902 130.929 133.218Z" fill="#D8D8D8"/>
<path fill-rule="evenodd" clip-rule="evenodd" d="M162.158 52.0029L164.758 53.9877L167.732 56.2772V59.2615L168.164 63.2963C168.164 63.2963 168.786 64.3559 168.875 63.9971C169.358 62.0661 169.308 58.7167 169.308 58.7167C169.308 58.7167 170.197 58.1676 170.923 57.4572C171.859 56.5418 172.631 55.4651 172.631 55.4651C172.631 55.4651 175.206 55.9883 176.654 57.4572C177.773 58.5928 177.765 60.6742 177.765 60.6742C177.765 60.6742 176.835 63.3845 178.168 64.5271C181.338 67.2459 186.769 68.397 186.769 68.397H187.83L192.347 58.7167L188.826 45.9852L173.997 39.0452L164.183 44.8499L162.158 52.0029Z" fill="#676666"/>
<path fill-rule="evenodd" clip-rule="evenodd" d="M160.673 55.3386H162.158H165.458L169.609 55.1483L177.452 54.5299L176.654 53.7211L165.798 53.7211H162.158H160.673V55.3386Z" fill="#3E3F42"/>
<path opacity="0.730538" fill-rule="evenodd" clip-rule="evenodd" d="M187.446 78.1264L191.296 73.9005C191.296 73.9005 189.083 71.279 188.96 69.8584C189.823 68.9398 191.406 68.9398 192.949 69.8584C193.775 70.3507 193.882 73.2576 193.882 73.2576L194.243 75.6546L194.278 75.8825L193.227 76.5774L189.143 81.0913L187.446 78.1264Z" fill="#997A6D"/>
<path fill-rule="evenodd" clip-rule="evenodd" d="M154.039 49.9132C156.253 51.0851 158.452 49.1513 164.767 52.82C180.382 51.8435 178.496 57.2664 182.831 58.5267C192.255 58.5267 194.34 59.2615 198.403 59.2615C199.296 57.8959 199.523 51.1869 199.523 51.1869C199.523 51.1869 198.388 50.81 198.403 50.672C199.586 39.4923 189.326 29.9192 179.554 30.4918C164.182 29.5146 158.816 42.1955 158.395 48.2236C155.693 48.4897 154.039 49.1513 154.039 49.1513C154.039 49.1513 153.529 49.7388 154.039 49.9132Z" fill="#D8D8D8"/>
<path fill-rule="evenodd" clip-rule="evenodd" d="M180.693 59.2615L179.25 61.5031L181.757 62.6092L184.63 64.3873H187.104L189.914 66.2641L192.948 61.5031L192.055 60.3932H187.104L181.757 58.7167L180.693 59.2615Z" fill="#D8D8D8"/>
<path fill-rule="evenodd" clip-rule="evenodd" d="M167.731 42.4293H172.757L177.921 43.8069L181.001 44.8499L180.174 45.9852L176.654 44.8499L172.757 44.2073H167.731V42.4293Z" fill="#AEA9A9"/>
<path fill-rule="evenodd" clip-rule="evenodd" d="M189.374 71.0326C189.669 70.7087 190.633 70.8575 190.633 70.8575L191.463 71.3894C191.463 71.3894 192.479 72.3794 192.346 72.8143C192.019 73.8859 190.912 74.888 190.912 74.888L188.662 77.6288L188.013 77.336L190.179 74.5967L190.912 73.5662L189.812 72.0609C189.812 72.0609 189.201 71.2229 189.374 71.0326Z" fill="#3E3F42"/>
<path fill-rule="evenodd" clip-rule="evenodd" d="M158.186 52.9427C158.035 54.2272 158.033 55.2231 158.186 56.8041C158.298 57.9658 158.716 58.428 158.716 58.428L159.836 60.9182L160.673 61.8215V57.2223V53.9944V50.9211L159.149 50.5783C159.149 50.5783 158.384 51.2564 158.186 52.9427Z" fill="#3E3F42"/>
<path fill-rule="evenodd" clip-rule="evenodd" d="M133.941 115.52C134.95 115.52 135.396 114.295 136.946 113.723C138.333 113.212 139.813 113.355 139.813 113.355C139.813 113.355 142.886 113.395 144.56 114.653C145.694 115.504 146.454 117.833 146.454 117.833L147.511 119.916L150.712 103.337L153.538 92.7558L156.748 84.0588C156.748 84.0588 153.163 87.4845 150.712 92.2773C148.926 95.7686 149.391 97.1482 147.178 100.539C145.007 103.864 144.419 102.609 141.945 104.865C140.984 105.742 139.169 107.877 139.169 107.877C139.169 107.877 138.1 108.721 136.437 110.663C135.295 111.995 134.698 113.355 134.698 113.355C134.698 113.355 133.525 115.52 133.941 115.52Z" fill="#997A6D"/>
<path fill-rule="evenodd" clip-rule="evenodd" d="M190.468 156.903C193.882 158.008 196.197 159.168 196.197 159.168H197.927L199.524 157.513H203.66L207.71 156.083C207.71 156.083 209.633 151.577 211.411 146.827C213.635 140.882 214.359 141.506 215.714 134.693C217.32 126.619 217.332 117.053 217.332 117.053C217.332 117.053 217.068 111.828 215.714 108.157C213.226 101.412 213.734 99.648 209.648 96.2214C206.153 93.2905 202.169 93.2547 202.169 93.2547C202.169 93.2547 197.542 92.8812 193.882 96.2214C192.037 97.9057 189.971 103.499 189.971 103.499L188.014 109.46C188.014 109.46 186.1 113.267 186.1 117.053C186.1 120.768 187.108 122.087 188.014 124.463C188.52 125.791 189.411 125.834 189.411 125.834L189.971 127.286C189.971 127.286 189.264 128.324 189.411 128.816C189.558 129.308 190.821 130.136 190.821 130.136C190.821 130.136 190.388 132.315 190.468 133.69C190.557 135.21 191.16 135.926 191.16 135.926L192.949 137.083C192.949 137.083 192.661 137.01 191.61 137.01C191.301 137.973 191.16 139.109 190.821 141.256C191.301 142.043 191.16 142.661 191.16 142.661C191.16 142.661 190.468 143.949 189.971 145.069C191.16 146.827 192.347 148.215 192.347 148.215C192.347 148.215 191.16 153.936 190.468 156.903Z" fill="#997A6D"/>
<path fill-rule="evenodd" clip-rule="evenodd" d="M192.948 97.1126L192.311 98.38L190.861 100.992L190.045 104.053L189.663 105.063L188.579 107.927L188.013 109.46C188.013 109.46 187.62 110.399 187.147 111.731C186.663 113.092 186.29 114.91 186.29 114.91C186.29 114.91 186.011 117.191 186.197 118.725C186.439 120.728 186.989 121.984 186.989 121.984C186.989 121.984 187.761 123.792 188.426 125.31C188.579 125.469 188.426 125.31 189.41 125.834C189.447 126.305 189.774 126.427 189.663 126.376C187.707 125.728 187.446 124.938 187.446 124.938C187.446 124.938 186.31 122.46 185.705 118.971C185.44 117.446 185.439 116.557 185.705 114.91C186.081 112.577 186.678 110.764 186.678 110.764L187.446 108.501L189.171 104.053L190.045 100.992L191.384 97.1126H192.948Z" fill="#B1BDA9"/>
<path fill-rule="evenodd" clip-rule="evenodd" d="M223.296 62.1931L221.885 58.6173L219.925 57.1639L220.682 56.3414L218.889 55.1581V52.3642L215.978 50.8004V48.5889L218.152 42.9835L216.914 36.4834L226.916 32.4011L238.023 43.8069V55.1581L224.917 63.2594L223.296 62.1931Z" fill="#D9A189"/>
<path fill-rule="evenodd" clip-rule="evenodd" d="M222.582 66.8483C220.803 66.0474 222.582 62.8632 222.582 62.8632C222.582 62.8632 224.832 58.5873 226.725 55.3892C229.608 50.5167 232.935 49.4165 232.134 44.861C230.869 39.2189 225.652 37.1463 225.652 37.1463L219.925 35.9596L250.501 25.636L255.104 41.9284C255.104 41.9284 255.104 44.861 255.104 46.5472C257.872 49.8159 263.632 51.9999 263.632 51.9999C263.632 51.9999 268.772 53.26 271.18 56.0278C274.03 59.303 275.845 67.5131 273.973 67.5131C271.18 61.5031 270.864 60.8964 264.547 58.5462C258.814 56.4129 249.872 58.5462 249.872 58.5462L236.565 64.0963C236.565 64.0963 226.157 68.4575 222.582 66.8483Z" fill="#ECCCA9"/>
<path fill-rule="evenodd" clip-rule="evenodd" d="M281.424 211.207V217.636H217.646L217.928 211.207H281.424Z" fill="#3E3F42"/>
<path fill-rule="evenodd" clip-rule="evenodd" d="M215.563 215.537C253.315 219.834 252.478 219.07 284.267 211.919C284.267 207.024 285.035 205.285 284.267 199.316C283.106 179.266 281.292 172.166 277.784 161.521C274.604 154.621 271.546 150.978 271.546 150.978C271.546 150.978 275.361 144.799 274.604 140.046C278.284 126.708 282.196 113.696 282.196 113.696C282.196 113.696 285.402 95.3917 283.106 86.0498C280.462 75.2938 271.546 62.9374 271.546 62.9374C271.546 62.9374 268.076 55.8396 262.443 55.8396C255.121 55.8396 242.168 61.5031 242.168 61.5031H235.293C235.293 61.5031 247.749 70.7313 249.863 81.8527C251.568 90.8292 246.829 104.164 246.829 104.164C246.829 104.164 241.497 109.395 235.293 108.263C229.632 107.231 221.905 98.8063 221.905 98.8063C221.905 98.8063 223.16 98.2256 217.207 96.7686C217.207 106.992 215.977 124.438 215.977 124.438C215.977 124.438 211.217 142.327 211.923 152.362C211.923 157.373 214.037 161.521 214.037 161.521C214.037 161.521 211.923 175.206 211.923 188.625C211.923 201.832 211.923 195.603 215.563 215.537Z" fill="#D1F49A"/>
<path fill-rule="evenodd" clip-rule="evenodd" d="M273.411 96.2053C273.054 96.4361 272.921 96.5191 272.513 96.6393C271.867 96.8247 271.34 96.585 270.767 96.3238C270.542 96.2213 270.309 96.1156 270.059 96.0309C268.934 95.6409 268.13 94.0323 267.632 92.9595C267.338 92.3258 266.773 89.8534 266.963 88.7962C267.153 87.7391 267.715 86.5746 268.148 86.152C268.552 85.7522 269.768 84.6317 270.34 84.6361C270.921 84.6307 271.974 84.9416 272.513 85.157C272.954 85.3388 273.619 86.1404 274.131 86.757L274.131 86.757C274.24 86.8879 274.342 87.0105 274.433 87.1171C274.781 87.5234 274.998 88.389 275.173 89.0853C275.26 89.431 275.337 89.7351 275.413 89.9203C275.643 90.4932 275.339 92.8716 275.21 93.5475C275.13 93.7586 275.137 94.0086 275.144 94.2566C275.153 94.5898 275.162 94.9193 274.958 95.1455C275.023 95.1755 275.086 95.2253 275.148 95.2754L275.148 95.2754C275.233 95.3431 275.318 95.4114 275.413 95.4323C275.587 95.4694 276.308 95.3745 276.308 95.3745L276.479 96.6954C276.479 96.6954 275.015 96.7075 274.694 96.6099C274.588 96.5776 274.461 96.5456 274.326 96.5116C274.004 96.4304 273.638 96.3382 273.411 96.2053ZM273.342 92.0942C273.506 91.9166 273.436 91.2303 273.371 90.5897C273.319 90.0841 273.27 89.6068 273.342 89.4306C273.268 89.2474 273.196 89.0435 273.123 88.8372C272.892 88.1802 272.651 87.4986 272.314 87.3825C271.917 87.2101 271.706 87.1611 271.272 87.167C271.213 87.1666 270.785 87.1668 270.589 87.1669H270.589L270.499 87.167C269.723 87.1671 269.359 87.2387 268.983 88.4004C268.571 89.6756 268.619 90.4543 268.641 90.5963C268.664 90.7566 268.851 91.7263 268.893 91.8829C268.937 91.8604 269.01 91.8209 269.099 91.7725C269.415 91.6021 269.933 91.3219 270.105 91.2889C270.157 91.2794 270.215 91.2627 270.279 91.2444C270.539 91.17 270.898 91.067 271.392 91.2889C271.641 91.3993 271.894 91.4685 272.141 91.5361L272.141 91.5361C272.575 91.655 272.992 91.7691 273.342 92.0942ZM270.58 92.7195C271.118 92.7215 271.446 92.8425 271.94 93.0526C272.454 93.2709 272.757 93.5528 273.158 93.9258C273.172 93.9383 273.185 93.9508 273.199 93.9635C272.99 94.0484 272.775 94.116 272.555 94.1654C272.36 94.208 272.162 94.2299 271.962 94.2307C271.448 94.234 270.942 94.1094 270.489 93.8683C270.028 93.6215 269.754 93.3712 269.459 92.9424C269.595 92.8988 270.433 92.7193 270.58 92.7195Z" fill="#5B5B5B"/>
<path d="M278.785 96.7139L277.434 96.6637V91.2617L276.193 91.0469L275.925 89.325L277.275 89.7647L277.089 88.0248C277.089 87.316 276.933 87.0782 277.275 86.7354C277.618 86.3926 279.49 87.2328 279.49 87.2328V88.7484C278.996 88.7564 278.785 87.9542 278.785 88.4294V89.7599L279.94 90.0068L280.139 91.6803L278.785 91.2617V96.7139Z" fill="#364450"/>
<path d="M280.925 96.7451C280.925 96.7451 280.998 94.2802 280.925 92.5018C280.925 90.629 280.925 88.636 280.925 88.636L282.02 89.1515C282.02 89.1515 282.311 90.8895 282.311 92.7741C282.311 94.8538 282.311 97.1126 282.311 97.1126L280.925 96.7451Z" fill="#364450"/>
<path d="M282.925 94.1002C282.925 93.1246 283.262 92.2348 283.948 91.5499C283.948 92.8743 284.099 94.1319 284.099 96.7139C283.427 96.0249 282.926 95.0434 282.925 94.1002Z" fill="#364450"/>
<path fill-rule="evenodd" clip-rule="evenodd" d="M215.199 127.429C215.199 127.429 221.045 122.954 232.464 124.49C245.262 127.084 249.137 130.805 257.776 131.934C264.903 132.866 272.226 131.934 272.226 131.934H276.842L279.6 121.936C279.6 121.936 276.957 123.078 274.285 122.954C261.805 122.954 266.363 121.936 260.354 121.042C265.391 107.364 264.479 93.447 264.479 93.447L262.355 80.789C262.355 80.789 261.019 75.2226 258.483 71.3168C254.474 65.1448 251.371 60.6333 245.098 60.6333C243.84 59.8769 242.167 61.5031 242.167 61.5031C242.167 61.5031 244.873 63.3684 247.133 66.4906C250.095 70.5847 251.039 70.9505 252.612 75.9356C254.69 82.5228 254.958 82.7127 255.457 89.6063C255.856 95.1192 252.612 107.364 252.612 107.364L249.266 118.972C249.266 118.972 240.744 116.526 233.234 114.619C222.662 112.159 216.448 114.619 216.448 114.619L215.199 127.429Z" fill="#A9AFBA"/>
<path fill-rule="evenodd" clip-rule="evenodd" d="M212.297 177.94C212.297 177.94 216.674 179.234 222.024 179.595C233.856 180.392 235.167 180.861 247.06 180.256C262.288 179.482 260.649 179.769 271.748 177.94C277.831 176.937 281.425 174.593 281.425 174.593L278.331 163.011C278.331 163.011 277.985 164.816 274.432 165.944C271.149 166.986 270.567 166.649 264.661 167.353C255.112 168.491 255.974 168.435 244.03 168.888C232.365 169.33 232.588 168.075 222.024 168.256C218.006 168.325 219.223 168.888 216.284 168.888C214.559 168.888 213.171 167.912 213.171 167.912L212.297 177.94Z" fill="#B1BDA9"/>
<path fill-rule="evenodd" clip-rule="evenodd" d="M244.41 60.3932C244.41 60.6804 246.307 60.3909 248.204 60.3932C250.263 60.3957 249.851 60.216 251.473 60.0176C253.813 59.7315 254.076 59.8891 256.127 59.4243C258.017 58.9963 258.42 58.6173 260.206 58.6173C262.313 58.6173 261.84 58.7163 264.003 59.4243C265.697 59.9792 267.364 60.3861 268.313 60.9579C271.363 62.7974 270.955 62.7974 272.982 65.0328C271.406 62.3503 272.062 61.596 268.554 58.6173C266.418 57.164 265.651 56.2675 262.047 55.8396C259.531 55.5408 258.416 56.4375 255.057 57.164C252.604 57.6943 250.424 58.3532 250.424 58.3532C250.424 58.3532 244.41 59.9803 244.41 60.3932Z" fill="#3E3F42"/>
<path fill-rule="evenodd" clip-rule="evenodd" d="M271.923 150.457C271.923 150.457 271.329 149.742 270.385 149.742C269.374 149.742 268.157 150.457 268.157 150.457L266.68 151.356L263.144 147.885C263.144 147.885 264.791 148.038 266.336 147.885C267.551 147.764 268.664 147.711 268.664 147.337C268.664 146.257 267.565 145.904 268.157 145.667C268.769 145.421 269.616 146.297 271.619 146.419C272.932 146.5 274.438 144.417 274.486 144.977C274.179 145.721 273.899 146.796 273.124 148.413C272.842 149.001 271.923 150.457 271.923 150.457Z" fill="#3E3F42"/>
<path fill-rule="evenodd" clip-rule="evenodd" d="M219.492 114.227C219.492 114.227 219.106 108.608 219.492 104.675C219.888 100.649 221.056 98.3103 221.056 98.3103L220.685 98.1052L218.889 97.1126C218.889 97.1126 218.284 100.638 217.929 104.675C217.506 109.479 217.332 114.795 217.332 114.795L219.492 114.227Z" fill="#A9AFBA"/>
<path fill-rule="evenodd" clip-rule="evenodd" d="M154.396 90.3586C155.151 91.3573 155.699 92.3506 157.436 93.0523C158.584 93.5161 160.302 93.0523 160.302 93.0523C160.302 93.0523 166.226 93.7028 169.225 94.464C170.016 85.9539 175.058 79.8052 175.058 79.8052C175.058 79.8052 164.408 84.204 161.655 84.7149C158.903 85.2258 156.387 85.002 156.387 85.002C156.387 85.002 154.13 87.2238 154.396 90.3586Z" fill="#D9A189"/>
<path fill-rule="evenodd" clip-rule="evenodd" d="M169.225 94.464C170.886 96.5336 175.256 97.3857 175.256 97.3857L217.207 96.7686C217.207 96.7686 219.487 97.2569 221.905 98.8063C225.102 100.855 223.772 101.554 227.043 103.594C231.54 107.202 234.264 108.813 237.369 108.451C241.729 107.894 244.706 107.22 246.829 104.164C249.298 97.7416 250.174 91.0749 250.174 91.0749C250.174 91.0749 251.233 81.4165 247.792 75.4501C242.138 65.8774 235.293 61.5031 235.293 61.5031C235.293 61.5031 229.365 62.6717 224.362 64.5868C221.019 65.8661 218.591 68.2965 218.591 68.2965C218.591 68.2965 208.361 71.9012 197.712 76.6507C194.65 77.5644 194.063 76.3584 190.593 76.6507C188.107 76.8601 183.094 77.3159 183.094 77.3159C183.094 77.3159 175.594 76.6507 174.021 79.8389C172.212 82.4118 169.649 84.1293 168.269 88.6793C167.469 91.316 167.392 92.1804 169.225 94.464Z" fill="#3E3F42"/>
<path fill-rule="evenodd" clip-rule="evenodd" d="M141.629 87.6876C141.423 88.0788 141.394 88.4165 141.519 88.954C141.657 89.5404 142.155 89.9353 142.155 89.9353C142.155 89.9353 142.785 90.4969 143.414 90.4625C144.212 90.4188 144.606 90.42 145.008 89.7792C145.313 89.2933 145.244 88.3169 145.244 88.3169C145.244 88.3169 145.878 88.2256 146.474 87.9535C146.929 87.7463 147.345 87.3583 147.345 87.3583L144.244 81.4434L142.155 83.6361L142.428 85.3462L142.679 86.8857C142.679 86.8857 141.948 87.0797 141.629 87.6876Z" fill="#C59884"/>
<path opacity="0.950986" fill-rule="evenodd" clip-rule="evenodd" d="M147.812 91.9817C148.186 92.998 149.74 93.5423 149.74 93.5423L151.726 93.1569L154.368 93.5423C154.368 93.5423 158.413 93.9906 158.452 93.2892C157.323 93.1569 155.653 92.2544 154.543 90.4009C154.543 89.2577 154.311 88.8408 154.81 87.5382C155.411 85.97 155.3 86.2519 156.243 85.2103C156.771 84.9415 157.765 85.401 157.765 85.1036C157.648 84.0834 156.243 83.6361 156.243 83.6361L155.428 83.2731C155.428 83.2731 154.152 80.2737 152.439 78.9884C150.741 78.6361 150.269 77.4508 147.812 76.6439C145.623 75.9246 145.01 75.7666 142.891 75.9588C141.436 77.251 140.55 78.2182 138.896 80.7202C138.472 81.3617 138.395 81.7102 138.548 82.3851C138.618 82.6937 138.735 82.843 139.244 82.9418C139.514 82.994 140.106 82.6872 140.106 82.6872L139.127 83.6361C139.127 83.6361 138.648 84.7211 138.896 85.2103C139.183 85.7752 139.884 86.0715 140.412 86.0143C141.168 85.9327 141.34 85.7574 141.909 85.2103C142.437 84.7034 142.639 84.3719 143.085 83.9607C143.989 83.1253 144.428 82.2459 144.428 82.2459C144.428 82.2459 144.88 84.3594 145.906 86.1921C146.573 87.3826 147.812 88.2922 147.812 88.2922C147.812 88.2922 147.222 90.373 147.812 91.9817Z" fill="#D8D8D8"/>
<path fill-rule="evenodd" clip-rule="evenodd" d="M236.564 33.4708L249.07 39.1963L255.026 42.4293L255.937 35.6356L240.04 30.4918L236.564 33.4708Z" fill="#3E3F42"/>
<path fill-rule="evenodd" clip-rule="evenodd" d="M216.838 38.5493H211.704C211.704 38.5493 208.235 38.2862 208.235 37.5496C208.235 36.3713 211.704 35.0499 211.704 35.0499C211.704 35.0499 213.687 34.4614 214.369 33.4624C215.403 21.1359 216.005 14.5221 230.621 7.36129C238.08 3.70667 247.815 4.59951 256.922 9.58597C260.835 13.6264 265.388 16.7917 266.523 24.0439C267.126 24.0439 268.077 24.2312 268.24 24.6635C269.008 28.8801 268.999 35.0499 268.999 35.0499C268.999 35.0499 265.848 40.7787 255.027 43.8069C255.421 38.5493 255.027 37.5496 255.702 36.1738C247.32 30.2586 237.562 32.5574 231.835 34.7195C225.068 34.4567 218.248 34.7195 218.248 34.7195L216.838 38.5493Z" fill="#D8D8D8"/>
<path fill-rule="evenodd" clip-rule="evenodd" d="M226.319 34.5578C216.837 33.9832 214.55 35.2916 211.696 36.3173C210.003 37.0612 209.416 38.0272 210.618 38.5493C212.651 38.5493 216.837 38.5493 216.837 38.5493C216.837 38.5493 219.263 36.4833 226.319 34.5578Z" fill="#B4B3B3"/>
<path fill-rule="evenodd" clip-rule="evenodd" d="M255.42 36.0357C255.42 36.0357 261.55 35.4544 265.463 35.7176C266.938 35.8168 265.907 37.1142 264.314 37.8818C259.19 40.3516 255.026 41.5189 255.026 41.5189L255.42 38.5493V36.0357Z" fill="#B4B3B3"/>
<path fill-rule="evenodd" clip-rule="evenodd" d="M244.66 41.5189C243.545 43.8069 243.258 44.2025 241.816 48.921C240.997 51.6046 239.935 57.1639 239.935 57.1639C239.935 57.1639 242.303 54.1118 243.894 48.921C244.653 46.4445 244.66 44.5111 244.66 41.5189Z" fill="#D9B288"/>
<path fill-rule="evenodd" clip-rule="evenodd" d="M234.524 35.3151C236.248 37.8998 237.183 38.2626 237.5 41.5189C236.68 44.2025 234.524 49.1513 234.786 48.5365C236.565 45.4838 236.433 46.9965 238.023 41.8057C238.023 39.2713 236.565 36.8307 234.524 35.3151Z" fill="#D9B288"/>
<path fill-rule="evenodd" clip-rule="evenodd" d="M239.104 38.5493C239.405 40.2728 239.458 40.4339 239.326 42.2236C239.157 44.5138 238.502 46.7091 238.502 46.7091C238.502 46.7091 237.282 49.462 236.061 50.8199C233.898 53.224 234.449 52.7161 231.839 54.588C230.579 55.4914 230.273 55.3944 228.919 56.8731C227.769 58.1292 226.018 60.4091 226.812 59.9598C229.896 56.6331 232.697 55.0987 236.565 51.4388C237.928 50.1487 239.104 47.0916 239.104 47.0916C239.104 47.0916 239.693 44.7059 239.934 42.2236C240.108 40.4347 240.334 40.0712 239.934 38.5493C239.427 36.6169 238.12 35.3151 238.12 35.3151C238.12 35.3151 238.802 36.8185 239.104 38.5493Z" fill="#D9B288"/>
<path fill-rule="evenodd" clip-rule="evenodd" d="M227.942 56.3414C228.746 55.8395 230.497 54.9266 232.203 52.4541C233.463 50.628 234.026 49.2736 234.462 47.0552C234.894 44.8576 234.894 44.2149 234.462 42.4293C234.03 40.6437 233.267 39.3773 231.379 37.38C231.336 37.3347 226.916 35.629 226.916 35.629L230.169 37.1885C230.169 37.1885 232.04 38.6652 233.385 42.4293C233.912 43.9041 234.069 45.1336 233.779 47.0552C233.411 49.4956 232.84 49.7883 232.069 51.1532C230.412 54.0869 228.576 55.8395 227.942 56.3414Z" fill="#D9B288"/>
<path fill-rule="evenodd" clip-rule="evenodd" d="M253.507 47.3722C254.861 50.1307 255.284 50.7419 257.455 52.5755C259.148 54.0049 259.555 53.7243 261.874 54.9353C262.72 55.3772 263.484 55.9478 264.607 56.3414C266.663 57.0621 269.157 59.1329 269 58.4979C268.771 57.577 266.235 56.1966 263.515 54.1819C261.317 52.5537 260.63 52.6642 258.919 51.4059C256.391 49.5462 256.299 49.6176 254.411 47.3722C253.185 45.915 252.727 42.9307 252.418 42.9842C252.418 44.4805 252.719 45.7673 253.507 47.3722Z" fill="#D9B288"/>
<path fill-rule="evenodd" clip-rule="evenodd" d="M244.66 37.8997C244.66 37.8997 248.449 40.1047 250.423 45.5055C251.331 47.9882 251.615 51.3204 250.423 53.6668C247.552 59.3192 240.902 60.3931 240.902 60.3931C240.902 60.3931 248.054 60.6383 251.479 54.6701C252.644 52.6395 252.563 47.7077 251.479 45.5055C248.684 39.8242 244.66 37.8997 244.66 37.8997Z" fill="#D9B288"/>
<path fill-rule="evenodd" clip-rule="evenodd" d="M220.793 57.8337C220.793 57.8337 221.993 56.7738 223.163 55.5385C223.309 55.3524 223.175 55.186 222.861 55.1581C220.953 55.1581 218.889 55.1581 218.889 55.1581C218.889 55.1581 220.128 56.0296 220.681 56.3414C220.44 56.4959 219.924 57.1639 219.924 57.1639L220.793 57.8337Z" fill="#B67F66"/>
<path fill-rule="evenodd" clip-rule="evenodd" d="M222.348 98.8402C222.348 98.8402 221.373 98.3349 220.438 97.9692C222.517 100.122 228.353 107.888 235.293 109.343C241.711 110.688 247.304 104.838 248.204 103.637C251.284 94.9856 252.727 88.1035 250.118 77.3079C243.975 67.9853 237.053 61.5031 237.053 61.5031H235.293C235.293 61.5031 246.011 72.0346 249.136 78.1379C250.866 87.725 249.74 95.8395 247.493 102.175C241.971 108.85 238.376 108.501 235.293 108.263C229.31 106.849 222.348 98.8402 222.348 98.8402Z" fill="#A9AFBA"/>
<path opacity="0.772135" fill-rule="evenodd" clip-rule="evenodd" d="M214.67 32.4011C235.956 24.4675 248.156 22.214 266.175 23.7188C263.829 15.7232 261.428 12.7154 253.943 7.14668C242.558 3.51724 232.28 -1.01902 215.977 19.2919C214.67 23.9265 214.67 24.4675 214.67 32.4011Z" fill="#E1DDDD"/>
<path fill-rule="evenodd" clip-rule="evenodd" d="M227 15.7796C227 15.7796 228.921 12.8884 234.786 11.2936C237.751 10.4871 240.267 10.7316 244.233 11.2936C248.741 11.9323 251.815 13.6575 251.815 13.6575L255.027 16.2615L255.385 15.2574L252.323 12.8422C252.323 12.8422 249.259 10.5602 244.233 9.9453C240.312 9.46555 237.6 9.06054 234.524 9.9453C228.802 12.1345 227 14.5358 227 14.5358V15.7796Z" fill="#AEA9A9"/>
<path fill-rule="evenodd" clip-rule="evenodd" d="M250.423 37.8997C250.172 38.5772 250.423 40.6014 250.423 40.6014C250.423 40.6014 252.418 41.952 255.384 42.9835C255.937 42.9835 257.047 41.952 257.047 41.952C257.047 41.952 257.399 39.6307 257.047 38.5493C255.682 37.8997 255.464 38.0606 253.823 37.8997C252.152 37.7359 251.01 37.4405 250.423 37.8997Z" fill="#EEEEEE"/>
<path fill-rule="evenodd" clip-rule="evenodd" d="M41.1729 100.054C41.1729 100.054 42.3357 99.4647 43.6735 99.1954C44.4685 99.0354 45.4385 99.1954 45.4385 99.1954C45.4385 99.1954 45.4771 98.7522 44.9138 97.678C45.9312 94.5356 48.4685 91.3716 48.4685 91.3716C48.4685 91.3716 53.5456 92.6232 56.9333 93.57C62.5586 95.1422 62.9557 94.9302 67.9131 96.9883C72.8113 99.0217 76.6446 101.753 76.6446 101.753L80.683 106.23L83.4195 109.549V111.682C83.4195 111.682 84.3759 113.342 83.4195 114.003C82.6976 114.503 80.063 114.003 80.063 114.003L76.1827 109.921L73.7302 108.608C73.7302 108.608 67.0593 107.561 64.6979 106.992C58.101 105.034 52.7767 101.753 52.7767 101.753L47.6752 100.054L43.1896 100.482L41.1729 100.054Z" fill="#AEBCD6"/>
<path fill-rule="evenodd" clip-rule="evenodd" d="M13.3143 217.636C13.3143 217.636 12.5105 215.618 12.6316 213.553C13.2179 203.552 14.7291 193.504 14.7291 193.504C14.7291 193.504 14.1336 188.52 13.3143 183.599C12.6598 179.668 11.7815 179.211 11.7815 175.799C11.7815 170.033 12.2508 169.336 11.7815 163.011C11.448 158.516 10.1955 158.628 9.52973 154.011C8.72755 148.447 8.84569 142.65 8.84569 142.65C8.84569 142.65 6.52832 138.875 6.52832 134.882C6.52832 128.537 7.43105 128.036 8.84569 121.383C9.65801 117.563 8.91975 117.051 10.9822 113.938C14.6616 108.383 19.09 106.992 19.09 106.992L27.9117 104.647C27.9117 104.647 32.4579 103.863 36.6877 102.004C39.2355 100.883 38.3968 101.526 40.8676 100.282C41.6909 99.868 43.2087 100.111 43.962 100.282C46.7118 100.909 46.2577 100.66 49.6634 101.099C52.7222 101.492 52.8755 101.762 55.8342 103.259C59.5076 105.117 64.6976 106.992 64.6976 106.992C64.6976 106.992 71.5967 108.081 75.0378 108.825C77.0994 110.536 83.2288 117.937 83.2288 117.937L89.9499 124.118L94.6967 124.438L93.1393 129.238C93.1393 129.238 90.2939 134.119 87.541 139.085C85.7155 142.378 85.4204 142.478 83.9825 145.756C81.8322 150.657 80.3648 156.083 80.3648 156.083V163.011L78.98 172.186V178.148L80.3648 185.114L87.541 193.882L97.425 193.504L99.0247 217.636H13.3143Z" fill="#EBAF67"/>
<path fill-rule="evenodd" clip-rule="evenodd" d="M30.165 129.02C29.7588 129.144 29.6081 129.187 29.1827 129.19C28.2468 129.19 27.3254 128.961 26.5565 128.428C25.5825 127.743 24.7097 126.417 24.5267 125.248C24.4196 124.558 24.5577 122.026 25.0316 121.062C25.5054 120.098 26.3665 119.134 26.8991 118.847C27.3981 118.574 28.7633 118.459 29.312 118.621C29.8727 118.777 31.152 119.288 31.6113 119.644C32.0641 120.003 32.8461 120.925 33.1791 121.653C33.5121 122.382 33.6913 123.427 33.7595 124.028C33.8225 124.642 33.489 126.581 33.1791 127.195C32.8608 127.618 32.3953 128.147 31.9445 128.428C31.9991 128.475 32.0452 128.54 32.0916 128.605L32.0916 128.605C32.1543 128.694 32.2176 128.783 32.3032 128.829C32.4598 128.913 33.1791 129.02 33.1791 129.02L32.9794 130.337C32.9794 130.337 31.569 129.945 31.287 129.763C31.1941 129.703 31.0808 129.637 30.9606 129.567L30.9605 129.567C30.6736 129.4 30.3472 129.211 30.165 129.02ZM30.7177 127.332C30.9641 127.182 31.0899 126.977 31.2253 126.756C31.2929 126.646 31.363 126.532 31.4517 126.418C31.7069 126.071 32.412 124.444 32.0415 123.734C31.9445 123.085 31.5548 122.078 31.1708 121.809C31.1108 121.759 31.036 121.695 30.9512 121.622L30.9512 121.622C30.5634 121.289 29.9666 120.777 29.6232 120.684L29.5693 120.668C28.7949 120.44 27.8133 120.152 27.0825 121.238C26.3347 122.35 26.1669 123.112 26.148 123.255C26.1267 123.415 26.0384 124.399 26.0356 124.561C26.0843 124.551 26.1654 124.534 26.2647 124.512L26.2648 124.512C26.6148 124.435 27.1903 124.308 27.3647 124.324C27.6325 124.351 28.8818 124.812 29.3979 125.248C29.8046 125.588 30.1017 126.166 30.3774 126.703L30.3774 126.703C30.4925 126.926 30.6038 127.143 30.7177 127.332ZM27.4273 125.83C27.9436 125.98 28.226 126.187 28.643 126.525C29.0769 126.877 29.2905 127.231 29.5732 127.701C29.5826 127.716 29.5921 127.732 29.6017 127.748C29.3778 127.772 29.1522 127.778 28.9272 127.765C28.7283 127.752 28.5312 127.718 28.3393 127.664C27.8443 127.525 27.3916 127.266 27.0228 126.909C26.6481 126.545 26.4532 126.229 26.2881 125.735C26.4307 125.731 27.2856 125.789 27.4273 125.83Z" fill="#424242"/>
<path d="M36.0075 130.517L34.7227 130.096L35.0059 124.767L33.8503 124.439L33.8503 122.706L35.1493 123.008L35.1493 121.712C35.3447 121.031 35.2298 120.765 35.6539 120.53C36.078 120.295 37.8205 120.53 37.8205 120.53L37.8205 122.197C37.3432 122.068 36.7329 121.91 36.6019 122.367L36.6019 123.419L37.6742 123.637L37.5315 125.248L36.2327 125.022L36.0075 130.517Z" fill="#364450"/>
<path d="M37.8355 131.122C37.8355 131.122 38.1335 128.978 38.2926 126.95C38.4203 125.321 38.4091 123.835 38.4091 123.835L39.9269 124.056C39.9269 124.056 39.8919 125.613 39.7194 127.269C39.4904 129.47 39.3208 131.77 39.3208 131.77L37.8355 131.122Z" fill="#364450"/>
<path fill-rule="evenodd" clip-rule="evenodd" d="M41.5362 126.472C40.6874 126.942 40.3082 127.64 40.0393 128.578C39.7808 129.485 39.7977 130.694 40.2542 131.542C40.7108 132.389 41.978 133.204 42.9347 133.478C43.8745 133.747 44.7657 133.602 45.6053 133.118C46.2463 132.748 46.4275 131.894 46.598 131.089C46.6509 130.84 46.7027 130.595 46.7669 130.371C47.0215 129.48 46.7584 128.672 46.2871 127.828C45.8158 126.985 45.1018 126.426 44.1452 126.152C43.2548 125.896 42.3851 126.003 41.5362 126.472ZM42.7765 131.948C42.0895 131.751 40.9022 130.895 41.1198 129.136C41.3373 127.377 42.8619 127.198 43.487 127.377C43.8705 127.487 44.3951 127.674 44.7492 127.965C45.0439 128.208 45.6596 129.216 45.4427 129.972C45.23 130.714 45.034 131.345 44.4312 131.705C43.8584 132.062 43.4184 132.145 42.7765 131.948Z" fill="#364450"/>
<path d="M52.0496 132.597L52.5779 129.264L53.7747 129.264L52.4018 136.271L51.8474 136.112L50.7096 131.128L49.7653 135.358L47.9855 134.965C47.9855 134.965 47.7157 132.864 47.4579 130.52C47.3033 129.114 46.8896 126.874 46.8896 126.874L49.0856 127.703C49.0856 127.703 49.3874 128.558 49.4305 129.689C49.4786 130.949 49.4305 131.128 49.4305 131.128L50.0412 128.005L51.3908 128.476L52.0496 132.597Z" fill="#364450"/>
<path fill-rule="evenodd" clip-rule="evenodd" d="M20.7631 128.106C21.1413 127.842 22.4559 127.799 23.8638 128.378C26.6755 129.532 25.5606 129.522 28.6335 131.066C29.971 131.737 30.5122 132.259 31.9445 132.505C33.2284 132.725 34.7202 133.115 36.2304 133.641C38.8724 134.379 38.9607 135.362 42.5192 136.271C47.9498 137.844 53.6024 138.593 53.6024 138.593L53.6024 142.857C53.6024 142.857 46.3522 141.42 41.4111 139.786C37.1109 138.365 38.4216 138.503 35.3739 136.919C34.3368 136.381 33.2959 136.413 31.9445 135.959C29.8036 135.238 29.4569 135.023 27.9388 134.278C24.8874 132.779 26.1595 132.588 23.8638 131.781C22.3087 131.235 20.7631 131.066 20.7631 131.066C20.7631 131.066 20.7631 129.763 20.7631 128.106Z" fill="#3E3F42"/>
<path fill-rule="evenodd" clip-rule="evenodd" d="M80.0532 114.847C80.0532 114.847 79.7953 118.283 78.3454 120.641C76.8461 123.079 74.5933 124.688 71.34 129.238C69.5027 131.809 68.164 134.882 68.164 134.882C68.164 134.882 67.0642 138.342 65.9837 141.81C64.7488 145.774 63.5332 149.746 63.5332 149.746L62.3952 155.268L61.1019 159.168L60.4965 164.266L59.5203 169.337L58.6739 176.269V188.505V197.892H52.7761L47.8549 193.882L41.7769 190.893C41.7769 190.893 35.1803 189.825 28.1131 188.505C24.8374 187.893 19.6339 186.307 19.6339 186.307C19.6339 186.307 18.0483 183.613 15.6894 182.265C14.4264 181.543 12.9609 181.414 12.9609 181.414V188.505V193.882L18.8693 196.316C18.8693 196.316 21.1458 198.356 23.7059 199.073C27.2676 200.07 27.5151 198.828 31.113 199.743C34.1401 200.514 36.9559 202.446 36.9559 202.446L46.5071 204.702L52.7761 207.893C52.7761 207.893 56.9566 210.164 61.1019 210.164C64.6505 210.164 68.164 207.893 68.164 207.893C68.164 207.893 71.4159 205.802 74.6775 205.802C78.0868 205.802 81.5058 207.893 81.5058 207.893L87.2781 210.164L91.1386 204.702L89.4007 197.892L81.5058 200.355H78.3454L71.34 197.892L68.164 196.316L69.3632 180.189V172.479C69.3632 172.479 70.6101 163.333 72.8147 154.568C74.2504 148.86 76.644 143.533 76.644 143.533L80.0532 134.882C80.0532 134.882 82.7052 132.335 84.7837 129.238C86.3176 126.953 89.4007 123.361 89.4007 123.361L80.0532 114.847Z" fill="#A9AFBA"/>
<path fill-rule="evenodd" clip-rule="evenodd" d="M6.52828 134.882L4.93606 138.776C4.93606 138.776 4.25872 141.537 3.52817 145.103C3.52817 148.26 2.75024 149.508 2.75024 153.137C3.52817 155.341 3.52817 157.247 3.52817 157.247C3.52817 157.247 1.64091 165.233 2.08438 168.399C3.52817 170.219 5.49828 171.952 5.49828 171.952L8.77206 172.768L11.7815 175.799V161.449L10.5609 148.853L8.77206 136.655L6.52828 134.882Z" fill="#AEBCD6"/>
<path fill-rule="evenodd" clip-rule="evenodd" d="M93.8838 125.845L88.6006 132.541L83.5943 140.825L81.4997 145.092L80.3649 148.491L78.3828 156.798C78.3828 156.798 77.224 163.847 77.1124 166.472C76.9675 169.877 76.4201 175.289 76.7469 178.148C77.0944 181.188 79.3958 184.133 79.3958 184.133L81.4997 186.307L79.0427 176.778L79.3958 169.356L80.3649 162.125C80.3649 162.125 80.8407 155.38 82.4026 149.443C83.4651 145.405 85.6136 142.226 85.6136 142.226L89.4112 135.932L91.4775 132.541L92.9148 130.025L94.6177 126.815L93.8838 125.845Z" fill="#3E3F42"/>
<path fill-rule="evenodd" clip-rule="evenodd" d="M41.1725 100.054C41.1725 100.054 42.0353 100.412 43.1892 100.482C45.5277 100.626 46.0831 100.177 48.1572 100.482C50.8767 100.883 52.7763 101.894 52.7763 101.894C52.7763 101.894 56.418 103.697 60.562 105.378C63.1137 106.414 63.3137 106.669 67.0589 107.561C70.5082 107.561 75.0376 108.825 75.0376 108.825L77.1618 110.665C77.1618 110.665 76.5723 110.739 76.1936 110.665C74.9897 110.43 75.7794 110.487 73.9966 110.046C71.2439 109.366 69.7693 109.798 67.0589 109.152C62.9974 108.184 60.1085 106.7 60.1085 106.7L52.05 103.175C52.05 103.175 50.4833 102.342 48.1572 101.894C46.0528 101.489 43.1892 101.469 43.1892 101.469L40.209 100.482L41.1725 100.054Z" fill="#3E3F42"/>
<path fill-rule="evenodd" clip-rule="evenodd" d="M17.5846 107.533L19.09 106.992C19.09 106.992 17.4675 107.905 15.918 109.385C13.5366 111.658 12.2595 112.823 11.2282 114.497C10.292 116.017 9.96378 118.182 9.96378 118.182C9.96378 118.182 9.22191 120.866 8.61422 123.753C7.91864 127.058 7.64058 126.379 7.35725 129.502C7.0121 133.307 7.35725 133.584 7.35725 137.665C7.35725 139.09 7.35725 140.515 7.35725 140.515L6.52832 137.002V131.456C6.52832 131.456 7.07476 126.594 7.68574 122.982C8.26846 119.536 9.4492 115.202 10.2232 114.054C11.9292 111.522 12.0971 111.546 13.8757 109.979C15.6842 108.385 17.5846 107.533 17.5846 107.533Z" fill="#3E3F42"/>
<path fill-rule="evenodd" clip-rule="evenodd" d="M11.5706 161.449L13.4665 146.85C13.4665 146.85 13.0273 144.721 12.8087 142.432C12.464 138.822 12.2859 137.591 12.8087 133.888C13.2444 130.802 13.9331 130.976 14.7258 127.561C15.3043 125.068 15.5511 122.072 15.5511 122.072L17.9264 117.203C17.9264 117.203 19.33 112.779 21.1848 110.702C25.0657 106.358 29.3978 104.36 29.3978 104.36L22.4932 105.826C22.4932 105.826 20.413 106.604 18.4596 108.33C16.9419 109.672 16.4665 110.377 14.7258 113.37C13.641 115.236 12.7143 116.892 11.0906 121.33C10.0763 124.102 9.81778 124.111 8.93778 127.561C8.21586 130.39 7.88672 133.888 7.88672 133.888V140.515C7.88672 140.515 9.30183 142.735 8.93778 145.22C8.57374 147.705 9.76792 155.855 9.76792 155.855L11.5706 161.449Z" fill="#A9AFBA"/>
<path fill-rule="evenodd" clip-rule="evenodd" d="M16.127 171.952C16.127 171.952 18.6089 173.663 21.8729 174.641C24.193 175.336 30.2627 176.125 32.8027 176.308C32.9649 177.133 32.8027 177.975 32.8027 177.975C32.8027 177.975 36.1592 178.311 37.5756 178.872C41.1364 180.285 40.1375 180.573 43.7562 181.957C46.5248 183.017 51.1766 185.066 51.1766 185.066V189.591L42.3431 185.577C42.3431 185.577 39.8583 183.954 35.9618 182.775C33.4828 182.025 31.3118 182.838 30.7445 182.449C30.9432 181.403 30.9432 180.772 30.9432 180.772C30.9432 180.772 25.5973 181.007 21.8729 179.885C18.1891 178.775 17.686 178.775 15.4902 176.691C15.4902 173.79 16.127 171.952 16.127 171.952Z" fill="#364450"/>
<path fill-rule="evenodd" clip-rule="evenodd" d="M91.9383 131.781L99.0242 136.655C99.0242 136.655 101.681 137.537 102.925 140.592C103.631 142.329 102.925 146.237 102.925 146.237C102.925 146.237 103.974 147.857 106.29 150.113C106.29 152.852 106.29 158.845 106.29 158.845L109.461 165.9V171.771L114.351 181.636C114.351 181.636 113.823 186.406 114.351 189.591C114.627 191.257 114.627 191.257 115.957 193.882C116.359 196.392 115.957 200.625 115.957 200.625C115.957 200.625 114.959 201.543 114.351 203.241C113.689 205.089 113.417 207.718 113.417 207.718L109.461 213.318L105.052 217.636L95.9292 216.294L91.1386 211.885V207.718C91.1386 207.718 88.0915 206.092 86.3454 204.61C85.8027 203.167 86.3454 199.614 86.3454 199.614C86.3454 199.614 83.347 195.477 81.4197 193.504C81.4197 189.592 81.972 188.681 81.4197 185.061C80.6215 179.829 79.7946 180.772 78.7188 175.799C79.5654 168.266 79.5654 165.089 80.3643 156.083C81.3756 150.31 84.565 143.78 84.565 143.78L89.665 134.693L91.9383 131.781Z" fill="#AEBCD6"/>
<path fill-rule="evenodd" clip-rule="evenodd" d="M91.9385 131.782L95.6987 134.453C95.6987 134.453 97.4386 135.998 99.8327 137.083C101.234 138.19 102.511 139.711 102.511 139.711L102.925 142.88V147.022L105.355 149.218C105.355 149.218 105.586 147.199 105.355 145.447C105.173 144.07 104.529 141.188 104.529 141.188C104.529 141.188 104.913 138.608 104.529 137.083C102.925 134.882 101.043 132.587 101.043 132.587L97.4386 130.779L94.6173 127.286L93.139 129.238L91.9385 131.782Z" fill="#D6A366"/>
<path fill-rule="evenodd" clip-rule="evenodd" d="M76.6442 104.36C78.0123 100.826 78.719 97.8568 78.719 97.8568C78.719 97.8568 79.0051 93.8988 80.8464 91.3716C81.9851 89.8087 85.0499 89.1488 85.0499 89.1488C85.0499 89.1488 87.0181 84.8654 87.9502 82.3719C88.8823 79.8784 91.1389 75.8824 91.1389 75.8824C91.1389 75.8824 72.5516 66.5361 58.6853 64.0232C54.8911 63.3356 52.7763 70.3445 52.7763 70.3445L52.05 79.8601C52.05 79.8601 52.7527 83.1061 52.05 85.9539C51.6067 87.7504 50.2078 90.4644 50.2078 90.4644L47.8301 94.6214C47.8301 94.6214 62.5348 100.054 76.6442 104.36Z" fill="#997A6D"/>
<path fill-rule="evenodd" clip-rule="evenodd" d="M94.2959 127.286C94.2959 127.286 96.0938 129.282 97.8495 132.622C98.4636 133.551 99.939 136.056 99.939 136.056L101.124 137.427C101.124 137.427 102.095 138.699 102.674 140.029C102.889 140.523 102.925 141.446 102.925 141.446L103.328 144.242L103.593 147.214L104.589 148.319L104.199 143.921C104.199 143.921 104.199 141.216 103.593 139.711C102.271 137.503 102.271 137.265 100.981 135.46C100.883 135.323 99.3318 133.542 98.7051 132.622C96.7717 129.063 94.6179 126.536 94.6179 126.536L94.2959 127.286Z" fill="#3E3F42"/>
<path fill-rule="evenodd" clip-rule="evenodd" d="M26.7734 163.031L27.7132 156.076C27.7132 156.076 28.4247 155.871 29.0759 156.076C29.6307 156.251 29.6557 156.714 30.125 156.836C31.1146 157.093 31.4134 156.614 32.3161 156.836C33.0179 157.008 32.6326 158.186 33.3341 158.34C34.2664 158.545 34.8707 157.224 35.5836 157.553C36.3138 157.891 36.2202 160.179 36.2202 160.179L35.5836 166.357H33.3341L34.3171 160.806C34.3171 160.806 33.5411 159.783 33.3341 160.179C32.5406 161.696 32.8802 165.308 32.8802 165.308L30.7791 164.715L31.2001 158.845H29.3984L29.0759 163.574L26.7734 163.031Z" fill="#364450"/>
<path fill-rule="evenodd" clip-rule="evenodd" d="M46.0595 166.357C46.0595 166.357 46.004 163.989 45.1508 163.038C44.2761 162.063 43.7332 162.213 42.4123 162.316C41.683 162.372 41.0505 163.356 41.0505 163.356C41.0505 163.356 40.4938 165.068 40.4938 166.751C40.4938 168.015 40.3546 168.687 41.0505 169.365C42.134 170.419 42.575 170.312 44.0524 170.412C44.713 170.456 45.3265 169.652 45.3265 169.652L46.0595 168.322L44.7544 167.298C44.7544 167.298 44.5101 168.318 44.0524 168.486C43.4348 168.714 42.7875 168.743 42.6037 168.089C42.2486 166.826 42.229 166.076 42.6037 164.773C42.8172 164.031 43.3772 163.696 43.7801 164C44.1905 164.31 44.4452 165.145 44.4452 165.833C45.3265 165.833 46.0595 166.357 46.0595 166.357Z" fill="#364450"/>
<path fill-rule="evenodd" clip-rule="evenodd" d="M36.5331 160.36C36.5331 160.36 37.2984 159.481 38.0166 159.702C39.0653 160.025 39.548 160.002 40.0669 161.449C40.5464 162.786 40.0669 165.59 40.0669 165.59L39.6244 169.252L38.0701 168.727V167.648C38.0701 167.648 36.4595 168.265 35.909 167.192C35.5399 166.472 35.7732 164.996 36.231 164.063C36.8536 162.795 38.3919 163.506 38.3919 163.506C38.3919 163.506 38.5772 162.599 38.3919 162.241C38.0456 161.571 37.8504 161.385 37.3285 161.449C36.77 161.517 36.231 162.505 36.231 162.505L36.5331 160.36Z" fill="#364450"/>
<path fill-rule="evenodd" clip-rule="evenodd" d="M47.9308 75.8824C50.015 81.0762 55.8687 84.8003 55.8687 84.8003C55.8687 84.8003 60.0779 87.8421 64.6988 88.842C69.4169 89.863 74.5468 88.842 74.5468 88.842C74.5468 88.842 79.8122 89.8901 82.5977 87.3582C88.1086 82.3493 91.1395 73.7606 91.1395 73.7606L94.296 68.3969V61.8214C94.296 61.8214 93.4096 59.4713 91.9392 58.1734C91.3432 57.6473 90.1632 58.1734 90.1632 58.1734V53.7211L88.2854 50.5783C88.2854 50.5783 86.0328 49.213 83.8979 47.6663C79.1635 44.2365 81.3109 42.8979 74.5468 40.6253C70.8446 39.3815 68.5519 39.6123 64.6988 41.6827C63.3943 43.6023 63.2713 43.7781 61.4308 44.8499C60.2649 45.5288 59.9134 44.2977 58.686 44.8499C55.6161 46.2309 54.95 45.7861 52.0507 48.8458C49.5724 51.4611 47.9308 56.1999 47.9308 56.1999C47.9308 56.1999 48.124 58.9566 47.9308 61.8214C47.4605 68.7979 46.046 71.1856 47.9308 75.8824Z" fill="#3E3F42"/>
<path fill-rule="evenodd" clip-rule="evenodd" d="M77.1621 96.3002L79.9531 98.6336C79.9531 98.6336 82.3018 94.7953 83.0997 94.7953C83.8976 94.7953 84.9066 91.3716 84.9066 91.3716L85.6311 87.4031V85.9539L83.0997 87.4031L81.3966 90.4644L77.1621 96.3002Z" fill="#3E3F42"/>
</svg>
