<svg width="154" height="231" viewBox="0 0 154 231" fill="none" xmlns="http://www.w3.org/2000/svg">
<path fill-rule="evenodd" clip-rule="evenodd" d="M17.8459 142.743L1.71046 134.267L0.273438 132.96L1.71046 130.58L10.6819 125.739L54.7348 148.339V150.181L44.0651 158.369L17.8459 142.743Z" fill="#4A4B4A"/>
<path fill-rule="evenodd" clip-rule="evenodd" d="M1.7105 134.267C1.7105 134.267 1.01365 133.933 0.793668 133.649C0.57368 133.365 0.658248 132.91 0.658248 132.91L0.793668 131.675L45.3779 155.682L44.6945 157.334L1.7105 134.267Z" fill="#606060"/>
<path fill-rule="evenodd" clip-rule="evenodd" d="M2.01319 134.34L0.90989 133.529L0 134.748L2.79085 136.844L0.90989 140.914L1.0363 142.689L27.5203 156.583L33.78 151.378L6.01243 136.509L3.09544 134.993L2.01319 134.34Z" fill="#2C2B2B"/>
<path fill-rule="evenodd" clip-rule="evenodd" d="M2.37109 133.529V134.162L31.8284 149.87V149.344L3.25805 133.529H2.37109Z" fill="#808180"/>
<path fill-rule="evenodd" clip-rule="evenodd" d="M6.19531 132.877L13.3674 127.9L50.6572 147.668L44.065 153.434L6.19531 132.877Z" fill="#DBE9FF"/>
<path fill-rule="evenodd" clip-rule="evenodd" d="M48.9735 150.92L48.7772 151.378L49.2534 151.948L49.8842 152.277L50.6575 151.948L50.9238 151.599L50.6575 151.187L50.0964 150.92H48.9735Z" fill="#6E6F6E"/>
<path fill-rule="evenodd" clip-rule="evenodd" d="M11.4043 129.29L16.2215 137.806L18.3687 139.128L21.795 140.667L15.091 129.29L13.3674 127.9L11.4043 129.29Z" fill="#F2F7FF"/>
<path fill-rule="evenodd" clip-rule="evenodd" d="M47.1483 147.041L34.7676 140.416L33.7803 140.914L45.9787 147.884L47.1483 147.041Z" fill="#98DCD1"/>
<path fill-rule="evenodd" clip-rule="evenodd" d="M45.3679 148.625L38.4942 144.881L37.5068 145.379L38.7119 146.068L44.1983 149.468L45.3679 148.625Z" fill="#98DCD1"/>
<path fill-rule="evenodd" clip-rule="evenodd" d="M43.8611 149.744L36.9873 146L36 146.498L37.2051 147.187L42.6915 150.587L43.8611 149.744Z" fill="#98DCD1"/>
<path fill-rule="evenodd" clip-rule="evenodd" d="M17.2578 132.869L18.6633 132.594L20.7792 132.777L22.3128 133.529L23.4156 134.283L24.1498 135.122L24.649 136.548L24.1498 137.806L22.3128 138.715H20.7792L20.155 137.806L21.941 137.281L22.3128 136.261V135.122L21.1837 134.283H19.64H18.0409L17.2578 132.869Z" fill="#98DCD1"/>
<path fill-rule="evenodd" clip-rule="evenodd" d="M19.7227 136.98L20.0091 136.319L20.4364 135.655L20.9534 135.398H21.6026H22.4046L23.409 135.655H24.1344H24.649L25.2362 135.398H25.6774L26.1101 135.956L25.2362 136.584H24.3211H23.0063L21.941 136.319H21.3601L20.9534 136.584L20.548 136.98L20.1549 137.806L19.7227 136.98Z" fill="#98DCD1"/>
<path fill-rule="evenodd" clip-rule="evenodd" d="M61.6975 144.854L60.3744 144.058H58.8142L57.9089 145.292L58.0413 146.341L61.6975 151.546L57.8375 152.953L54.7346 150.815L53.5862 148.861L52.167 144.854L54.1934 140.615L60.6002 137.806L64.109 138.63L64.5765 142.7L63.4226 145.292L61.6975 144.854Z" fill="#B5856B"/>
<path fill-rule="evenodd" clip-rule="evenodd" d="M57.3649 143.816L58.8149 143.651H59.1874L59.2777 143.723L59.8513 143.651H60.601L60.8993 144.471L61.6373 144.762L62.3234 144.471V142.205L61.6982 139.937H59.6957L57.9096 140.416L56.1236 141.395L54.7354 142.618L55.6289 143.651L57.3649 143.816Z" fill="#BF937B"/>
<path fill-rule="evenodd" clip-rule="evenodd" d="M57.4722 144.762L58.3719 142.986V142.205L57.922 140.615L57.4722 140.914L57.9091 142.349V143.156L57.0283 144.558L57.4722 144.762Z" fill="#A57649"/>
<path fill-rule="evenodd" clip-rule="evenodd" d="M60.8985 144.401L61.1916 142.853V141.966V140.416L60.6002 140.127L60.7288 142.111V143.023L60.4547 144.197L60.8985 144.401Z" fill="#A57649"/>
<path fill-rule="evenodd" clip-rule="evenodd" d="M58.0416 146.341L56.6478 147.091L55.7709 148.238L55.15 149.87V151.228L56.5958 152.277H58.0416L60.0078 151.228L61.6978 149.87L63.0459 148.887L64.8786 148.238H66.4952H68.8063H70.7403L74.3631 136.414L71.556 135.823L68.8063 135.065L66.4952 134.413L64.8786 133.543L62.323 132.96H59.2016L58.0416 134.413L56.5209 135.823L55.15 136.414L53.8409 137.043L51.5645 138.082L50.7077 140.237L50.3253 141.529L49.1916 143.338L48.3103 145.22L47.4346 147.763L48.3103 149.344L50.3253 148.887L51.5645 147.091L51.9815 145.22L52.9704 144.058L54.3863 143.338L55.15 142.205L56.5958 141.529L57.7611 140.754L60.0078 140.237L60.8988 139.131L62.323 140.237V141.529V142.618V144.502L60.8729 145.22H59.2016L58.0416 146.341Z" fill="#C3967C"/>
<path opacity="0.260905" fill-rule="evenodd" clip-rule="evenodd" d="M47.4346 148.238L48.244 149.344H49.697L50.9123 148.238L51.8048 146.734L52.4102 145.363L52.9127 144.622L53.9812 143.527L54.9356 142.537L56.5148 141.826L57.7611 140.754H58.9811L60.8729 140.003L61.6978 140.754V141.826L62.323 143.527H62.7397L63.9571 142.537L65.9129 140.29V138.829L64.2041 137.255L63.0436 136.143H61.941H59.225L58.1892 136.928L57.4003 137.669L55.8307 138.591L54.4217 139.131L52.9127 140.003L50.9123 143.054L49.697 144.622L49.1861 145.852H48.244L47.4346 148.238Z" fill="#FED6C1"/>
<path fill-rule="evenodd" clip-rule="evenodd" d="M56.4957 147.418L55.7708 148.238L55.3008 149.344L55.3008 150.815L55.7708 151.913L56.6477 152.277H57.3678L57.1154 150.815L56.6477 149.684V148.91L58.0998 147.985L58.432 147.091L59.7962 146.401L62.4959 145.045V144.401L60.8987 145.253H59.3088L57.7246 146.581L56.4957 147.418Z" fill="#C8A07F"/>
<path fill-rule="evenodd" clip-rule="evenodd" d="M56.5768 148.99C56.5768 148.99 56.5293 149.727 56.5768 149.87C56.6243 150.013 56.8554 150.181 56.8554 150.181L57.0861 151.086L57.2591 152.058L58.4021 151.545L59.2652 150.815V149.575L58.8384 148.861L58.1062 148.303L56.5768 148.99Z" fill="#F1CD9C"/>
<path fill-rule="evenodd" clip-rule="evenodd" d="M48.2441 145.852H49.1862L48.7152 147.031L48.2441 147.706L47.7513 148.303L47.4347 148.238L48.2441 145.852Z" fill="#FFDDCB"/>
<path fill-rule="evenodd" clip-rule="evenodd" d="M54.4964 139.376L55.105 139.986L55.3012 140.72V141.592L54.8988 142.452L55.105 141.592V140.72L54.8988 139.986L54.1693 139.376H54.4964Z" fill="#9E7750"/>
<path fill-rule="evenodd" clip-rule="evenodd" d="M59.427 137.077V138.346L59.3026 139.26L59.0042 140.002L58.5445 140.581H58.2017L58.8346 139.725L59.0042 139.26L59.1064 138.346L59.1916 137.188L59.427 137.077Z" fill="#9E7750"/>
<path fill-rule="evenodd" clip-rule="evenodd" d="M62.3228 136.902V137.921V138.829L61.7825 139.575L61.1852 140.358L60.9505 140.07L61.5635 139.294L61.7331 138.829L61.7825 138.049V136.902H62.3228Z" fill="#9E7750"/>
<path fill-rule="evenodd" clip-rule="evenodd" d="M58.3789 229.759L79.0758 227.841L113.896 224.641L130.452 227.06L145.787 224.641L146.026 213.397L141.701 204.325L141.888 185.383L145.787 165.005L147.999 127.956L149.642 99.9509L147.379 84.4947L141.701 74.7798L134.435 66.7943L131.815 64.5808L127.086 68.0879L123.473 68.4735L119.772 66.7943C119.772 66.7943 119.647 66.2214 117.156 66.7943C114.665 67.3672 108.33 68.4735 108.33 68.4735L99.9397 73.4453L96.2026 77.1332L92.346 82.0452L85.6672 90.2652L83.6644 96.8062L79.0758 108.907L76.4029 111.655V122.269V125.372L71.4683 139.975L68.9297 150.023L62.3231 168.222L64.3978 174.137L62.3231 180.894V185.383L58.529 198.875L58.3789 229.759Z" fill="#D2FCA0"/>
<path fill-rule="evenodd" clip-rule="evenodd" d="M131.28 161.075L134.895 149.824V142.355L136.681 135.603L139.817 127.375L141.701 114.327V101.07H138.468L136.681 114.327L134.895 126.089L131.28 133.676L127.169 140.093C127.169 140.093 120.206 163.469 117.802 175.804C115.398 188.14 116.348 195.624 116.348 195.624L116.003 219.362C116.003 219.362 122.481 220.647 124.49 219.362C126.82 217.872 130.938 220.581 131.28 219.362C133.103 212.87 128.154 193.271 128.601 193.337C129.624 193.489 131.28 161.075 131.28 161.075Z" fill="#D2E79F"/>
<path fill-rule="evenodd" clip-rule="evenodd" d="M105.983 72.82L111.631 71.7247L115.357 74.4148L124.222 82.0076L128.078 88.4915L131.849 97.4977L133.376 106.497V117.9L131.849 124.233V129.155L130.044 133.835L129.145 139.016L128.078 141.738V146.471V152.027V156.237L127.179 160.164L129.145 161.88H133.376H135.679L138.892 160.164L141.448 158.656V156.237V155.126L146.026 153.563V164.366L144.771 165.889H143.062L141.448 169.62L138.892 171.174L136.543 172.079H134.375L133.376 173.196H130.044L127.179 174.108L123.247 173.196H119.61H115.357L111.631 172.079H109.152L105.983 173.196L102.292 172.079H95.6388L90.8811 171.174L84.4659 169.62L76.3747 168.229L69.6343 163.467L65.9131 160.164V156.237L69.0076 148.864L70.4304 144.762L71.081 140.44L75.1012 142.618L76.3725 144.401L85.5503 150.924L90.8811 156.237L96.6034 157.107L97.3894 161.075L102.292 161.88L105.97 161.075H111.631H115.357V153.563L116.992 148.988L118.596 143.088L119.61 137.8L123.247 133.835V127.875L124.222 126.089V117.9L125.554 113.423L127.179 108.556L125.554 103.5L124.222 97.4977L125.554 94.6338L120.747 88.4915L116.992 85.7828L115.357 83.5294L109.918 79.69L107.634 78.5871H103.813L98.7239 79.69L95.5903 81.3999L90.2136 84.6174L92.6026 81.3999L94.7308 78.5871L101.529 75.6431L105.983 72.82Z" fill="#CDCCCC"/>
<path fill-rule="evenodd" clip-rule="evenodd" d="M132.113 65.0134L141.156 74.7799L143.921 79.715L146.026 84.2905L148.521 89.4844L149.641 97.611V106.566L148.521 114.327L147.61 105.696V97.611L146.026 90.5609V86.1122L142.376 80.902L140.115 76.4088L135.957 72.4259L132.488 68.2021C132.488 68.2021 131.886 67.6288 131.375 67.2747C130.865 66.9206 129.971 66.4568 129.971 66.4568L132.113 65.0134Z" fill="#D8D8D8"/>
<path fill-rule="evenodd" clip-rule="evenodd" d="M126.311 115.872L131.456 110.419L132.962 107.984V111.295L129.637 115.872L125.252 119.926L126.311 115.872Z" fill="#C2C2C2"/>
<path fill-rule="evenodd" clip-rule="evenodd" d="M123.452 134.69L125.879 132.984L128.381 132.336L129.993 130.58L129.107 132.984L126.722 134.132L124.486 135.625L122.289 136.771L123.452 134.69Z" fill="#C2C2C2"/>
<path fill-rule="evenodd" clip-rule="evenodd" d="M111.63 172.079V170.633V168.713L113.062 167.262L114.78 168.713L116.735 169.671H117.802L117.198 168.077L116.23 167.262L114.716 166.647V165.556V164.411V162.719L115.315 161.691H113.62L113.062 164.411L112.226 165.556L110.711 167.262L109.99 170.137V172.079H111.63Z" fill="#C2C2C2"/>
<path fill-rule="evenodd" clip-rule="evenodd" d="M107.634 78.5871L108.737 77.1332L109.631 75.6382L110.296 74.7147L110.837 73.9666L111.432 73.1708H112.1L111.109 72.4671L110.296 73.3564L109.224 75.1543L108.057 76.8507L106.883 78.3925L106.283 78.5871H107.634Z" fill="#C2C2C2"/>
<path fill-rule="evenodd" clip-rule="evenodd" d="M108.695 172.079V170.393L109.444 169.15V167.218L111.629 164.747V162.115V161.075H109.99V164.445L108.373 166.577L107.87 168.488L107.114 170.054V172.079H108.695Z" fill="#C2C2C2"/>
<path fill-rule="evenodd" clip-rule="evenodd" d="M135.467 171.606L135.913 166.577L135.679 161.88L137.896 160.283V165.612V169.42V170.784L135.467 171.606Z" fill="#C2C2C2"/>
<path fill-rule="evenodd" clip-rule="evenodd" d="M142.602 155.54V165.945L143.814 165.292L144.37 160.283V154.986L142.602 155.54Z" fill="#C2C2C2"/>
<path fill-rule="evenodd" clip-rule="evenodd" d="M116.348 153.306L119.919 151.742L122.289 151.332H124.187L126.141 150.421L127.169 148.738V146.341L124.589 148.141L122.289 148.738H119.919L118.399 149.254H116.982L116.348 153.306Z" fill="#C2C2C2"/>
<path fill-rule="evenodd" clip-rule="evenodd" d="M133.322 162.426L134.896 162.156V167.409L134.375 172.079L131.28 173.103L132.108 170.283L133.088 167.409V163.978L132.773 162.156L133.322 162.426Z" fill="#C2C2C2"/>
<path fill-rule="evenodd" clip-rule="evenodd" d="M130.281 173.103L131.28 168.118V164.409L130.78 162.156H128.888L129.26 166.577L128.314 170.048L127.169 173.539L130.281 173.103Z" fill="#C2C2C2"/>
<path fill-rule="evenodd" clip-rule="evenodd" d="M107.634 78.587L108.737 77.1332L109.79 75.5271L110.658 74.2925L111.432 73.1708L112.1 72.8887L112.652 73.1708L111.66 74.2925L110.143 76.0848L108.737 77.9849L108.35 79.0225L107.634 78.587Z" fill="#D8D8D8"/>
<path fill-rule="evenodd" clip-rule="evenodd" d="M120.824 67.6464L124.497 68.7791L127.376 68.2128L129.107 67.6464L131.449 66.4305L131.815 65.0134L126.319 66.4305L119.728 66.8962L120.824 67.6464Z" fill="#2E2E32"/>
<path fill-rule="evenodd" clip-rule="evenodd" d="M95.0996 83.94L102.435 83.2904L106.284 83.94L111.132 86.9323L115.339 90.5609L118.173 95.2213L119.728 101.135L120.782 107.128L119.728 113.219L118.774 117.896L116.348 126.803L114.515 130.58L120.782 121.838L122.289 113.955L123.188 106.935L122.289 101.135L120.782 95.2213L117.445 90.5609L112.1 85.3313L107.023 82.0335L102.435 81.0668L97.5934 82.0335L95.0996 83.94Z" fill="#2E2E32"/>
<path fill-rule="evenodd" clip-rule="evenodd" d="M83.9196 116.58L82.8914 112.868L83.9196 107.984L83.4055 105.824L83.9196 100.493L84.8603 96.8062L82.2329 102.141L81.4668 107.984L80.6084 112.868L81.4668 117.685L82.8914 121.283L83.9196 116.58Z" fill="#2E2E32"/>
<path fill-rule="evenodd" clip-rule="evenodd" d="M96.9395 158.92L102.676 160.283L106.284 154.986L110.144 150.813L114.878 146.341V142.355L113.903 143.15L109.991 146.341L105.97 150.813L102.676 151.319L100.823 152.455L96.9395 158.92Z" fill="#CDDD8F"/>
<path fill-rule="evenodd" clip-rule="evenodd" d="M75.1016 169.308L82.5766 168.865L86.5017 170.135L90.0939 171.279C90.0939 171.279 87.2852 176.989 86.5017 182.798C86.1603 185.329 85.5674 187.293 85.3421 197.043C85.2226 202.213 85.3421 222.424 85.3421 222.424H76.8006H69.1357C69.1357 222.424 71.4659 199.848 72.2812 194.32C73.4099 186.666 74.1217 184.393 74.3636 182.798C74.9887 178.678 75.2576 175.117 75.2576 175.117L75.1016 169.308Z" fill="#D2E79F"/>
<path fill-rule="evenodd" clip-rule="evenodd" d="M79.2443 170.108L86.324 172.079H90.0936V171.094L85.431 170.108H82.6754H76.9668H79.2443Z" fill="#A4B84A"/>
<path fill-rule="evenodd" clip-rule="evenodd" d="M111.629 137.78L114.877 136.103L117.802 133.676L120.533 130.58L122.289 127.313L123.188 123.518L120.533 124.813L118.65 128.496L116.347 131.072L112.727 134.547L111.629 137.78Z" fill="#C3DD92"/>
<path fill-rule="evenodd" clip-rule="evenodd" d="M123.474 134.428L124.22 134.168L125.605 133.039L128.381 132.336L129.993 130.649L131.625 128.599V127.801L129.46 130.047L127.98 131.115L125.252 132.079L124.22 133.039L123.474 133.676V134.428Z" fill="#D8D8D8"/>
<path fill-rule="evenodd" clip-rule="evenodd" d="M125.554 94.6338L129.107 91.8879V91.043L124.073 92.4697L125.554 94.6338Z" fill="#D8D8D8"/>
<path fill-rule="evenodd" clip-rule="evenodd" d="M60.5369 188.251L65.9129 192.535H72.1675H80.9876H84.8601L90.0934 194.812H100.695H107.634H114.877H120.782L126.141 192.535L136.681 190.748L138.467 186.647L141.7 182.37V194.812L139.806 199.556L136.681 201.847H134.435H131.625L127.549 204.192H123.473L120.782 206.085H116.348H113.896H105.908H100.695H94.1211L87.5438 208.877H82.7342L76.9666 206.085L72.1675 204.192H68.0314L63.4229 206.085H59.0869L58.8145 194.812L60.5369 188.251Z" fill="#CDCCCC"/>
<path fill-rule="evenodd" clip-rule="evenodd" d="M124.835 193.337L123.474 204.192L120.782 206.085L121.4 194.603L124.835 193.337Z" fill="#C2C2C2"/>
<path fill-rule="evenodd" clip-rule="evenodd" d="M129.224 191.823L128.601 203.26L131.624 201.847L132.303 198.229V195.077V191.823H129.224Z" fill="#C2C2C2"/>
<path fill-rule="evenodd" clip-rule="evenodd" d="M119.728 67.3634L123.473 68.7791H126.141L129.107 68.0713L130.734 66.7944L131.815 65.0134L129.107 66.203L125.251 66.7944H120.782L119.728 67.3634Z" fill="#2F2D25"/>
<path fill-rule="evenodd" clip-rule="evenodd" d="M80.6084 142.355V139.475V130.58L82.7344 121.283L83.5301 114.327L82.7344 109.045L83.4055 105.824L84.8603 98.9145L88.9266 88.7712L95.0995 83.9399H99.0986H105.982L114.878 90.5609L119.728 98.9145L120.782 107.128L119.728 119.926L116.348 130.58L112.718 137.78L112.169 139.477L110.564 144.434L108.112 148.238L103.368 146.341H95.0995L90.0935 144.434H87.3732L84.8603 142.355L80.6084 144.434V142.355Z" fill="#95B6DA"/>
<path opacity="0.88637" fill-rule="evenodd" clip-rule="evenodd" d="M107.634 144.618L96.7347 142.355L92.8806 141.389L92.0238 140.344V136.771V133.676L90.0935 135.543V139.147L88.9865 140.344H86.965L84.8603 139.147L83.5301 137.78V135.543H85.8295L83.5301 133.676V128.568L84.8603 123.518L85.8295 116.92L88.9865 109.749L92.0238 103.29L88.9865 101.07V96.8062L86.965 95.4393L82.7344 107.984L83.5301 116.92L80.6084 128.568V136.771V142.355L83.5301 141.389L87.852 143.253H92.0238L94.1213 144.618L98.3935 145.565L104.886 146.341L107.634 144.618Z" fill="#B5D5F2"/>
<path fill-rule="evenodd" clip-rule="evenodd" d="M107.634 139.127V133.676L105.97 127.912L103.295 120.89V115.14V105.824L102.497 100.307L103.295 95.4393L100.695 98.1534L98.063 105.824V115.14L96.3568 124.884V131.072L95.0996 137.78L95.5903 140.869L100.695 141.694V136.103L99.9331 130.58L100.695 123.518L102.497 132.897L103.295 136.771V140.869L104.474 142.355L107.634 139.127Z" fill="#85A5C3"/>
<path fill-rule="evenodd" clip-rule="evenodd" d="M87.2757 98.2318L90.7909 96.1107L96.0833 94.4989L99.249 93.7438L101.848 94.9663L106.775 96.8063L112.831 99.0757L117.409 101.07L117.957 101.53L116.66 100.005L112.101 98.2318L106.775 96.1107L101.848 93.7438L99.249 92.8874L93.5934 94.4989L89.0472 96.1107L86.9664 97.2085L84.8607 99.0757L84.5713 100.383L87.2757 98.2318Z" fill="#85A5C3"/>
<path fill-rule="evenodd" clip-rule="evenodd" d="M98.7331 93.069L100.024 91.241L101.166 88.5665L101.931 86.7503L102.616 85.2608L103.638 83.9399H102.616L101.367 86.7503L100.41 89.0385L99.461 91.241L97.9707 93.2124L98.7331 93.069Z" fill="#9BBFDD"/>
<path fill-rule="evenodd" clip-rule="evenodd" d="M100.289 93.2124L99.2487 92.8874H98.9395L100.289 90.654L101.025 89.5531L101.367 87.997L102.155 86.4071L102.616 85.2608L103.906 83.9399H104.805L103.344 85.2608L102.45 87.2328L101.367 89.8797L100.695 91.5085L100.289 93.2124Z" fill="#85A5C3"/>
<path fill-rule="evenodd" clip-rule="evenodd" d="M111.629 129.184L110.144 123.518L109.192 120.89L109.144 116.778L107.634 112.606L105.983 109.045L105.97 103.777L107.634 104.42L109.192 101.07L109.144 97.7827L113.608 105.824L114.878 110.921L117.409 114.327L114.878 116.778V119.926L113.608 124.259L111.629 129.184Z" fill="#85A5C3"/>
<path opacity="0.514858" fill-rule="evenodd" clip-rule="evenodd" d="M95.9446 140.318L95.1 137.78L95.9446 133.676L96.3572 131.072V125.739V123.518L97.9712 116.089V105.186L99.0991 101.53L100.696 98.1534L103.295 95.4393H100.805L95.9446 103.31L94.1218 111.365L93.5802 115.14L92.1494 122.916V127.252L92.8575 131.072V135.347V138.751L92.8811 141.389L95.9446 140.318Z" fill="#A5C1DB"/>
<path fill-rule="evenodd" clip-rule="evenodd" d="M104.886 146.341L102.041 151.319L99.0984 156.419L97.7217 161.691L95.0993 167.847L92.1487 169.308H80.6081H62.3229L55.187 167.847L49.1955 166.115L44.4949 165.577H40.2562L35.5245 164.858L30.2249 164.403L24.6436 162.156V160.731L21.5971 159.231L20.7792 157.824V155.114L19.3109 153.816V151.319L17.4963 148.238L16.6836 146.76L16.2217 143.216L17.1377 142.978L18.2058 143.216L20.3584 145.618L21.5971 146.76L23.4156 148.238H27.5202L24.971 147.414L22.5554 146.341L19.3109 144.151L18.5974 142.978C18.5974 142.978 18.0551 142.485 17.933 142.066C17.8109 141.647 17.933 140.698 17.933 140.698L18.5974 139.488L21.0756 139.131L24.0261 140.698L26.5139 142.066L28.8896 143.63L31.8549 144.501L35.5245 145.618L39.2874 147.414L42.9269 150.815L45.0652 152.601L47.4426 153.816L56.1119 152.984L64.2691 151.319L69.4236 149.192L75.257 148.238L78.6389 149.192L80.6081 144.501L82.6751 142.355C82.6751 142.355 81.7201 142.118 84.8601 142.355C88.0001 142.591 94.1211 143.216 94.1211 143.216L104.183 145.618L104.886 146.341Z" fill="#D4A385"/>
<path fill-rule="evenodd" clip-rule="evenodd" d="M80.9869 145.357L79.5842 150.729L76.9659 152.292L73.9864 152.767L65.9122 154.219L56.5532 155.682H49.0199L43.3647 154.219L42.4072 152.767L56.5532 153.438L65.9122 151.319L70.207 149.114L75.2563 148.238H79.2557C79.2557 148.238 79.2436 147.163 79.5842 146.341C79.9248 145.519 80.9869 144.058 80.9869 144.058V145.357Z" fill="#EAAE8C"/>
<path fill-rule="evenodd" clip-rule="evenodd" d="M20.6514 145.235L21.9641 145.943L20.2049 144.169L21.0845 142.568L21.7949 141.182L21.9407 140.16L24.5626 141.182L27.5464 143.028L30.6365 144.169L33.9551 145.235L35.7732 145.685L34.4103 144.891L31.1782 144.169L27.5464 142.802L24.5626 140.788L21.7949 139.488L20.2049 139.131L18.5971 139.488C18.5971 139.488 18.052 140.354 17.9327 140.698C17.8134 141.041 17.8577 141.672 17.8577 141.672L18.4889 143.344L19.5797 144.573L20.6514 145.235Z" fill="#F4C6AC"/>
<path fill-rule="evenodd" clip-rule="evenodd" d="M21.6935 140.853L20.6839 140.422L19.8229 140.12L19.1243 140.301L18.5142 141.182V142.041L18.899 142.855L20.2152 143.495L20.4303 143.59L20.2152 143.737L18.7758 142.855L18.3239 141.926V141.182L18.6675 140.687L19.0266 140.12L19.9892 140.03L20.6839 140.217L21.4256 140.609L21.6935 140.853Z" fill="#C49174"/>
<path fill-rule="evenodd" clip-rule="evenodd" d="M20.43 143.59L21.7945 141.182L19.124 140.301L18.5139 141.182V141.877L18.8987 142.855L20.43 143.59Z" fill="#FFDECE"/>
<path fill-rule="evenodd" clip-rule="evenodd" d="M24.6431 160.731L26.6326 161.249L27.5197 160.731L23.415 159.984L24.6431 160.731Z" fill="#C59276"/>
<path fill-rule="evenodd" clip-rule="evenodd" d="M20.7793 156.202L24.7597 158.167L27.0757 158.218L27.5203 158.167L24.9166 157.407L20.7793 155.682V156.202Z" fill="#C59276"/>
<path fill-rule="evenodd" clip-rule="evenodd" d="M19.3105 152.423C19.3105 152.423 20.6892 153.304 22.3124 153.686C23.9356 154.068 25.3638 154.219 25.3638 154.219H27.5199C27.5199 154.219 25.317 153.848 22.3124 152.982C19.3078 152.117 19.3105 151.319 19.3105 151.319L19.3105 152.423Z" fill="#C59276"/>
<path fill-rule="evenodd" clip-rule="evenodd" d="M19.6396 152.077L22.3124 152.982L24.5063 153.519L27.2255 154.219L28.1839 153.863L28.761 152.428L26.2477 152.077L23.4152 151.708L21.054 150.983H20.0088L19.6396 152.077Z" fill="#E4B296"/>
<path fill-rule="evenodd" clip-rule="evenodd" d="M22.3125 156.554L24.2004 157.091L26.2478 157.885L27.2257 156.536L26.2478 155.649L23.4153 155.28L22.3125 156.554Z" fill="#E4B296"/>
<path fill-rule="evenodd" clip-rule="evenodd" d="M39.898 151.378L38.4613 152.769L35.3457 160.235L42.4072 163.29L44.0644 154.797L42.8342 152.769L39.898 151.378Z" fill="#C3967C"/>
<path fill-rule="evenodd" clip-rule="evenodd" d="M16.6906 145.267L17.3088 144.626L16.6906 143.227L16.4449 143.737L16.6906 145.267Z" fill="#E7C9BA"/>
<path fill-rule="evenodd" clip-rule="evenodd" d="M95.0992 51.4227L95.59 68.7791L96.6 71.7247V72.4671L95.59 74.1036L94.121 74.7799H92.8804L91.4021 74.1036L89.9337 74.7799H88.1861L86.9619 74.1036L86.1947 72.8887V71.7247L84.5706 70.0154H82.7341L81.4906 68.7791V67.3634L82.7341 66.203V65.6203H80.6081L78.7046 65.0134L76.6308 63.1013H75.8928L74.0508 64.2213H72.0925L71.0862 63.1013V61.7322V60.0713L70.0101 56.879V54.3854V53.1545L67.8668 51.4227L65.9128 50.006V48.3139L64.9961 45.6563V43.5332L63.8447 41.0892L77.6328 36.1715L86.1947 32.5656L88.1861 31.3855L95.0992 48.3139V51.4227Z" fill="#DCA180"/>
<path fill-rule="evenodd" clip-rule="evenodd" d="M71.3281 53.8031L72.3926 53.0827L73.5153 52.3357L74.6166 51.4635L75.2854 51.8626L73.9417 52.9431L73.3068 54.0225L72.3926 54.9096L71.7817 54.4425L71.3281 53.8031Z" fill="#AF7F56"/>
<path fill-rule="evenodd" clip-rule="evenodd" d="M74.1251 63.3232L74.6664 62.4524L75.2854 62.1002L76.7399 61.6699L75.8967 62.4966L74.8844 63.3232H74.1251Z" fill="#A57649"/>
<path fill-rule="evenodd" clip-rule="evenodd" d="M68.8181 52.3312L69.4338 51.4005V50.7037H71.3289L72.8358 50.1727L74.2937 49.3562H72.8358H70.8558L68.8181 49.8171L68.0223 50.8437L66.7988 51.4005L68.8181 52.3312Z" fill="#AF7F56"/>
<path fill-rule="evenodd" clip-rule="evenodd" d="M73.384 59.7204L74.6722 58.8218L75.4329 59.9176L76.222 61.0807L74.6722 61.7545L73.3072 62.1344L72.2306 62.9006L71.683 60.3329V59.13L70.5459 57.2887V54.1395L71.8593 54.9726L73.384 56.5055L73.924 57.9954L72.8324 59.4745L73.384 59.7204Z" fill="#CB9478"/>
<path fill-rule="evenodd" clip-rule="evenodd" d="M87.3096 67.8877L89.2558 69.4828L90.4154 70.6546L91.1718 71.7247V72.6119L91.4465 73.5138V74.3549H91.9672L91.7203 72.3344L91.4465 71.1213L90.4154 69.7648L89.2558 68.7725L88.3094 67.8877L87.7459 67.5952L87.3096 67.8877Z" fill="#CB9478"/>
<path fill-rule="evenodd" clip-rule="evenodd" d="M82.8182 66.6704L82.1522 67.2862L81.9224 68.01V68.9597L82.3239 68.789L82.5254 68.01L83.427 67.1128L82.8182 66.6704Z" fill="#CB9478"/>
<path fill-rule="evenodd" clip-rule="evenodd" d="M88.1503 46.6035V45.5025L89.0694 45.0782H89.9165L90.2284 46.6035V46.9599L89.9165 47.9441L88.7892 47.549L88.1503 46.6035Z" fill="#AD7440"/>
<path fill-rule="evenodd" clip-rule="evenodd" d="M87.4031 43.1077L86.7618 43.4721L87.4031 43.8115H88.1087L88.7655 44.2815L89.1892 44.7251V43.9164L88.1087 43.4721L87.4031 43.1077Z" fill="#AD7440"/>
<path fill-rule="evenodd" clip-rule="evenodd" d="M88.8288 47.8851L89.7613 48.2972L89.5361 49.0577L89.189 49.7475L88.8288 49.4265L88.5842 48.8163L88.8288 47.8851Z" fill="#AD7440"/>
<path fill-rule="evenodd" clip-rule="evenodd" d="M89.1895 41.7655V40.6053L89.9939 40.3731L90.9593 40.3731L92.1031 42.5859L92.5586 43.5926V45.7024V46.5111L92.8807 47.6614L93.2732 48.8163L92.8807 50.6024L92.5586 52.6298L91.5407 53.1866L91.2313 52.3326L91.5407 49.7981L92.1031 47.6614L91.5407 45.7024V43.5926L90.9755 42.1303L90.3473 42.5859L89.1895 41.7655Z" fill="#AD7440"/>
<path fill-rule="evenodd" clip-rule="evenodd" d="M92.8808 56.879L93.7822 61.0951V66.203L95.0997 69.6011L96.0486 71.7247L95.5904 73.2988L93.7822 74.7799L92.3278 74.355L91.704 71.4737L90.1198 69.2414L87.9758 67.0713L86.8838 64.0552L81.6735 63.3406L78.5255 61.0951L75.2861 55.7671L78.5255 50.8437L77.2193 46.5111C77.2193 46.5111 78.9085 41.5029 80.2228 40.3731C80.8768 39.811 86.1898 51.4005 86.1898 51.4005L92.8808 56.879Z" fill="#ECAA87"/>
<path fill-rule="evenodd" clip-rule="evenodd" d="M89.1727 42.1303L90.9587 42.6199L91.2307 43.9164L91.5401 45.7024L92.1026 47.6613L91.5401 50.2667L91.2307 52.6298L90.1502 53.6322L89.7612 53.0826L90.6376 50.8437L90.9587 47.8813L90.6376 46.5111V43.9164L89.6378 43.2792L89.1727 42.1303Z" fill="#F0B092"/>
<path fill-rule="evenodd" clip-rule="evenodd" d="M96.0487 71.7247L97.9709 72.4671L105.983 64.2826L110.144 62.1252L114.313 60.2705L123.188 58.52L120.782 55.9206L117.409 53.6323L115.74 50.8437L112.553 46.5111L111.689 43.9164L106.284 34.5176L98.9396 37.9595L91.2314 39.6447L95.0997 48.8163V68.7791L96.0487 71.7247Z" fill="#DCA180"/>
<path fill-rule="evenodd" clip-rule="evenodd" d="M97.9703 72.8887L102.041 69.6011L106.974 64.2715L110.143 62.1251L112.552 60.7105L106.974 56.8789L102.041 50.8437L97.7215 48.8163L95.5898 50.6023L96.0481 55.7349V65.0133V67.5952L96.5999 71.7247L97.9703 72.8887Z" fill="#D79877"/>
<path fill-rule="evenodd" clip-rule="evenodd" d="M68.46 39.4146L69.1253 42.1304L70.5463 40.3471L73.3076 43.1273L76.2224 43.9164H77.2194V46.5112L77.8458 48.8163L80.2229 50.8438L82.6753 51.4005L80.8892 47.8813L84.4613 50.6024L86.1898 49.6372L83.4331 47.5542H86.1898L84.4613 44.8999V43.1273L87.3097 42.1304V40.3471H89.7619H93.2733L94.208 41.5026L93.2733 43.9164L92.8808 45.7025L95.7086 44.7251L96.0487 46.7799L97.9709 44.7251L98.9396 43.9164C98.9396 43.9164 100.695 46.09 100.695 45.4076C100.695 44.7251 100.695 42.1304 100.695 42.1304L104.072 44.8999L106.284 47.0303L107.424 43.9164L108.396 42.1304L109.144 45.4076L108.396 47.5542L110.996 45.7025L110.144 42.1304L112.366 44.8999L114.249 42.8725L113.466 39.4146L112.831 35.8006L111.165 34.5176L110.996 32.2522V29.9122H112.831L110.144 26.4186L109.21 24.8497L108.396 23.1629L91.2314 28.927L79.5676 34.4091L69.8454 37.5575L68.46 39.4146Z" fill="#6B696C"/>
<path fill-rule="evenodd" clip-rule="evenodd" d="M89.7622 32.623L91.2317 35.8005L92.4246 37.0309L94.9408 37.94L96.6008 39.4461L96.7293 40.3731L97.2453 42.1303L96.7293 43.9164L96.049 41.5026L95.7088 39.4461L94.2083 38.2697L91.9676 37.94L90.6386 36.1951L89.1736 33.661L88.8525 31.3855L89.7622 32.623Z" fill="#515151"/>
<path fill-rule="evenodd" clip-rule="evenodd" d="M72.3643 39.5912L75.2865 42.1303L78.4729 42.8725H80.8896L83.4335 42.1303L85.129 41.5026L86.1902 40.3471L83.8725 41.2318L80.8896 42.1303L77.2197 41.5026L74.7145 40.3731L73.3079 39.0579L72.3643 39.5912Z" fill="#515151"/>
<path fill-rule="evenodd" clip-rule="evenodd" d="M73.3847 39.0579L74.8375 40.3471H76.2228L79.2772 40.3731L82.0371 39.7155L83.4335 39.0579L84.6839 37.0868L82.9658 38.73L81.5893 39.0579L79.2772 39.7155H77.5466H76.2228H75.2865L73.9981 38.73L72.3643 37.9401L73.3847 39.0579Z" fill="#7C797D"/>
<path fill-rule="evenodd" clip-rule="evenodd" d="M91.2314 31.3855L92.4244 34.5176L94.208 35.6556L96.6005 36.5384L98.2043 36.9439L99.5009 37.6509L100.185 39.0579L101.089 41.7254V39.0579L100.185 36.9439L98.6656 36.5384L96.6005 35.6556L94.208 34.8196L93.2733 33.8537L92.2227 32.2522L91.2314 31.3855Z" fill="#7D797D"/>
<path fill-rule="evenodd" clip-rule="evenodd" d="M108.213 35.3023L109.21 36.9439L110.318 37.9401L110.997 39.0579L111.435 40.9652V42.8725L110.667 40.3471L110.318 38.5374L109.21 37.5575L108.213 36.3189V35.3023Z" fill="#7E797D"/>
<path fill-rule="evenodd" clip-rule="evenodd" d="M79.2768 43.9164V45.7024V46.7798L79.884 47.8813L80.5274 49.0577L81.2945 50.189L79.884 49.0577L79.2768 47.8813L78.5237 46.7798V45.352V43.9164H79.2768Z" fill="#515151"/>
<path fill-rule="evenodd" clip-rule="evenodd" d="M81.6952 43.6902V44.7251L81.902 45.5028L82.1505 46.3362L82.8814 47.5542L83.6289 48.2972L84.5021 48.8164L85.1287 49.3702L83.8608 49.0577L82.8814 48.2972L82.1505 47.2271L81.4134 46.0441L81.0664 44.7251V43.9164L81.6952 43.6902Z" fill="#515151"/>
<path fill-rule="evenodd" clip-rule="evenodd" d="M89.7617 30.713H91.2312L92.8806 32.7349L93.2731 33.8537H97.8702H103.304L104.896 34.5176L104.545 31.3855L104.072 28.166H100.185L97.2448 27.5722L94.6114 28.5437L89.7617 30.713Z" fill="#9DA4B4"/>
<path fill-rule="evenodd" clip-rule="evenodd" d="M102.151 27.1409L102.965 27.5722L104.072 28.166L104.897 29.9122L105.235 31.3855V33.2489V35.3023V36.5555L105.696 38.0348L106.707 39.0874L106.341 37.651V35.3023L105.696 33.1142V29.9122L104.897 28.166L104.072 27.1409L102.151 26.4186V27.1409Z" fill="#515151"/>
<path fill-rule="evenodd" clip-rule="evenodd" d="M104.071 25.3729L105.645 26.4186L107.209 27.5722L107.424 28.9269V30.3168L108.037 31.3855L109.21 31.8783L108.037 30.3168V28.6256V27.1409L106.706 26.4186L105.645 25.3729L104.896 24.8497L104.071 25.3729Z" fill="#7F797D"/>
<path fill-rule="evenodd" clip-rule="evenodd" d="M97.971 76.9018L95.0997 78.2621L93.8169 77.3787L92.8809 76.9018L95.0997 74.9281L97.7635 72.8887L106.284 63.392L109.144 61.4394H110.757L115.74 59.5096L119.728 58.706L123.188 58.088H127.17L129.107 56.879L132.781 65.0134L126.463 66.7943L117.596 67.3634L112.1 67.9259L107.634 69.5021L103.373 72.4671L97.971 76.9018Z" fill="#9BB6D7"/>
<path fill-rule="evenodd" clip-rule="evenodd" d="M129.107 56.879L129.516 57.9L127.697 58.996L123.189 59.9202L112.831 61.4394L110.757 62.1585H109.144L105.97 65.0134L99.8087 70.7991L98.5933 72.8887L95.5909 75.5271L94.2084 77.17L93.3076 76.7687L95.1001 74.9281L97.7639 72.8887L99.252 70.3066L105.44 64.2332L109.144 61.4394H110.757L112.792 60.8036L115.734 59.782L123.018 58.088H127.17L129.107 56.879Z" fill="#A5C6EA"/>
<path fill-rule="evenodd" clip-rule="evenodd" d="M56.0129 48.2972L64.1341 41.5026L68.4597 39.7006L73.3073 37.0909L84.6833 32.2522L98.9393 27.1409L108.628 23.3507L112.129 21.79L109.144 19.8632L105.97 13.5586L98.9393 7.40475L89.7617 4.20686L82.675 3.20001L74.2934 5.28124L63.845 10.1716L59.9943 13.5586L58.6773 19.8632L57.183 27.4646V34.5176L58.6773 37.0909V40.3471L54.7656 47.0303L56.0129 48.2972Z" fill="#D9DEE8"/>
<path fill-rule="evenodd" clip-rule="evenodd" d="M55.8096 47.5542L59.4756 44.0126L62.3235 41.4737L65.7295 38.9874V37.94L62.9989 38.9874H60.3681L58.8986 35.387L58.4489 31.1059V27.1325L59.1229 24.2616L60.7045 21.2895L63.5677 17.3594L66.7481 14.2467L69.3513 12.1831L73.2656 10.1786L76.2225 8.77771H74.2938L68.7789 11.0608L62.8101 15.7022L59.4756 20.1804L57.6591 25.7486V31.9259L58.8986 38.9874L58.4489 41.9986L56.1969 45.6369L55.8096 47.5542Z" fill="#FBFBFB"/>
<path fill-rule="evenodd" clip-rule="evenodd" d="M60.2017 18.9626L60.6701 15.5908L60.9485 14.2991L61.7574 13.0235L63.7639 11.2691L68.5867 8.54077L73.2107 6.37897L75.3834 5.62463H74.5202L72.0992 6.62958L67.7926 8.54077L64.1425 10.465L63.071 11.0887L60.9485 13.0661L60.4953 14.2991L60.2017 15.8712L59.7061 18.3944V19.8829L60.2017 18.9626Z" fill="#FBFBFB"/>
<path fill-rule="evenodd" clip-rule="evenodd" d="M63.8454 35.7465L68.2387 33.661L69.1255 35.7465L63.8454 37.9401L62.999 36.1892L63.8454 35.7465Z" fill="#DDE3ED"/>
<path fill-rule="evenodd" clip-rule="evenodd" d="M84.1984 27.5722L84.6832 29.7186L77.8138 32.2522L77.0664 30.7101L84.1984 27.5722Z" fill="#DDE3ED"/>
<path fill-rule="evenodd" clip-rule="evenodd" d="M62.999 36.1892L68.2387 33.661L68.4602 32.629L63.6118 34.9282L62.999 36.1892Z" fill="#C2C8D7"/>
<path fill-rule="evenodd" clip-rule="evenodd" d="M77.0664 30.7101L83.4327 27.8004V27.1438L77.9139 29.3358L77.0664 30.7101Z" fill="#C2C8D7"/>
<path fill-rule="evenodd" clip-rule="evenodd" d="M108.419 23.3507L112.129 21.79L111.609 23.3507L110.252 24.8497L109.494 25.3729L108.419 23.3507Z" fill="#B5BBC6"/>
<path fill-rule="evenodd" clip-rule="evenodd" d="M108.419 23.5815L109.499 23.1629L110.338 22.7651L109.499 24.354H108.956L108.419 23.5815Z" fill="#969EA5"/>
<path fill-rule="evenodd" clip-rule="evenodd" d="M94.2081 25.7486L93.2734 23.3933L97.4352 21.8608L99.1946 20.9529L100.185 23.3507L94.2081 25.7486Z" fill="#DCE3EE"/>
<path fill-rule="evenodd" clip-rule="evenodd" d="M93.552 25.3729L92.5418 24.8654L92.2227 23.1089L97.1827 20.9529H99.1945L93.552 23.1629V25.3729Z" fill="#CBD1D7"/>
<path fill-rule="evenodd" clip-rule="evenodd" d="M64.942 44.4894L60.8619 46.9599L59.251 47.8319L57.7088 48.2972H56.5975H56.0127L59.7677 44.8161L61.9272 43.0279L63.8448 41.5026L64.942 43.0279V44.4894Z" fill="#F2F4F1"/>
<path fill-rule="evenodd" clip-rule="evenodd" d="M64.9422 42.8725L64.1341 41.5026H63.3398C63.3398 41.5026 61.7925 43.1918 60.9847 43.8415C59.505 45.0316 56.5977 47.5542 56.5977 47.5542C56.5977 47.5542 58.1623 47.3305 59.1938 46.8208C60.2253 46.3111 62.3231 44.7251 62.3231 44.7251L64.9422 42.8725Z" fill="#CBCBCB"/>
<path fill-rule="evenodd" clip-rule="evenodd" d="M58.3792 227.2L58.2432 230.331L76.967 229.759L94.8532 228.686L112.154 227.772L122.809 227.2L133.088 227.772L145.273 225.422L146.027 220.513L130.452 224.641H115.193L94.8532 226.128L79.6147 227.2H58.3792Z" fill="#2F2D24"/>
</svg>
