<?xml version="1.0" encoding="UTF-8"?>
<svg data-bbox="10 0 199.948 137.296" xmlns="http://www.w3.org/2000/svg" viewBox="0 0 216 145" height="145" width="216" data-type="ugc">
    <g>
        <path fill="#B39897" d="m158.181 23.166-5.569 2.275-3.981 3.742-2.414 2.379-.728 3.87-2.054 2.34-2.39 3.491.343 4.576v3.323l.823 2.985-.014 3.722 2.139 2.887v2.226l1.153 3.786 7.627-2.264 2.305-3.024-1.709-3.058.785-.983-.309-.889h-1.072l-.612-1.186-.437-1.389-1.136-.759-.309-4.583.923.613 1.571-.613-.612-3.919 1.208-.615 2.506-3.238 2.166-4.78 4.469-9.566z" clip-rule="evenodd" fill-rule="evenodd"/>
        <path fill="#A08C8A" d="M143.916 37.99h1.813l2.325-.368 2.848 2.588 2.446 2.504-.346 1.556-2.1-.6-1.089-1.356-1.181-2.104-.979-1.275h-1.924z" clip-rule="evenodd" fill-rule="evenodd"/>
        <path fill="#A08C8A" d="M143.435 45.478s1.723.344 2.466.435c.742.092 1.437-.435 1.437-.435l1.476 2.57 1.808 1.86v1.88l-1.758-1.407-.529-1.935-1.371-.941z" clip-rule="evenodd" fill-rule="evenodd"/>
        <path fill="#A08C8A" d="M149.242 45.478v1.155l1.381 2v-2l.695-.72v-1.642l-1.038.54z" clip-rule="evenodd" fill-rule="evenodd"/>
        <path fill="#A08C8A" d="M142.374 50.167v-.931l2.081.465 1.91 2.087 1.845-.812 1.032.812 2.522.547v1.651l-1.484-.837h-1.416l-1.183 1.271-1.672-1.27-.893-1.362-1.2-.812z" clip-rule="evenodd" fill-rule="evenodd"/>
        <path fill="#A08C8A" d="M150.28 57.515h1.484l1.146-1.144.438.572-1.534 1.559h-1.534l-1.038.254h-2.886l-1.891.724v-.724l1.891-.83-1.072-.983 2.425.572-1.353-1.144-1.072-.949h-1.368l.549-1.002v-1.056l2.564 1.715 1.259 1.343.577 1.093z" clip-rule="evenodd" fill-rule="evenodd"/>
        <path fill="#A08C8A" d="m153.712 39.24-.987-1.25-.961-1.334h-1.484l-2.296-.525-.956-.512.041-1.286 1.795.446.378-1.78 1.128.079.252 1.7 1.142.841 1.583 1.037.365.966z" clip-rule="evenodd" fill-rule="evenodd"/>
        <path fill="#403E3E" d="m146.045 64.959.442-1.84 1.943-2.23s.758-.973 1.197-1.371c.627-.213.982.05 1.665.398.386.389 1.021.973 1.021.973s.764.159 1.054.337c.243.25.379.81.379.81s.547-.408 1-.56c.531.56.799 2.403.799 2.403l-.799 3.094-1.379.468-1.043-.468-1.035.468h-1.102l-.999-.468-1.552.468-1.199-1.09z" clip-rule="evenodd" fill-rule="evenodd"/>
        <path fill="#343333" d="m147.403 67.227.47-.777.323-1.177.872-.17h.629l.412.902.235.738h.346s.129-.407.241-.407c.113 0 .084-.238.134-.33.143-.265.253-.458.253-.458l.727-.212h.5l.095 1.235-.095.551-.5-.171-.727.49h-1.1l-1.15-.417-1.583.417z" clip-rule="evenodd" fill-rule="evenodd" opacity=".681"/>
        <path fill="#131313" d="m123.877 100.517-3.316 1.375-3.085.476s-.178.327-.22.496c-.743 3.044-1.141 4.728-1.422 5.424-.451 1.116-3.789 1.447-3.789 1.447l-2.219-1.447.825-5.147 1.571-4.398 2.498-4.37.553-2.31 3.792-3.8 1.275-.892 2.577 1.277 1.957.22 2.045.827s3.648 1.996 3.652 2.367c.017 1.67-1.591 4.476-1.85 5.623-.27 1.19-.405 3.423-1.224 4.683-.146.225-3.62-1.851-3.62-1.851" clip-rule="evenodd" fill-rule="evenodd"/>
        <path fill="#1E1E1E" d="m118.174 85.86 2.165 1.511s-3.271 4.18-3.332 4.27c-.837 1.249-.875 3.227-.875 3.227l-1.297-.494-1.312-.503-.675-1.376 3.693-5.416z" clip-rule="evenodd" fill-rule="evenodd"/>
        <path fill="#131313" d="m197.826 124.266 2.236 2.809 2.559 1.906s.363.081.537.075c3.131-.125 3.609.722 4.355.8 1.197.126 2.435 3.243 2.435 3.243l-.779 2.532-5.175.626-4.661-.298-4.888-1.197-3.066.175-6.199-1.426-.617-2.132.617-3.165v-2.083l1.405-1.805s-.259-3.829.097-3.935c1.6-.477 5.912.066 7.086 0 1.218-.069 1.757-.669 3.193-.229.257.079.865 4.104.865 4.104" clip-rule="evenodd" fill-rule="evenodd"/>
        <path fill="#1E1E1E" d="m184.215 135.321.87-2.447 3.638 1.042c1.434.426 5.639 0 5.639 0l-.102 1.231-.105 1.246-1.124.903h-3.767l-4.706-.903z" clip-rule="evenodd" fill-rule="evenodd"/>
        <path fill="#C2A1A1" d="M148.814 78.882s1.813 2.816 2.422 3.711c.61.894 3.193 1.096 3.193 1.096l6.456-1.096h8.131l3.949-2.822 3.219-2.874 5.61-2.625 1.867-1.628v-2.867l-1.867-1.425.341-.194s-.84-1.183-1.066-1.587-3.131.537-3.131.537l-3.91 2.012-5.012 3.524-5.421 1.628-5.299-.781-2.901-.847h-4.463l-1.067 4.253z" clip-rule="evenodd" fill-rule="evenodd"/>
        <path fill="#CCE774" d="m156.568 73.304-5.636-.66 1.709-6.073v-5.95l1.287-7.628-1.287-7.154-.7-9.72 1.772-8.178 3.862-5h3.338l4.132-2.1 1.484 1.048 4.364-1.048h4.16l5.454 3.618 3.154 4.705.002 10.795-3.727 14.482.521 5.039-.175 7.66-4.494 2.571-5.776 2.933-3.483.66-4.291 1.035zm16.923-43.966 3.96-1.47 4.939 2.976v5.167l-1.883 8.556-5.454 3.419-2.901-2.135-3.137-2.754.585-4.855v-6.056z" clip-rule="evenodd" fill-rule="evenodd"/>
        <path fill="#AFC65B" d="m162.238 58.682 3.195-6.544 2.863-11.227.01 2.082 2.24 2.226 1.578.62 1.682 1.057-1.358 3.84-1.902 1.402-5.113 3.787z" clip-rule="evenodd" fill-rule="evenodd" opacity=".854"/>
        <path fill="#AFC65B" d="M168.987 63.433v-1.97l1.648-1.47 2.103-2.6 2.287-4.038 1.367-6.459s-.718.504-1.367 1.078c-.342-.524-1.219-1.078-1.219-1.078l-1.476 7.473-1.695 1.783-1.064 1.242-.584 1.288-2.093 1.31-.665 4.702z" clip-rule="evenodd" fill-rule="evenodd" opacity=".854"/>
        <path fill="#AFC65B" d="m170.307 71.016 1.35-4.457.783-2.574 1.366-1.913 1.868-3.39 2.754-12.843-1.625 1.057-2.914 9.11-.083 4.632-1.366.723-.783 1.684-.705.94v1.895l-1.381 2.875z" clip-rule="evenodd" fill-rule="evenodd" opacity=".854"/>
        <path fill="#AFACAC" d="m153.348 46.896 3.833 2.266h5.057l5.784-2.266 4.101-1.057 2.078 2.135 3.271-.473 3.006-2.946 3.154-2.645v4.986l-3.154 2.266-3.006 3.099-3.951-1.417-2.211-1.682-3.43 1.682-5.642 1.417-5.057 1.651-3.227-1.651z" clip-rule="evenodd" fill-rule="evenodd"/>
        <path fill="#AFC65B" d="m163.024 24.742-1.876 2.167-1.047.948-.848 2.41-.569 2.484v5.165l.569 3.995-1.678-3.996v-4.589l1.109-3.646.569-2.771 1.895-1.386 1.876-1.582z" clip-rule="evenodd" fill-rule="evenodd" opacity=".778"/>
        <path fill="#AFC65B" d="m163.15 38.86 1.279-5.934V30.38l1.8-2.993 1.793-2.753 2.191-1.52 3.309-.58-.722-.606-3.229.606-2.302 1.406-1.9 2.944-2.219 3.51-.912 2.53z" clip-rule="evenodd" fill-rule="evenodd" opacity=".778"/>
        <path fill="#AFC65B" d="m168.987 28.805 1.965-2.708 1.395-1.23 1.46-.926h1.257l.611.926v1.23l-.611.276-2.717 1.484-.016.948 1.476-.948 1.868-.739h.78v.739l1.017-.739h1.944l-1.944-.745-1.017-1.506v-.926l-1.391-1.141-1.542-.87v.87l-1.954 1.14-1.996 1.427z" clip-rule="evenodd" fill-rule="evenodd" opacity=".778"/>
        <path fill="#AFC65B" d="m155.865 40.91.71-3.052-.355-4.57V30.7l.355-2.278 3.258-5.445h-1.159l-2.809 5.445-.911 2.278v7.157z" clip-rule="evenodd" fill-rule="evenodd"/>
        <path fill="#AFACAC" d="m152.612 60.61 5.688 1.142 3.938 1.873h3.991l5.428-.58 4.017-2.436 1.216-1.555 3.392-2.632.175 3.058-1.218 2.899-2.349 1.293-.498 1.022-4.735 1.068-4.762 2.384h-4.657l-3.97-2.384h-5.656z" clip-rule="evenodd" fill-rule="evenodd"/>
        <path fill="#AFACAC" d="m166.257 47.923-1.869-9.05 1.371-5.935 2.149-5.07 6.322-2.489h4.227l2.05 2.49 1.883 2.975 1.271 8.029.002-10.056-2.434-2.708-1.784-2.156-5.895-2.012-6.253 4.168-4.119 4.298-.911 7.52v11.247z" clip-rule="evenodd" fill-rule="evenodd"/>
        <path fill="#AFACAC" d="m159.21 49.174-1.606-6.134-.008-7.483.807-6.74 4.892-7.126-2.043 1.172-2.042.115-3.227 7.43-1.342 7.52v6.54l1.342 4.706z" clip-rule="evenodd" fill-rule="evenodd"/>
        <path fill="#1E202C" d="m169.016 91.457.584 1.014 4.4 1.903 4.76 1.555 2.113.514.519 1.724 1.572.558-.267 1.672-.414.902-1.133 2.021 1.133 1.642v8.657l.834 1.299v2.212l1.29 2.528v6.473l6.914-.025h2.8l2.037-1.461 2.149-.823-1.246-4.189v-2.528l-2.004-3.511v-1.091l1.101-7.566v-4.54l-1.101-1.366 1.101-1.187.903-3.26-.903-2.113-1.101-2.36-.936-1.13v-1.22l-1.443-1.134v-1.471l-1.357-.72-4.79-4.987-4.14-6.008-5.472 2.454-6.387 3.554s-4.03 3.144-2.481 3.144 2.481 1.096 2.481 1.096l-1.516 6.422z" clip-rule="evenodd" fill-rule="evenodd"/>
        <path fill="#292C39" d="m125.356 103.145 7.745 1.879 3.618 1.778 1.889-.392 4.766 1.301 4.046 2.024 8.184-2.024v-1.877h3.669v-1.633l2.994-2.682 3.764-2.79.491-2.137 1.938-1.623 1.111-1.96 1.739-3 .375-3.765s-.021-3.71 1.28-5.239 4.296-4.722 4.296-4.722-5.032 1.364-6.766 2.855-5.521 3.455-5.521 3.455h-5.701l-8.341-3.455s-1.761 4.183-1.761 5.61 1.164 1.768 1.164 3.515-.703 3.084-.703 3.084l-.557 1.949-.929.56h-1.761l-2.414-1.948-3.323-.45-3.929-1.115s-1.343.455-2.188.455c-.393 0-.812.052-1.43-.455-.268-.219-1.736-.335-1.736-.335l-2.82.79h-1.667l-2.33 5.123v3.962z" clip-rule="evenodd" fill-rule="evenodd"/>
        <path fill="#1E202C" d="m150.792 94.374 3.052 1.05 3.091.944 1.535 1.128h5.848l1.939-.437v1.094l-1.939.384h-5.848l-2.346-1.041-2.94-1.128-2.849-1.4z" clip-rule="evenodd" fill-rule="evenodd" opacity=".521"/>
        <path fill="#1E202C" d="m147.714 97.052-.731 1.025.248 1.977v1.57h-.865l-.298-2.142-.838-2.43.817-2.678 2.099.918z" clip-rule="evenodd" fill-rule="evenodd"/>
        <path fill="#1E202C" d="M128.545 102.071h1.825l1.379-.63 2.932 1.672 4.995 1.048 3.595 1.473v1.058l-4.989-1.058-3.601-.645-2.932-.923-2.186-.953z" clip-rule="evenodd" fill-rule="evenodd" opacity=".495"/>
        <path fill="#1E202C" d="M162.267 101.519h-5.386l-2.5-1.122-2.303.561-1.743-1.583-1.812-.838 2.497 2.982 3.361.813 2.5.703h3.569z" clip-rule="evenodd" fill-rule="evenodd" opacity=".711"/>
        <path fill="#1B1D29" d="m174.864 89.647 3.445-2.049h7.36l1.938-1.39 1.116-1.112-3.054 1.113h-7.36z" clip-rule="evenodd" fill-rule="evenodd"/>
        <path fill="#1B1D29" d="M178.581 88.989h6.331l2.627-.726h5.283l-2.308.725.972.66h1.336v.736h-1.336l-2.017-.737-1.93-.324-1.838.324-3.907.737-3.213-.737 3.213 1.862 2.487 1.039 2.656.69v1.136l-2.656-1.136-3.164-.69-3.617-2.164v-1.06z" clip-rule="evenodd" fill-rule="evenodd"/>
        <path fill="#1B1D29" d="M188.723 100.397h1.322l.831.389 1.338.639 2.259-.514.56 1.364v1.592h-1.186l-1.025-.832-1.946-.76-.831-.85z" clip-rule="evenodd" fill-rule="evenodd"/>
        <path fill="#1B1D29" d="m191.879 106.18-1.278 1.403.639 2.782 1.582 2.185.985 1.835 1.227 2.72-.608-2.72-.619-1.835-1.928-2.976z" clip-rule="evenodd" fill-rule="evenodd"/>
        <path fill="#1B1D29" d="M194.251 111.07v-2.326l.782-1.934v-1.355l-.782.725-2.373-.725.944 1.355.634 1.452v2.048z" clip-rule="evenodd" fill-rule="evenodd"/>
        <path fill="#1B1D29" d="m185.161 97.052 2.952 1.374h2.487l1.278.949 1.578-1.161.712.212v1.439l-1.346.532-1.793-.532-1.364-.49h-2.053l-2.451-1.654z" clip-rule="evenodd" fill-rule="evenodd"/>
        <path fill="#1B1D29" d="m183.661 102.132.871.903.629.832.873-1.735h2.689l-1.532-1.346h-.999l-1.031-.868z" clip-rule="evenodd" fill-rule="evenodd"/>
        <path fill="#1B1D29" d="m169.6 91.318 3.378-4.808 1.886-2.18 1.725-2.926 3.918-4.507-3.918 3.997-2.463 2.795-1.959 1.957-1.639 2.617z" clip-rule="evenodd" fill-rule="evenodd"/>
        <path fill="#1B1D29" d="m171.686 90.688 2.449-1.04 2.121-2.276 1.245-2.276 3.006-1.407 2.33-.61-2.33-.486-2.459 1.096-1.792.419-1.202 2.532-.919 2.123-2.449 1.438z" clip-rule="evenodd" fill-rule="evenodd"/>
        <path fill="#1B1D29" d="m186.191 89.647 1.811 1.04 1.662.631h4.504v.733l-4.504.996-1.662-.996-1.811-.733z" clip-rule="evenodd" fill-rule="evenodd"/>
        <path fill="#373A4F" d="m152.641 95.292 3.596.52.934.644 1.125 1.137h6.34l1.621-.54.666-1.242-2.885.644h-5.129l-1.176-.644-2.129-.52z" clip-rule="evenodd" fill-rule="evenodd" opacity=".664"/>
        <path fill="#373A4F" d="m133.045 100.941 2.932 1.672 5.308.953.867 1.061 2.415.507 2.415-.507-3.631-1.061-2.066-.953-4.749-1.099z" clip-rule="evenodd" fill-rule="evenodd"/>
        <path fill="#A08C8A" d="m161.053 75.341 4.492.942 3.5-1.214 4.75-1.628 4.633-2h1.863l2.945-2.223-1.442-.867-3.243 1.858-3.686.807-3.18 1.301-2.114 1.124-4.026 1.628z" clip-rule="evenodd" fill-rule="evenodd"/>
        <path fill="#C2B0AF" d="m162.853 75.612 2.627.671 2.855-.942 4.061-1.487 6.032-2.413h1.863l2.517-1.73-1.015 1.305-1.287 1.301-2.078-.3-6.032 2.522-4.061 1.45-3.47.908z" clip-rule="evenodd" fill-rule="evenodd"/>
        <path fill="#BEA3A1" d="m165.647 21.991-.602-1.104.602-.401 1.694-.845-1.048-1.008h1.807V16.94h1.56l3.39.962 3.481.73 1.238 1.008 2.59 2.35 1.301 1.028.885 2.152v2.77l-6.014-5.5-3.481-.949-5.264.5z" clip-rule="evenodd" fill-rule="evenodd"/>
        <path fill="#A08C8A" d="m165.545 21.964.642-1.112 2.757-.405h5.214l2.19.405-3.455-1.512-1.947-.648h-2.002l.584-.75 3.365.75 2.737.648 2.754 2.121L179.56 23l1.485 2.442-1.674-1.443-2.331-1.58-3.084-.957-3.696-.61z" clip-rule="evenodd" fill-rule="evenodd"/>
        <path fill="#BAA09F" d="m172.312 45.219-1.767-2.164-.395-4.194.97-.535-.637-2.357-.333-2.97 1.833-3.302 3.734-.703 1.783-.949.928-1.104 4.503 1.104 1.237 2.538.7 3.314-.7 2.183-1.237 1.657 1.237 1.312 2.337-.723.868 1.028v1.745h2.052l3.255 1 2.728 1.337 3.136 1.783-.886 3.168-1.331 2.796-1.444 1.388-2.505.514-2.884-1.11 1.666-1.328-4.655-.113h-3.574l-5.431-.594-1.783-.581z" clip-rule="evenodd" fill-rule="evenodd"/>
        <path fill="#A08C8A" d="m175.149 45.507-2.185-2.452-.517-6.208-1.497 2.393.483 3.815 2.768 2.423z" clip-rule="evenodd" fill-rule="evenodd"/>
        <path fill="#A08C8A" d="m178.77 44.756 3.714-1.7 1.27-.978.414-1.682v-1.347l-.719-.447s-.518-1.191-.518-.675v2.283l-.542 1.48-1.345.687z" clip-rule="evenodd" fill-rule="evenodd"/>
        <path fill="#A08C8A" d="M178.551 49.502h3.678l2.509-.49h1.801l2.955.49h2.57l.608 1.3-.608 1.173h-2.57v-1.173h-3.453l-3.812-.308-5.715-.992-1.063-.49-1.653-2.984 2.188 2.072z" clip-rule="evenodd" fill-rule="evenodd"/>
        <path fill="#A08C8A" d="m171.433 36.598 1.014-2.658 1.014-3.357 2.255-1.59 2.835-.948 2.661.949 1.719 1.59-.447-1.59-1.272-.949-2.229-.489-3.267.489-2.738 1.914-.966 3.155z" clip-rule="evenodd" fill-rule="evenodd"/>
        <path fill="#A08C8A" d="m178.551 45.219 2.661.809 2.956-.809 4.894-1.783-1.687 2.592-3.62 1.056-2.543.493-1.673-.493z" clip-rule="evenodd" fill-rule="evenodd"/>
        <path fill="#D8D8D8" d="m182.545 30.395-1.332-1.401-2.662-1.053-1.006.467-1.153.397-1.191.363-1.406 1.227-1.348 3.545v2.658l2.179-3.672 1.077-2.531 1.842-.437 1.006-.79 2.997 1.227z" clip-rule="evenodd" fill-rule="evenodd" opacity=".286"/>
        <path fill="#D8D8D8" d="m178.795 45.507 2.25.52.424-.188 4.836-1.569 2.757-.623 1.763-.211 1.212.21-.573-.932-2.82-.75-1.949.977-2.527.706-3.123 1.458h-1.629z" clip-rule="evenodd" fill-rule="evenodd" opacity=".286"/>
        <path fill="#C2B0AF" d="m151.545 78.522 6.751 1.64 2.728.28 4.521-.28 3.5-1.64 3.402-2.239 6.969-2.842v.688l-6.451 2.768-3.979 2.467-3.506 2.285h-5.227l-2.602-.593z" clip-rule="evenodd" fill-rule="evenodd"/>
        <path fill="#403E3E" d="m198.27 45.84 2.305-.562 1.951-1.137h.639l1.667.276h1.567c.708 0 2.41.318 2.41.318v.772l-.533.729h-1.078s1.957 1.03 2.347 1.341c.028.023-.051.754-.3 1.063-.229.285-.629.141-.607.362.032.308.244 1.018 0 1.46-.069.125-.312-.154-.362 0-.052.159.075.127 0 .375-.047.153.328.917 0 1.31-.085.103-.132.575-.398.662-.184.06-.816-.256-.896-.256.093.139.579.756.572.942-.012.299-.572.657-.572.657h-2.15l-3.227-.24-2.602-.417-3.458-1.568z" clip-rule="evenodd" fill-rule="evenodd"/>
        <path fill="#222121" d="M206.906 46.028h-1.362l-1.573.206 2.134.542 1.634-.255z" clip-rule="evenodd" fill-rule="evenodd"/>
        <path fill="#222121" d="m208.638 49.002-.899-.464h-1.604l1.251.464 1.252.573z" clip-rule="evenodd" fill-rule="evenodd" opacity=".914"/>
        <path fill="#222121" d="m208.276 50.46-1.127-.519h-1.014l-1.614.345 2.261.43 1.494.281z" clip-rule="evenodd" fill-rule="evenodd" opacity=".914"/>
        <path fill="#2F2E2E" d="m195.545 51.927 2.035.843 1.423.725 5.116.657h2.863l.572-.657-.572-.942.897.218.58-1.018-.3-.756-2.675-.528-4.796-.528-3.351-.657z" clip-rule="evenodd" fill-rule="evenodd" opacity=".683"/>
        <path fill="#847270" d="m173.742 46.941-4.112-2.73-.585-.959V31.765l2.348-2.127 4.351-2.697 2.293.615-3.509 1.25-2.625 2.059-1.42 2.729v2.375l.89 2.394-.89.761v3.743l1.905 2.188z" clip-rule="evenodd" fill-rule="evenodd"/>
        <path fill="#D8D8D8" d="M167.046 19.131h2.939l1.238.218 2.979 1.092 1.744.4-2.15-1.084-2.573-.956h-1.238l-3.691-.168z" clip-rule="evenodd" fill-rule="evenodd" opacity=".286"/>
        <path fill="#916E61" d="M170.545 17.123v-4.279l1.902-4.406 2.211-2.958 2.524-.594 5.208 1.64 3.026 2.42.548 3.105.517 2.419-1.065 1.411 1.065 2.06-.517 1.796h-.548l-.985 1.104-.386 2.124-.239 2.132-.875 1.035-7.497-7.116z" clip-rule="evenodd" fill-rule="evenodd"/>
        <path fill="#413733" d="M185.875 17.941s-.887.555-1.248.124c-.361-.433-.196-.666-.313-1.775.556-.955 1.856-2.716 1.856-2.716l1.311 1.039v.883z" clip-rule="evenodd" fill-rule="evenodd"/>
        <path fill="#363636" d="M170.228 17.082c.665.288 3.567.983 3.567.983s.926-.984 1.796-2.035c1.006-.129 1.954-.316 1.954-.316l.968-1.799 1.278-.5 1.254 1.558h1.345l1.155-2.476-.613-1.36.731-1.22-2.194-2.832h-6.748l-1.426.306-1.862 1.84-1.205 2.03s-.433 4.226 0 5.82" clip-rule="evenodd" fill-rule="evenodd"/>
        <path fill="#3A3A3A" d="m178.037 27.556-2.091-.615-2.404 1.336-2.148 1.361-2.378 2.439.03 10.971.585 1.163 3.665 2.24.704.795-1.552-.794-3.461-2.181-.587-1.557-.03-11.044 2.75-2.63 1.845-1.171 2.738-1.42 1.48.26z" clip-rule="evenodd" fill-rule="evenodd"/>
        <path fill="#FFE8D7" d="m181.766 25.097 1.775.344 1.131-.55s.914-.832 1.226-1.255.903-1.466.903-1.466.258-.731.258-1.729c0-1.002-.578-2.5-.578-2.5l-1.218-.5h-1.218s-.917-.624-1.114-.5c-.197.125 0 1.313 0 1.313s-.708 1.099-.891 1.483c-.182.384-.477.443-.477.443l-1.096.261.309 2-.495.793z" clip-rule="evenodd" fill-rule="evenodd"/>
        <path fill="#515151" d="m185.898 17.123.904-1.21v-.928l-1.373 1.706-.241.432z" clip-rule="evenodd" fill-rule="evenodd" opacity=".428"/>
        <path fill="#FFE8D7" d="m173.295 7.327 11.137 5.364 3.05 1.922s-.284 1.722 0 1.44c.131-.13 1.305-.757 1.9-1.813.259-.46.276-.748 0-1.549s0-.116 0-.116.196-3.748.251-4.411c.072-.862-.903-1.767-.919-1.824-.92-2.351-1.7-3.742-3.895-5.399-3.449-1.428-3.686-.807-5.23-.807-1.988 0-3.643 1.791-3.643 1.791l-1.745 1.37-1.403.568-1.629 3.079s.54-.266 1.184-.149c.645.117.942.534.942.534" clip-rule="evenodd" fill-rule="evenodd"/>
        <path fill="#9C9B9B" d="m172.92 3.997 1.961.51 1.306.604 1.36.791s1.416 1.078 2.042 1.485 3.343 1.714 3.343 1.714l-4.895-3.251-1.558-.964s-.079-.361-.691-.69-1.743-.617-1.743-.617z" clip-rule="evenodd" fill-rule="evenodd"/>
        <path fill="#9C9B9B" d="m174.96 8.164-1.917-1.08-1.237-.474h-.227l-.257.2.768.965.485.389.468-.389s-.283-.36.252-.251c.536.108 1.665.64 1.665.64" clip-rule="evenodd" fill-rule="evenodd"/>
        <path fill="#CCCCCC" d="m182.781.941 2.116.777.923.51.795.936.881 1.218s.515.892.728 1.327.489 1.425.489 1.425l-.217.317s-.438-.793-.68-1.285-.596-1.199-.596-1.199l-1.018-1.145-.816-.922-.708-.672-2.633-1.023z" clip-rule="evenodd" fill-rule="evenodd"/>
        <path fill="#FFE8D7" d="m183.252 17.123-.91-1.614-1.045-2.216-.566-.245-.45.245.764.641.756 1.575 1.13 2.116z" clip-rule="evenodd" fill-rule="evenodd"/>
        <path fill="#FFE8D7" d="m181.51 20.841-1.228-.808-.866-.737-1.378-1.043-1.2-.628-1.383-.684-1.007-.368-3.328-.52v.52l3.328.55 1.007.502 1.383.628 1.2.62 1.076.719.931 1.04 1.465.96z" clip-rule="evenodd" fill-rule="evenodd"/>
        <path fill="#2F271E" d="M175.946 17.654h1.236l1.331-.735.903-1.178.865-2.452.235-1.582-1.1-1.599-2.028-.454-1.442.9-1.288 2.229-.613 2.117.156 1.61z" clip-rule="evenodd" fill-rule="evenodd"/>
        <path fill="#DC7D48" d="m177.78 10.139-1.466.704-1.091 1.732-.681 2.41.417 1.069 1.355.887 1.182-.185 1.235-.842 1.204-2.59v-1.916l-.958-.98z" clip-rule="evenodd" fill-rule="evenodd"/>
        <path fill="#F7935B" d="m177.352 10.565.573-.186.811.209.638.799.215.53-.215.774-.638-.335-.223-.82-.588-.15-.686-.24z" clip-rule="evenodd" fill-rule="evenodd"/>
        <path fill="#AF6131" d="m179.111 13.345-.439 1.035-.703.956-.424.378.424.2s.094-.146.254-.405c.161-.26.77-1.129.77-1.129l.423-.84z" clip-rule="evenodd" fill-rule="evenodd"/>
        <path fill="#AF6131" d="m175.377 15.336.247.405.322.173.67.14v.34l-.813-.199-.426-.281-.417-.405z" clip-rule="evenodd" fill-rule="evenodd"/>
        <path fill="#F8CC6C" d="M186.802 22.224h-.625l-.797 1.039-.561 1.07s0 .217.369.474c.622-.474.989-.987.989-.987l.625-1.179z" clip-rule="evenodd" fill-rule="evenodd"/>
        <path fill="#B39249" d="m186.224 22.441-.652.887.238.187.671-.82z" clip-rule="evenodd" fill-rule="evenodd"/>
        <path fill="#B39249" d="m185.351 23.583-.306.745.237.187.327-.677z" clip-rule="evenodd" fill-rule="evenodd"/>
        <path fill="#DBD0C9" d="m182.932 25.367.538.074s.146-.922 0-1.049c-.147-.126-1.08-.343-1.08-.343l-.39.255-.703-1.138h-.649l-.191.35 1.053 1.635z" clip-rule="evenodd" fill-rule="evenodd"/>
        <path fill="#D8D8D8" d="m182.932 11.535 3.095.654 2.687.859 1.796 1.581v1.236l-1.796.53-1.654-.481.421-.93z" clip-rule="evenodd" fill-rule="evenodd"/>
        <path fill="#5B5B5B" d="m177.239 12.691-2.28-1.156-.417-1.396h-1.247l-1.973-.485-2.275-.553h-2.754v1.038l-.748 1.396 2.136 3.094 2.33 2.292v-2.292l-1.716-1.581-.998-2.669 1.75-.24 2.275 1.396h1.597l1.126 1.156 2.792 1.274z" clip-rule="evenodd" fill-rule="evenodd"/>
        <path fill="#FD4755" d="m10.682 103.835 26.915-45.44c1.851-3.126 6.344-3.126 8.196 0l26.915 45.44c1.898 3.205-.394 7.272-4.098 7.272H14.78c-3.705 0-5.997-4.067-4.098-7.272"/>
        <path fill="#FB2B3A" d="M32.396 111.107h36.213c3.705 0 5.997-4.067 4.098-7.272l-19.665-33.2a34 34 0 0 1 .746 11.17c-1.93 19.378-19.6 28.414-20.744 28.975q-.33.17-.648.327"/>
        <path fill="#FED402" d="M14.779 107.294c-.784-.027-1.22-.753-.805-1.505L40.889 60.35c.416-.651 1.205-.643 1.61 0l26.915 45.439c.415.755-.017 1.477-.805 1.504z"/>
        <path fill="#F7BC09" d="M53.934 79.654a34 34 0 0 1-.145 2.15c-.387 3.89-.866 10.518-2.26 13.59-3.227 7.106-8.995 8.906-12.986 11.9h30.066c.789-.028 1.22-.75.805-1.505z"/>
        <path fill="#554E56" d="M42.5 92.993c-.656 0-1.201-.53-1.253-1.216l-1.21-15.915c-.114-1.509 1.021-2.8 2.463-2.8s2.578 1.291 2.463 2.8l-1.21 15.915c-.052.686-.597 1.216-1.253 1.216"/>
        <path fill="#554E56" d="M42.5 100.914c1.09 0 1.975-.928 1.975-2.073s-.884-2.074-1.975-2.074c-1.09 0-1.975.929-1.975 2.074s.885 2.073 1.975 2.073"/>
    </g>
</svg>
