<svg width="83" height="176" viewBox="0 0 83 176" fill="none" xmlns="http://www.w3.org/2000/svg">
<path opacity="0.991908" fill-rule="evenodd" clip-rule="evenodd" d="M49.6496 83.7596L52.4645 83.938L60.691 90.9768L62.6217 95.8008L60.691 100.058L57.5431 103.748L57.3104 106.307H56.4145L53.3785 110.647L51.3164 114.567L49.7338 116.221C49.7338 116.221 49.6496 118.732 49.7338 120.028C49.2413 120.333 48.53 121.154 47.7102 122.1C46.7535 123.204 45.6492 124.479 44.5726 125.303C43.6333 124.829 40.4327 124.341 40.4327 124.341L38.5181 121.514C38.5181 121.514 37.6364 118.975 37.2857 118.541C36.9349 118.107 35.2999 117.817 35.2999 117.817L32.147 115.934L29.3076 108.88L31.7441 99.8938L33.8912 97.1917L34.5984 95.1587L35.8221 94.5171L36.3648 91.7715L37.9761 89.3326L40.0861 87.9896V86.2416L41.4994 83.7596L44.5223 84.3488L46.5719 83.938L49.6496 83.7596ZM51.5842 88.9086L52.4645 86.8341L56.5592 88.9086L56.9593 92.2593V95.4511L55.8029 97.6507L54.7393 98.5448C54.7393 98.5448 53.0382 103.387 52.3295 105.907C51.6207 108.427 51.3164 110.982 51.3164 110.982L48.3511 112.348V111.317L49.6496 107.9V105.153L51.3164 102.765V98.4028L52.0243 93.9236L51.5842 91.2414V88.9086Z" fill="#CD462C"/>
<path fill-rule="evenodd" clip-rule="evenodd" d="M34.5986 95.4511L35.8223 94.5171L37.2364 98.5448L37.9763 101.241V105.599L36.0467 101.896V99.5913L35.0802 96.5414L34.5986 95.4511Z" fill="#E95134"/>
<path fill-rule="evenodd" clip-rule="evenodd" d="M49.6498 85.7022L50.6637 84.7597V83.938L49.6498 84.3488L48.2599 84.8201V83.938L46.5721 84.3488L45.9648 85.7022L48.2599 86.3068V88.9087V91.2414V93.9237L49.0053 90.3139L50.6637 87.9897L52.0263 86.8342H50.6637V85.7022H49.6498Z" fill="#E95134"/>
<path fill-rule="evenodd" clip-rule="evenodd" d="M40.2158 114.1L36.9328 111.701L35.8224 109.614L35.0803 106.634L34.5987 104.531L34.1172 107.9L34.5987 110.647L36.2876 112.858L40.2158 114.1Z" fill="#E95134"/>
<path fill-rule="evenodd" clip-rule="evenodd" d="M34.1171 96.5414L35.5233 99.5913L35.8224 102.765L37.2069 105.081L37.9764 106.634L39.5473 111.317L37.1664 110.647L36.3651 107.9V105.907H35.3001L34.1171 103.747V100.058L32.8242 98.5447L34.1171 96.5414Z" fill="#808080"/>
<path fill-rule="evenodd" clip-rule="evenodd" d="M37.9765 89.6954V91.7715V94.5171L38.5185 96.5414L39.5475 98.1745L38.762 100.058L37.9765 99.5913L37.1666 96.5414L36.3652 93.7026V91.7715L37.9765 89.6954Z" fill="#808080"/>
<path fill-rule="evenodd" clip-rule="evenodd" d="M40.4326 89.6954L42.1923 88.3818L42.8367 85.9369H45.2407V84.7596H42.4791H41.4993L40.7079 86.8341L40.4326 89.6954Z" fill="#84312B"/>
<path fill-rule="evenodd" clip-rule="evenodd" d="M46.9574 105.907L49.2135 108.88L48.3508 110.982L46.0488 108.444L46.9574 105.907Z" fill="#808080"/>
<path fill-rule="evenodd" clip-rule="evenodd" d="M52.6926 106.307L53.9019 107.9L54.7395 108.226L53.3788 110.647L52.4647 109.798L52.0264 108.226C52.0264 108.226 52.3155 107.306 52.4647 106.876C52.614 106.446 52.6926 106.307 52.6926 106.307Z" fill="#808080"/>
<path fill-rule="evenodd" clip-rule="evenodd" d="M59.9567 91.7715L59.1968 92.5963L58.3235 93.9237H59.1968L58.8279 95.4511L58.2559 96.5414L59.1968 97.1629L59.9567 95.4511L60.691 93.9237L61.4165 94.8768L60.691 96.178L59.8362 97.6507L61.4165 96.5414L62.29 95.4511L61.0668 92.5963L59.9567 90.9768V91.7715Z" fill="#E95134"/>
<path fill-rule="evenodd" clip-rule="evenodd" d="M48.4072 112.348L51.3166 110.647L52.4646 106.634L52.9834 105.907L53.3829 103.748L54.2775 102.765C54.2775 102.765 54.2728 103.144 54.2775 102.316C54.2823 101.488 54.9575 99.2979 54.9575 99.2979L55.5193 98.1746L56.2521 98.4028L55.5193 99.2979L55.1705 100.058L54.7395 102.765L54.5441 103.518L53.6813 104.337L53.3829 106.307L52.7253 106.858L51.5844 110.982L48.6838 112.61L48.4072 112.348Z" fill="#515151"/>
<path fill-rule="evenodd" clip-rule="evenodd" d="M48.3514 112.21L49.65 107.9V105.081L50.8629 103.384V100.671L51.3168 98.878V96.5414L51.5845 95.4511V92.4589H51.3168L50.8629 95.4511V96.5414V98.878L50.2872 100.671V103.384L49.2142 104.76V107.9L47.8838 111.93C47.8838 111.93 48.4598 113.692 48.5335 114.219C48.594 114.652 48.6922 115.473 48.6922 116.352C48.6922 117.231 48.2473 118.374 48.26 118.65C48.2866 119.229 48.0711 120.046 48.26 119.607C48.3497 119.398 48.9192 116.343 48.9269 116.352C48.9635 116.393 48.9192 115.455 48.785 114.085C48.7359 113.584 48.3514 112.21 48.3514 112.21Z" fill="#515151"/>
<path fill-rule="evenodd" clip-rule="evenodd" d="M40.0861 122.509L38.5181 126.512L37.1661 134.827L35.822 148.332L25.2422 140.442L25.9882 128.66L27.6824 117.817L34.1168 112.349L40.0861 122.509Z" fill="#18212F"/>
<path fill-rule="evenodd" clip-rule="evenodd" d="M47.18 156.887L48.6657 157.685L50.3456 156.887H52.0256L52.464 154.24L53.0635 151.32L52.464 150.026L52.9828 149.26L52.464 147.575L53.0635 145.372V141.902L52.464 139.339L51.5837 138.214L52.464 137.167L52.9828 134.678L52.0256 133.857V130.547L52.464 127.301L46.0486 125.303L45.4108 137.167L43.6328 157.685L47.18 156.887Z" fill="#151C26"/>
<path fill-rule="evenodd" clip-rule="evenodd" d="M52.4648 162.944H54.5443H56.136V161.837L54.3004 160.766L52.4648 161.837V162.944Z" fill="#2D2D30"/>
<path opacity="0.440616" fill-rule="evenodd" clip-rule="evenodd" d="M51.5837 150.026H50.7432L48.3506 151.32V152.156L49.9671 151.32L51.1639 152.156L51.5837 151.091V150.026Z" fill="#11161E"/>
<path opacity="0.440616" fill-rule="evenodd" clip-rule="evenodd" d="M48.3515 148.332H49.2142L49.968 146.852H51.3168L52.0265 145.795H50.189L48.2601 144.359V146.346L47.6318 148.332" fill="#11161E"/>
<path opacity="0.440616" fill-rule="evenodd" clip-rule="evenodd" d="M48.666 142.671L49.6495 143.407L49.9675 141.095L51.3163 140.442V138.214L49.9912 139.339L48.666 141.095V142.671Z" fill="#11161E"/>
<path opacity="0.440616" fill-rule="evenodd" clip-rule="evenodd" d="M51.3163 133.857L52.026 134.827L51.3163 136.005H49.9912L48.666 137.167V135.512L49.8286 134.827L51.3163 131.612V133.857Z" fill="#11161E"/>
<path opacity="0.974168" fill-rule="evenodd" clip-rule="evenodd" d="M48.7339 157.277L50.3464 156.884H52.0264L52.4647 157.685L52.9835 158.18L53.3281 158.814H55.1265L56.4148 160.019L57.0983 162.398L56.4935 163.511L56.1359 164.169L53.953 164.973H50.9995L48.6664 164.169H47.6317L46.5246 163.511C46.5246 163.511 46.3465 158.839 46.5246 157.277C46.7026 155.715 47.1532 156.884 47.1532 156.884L48.7339 157.277Z" fill="#282827"/>
<path fill-rule="evenodd" clip-rule="evenodd" d="M55.0714 158.92L53.5624 159.291L52.4643 160.027L52.2541 160.894L52.1391 161.855L51.7057 161.619L51.584 161.553L51.8158 160.213L52.1391 159.291L53.3277 158.92H55.0714Z" fill="#232322"/>
<path fill-rule="evenodd" clip-rule="evenodd" d="M47.6319 125.939L49.2142 126.05H50.8849L51.3169 124.702L51.5846 122.541L51.3169 121.326L49.2142 120.028L44.573 118.541L41.4998 119.123L41.0029 122.509L41.4998 124.201L46.3404 125.621L47.6319 125.939Z" fill="#7B6452"/>
<path fill-rule="evenodd" clip-rule="evenodd" d="M51.3166 122.302L51.0909 121.514L50.338 120.79L48.9956 120.028L45.9648 119.123L46.1597 120.79L48.6407 121.326L49.734 121.514L51.3166 122.302Z" fill="#555555"/>
<path fill-rule="evenodd" clip-rule="evenodd" d="M47.1807 122.791L48.2599 123.089L48.6407 123.831L49.6498 124.201L51.3166 124.702L50.8847 125.76H49.6498L48.6407 125.074L47.8836 124.702L45.9648 124.201L47.1807 122.791Z" fill="#463B34"/>
<path fill-rule="evenodd" clip-rule="evenodd" d="M36.3657 124.835L37.167 123.831V121.514L37.2865 118.541L36.2881 117.817L34.5993 117.817H33.8921L27.6243 118.347L25.6841 118.341L24.7051 121.326V123.089L26.0057 123.831L26.8651 124.091L27.9077 124.702L36.3657 124.835Z" fill="#715E4A"/>
<path fill-rule="evenodd" clip-rule="evenodd" d="M24.7051 120.028L27.6833 119.837L29.6405 119.933L33.1387 120.028L37.167 120.79V118.541L35.3007 117.817H33.1387L29.6405 118.341H26.8651L25.4188 118.347L24.7051 120.028Z" fill="#464140"/>
<path fill-rule="evenodd" clip-rule="evenodd" d="M25.4189 121.9L28.3279 121.514L30.9362 121.707H32.8249L35.3009 121.9L37.1672 122.817V123.089L35.3009 122.509L32.8249 122.302H30.996L28.3279 121.9L25.4189 122.509V121.9Z" fill="#393433"/>
<path fill-rule="evenodd" clip-rule="evenodd" d="M37.1669 147.575L41.074 136.192L41.065 133.878L42.0299 131.612L41.9655 123.831C41.9655 123.831 45.2252 123.21 46.4361 123.831C47.6469 124.452 48.7345 127.301 48.7345 127.301L48.2604 134.827L48.4078 145.221L47.8842 154.038L46.5726 157.77V164.973L46.0499 172.124L40.4335 171.302L35.8229 169.723L25.684 161.837L23.2686 150.026L24.705 138.214L27.6242 134.827L29.3084 127.301L28.3277 122.817L36.3656 124.091L37.1669 126.512L36.1826 127.951L37.1669 132.642L36.3656 137.167L37.1669 147.575Z" fill="#484848"/>
<path opacity="0.670294" fill-rule="evenodd" clip-rule="evenodd" d="M46.5164 133.878L45.6777 135.412L46.5164 137.265L44.5738 155.065L44.2695 160.766V166.806L45.4125 160.766L45.9659 156.167L47.1542 137.265L47.0697 135.412L46.5164 133.878Z" fill="#3B3B3B"/>
<path opacity="0.631789" fill-rule="evenodd" clip-rule="evenodd" d="M40.5937 157.109L41.8689 156.003H43.3877L44.3659 157.109L43.3877 157.836H42.4798V158.969L43.5171 159.524V160.639L42.4798 161.141L40.5937 161.837V160.639L41.8689 159.524V158.92V157.836L40.4678 158.92V157.109" fill="#3B3B3B"/>
<path fill-rule="evenodd" clip-rule="evenodd" d="M27.6836 137.167L30.7986 127.651H31.7452L29.3087 135.77C29.3087 135.77 29.5531 137.029 29.839 137.853C30.2053 136.74 31.0021 133.876 31.5538 132.788C31.8891 132.126 32.6169 130.632 33.3078 129.65C33.4178 129.493 33.4364 129.841 33.4364 129.841C33.4364 129.841 32.8868 131.012 31.7452 133.121C31.1336 134.91 30.2194 139.248 30.2194 139.248C30.2194 139.248 29.5394 141.14 29.5394 142.671C29.6407 142.476 31.4492 138.664 31.6052 138.414C32.1297 137.572 32.1485 137.554 32.1485 137.554C32.1485 137.554 30.0003 141.699 29.839 142.957C29.6777 144.326 29.7144 146.348 29.7144 146.348C29.7144 146.348 30.4963 144.063 31.088 142.957C31.3831 142.405 32.2064 140.418 32.5811 139.828C32.5811 139.962 32.6653 140.059 32.6653 140.059C32.6653 140.059 31.2901 142.775 30.7986 144.026C30.3057 145.279 29.9547 146.178 29.7144 147.078C30.2194 149.243 30.2194 150.342 30.2194 150.342L30.7986 154.462L30.2194 157.685L30.8369 160.766C30.8369 160.766 28.8887 159.24 27.908 157.685C27.908 156.003 27.908 153.365 27.908 153.365L27.6836 148.332L27.908 144.026L28.6327 139.248L27.6836 137.167Z" fill="#3C3C3C"/>
<path opacity="0.572521" fill-rule="evenodd" clip-rule="evenodd" d="M41.2783 155.065L42.8492 152.156L44.3664 150.816L42.8492 150.026L41.2783 151.32L39.667 155.065H41.2783Z" fill="#3B3B3B"/>
<path fill-rule="evenodd" clip-rule="evenodd" d="M36.7451 142.671C36.7451 142.671 36.9988 144.621 36.9988 145.483C36.9988 146.346 37.4174 147.783 37.4174 147.783L38.5193 153.473L38.523 155.394L38.2614 156.383L38.5193 157.218L38.2614 159.898L37.669 162.443L37.9064 158.214L37.669 155.394L37.5525 153.473L36.9359 148.258L36.7451 142.671Z" fill="#3B3B3B"/>
<path fill-rule="evenodd" clip-rule="evenodd" d="M36.3652 168.881L40.8938 171.068L42.4796 171.903H45.1591L45.9651 170.223L46.1839 164.684L44.8431 167.306L42.4796 169.165H40.8938L37.8602 168.294L36.3652 168.881Z" fill="#3D3B3B"/>
<path opacity="0.100446" fill-rule="evenodd" clip-rule="evenodd" d="M45.7111 171.903L45.9651 166.806L47.6319 162.944L47.1534 156.884L48.641 153.473L48.7342 139.339L47.8839 134.827L46.5248 146.346L45.7111 156.003L44.5731 162.944L43.6338 170.17L45.7111 171.903Z" fill="#626161"/>
<path fill-rule="evenodd" clip-rule="evenodd" d="M36.3656 140.811L35.3007 144.026L34.5992 146.346L33.892 152.545V154.462L33.1387 152.156L33.892 146.346L34.5992 143.407L35.8229 140.039L36.1863 136.688L36.3656 140.811Z" fill="#3C3C3C"/>
<path opacity="0.683012" fill-rule="evenodd" clip-rule="evenodd" d="M36.0018 127.951L35.3009 135.852L34.7524 140.442L32.5811 149.03L33.8922 140.442L34.2914 135.852L35.8231 127.301L36.0018 127.951Z" fill="#3C3C3C"/>
<path fill-rule="evenodd" clip-rule="evenodd" d="M14.3027 168.03L14.7133 170.636L16.2671 172.032C16.2671 172.032 18.3524 172.217 19.2706 172.032C20.1888 171.847 21.3149 171.173 21.3149 171.173L24.7043 172.032L30.7705 171.173H33.4547L36.182 169.723V168.03L35.6087 165.583L32.9324 164.973H28.8867L22.1643 167.209L15.4065 165.583L14.3027 168.03Z" fill="#161616"/>
<path fill-rule="evenodd" clip-rule="evenodd" d="M6.27637 126.512L6.97316 132.174V142.671L7.94506 145.505V150.026L10.5109 157.676L11.6336 164.973L12.5409 168.881L20.5315 166.814V153.634L16.6531 138.214L11.6336 125.602L7.94506 119.837L6.27637 126.512Z" fill="#19212E"/>
<path fill-rule="evenodd" clip-rule="evenodd" d="M21.2702 165.713L20.5312 167.307L21.2702 169.723L21.3153 172.291L24.0702 173.127H26.6094L31.218 174.03L36.6352 174.472H39.4327L41.0648 172.291V170.89L36.6352 168.881H35.3004L32.6537 167.307L29.9997 164.973H23.2683L21.2702 165.713Z" fill="#1E1E1E"/>
<path fill-rule="evenodd" clip-rule="evenodd" d="M4.65039 109.798L5.63596 123.368L10.0373 139.811L16.2675 159.767L19.0939 168.881H24.8636L27.8615 167.771L31.3199 166.721H33.8917V163.462L31.3199 161.837L29.5877 159.767L27.8615 157.864V153.292L26.1869 148.452V144.118L27.8615 139.811L26.1869 134.933L24.8636 130.722V126.512V123.368L26.1869 119.49L24.8636 114.181L22.0274 112.924C22.0274 112.924 15.5365 110.654 8.74545 109.798C6.70845 109.431 4.65039 109.798 4.65039 109.798Z" fill="#1B2739"/>
<path fill-rule="evenodd" clip-rule="evenodd" d="M29.4334 163.583L26.651 162.783L24.6975 161.369L22.6076 158.674L20.1575 155.659L17.9901 152.719L16.0174 149.238L14.097 144.061L12.54 139.339V141.55L14.097 148.232L17.0406 153.763L20.1575 158.674L23.7356 162.783L26.651 164.973H29.9991L29.4334 163.583Z" fill="#19212E"/>
<path fill-rule="evenodd" clip-rule="evenodd" d="M28.327 161.837V159.943L26.8738 158.99L26.3859 156.894L24.4762 155.582L20.166 150.149L17.6988 144.906L14.3027 138.214L16.6665 146.291L20.166 152.852L24.4762 158.102L28.327 161.837Z" fill="#19212E"/>
<path fill-rule="evenodd" clip-rule="evenodd" d="M26.0054 155.065L23.8201 152.156L20.5312 147.575H23.8201L25.2066 151.32L26.0054 153.264V155.065Z" fill="#19212E"/>
<path fill-rule="evenodd" clip-rule="evenodd" d="M22.1348 139.339L24.6366 138.214L26.0051 140.961V142.671H24.6366L22.1348 139.339Z" fill="#19212E"/>
<path fill-rule="evenodd" clip-rule="evenodd" d="M26.0048 137.167V135.298L24.0696 132.438L22.1344 131.351L18.0371 130.547L22.1344 132.438L24.8212 135.298V137.167H26.0048Z" fill="#19212E"/>
<path opacity="0.708519" fill-rule="evenodd" clip-rule="evenodd" d="M24.0696 123.089L24.7042 119.113L23.2677 117.971L18.0371 115.157L22.1344 119.113L23.2677 119.782V121.72L24.0696 123.089Z" fill="#19212E"/>
<path fill-rule="evenodd" clip-rule="evenodd" d="M24.0698 130.547V129.32L22.1346 127.148L19.9563 126.512L18.0373 124.176L14.3027 119.123L17.0119 124.835L19.1862 127.884L21.3708 128.612L23.2679 129.941L24.0698 130.547Z" fill="#19212E"/>
<path opacity="0.128069" fill-rule="evenodd" clip-rule="evenodd" d="M24.0698 129.32V126.512H22.1346L20.5308 124.835L18.0373 123.089L14.3027 118.341L18.0373 124.835L21.2697 126.512L23.2679 127.91L24.0698 129.32Z" fill="#2C3F5B"/>
<path fill-rule="evenodd" clip-rule="evenodd" d="M3.26465 109.798H8.74536L16.3001 111.317C16.3001 111.317 21.2876 112.785 23.376 113.475C23.6176 113.781 23.8035 113.846 23.9832 113.91C24.2028 113.987 24.4131 114.061 24.7046 114.567C24.8005 114.733 24.901 115.169 25.0333 115.742L25.0333 115.742C25.2025 116.476 25.4235 117.434 25.7529 118.341C25.7832 118.425 26.367 117.322 26.367 117.322L29.6401 115.157L30.8362 107.9L32.8243 99.6051V92.2526L32.2302 89.6377V85.7022L30.8362 79.4737V77.7252L29.4894 77.1023L26.0052 71.615L22.5319 71.0949L20.1875 71.615L18.0445 72.8618L15.1443 74.5415L12.4546 77.7252L12.155 80.15L8.74536 86.6896L9.01616 89.0026L7.99695 90.7674V92.5974L6.82083 93.7019L6.04812 95.1907L6.27593 97.928L5.71204 99.6051L5.25016 100.75L5.71204 102.762L3.7718 105.599L3.26465 109.798ZM15.5427 82.8933L16.4181 85.7022L20.973 89.1174L26.3935 90.3139H28.7645L30.8362 87.2992L31.7445 83.938L29.9034 79.0234L21.5116 75.4058L21.5125 75.41L20.2972 75.9972L17.394 77.4307L15.7864 80.2653V82.8732L15.5427 82.8933ZM15.7615 77.8525L18.1193 75.4349H20.3117L20.0787 75.5474L20.0768 75.5484L17.1038 77.0164L17.0349 77.0504L16.997 77.1172L15.3225 80.0698L15.267 79.7373L15.7615 77.8525Z" fill="#CCE774"/>
<path fill-rule="evenodd" clip-rule="evenodd" d="M15.5361 81.9659C15.5361 81.9659 15.0499 81.2832 15.0359 80.637C15.0291 80.3223 14.952 79.3324 15.0359 79.029C15.5893 77.0282 15.5361 77.1906 17.4116 75.1849C19.0877 74.888 21.915 74.5414 21.915 74.5414L24.5816 75.1736L19.5035 77.7252L18.0372 79.029L15.5361 81.9659Z" fill="#7F8D2F"/>
<path opacity="0.822219" fill-rule="evenodd" clip-rule="evenodd" d="M24.0698 118.341L22.1346 117.245L20.5308 116.483L14.3027 114.1H15.5395L21.3149 115.57L24.0698 116.483L24.7043 118.341H24.0698Z" fill="#202D42"/>
<path fill-rule="evenodd" clip-rule="evenodd" d="M27.2708 75.4045L24.0698 74.5414L20.5308 75.4045L17.2141 77.315L15.5361 80.3553V83.1028C15.5361 83.1028 15.9458 84.769 16.2277 86.0099C17.2141 86.6478 18.0373 87.9521 18.0373 87.9521L19.2707 90.1892L19.5035 94.0914L20.5308 95.8789L21.4035 97.464L21.2697 101.033L23.2679 103.222V106.884L24.7043 109.649L26.0049 110.77V112.954V115.19L27.2708 118.541H30.9799L33.8913 115.19L35.3 111.691V109.649H33.8913V106.884L32.5316 105.361L33.8913 103.222L31.8394 101.033L32.5316 98.4426L30.9799 96.5414V92.864L29.9993 91.2147L31.8394 87.9521L32.5316 84.5677L30.9799 80.3553L27.2708 75.4045Z" fill="#202E43"/>
<path opacity="0.317267" fill-rule="evenodd" clip-rule="evenodd" d="M24.7051 106.634L25.4188 108.077H27.7967H30.7009V109.798H31.2923L32.8248 108.828V109.798L30.7009 111.317H28.7649L26.0057 110.417L25.4188 108.976L24.7051 106.634Z" fill="#19212E"/>
<path fill-rule="evenodd" clip-rule="evenodd" d="M30.8363 99.6051V98.5448H29.2012C29.2012 98.5448 28.8428 97.2253 28.4464 96.5764C28.0087 95.9512 27.1802 95.9512 27.1802 95.9512L24.7048 92.625L23.5555 89.2433L20.5312 83.938L22.0216 89.2433L24.0702 94.5391L27.1802 97.9212L28.7646 99.6051H30.8363Z" fill="#212833"/>
<path opacity="0.538249" fill-rule="evenodd" clip-rule="evenodd" d="M24.0703 101.896H24.7049L28.3276 103.093V104.1L31.7448 103.093V104.862L27.9075 105.599L26.6539 104.862L24.0703 103.093V101.896Z" fill="#212833"/>
<path fill-rule="evenodd" clip-rule="evenodd" d="M27.9075 99.6051V101.023L26.4734 101.896L24.0703 100.75H26.0055L27.9075 99.6051Z" fill="#212833"/>
<path fill-rule="evenodd" clip-rule="evenodd" d="M24.7051 106.634L26.0057 107.88H30L30.8366 109.798L32.8248 108.828L31.745 107.88L30.8366 106.634H26.0057H24.7051Z" fill="#28303D"/>
<path opacity="0.463751" fill-rule="evenodd" clip-rule="evenodd" d="M20.5312 84.6336L23.5555 89.2433L24.7048 92.625L27.1802 95.9512L28.4464 96.5764L29.2012 98.5448H30.8363L30.3476 97.4915L28.7646 95.2577L27.1802 94.5912L25.4185 91.7716L24.0702 88.7728L20.5312 83.938" fill="#293850"/>
<path fill-rule="evenodd" clip-rule="evenodd" d="M30.8364 77.7252C30.8364 77.7252 32.3582 78.5369 33.0802 78.3583C33.8022 78.1796 34.0179 76.9735 34.0179 76.9735L34.8247 75.7407L34.6518 74.9964H35.4852L35.6866 74.0565L37.481 74.5415V71.0949L38.2177 70.5816L38.5187 67.3204V65.7637L32.8246 60.869L30.0819 61.7653L27.4428 64.545L26.4315 67.3204L26.0684 67.9772L26.8931 72.0905L27.9075 74.5415L30.8364 77.7252Z" fill="#916E61"/>
<path fill-rule="evenodd" clip-rule="evenodd" d="M27.2386 68.9223L28.6375 69.3621H29.4811L30.2308 68.9223L31.4537 66.8515H32.0565H32.2936L32.8246 67.376V68.5121L32.2936 69.3621H33.2641H33.6575L34.766 70.1289L35.3005 69.3621L35.9798 68.0947L37.0014 66.8515H37.9864L38.5187 67.376H39.8668V65.4446L39.4199 64.1206L37.388 61.2136L35.9798 60.1502L33.5527 59H31.1784L29.4811 60.869L26.9883 63.3801L26.0684 66.0826V67.376V67.9772L27.2386 68.9223Z" fill="#363636"/>
<path fill-rule="evenodd" clip-rule="evenodd" d="M38.264 70.1289H36.5945L35.3008 70.4892L36.7383 71.0949H37.4813C37.4813 71.0949 37.896 70.7986 38.218 70.5816C38.218 70.4892 38.264 70.1289 38.264 70.1289Z" fill="#7E6055"/>
<path opacity="0.712542" fill-rule="evenodd" clip-rule="evenodd" d="M35.798 73.8867L35.5234 73.7404L35.95 73.5206L36.4208 73.5206L37.0195 74.0661L37.2071 74.3495L36.1523 74.0661L35.798 73.8867Z" fill="#7E6055"/>
<path opacity="0.704427" fill-rule="evenodd" clip-rule="evenodd" d="M29.9998 90.7674L27.9075 84.5449L24.7049 82.1585L24.0703 80.637L29.9998 83.2491L31.7448 88.2044L29.9998 90.7674Z" fill="#212833"/>
<path fill-rule="evenodd" clip-rule="evenodd" d="M29.4895 77.1023L27.0871 73.5029L25.9888 71.7483L22.9391 70.6637L20.5312 71.7483H19.6621V70.3974L20.5312 69.5358V67.4078L22.6262 66.4558H24.7048L27.0871 68.5121V69.5358L27.9074 73.5029L30.0395 76.3465L30.8363 77.7252L29.4895 77.1023Z" fill="#202E43"/>
<path fill-rule="evenodd" clip-rule="evenodd" d="M20.1875 71.8857L22.5319 69.6468L25.2491 70.1624L26.8875 71.0949L27.9073 74.5415L25.9887 71.7483L24.0701 71.3241L22.5319 71.0949L20.1875 71.8857Z" fill="#212833"/>
<path opacity="0.457473" fill-rule="evenodd" clip-rule="evenodd" d="M26.0049 114.1L29.7597 115.157L30.8358 114.1L30.9798 117.361L29.7597 118.341L27.2707 117.361L26.0049 114.1Z" fill="#2B3D58"/>
<path opacity="0.353516" fill-rule="evenodd" clip-rule="evenodd" d="M20.5314 105.599L18.208 107.127L16.5537 109.798V110.647L19.6623 107.127L21.3714 107.564L22.6014 108.216C22.6014 108.216 23.1721 107.9 23.5482 107.498C23.2972 107.054 23.3907 106.857 23.3907 106.634C23.0848 106.862 22.6014 107.127 22.6014 107.127L20.5314 105.153V105.599Z" fill="#7F8D2F"/>
<path fill-rule="evenodd" clip-rule="evenodd" d="M7.99707 92.0523L9.3474 92.2791L13.4036 93.7191L18.0377 95.3273C18.0377 95.3273 19.1867 96.0838 20.1642 96.9182C20.7612 97.6377 21.1528 98.5161 21.3331 98.3909C21.3331 97.8958 21.3331 97.8958 21.4039 96.849C20.7666 95.7689 19.504 93.5669 19.504 93.5669L19.3988 92.6408L14.3032 90.7674L11.4353 90.314L9.01628 89.0026L7.99707 90.7674L7.99707 92.0523Z" fill="#AFACAC"/>
<path fill-rule="evenodd" clip-rule="evenodd" d="M5.71187 102.762L7.36549 102.292L10.3573 102.762L14.3029 103.748L18.0374 104.411L20.5309 105.599L22.8069 107.127L23.3902 106.634L23.268 106.016V103.11L20.5309 101.487L18.6692 100.75L11.8244 99.6051L9.44558 98.9927L7.01885 99.6051L6.09879 98.4028L5.25 100.75L5.71187 102.762Z" fill="#AFACAC"/>
<path opacity="0.258068" fill-rule="evenodd" clip-rule="evenodd" d="M20.5308 97.9929L20.1872 98.5448L18.2074 99.3103L17.0195 100.75L20.1872 99.6051L20.5308 100.224L21.3708 101.896V100.224L21.0551 98.5448L20.5308 97.9929Z" fill="#808D29"/>
<path opacity="0.278065" fill-rule="evenodd" clip-rule="evenodd" d="M14.7008 106.634L17.8778 104.337L18.7068 104.638L19.8455 105.153L17.376 106.246L14.7008 107.9L13.4775 108.976L14.7008 106.634Z" fill="#7F8D2F"/>
<path opacity="0.29913" fill-rule="evenodd" clip-rule="evenodd" d="M14.3033 103.748L13.4774 104.044L12.7051 103.896L9.49316 106.067V107.477L11.1763 105.612L12.7051 105.153H14.7007L16.5537 104.337L14.3033 103.748Z" fill="#7D8B2E"/>
<path opacity="0.376139" fill-rule="evenodd" clip-rule="evenodd" d="M8.91752 94.2714L10.4806 93.7027L13.0174 93.1258L16.6878 94.7298L18.0377 95.3273L16.0408 96.5415L13.4776 97.1917L10.4806 96.5415L13.4776 95.8486L13.0232 95.1588H14.9975L12.4912 94.0317L10.4806 95.1588L7.99707 96.5415L8.91752 94.2714Z" fill="#808F32"/>
<path opacity="0.37979" fill-rule="evenodd" clip-rule="evenodd" d="M5.01172 105.153L6.49438 103.019H7.616L8.44668 101.896L11.8975 102.374L10.8571 103.524L9.79993 103.748L8.45462 103.524L7.616 103.748L5.53119 105.153H5.01172Z" fill="#7F8D2F"/>
<path fill-rule="evenodd" clip-rule="evenodd" d="M33.8916 115.157V118.341L34.8088 119.837L35.8224 122.119V123.837V124.835C35.8224 124.835 35.8224 125.933 35.3002 125.933C34.9775 126.097 34.8227 125.374 34.4805 125.515C34.1183 125.664 33.8916 126.512 33.8916 126.512C33.8916 126.512 33.4355 127.575 32.8243 127.872C32.2792 127.872 31.6987 127.579 31.6987 127.579C31.6987 127.579 30.7727 127.579 29.9225 127.687C28.9329 127.378 28.9329 127.152 27.9073 127.279C27.2162 126.732 27.3774 126.651 26.7552 125.933C26.5575 125.514 26.929 124.433 26.929 124.433L27.9073 123.831L28.6319 121.514L28.3273 118.541L30.9802 118.341L33.8916 115.157Z" fill="#2E2D2C"/>
<path fill-rule="evenodd" clip-rule="evenodd" d="M31.8277 127.651C31.8277 127.651 32.4103 127.076 32.7198 126.229C32.9708 125.542 33.2395 124.924 33.0996 124.403C32.7198 124.569 32.2293 124.403 32.2293 124.403C32.2293 124.403 32.4039 125.451 32.1471 126.027C31.837 126.723 31.8367 126.476 31.4879 127.021C31.3413 127.25 31.1562 127.575 31.1562 127.575L31.8277 127.651Z" fill="#1C1B1B"/>
<path fill-rule="evenodd" clip-rule="evenodd" d="M29.8532 127.76C30.3348 127.401 30.4359 127.185 30.7454 126.338C30.9964 125.651 31.1561 124.924 31.1251 124.512C31.0941 124.1 30.4997 124.679 30.4997 124.679C30.4997 124.679 30.4751 125.154 30.2183 125.731C29.912 126.418 29.9734 126.315 29.6427 126.838C29.6385 126.844 29.7744 126.889 29.77 126.895C29.6234 127.124 29.3076 127.41 29.3076 127.41C29.3076 127.41 29.6055 127.651 29.8532 127.76Z" fill="#1C1B1B"/>
<path fill-rule="evenodd" clip-rule="evenodd" d="M28.3132 127.287C28.7948 126.928 28.8348 126.761 29.1443 125.914C29.3953 125.227 29.6688 124.538 29.6378 124.126C29.6069 123.714 29.3192 124.079 29.1443 124.341C29.0302 124.846 29.0302 124.846 28.7734 125.422C28.4672 126.11 28.3175 126.393 28.3132 126.4C28.1665 126.629 27.624 127.034 27.624 127.034C27.624 127.034 27.7706 127.247 27.8804 127.287C28.0042 127.332 28.2257 127.249 28.3132 127.287Z" fill="#1C1B1B"/>
<path fill-rule="evenodd" clip-rule="evenodd" d="M34.9156 124.907L34.9919 124.403C34.9919 124.403 35.1385 123.255 35.042 122.774C34.9473 122.303 34.8256 122.576 34.6433 122.715C34.5485 122.787 34.4878 123.197 34.4878 123.197L34.316 124.639L34.1172 125.892C34.1172 125.892 34.3546 125.592 34.5756 125.548C34.715 125.519 34.856 125.652 34.856 125.652L34.9156 124.907Z" fill="#1C1B1B"/>
<path fill-rule="evenodd" clip-rule="evenodd" d="M26.8643 124.584C26.91 124.657 27.1434 124.584 27.3613 124.584C27.6663 124.584 27.8231 124.541 27.9729 124.626C28.2358 124.776 28.2741 124.87 28.3446 124.812C28.5032 124.683 28.5566 124.584 28.4312 124.252C28.3121 124.252 27.9057 124.091 27.9057 124.091H27.5137L27.152 124.252C27.152 124.252 26.9954 124.341 26.8643 124.584Z" fill="#453230"/>
<path d="M25.8259 30.7874L40.0418 5.34131C41.0197 3.5909 43.393 3.5909 44.3709 5.34131L58.5869 30.7874C59.5896 32.5822 58.3791 34.8601 56.4224 34.8601H27.9904C26.0337 34.8602 24.8231 32.5823 25.8259 30.7874Z" fill="#FD4755"/>
<path d="M37.2949 34.8602H56.4223C58.379 34.8602 59.5896 32.5823 58.5868 30.7874L48.2001 12.1954C48.6115 14.054 48.8099 16.1569 48.5943 18.4507C47.5742 29.3028 38.2419 34.3626 37.6373 34.6768C37.5211 34.7405 37.4074 34.8011 37.2949 34.8602H37.2949Z" fill="#FB2B3A"/>
<path d="M27.9899 32.7244C27.5761 32.7093 27.346 32.3029 27.5647 31.882L41.7806 6.436C42.0003 6.07136 42.4174 6.07614 42.6311 6.436L56.847 31.882C57.0666 32.3044 56.8384 32.709 56.4218 32.7244H27.9899V32.7244Z" fill="#FED402"/>
<path d="M48.67 17.2462C48.6568 17.6416 48.6321 18.043 48.5938 18.4507C48.3891 20.6287 48.1365 24.3405 47.3999 26.0603C45.6955 30.0397 42.6491 31.0479 40.541 32.7244H56.4214C56.838 32.7091 57.0662 32.3045 56.8466 31.8821L48.67 17.2462Z" fill="#F7BC09"/>
<path d="M42.6321 24.7158C42.2858 24.7158 41.9976 24.4196 41.9701 24.0353L41.3314 15.123C41.2708 14.2778 41.8705 13.5547 42.6321 13.5547C43.3937 13.5547 43.9935 14.2778 43.9329 15.123L43.2942 24.0353C43.2666 24.4196 42.9785 24.7158 42.6321 24.7158Z" fill="#554E56"/>
<path d="M42.6319 29.1521C43.208 29.1521 43.6749 28.6322 43.6749 27.9909C43.6749 27.3496 43.208 26.8298 42.6319 26.8298C42.0558 26.8298 41.5889 27.3496 41.5889 27.9909C41.5889 28.6322 42.0558 29.1521 42.6319 29.1521Z" fill="#554E56"/>
<path opacity="0.990537" fill-rule="evenodd" clip-rule="evenodd" d="M40.6875 121.514L42.6784 123.831H43.7232H44.4822L46.0787 124.46L47.1388 123.089L48.2601 120.753V118.541L47.7238 116.75L48.2601 116.221L47.1388 111.317L46.0787 109.798L47.1388 107.9V106.634L47.7238 103.748L47.1388 101.896L47.7238 98.5448V93.7027L47.1388 86.5752L45.2413 85.7021H42.6784L41.9715 88.3591L39.912 90.3139V92.4308V94.4029L38.9902 96.0213L39.912 97.9929L38.9902 99.9444V101.896L37.9766 103.748L38.9902 105.599L37.9766 107.127L38.9902 109.798V113.547V116.75L40.6875 117.507L39.912 119.123L40.6875 119.837V121.514Z" fill="#202E43"/>
<path fill-rule="evenodd" clip-rule="evenodd" d="M38.5186 105.612L39.8666 104.337L41.4998 105.081L45.4117 104.337V105.612L41.9651 107.477L38.5186 105.612Z" fill="#1D293C"/>
<path fill-rule="evenodd" clip-rule="evenodd" d="M41.9648 119.123L44.5542 119.837L47.1806 118.541V120.628L44.5727 121.514L41.9648 120.628V119.123Z" fill="#212833"/>
<path fill-rule="evenodd" clip-rule="evenodd" d="M40.0869 108.216L42.437 108.976H44.5734L45.8964 107.9L45.4121 110.647L46.4922 112.743L47.1813 115.157V116.75L45.8964 117.817V115.157L45.4121 113.453L44.5734 111.317L43.1187 111.901L41.9655 111.317L40.0869 109.798V108.216Z" fill="#212833"/>
<path fill-rule="evenodd" clip-rule="evenodd" d="M43.118 98.5447L44.5727 99.6051L45.4114 99.0749L46.572 97.9929V99.9443L45.4114 101.896H44.5727L43.118 100.75L41.9648 98.5447H43.118Z" fill="#202937"/>
<path opacity="0.832775" fill-rule="evenodd" clip-rule="evenodd" d="M39.5479 108.216H40.0869L42.437 108.976H43.6341L44.5734 108.596L45.4121 107.9L44.5734 107.477L43.6341 107.9H42.437L40.0869 107.477L39.5479 108.216Z" fill="#26354D"/>
<path fill-rule="evenodd" clip-rule="evenodd" d="M44.5731 111.317V112.858L45.4118 114.1V116.75L44.2688 117.817L44.5731 115.157L43.6338 113.385L44.5731 111.317Z" fill="#25344B"/>
<path opacity="0.992397" fill-rule="evenodd" clip-rule="evenodd" d="M62.6225 95.4512V99.9444L61.5752 102.765V105.202L59.6562 106.634L58.9429 108.976V110.647L58.3004 111.317V112.858L58.9429 115.157L57.1687 116.221V121.514L55.1566 122.509V124.201L53.9866 124.46L52.4399 127.651L50.8853 126.05L51.0915 124.702V123.089V121.514L49.6504 120.268V116.221L51.0915 114.567L52.4399 111.551L53.9866 109.614L56.1364 106.656H57.1687V104.337L58.9429 101.896L60.7118 99.9444L62.6225 95.4512Z" fill="#1E2C40"/>
<path fill-rule="evenodd" clip-rule="evenodd" d="M57.7035 115.157L56.1364 114.1L55.127 111.551V114.567L56.1364 116.221L57.7035 115.157Z" fill="#202630"/>
<path fill-rule="evenodd" clip-rule="evenodd" d="M56.1368 121.514L54.545 120.896L53.5842 118.541V116.75L52.9844 120.028L53.5842 121.514V124.829L54.545 124.091V122.509L56.1368 121.514Z" fill="#202630"/>
<path fill-rule="evenodd" clip-rule="evenodd" d="M52.984 126.512L53.5912 124.835L54.5447 124.091L52.984 122.509L52.3515 119.123V123.831L51.585 125.892L52.984 126.512Z" fill="#1E242D"/>
<path fill-rule="evenodd" clip-rule="evenodd" d="M60.6914 105.612L58.8932 105.907L57.7031 105.202V106.656L58.8932 108.976L59.1972 107.089L60.6914 105.612Z" fill="#202630"/>
<path fill-rule="evenodd" clip-rule="evenodd" d="M56.1367 112.349L56.4156 113.886L57.7039 114.567H58.7659V113.458H57.4513L56.1367 112.349Z" fill="#273750"/>
<path fill-rule="evenodd" clip-rule="evenodd" d="M49.6504 116.221L52.984 112.349C52.984 112.349 53.3507 111.05 54.5602 108.881C54.6386 108.74 56.0283 106.784 56.1364 106.634C56.7958 105.718 57.2183 106.48 57.451 105.907C57.7692 105.124 56.8915 104.989 57.451 103.748C57.5271 103.579 58.6801 102.651 58.7656 102.484C59.4564 101.134 60.6918 99.9444 60.6918 99.9444C60.6918 99.9444 59.2812 103.879 58.2584 105.907C57.2357 107.935 56.1364 108.976 56.1364 108.976L53.5507 114.567H52.3445L49.6504 117.817V116.221Z" fill="#1E242D"/>
<path fill-rule="evenodd" clip-rule="evenodd" d="M46.585 122.296L48.4077 122.509L49.6503 123.089L50.8852 124.008L51.3171 123.089L49.7345 122.509L48.4077 121.514L46.585 122.296Z" fill="#393433"/>
<path fill-rule="evenodd" clip-rule="evenodd" d="M53.3831 90.9768L57.4506 93.9237L54.7397 98.1746L52.4648 103.748V98.5448L53.0644 95.4511L53.3831 90.9768Z" fill="#474646"/>
<path opacity="0.993397" fill-rule="evenodd" clip-rule="evenodd" d="M48.2598 112.348C48.9885 112.086 51.3165 110.647 51.3165 110.647L52.3296 105.907L53.2579 103.457L54.5596 99.9443L56.252 97.2741L57.0464 95.4511L58.256 92.5344L56.1358 94.6713L54.544 97.2741L53.539 99.6051L52.4646 102.765L52.9834 98.1745L54.066 95.4511V92.8169L53.2087 91.2414L52.9834 87.9153L52.4646 85.7021C52.4646 85.7021 52.0262 87.2276 51.5843 88.9308C51.5843 91.7715 51.5843 95.6932 51.5843 95.6932C51.5843 95.6932 51.852 96.3736 51.5843 97.2741C51.3165 98.1745 51.5843 99.0253 51.5843 99.0253L50.8948 103.168L49.6497 105.202V107.68C49.6497 107.68 48.7935 110.647 48.2598 112.348Z" fill="#202E43"/>
<path fill-rule="evenodd" clip-rule="evenodd" d="M51.5839 90.9768L52.4944 93.1258L52.983 94.5593L52.4944 96.5414L51.5839 102.503V105.202L50.8623 108.88L49.6494 108.976L50.2438 105.907L50.8623 103.384L51.3162 98.878L51.9806 94.5593L51.5839 90.9768Z" fill="#212833"/>
<path fill-rule="evenodd" clip-rule="evenodd" d="M56.4149 96.5414L55.1708 98.1745L54.5443 101.325L53.9532 104.337L53.0645 103.528L53.9532 100.439L54.5599 97.5392L56.4149 95.4511V96.5414Z" fill="#212833"/>
<path fill-rule="evenodd" clip-rule="evenodd" d="M53.9532 82.0556H52.9836V83.4637V84.8307L52.4648 85.7021L53.209 91.2414L56.4149 93.9236L59.1973 91.7715C59.1973 91.7715 60.2521 91.664 60.6914 91.2414C61.1308 90.8187 61.5982 89.4619 61.5982 89.4619L62.6221 86.8455L56.4149 82.0556H53.9532Z" fill="#916E61"/>
<path fill-rule="evenodd" clip-rule="evenodd" d="M56.415 84.7596L59.7055 86.8341L61.9173 87.4843L61.2283 88.9086L59.1975 87.4843H56.5597L56.415 84.7596Z" fill="#7E6055"/>
<path fill-rule="evenodd" clip-rule="evenodd" d="M59.1969 91.2413L57.4502 89.6954V91.7715L59.1969 91.2413Z" fill="#7E6055"/>
<path fill-rule="evenodd" clip-rule="evenodd" d="M54.7397 83.938H53.0645L53.9021 84.7597L54.7397 83.938Z" fill="#7E6055"/>
<path fill-rule="evenodd" clip-rule="evenodd" d="M54.7397 82.938H53.0645L53.9021 83.7597L54.7397 82.938Z" fill="#7E6055"/>
<path fill-rule="evenodd" clip-rule="evenodd" d="M53.9019 82.0556L55.1706 82.7438L56.1359 84.7597L58.9816 86.8342L61.917 88.4545L64.4143 88.9086L64.8993 85.7022L65.549 82.938C65.549 82.938 65.8734 81.0318 64.8993 79.2273C63.8235 77.2343 63.7078 77.4502 61.917 76.6865C60.1097 75.9158 58.8317 74.9968 56.5595 75.7803C54.8497 76.3699 53.4534 77.9643 53.4534 77.9643L52.0264 80.637C52.0264 80.637 52.2015 81.7292 52.4647 82.0556C52.7279 82.3821 53.9019 82.0556 53.9019 82.0556Z" fill="#FF7C3D"/>
<path fill-rule="evenodd" clip-rule="evenodd" d="M64.4083 85.7021L62.5246 85.2848L59.957 83.8789L60.6913 82.0556L62.5246 83.4849H63.9204L65.549 83.3488L64.4083 85.7021Z" fill="#D35C1B"/>
<path fill-rule="evenodd" clip-rule="evenodd" d="M54.9589 79.2273L57.2879 81.2881L59.166 82.3178L58.2563 83.7597L56.4149 82.7438L53.9531 80.7273L54.9589 79.2273Z" fill="#D8D8D8"/>
<path fill-rule="evenodd" clip-rule="evenodd" d="M46.5088 165.349H50.3469H55.5369L59.1976 165.976L62.6224 166.806L64.7944 168.548L62.6224 169.723L59.1976 169.119L55.648 168.881L51.3172 168.438H47.8842H46.0498L46.5088 165.349Z" fill="#1E1E1E"/>
<path fill-rule="evenodd" clip-rule="evenodd" d="M46.5244 165.349H50.3812H55.5363L59.197 165.976L61.4823 166.806L62.8543 167.536L64.1417 168.548L64.7938 167.536L62.3849 165.976L59.197 164.648L55.5363 164.299H50.3812L46.5244 164.299V165.349Z" fill="#5C5C5C"/>
<path fill-rule="evenodd" clip-rule="evenodd" d="M58.383 130.34C60.2827 128.705 62.6219 127.872 62.6219 127.872L67.7679 126.512L74.3926 128.687L78.4238 133.038L79.9084 139.339C79.9084 139.339 80.775 143.768 79.9084 147.471C79.2754 150.176 78.3455 150.689 76.4194 153.688C74.669 156.414 74.4186 156.36 72.2332 158.372C70.3694 160.088 67.9621 160.93 67.9621 160.93L60.6913 161.837L56.2522 158.92L52.9835 156.004C52.9835 156.004 51.7258 152.744 51.3167 149.33C50.8924 145.79 50.6066 145.498 51.3167 142.096C52.0984 138.35 52.4061 138.187 54.3003 135.035C55.9392 132.309 56.1219 132.287 58.383 130.34Z" fill="#353740" stroke="#353740" stroke-width="0.5"/>
<path fill-rule="evenodd" clip-rule="evenodd" d="M60.709 159.475L61.883 156.887L63.4856 152.156L68.6347 149.576L72.6651 151.091L75.1055 151.687L72.6651 150.026L68.6347 147.471H67.2649L61.883 150.026L61.2245 153.473L60.709 159.475Z" fill="#222229"/>
<path fill-rule="evenodd" clip-rule="evenodd" d="M61.9372 148.332L60.7088 146.346L60.2608 143.407L62.6221 139.879L64.1419 139.248L67.4079 139.879V138.848L63.8343 138.214H61.9372L58.6738 142.648L59.2985 145.77L61.9372 148.332Z" fill="#222229"/>
<path fill-rule="evenodd" clip-rule="evenodd" d="M52.4648 146.346L53.3283 144.359L57.8492 144.174L58.6738 146.346H55.0957H52.4648Z" fill="#222229"/>
<path fill-rule="evenodd" clip-rule="evenodd" d="M62.1094 131.612L62.6224 136.567L64.1422 137.167L63.1258 135.434L62.1094 131.612Z" fill="#222229"/>
<path fill-rule="evenodd" clip-rule="evenodd" d="M77.5683 133.878H75.9974L75.1054 134.389L69.0912 138.214L68.3936 146.346L70.6823 147.567V139.248L75.9974 135.484H77.5683V133.878Z" fill="#222229"/>
<path fill-rule="evenodd" clip-rule="evenodd" d="M52.1396 146.346L53.3283 144.359H57.4506L58.1934 146.346L60.6914 149.545L59.9819 152.156V150.026L57.7032 147.471L57.0984 146.346H52.1396Z" fill="#222229"/>
<path opacity="0.534668" fill-rule="evenodd" clip-rule="evenodd" d="M76.318 151.091L68.3939 146.346L69.0915 138.214L75.1057 133.878H77.5686L75.1057 132.417L73.9555 133.878L67.9074 138.214L62.855 137.167L62.1095 131.612H61.4127L62.1095 137.167L57.451 143.273L55.127 143.407L51.585 145.26L52.4653 145.835L55.0724 144.175H57.7036L62.6225 138.214L67.4083 138.849V145.835L61.4127 148.332L58.7656 145.835H57.7036L60.7092 149.092L59.3724 159.475L60.0166 158.92L61.4127 149.092L67.4083 146.929L75.8657 152.156L76.318 151.091Z" fill="#444653"/>
<path fill-rule="evenodd" clip-rule="evenodd" d="M67.4079 161.203C67.4079 161.203 69.9376 160.222 72.2333 158.372C74.564 156.494 74.6471 156.344 76.4809 153.473C78.1287 150.893 78.2206 151.094 79.1966 147.471C79.9381 144.719 79.9086 140.723 79.9086 140.723L79.1966 135.382L77.5682 131.612L72.9808 127.951L68.3934 126.512L61.4632 127.951C61.4632 127.951 62.9984 127.011 64.5763 126.512C66.4635 125.915 66.6276 125.85 68.6628 126.023C71.2467 126.244 73.8146 127.301 73.8146 127.301L77.9506 130.624C77.9506 130.624 79.2157 132.139 79.9086 134.389C80.686 136.914 80.7493 137.668 80.8911 140.173C81.0942 143.761 81.0179 143.992 80.3419 147.471C79.9457 149.51 78.9415 151.658 76.9955 154.632C75.11 157.514 75.69 156.516 73.4114 158.652C72.2586 159.732 70.246 160.766 70.246 160.766L67.4079 161.837C67.4079 161.837 66.0072 161.918 64.5763 162.086C63.1806 162.138 60.6914 162.086 60.6914 162.086L67.4079 161.203Z" fill="#4F535E"/>
<path fill-rule="evenodd" clip-rule="evenodd" d="M46.0498 168.438V171.903H49.6776C49.6776 171.903 54.095 171.557 56.1364 171.362C58.1778 171.168 59.3734 170.748 59.3734 170.748L62.6224 169.723L60.7091 169.119L58.6742 168.881H57.0988H55.4221L52.0268 168.438H50.8852H46.0498Z" fill="#292929"/>
<path fill-rule="evenodd" clip-rule="evenodd" d="M41.9651 124.46L41.4998 125.892L40.2158 127.301L41.0646 127.951V130.547H41.9651L42.4795 131.612L41.9651 133.857L42.4795 134.389H44.5729H46.5722L49.2142 135.852H50.8849V131.612L52.0265 129.32L52.4648 127.301L50.8849 126.05H49.2142L47.6318 125.939L46.2937 123.831H44.2686L41.9651 124.46Z" fill="#2E2D2C"/>
<path fill-rule="evenodd" clip-rule="evenodd" d="M62.8545 161.855L62.1091 162.944L61.4355 164.299V165.647L59.1973 164.648H57.9639V162.944L58.6738 160.766L59.8336 160.766L61.0529 161.837L62.8545 161.855Z" fill="#4A4D5A"/>
<path fill-rule="evenodd" clip-rule="evenodd" d="M62.5126 162.112H61.8586H61.098L60.5462 163.954L60.2412 164.973L61.4354 165.647V164.299L62.1089 162.944L62.5126 162.112Z" fill="#35363E"/>
<path fill-rule="evenodd" clip-rule="evenodd" d="M8.34668 134.827L9.15463 144.359V151.32L12.5405 155.065L14.303 161.837L16.2674 159.767L11.3523 144.359L8.34668 134.827Z" fill="#161F2B"/>
</svg>
