<?xml version="1.0" encoding="UTF-8"?>
<svg data-bbox="-0.004 -0.004 563.005 162.884" xmlns="http://www.w3.org/2000/svg" viewBox="0 0 563 163" height="163" width="563" data-type="color">
    <g>
        <g clip-path="url(#6480da33-6395-4464-ba31-f360da54308b)">
            <path fill="#98DCD1" d="M123.06 149.9a78.8 78.8 0 0 1-20.65 9.57 81.63 81.63 0 0 1-49.14-1.18 78.67 78.67 0 0 1-45.49-41.38A85.6 85.6 0 0 1 0 80.38a78.5 78.5 0 0 1 6.22-31 84.2 84.2 0 0 1 18.25-26.71A78.8 78.8 0 0 1 49.74 5.75 77.5 77.5 0 0 1 79.63 0a79.4 79.4 0 0 1 30.42 5.75 79.3 79.3 0 0 1 25.59 17.14 80.1 80.1 0 0 1 18.09 26.86 85.8 85.8 0 0 1 6.06 32.56 80.6 80.6 0 0 1-4.79 28.37A78 78 0 0 1 140.23 135a42.3 42.3 0 0 0 8.6 2.9 44.4 44.4 0 0 0 9.46 1h2.9v21.82h-2a61.9 61.9 0 0 1-17.76-2.72 86 86 0 0 1-18.37-8.1m-3-27.29A65 65 0 0 0 132.4 103a63.4 63.4 0 0 0 3.86-22.84 56.37 56.37 0 0 0-15.34-38.79A58.75 58.75 0 0 0 102 27.24a54.4 54.4 0 0 0-22.58-4.57A53.35 53.35 0 0 0 40.69 39a59 59 0 0 0-12.81 19.5 60.6 60.6 0 0 0-4.45 22.94c.001 2.594.192 5.184.57 7.75a77 77 0 0 0 1.77 8.6 42.5 42.5 0 0 1 11.36-3.93 75 75 0 0 1 14.38-1.23 86.8 86.8 0 0 1 35.12 7.74 121.3 121.3 0 0 1 33.43 22.24M102.9 135.4a88.9 88.9 0 0 0-25.79-16.87 71.7 71.7 0 0 0-28-5.81 52 52 0 0 0-7.89.59 49 49 0 0 0-7.45 1.78 58.7 58.7 0 0 0 20.59 18.59 55 55 0 0 0 26.39 6.55 50 50 0 0 0 10.62-1.18 72.4 72.4 0 0 0 11.53-3.65" data-color="1"/>
            <path fill="#000000" d="M202.101 159.57h-14.75V54.6h-15.84V41.39h15.18v-3.3q0-18.69 9.47-27.73t29.27-9h1.32V15q-13.65.21-19.26 5.39t-5.61 17.71v3.3h24.87v13.2h-24.65z" data-color="2"/>
            <path fill="#000000" d="M243.91 159.57V3.1h15.19v156.47z" data-color="2"/>
            <path fill="#000000" d="M279.341 100.59q0-26.18 17.94-44.56t42.14-18.38q26 0 43.91 18.27t17.93 43.13q0 26.42-17.6 45.12t-43.14 18.71q-26 0-43.57-18.49t-17.61-43.8m15.85-.22q0 20.47 13 34.23t32.35 13.75a42.15 42.15 0 0 0 31.91-13.75q13-13.75 13-34.45 0-21.12-13.21-34.55t-33-13.42q-17.61 0-30.81 13.64t-13.24 34.55" data-color="2"/>
            <path fill="#000000" d="m518.341 129.86 28.66-88.47h16l-39.82 118.18h-9.9l-27.73-90-27.29 90h-9.9l-39.84-118.18h15.85l28.83 88.47 27.07-88.47h11z" data-color="2"/>
        </g>
        <defs fill="none">
            <clipPath id="6480da33-6395-4464-ba31-f360da54308b">
                <path fill="#ffffff" d="M563.01 0v162.88H0V0z"/>
            </clipPath>
        </defs>
    </g>
</svg>
