<svg width="256" height="272" viewBox="0 0 256 272" fill="none" xmlns="http://www.w3.org/2000/svg">
<path fill-rule="evenodd" clip-rule="evenodd" d="M113.875 241.171V243.207L115.148 245.342L115.954 249.199V257.818L106.315 260.966H95.6001L88.4198 263L78.5151 263.296C78.5151 263.296 77.9452 260.935 77.6757 259.725C77.4063 258.516 78.5151 255.825 78.5151 255.825L80.0546 251.948L88.4198 249.476L93.2874 248.47C93.2874 248.47 92.7464 247.332 92.5249 246.633C92.377 246.167 92.5249 244.677 92.5249 244.677L113.875 241.171Z" fill="#3F3937"/>
<path fill-rule="evenodd" clip-rule="evenodd" d="M77.9756 261.725L82.3937 262.51H86.9726L91.4705 261.725L95.2712 260.527L99.8136 259.293L104.356 258.927L107.282 258.194L111.202 257.512C111.202 257.512 114.381 256.454 114.855 256.054C115.328 255.653 115.958 254.661 115.958 254.661V256.584L113.321 258.194L108.368 259.293L103.503 260.043L95.2712 261.725L91.4705 262.914L86.9726 263.966L82.3937 263.562L78.5154 263.296L77.9756 261.725Z" fill="#585453"/>
<path fill-rule="evenodd" clip-rule="evenodd" d="M115.957 259.313L115.953 256.584L113.317 257.949L109.499 259.313L103.502 260.043H101.682V262.06H103.502H108.364L111.23 260.716L115.957 259.313Z" fill="#585453"/>
<path fill-rule="evenodd" clip-rule="evenodd" d="M178.434 232.4L181.315 233.844L183.611 236.706L185.648 240.348L182.541 243.101L182.033 245.668L180.092 248.098L177.632 250.788L174.878 254.373L172.025 257.7L169.986 262.011L167.454 264.635L162.665 266.552L159.721 266.371L153.2 266.115V263C153.2 263 153.888 259.829 154.452 259.181C155.016 258.532 160.911 255.8 160.911 255.8L162.665 250.788V248.098L160.911 246.469L159.768 243.101L174.878 234.988L178.434 232.4Z" fill="#3E3937"/>
<path fill-rule="evenodd" clip-rule="evenodd" d="M156.523 267.691L162.96 268.4L166.87 267.025L168.37 265.976L172.025 262.011L174.367 255.782L176.745 253.067L181.108 246.999L185.648 241.958V240.348L182.541 241.958L179.93 245.803L175.612 251.985L172.835 254.974L171.152 259.651L166.872 264.635L164.561 265.587L162.96 265.976L161.753 266.163L153.2 265.587V267.691H156.523Z" fill="#504C4A"/>
<path fill-rule="evenodd" clip-rule="evenodd" d="M178.434 251.985H179.825L182.54 247.717L184.769 245.712L187.4 243.334L185.647 240.953L182.862 243.334L179.825 247.717L177.632 250.788L178.434 251.985Z" fill="#575453"/>
<path fill-rule="evenodd" clip-rule="evenodd" d="M65.1155 219.133L2 135.204L188.793 2L252.091 84.3862L65.1155 219.133Z" fill="#C09E62"/>
<path fill-rule="evenodd" clip-rule="evenodd" d="M13.1237 143.512L22.0046 135.161L29.1792 126.14L35.1076 124.036L44.7764 122.671L50.6645 119.533L52.8525 114.925L48.9366 115.986L44.7764 119.045H37.8995L32.9881 119.533L22.0046 126.14L19.1329 132.597L8.05078 139.732L13.1237 143.512Z" fill="#C08D5F"/>
<path fill-rule="evenodd" clip-rule="evenodd" d="M150.938 59.6803L157.853 53.5669L164.725 47.8338L170.213 43.6568L173.395 38.6609L175.389 32.7296L170.213 38.6609L164.725 43.6568L157.853 47.8338L154.228 52.2052L150.938 55.6489L133.021 66.2314L127.045 74.7282L121.399 76.6186L115.614 81.5505L105.834 87.2812L98.8107 93.6936L92.8804 97.4993L81.5889 105.321L76.4352 110.265L70.8364 115.499L66.0893 122.671L61.9461 129.218L55.8327 136.608L50.2123 140.909L42.879 146.193L35.1315 149.506L30.4521 151.592L26.9099 153.625L21.4951 158.865L23.8992 162.678L30.4521 155.528L45.1684 148.664L52.853 143.512L60.5544 135.667L66.0893 126.862L70.8364 119.533L78.6233 111.904L89.1447 103.132L103.246 93.6936L113.686 85.9195L121.399 79.8781L133.021 74.7282L140.539 66.2314L150.938 59.6803Z" fill="#C08D5F"/>
<path fill-rule="evenodd" clip-rule="evenodd" d="M111.975 171.641L104.75 177.384L97.5871 182.75L91.888 186.634L88.4492 191.457L86.147 197.275L91.6265 191.623L97.3684 186.921L104.45 183.11L108.299 178.934L111.764 175.667L130.211 166.037L136.623 157.864L142.36 156.272L148.396 151.65L158.462 146.439L165.811 140.403L171.932 136.913L183.618 129.693L189.023 125.025L194.888 120.091L200.004 113.177L204.484 106.856L210.976 99.797L216.814 95.7959L224.414 90.9029L232.324 87.9993L237.106 86.1612L240.75 84.317L246.432 79.3668L244.23 75.4333L237.312 82.2309L222.257 88.3154L214.313 93.0576L206.212 100.489L200.224 108.992L195.099 116.063L186.924 123.273L175.958 131.483L161.382 140.171L150.549 147.388L142.53 153.017L130.656 157.552L122.703 165.643L111.975 171.641Z" fill="#C08D5F"/>
<path fill-rule="evenodd" clip-rule="evenodd" d="M39.4034 183.102L54.7772 166.133L63.2571 157.386L71.2815 154.545L81.8519 148.08L90.7027 141.495L95.5991 136.166L87.7906 138.001H81.8519L73.8603 140.909L67.5013 146.193L58.8565 151.592L50.6771 157.386L41.1623 162.678L33.4769 166.133L30.4512 168.604L39.4034 183.102Z" fill="#C08D5F"/>
<path fill-rule="evenodd" clip-rule="evenodd" d="M155.596 88.1732C155.596 88.1732 150.117 91.2033 144.167 93.6937C139.74 95.5466 137.446 96.2426 134.755 97.0592C134.291 97.2002 133.815 97.3447 133.313 97.4994C132.767 97.6682 132.247 97.8238 131.744 97.9744C129.114 98.7623 126.934 99.4152 123.683 101.103C119.81 103.113 115.24 108.699 115.24 108.699L105.581 122.671L95.5999 129.218L83.7219 135.668L70.4057 139.732L61.0139 146.193L48.5926 153.625L38.9093 160.228L26.3984 168.604V166.133L34.9156 159.634L43.9595 153.625L58.2875 144.304L70.4057 136.608L78.7814 134.17L90.2732 126.862L98.442 119.046C98.442 119.046 102.879 116.443 105.581 113.125C109.563 108.234 111.811 102.627 111.811 102.627L118.973 91.7433L131.892 82.4678L142.007 75.9071L155.596 69.4929L163.869 67.1778L171.866 63.9113L179.174 56.8421C179.174 56.8421 181.371 53.8793 184.088 51.1597C186.805 48.44 189.836 46.1686 189.836 46.1686C189.836 46.1686 195.382 42.4355 200.943 38.7123C206.108 35.2538 211.287 31.8053 211.287 31.8053L217.436 38.7123C217.436 38.7123 213.289 40.737 208.915 42.4942C207.038 43.2479 205.931 43.589 204.889 43.9099C203.782 44.2512 202.748 44.5696 200.943 45.337C197.344 46.8668 196.632 47.4337 194.6 49.0507C194.267 49.3156 193.898 49.6086 193.476 49.9387C190.477 52.2838 187.291 56.8421 187.291 56.8421C187.291 56.8421 189.415 57.8419 191.541 57.651C197.57 57.1097 203.6 55.3775 203.6 55.3775C203.6 55.3775 208.81 53.1649 213.88 49.9387C218.221 47.1762 220.723 44.2293 220.723 44.2293L224.545 49.1224L219.079 53.9005L211.287 56.8421L195.857 60.7904C195.857 60.7904 189.197 61.2815 183.012 63.9113C177.476 66.2653 176.423 67.1938 173.128 70.0998C172.742 70.4402 172.325 70.8078 171.866 71.208C169.367 73.3897 167.515 75.9071 167.515 75.9071L161.874 81.5506L155.596 88.1732ZM153.308 74.3979H159.686V76.3361L156.465 81.5506L151.301 85.1224L142.912 88.1732L136.902 90.4894V87.2813L142.912 81.5506L148.989 77.6488L153.308 74.3979Z" fill="#C08D5F"/>
<path fill-rule="evenodd" clip-rule="evenodd" d="M148.294 65.5254L157.642 57.3869L166.143 51.3153L172.564 47.2549L180.861 41.6525L187.963 37.9702L195.857 34.1016L202.7 30.1299L207.2 25.4L204.674 22.933L201.8 27.6673L197.484 30.1299L189.836 34.1016L183.012 37.9702L176.504 41.6525L168.614 47.2549L162.018 51.3153L155.958 56.2721L148.294 64.3259V65.5254Z" fill="#C08D5F"/>
<path fill-rule="evenodd" clip-rule="evenodd" d="M146.605 49.6192L151.067 45.3448L159.685 43.4001L168.09 38.2187L173.127 32.7297L179.968 29.1468L189.835 25.4001L200.042 22.933L202.699 19.9881L200.942 17.0343L196.583 19.9881L189.835 22.933L175.388 27.5268L169.715 31.8052L164.642 36.2599L157.413 41.207L148.293 43.4001L141.874 49.6192L132.191 59.1546L127.045 65.5254L125.763 71.6014L115.27 78.3736L108.038 82.9634V84.5578L117.69 78.3736L127.045 71.6014C127.045 71.6014 128.414 67.2569 129.697 65.5254C130.979 63.794 134.534 61.4889 134.534 61.4889L141.874 54.1997L146.605 49.6192Z" fill="#C08D5F"/>
<path fill-rule="evenodd" clip-rule="evenodd" d="M153.336 104.607L159.686 100.547L164.128 99.2L169.45 97.704L180.914 93.6936L191.541 90.4893L199.326 88.1731H203.6L212.728 85.9195L223.136 81.5506L230.812 77.6536L236.035 74.3978L240.968 69.3461L238.018 65.5254L230.812 69.3461L224.381 74.3978L217.451 77.6536L207.2 81.5506L196.584 82.9634L186.881 86.6477L180.914 88.1731L169.45 93.6936L164.128 95.0929L171.022 87.2813L177.747 81.5506L183.012 77.6536L189.2 74.3978H195.285L200.043 69.3461L207.2 65.5254L217.924 61.7222L224.381 58.9498L229.278 54.94L226.503 50.796L218.515 57.2225L210.38 58.9498L197.934 65.5254L189.2 69.3461L180.914 74.3978H173.621L169.45 81.5506L173.621 77.7014L169.45 85.9195L164.128 88.1731L153.336 97.704L144.944 105.321L134.809 110.273L119.516 117.398L112.837 124.036L108.039 131.018L100.9 140.618L90.1249 152.215L83.2952 159.634L72.4603 168.604L66.1001 173.007L58.6307 178.452L52.8529 182.187L43.0798 186.285L41.2383 188.285L44.7643 192.319L46.8543 189.515L52.8529 186.285L58.6307 183.492L66.1001 178.452L72.4603 175.028L77.4367 171.604L87.3681 162.678L91.6859 156.428L98.4421 148.08L104.21 143.141L110.537 134.17L116.605 127.532L122.942 122.671L134.809 113.788L144.944 108.699L153.336 104.607Z" fill="#C08D5F"/>
<path fill-rule="evenodd" clip-rule="evenodd" d="M19.5955 156.428L26.3978 150.264L29.0243 143.512L34.1038 136.166L39.6043 130.27L45.0711 126.14L50.9768 122.671L57.7347 119.046V117.398L52.8523 119.046L47.3882 121.557L41.2376 124.036L35.5256 129.218L32.2927 132.597L29.0243 138.001L24.9531 143.141L21.4944 148.225L16.8145 153.495L19.5955 156.428Z" fill="#C08D5F"/>
<path fill-rule="evenodd" clip-rule="evenodd" d="M34.9496 146.193L37.2752 143.512L41.2382 140.618L42.5099 136.608L45.0208 134.17L48.285 131.018L52.8529 130.27L54.6205 129.218L57.7353 127.532L61.6241 124.036L63.0259 120.904L61.6241 119.533L59.7158 122.671L57.7353 124.036L54.6205 126.862L51.5457 127.532H48.9877L45.0208 130.27L41.2382 134.17L38.9718 138.8L34.9496 143.141L30.452 148.664L26.3984 150.264L30.452 151.592L34.9496 146.193Z" fill="#C08D5F"/>
<path fill-rule="evenodd" clip-rule="evenodd" d="M57.735 207.029L68.6068 202.524L76.1821 194.125L82.2926 186.805L88.2245 178.026L92.1427 173L95.5996 168.604L101.634 162.678L105.28 157.386L98.4418 161.403L94.2903 166.133L88.2245 170.507L86.1474 175.739L81.5074 180.2L76.1821 187.745L68.6068 192.319V189.115L72.8812 184.096L78.038 178.026L81.5074 172.433L83.7902 170.507L88.2245 164.754L95.5996 159.634L103.371 154.545L111.229 150.264V148.08L103.371 150.264L95.5996 154.545L88.2245 161.403L79.7162 168.604L72.8812 178.026L68.6068 183.602L61.5177 189.515L52.8526 196.529L48.8789 198.751L57.735 207.029Z" fill="#C08D5F"/>
<path fill-rule="evenodd" clip-rule="evenodd" d="M213.455 90.4894L204.673 93.6937H197.933L192.675 95.9506L189.199 99.2001L183.012 101.658L175.388 104.607L168.93 111.219L163.73 115.315L159.685 122.671L155.369 127.532L150.06 135.668L142.977 143.141L136.902 150.264L128.709 154.545L122.027 157.386L108.038 162.678V160.228L119.172 154.545L127.045 149.506L134.171 142.295L141.102 135.161L148.293 124.036L155.369 115.986L160.746 110.265L168.93 103.884L175.388 100.205L183.012 95.0929L192.073 90.4894L200.042 88.1732L213.455 85.1224L227.391 79.2156L234.252 74.3978L228.225 82.4436L213.455 90.4894Z" fill="#C08D5F"/>
<path fill-rule="evenodd" clip-rule="evenodd" d="M185.404 107.479C187.584 107.214 189.835 107.44 189.835 107.44L193.476 110.912C193.476 110.912 193.119 114.72 190.704 117.398C190.472 117.655 190.251 117.901 190.037 118.138C185.484 123.194 184.953 123.785 178.28 127.765C175.806 129.241 174.346 129.727 172.808 130.239C171.362 130.721 169.848 131.226 167.357 132.597C163.2 134.885 162.794 134.992 158.831 135.625C157.865 135.779 157.499 134.17 157.499 134.17L159.685 126.862L164.671 120.904L175.389 111.904L179.465 108.699C179.465 108.699 182.399 107.844 185.404 107.479ZM177.746 115.986L183.012 114.22L181.606 118.538L177.746 121.557L173.607 124.036L169.191 126.14V122.25L173.607 119.045L177.746 115.986Z" fill="#C08D5F"/>
<path fill-rule="evenodd" clip-rule="evenodd" d="M59.7318 95.9506V99.2L57.735 101.053L56.3223 103.133L52.8526 106.757V110.265L55.0947 113.125H59.7318L65.0233 108.699L72.849 103.756L75.3256 97.704H76.9912L75.3256 103.133L72.849 106.757L65.0233 111.904L57.735 115.986L55.0947 115.499L48.8789 113.125V107.479L51.3869 102.627L59.7318 95.9506Z" fill="#C08D5F"/>
<path fill-rule="evenodd" clip-rule="evenodd" d="M76.9912 124.036L82.331 119.046L88.0246 115.986L93.1704 113.125L95.5996 110.912L98.4417 113.788L95.5996 115.986L96.8236 117.474L100.636 118.538L95.5996 120.904L93.1704 120.18L88.8134 122.671H86.1474L90.4804 118.538H88.8134L86.1474 119.046L82.331 122.671L76.9912 126.862V124.036Z" fill="#C08D5F"/>
<path fill-rule="evenodd" clip-rule="evenodd" d="M229.723 56.6426L223.136 62.8744L217.923 65.5255L207.199 70.2989L202.699 74.3978L195.856 78.065L183.012 81.5506L181.534 84.5578L189.835 82.4436L207.199 78.065L218.515 74.3978L224.885 70.6002L236.034 62.8744L233.214 61.1399L229.723 63.856L221.234 69.2745L214.931 73.3032L204.673 76.5032H201.799L208.914 72.1962L214.931 69.2745L220.669 67.5049L225.759 62.8744L230.812 58.2487L229.723 56.6426Z" fill="#C08D5F"/>
<path fill-rule="evenodd" clip-rule="evenodd" d="M4.60624 137.007L88.9415 75.9044L190.576 4.51406L188.793 2L2 135.204" fill="#E2BDA2"/>
<path fill-rule="evenodd" clip-rule="evenodd" d="M108.051 153.2L98.5636 171.63L92.6204 175.717L91.5011 180.767L86.5996 192.079L87.5408 198.921L86.5996 204.711L88.8231 208.243L89.5947 213.852L88.8231 217.505L90.4929 220.382L92.1371 229.495L90.0459 233.154L88.8231 238.605L90.0459 245.705L115.957 242.375C115.957 242.375 116.345 240.036 115.843 238.605C115.34 237.174 113.317 234.859 113.317 234.859V229.495L110.855 198.921L113.317 192.079L116.479 189.944L122.102 185.092L121.466 175.717L115.843 158.692V153.682L108.051 153.2Z" fill="#555764"/>
<path fill-rule="evenodd" clip-rule="evenodd" d="M118.72 168.226L110.855 172.698L113.317 175.825L108.687 180.2V185.71H110.855L107.78 192.519L104.351 199.222L100.1 202.345L106.258 204.028V207.304L108.687 210.46L104.351 215.66L103.376 220.071L106.315 222.659L103.874 230.236H97.4426L96.7261 235.448L94.8838 241.073H106.315L110.855 235.448L113.317 229.495L110.855 215.66V207.304L108.687 199.222L110.855 192.519L113.317 188.572L116.479 185.71L121.844 183.095V177.847L118.72 166.524" fill="#474857"/>
<path fill-rule="evenodd" clip-rule="evenodd" d="M111.984 192.917L108.687 194.097L110.237 195.079C110.237 195.079 109.678 197.131 109.484 197.474C109.055 198.232 107.548 198.526 107.548 198.526L105.254 200.482L103.974 201.756L104.8 202.752L102.62 203.798L105.537 203.495L106.539 201.756L107.548 200.83C107.548 200.83 108.687 201.321 108.687 202.345C108.687 203.369 107.548 206.558 107.548 206.558H110.634V204.294L109.484 200.83V199.222L111.192 196.841L111.984 194.097V192.917Z" fill="#3D3E4E"/>
<path fill-rule="evenodd" clip-rule="evenodd" d="M113.317 232.057L108.687 235.666L101 238.438H90.0459L97.4425 241.073H103.376L108.364 238.438L113.317 234.859V232.057Z" fill="#3D3E4E"/>
<path fill-rule="evenodd" clip-rule="evenodd" d="M108.364 154.256L110.855 155.868L111.985 162.25L107.78 166.524L108.688 170.51L105.021 169.541L102.985 172.447V175.935L97.8862 179.55L93.2568 180.2V175.935L99.2 172.447L102.985 166.524L108.364 154.256Z" fill="#64667C"/>
<path fill-rule="evenodd" clip-rule="evenodd" d="M114.851 152.285L115.915 164.191L119.821 174.732L121.844 180.2L122.103 184.454L123.143 189.2L124.337 192.917L128.212 201.807L132.789 206.558L138.165 218.575L145.64 225.32L150.319 233.943C150.319 233.943 151.655 239.161 153.385 241.073C155.114 242.985 160.629 246.469 160.629 246.469L183.039 233.943L179.238 225.32L173.998 223.247L170.652 215.63L163.051 210.75L160.629 203.798L154.915 200.144L153.385 194.47L152.418 189.2L153.385 184.454L151.482 180.115L152.418 174.732V171.029L154.167 167.975L151.482 164.191V157.865V151.869C151.482 151.869 150.324 153.252 141.554 154.256C132.785 155.26 114.851 152.285 114.851 152.285Z" fill="#5F6172"/>
<path fill-rule="evenodd" clip-rule="evenodd" d="M150.499 190.445L153.062 198.557L154.914 203.148L158.152 203.798L160.629 211.43L168.694 216.204L170.651 220.61L173.016 224.341L164.281 229.059L158.152 227.782L163.051 224.341H165.601L166.372 219.324H164.281L161.758 220.61H156.251L153.062 219.324L159.843 216.204V212.889L157.589 209.752L156.912 212.889L153.062 214.282H150.319L153.384 209.752L154.914 206.558H153.062L150.499 203.148H146.518L149.173 199.737L149.683 197.191L150.499 190.445Z" fill="#515268"/>
<path fill-rule="evenodd" clip-rule="evenodd" d="M154.915 203.798L151.482 199.737L145.639 203.798H139.797L146.864 206.558H153.385L154.915 203.798Z" fill="#3D3E4F"/>
<path fill-rule="evenodd" clip-rule="evenodd" d="M128.212 189.2L129.849 180.2L133.228 175.994L139.797 171.029H133.228L128.212 175.994V180.2V189.2Z" fill="#515266"/>
<path fill-rule="evenodd" clip-rule="evenodd" d="M150.319 169.521L151.481 174.606L147.884 180.2L141.554 189.2L143.311 184.836L146.864 178.3L150.319 169.521Z" fill="#515266"/>
<path fill-rule="evenodd" clip-rule="evenodd" d="M160.629 219.324L167.043 221.82H172.116L171.216 224.341H167.043L163.051 221.82L160.629 219.324Z" fill="#3D3E50"/>
<path fill-rule="evenodd" clip-rule="evenodd" d="M149.683 168.845V171.029L147.355 176.75L145.639 180.2L141.554 189.2V186.292L143.311 178.162L145.639 173.072L147.355 166.524L149.683 168.845Z" fill="#64657D"/>
<path fill-rule="evenodd" clip-rule="evenodd" d="M175.7 224.341L179.237 225.32L173.016 232.057L165.601 234.743L158.152 236.565L160.629 234.743L165.087 232.057L170.652 230.453L175.7 224.341Z" fill="#474858"/>
<path fill-rule="evenodd" clip-rule="evenodd" d="M100.1 85.285L97.4427 92.7011L95.8322 98.9197L101.293 95.676L106.824 92.1024L113.409 85.285H118.715L127.326 82.0167L133.503 85.285L137.564 82.0167H146.766L153.434 92.1024L154.915 96.4752L154.438 101.58L155.59 106.295L157.681 113.214L162.387 120.481L163.062 123.656C163.062 123.656 164.175 125.865 164.73 126.678C165.072 127.179 164.73 129.22 164.73 129.22L167.95 135.604L168.262 136.433L162.387 140.716L158.932 142.519L155.59 135.303L153.385 132.006L150.319 129.22L146.766 121.705V110.959L144.457 125.54L150.768 138.512C150.768 138.512 152.659 147.148 153.385 149.945C153.531 150.508 154.915 151.396 154.915 151.396L154.438 155.771L138.865 157.865L124.337 158.125L106.258 154.256L106.824 148.436L108.821 147.492L113.409 138.512V127.903L110.059 121.705V110.959L103.874 113.214H101.293L94.8838 117.327L90.8762 115.498H86.5998L80.4121 110.959L81.008 106.4L83.58 92.1024L87.609 86.6712L89.2884 82.0167L90.6761 77.5823L93.3797 78.1739C93.3797 78.1739 95.8346 77.8592 96.6385 77.7884C98.7113 77.6059 103.376 77.1245 103.376 77.1245V82.0167L100.1 85.285Z" fill="#9C9C9C"/>
<path fill-rule="evenodd" clip-rule="evenodd" d="M147.885 108.304L148.644 104.618L150.319 101.271L151.482 97.6564L150.319 92.302L149.226 88.0355V92.302L149.683 96.5967V99.6675L148.644 102.029L147.885 108.304Z" fill="#86807B"/>
<path fill-rule="evenodd" clip-rule="evenodd" d="M110.856 88.0355L108.688 90.7514L102.879 94.4312L101 96.5967L99.2002 100.166L101 102L102.059 99.1606L103.804 99.6675L105.028 96.5967H106.315L108.688 95.018V92.6028H112.287L113.317 90.14L110.856 88.0355Z" fill="#AEB3B0"/>
<path fill-rule="evenodd" clip-rule="evenodd" d="M148.644 103.732V107.018L149.683 110.193V114.768L151.482 118.545H149.683L148.644 117.073L147.885 120.428L147.306 118.545V112.664L146.864 108.304L147.885 103.732H148.644Z" fill="#85807C"/>
<path fill-rule="evenodd" clip-rule="evenodd" d="M95.3331 99.6245L94.8836 100.166L92.1371 102L90.8759 104.618L90.0459 107.703V110.193L92.1371 104.909L93.3085 103.732L95.3331 100.607L96.467 100.166L95.3331 99.6245Z" fill="#B3B6B4"/>
<path fill-rule="evenodd" clip-rule="evenodd" d="M156.912 112.224L156.256 116.215L155.511 118.545L154.915 121.386L156.912 118.545L157.59 116.215V113.764L156.912 112.224Z" fill="#8C8B88"/>
<path fill-rule="evenodd" clip-rule="evenodd" d="M156.912 110.193V112.224L156.252 115.592L154.915 119.365L153.385 121.386V117.495L154.915 113.935L155.148 110.193V107.141L156.912 110.193Z" fill="#ADB3AF"/>
<path fill-rule="evenodd" clip-rule="evenodd" d="M90.5267 77.1245L90.0762 78.2198L95.304 79.3151H98.343L101 79.039L103.182 78.4158L103.377 77.1245L102.27 77.7884H100.471H98.343H95.304L90.5267 77.1245Z" fill="#5D544E"/>
<path fill-rule="evenodd" clip-rule="evenodd" d="M158.712 142.452L160.629 141.826L162.171 140.405L164.815 138.639L166.252 137.592L167.95 136.433V135.604L165.601 136.433L163.645 137.887L161.45 139.648L159.843 140.75L158.152 141.597L158.712 142.452Z" fill="#5E544D"/>
<path fill-rule="evenodd" clip-rule="evenodd" d="M153.062 149.314L152.755 148.096L149.683 150.561L145.618 151.869L138.451 152.633L130.614 153.115L131.602 153.515L138.451 153.2L145.639 152.633L150.046 151.189L153.062 149.314Z" fill="#86807B"/>
<path fill-rule="evenodd" clip-rule="evenodd" d="M103.377 78.9246L102.621 83.0455L100.1 84.9044L97.4428 91.532L95.3335 99.1606L90.8763 102.8L88.9414 102L91.7804 98.1696L90.076 96.5967L92.6846 93.0832L95.3335 89.0992V84.9044L97.4428 83.0455V79.4994L103.377 78.9246Z" fill="#888B87"/>
<path fill-rule="evenodd" clip-rule="evenodd" d="M95.3335 99.1605L93.984 99.6674L91.7804 101.292L90.2114 103.23L89.4737 105.307L88.9414 108.304L90.2114 106.295L91.51 103.23L92.6846 101.903L94.4387 100.607L95.3335 99.1605Z" fill="#86807B"/>
<path fill-rule="evenodd" clip-rule="evenodd" d="M95.7834 98.9855L92.684 99.6675L87.2354 104.618L89.4731 100.468L92.684 97.3582L95.7834 96.5967V98.9855Z" fill="#85807C"/>
<path fill-rule="evenodd" clip-rule="evenodd" d="M107.377 110.193C107.377 110.193 107.724 109.248 109.531 108.304C111.339 107.36 112.624 106.683 112.624 106.683L115.324 103.732L116.479 105.495L119.821 99.1605L120.536 100.607V102.8L117.053 107.141L113.317 109.064L106.259 112.664L107.377 110.193Z" fill="#86807B"/>
<path fill-rule="evenodd" clip-rule="evenodd" d="M114.836 83.5325L113.317 82.7215L112.332 82.2646L111.562 79.986C111.562 79.986 112.238 79.179 111.952 78.7406C111.665 78.3021 111.562 78.2198 111.562 78.2198L110.856 77.1245L111.562 76.5015V74.9395L110.128 74.3505L110.128 72.2939L110.856 70.4994V68.6068L133.435 66.9044L129.85 73.2799L128.59 79.986L116.479 83.5325H114.836Z" fill="#712F1A"/>
<path opacity="0.887974" fill-rule="evenodd" clip-rule="evenodd" d="M111.279 77.1245H113.317L115.915 74.3505L114.243 73.3972L112.939 72.6992L112.685 75.2184L111.919 75.9801L111.279 77.1245Z" fill="#8B493B"/>
<path fill-rule="evenodd" clip-rule="evenodd" d="M109.531 71.4398H111.28L114.836 74.3506H116.479L117.183 71.4398H119.774H125.626L131.653 70.7571L135.418 69.3207L133.435 68.6068L125.626 68.7062L113.839 69.3207H109.531V71.4398Z" fill="#2E2C2C"/>
<path fill-rule="evenodd" clip-rule="evenodd" d="M120.536 70.757L124.337 74.3505L126.631 75.9044L127.124 79.315L130.615 81.3977L139.797 80.8976L141.899 79.986L142.566 78.7285V75.2184L141.899 73.7044L140.695 72.6992H138.368L138.92 70.757L140.695 70.4993L139.797 67.1324L128.212 67.7555L121.091 69.3206L120.536 70.757Z" fill="#1A1919"/>
<path fill-rule="evenodd" clip-rule="evenodd" d="M110.059 87.5448L118.221 92.8783L120.678 102.029L118.221 106.4L106.314 111.954L108.821 124.196L110.059 135.394L108.821 147.493L119.156 150.522L125.858 151.869L135.373 150.522C135.373 150.522 138.764 151.123 141.405 150.522C144.047 149.92 146.248 147.786 146.248 147.786L153.385 143.256C153.385 143.256 150.982 135.631 150.319 133.256C149.656 130.88 148.644 125.723 148.644 125.723L146.248 116.447V109.121L148.644 102.029V92.8783L147.595 86.701L145.682 82.7175L143.311 80.2012C143.311 80.2012 140.923 80.1158 139.797 79.8406C138.67 79.5654 136.902 79.8406 136.902 79.8406L132.838 79.4994L124.337 79.9861L119.156 80.8029L114.835 83.5326L112.052 85.0723L110.059 87.5448Z" fill="#C5EA60"/>
<path fill-rule="evenodd" clip-rule="evenodd" d="M119.57 119.433L116.479 116.447L113.839 112.664V116.447V123.158L116.704 130.852L119.57 137.51L123.936 146.187L129.85 147.602L128.212 144.575L123.936 137.51L121.844 130.852L119.57 119.433Z" fill="#BCD95B"/>
<path fill-rule="evenodd" clip-rule="evenodd" d="M141.136 112.078V116.336L139.797 119.433V123.001V127.98L140.467 129.663V131.588L142.335 137.084V139.05V143.142L145.243 146.187H148.644V144.398H151.482L150.319 141.85H146.822L145.243 139.05L142.335 131.588V127.98L144.457 125.54L142.335 121.965V116.447L144.457 112.078V104.618L142.335 108.811L141.136 112.078Z" fill="#BCD95B"/>
<path fill-rule="evenodd" clip-rule="evenodd" d="M114.033 83.3441L119.569 86.0172L123.449 88.7759L126.765 94.305V97.7542V103.611V111.108L125.858 115.785V118.745L119.569 119.433L114.033 123.079L107.78 120.988L107.78 125.403L108.821 132.604L116.244 130.077L121.994 126.563L129.352 125.428L135.346 124.077H141.199L146.589 123.079L147.113 117.668V113.94V106.4L148.644 96.9166L147.113 90.0868L144.457 81.6933L142.985 79.9861H141.199L144.024 84.225L146.589 91.5511L147.113 96.9166L145.712 106.4L145.158 113.28L143.562 117.668L139.797 119.433L135.346 118.745H130.187V115.785L131.559 111.108V103.611L132.334 96.9166L131.559 90.0868L129.352 86.0172L125.282 83.3441L122.774 79.9861C122.774 79.9861 120.409 81.1068 119.569 81.3978C118.73 81.6888 115.915 81.6933 115.915 81.6933L114.033 83.3441Z" fill="#AFACAC"/>
<path fill-rule="evenodd" clip-rule="evenodd" d="M109.976 139.012H114.871L116.462 137.097H119.239L122.105 135.301H125.858H131.036L134.31 133.506H137H141.972L144.841 131.588L146.074 129.227L148.644 126.678L150.319 131.588V133.506L148.644 135.301L147.167 137.084L146.074 139.012L143.632 140.099L137 141.805H134.31L132.503 143.409H125.858L122.105 146.187H119.239H114.871L108.688 144.151L109.976 139.012Z" fill="#AFACAC"/>
<path fill-rule="evenodd" clip-rule="evenodd" d="M110.855 110.193L116.576 109.344L119.479 106.703L122.103 102.984V100.641L119.479 92.8585L117.038 91.1509L114.213 90.14L117.68 92.8585L120.679 102.029L118.778 105.352L115.915 107.354L110.855 110.193Z" fill="#AFC833"/>
<path fill-rule="evenodd" clip-rule="evenodd" d="M142.156 118.545L139.797 119.433V124.228H143.312L142.156 118.545Z" fill="#A5A1A1"/>
<path fill-rule="evenodd" clip-rule="evenodd" d="M144.218 100.166L142.566 94.2704L139.797 88.0356L135.418 83.0455H134.48L138 88.0356L140.37 90.883L141.839 95.0181L143.474 102.001V105.495L144.218 100.166Z" fill="#B3DC3F"/>
<path fill-rule="evenodd" clip-rule="evenodd" d="M138.92 95.0181L141.554 99.1607L142.566 103.732V108.304L141.554 104.618L140.743 100.608L136.452 94.514L133.435 91.5321L138.92 95.0181Z" fill="#B3DC3F"/>
<path fill-rule="evenodd" clip-rule="evenodd" d="M116.479 111.562L118.204 110.815L121.781 108.768L123.665 106.295L124.792 102.8L124.299 107.101L122.18 109.333L118.204 111.562L116.479 112.225L114.851 111.562H116.479Z" fill="#B3DC3F"/>
<path fill-rule="evenodd" clip-rule="evenodd" d="M114.836 110.815L116.992 112.664H120.536L124.938 111.52L123.16 112.664L119.728 113.506H116.479L114.836 112.08L112.332 110.815H114.836Z" fill="#B3DC3F"/>
<path fill-rule="evenodd" clip-rule="evenodd" d="M109.976 87.4744L112.728 89.1675L114.928 90.14L118.471 91.7285L120.582 95.9625L122.103 100.641L121.844 103.619L119.758 106.295L116.576 109.344L113.839 110.193H110.855L108.688 110.805L110.855 112.664L113.839 112.048L117.365 110.805L120.582 107.268L122.103 104.618L123.143 100.641L121.844 95.9625L119.758 91.7285L115.915 89.1675L113.839 88.4378L110.855 86.6713L109.976 87.4744Z" fill="#5D544E"/>
<path fill-rule="evenodd" clip-rule="evenodd" d="M103.122 77.7884L103.804 73.3506V68.7786L103.122 62.4101L102.058 61.4994L100.968 61.4994C100.968 61.4994 99.1999 63.6715 99.1999 65.1028C98.9179 65.5482 98.3428 65.1028 97.8263 64.5474C97.2649 64.5474 96.6699 64.5474 96.6699 64.5474L94.8839 65.3075L92.7813 65.9379L92.2646 67.8843H90.8762L89.4736 68.7786V71.5049V75.7591L91.4582 78.174L103.122 77.7884Z" fill="#4E4A4A"/>
<path fill-rule="evenodd" clip-rule="evenodd" d="M90.876 68.2223L91.7801 70.6778C91.7801 70.6778 92.6498 70.9675 92.6821 70.1977C92.7144 69.428 92.2644 67.8843 92.2644 67.8843L90.876 68.2223Z" fill="#312E2D"/>
<path fill-rule="evenodd" clip-rule="evenodd" d="M99.2325 64.3445L99.8762 68.6068L100.968 68.184V64.3445V61.4994L99.8762 62.6439L99.2325 64.3445Z" fill="#312E2D"/>
<path fill-rule="evenodd" clip-rule="evenodd" d="M96.6701 64.5474H97.8265L98.2159 68.7061H97.443L96.6701 64.5474Z" fill="#312E2D"/>
<path fill-rule="evenodd" clip-rule="evenodd" d="M94.0449 65.9466L95.2957 65.1028L95.7239 68.7062H95.2957L94.0449 65.9466Z" fill="#312E2D"/>
<path fill-rule="evenodd" clip-rule="evenodd" d="M91.4079 77.7885L90.876 74.5278L92.1571 72.2714L96.5425 70.7571L101 71.0996L102.058 72.2714L101 77.7885H91.4079Z" fill="#5F5A5A"/>
<path fill-rule="evenodd" clip-rule="evenodd" d="M159.844 142.214L160.988 144.901V148.96L161.742 150.737L162.037 151.745L162.817 152.285H163.69L164.694 151.869C164.694 151.869 164.627 151.327 165.088 150.805C165.549 150.284 166.546 150.172 166.546 150.172L167.044 150.042L167.403 149.502L168.439 149.064L168.788 149.173L169.212 149.064L169.322 148.774L169.948 148.366L170.609 148.21H171.078L171.65 147.835V147.338L171.982 147.102L173.999 146.187V143.885L173.164 141.357L170.033 137.793L167.95 136.433L159.844 142.214Z" fill="#4E4A4A"/>
<path fill-rule="evenodd" clip-rule="evenodd" d="M164.694 151.869L164.282 148.701L165.279 148.701L166.921 150.192C166.921 150.192 166.268 150.361 165.818 150.549C165.367 150.737 164.694 151.869 164.694 151.869Z" fill="#322E2D"/>
<path fill-rule="evenodd" clip-rule="evenodd" d="M173.005 146.45L171.893 144.522L171.229 144.728L171.493 147.492L173.005 146.45Z" fill="#322E2D"/>
<path fill-rule="evenodd" clip-rule="evenodd" d="M169.315 148.701L170.653 148.199L169.622 145.503L168.439 146.007L169.315 148.701Z" fill="#322E2D"/>
<path fill-rule="evenodd" clip-rule="evenodd" d="M167.771 149.629L168.342 149.126L167.637 147.102L167.188 147.191V149.77L167.771 149.629Z" fill="#322E2D"/>
<path fill-rule="evenodd" clip-rule="evenodd" d="M161.205 142.478L161.803 144.522L163.683 146.187L165.602 145.503L168.439 144.151L169.546 141.882V139.499L166.921 137.007L160.63 141.597L161.205 142.478Z" fill="#605A5A"/>
<path fill-rule="evenodd" clip-rule="evenodd" d="M127.561 71.6506V70.7571L130.615 70.4994L132.702 72.5506L133.297 74.2728L134.807 73.7728L135.473 72.3861L136.216 69.8367L138.368 69.3207L138.024 68.6068L133.297 68.7062L126.152 69.3207L124.938 69.8367L126.152 70.7571L127.561 71.6506Z" fill="#A3A3A3"/>
<path fill-rule="evenodd" clip-rule="evenodd" d="M104.389 68.7061C105.432 69.563 107.78 69.8366 107.78 69.8366H112.315L121.844 69.2714L126.744 69.8366H132.758L136.742 69.3207L139.797 68.7061L142.566 67.8843V66.9044L139.797 65.1027V61.4993L138.839 56.7122L135.789 51.1825L131.461 47.6011L128.212 45.5505H123.143L118.129 46.6319L113.839 49.1232L112.315 52.0325L110.855 56.7122L109.987 61.4993L108.687 62.2709L104.389 65.0531L103.874 66.6267C103.874 66.6267 103.478 67.958 104.389 68.7061Z" fill="#EDE8E9"/>
<path fill-rule="evenodd" clip-rule="evenodd" d="M112.332 64.5473L115.061 65.7799L118.577 66.6267L123.22 66.9044H132.269L137.256 66.6267L138.921 65.7799V60.2557L134.963 54.0903L131.295 51.2812H126.456L120.21 52.6913L117.827 54.0903L115.916 56.9388L113.317 61.4994L112.332 64.5473Z" fill="#D8D8D8"/>
<path fill-rule="evenodd" clip-rule="evenodd" d="M115.98 51.2813L117.426 49.9828L119.413 48.6865L121.523 47.973H123.756H126.867H129.736V47.2804H126.867L123.756 46.9634H121.523L118.986 47.973L116.779 49.4212L115.324 50.6721L115.98 51.2813Z" fill="#BFBFBF"/>
<path fill-rule="evenodd" clip-rule="evenodd" d="M118.559 52.1731L120.861 50.9745L122.529 50.4009L124.337 50.0213H126.79H129.735V49.1223H126.79H124.337L122.187 49.5972L120.438 50.0213L118.069 51.2813L118.559 52.1731Z" fill="#BFBFBF"/>
<path fill-rule="evenodd" clip-rule="evenodd" d="M115.324 50.6478L114.836 50.0987L116.899 48.3898L118.904 46.9634L120.732 46.4678H123.22H125.626H127.691H129.148L129.736 47.2805H127.362H124.513H120.732L118.986 47.973L116.899 49.1224L115.324 50.6478Z" fill="#F7F6F6"/>
<path fill-rule="evenodd" clip-rule="evenodd" d="M118.069 51.2813L120.438 50.0213L122.285 49.4873L124.337 49.1223H127.231H129.735L129.376 48.5577L126.339 48.7219H124.196L122.285 48.9517L119.305 49.7496L118.069 51.2813Z" fill="#F7F6F6"/>
<path fill-rule="evenodd" clip-rule="evenodd" d="M129.736 67.271L129.276 65.6582H123.903L123.62 67.271L124.338 68.6068H129.736V67.271Z" fill="#F7F6F6"/>
<path fill-rule="evenodd" clip-rule="evenodd" d="M124.512 66.9044V68.6068H129.735V67.271L124.512 66.9044Z" fill="#BFBFBF"/>
</svg>
