<svg width="240" height="250" viewBox="0 0 240 250" fill="none" xmlns="http://www.w3.org/2000/svg">
<path fill-rule="evenodd" clip-rule="evenodd" d="M153.373 0.568337L15.0415 10.7849C3.88328 11.7515 0 19.0431 0 27.7847V179.433C0 186.241 2.41664 192.066 8.2499 199.849L40.7662 242.132C46.1078 248.94 50.966 250.399 61.1659 249.915L221.806 240.191C235.389 239.224 239.28 232.899 239.28 222.207V51.6011C239.28 46.0761 237.097 44.4845 230.672 39.7679C230.302 39.5016 229.933 39.2349 229.564 38.9679L185.414 7.85992C174.731 0.0933423 170.365 -0.88998 153.373 0.568337ZM64.7992 48.8094C51.6827 49.6928 48.7077 49.8928 41.2578 43.8345L22.3164 28.768C20.3914 26.818 21.3581 24.3847 26.208 23.9014L159.19 14.1848C170.356 13.2099 176.173 17.1015 180.539 20.5014L203.347 37.0262C204.322 37.5179 206.747 40.4262 203.831 40.4262L66.4992 48.6928L64.7992 48.8094ZM49.5077 220.749V75.9175C49.5077 69.5925 51.4494 66.6759 57.266 66.1842L214.997 56.951C220.347 56.4677 222.764 59.8677 222.764 66.1842V210.049C222.764 216.374 221.789 221.724 213.056 222.207L62.1159 230.957C53.3827 231.441 49.5077 228.532 49.5077 220.749ZM198.506 83.684C199.473 88.059 198.506 92.434 194.131 92.9339L186.856 94.3756V201.308C180.539 204.708 174.723 206.649 169.865 206.649C162.1 206.649 160.157 204.217 154.343 196.937L154.34 196.933L106.765 122.084V194.499L121.815 197.908C121.815 197.908 121.815 206.658 109.674 206.658L76.1991 208.599C75.2241 206.649 76.1991 201.791 79.5907 200.824L88.3322 198.399V102.651L76.1991 101.667C75.2241 97.2922 77.649 90.9756 84.4489 90.484L120.365 88.0673L169.865 163.883V96.8089L157.248 95.3589C156.273 90.0006 160.156 86.109 165.006 85.634L198.506 83.684Z" fill="black"/>
<path fill-rule="evenodd" clip-rule="evenodd" d="M15.0415 10.7849L153.373 0.568337C170.365 -0.88998 174.731 0.0933423 185.414 7.85992L229.572 38.9679C229.948 39.2442 230.311 39.5101 230.662 39.7668C237.099 44.4801 239.28 46.077 239.28 51.6011V222.207C239.28 232.899 235.397 239.224 221.806 240.191L61.1659 249.915C50.966 250.399 46.1078 248.94 40.7662 242.132L8.2499 199.849C2.41664 192.066 0 186.241 0 179.433V27.7847C0 19.0431 3.88328 11.7515 15.0415 10.7849ZM64.7992 48.8094C51.6827 49.6928 48.7077 49.8928 41.2578 43.8345L22.3164 28.768C20.3914 26.818 21.3581 24.3847 26.208 23.9014L159.19 14.1848C170.356 13.2099 176.173 17.1015 180.539 20.5014L203.347 37.0262C204.322 37.5179 206.747 40.4262 203.831 40.4262L66.4992 48.6928L64.7992 48.8094ZM49.5077 75.9175V220.749C49.5077 228.532 53.3827 231.441 62.1159 230.957L213.056 222.207C221.789 221.724 222.764 216.374 222.764 210.049V66.1842C222.764 59.8677 220.347 56.4677 214.997 56.951L57.266 66.1842C51.4494 66.6759 49.5077 69.5925 49.5077 75.9175ZM198.506 83.684C199.473 88.059 198.506 92.434 194.131 92.9339L186.856 94.3756V201.308C180.539 204.708 174.723 206.649 169.865 206.649C162.1 206.649 160.157 204.217 154.343 196.937L154.34 196.933L106.765 122.084V194.499L121.815 197.908C121.815 197.908 121.815 206.658 109.674 206.658L76.1991 208.599C75.2241 206.649 76.1991 201.791 79.5907 200.824L88.3322 198.399V102.651L76.1991 101.667C75.2241 97.2922 77.649 90.9756 84.4489 90.484L120.365 88.0673L169.865 163.883V96.8089L157.248 95.3589C156.273 90.0006 160.156 86.109 165.006 85.634L198.506 83.684Z" fill="black"/>
<path d="M64.7992 48.8094C51.6827 49.6928 48.7077 49.8928 41.2578 43.8345L22.3164 28.768C20.3914 26.818 21.3581 24.3847 26.208 23.9014L159.19 14.1848C170.356 13.2099 176.173 17.1015 180.539 20.5014L203.347 37.0262C204.322 37.5179 206.747 40.4262 203.831 40.4262L66.4992 48.6928L64.7992 48.8094Z" fill="white"/>
<path fill-rule="evenodd" clip-rule="evenodd" d="M49.5077 220.749V75.9175C49.5077 69.5925 51.4494 66.6759 57.266 66.1842L214.997 56.951C220.347 56.4677 222.764 59.8677 222.764 66.1842V210.049C222.764 216.374 221.789 221.724 213.056 222.207L62.1159 230.957C53.3827 231.441 49.5077 228.532 49.5077 220.749ZM194.131 92.9339C198.506 92.434 199.473 88.059 198.506 83.684L165.006 85.634C160.156 86.109 156.273 90.0006 157.248 95.3589L169.865 96.8089V163.883L120.365 88.0673L84.4489 90.484C77.649 90.9756 75.2241 97.2922 76.1991 101.667L88.3322 102.651V198.399L79.5907 200.824C76.1991 201.791 75.2241 206.649 76.1991 208.599L109.674 206.658C121.815 206.658 121.815 197.908 121.815 197.908L106.765 194.499V122.084L154.34 196.933L154.343 196.937C160.157 204.217 162.1 206.649 169.865 206.649C174.723 206.649 180.539 204.708 186.856 201.308V94.3756L194.131 92.9339Z" fill="white"/>
</svg>
