<svg width="228" height="250" viewBox="0 0 228 250" fill="none" xmlns="http://www.w3.org/2000/svg">
<path d="M80.9788 51.7919C77.082 50.7477 73.0765 53.0603 72.0324 56.9571C70.9882 60.8539 73.3008 64.8594 77.1976 65.9035L175.979 92.372C179.876 93.4161 183.882 91.1036 184.926 87.2068C185.97 83.3099 183.657 79.3045 179.76 78.2603L80.9788 51.7919Z" fill="#151515"/>
<path d="M69.6346 94.1273C65.7377 93.0832 61.7323 95.3957 60.6881 99.2926C59.644 103.189 61.9565 107.195 65.8534 108.239L164.635 134.707C168.532 135.752 172.537 133.439 173.581 129.542C174.626 125.645 172.313 121.64 168.416 120.596L69.6346 94.1273Z" fill="#151515"/>
<path d="M49.3452 141.628C50.3893 137.731 54.3948 135.419 58.2916 136.463L114.738 151.588C118.635 152.632 120.948 156.637 119.904 160.534C118.859 164.431 114.854 166.743 110.957 165.699L54.5104 150.574C50.6136 149.53 48.301 145.525 49.3452 141.628Z" fill="#151515"/>
<path fill-rule="evenodd" clip-rule="evenodd" d="M116.481 8.03081L169.679 22.2851C193.389 28.6382 205.244 31.8147 213.063 38.8555C219.942 45.0487 224.683 53.2605 226.607 62.3139C228.795 72.6062 225.618 84.4611 219.265 108.171L196.701 192.383C190.348 216.093 187.171 227.948 180.13 235.767C173.937 242.646 165.725 247.387 156.672 249.311C146.38 251.499 134.525 248.322 110.815 241.969L57.617 227.715C33.9072 221.362 22.0523 218.185 14.2327 211.145C7.35441 204.951 2.61333 196.74 0.688976 187.686C-1.49873 177.394 1.67779 165.539 8.03081 141.829L30.5954 57.617C36.9484 33.9072 40.1249 22.0523 47.1657 14.2327C53.3589 7.35441 61.5707 2.61333 70.6241 0.688976C80.9164 -1.49873 92.7713 1.67779 116.481 8.03081ZM72.0324 56.9571C73.0765 53.0603 77.082 50.7477 80.9788 51.7919L179.76 78.2603C183.657 79.3045 185.97 83.3099 184.926 87.2068C183.882 91.1036 179.876 93.4161 175.979 92.372L77.1976 65.9035C73.3008 64.8594 70.9882 60.8539 72.0324 56.9571ZM60.6881 99.2926C61.7323 95.3957 65.7377 93.0832 69.6346 94.1273L168.416 120.596C172.313 121.64 174.626 125.645 173.581 129.542C172.537 133.439 168.532 135.752 164.635 134.707L65.8534 108.239C61.9565 107.195 59.644 103.189 60.6881 99.2926ZM58.2916 136.463C54.3948 135.419 50.3893 137.731 49.3452 141.628C48.301 145.525 50.6136 149.53 54.5104 150.574L110.957 165.699C114.854 166.743 118.859 164.431 119.904 160.534C120.948 156.637 118.635 152.632 114.738 151.588L58.2916 136.463Z" fill="white"/>
</svg>
