<svg width="251" height="250" viewBox="0 0 251 250" fill="none" xmlns="http://www.w3.org/2000/svg">
<path d="M250.084 111.917H173.9L239.875 73.8333L226.792 51.1667L160.809 89.25L198.892 23.2917L176.225 10.2083L138.134 76.15V0H111.95V76.1583L73.8585 10.2083L51.1834 23.2917L89.2668 89.2333L23.3 51.1667L10.2084 73.8333L76.1835 111.917H0V138.092H76.1752L10.2084 176.175L23.2917 198.842L89.2752 160.758L51.1834 226.717L73.8502 239.8L111.95 173.85V250H138.134V172.217L176.925 239.383L198.184 227.117L159.384 159.933L226.775 198.833L239.867 176.167L173.9 138.083H250.076V111.917H250.084ZM125.042 160.583C120.368 160.584 115.74 159.664 111.421 157.876C107.103 156.088 103.179 153.466 99.8735 150.162C96.5682 146.857 93.946 142.934 92.1569 138.616C90.3677 134.298 89.4466 129.67 89.446 124.996C89.4455 120.322 90.3655 115.694 92.1537 111.375C93.9418 107.057 96.563 103.133 99.8677 99.8275C103.172 96.5221 107.096 93.9 111.414 92.1108C115.732 90.3217 120.36 89.4005 125.034 89.4C134.473 89.3989 143.526 93.1477 150.202 99.8216C156.877 106.496 160.628 115.548 160.629 124.987C160.631 134.427 156.882 143.48 150.208 150.156C143.534 156.831 134.481 160.582 125.042 160.583Z" fill="#625DF5"/>
</svg>
