<svg width="331" height="100" viewBox="0 0 331 100" fill="none" xmlns="http://www.w3.org/2000/svg">
<g clip-path="url(#clip0_1705_73841)">
<path d="M237 101C226.979 101 216.958 101 206.804 100.661C202.574 98.1196 199.259 98.3784 198 101C187.646 101 177.292 101 166.802 100.672C162.27 99.5704 157.883 98.7241 153.459 98.1615C153.099 98.1157 152.492 100.008 152 101C138.979 101 125.958 101 112.804 100.665C108.803 98.223 106.24 98.4472 105 101C99.312 101 93.6239 101 87.8045 100.656C84.4516 100.069 81.23 99.8255 78.0084 99.5819C78.0056 100.055 78.0028 100.527 78 101C72.312 101 66.6239 101 60.8053 100.645C60.1637 99.8822 59.673 99.1477 59.139 99.1148C46.9468 98.3623 34.7513 97.6609 22.5534 97.0061C15.3717 96.6206 8.18466 96.3321 1 96C1 75.6458 1 55.2915 1.31872 34.7973C2.56116 31.4791 3.69797 28.345 4.36655 25.114C6.02497 17.0996 7.46953 9.0409 9 1C12.6929 1 16.3858 1 20.2076 1.31777C20.8208 2.06687 21.2339 2.70007 21.7999 2.89963C32.5597 6.69328 43.3402 3.96581 54.1052 2.85685C54.4634 2.81994 54.7044 1.64465 55 1C58.0306 1 61.0612 1 64.2162 1.30453C64.9815 2.06529 65.5877 2.85687 66.2687 2.92749C76.6672 4.00598 87.0585 5.57619 97.4849 5.87873C121.723 6.58203 145.98 6.60871 170.228 7.02673C178.651 7.17194 187.075 8.06164 195.487 7.92212C224.327 7.44377 253.165 6.72857 281.998 5.91865C286.359 5.79615 290.673 4.41078 295.043 4.10697C301.051 3.6893 307.099 3.86192 313.112 3.48604C314.122 3.42286 315.04 1.86646 316 1C319.361 1 322.723 1 326.216 1.28723C327.638 3.58595 328.876 5.63581 330.268 7.57502C330.531 7.94202 331.407 7.86964 332 8C332 10.0417 332 12.0833 331.696 14.2349C331.013 15.1047 330.635 15.8644 330.258 16.6242C330.838 16.7494 331.419 16.8747 332 17C332 22.0221 332 27.0442 331.593 32.5352C329.792 33.9953 327.535 34.7306 327.153 36.021C325.284 42.3363 323.686 48.755 322.422 55.221C320.594 64.5691 315.501 73.4225 317.959 83.4585C318.062 83.8781 317.85 84.4527 317.621 84.8638C315.224 89.1667 312.793 93.4509 310.223 98.0033C303.542 98.0033 296.567 98.1348 289.598 97.9681C281.872 97.7832 274.154 97.2885 266.429 97.0067C263.609 96.9039 260.708 96.6305 257.971 97.1282C252.614 98.1019 247.353 99.1315 241.94 97.515C238.351 96.4434 238.323 96.5367 237 101ZM183.041 65.4103C183.041 52.1802 183.041 38.9501 183.041 25.805C179.703 25.805 177.123 25.805 174.002 25.805C174.002 31.984 174.002 37.8207 174.002 44.1234C166.529 37.3179 158.795 36.902 152.631 42.5025C145.85 48.6642 144.578 60.7226 150.54 67.9462C152.724 70.5925 156.106 72.8411 159.381 73.864C164.876 75.5806 169.996 73.8162 173.905 68.4006C174.785 76.3411 179.485 72.8064 183.041 73.3395C183.041 70.6907 183.041 68.5333 183.041 65.4103ZM210.896 73.9937C214.663 71.8751 218.43 69.7564 223.292 67.0219C219.548 64.8015 217.334 63.4889 214.964 62.0837C211.851 66.3911 207.81 68.4126 203.166 66.2879C200.759 65.1865 199.155 62.3283 197.188 60.2637C197.542 59.791 197.896 59.3183 198.249 58.8455C206.33 58.8455 214.41 58.8455 222.652 58.8455C222.84 51.2536 221.578 44.7068 214.734 40.8758C208.585 37.4342 202.146 37.6228 196.276 41.4085C189.853 45.5511 188.168 52.0486 189.016 59.3035C190.197 69.4116 198.289 75.0616 210.896 73.9937ZM101.606 52.31C98.2182 41.6256 89.1893 36.4365 78.8226 39.2158C69.9102 41.6053 64.3999 50.9331 66.387 60.2668C68.5126 70.2515 77.2442 75.8552 87.8534 74.0435C97.2629 72.4367 102.518 64.5509 101.606 52.31ZM228.005 69.229C228.117 70.626 228.228 72.023 228.32 73.1817C231.484 73.1817 234.074 73.1817 236.922 73.1817C236.922 66.9843 236.803 61.161 236.955 55.3447C237.108 49.4946 240.17 46.5049 245.533 46.5878C250.759 46.6687 252.992 49.2876 253.034 55.5125C253.073 61.4212 253.042 67.3304 253.042 73.2581C256.367 73.2581 258.96 73.2581 261.935 73.2581C261.935 71.3266 261.944 69.6946 261.934 68.0627C261.899 62.5691 262.208 57.0454 261.74 51.5886C260.948 42.3571 252.919 36.7549 244.426 39.5091C241.72 40.3866 239.449 42.6048 236.974 44.2131C236.795 42.7814 236.614 41.3363 236.408 39.684C233.615 39.684 231.032 39.684 228.005 39.684C228.005 49.3855 228.005 58.8342 228.005 69.229ZM132.831 65.4427C132.831 68.0363 132.831 70.6299 132.831 73.1858C136.074 73.1858 138.63 73.1858 141.208 73.1858C141.208 65.3618 141.61 57.883 141.093 50.4682C140.594 43.3106 135.033 38.4812 127.878 39.1576C123.98 39.5261 120.261 41.8002 116.459 43.2157C116.322 42.5703 115.999 41.0481 115.727 39.7649C112.908 39.7649 110.487 39.7649 108.145 39.7649C108.145 51.1505 108.145 62.1931 108.145 73.1488C111.077 73.1488 113.62 73.1488 116.716 73.1488C116.716 66.4434 116.392 60.1238 116.817 53.855C117.168 48.6908 120.558 46.3052 125.685 46.6268C130.321 46.9175 132.577 49.3238 132.795 54.494C132.934 57.8146 132.827 61.1455 132.831 65.4427ZM296.104 56.4183C291.053 54.9785 285.95 53.6929 280.981 52.0092C279.395 51.4716 278.166 49.8784 276.774 48.7681C278.407 47.7296 280.315 45.5526 281.623 45.8669C285.483 46.7939 289.105 48.7075 293.383 50.4664C294.514 49.5582 296.384 48.0568 298.274 46.5391C290.999 38.9086 281.407 36.4705 274.071 40.1924C270.214 42.1491 267.877 45.2304 268.101 49.7281C268.318 54.0906 270.907 56.8308 274.91 57.9588C278.404 58.9434 282.134 59.1098 285.602 60.1586C287.34 60.6841 288.727 62.3708 290.273 63.5323C288.648 64.7089 287.16 66.5859 285.375 66.9322C279.761 68.0215 275.576 65.1474 272.26 60.6681C269.951 62.1488 267.914 63.4551 265.878 64.7605C271.845 73.7451 282.767 76.9987 291.911 72.8183C298.786 69.675 300.72 63.2299 296.104 56.4183ZM58.7331 69.2309C60.1052 66.7785 61.4774 64.326 63.0632 61.4917C59.4009 60.6532 56.8817 60.0764 54.4903 59.5288C51.1399 65.7754 48.1489 67.6136 43.5488 66.5354C39.0386 65.4784 36.0737 61.6166 36.2642 56.5332C36.438 51.8952 38.1829 48.1134 43.0904 46.6376C47.8862 45.1954 50.9114 46.9743 54.7229 53.5738C57.1913 52.9333 59.7109 52.2795 62.2068 51.6319C60.6726 43.2222 54.2903 38.4292 45.2153 38.6079C36.3302 38.7829 29.2654 44.6212 27.9348 52.8883C26.6448 60.903 29.7056 68.1801 35.9259 71.8871C42.6581 75.8993 51.4757 75.0543 58.7331 69.2309Z" fill="#F0FC1C"/>
<path d="M183.041 65.8932C183.041 68.5335 183.041 70.6909 183.041 73.3397C179.485 72.8065 174.786 76.3413 173.906 68.4007C169.997 73.8164 164.876 75.5807 159.381 73.8642C156.106 72.8412 152.724 70.5927 150.54 67.9464C144.579 60.7228 145.85 48.6643 152.632 42.5027C158.796 36.9022 166.53 37.318 174.002 44.1235C174.002 37.8208 174.002 31.9841 174.002 25.8052C177.124 25.8052 179.704 25.8052 183.041 25.8052C183.041 38.9503 183.041 52.1804 183.041 65.8932ZM161.594 66.1208C168.244 67.5921 172.958 64.9237 173.998 59.1002C175.19 52.4165 172.023 47.0416 166.218 46.3244C161.839 45.7834 158.405 47.5318 156.509 51.6358C154.153 56.734 155.909 62.3001 161.594 66.1208Z" fill="#080901"/>
<path d="M210.464 74.0462C198.289 75.0617 190.197 69.4117 189.016 59.3036C188.168 52.0487 189.853 45.5513 196.276 41.4087C202.146 37.6229 208.585 37.4343 214.734 40.8759C221.578 44.707 222.84 51.2537 222.652 58.8457C214.41 58.8457 206.329 58.8457 198.249 58.8457C197.896 59.3184 197.542 59.7911 197.188 60.2639C199.155 62.3284 200.758 65.1866 203.166 66.288C207.81 68.4127 211.85 66.3912 214.964 62.0838C217.334 63.489 219.547 64.8017 223.292 67.022C218.43 69.7566 214.663 71.8752 210.464 74.0462ZM198.953 49.7216C198.669 50.7215 198.386 51.7215 198.112 52.6887C203.406 52.6887 208.286 52.6887 213.23 52.6887C211.36 45.2909 205.352 43.8392 198.953 49.7216Z" fill="#050500"/>
<path d="M101.698 52.7187C102.517 64.551 97.2624 72.4368 87.8529 74.0436C77.2437 75.8553 68.5121 70.2516 66.3865 60.2669C64.3995 50.9332 69.9098 41.6054 78.8222 39.2159C89.1888 36.4366 98.2177 41.6257 101.698 52.7187ZM83.6237 66.8051C85.0749 66.5056 86.6601 66.4827 87.9532 65.8566C92.5101 63.6505 93.4932 59.5936 93.0975 54.9818C92.7154 50.5283 90.4517 47.5072 86.0321 46.4807C82.0773 45.5621 78.7522 46.8868 76.4907 50.2307C72.2604 56.4859 75.3184 64.2736 83.6237 66.8051Z" fill="#070701"/>
<path d="M228.006 68.7561C228.006 58.8344 228.006 49.3857 228.006 39.6842C231.033 39.6842 233.616 39.6842 236.408 39.6842C236.615 41.3365 236.795 42.7815 236.974 44.2133C239.45 42.6049 241.721 40.3868 244.426 39.5093C252.919 36.755 260.948 42.3573 261.74 51.5888C262.208 57.0455 261.899 62.5692 261.934 68.0629C261.944 69.6948 261.936 71.3267 261.936 73.2583C258.96 73.2583 256.367 73.2583 253.043 73.2583C253.043 67.3306 253.073 61.4214 253.034 55.5126C252.993 49.2877 250.76 46.6689 245.533 46.588C240.17 46.505 237.109 49.4948 236.956 55.3449C236.804 61.1611 236.923 66.9844 236.923 73.1819C234.074 73.1819 231.484 73.1819 228.321 73.1819C228.228 72.0231 228.117 70.6262 228.006 68.7561Z" fill="#0B0B01"/>
<path d="M132.831 64.9574C132.828 61.1457 132.934 57.8148 132.795 54.4942C132.578 49.324 130.321 46.9177 125.685 46.627C120.558 46.3054 117.168 48.691 116.818 53.8552C116.392 60.124 116.717 66.4436 116.717 73.149C113.621 73.149 111.077 73.149 108.146 73.149C108.146 62.1933 108.146 51.1507 108.146 39.7651C110.487 39.7651 112.908 39.7651 115.728 39.7651C116 41.0483 116.323 42.5705 116.459 43.2159C120.261 41.8004 123.98 39.5263 127.879 39.1578C135.034 38.4814 140.594 43.3108 141.093 50.4684C141.61 57.8832 141.209 65.362 141.209 73.186C138.63 73.186 136.074 73.186 132.832 73.186C132.832 70.6301 132.832 68.0365 132.831 64.9574Z" fill="#0B0B01"/>
<path d="M296.391 56.677C300.721 63.2298 298.786 69.6749 291.911 72.8182C282.768 76.9986 271.845 73.745 265.878 64.7604C267.914 63.455 269.951 62.1487 272.26 60.668C275.577 65.1473 279.762 68.0214 285.375 66.9321C287.16 66.5858 288.649 64.7088 290.273 63.5322C288.727 62.3707 287.34 60.684 285.603 60.1585C282.134 59.1097 278.404 58.9433 274.91 57.9587C270.907 56.8307 268.318 54.0906 268.101 49.728C267.878 45.2303 270.214 42.149 274.071 40.1923C281.407 36.4704 290.999 38.9085 298.274 46.539C296.384 48.0567 294.514 49.5581 293.383 50.4663C289.105 48.7074 285.483 46.7938 281.624 45.8668C280.315 45.5525 278.408 47.7295 276.774 48.7681C278.166 49.8783 279.395 51.4715 280.982 52.0091C285.95 53.6928 291.053 54.9784 296.391 56.677Z" fill="#080801"/>
<path d="M58.4779 69.4905C51.4753 75.0543 42.6578 75.8993 35.9255 71.8871C29.7053 68.18 26.6444 60.9029 27.9344 52.8882C29.265 44.6211 36.3299 38.7828 45.2149 38.6079C54.29 38.4291 60.6723 43.2221 62.2064 51.6318C59.7105 52.2795 57.1909 52.9333 54.7225 53.5737C50.9111 46.9742 47.8858 45.1954 43.09 46.6376C38.1825 48.1134 36.4377 51.8952 36.2638 56.5331C36.0733 61.6166 39.0382 65.4783 43.5484 66.5354C48.1486 67.6135 51.1396 65.7753 54.4899 59.5287C56.8813 60.0763 59.4006 60.6531 63.0628 61.4917C61.477 64.326 60.1048 66.7784 58.4779 69.4905Z" fill="#060601"/>
<path d="M161.221 66.0047C155.91 62.2999 154.153 56.7338 156.509 51.6357C158.405 47.5317 161.839 45.7833 166.218 46.3243C172.023 47.0414 175.191 52.4164 173.998 59.1001C172.958 64.9236 168.244 67.592 161.221 66.0047Z" fill="#EDF81B"/>
<path d="M199.163 49.3811C205.352 43.839 211.36 45.2907 213.23 52.6885C208.286 52.6885 203.406 52.6885 198.112 52.6885C198.386 51.7212 198.669 50.7213 199.163 49.3811Z" fill="#E8F41B"/>
<path d="M83.2376 66.7695C75.3193 64.2733 72.2613 56.4855 76.4916 50.2304C78.7531 46.8865 82.0781 45.5618 86.033 46.4803C90.4526 47.5068 92.7163 50.528 93.0984 54.9814C93.4941 59.5933 92.511 63.6502 87.9541 65.8563C86.661 66.4823 85.0758 66.5052 83.2376 66.7695Z" fill="#EBF71B"/>
</g>
<defs>
<clipPath id="clip0_1705_73841">
<rect width="331" height="100" fill="white"/>
</clipPath>
</defs>
</svg>
