<svg width="24" height="24" viewBox="0 0 24 24" fill="none" xmlns="http://www.w3.org/2000/svg">
<path d="M15.9386 6.76248V10.5148H8.41367V6.76248C8.41367 4.68348 10.0971 3 12.1761 3C13.2207 3 14.1537 3.42594 14.8383 4.10035C15.5177 4.78489 15.9386 5.71791 15.9386 6.76248Z" fill="white"/>
<path d="M8.41367 10.8191H15.9386V12.6242C15.9386 14.7032 14.2551 16.3867 12.1761 16.3867C10.0971 16.3867 8.41367 14.7032 8.41367 12.6242V10.8191Z" fill="white"/>
<path d="M17.7894 10.6618C17.4801 10.6618 17.2316 10.9103 17.2316 11.2196V12.3707C17.2316 15.0632 15.2034 17.4161 12.5159 17.5935C9.56979 17.7913 7.11557 15.4486 7.11557 12.5482V11.2196C7.11557 10.9103 6.8671 10.6618 6.55778 10.6618C6.24847 10.6618 6 10.9103 6 11.2196V12.3707C6 15.5805 8.37818 18.3947 11.5727 18.6939C11.5778 18.6939 11.5879 18.6939 11.593 18.6939V20.854H10.5738C10.2543 20.854 10.0008 21.1126 10.0008 21.427C10.0008 21.7414 10.2594 22 10.5738 22H13.6467C13.9661 22 14.2196 21.7414 14.2196 21.427C14.2196 21.1126 13.961 20.854 13.6467 20.854H12.7441V18.6888C15.8778 18.3947 18.3371 15.7579 18.3371 12.5532V11.2247C18.3371 10.9154 18.0886 10.6669 17.7793 10.6669L17.7894 10.6618Z" fill="white"/>
<path d="M12.1761 7.90339C12.4674 7.90339 12.7035 7.66728 12.7035 7.37603C12.7035 7.08478 12.4674 6.84868 12.1761 6.84868C11.8849 6.84868 11.6488 7.08478 11.6488 7.37603C11.6488 7.66728 11.8849 7.90339 12.1761 7.90339Z" fill="white"/>
<path d="M12.1761 6.01708C12.4058 6.01708 12.5919 5.83092 12.5919 5.60129C12.5919 5.37165 12.4058 5.18549 12.1761 5.18549C11.9465 5.18549 11.7603 5.37165 11.7603 5.60129C11.7603 5.83092 11.9465 6.01708 12.1761 6.01708Z" fill="white"/>
</svg>
