<?xml version="1.0" encoding="UTF-8"?>
<svg data-bbox="0 0 256.59 256.59" xmlns="http://www.w3.org/2000/svg" viewBox="0 0 257 257" height="257" width="257" data-type="color">
    <g>
        <path fill="#FFDD33" d="M0 64.15C0 28.75 28.74 0 64.14 0h128.3c35.41 0 64.15 28.74 64.15 64.15v128.29c0 35.41-28.74 64.15-64.15 64.15H64.14C28.74 256.6 0 227.85 0 192.45z" data-color="1"/>
        <path fill="#1C1C1E" d="M170.57 48.95H147.3l19.42 34.1-42.7-34.1h-23.27L122.1 90.6 77.48 48.95H54.21l23.27 53.06-23.27 106.11h23.27L122.1 94.46l-21.35 113.66h23.27l42.7-121.27-19.42 121.27h23.27l42.7-132.62-42.7-26.5z" clip-rule="evenodd" fill-rule="evenodd" data-color="2"/>
    </g>
</svg>
