<?xml version="1.0" encoding="UTF-8"?>
<svg data-bbox="0 11.185 128 29.63" viewBox="0 0 128 48" height="48" width="128" xmlns="http://www.w3.org/2000/svg" data-type="color">
    <g>
        <path clip-rule="evenodd" d="M99.592 31.618c3.299 0 5.982-2.63 5.982-5.863s-2.683-5.863-5.982-5.863-5.983 2.63-5.983 5.863 2.684 5.863 5.983 5.863m5.982-20.433h2.834v23.23h-2.834v-2.32a8.84 8.84 0 0 1-5.982 2.3c-4.861 0-8.816-3.876-8.816-8.64s3.955-8.64 8.816-8.64c2.237 0 4.346.814 5.982 2.3zm-64.758 20.33c3.299 0 5.983-2.63 5.983-5.862s-2.684-5.863-5.983-5.863-5.982 2.63-5.982 5.863c0 3.232 2.684 5.862 5.982 5.862m-5.982-12.203a8.84 8.84 0 0 1 5.982-2.3c4.862 0 8.817 3.877 8.817 8.64 0 4.765-3.955 8.64-8.817 8.64a8.84 8.84 0 0 1-5.982-2.3v8.23H32v-23.23h2.834zm20.206 4.992c.638-2.626 3.015-4.511 5.726-4.511 2.675 0 4.916 1.845 5.514 4.51zm5.726-7.311c-4.789 0-8.684 3.908-8.684 8.71 0 4.804 3.895 8.712 8.684 8.712 2.681 0 5.142-1.007 6.753-2.763l.837-.913.107-.118-.117-.108-1.82-1.679-.117-.108-.108.117-.837.913c-1.067 1.164-2.823 1.859-4.698 1.859-2.711 0-5.088-1.886-5.726-4.511h14.184v-1.4c0-4.885-3.715-8.711-8.458-8.711m64.4 8.71c0 3.26-2.684 5.912-5.983 5.912s-5.982-2.652-5.982-5.911c0-3.26 2.684-5.911 5.982-5.911s5.983 2.651 5.983 5.91m-5.983-8.71c-4.861 0-8.816 3.907-8.816 8.71s3.955 8.712 8.816 8.712S128 30.507 128 25.704s-3.955-8.711-8.817-8.711m-39.428 0c-1.97 0-3.846.75-5.322 2.12v-2.12h-2.76v17.422h2.76v-8.891c0-3.172 2.387-5.753 5.322-5.753s5.323 2.58 5.323 5.753v8.89h2.758v-8.89c0-4.704-3.625-8.531-8.081-8.531" fill-rule="evenodd" fill="#1A2022" data-color="1"/>
        <path clip-rule="evenodd" d="M0 27.778h13.333v13.037l13.334-13.037V14.74H13.333z" fill-rule="evenodd" fill="#FF4876" data-color="2"/>
    </g>
</svg>
