<svg xmlns="http://www.w3.org/2000/svg" viewBox="0 0 24 24">
  <path d="M5.042 15.165a2.528 2.528 0 0 1-2.52 2.521 2.528 2.528 0 0 1-2.521-2.52 2.528 2.528 0 0 1 2.52-2.521h2.521v2.52zm1.271 0a2.528 2.528 0 0 1 2.521-2.521 2.528 2.528 0 0 1 2.521 2.52v6.313a2.528 2.528 0 0 1-2.52 2.521 2.528 2.528 0 0 1-2.522-2.52v-6.313zm2.521-10.123a2.528 2.528 0 0 1-2.52-2.521A2.528 2.528 0 0 1 8.834 0a2.528 2.528 0 0 1 2.521 2.52v2.522H8.834zm0 1.271a2.528 2.528 0 0 1 2.521 2.521 2.528 2.528 0 0 1-2.52 2.521H2.521A2.528 2.528 0 0 1 0 8.834a2.528 2.528 0 0 1 2.52-2.521h6.314zm10.123 2.521a2.528 2.528 0 0 1 2.521-2.521A2.528 2.528 0 0 1 24 8.834a2.528 2.528 0 0 1-2.52 2.521h-2.521V8.834zm-1.271 0a2.528 2.528 0 0 1-2.521 2.521 2.528 2.528 0 0 1-2.521-2.52V2.521A2.528 2.528 0 0 1 15.165 0a2.528 2.528 0 0 1 2.521 2.52v6.314zm-2.521 10.123a2.528 2.528 0 0 1 2.52 2.521 2.528 2.528 0 0 1-2.52 2.521 2.528 2.528 0 0 1-2.521-2.52v-2.522h2.521zm0-1.271a2.528 2.528 0 0 1-2.521-2.521 2.528 2.528 0 0 1 2.52-2.521h6.313A2.528 2.528 0 0 1 24 15.165a2.528 2.528 0 0 1-2.52 2.521h-6.314z" fill="#E01E5A"/>
</svg>
