<svg width="24" height="24" viewBox="0 0 24 24" fill="none" xmlns="http://www.w3.org/2000/svg">
<path fill-rule="evenodd" clip-rule="evenodd" d="M17.3844 2H7.35553C6.0503 2 5 3.0503 5 4.35553V18.7539C5 20.0591 6.0503 21.1094 7.35553 21.1094H17.3844C18.6794 21.1094 19.7348 20.0591 19.7348 18.7539V4.35553C19.7348 3.0503 18.6794 2 17.3844 2ZM12.6427 4.04452C13.4075 4.04452 14.0295 4.66655 14.0295 5.43133C14.0295 6.19611 13.4075 6.81304 12.6427 6.81304C11.878 6.81304 11.2559 6.19102 11.2559 5.43133C11.2559 4.67165 11.8831 4.04452 12.6427 4.04452ZM12.6427 18.4683C9.83343 18.4683 7.53907 16.1791 7.53907 13.3647C7.53907 10.5503 9.83343 8.26613 12.6427 8.26613C15.452 8.26613 17.7464 10.5503 17.7464 13.3647C17.7464 16.1791 15.452 18.4683 12.6427 18.4683Z" fill="white"/>
<path d="M12.6427 6.23179C13.0848 6.23179 13.4432 5.87341 13.4432 5.43132C13.4432 4.98923 13.0848 4.63084 12.6427 4.63084C12.2006 4.63084 11.8422 4.98923 11.8422 5.43132C11.8422 5.87341 12.2006 6.23179 12.6427 6.23179Z" fill="white"/>
<path d="M12.6428 9.14311C10.3178 9.14311 8.41608 11.0347 8.41608 13.3647C8.41608 15.6948 10.3178 17.5914 12.6428 17.5914C14.9677 17.5914 16.8695 15.6948 16.8695 13.3647C16.8695 11.0347 14.9728 9.14311 12.6428 9.14311ZM12.6428 15.4806C11.4803 15.4806 10.5269 14.5272 10.5269 13.3647C10.5269 12.2022 11.4803 11.2488 12.6428 11.2488C13.8053 11.2488 14.7587 12.1971 14.7587 13.3647C14.7587 14.5323 13.8104 15.4806 12.6428 15.4806Z" fill="white"/>
<path d="M12.6428 14.6036C13.327 14.6036 13.8817 14.049 13.8817 13.3647C13.8817 12.6804 13.327 12.1257 12.6428 12.1257C11.9585 12.1257 11.4038 12.6804 11.4038 13.3647C11.4038 14.049 11.9585 14.6036 12.6428 14.6036Z" fill="white"/>
</svg>
