<svg xmlns="http://www.w3.org/2000/svg" viewBox="0 0 24 24">
  <path d="M16.71.243l-.12 2.71a.18.18 0 0 0 .29.15l1.06-.8.9.7a.18.18 0 0 0 .28-.16l-.14-2.63L21.25 0l.39 8.56-5.07 1.07L15.88 24l-7.56-.06-.39-2.7L3 24.08.92 8.62 6.2.24l10.51.002z" fill="#FF4785"/>
  <path d="M10.1 10.48c-.12.14-.28.14-.4.02l-.65-.67-.02 1.74-1.97.49.02-1.74-.61.67c-.12.12-.28.12-.4-.02l-.27-.34 1.96-2.18 2.62.07-1.96 2.18.68-.22zM13.5 10.9c-.5.27-1.13.18-1.48-.16l.1-1.64c.35.1.87.17 1.37-.06.34-.15.51-.35.53-.57.02-.22-.15-.4-.5-.55-.55-.23-.9-.52-.92-.82-.02-.3.24-.6.73-.83.5-.23 1.1-.14 1.43.19l-.1 1.63c-.35-.1-.87-.16-1.38.07-.32.14-.5.34-.52.56-.02.22.13.4.5.55.54.23.88.52.9.82.02.3-.22.6-.71.82z" fill="#fff"/>
</svg>
