<svg width="538" height="538" viewBox="0 0 538 538" fill="none" xmlns="http://www.w3.org/2000/svg">
<path d="M457.007 172.911C467.852 175.806 473.085 184.175 475.829 193.914C480.364 210.004 485.323 226.165 487.604 242.643C489.749 258.143 489.952 274.193 488.701 289.816C486.752 314.166 480.428 337.652 470.081 360.008C460.227 381.3 447.602 400.63 432.258 418.358C416.162 436.955 397.371 452.003 375.983 464.061C356.727 474.918 336.208 481.768 314.587 486.151C295.177 490.086 275.619 490.902 256.085 489.79C232.775 488.463 210.233 482.957 188.425 474.21C168.511 466.223 150.126 455.687 133.323 442.583C113.586 427.19 97.0603 408.712 84.0054 387.232C73.5984 370.108 64.9906 352.141 60.0933 332.694C56.7498 319.418 53.7184 305.929 52.258 292.351C50.7567 278.392 50.3577 264.15 51.2315 250.141C52.5015 229.781 57.2628 209.944 64.6366 190.853C71.4459 173.224 79.8397 156.318 91.1204 141.149C99.6821 129.636 108.643 118.23 118.755 108.104C133.938 92.9001 151.604 80.6939 171.105 71.4875C188.609 63.2236 206.964 57.575 226.029 53.8762C246.921 49.8228 267.997 49.0649 289.025 50.2436C307.719 51.2914 326.329 54.1014 344.091 60.8936C351.289 63.6462 356.08 68.3505 359.036 76.0308C358.737 81.854 358.411 86.9087 357.854 92.0808C357.411 92.4705 357.201 92.7428 356.694 93.1634C353.333 95.8443 350.632 99.1816 347.137 100.761C335.837 105.869 324.372 110.677 312.723 114.922C304.691 117.849 296.25 119.653 287.568 121.97C276.011 124.193 264.839 126.229 253.758 128.673C245.444 130.506 237.245 132.863 228.601 134.993C222.84 136.695 217.403 138.202 212.115 140.12C173.462 154.135 140.002 175.522 113.609 207.673C91.3734 234.761 81.1987 265.894 80.1816 300.341C79.8897 310.225 80.8885 320.219 82.1242 330.058C84.1457 346.155 88.6134 361.714 97.2286 375.538C105.101 388.169 113.737 400.372 122.709 412.256C131.385 423.747 142.275 432.999 155.313 440.093C207.807 467.225 260.525 471.438 314.305 443.837C325.412 435.136 336.199 426.56 347.291 417.839C351.318 413.696 355.161 409.801 358.718 405.659C360.725 403.322 362.26 400.578 364.309 397.864C369.742 389.811 374.876 381.913 380.313 373.852C385.477 363.706 390.879 353.945 395.089 343.694C404.199 321.509 408.51 298.003 413.018 274.571C417.235 252.647 421.555 230.74 426.063 208.874C428.066 199.158 430.645 189.56 433.05 179.658C433.444 178.977 433.751 178.547 434.345 178C435.501 177.008 436.369 176.135 437.648 175.23C444.374 174.436 450.691 173.673 457.007 172.911Z" fill="#F4F5F8"/>
<path d="M358.086 91.9632C358.411 86.9086 358.737 81.854 359.113 76.3945C369.429 80.5185 380.241 84.1157 389.852 89.7581C414.558 104.262 433.406 124.677 446.548 150.19C450.258 157.392 453.471 164.851 456.959 172.552C450.691 173.673 444.374 174.435 437.58 174.878C436.747 173.706 436.393 172.855 436.088 171.67C435.719 170.557 435.301 169.778 434.9 168.693C434.404 167.556 433.892 166.724 433.335 165.522C432.271 162.958 431.252 160.764 430.176 158.247C428.979 155.906 427.839 153.888 426.494 151.545C424.272 148.123 422.255 145.024 420.08 141.613C417.185 137.807 414.447 134.313 411.55 130.494C408.716 127.404 406.041 124.639 403.199 121.561C401.464 120.072 399.704 119.084 398.361 117.693C386.98 105.899 373.149 97.9758 358.086 91.9632Z" fill="#04071A"/>
<path d="M155.005 439.933C142.275 432.999 131.385 423.747 122.709 412.256C113.737 400.372 105.101 388.169 97.2286 375.538C88.6134 361.715 84.1457 346.155 82.1241 330.058C80.8884 320.219 79.8897 310.225 80.1815 300.342C81.1986 265.895 91.3734 234.761 113.609 207.673C140.002 175.522 173.462 154.135 212.115 140.12C217.403 138.203 222.84 136.696 228.604 135.405C228.998 137.185 228.997 138.558 228.683 140.128C224.595 141.575 220.795 142.756 217.048 144.084C191.213 153.245 166.624 164.793 144.619 182.012C138.445 187.805 132.109 193.045 126.848 199.203C120.419 206.73 114.893 215.028 108.688 223.18C105.158 230.21 101.918 237.053 98.4349 244.151C96.6313 249.228 95.0697 254.049 93.3416 259.181C92.6814 261.339 92.1877 263.185 91.3571 265.137C84.5941 286.553 82.1002 308.184 86.6982 330.163C87.9034 335.925 90.6321 341.367 92.8087 347.217C93.1735 348.027 93.3906 348.576 93.6731 349.515C95.1826 353.934 96.6268 357.963 98.0796 362.357C99.8045 366.473 101.521 370.224 103.303 374.31C105.334 378.088 107.3 381.532 109.358 385.292C111.209 387.937 112.967 390.267 114.765 392.929C117.122 396.038 119.441 398.815 121.815 401.914C123.88 404.505 125.89 406.776 128.059 409.34C131.419 412.578 134.619 415.521 138.02 418.714C142.127 422.018 146.032 425.07 150.113 428.404C152.859 430.466 155.429 432.246 157.784 434.3C156.714 436.36 155.859 438.147 155.005 439.933Z" fill="#D3D5E4"/>
<path d="M432.962 179.908C430.645 189.56 428.066 199.158 426.063 208.875C421.554 230.741 417.235 252.647 413.018 274.571C408.51 298.003 404.199 321.51 395.089 343.694C390.879 353.945 385.477 363.706 380.309 373.416C379.622 370.747 379.241 368.352 378.906 365.595C384.308 352.746 390.282 340.482 394.898 327.726C405.321 298.923 408.667 268.516 414.056 238.578C417.228 220.951 419.84 203.149 427.969 186.557C429.419 184.176 430.679 182.011 432.193 179.893C432.619 179.929 432.79 179.918 432.962 179.908Z" fill="#E7E8EF"/>
<path d="M155.313 440.094C155.859 438.147 156.714 436.36 158.109 434.412C180.933 447.384 204.693 455.65 230.983 456.495C232.345 457.21 233.568 457.942 234.726 457.851C240.184 457.424 245.625 456.773 251.14 456.529C254.542 456.828 257.924 457.16 261.199 456.709C279.597 454.175 296.849 448.184 313.151 439.356C313.528 441.114 313.756 442.538 313.985 443.963C260.525 471.438 207.807 467.225 155.313 440.094Z" fill="#D2D4E3"/>
<path d="M287.992 121.959C296.25 119.653 304.691 117.849 312.723 114.922C324.372 110.677 335.837 105.869 347.137 100.762C350.632 99.1818 353.333 95.8446 356.684 93.5298C356.636 95.1614 356.301 96.5752 355.705 98.2307C355.292 99.6455 355.139 100.819 354.731 102.171C353.665 102.897 352.853 103.443 351.703 104.044C347.183 107.059 343.277 110.549 338.772 112.881C322.891 121.099 305.407 123.479 288.005 125.627C287.999 124.133 287.995 123.046 287.992 121.959Z" fill="#D6D7E4"/>
<path d="M433.05 179.658C432.79 179.919 432.619 179.929 432.035 179.605C430.453 178.368 429.383 177.28 428.099 176.591C399.435 161.211 370.734 145.902 342.092 130.483C339.824 129.262 337.931 127.345 336.011 125.481C337.082 124.416 338.006 123.622 339.078 123.146C341.167 124.98 342.948 126.787 345.077 127.961C354.505 133.157 364.034 138.169 373.524 143.251C392.505 153.416 411.509 163.539 430.421 173.831C431.956 174.666 432.86 176.662 434.057 178.118C433.751 178.548 433.444 178.978 433.05 179.658Z" fill="#6F7CEC"/>
<path d="M434.345 178C432.86 176.661 431.956 174.666 430.421 173.831C411.509 163.539 392.505 153.416 373.524 143.251C364.034 138.169 354.505 133.157 345.077 127.961C342.948 126.787 341.167 124.98 339.198 122.883C339.759 121.813 340.348 121.325 341.091 121.152C341.868 122 342.423 122.66 343.128 123.046C354.499 129.266 365.881 135.466 377.277 141.64C393.496 150.428 409.698 159.248 425.982 167.915C429.159 169.606 432.678 170.657 436.039 172.004C436.393 172.855 436.747 173.707 437.17 174.91C436.369 176.135 435.501 177.008 434.345 178Z" fill="#7D89EE"/>
<path d="M355.965 97.989C356.301 96.5753 356.636 95.1615 356.982 93.3815C357.201 92.7431 357.411 92.4708 357.854 92.0811C373.149 97.9762 386.98 105.899 398.362 117.693C399.704 119.085 401.464 120.073 402.799 121.589C400.717 121.291 398.746 120.881 397.038 119.975C383.319 112.699 369.649 105.33 355.965 97.989Z" fill="#F4F4F8"/>
<path d="M287.568 121.97C287.995 123.046 287.999 124.133 287.697 125.853C267.926 130.967 248.461 135.449 228.996 139.93C228.997 138.557 228.998 137.185 228.997 135.399C237.245 132.863 245.444 130.506 253.758 128.673C264.839 126.229 276.011 124.193 287.568 121.97Z" fill="#CBCDDD"/>
<path d="M314.305 443.837C313.757 442.538 313.528 441.113 313.118 439.052C312.903 438.216 312.87 438.016 312.88 437.838C312.923 437.86 312.947 437.955 313.179 437.854C313.597 437.478 313.783 437.203 313.978 436.964C313.987 437 313.935 436.948 314.274 436.93C315.057 436.461 315.502 436.011 316.138 435.327C317.574 434.109 318.818 433.122 320.401 432.051C324.186 429.364 327.634 426.762 331.416 424.074C335.183 421.023 338.616 418.058 342.323 414.958C343.334 414.523 344.07 414.223 345.085 414.11C345.904 415.526 346.446 416.755 346.987 417.984C336.199 426.56 325.412 435.136 314.305 443.837Z" fill="#DADCE8"/>
<path d="M378.861 365.956C379.241 368.352 379.622 370.747 380.006 373.578C374.876 381.913 369.742 389.811 364.306 397.453C363.633 395.455 363.264 393.713 362.969 391.628C366.708 385.207 370.373 379.129 374.278 372.816C375.966 370.371 377.413 368.164 378.861 365.956Z" fill="#E2E3EC"/>
<path d="M362.895 391.971C363.264 393.713 363.633 395.455 364.005 397.607C362.26 400.578 360.725 403.322 358.718 405.659C355.161 409.801 351.317 413.696 347.29 417.839C346.446 416.755 345.904 415.526 345.183 413.781C348.356 409.184 351.709 405.104 355.352 400.861C358.06 397.789 360.477 394.88 362.895 391.971Z" fill="#E0E1EB"/>
<path d="M420.238 141.926C422.255 145.024 424.272 148.123 426.076 151.567C424.907 151.716 423.838 151.732 423.012 151.291C401.171 139.64 379.319 128.009 357.58 116.17C354.709 114.607 352.437 111.942 349.942 109.504C350.535 108.441 351.073 107.662 351.99 106.933C372.966 118.013 393.549 129.072 414.187 140.029C416.022 141.003 418.212 141.309 420.238 141.926Z" fill="#C0C6F6"/>
<path d="M349.888 109.788C352.437 111.943 354.709 114.607 357.58 116.17C379.319 128.009 401.171 139.64 423.012 151.291C423.838 151.732 424.907 151.716 426.281 151.891C427.839 153.888 428.979 155.907 429.987 158.542C426.048 157.509 422.115 156.1 418.458 154.169C396.584 142.62 374.746 131.002 352.983 119.247C350.688 118.007 348.958 115.724 347.057 113.615C348.062 112.133 348.975 110.961 349.888 109.788Z" fill="#ABB2F3"/>
<path d="M420.08 141.613C418.212 141.309 416.022 141.003 414.187 140.029C393.549 129.072 372.966 118.013 352.101 106.579C351.903 105.447 351.972 104.718 352.041 103.989C352.853 103.443 353.665 102.897 355.052 102.314C370.557 110.249 385.452 118.289 400.444 126.142C404.032 128.021 407.945 129.277 411.709 130.82C414.447 134.314 417.185 137.807 420.08 141.613Z" fill="#D7DAF8"/>
<path d="M346.965 113.925C348.958 115.724 350.688 118.008 352.983 119.247C374.746 131.002 396.584 142.62 418.458 154.169C422.115 156.1 426.048 157.509 430.043 158.865C431.252 160.764 432.271 162.958 432.95 165.524C429.373 164.248 426.11 162.651 422.904 160.946C402.381 150.03 381.837 139.152 361.378 128.119C355.425 124.909 349.724 121.231 344.004 117.469C345.055 116.09 346.01 115.007 346.965 113.925Z" fill="#99A3F1"/>
<path d="M343.908 117.767C349.724 121.231 355.425 124.909 361.378 128.119C381.837 139.152 402.381 150.03 422.904 160.946C426.11 162.651 429.373 164.248 432.995 165.894C433.892 166.725 434.404 167.556 434.53 168.687C432.456 168.336 430.683 167.852 429.098 167.011C420.761 162.586 412.483 158.047 404.162 153.591C384.741 143.192 365.291 132.847 345.914 122.365C344.651 121.682 343.913 120.028 343.006 118.581C343.356 118.146 343.632 117.957 343.908 117.767Z" fill="#8E98F0"/>
<path d="M411.55 130.495C407.945 129.277 404.032 128.021 400.444 126.142C385.452 118.289 370.557 110.249 355.306 102.135C355.139 100.819 355.292 99.6453 355.705 98.2305C369.649 105.329 383.319 112.699 397.038 119.974C398.746 120.88 400.717 121.29 402.967 121.902C406.041 124.639 408.716 127.404 411.55 130.495Z" fill="#ECEDFC"/>
<path d="M342.931 118.826C343.913 120.028 344.651 121.682 345.914 122.365C365.291 132.847 384.741 143.192 404.162 153.591C412.484 158.047 420.761 162.586 429.098 167.011C430.683 167.852 432.456 168.336 434.513 168.992C435.301 169.778 435.719 170.558 436.088 171.671C432.678 170.657 429.159 169.606 425.982 167.914C409.698 159.248 393.496 150.427 377.277 141.64C365.881 135.465 354.499 129.265 343.128 123.046C342.423 122.66 341.868 122 341.181 120.872C341.722 119.792 342.326 119.309 342.931 118.826Z" fill="#8792EF"/>
<path d="M343.006 118.58C342.326 119.309 341.722 119.792 341.028 120.556C340.348 121.325 339.759 121.813 339.05 122.565C338.006 123.622 337.082 124.416 335.697 125.612C332.474 128.3 329.71 130.586 326.615 132.964C323.505 134.995 320.727 136.934 317.607 138.945C314.513 140.711 311.76 142.405 308.664 144.158C305.584 145.673 302.849 147.13 299.836 148.717C297.861 149.828 296.164 150.81 294.124 151.835C291.885 152.777 289.988 153.675 287.829 154.678C286.713 155.227 285.86 155.673 284.663 156.153C282.219 157.227 280.119 158.266 277.696 159.375C275.218 160.541 273.064 161.636 270.541 162.794C267.119 164.289 264.068 165.722 260.671 167.206C256.062 169.446 251.798 171.636 247.189 173.858C237.809 178.077 229.309 183.012 222.703 191.152C218.954 196.204 215.504 201.105 211.832 206.273C209.474 211.031 207.337 215.522 205.02 220.338C203.823 224.25 202.805 227.837 201.515 231.719C200.29 237.02 199.338 242.025 198.271 247.484C198.149 253.961 198.141 259.985 198.088 266.431C199.503 273.615 200.964 280.377 202.521 287.514C204.774 292.713 206.403 297.865 209.173 302.306C227.521 331.712 269.437 349.049 304.373 341.825C311.499 339.469 318.24 337.086 325.307 334.63C331.095 330.861 336.557 327.165 342.292 323.377C345.91 319.93 349.255 316.575 352.901 313.116C355.501 310.081 357.799 307.149 360.388 304.032C363.459 299.242 366.238 294.636 369.284 289.811C371.76 284.48 373.97 279.369 376.436 273.999C379.709 265.15 382.726 256.562 385.897 247.639C387.289 244.196 388.526 241.087 389.948 237.662C391.132 234.911 392.132 232.476 393.385 229.826C394.432 227.751 395.224 225.891 396.263 223.815C397.267 222.062 398.025 220.525 398.978 218.725C399.717 217.304 400.263 216.146 400.983 214.687C401.863 212.964 402.568 211.542 403.581 210.028C404.731 208.691 405.572 207.447 406.665 206.003C408.265 203.864 409.613 201.925 411.251 199.825C413.412 197.464 415.284 195.264 417.458 192.95C419.542 191.35 421.324 189.865 423.496 188.238C425.184 187.656 426.482 187.215 427.78 186.774C419.84 203.149 417.228 220.951 414.056 238.577C408.667 268.516 405.322 298.923 394.898 327.726C390.282 340.482 384.308 352.746 378.906 365.595C377.413 368.164 375.966 370.371 373.912 372.827C364.873 376.455 356.441 379.835 347.635 383.232C343.465 384.348 339.668 385.448 335.452 386.571C332.024 387.159 329.015 387.723 325.606 388.269C322.472 388.63 319.738 389.009 316.607 389.336C313.806 389.541 311.404 389.798 308.571 389.967C306.095 389.974 304.051 390.069 301.568 390.084C297.77 389.915 294.41 389.827 290.645 389.536C286.831 388.976 283.424 388.62 279.62 388.146C276.501 387.633 273.778 387.238 270.753 386.607C268.673 386.013 266.895 385.655 264.804 385.161C261.669 384.319 258.847 383.611 255.762 382.673C253.003 381.662 250.506 380.883 247.709 379.902C244.275 378.483 241.14 377.267 237.728 375.82C234.669 374.298 231.887 373.005 228.878 371.468C219.881 365.573 211.111 359.922 202.182 354.015C198.578 350.849 195.134 347.938 191.607 344.719C188.069 340.92 184.612 337.431 181.014 333.633C178.572 330.552 176.271 327.78 173.858 324.689C171.184 320.909 168.622 317.448 166.042 313.629C163.965 309.854 161.905 306.437 159.8 302.674C157.897 298.767 156.04 295.205 154.156 291.296C153.432 289.294 152.734 287.639 152 285.616C150.953 282.501 149.942 279.755 148.913 276.641C147.919 273.518 146.943 270.762 145.979 267.604C145.285 263.81 144.579 260.417 143.86 256.628C143.185 252.164 142.523 248.098 141.898 243.602C141.592 238.125 141.248 233.076 140.93 227.557C140.38 211.847 141.889 196.789 144.933 181.866C166.624 164.793 191.213 153.245 217.048 144.084C220.795 142.755 224.595 141.574 228.683 140.127C248.461 135.449 267.926 130.967 287.7 126.259C305.408 123.479 322.891 121.099 338.772 112.881C343.277 110.549 347.183 107.058 351.703 104.044C351.972 104.718 351.903 105.447 351.723 106.53C351.073 107.662 350.535 108.441 349.942 109.504C348.975 110.96 348.062 112.133 347.057 113.615C346.01 115.007 345.055 116.089 344.004 117.469C343.632 117.956 343.356 118.146 343.006 118.58Z" fill="#030619"/>
<path d="M230.813 456.133C204.693 455.65 180.933 447.384 158.324 434.138C155.429 432.246 152.859 430.465 150.265 428.092C153.668 423.04 157.861 419.816 163.532 418.623C165.595 418.189 167.816 417.442 169.442 416.17C177.634 409.761 187.18 408.935 197.236 409.264C200.262 411.133 203.316 412.421 205.749 414.454C207.356 415.797 207.903 418.331 209.217 420.118C211.701 423.494 214.395 426.715 217.04 430.35C221.572 437.445 226.181 444.119 230.458 451C231.258 452.287 230.729 454.4 230.813 456.133Z" fill="#9394A6"/>
<path d="M144.619 182.012C141.889 196.789 140.38 211.847 140.474 227.549C136.491 228.006 132.893 228.527 129.513 227.89C122.605 226.587 115.815 224.662 108.976 222.993C114.893 215.028 120.42 206.73 126.849 199.203C132.109 193.045 138.445 187.805 144.619 182.012Z" fill="#1C1C36"/>
<path d="M143.873 257.025C144.579 260.417 145.285 263.809 145.594 267.652C127.148 272.876 108.813 274.98 90.1141 273.611C90.6189 270.495 91.1565 267.763 91.6941 265.03C92.1878 263.184 92.6815 261.338 93.8168 259.215C105.025 258.958 115.597 259.206 126.155 258.912C132.074 258.747 137.968 257.683 143.873 257.025Z" fill="#282C57"/>
<path d="M197.001 408.999C187.18 408.935 177.634 409.761 169.442 416.17C167.816 417.442 165.596 418.189 163.532 418.623C157.861 419.816 153.668 423.04 150.089 427.811C146.032 425.07 142.127 422.017 138.166 418.36C143.52 410.949 151.237 407.702 159.059 405.136C166.169 402.803 173.67 401.666 181.387 400.05C187.525 401.397 193.334 402.489 198.984 404.129C200.566 404.588 201.68 406.661 202.604 407.996C200.467 408.331 198.734 408.665 197.001 408.999Z" fill="#888BA6"/>
<path d="M143.86 256.628C137.968 257.684 132.074 258.747 126.155 258.912C115.597 259.206 105.025 258.958 93.9834 258.903C95.0698 254.049 96.6313 249.227 98.9243 244.18C113.724 243.98 127.793 244.005 141.862 244.031C142.523 248.098 143.185 252.164 143.86 256.628Z" fill="#24274C"/>
<path d="M141.898 243.602C127.793 244.005 113.724 243.98 99.1664 243.925C101.918 237.053 105.158 230.21 108.688 223.18C115.815 224.661 122.605 226.587 129.513 227.889C132.893 228.527 136.491 228.006 140.448 228.018C141.248 233.076 141.592 238.125 141.898 243.602Z" fill="#202242"/>
<path d="M98.0711 361.992C96.6268 357.963 95.1826 353.934 94.0894 349.477C95.6952 348.668 96.9463 348.276 98.2055 347.911C108.469 344.936 118.734 341.967 129.399 338.945C132.533 338.597 135.266 338.3 137.957 338.374C136.942 342.829 135.97 346.913 134.586 351C133.192 351.139 132.167 351.14 131.234 351.434C120.172 354.928 109.123 358.466 98.0711 361.992Z" fill="#4D548B"/>
<path d="M128.998 338.996C118.734 341.967 108.469 344.936 98.2055 347.911C96.9463 348.276 95.6953 348.669 94.0241 349.087C93.3907 348.576 93.1735 348.027 92.764 346.848C91.7389 342.144 90.9062 338.07 90.4827 333.997C101.928 331.332 112.963 328.665 124.428 326C126.571 326.001 128.286 326.002 129.945 326.413C129.592 330.881 129.295 334.939 128.998 338.996Z" fill="#464C83"/>
<path d="M98.0796 362.357C109.123 358.466 120.172 354.929 131.234 351.435C132.167 351.14 133.192 351.139 135.024 351C137.916 351.001 139.958 351.002 141.953 351.388C141.269 355.514 140.633 359.256 139.576 362.999C131.182 365.126 123.168 367.111 115.254 369.436C111.157 370.639 107.237 372.443 103.237 373.975C101.521 370.224 99.8045 366.473 98.0796 362.357Z" fill="#565C92"/>
<path d="M103.303 374.31C107.237 372.443 111.157 370.639 115.254 369.436C123.168 367.111 131.182 365.125 139.963 363C142.515 363.335 144.259 363.669 146.001 364.452C145.999 367.601 145.999 370.3 145.568 372.999C137.254 375.256 129.316 377.339 121.51 379.838C117.31 381.183 113.34 383.241 109.266 384.976C107.3 381.532 105.334 378.088 103.303 374.31Z" fill="#5F6597"/>
<path d="M127.9 409.046C125.89 406.776 123.88 404.505 121.991 401.568C131.885 393.569 142.958 389.55 155.399 388.052C162.198 389.403 168.598 390.701 174.753 392.268C172.005 393.359 169.502 394.181 166.576 395.002C154.339 396.426 143.157 399.679 133.101 406.283C131.467 407.356 129.638 408.132 127.9 409.046Z" fill="#767BA2"/>
<path d="M128.059 409.34C129.638 408.132 131.467 407.356 133.1 406.283C143.157 399.679 154.339 396.426 166.648 395.365C168.676 396.47 170.143 397.448 171.757 397.904C174.793 398.762 177.913 399.319 180.999 400.001C173.67 401.666 166.169 402.803 159.059 405.136C151.237 407.702 143.519 410.949 137.965 418.11C134.619 415.521 131.419 412.578 128.059 409.34Z" fill="#7F83A3"/>
<path d="M154.999 388C142.958 389.55 131.885 393.569 121.936 401.247C119.441 398.815 117.122 396.038 114.955 392.582C127.964 384.024 142.068 380.931 157.333 381.002C158.448 381.337 159.225 381.67 159.851 382.302C158.134 384.401 156.567 386.2 154.999 388Z" fill="#6E739E"/>
<path d="M156.996 380.999C142.068 380.931 127.964 384.024 114.916 392.251C112.967 390.267 111.209 387.937 109.358 385.291C113.34 383.24 117.311 381.183 121.51 379.838C129.316 377.339 137.255 375.256 145.975 373.054C150.208 373.406 153.604 373.703 157 374.439C156.999 376.917 156.997 378.958 156.996 380.999Z" fill="#666C9C"/>
<path d="M90.0734 333.995C90.9061 338.07 91.7389 342.144 92.6164 346.588C90.6321 341.367 87.9034 335.925 86.6982 330.163C82.1002 308.184 84.594 286.553 91.357 265.137C91.1564 267.763 90.6188 270.496 89.9781 274.006C89.368 278.463 88.8611 282.143 88.2257 286.216C87.8732 290.358 87.6491 294.106 87.332 298.259C87.226 303.107 87.2129 307.551 87.1345 312.357C87.3522 314.147 87.6352 315.576 87.8683 317.449C88.5701 323.261 89.3217 328.628 90.0734 333.995Z" fill="#E6E7EE"/>
<path d="M427.969 186.557C426.482 187.215 425.184 187.656 423.442 187.859C422.018 186.591 421.216 185.24 420.03 184.584C411.322 179.772 402.549 175.076 393.773 170.388C373.584 159.604 353.356 148.892 333.219 138.012C330.885 136.75 329.026 134.607 326.947 132.873C329.71 130.587 332.474 128.301 335.551 125.883C337.931 127.345 339.824 129.262 342.092 130.483C370.734 145.902 399.435 161.211 428.099 176.591C429.383 177.28 430.453 178.368 431.781 179.558C430.679 182.012 429.419 184.176 427.969 186.557Z" fill="#616FE7"/>
<path d="M230.983 456.495C230.729 454.401 231.258 452.287 230.458 451C226.181 444.119 221.572 437.445 217.385 430.387C223.38 436.117 231.187 437.753 238.581 440.427C247.188 443.539 254.33 439.7 261.677 436.489C262.351 436.195 262.569 434.857 263.382 433.995C268.177 431.992 272.589 429.997 276.993 428.389C274.643 436.637 270.575 444.138 271.587 452.876C264.484 454.048 257.778 455.124 251.071 456.201C245.625 456.772 240.184 457.424 234.726 457.851C233.568 457.941 232.345 457.21 230.983 456.495Z" fill="#9093AF"/>
<path d="M251.14 456.529C257.778 455.124 264.484 454.048 271.966 452.889C279.507 450.566 286.271 448.327 293.404 446.045C298.542 443.749 303.311 441.496 308.43 439.158C310.132 438.654 311.484 438.235 312.836 437.815C312.87 438.016 312.903 438.216 312.969 438.719C296.849 448.183 279.597 454.175 261.199 456.708C257.924 457.159 254.542 456.828 251.14 456.529Z" fill="#E8EAF0"/>
<path d="M312.88 437.838C311.484 438.235 310.132 438.654 308.404 438.666C308.353 422.191 308.678 406.123 309.002 390.055C311.404 389.798 313.806 389.541 316.607 389.764C318.025 404.208 319.044 418.172 320.063 432.136C318.818 433.122 317.574 434.109 315.846 435.457C314.887 436.196 314.411 436.572 313.935 436.948C313.935 436.948 313.987 437 313.72 437.04C313.284 437.372 313.116 437.664 312.947 437.955C312.947 437.955 312.923 437.86 312.88 437.838Z" fill="#A3A4B6"/>
<path d="M320.401 432.051C319.044 418.172 318.025 404.208 317.006 389.816C319.738 389.009 322.472 388.63 325.606 388.694C327.698 400.812 329.39 412.486 331.082 424.161C327.634 426.763 324.186 429.364 320.401 432.051Z" fill="#AAABB5"/>
<path d="M331.416 424.074C329.39 412.486 327.698 400.812 326.006 388.712C329.015 387.723 332.024 387.159 335.491 387.012C337.983 396.65 340.016 405.872 342.049 415.094C338.616 418.059 335.183 421.023 331.416 424.074Z" fill="#B1B1B5"/>
<path d="M342.323 414.959C340.016 405.872 337.983 396.65 335.911 386.988C339.668 385.448 343.465 384.348 347.645 383.608C350.373 389.653 352.717 395.338 355.062 401.023C351.709 405.104 348.356 409.184 344.905 413.594C344.07 414.223 343.334 414.523 342.323 414.959Z" fill="#BAB9B4"/>
<path d="M314.274 436.93C314.411 436.572 314.887 436.196 315.655 435.69C315.502 436.011 315.057 436.462 314.274 436.93Z" fill="#E8EAF0"/>
<path d="M313.179 437.854C313.116 437.663 313.284 437.372 313.711 437.004C313.783 437.203 313.597 437.478 313.179 437.854Z" fill="#E8EAF0"/>
<path d="M355.352 400.861C352.717 395.338 350.373 389.653 348.018 383.592C356.441 379.835 364.873 376.455 373.671 373.063C370.373 379.129 366.708 385.207 362.97 391.628C360.477 394.88 358.06 397.789 355.352 400.861Z" fill="#C4C1B3"/>
<path d="M385.743 247.974C382.726 256.562 379.709 265.151 376.258 273.673C370.525 270.558 365.295 267.378 359.911 264.485C343.966 255.921 327.93 247.529 311.986 238.964C282.303 223.016 252.661 206.993 223.002 191.001C229.309 183.012 237.809 178.077 247.547 174.003C249.068 174.692 249.835 175.358 250.709 175.827C274.453 188.557 298.222 201.242 321.955 213.994C332.938 219.895 343.812 226 354.813 231.866C365.069 237.336 375.429 242.612 385.743 247.974Z" fill="#303CA4"/>
<path d="M222.703 191.152C252.661 206.993 282.303 223.016 311.986 238.963C327.93 247.529 343.966 255.921 359.911 264.485C365.295 267.377 370.525 270.558 376.003 273.933C373.97 279.369 371.76 284.48 369.078 289.537C336.687 272.299 304.758 255.133 272.853 237.923C257.488 229.636 242.204 221.198 226.808 212.97C222.018 210.41 216.979 208.314 212.054 206.006C215.504 201.105 218.954 196.204 222.703 191.152Z" fill="#3744AC"/>
<path d="M211.832 206.273C216.979 208.315 222.018 210.411 226.808 212.971C242.204 221.199 257.488 229.636 272.853 237.924C304.758 255.133 336.687 272.299 368.812 289.757C366.238 294.637 363.459 299.242 360.328 303.666C358.815 302.401 357.816 301.023 356.468 300.282C341.482 292.039 326.468 283.847 311.412 275.733C280.269 258.948 249.117 242.18 217.91 225.515C213.851 223.348 209.445 221.831 205.2 220.013C207.337 215.522 209.474 211.032 211.832 206.273Z" fill="#3E4CB3"/>
<path d="M342.018 323.47C336.557 327.166 331.095 330.861 325.254 334.302C323.709 332.934 322.721 331.491 321.353 330.753C297.972 318.136 274.526 305.638 251.13 293.046C235.781 284.785 220.518 276.366 205.142 268.157C203.026 267.027 200.48 266.705 198.134 266.009C198.141 259.985 198.149 253.962 198.619 247.488C200.761 247.717 202.522 248.242 204.107 249.095C233.158 264.741 262.186 280.431 291.225 296.101C308.151 305.234 325.087 314.348 342.018 323.47Z" fill="#505EC6"/>
<path d="M205.02 220.338C209.445 221.831 213.851 223.348 217.91 225.515C249.117 242.18 280.269 258.948 311.412 275.732C326.468 283.846 341.482 292.038 356.468 300.281C357.816 301.023 358.815 302.401 360.037 303.85C357.799 307.149 355.501 310.081 352.527 312.976C327.006 299.515 302.183 286.05 277.307 272.681C257.109 261.825 236.822 251.134 216.633 240.26C211.568 237.532 206.73 234.381 201.788 231.424C202.805 227.837 203.823 224.25 205.02 220.338Z" fill="#4452B9"/>
<path d="M201.515 231.719C206.73 234.381 211.568 237.532 216.633 240.26C236.822 251.134 257.109 261.825 277.307 272.681C302.183 286.05 327.006 299.515 352.226 313.08C349.255 316.575 345.91 319.93 342.292 323.377C325.087 314.347 308.151 305.234 291.225 296.1C262.186 280.431 233.158 264.741 204.107 249.095C202.522 248.242 200.761 247.716 198.734 247.034C199.338 242.025 200.29 237.02 201.515 231.719Z" fill="#4958BF"/>
<path d="M198.088 266.431C200.48 266.705 203.026 267.027 205.142 268.157C220.518 276.366 235.781 284.785 251.13 293.046C274.526 305.638 297.972 318.136 321.354 330.753C322.721 331.491 323.709 332.934 324.927 334.376C318.24 337.086 311.499 339.469 304.324 341.492C302.133 339.698 300.552 337.94 298.592 336.881C283.111 328.516 267.537 320.325 252.035 311.999C241.072 306.111 230.27 299.917 219.214 294.213C213.833 291.438 208.034 289.472 202.425 287.139C200.964 280.377 199.503 273.615 198.088 266.431Z" fill="#5766CD"/>
<path d="M202.521 287.515C208.034 289.472 213.833 291.438 219.214 294.213C230.27 299.917 241.072 306.111 252.035 311.999C267.537 320.325 283.111 328.516 298.592 336.881C300.552 337.94 302.133 339.698 303.939 341.466C269.437 349.05 227.521 331.712 209.173 302.306C206.403 297.866 204.774 292.713 202.521 287.515Z" fill="#5D6DD4"/>
<path d="M385.897 247.639C375.429 242.612 365.069 237.336 354.813 231.866C343.812 225.999 332.938 219.895 321.955 213.993C298.222 201.242 274.453 188.557 250.709 175.826C249.835 175.358 249.068 174.692 247.893 173.972C251.798 171.636 256.062 169.446 260.714 167.543C262.24 168.968 263.188 170.456 264.544 171.187C283.981 181.676 303.49 192.031 322.945 202.488C333.472 208.145 343.875 214.033 354.43 219.636C366.151 225.858 377.981 231.873 389.763 237.978C388.526 241.087 387.289 244.196 385.897 247.639Z" fill="#3743AE"/>
<path d="M389.948 237.662C377.981 231.873 366.151 225.858 354.43 219.636C343.875 214.033 333.472 208.145 322.945 202.488C303.49 192.031 283.981 181.676 264.544 171.187C263.188 170.456 262.24 168.968 261.06 167.493C264.068 165.722 267.119 164.289 270.595 163.166C272.227 164.754 273.209 166.451 274.679 167.246C294.273 177.839 313.953 188.271 333.572 198.817C343.962 204.401 354.203 210.264 364.643 215.751C374.046 220.692 383.628 225.291 393.131 230.041C392.132 232.476 391.132 234.91 389.948 237.662Z" fill="#3C49B6"/>
<path d="M326.615 132.964C329.026 134.607 330.885 136.75 333.219 138.011C353.356 148.892 373.584 159.603 393.773 170.388C402.549 175.076 411.322 179.772 420.03 184.584C421.216 185.239 422.018 186.59 423.052 187.999C421.324 189.865 419.542 191.35 417.076 192.926C415.467 192.705 414.476 192.519 413.629 192.063C403.554 186.642 393.52 181.143 383.435 175.738C363.699 165.159 343.911 154.676 324.221 144.012C321.887 142.748 320.028 140.607 317.948 138.873C320.727 136.934 323.505 134.995 326.615 132.964Z" fill="#5B69DF"/>
<path d="M317.607 138.945C320.027 140.607 321.887 142.748 324.221 144.012C343.911 154.676 363.699 165.159 383.435 175.738C393.52 181.143 403.554 186.642 413.629 192.063C414.476 192.519 415.467 192.706 416.774 193.041C415.284 195.264 413.412 197.464 410.882 199.821C409.732 199.91 409.17 199.974 408.759 199.754C377.95 183.236 347.13 166.737 316.392 150.086C313.653 148.603 311.456 146.119 309.007 144.1C311.76 142.405 314.513 140.711 317.607 138.945Z" fill="#5663D8"/>
<path d="M393.385 229.826C383.628 225.291 374.046 220.692 364.643 215.751C354.203 210.264 343.962 204.401 333.572 198.817C313.953 188.271 294.273 177.839 274.679 167.246C273.209 166.452 272.227 164.754 270.964 163.104C273.064 161.636 275.218 160.541 277.77 159.69C279.598 161.026 280.915 162.325 282.475 163.177C294.994 170.018 307.534 176.819 320.114 183.546C345.399 197.069 370.714 210.539 396.017 224.03C395.224 225.891 394.431 227.751 393.385 229.826Z" fill="#414DBB"/>
<path d="M293.036 446.088C286.271 448.328 279.507 450.567 272.363 452.793C270.575 444.138 274.643 436.637 276.998 428.022C277.449 426.244 277.711 425.088 278.355 424.214C285.925 413.943 290.57 402.612 291.05 389.739C294.41 389.827 297.77 389.916 301.501 390.484C301.582 392.583 301.242 394.194 301.008 395.821C299.699 404.951 298.521 414.102 297.089 423.213C295.887 430.861 294.398 438.465 293.036 446.088Z" fill="#9497B6"/>
<path d="M308.663 144.158C311.456 146.119 313.653 148.602 316.392 150.086C347.13 166.737 377.95 183.236 408.759 199.754C409.17 199.974 409.732 199.91 410.593 199.982C409.613 201.925 408.265 203.864 406.321 205.843C386.901 195.628 368.09 185.347 349.247 175.122C332.887 166.244 316.493 157.43 300.114 148.587C302.849 147.13 305.584 145.673 308.663 144.158Z" fill="#515ED1"/>
<path d="M87.1998 311.996C87.213 307.551 87.2261 303.107 87.8108 298.295C102.903 295.792 117.469 293.915 131.926 291.406C138.738 290.224 145.339 287.83 152.036 285.984C152.734 287.639 153.432 289.294 153.958 291.621C152.797 292.89 151.831 293.528 150.817 294.078C137.412 301.349 122.487 303.986 108.007 307.91C101.202 309.754 94.1436 310.663 87.1998 311.996Z" fill="#353A6F"/>
<path d="M396.263 223.815C370.714 210.539 345.399 197.07 320.114 183.547C307.534 176.819 294.994 170.018 282.475 163.178C280.915 162.325 279.598 161.026 278.094 159.619C280.119 158.266 282.219 157.228 284.706 156.495C286.225 157.943 287.165 159.435 288.517 160.171C302.369 167.717 316.301 175.116 330.183 182.606C341.432 188.676 352.592 194.909 363.883 200.897C375.459 207.036 387.145 212.966 398.783 218.988C398.025 220.525 397.267 222.063 396.263 223.815Z" fill="#4552C1"/>
<path d="M288.092 154.574C289.988 153.675 291.885 152.777 294.485 151.983C305.496 157.742 315.792 163.419 326.115 169.046C337.459 175.228 348.788 181.438 360.195 187.501C374.517 195.112 388.911 202.586 403.273 210.12C402.568 211.542 401.863 212.964 400.641 214.643C362.78 194.79 325.436 174.682 288.092 154.574Z" fill="#4A57C8"/>
<path d="M403.581 210.028C388.911 202.586 374.517 195.112 360.195 187.5C348.788 181.438 337.459 175.228 326.115 169.045C315.792 163.419 305.496 157.741 294.827 151.939C296.164 150.81 297.861 149.828 299.836 148.717C316.493 157.43 332.887 166.244 349.247 175.122C368.09 185.347 386.901 195.628 406.07 206.043C405.572 207.447 404.731 208.691 403.581 210.028Z" fill="#4E5BCD"/>
<path d="M290.645 389.536C290.57 402.613 285.925 413.943 278.355 424.214C277.711 425.088 277.449 426.244 277.005 427.636C272.589 429.997 268.177 431.992 263.132 433.994C262.331 434 262.164 433.999 261.998 433.539C261.333 428.721 260.667 424.361 260.053 419.668C261.07 417.89 262.034 416.445 263.366 414.995C264.759 414.549 266.101 414.383 266.764 413.624C273.208 406.247 278.773 398.373 280.016 388.265C283.424 388.621 286.831 388.977 290.645 389.536Z" fill="#878DB8"/>
<path d="M152 285.616C145.339 287.829 138.738 290.224 131.926 291.406C117.469 293.915 102.903 295.791 87.9037 297.891C87.6491 294.106 87.8733 290.358 88.7316 286.261C103.755 285.593 118.104 284.981 132.114 281.168C137.684 279.652 143.324 278.388 148.932 277.009C149.942 279.755 150.953 282.501 152 285.616Z" fill="#303567"/>
<path d="M87.1345 312.356C94.1436 310.663 101.202 309.754 108.007 307.91C122.487 303.986 137.412 301.349 150.817 294.077C151.831 293.528 152.797 292.89 153.984 291.968C156.04 295.205 157.897 298.767 159.425 302.668C157.872 303.361 156.598 303.595 155.433 304.087C149.273 306.689 143.14 309.356 136.572 312.001C134.989 312.084 133.829 312.134 132.677 312.256C117.757 313.833 102.838 315.42 87.9182 317.005C87.6352 315.576 87.3523 314.146 87.1345 312.356Z" fill="#373D77"/>
<path d="M148.913 276.641C143.324 278.388 137.684 279.652 132.114 281.168C118.104 284.981 103.755 285.593 88.86 285.867C88.8611 282.142 89.3681 278.463 90.011 274.389C108.813 274.98 127.148 272.876 145.582 268.055C146.943 270.762 147.919 273.518 148.913 276.641Z" fill="#2C315F"/>
<path d="M287.829 154.678C325.436 174.682 362.781 194.79 400.466 214.943C400.263 216.146 399.717 217.305 398.978 218.725C387.145 212.966 375.459 207.036 363.883 200.897C352.592 194.908 341.432 188.675 330.183 182.606C316.301 175.115 302.369 167.717 288.517 160.171C287.165 159.435 286.225 157.942 285.05 156.459C285.86 155.673 286.713 155.227 287.829 154.678Z" fill="#4754C4"/>
<path d="M293.404 446.045C294.398 438.465 295.887 430.861 297.089 423.213C298.521 414.102 299.699 404.951 301.008 395.821C301.242 394.194 301.582 392.583 301.939 390.564C304.051 390.069 306.095 389.974 308.571 389.967C308.678 406.123 308.353 422.191 308.054 438.751C303.311 441.496 298.542 443.749 293.404 446.045Z" fill="#9C9FB6"/>
<path d="M265.118 385.297C266.895 385.655 268.673 386.014 270.704 386.976C268.34 391.986 265.511 396.285 263.16 400.83C260.669 405.646 256.78 408.372 251.717 409.585C246.505 410.833 241.242 411.87 235.608 412.992C228.144 410.989 221.073 408.995 213.947 406.66C211.822 404.831 209.796 403.277 207.672 401.869C204.145 399.531 200.556 397.288 197.329 395.003C198.111 394.999 198.558 394.998 199.417 394.998C204.219 396 208.608 397.002 213.057 398.352C221.194 405.541 231.528 405.987 240.774 405.39C252.518 404.631 261.499 397.455 265.118 385.297Z" fill="#747CB7"/>
<path d="M136.998 312.001C143.14 309.356 149.273 306.689 155.433 304.087C156.598 303.595 157.872 303.361 159.471 303.014C161.905 306.437 163.964 309.854 165.677 313.671C161.554 316.048 157.776 318.025 153.601 320.01C145.469 322.013 137.735 324.008 130.001 326.002C128.286 326.002 126.571 326.001 124.466 325.654C125.743 323.526 127.382 321.713 129.087 319.966C131.7 317.288 134.359 314.654 136.998 312.001Z" fill="#3B4384"/>
<path d="M236.001 413C241.242 411.87 246.505 410.833 251.717 409.585C256.78 408.372 260.669 405.646 263.16 400.83C265.511 396.285 268.34 391.986 271.007 387.211C273.778 387.238 276.501 387.633 279.62 388.146C278.773 398.373 273.208 406.247 266.764 413.624C266.101 414.383 264.759 414.549 262.951 415.051C253.297 416.268 244.402 417.697 236.001 413Z" fill="#7C83B9"/>
<path d="M264.804 385.161C261.499 397.454 252.518 404.631 240.774 405.389C231.528 405.987 221.194 405.54 213.452 398.352C216.859 398.001 219.93 398 223.458 397.998C226.401 398.025 228.924 397.793 231.371 398.123C242.47 399.62 252.578 393.449 256.025 382.903C258.847 383.611 261.668 384.318 264.804 385.161Z" fill="#6B75BB"/>
<path d="M238.005 376.051C241.14 377.267 244.275 378.483 247.665 380.238C243.11 387.417 237.757 392.744 228.396 391.067C220.987 389.739 213.472 388.999 205.964 387.653C201.615 383.54 197.307 379.771 193 375.75C193 375.329 193.001 375.161 193.397 374.996C197.195 375.999 200.598 376.999 204.225 378.265C210.399 380.309 216.269 382.467 222.322 383.774C230.143 385.462 234.776 382.895 238.005 376.051Z" fill="#5462BF"/>
<path d="M206.005 387.998C213.473 388.999 220.987 389.739 228.396 391.067C237.757 392.745 243.11 387.417 247.964 380.44C250.506 380.883 253.003 381.663 255.762 382.673C252.578 393.45 242.47 399.621 231.371 398.124C228.924 397.794 226.402 398.026 223.374 397.627C221.691 396.832 220.516 396.477 219.408 395.975C213.595 393.338 207.798 390.664 202.397 388.002C203.867 388 204.936 387.999 206.005 387.998Z" fill="#606CBD"/>
<path d="M202.341 354.271C211.111 359.922 219.881 365.573 228.819 371.842C224.614 378.481 219.036 379.776 213.309 375.781C209.4 373.054 205.762 369.94 201.991 366.585C202.1 362.204 202.221 358.238 202.341 354.271Z" fill="#3D4EC0"/>
<path d="M153.999 320.002C157.776 318.025 161.554 316.048 165.696 314.029C168.622 317.448 171.184 320.909 173.491 324.694C167.825 328.345 162.413 331.673 156.593 335.002C153.791 335.333 151.395 335.664 149.007 335.613C150.676 330.154 152.337 325.078 153.999 320.002Z" fill="#3F4891"/>
<path d="M202.003 366.999C205.762 369.94 209.4 373.054 213.309 375.781C219.036 379.776 224.613 378.481 229.046 372.086C231.887 373.005 234.669 374.298 237.728 375.821C234.776 382.895 230.143 385.463 222.322 383.774C216.269 382.467 210.399 380.309 204.184 377.912C202.279 373.863 200.638 370.432 199.372 367C200.5 367 201.251 366.999 202.003 366.999Z" fill="#4757C1"/>
<path d="M157.001 335.001C162.413 331.673 167.825 328.345 173.603 325.012C176.271 327.78 178.572 330.552 180.657 333.682C176.961 337.359 173.481 340.679 169.556 343.999C166.741 343.999 164.371 343.998 161.961 343.649C160.282 340.534 158.641 337.768 157.001 335.001Z" fill="#414C9C"/>
<path d="M170.001 343.999C173.481 340.679 176.961 337.359 180.798 333.991C184.612 337.431 188.069 340.921 191.284 344.769C188.695 348.751 186.349 352.374 183.602 355.997C182.135 355.997 181.068 355.995 179.963 355.641C178.192 350.139 174.53 346.688 170.001 343.999Z" fill="#424FA7"/>
<path d="M184.002 355.997C186.349 352.374 188.695 348.751 191.366 345.078C195.134 347.938 198.578 350.849 202.182 354.016C202.221 358.238 202.1 362.204 201.991 366.585C201.251 366.999 200.5 367 199.061 366.861C193.583 363.147 188.793 359.572 184.002 355.997Z" fill="#4250B4"/>
<path d="M261.997 433.998C262.164 433.999 262.331 434 262.748 434.002C262.569 434.857 262.351 436.195 261.677 436.489C254.33 439.7 247.188 443.539 238.581 440.427C231.187 437.753 223.38 436.117 217.347 430.038C214.395 426.715 211.701 423.494 209.217 420.118C207.903 418.332 207.356 415.797 205.749 414.454C203.316 412.421 200.262 411.133 197.236 409.264C198.734 408.665 200.467 408.331 202.936 407.996C204.115 407.995 204.558 407.996 205.295 408.125C206.391 408.501 207.195 408.748 208.249 408.998C208.667 409.001 208.834 409.003 209.041 409.351C214.235 413.715 219.289 417.87 224.574 421.708C229.373 425.194 234.131 428.945 239.434 431.477C246.482 434.841 254.133 436.253 261.997 433.998Z" fill="#8A8EAD"/>
<path d="M205.002 407.997C204.559 407.996 204.116 407.996 203.341 407.995C201.68 406.661 200.566 404.588 198.984 404.129C193.334 402.489 187.525 401.397 181.387 400.05C177.914 399.319 174.793 398.762 171.757 397.904C170.143 397.448 168.676 396.47 167.07 395.365C169.502 394.181 172.006 393.359 175.183 392.269C182.903 393.002 189.949 394.003 196.994 395.005C200.557 397.288 204.145 399.531 207.672 401.869C209.796 403.277 211.822 404.831 213.584 406.618C211.517 406.945 209.759 406.973 207.664 407.003C206.552 407.336 205.777 407.666 205.002 407.997Z" fill="#7C81AC"/>
<path d="M156.593 335.002C158.642 337.768 160.282 340.535 161.81 343.945C159.799 346.392 157.9 348.197 155.574 350.003C150.766 350.337 146.383 350.67 142.001 351.004C139.958 351.002 137.916 351.001 135.435 350.998C135.97 346.913 136.942 342.829 138.365 338.372C142.211 337.331 145.606 336.663 149 335.995C151.395 335.664 153.791 335.333 156.593 335.002Z" fill="#495296"/>
<path d="M149.007 335.613C145.606 336.663 142.211 337.331 138.409 338C135.266 338.3 132.533 338.597 129.399 338.945C129.295 334.939 129.592 330.881 129.945 326.413C137.735 324.008 145.469 322.013 153.601 320.01C152.337 325.078 150.676 330.154 149.007 335.613Z" fill="#424A8B"/>
<path d="M136.572 312.001C134.359 314.654 131.7 317.288 129.087 319.966C127.382 321.713 125.743 323.526 124.037 325.654C112.963 328.665 101.928 331.332 90.4827 333.997C89.3218 328.628 88.5702 323.26 87.8684 317.449C102.838 315.42 117.757 313.833 132.677 312.256C133.83 312.134 134.989 312.084 136.572 312.001Z" fill="#3E447B"/>
<path d="M141.953 351.388C146.383 350.67 150.766 350.337 155.772 350.27C159.597 353.024 162.798 355.511 165.858 358.288C164.478 360.053 163.239 361.527 161.551 363.002C156.069 363.335 151.035 363.669 146.002 364.002C144.259 363.668 142.516 363.334 140.385 362.999C140.633 359.256 141.269 355.514 141.953 351.388Z" fill="#535B9D"/>
<path d="M146.001 364.452C151.035 363.669 156.069 363.335 161.714 363.31C166.552 366.411 170.777 369.204 174.893 372.255C174.522 373.01 174.26 373.507 173.531 374.002C167.709 374.002 162.355 374.001 157.001 374.001C153.604 373.704 150.208 373.406 146.405 373.054C145.999 370.3 146 367.601 146.001 364.452Z" fill="#5C65A3"/>
<path d="M197.329 395.003C189.949 394.003 182.903 393.002 175.428 392C168.598 390.701 162.198 389.403 155.399 388.052C156.567 386.201 158.134 384.401 160.308 382.301C167.943 382.668 174.97 383.335 182.057 384.35C184.06 385.837 186.024 386.945 187.945 388.124C191.644 390.394 195.319 392.703 199.005 394.996C198.558 394.998 198.111 395 197.329 395.003Z" fill="#6F76A9"/>
<path d="M181.998 384.003C174.97 383.335 167.942 382.668 160.458 382.002C159.225 381.67 158.448 381.337 157.333 381.002C156.997 378.958 156.999 376.917 157 374.439C162.355 374.001 167.709 374.001 173.738 374.273C176.159 375.47 177.999 376.257 179.635 377.349C182.818 379.475 185.886 381.772 188.564 383.998C186.084 384 184.041 384.001 181.998 384.003Z" fill="#646CAA"/>
<path d="M261.998 433.539C254.133 436.253 246.482 434.841 239.434 431.477C234.131 428.946 229.373 425.194 224.574 421.708C219.289 417.87 214.236 413.715 209.394 409.39C215.328 412.144 220.806 415.515 226.602 418.198C235.728 422.423 245.179 424.925 255.22 421.11C256.736 420.534 258.404 420.361 260.001 420.001C260.667 424.361 261.333 428.72 261.998 433.539Z" fill="#868BB3"/>
<path d="M260.053 419.668C258.404 420.361 256.736 420.534 255.22 421.11C245.179 424.925 235.728 422.423 226.602 418.198C220.806 415.515 215.328 412.144 209.354 409.043C208.834 409.003 208.667 409.001 208.25 408.665C208 407.888 208.001 407.444 208.001 407.001C209.759 406.973 211.517 406.945 213.639 406.958C221.073 408.994 228.144 410.989 235.608 412.992C244.402 417.697 253.297 416.268 262.584 415.056C262.034 416.445 261.07 417.89 260.053 419.668Z" fill="#7E84B3"/>
<path d="M182.057 384.35C184.041 384.001 186.084 384 188.943 384.005C193.838 385.342 197.917 386.673 201.996 388.004C207.798 390.664 213.595 393.338 219.408 395.974C220.516 396.477 221.691 396.832 222.918 397.627C219.93 398 216.859 398.001 213.393 398.003C208.608 397.002 204.219 396 199.417 394.998C195.319 392.703 191.644 390.394 187.945 388.124C186.024 386.945 184.06 385.837 182.057 384.35Z" fill="#6871B4"/>
<path d="M175.002 371.996C170.777 369.203 166.552 366.41 162.163 363.31C163.239 361.528 164.478 360.053 166.293 358.289C170.578 358.335 174.289 358.669 178.052 359.339C183.07 364.781 188.036 369.887 193.001 374.993C193.001 375.161 193 375.329 192.618 375.702C186.491 374.603 180.746 373.3 175.002 371.996Z" fill="#535EAC"/>
<path d="M193.397 374.996C188.036 369.887 183.07 364.781 178.081 359.018C178.705 357.572 179.353 356.783 180.001 355.994C181.068 355.995 182.135 355.996 183.602 355.997C188.793 359.571 193.583 363.147 198.685 366.861C200.638 370.431 202.279 373.863 203.961 377.646C200.598 376.999 197.195 375.999 193.397 374.996Z" fill="#4B58B4"/>
<path d="M174.893 372.255C180.747 373.299 186.491 374.603 192.617 375.954C197.307 379.771 201.615 383.539 205.964 387.653C204.936 387.998 203.867 388 202.397 388.002C197.917 386.673 193.838 385.342 189.381 384.004C185.886 381.771 182.818 379.475 179.635 377.349C177.999 376.257 176.159 375.47 174.205 374.274C174.26 373.506 174.522 373.01 174.893 372.255Z" fill="#5C67B3"/>
<path d="M179.963 355.641C179.353 356.783 178.705 357.573 178.028 358.683C174.289 358.669 170.578 358.334 166.434 357.999C162.798 355.511 159.597 353.024 156.198 350.269C157.9 348.197 159.799 346.392 161.849 344.293C164.371 343.998 166.741 343.999 169.556 343.999C174.53 346.688 178.192 350.139 179.963 355.641Z" fill="#4A55A3"/>
<path d="M207.664 407.003C208.001 407.445 208 407.888 207.999 408.664C207.195 408.749 206.391 408.501 205.295 408.125C205.777 407.666 206.552 407.336 207.664 407.003Z" fill="#868BB3"/>
</svg>
