<svg width="840" height="859" viewBox="0 0 840 859" fill="none" xmlns="http://www.w3.org/2000/svg">
<g clip-path="url(#clip0_2072_426)">
<path d="M838.48 420.993C839.11 420.996 839.74 421 840.685 421.002C841 427.354 841 433.709 841 440.532C840.305 441 839.61 441 838.513 440.537C838.233 433.713 838.356 427.353 838.48 420.993Z" fill="#FEF4DC"/>
<path d="M838.337 420.545C838.356 427.353 838.233 433.713 838.165 440.538C837.869 447.386 837.517 453.769 837.232 460.59C836.681 467.348 836.064 473.666 835.399 480.439C834.374 487.338 833.397 493.781 832.434 500.62C831.197 507.408 829.947 513.801 828.699 520.626C828.7 521.058 828.726 521.285 828.51 521.613C826.769 528.266 825.244 534.591 823.502 541.202C821.43 547.956 819.575 554.425 817.488 561.154C815.126 567.555 812.995 573.694 810.608 580.087C804.387 593.826 798.423 607.311 792.253 621.043C789.98 625.358 787.914 629.426 785.571 633.728C779.844 642.969 774.395 651.976 768.686 661.152C767.579 662.729 766.733 664.137 765.593 665.748C761.798 670.945 758.295 675.939 754.511 681.103C739.197 698.07 724.409 715.096 709.023 731.562C701.917 739.167 693.643 745.681 685.57 752.806C682.016 755.575 678.79 758.227 675.255 760.978C671.963 763.385 668.98 765.692 665.667 768.087C659.244 772.453 653.151 776.731 646.824 781.02C646.268 781.126 646.038 781.327 645.56 781.753C638.768 785.819 632.313 789.762 625.508 793.792C620.979 796.19 616.8 798.501 612.289 800.897C608.94 802.584 605.922 804.188 602.538 805.843C595.751 808.831 589.329 811.767 582.534 814.765C577.288 816.849 572.415 818.87 567.227 820.893C565.584 821.415 564.257 821.935 562.535 822.525C555.764 824.766 549.387 826.938 542.625 829.115C535.81 830.965 529.38 832.811 522.949 834.656C509.809 837.18 496.669 839.704 483.185 842.398C476.496 843.328 470.15 844.087 463.399 844.94C456.632 845.432 450.27 845.831 443.462 846.348C436.647 846.633 430.278 846.799 423.448 847.039C416.312 846.945 409.637 846.778 402.499 846.678C395.647 846.182 389.259 845.619 382.429 845.091C375.624 844.362 369.261 843.599 362.458 842.861C348.943 840.268 335.868 837.651 322.055 834.883C314.895 833.049 308.473 831.365 301.783 829.456C295.006 827.19 288.497 825.149 281.695 822.915C279.407 822.08 277.412 821.438 275.152 820.539C270.669 818.68 266.452 817.078 261.959 815.279C255.159 812.216 248.635 809.351 241.867 806.269C228.091 798.682 214.559 791.31 200.832 783.684C199.146 782.592 197.655 781.754 195.971 780.635C190.899 777.137 186.019 773.92 180.947 770.435C167.319 759.321 153.506 748.905 140.537 737.527C121.254 720.612 104.448 701.3 88.6359 680.732C86.0686 677.197 83.6029 673.973 81.0441 670.426C78.7376 667.023 76.5241 663.944 74.2125 660.523C66.3728 647.118 58.6311 634.053 50.8629 620.635C47.5787 613.819 44.3213 607.358 41.0706 600.924C41.0775 600.952 41.118 600.909 41.0843 600.541C38.3307 593.785 35.6109 587.397 32.891 581.009C28.4918 567.425 24.0926 553.84 19.4587 539.958C17.8272 533.696 16.4302 527.731 14.8961 521.393C13.5146 514.605 12.2702 508.188 10.9246 501.378C9.89574 494.596 8.96825 488.209 7.96135 481.417C7.29456 474.607 6.70719 468.202 6.01137 461.39C5.57725 454.635 5.25157 448.285 4.83653 441.485C4.80867 434.654 4.87017 428.273 4.8423 421.428C5.14732 414.613 5.5417 408.261 5.87788 401.467C6.51156 394.629 7.20343 388.233 7.8578 381.408C8.73503 374.652 9.64978 368.325 10.6037 361.554C11.8584 354.711 13.0739 348.311 14.2874 341.482C15.9075 334.651 17.5297 328.248 19.15 321.436C23.4778 307.967 27.8076 294.906 32.4284 281.221C35.3608 274.105 38.0023 267.613 40.7829 260.968C41.0581 260.555 41.0859 260.284 41.2593 259.767C44.3708 253.363 47.2283 247.194 50.3532 240.814C54.0953 234.08 57.57 227.557 61.3097 220.827C65.5033 214.135 69.4318 207.65 73.6143 200.959C76.2452 197.163 78.6222 193.574 81.2779 189.806C83.5157 186.821 85.4748 184.015 87.6842 181.002C90.5975 177.401 93.1509 173.913 95.9441 170.629C104.322 160.781 112.793 151.013 121.523 141.067C128.404 134.455 134.989 127.99 141.874 121.38C155.113 110.813 168.053 100.391 181.321 89.8736C185.79 86.8657 189.93 83.9525 194.391 80.942C196.876 79.3993 199.042 77.9539 201.547 76.3894C215.265 68.871 228.643 61.4717 242.382 54.0198C252.353 49.6937 261.962 45.42 271.93 41.1674C275.583 39.9257 278.879 38.6629 282.563 37.3435C289.809 35.0155 296.666 32.7442 303.895 30.4412C310.256 28.7678 316.247 27.126 322.647 25.4241C328.884 23.9993 334.712 22.6347 340.539 21.27C340.88 21.2877 341.22 21.3054 341.786 21.188C348.415 20.0465 354.819 19.0402 361.621 17.9098C368.387 17.1099 374.755 16.434 381.555 15.628C388.381 15.0198 394.777 14.5415 401.591 13.9827C408.693 13.8852 415.375 13.8682 422.516 13.7578C429.342 13.7976 435.708 13.9308 442.54 13.9951C449.389 14.5352 455.774 15.144 462.569 15.7155C469.365 16.4659 475.75 17.2537 482.57 17.9984C489.395 19.0965 495.787 20.2377 502.628 21.3913C503.078 21.4038 503.305 21.307 503.619 21.5166C510.288 23.1329 516.643 24.5396 523.335 26.12C530.057 27.9999 536.441 29.706 543.121 31.6175C549.94 33.8969 556.463 35.971 563.242 38.289C576.67 43.9883 589.84 49.4437 603.277 55.1321C607.54 57.3231 611.536 59.2811 615.781 61.4961C619.355 63.4965 622.68 65.2399 626.245 67.2223C632.602 71.0185 638.718 74.5756 645.004 78.4171C646.51 79.4532 647.848 80.2049 649.36 81.2306C655.016 85.2232 660.496 88.9416 666.225 92.9077C684.544 108.846 703.297 123.831 720.46 140.459C733.299 152.898 744.088 167.455 755.89 181.402C759.309 186.207 762.628 190.68 766.001 195.479C767.334 197.549 768.612 199.292 769.972 201.376C775.332 210.247 780.61 218.777 785.951 227.648C788.382 232.322 790.751 236.656 793.18 241.336C799.173 254.786 805.107 267.891 811.054 281.371C813.407 288.162 815.746 294.578 818.089 301.378C820.085 308.177 822.077 314.592 824.059 321.407C825.671 327.726 827.294 333.645 828.916 339.563C828.842 339.887 828.767 340.212 828.82 340.763C830.15 347.433 831.353 353.876 832.72 360.671C833.703 367.475 834.522 373.927 835.541 380.708C836.222 387.39 836.703 393.744 837.298 400.536C837.674 407.349 837.934 413.723 838.337 420.545ZM219.251 115.723C195.532 131.093 173.497 148.601 154.154 169.206C66.8768 262.184 33.1961 371.981 54.5051 497.525C67.6767 575.126 103.472 642.175 160.45 696.553C255.463 787.228 368.657 821.062 497.471 795.842C663.749 763.287 786.838 619.505 795.764 450.6C798.736 394.384 789.78 340.061 768.382 287.903C707.476 139.443 558.161 46.2536 398.163 56.7263C333.677 60.9472 274.276 80.5311 219.251 115.723Z" fill="#F8B31B"/>
<path d="M219.553 115.524C274.276 80.5314 333.677 60.9476 398.163 56.7266C558.162 46.2539 707.476 139.443 768.382 287.904C789.78 340.061 798.736 394.384 795.765 450.601C786.838 619.505 663.749 763.288 497.471 795.843C368.657 821.063 255.463 787.228 160.451 696.553C103.472 642.175 67.6768 575.127 54.5052 497.525C33.1963 371.981 66.877 262.184 154.155 169.207C173.497 148.601 195.532 131.093 219.553 115.524ZM188.072 513.407C191.884 512.334 195.675 510.45 199.513 510.351C208.488 510.118 217.554 510.15 226.456 511.178C236.267 512.311 244.486 517.742 252.363 523.413C254.456 524.92 255.336 527.099 252.186 528.312C243.597 531.616 243.012 538.397 244.101 546.002C245.184 553.568 249.666 557.505 257.171 556.4C261.847 555.713 266.457 553.934 270.838 552.045C277.472 549.185 281.797 550.215 284.552 556.863C286.308 561.101 287.45 565.764 287.922 570.333C289.661 587.19 302.974 603.684 323.908 599.064C333.963 596.845 343.777 593.539 353.828 591.295C361.061 589.68 368.565 587.801 375.841 588.169C390.545 588.914 399.179 601.583 395.634 615.691C393.892 622.626 393.583 629.444 395.64 636.383C396.485 639.232 396.678 642.274 397.167 645.228C398.79 655.042 399.64 665.068 402.254 674.61C404.885 684.216 412.169 686.133 420.583 680.727C432.197 673.266 436.193 658.078 429.224 644.92C425.021 636.986 424.886 628.745 424.619 620.244C424.481 615.856 423.926 611.235 422.349 607.191C419.409 599.649 419.985 596.478 425.85 590.963C436.054 581.365 448.799 578.665 461.972 576.953C472.936 575.527 482.4 578.916 490.356 586.414C494.106 589.947 497.153 594.296 501.154 597.475C504.956 600.495 509.321 603.447 513.911 604.694C522.469 607.02 531.144 605.542 539.344 602.225C546.35 599.39 548.199 594.497 544.671 587.817C542.581 583.861 539.823 580.256 537.348 576.504C532.546 569.225 533.899 564.917 542.247 562.264C546.828 560.809 551.614 559.979 556.331 558.977C567.655 556.571 572.992 550.187 570.806 539.676C569.409 532.956 570.048 527.503 573.983 521.892C575.929 519.118 577.599 517.473 581.085 517.751C593.207 518.717 602.843 524.815 611.198 532.927C615.455 537.061 619.394 540.428 625.777 540.029C629.736 539.781 632.294 541.667 632.319 546.322C632.329 548.296 633.356 550.571 634.608 552.173C638.504 557.158 651.751 560.347 657.787 558.145C660.881 557.017 662.253 554.956 662.039 551.664C661.303 540.373 649.066 532.879 638.724 537.427C633.938 539.531 632.346 538.414 630.214 533.393C629.024 530.592 626.787 527.744 624.249 526.139C621.422 524.352 617.778 523.599 614.384 523.016C604.456 521.311 596.049 517.049 589.83 509.022C583.817 501.261 584.624 494.788 592.302 488.723C598.269 484.01 603.801 478.722 611.364 476.245C613.991 475.385 616.267 472.904 618.257 470.752C623.709 464.855 629.913 460.424 637.939 458.731C640.677 458.153 643.483 457.262 645.882 455.867C649.223 453.924 654.136 451.957 652.708 447.351C652.037 445.188 647.361 443.864 644.267 442.934C636.677 440.652 629.007 438.692 625.891 430.138C622.586 421.062 619.136 419.629 609.819 422.69C604.478 424.445 598.918 425.926 593.35 426.507C583.338 427.551 574.649 424.716 570.108 414.823C565.883 405.619 560.654 396.483 558.668 386.746C556.3 375.127 551.711 364.963 545.573 355.214C538.695 344.291 539.153 333.512 545.806 322.771C552.941 311.252 561.604 301.358 574.405 295.778C578.514 293.986 582.448 291.776 586.398 289.639C595.413 284.76 597.553 274.647 589.993 267.753C585.41 263.575 579.154 260.708 573.163 258.718C563.843 255.621 557.112 259.503 554.133 268.835C552.675 273.403 552.103 278.251 551.067 282.958C549.21 291.397 542.883 296.37 535.352 294.623C529.429 293.25 525.345 295.397 521.775 299.667C516.002 306.572 512.716 307.785 504.503 304.678C491.031 299.58 479.552 291.381 470.054 280.578C466.322 276.334 464.781 271.262 465.158 265.334C465.487 260.164 465.234 254.74 464 249.733C461.496 239.578 463.86 233.293 473.52 229.851C482.353 226.704 486.36 220.319 487.725 211.659C489.987 197.3 477.885 185.053 464.41 188.404C460.315 189.422 456.211 191.395 452.77 193.853C443.415 200.535 442.297 207.962 448.709 217.486C451.311 221.351 454.212 225.014 456.838 228.864C459.132 232.225 458.902 235.475 456.804 239.108C455.137 241.996 454.022 245.404 453.498 248.714C451.141 263.58 443.453 278.775 420.793 274.503C419.485 274.256 418.155 274.13 416.839 273.927C395.678 270.678 387.174 263.176 382.384 243.519C382.108 242.388 381.821 241.237 381.754 240.083C381.209 230.803 375.499 225.934 367.438 222.815C360.07 219.965 353.715 221.014 351.429 225.804C348.913 231.076 351.679 235.211 359.513 239.517C361.783 240.765 364.372 243.718 364.552 246.063C365.145 253.757 366.898 260.714 371.718 266.931C374.338 270.311 372.854 273.414 369.233 275.047C366.077 276.47 362.718 277.806 359.324 278.272C347.831 279.849 338.769 285.602 331.008 293.817C325.157 300.011 317.77 302.994 309.608 304.798C304.297 305.973 299.244 308.317 293.93 309.47C290.222 310.274 285.747 311.186 282.545 309.839C277.66 307.785 273.218 304.214 269.24 300.574C262.999 294.862 257.631 288.18 251.28 282.608C245.035 277.129 241.556 271.279 242.872 262.605C243.957 255.459 239.249 250.508 232.021 249.852C225.156 249.228 219.414 253.634 216.689 261.616C214.171 268.988 215.77 273.598 222.527 277.639C226.239 279.86 229.065 282.362 227.679 287.222C224.785 297.366 226.745 301.624 236.54 305.847C243.718 308.942 251.073 311.641 258.183 314.881C268.88 319.754 272.664 327.735 269.228 338.912C267.281 345.243 264.172 351.206 261.836 357.429C259.686 363.156 255.635 365.625 249.676 365.986C238.819 366.643 229 363.672 219.574 358.528C216.446 356.821 212.866 355.633 209.352 355.03C205.934 354.444 202.411 355.447 201.452 359.452C200.546 363.24 202.107 366.684 205.573 368.244C208.825 369.707 212.564 370.832 216.083 370.817C227.522 370.769 238.041 374.102 248.475 378.237C253.394 380.185 255.753 383.572 254.952 388.666C254.153 393.744 252.466 398.684 251.712 403.766C250.823 409.76 247.172 412.817 241.807 414.276C238.775 415.101 235.59 416.097 232.527 415.944C222.246 415.432 211.999 414.201 201.717 413.749C197.851 413.579 193.489 413.955 190.184 415.676C188.113 416.754 186.877 420.765 186.728 423.538C186.671 424.615 190.572 426.757 192.783 426.926C197.393 427.278 202.093 426.806 206.728 426.37C215.178 425.577 223.589 424.082 232.05 423.752C245.445 423.228 253.376 429.383 255.69 442.445C257.923 455.048 259.304 467.811 260.781 480.535C261.554 487.197 258.411 492.587 253.521 496.724C251.832 498.153 248.738 499.35 246.798 498.81C237.102 496.11 227.313 497.349 217.541 497.174C210.916 497.055 204.714 497.599 198.84 501.205C196.442 502.677 193.145 502.708 190.242 503.326C184.261 504.601 177.827 504.855 172.397 507.327C165.801 510.33 160.228 511.89 153.046 508.698C145.014 505.127 138.388 510.532 140.036 518.208C142.18 528.19 152.634 534.241 161.54 529.673C170.522 525.066 178.831 519.145 188.072 513.407ZM273.989 676.62C289.177 669.673 294.429 659.361 292.059 641.142C290.075 625.884 280.385 614.351 267.044 611.37C253.317 608.303 238.281 614.757 230.809 626.921C222.456 640.519 223.145 654.785 232.74 666.898C243.438 680.403 255.615 683.411 273.989 676.62ZM608.678 198.897C603.018 194.283 597.51 189.463 591.651 185.117C586.658 181.413 580.943 180.982 575.016 182.933C562.614 187.017 558.299 197.332 555.363 208.573C549.249 231.977 569.693 251.861 591.419 245.186C598.787 242.922 600.895 240.539 602.123 232.729C602.566 229.91 604.154 226.678 606.263 224.819C615.161 216.977 616.228 209.255 608.678 198.897ZM702.683 402.743C696.667 403.255 691.313 405.32 687.234 409.891C682.126 415.613 682.755 421.559 688.891 426.113C695.06 430.692 702.104 433.115 709.714 433.604C717.097 434.077 721.398 430.569 722.311 423.847C724.055 411.02 717.056 403.112 702.683 402.743ZM639.631 323.986C655.887 325.563 662.152 306.526 656.623 295.318C654.029 290.059 649.264 288.127 643.726 290.15C637.064 292.583 632.168 297.2 628.644 303.26C622.114 314.492 625.964 322.312 639.631 323.986ZM737.948 512.103C740.426 504.223 736.256 496.084 728.401 493.472C718.926 490.32 705.965 495.629 701.385 504.537C698.26 510.618 700.663 516.94 707.229 518.824C710.348 519.719 713.86 520.252 717.023 519.785C724.24 518.722 732.174 519.31 737.948 512.103ZM568.594 620.706C579.052 632.174 594.711 630.083 600.099 616.499C603.105 608.918 600.058 602.217 592.221 600.169C588.585 599.219 584.684 598.939 580.904 598.945C567.924 598.965 562.259 608.49 568.594 620.706ZM414.697 717.703C421.014 724.141 430.432 725.097 437.777 720.045C443.929 715.812 445.485 709.321 441.292 703.172C439.077 699.923 436.07 697.193 433.291 694.356C430.167 691.167 426.286 690.865 422.183 691.907C411.916 694.514 408.192 706.359 414.697 717.703ZM306.905 182.537C306.906 185.179 306.537 187.886 306.988 190.448C307.85 195.35 311.265 198.193 315.861 199.579C320.343 200.931 324.406 200.073 327.777 196.674C334.393 190.004 334.421 177.575 327.85 170.844C323.474 166.361 318.154 165.819 313.869 170.441C310.939 173.603 309.272 177.936 306.905 182.537ZM375.844 160.883C375.922 159.394 376.109 157.901 376.062 156.416C375.798 148.02 369.564 141.166 362.089 140.986C355.43 140.825 350.031 147.088 349.435 155.667C348.89 163.52 353.536 170.13 360.701 171.694C367.26 173.126 372.65 169.521 375.844 160.883ZM658.267 482.823C659.982 489.173 663.09 494.247 670.277 495.21C675.113 495.858 679.264 494.348 681.987 490.159C685.629 484.558 686.014 478.6 683.006 472.595C680.051 466.695 672.717 463.576 665.947 465.166C662.068 466.077 658.444 471.707 658.087 477.495C657.995 478.986 658.114 480.491 658.267 482.823ZM158.479 361.235C159.966 361.129 161.488 361.191 162.933 360.887C168.237 359.773 172.684 355.207 172.755 350.961C172.855 345.043 163.713 335.835 157.823 336.814C152.703 337.666 147.494 339.33 142.915 341.751C137.179 344.784 136.552 351.06 141.879 354.675C146.477 357.796 152.3 359.114 158.479 361.235ZM150.56 406.932C147.566 408.247 144.297 409.161 141.653 410.984C138.822 412.935 138.125 416.058 139.721 419.403C144.21 428.811 161.098 432.036 168.704 424.923C173.346 420.582 173.386 415.989 168.815 411.636C163.864 406.921 158.015 405.421 150.56 406.932ZM562.85 327.5C564.224 333.743 568.564 337.026 574.372 338.447C579.699 339.75 585.812 333.292 583.918 328.413C582.102 323.731 577.69 322.562 573.353 322.34C569.396 322.137 564.839 321.615 562.85 327.5Z" fill="#010100"/>
<path d="M81.2779 189.806C81.0032 187.291 81.0071 184.597 81.0079 181.453C82.8396 181.035 84.6743 181.066 86.9716 181.154C85.4749 184.016 83.5157 186.821 81.2779 189.806Z" fill="#EFEADF"/>
<path d="M187.753 513.604C178.83 519.145 170.522 525.066 161.54 529.673C152.634 534.241 142.18 528.19 140.036 518.208C138.388 510.532 145.014 505.127 153.046 508.698C160.228 511.89 165.801 510.33 172.397 507.327C177.827 504.855 184.261 504.601 190.242 503.326C193.144 502.708 196.442 502.677 198.839 501.205C204.714 497.599 210.916 497.055 217.54 497.174C227.313 497.349 237.102 496.11 246.798 498.81C248.737 499.351 251.832 498.153 253.521 496.724C258.411 492.587 261.554 487.197 260.781 480.535C259.303 467.811 257.923 455.048 255.69 442.445C253.376 429.383 245.445 423.228 232.05 423.752C223.589 424.082 215.178 425.577 206.728 426.37C202.093 426.806 197.393 427.278 192.783 426.926C190.572 426.757 186.671 424.615 186.728 423.538C186.877 420.765 188.113 416.754 190.184 415.676C193.489 413.955 197.851 413.579 201.717 413.749C211.999 414.201 222.246 415.432 232.527 415.945C235.59 416.097 238.774 415.101 241.807 414.276C247.172 412.817 250.823 409.76 251.712 403.766C252.466 398.684 254.153 393.744 254.952 388.666C255.753 383.572 253.394 380.185 248.475 378.237C238.04 374.102 227.522 370.769 216.083 370.817C212.564 370.832 208.824 369.707 205.573 368.244C202.107 366.684 200.546 363.24 201.452 359.452C202.411 355.447 205.934 354.444 209.352 355.03C212.866 355.633 216.446 356.821 219.574 358.528C229 363.672 238.818 366.643 249.676 365.986C255.635 365.625 259.686 363.156 261.836 357.429C264.172 351.206 267.281 345.243 269.227 338.912C272.663 327.735 268.88 319.754 258.183 314.881C251.072 311.641 243.718 308.942 236.539 305.847C226.745 301.624 224.785 297.366 227.679 287.222C229.065 282.362 226.239 279.86 222.526 277.639C215.77 273.598 214.171 268.988 216.688 261.616C219.414 253.634 225.156 249.228 232.021 249.852C239.249 250.508 243.957 255.459 242.872 262.605C241.555 271.279 245.035 277.129 251.279 282.608C257.631 288.18 262.999 294.862 269.24 300.574C273.218 304.214 277.66 307.785 282.544 309.839C285.747 311.186 290.221 310.274 293.93 309.47C299.244 308.317 304.297 305.973 309.608 304.798C317.77 302.994 325.157 300.011 331.008 293.817C338.769 285.602 347.831 279.849 359.324 278.272C362.718 277.806 366.077 276.47 369.233 275.047C372.854 273.414 374.338 270.311 371.718 266.931C366.898 260.714 365.145 253.757 364.552 246.063C364.371 243.718 361.783 240.765 359.513 239.517C351.679 235.211 348.913 231.076 351.428 225.804C353.714 221.014 360.07 219.965 367.437 222.815C375.499 225.934 381.209 230.803 381.753 240.083C381.821 241.237 382.108 242.388 382.383 243.519C387.173 263.176 395.678 270.678 416.838 273.927C418.155 274.13 419.485 274.256 420.793 274.503C443.453 278.775 451.141 263.58 453.498 248.714C454.022 245.404 455.137 241.996 456.804 239.108C458.901 235.475 459.132 232.225 456.838 228.864C454.212 225.014 451.311 221.351 448.709 217.486C442.297 207.962 443.415 200.535 452.769 193.853C456.211 191.395 460.315 189.422 464.41 188.404C477.885 185.053 489.987 197.3 487.725 211.659C486.36 220.319 482.353 226.704 473.52 229.851C463.86 233.293 461.496 239.578 463.999 249.734C465.234 254.74 465.487 260.164 465.158 265.334C464.781 271.262 466.322 276.334 470.053 280.578C479.552 291.381 491.03 299.58 504.503 304.678C512.716 307.785 516.002 306.572 521.775 299.667C525.345 295.397 529.429 293.25 535.352 294.623C542.883 296.37 549.21 291.397 551.067 282.958C552.103 278.251 552.675 273.403 554.133 268.835C557.112 259.503 563.843 255.621 573.163 258.718C579.154 260.709 585.41 263.575 589.993 267.753C597.553 274.647 595.413 284.76 586.398 289.639C582.448 291.776 578.514 293.986 574.405 295.778C561.604 301.358 552.941 311.252 545.806 322.771C539.153 333.512 538.695 344.291 545.573 355.214C551.711 364.963 556.299 375.127 558.668 386.746C560.653 396.483 565.883 405.619 570.108 414.823C574.649 424.716 583.338 427.551 593.35 426.507C598.918 425.926 604.478 424.445 609.819 422.69C619.136 419.629 622.585 421.062 625.891 430.138C629.006 438.692 636.677 440.652 644.267 442.934C647.361 443.864 652.037 445.188 652.708 447.351C654.136 451.957 649.223 453.924 645.882 455.867C643.483 457.262 640.676 458.153 637.938 458.731C629.913 460.424 623.709 464.855 618.257 470.752C616.267 472.904 613.991 475.385 611.364 476.245C603.801 478.722 598.269 484.01 592.302 488.723C584.624 494.788 583.817 501.261 589.83 509.022C596.049 517.049 604.455 521.311 614.384 523.016C617.778 523.599 621.422 524.352 624.249 526.139C626.787 527.744 629.024 530.592 630.214 533.393C632.346 538.414 633.938 539.531 638.724 537.427C649.066 532.879 661.303 540.373 662.039 551.664C662.253 554.956 660.881 557.017 657.787 558.145C651.751 560.347 638.503 557.158 634.608 552.173C633.356 550.571 632.329 548.296 632.318 546.322C632.294 541.667 629.736 539.781 625.777 540.029C619.394 540.428 615.455 537.061 611.198 532.927C602.843 524.816 593.207 518.717 581.084 517.751C577.599 517.473 575.929 519.118 573.983 521.892C570.048 527.503 569.409 532.956 570.806 539.676C572.992 550.187 567.654 556.571 556.331 558.977C551.614 559.979 546.828 560.809 542.247 562.264C533.898 564.917 532.546 569.225 537.348 576.504C539.823 580.256 542.58 583.861 544.67 587.817C548.199 594.497 546.349 599.39 539.344 602.225C531.143 605.542 522.469 607.02 513.91 604.694C509.321 603.447 504.955 600.495 501.154 597.475C497.152 594.296 494.106 589.947 490.356 586.414C482.399 578.916 472.936 575.527 461.972 576.953C448.799 578.665 436.054 581.365 425.849 590.963C419.985 596.478 419.409 599.649 422.349 607.191C423.926 611.235 424.481 615.856 424.619 620.244C424.885 628.745 425.021 636.986 429.223 644.92C436.193 658.078 432.196 673.266 420.583 680.727C412.169 686.133 404.885 684.216 402.254 674.61C399.64 665.068 398.79 655.042 397.166 645.228C396.678 642.274 396.485 639.232 395.64 636.383C393.582 629.444 393.891 622.626 395.634 615.691C399.179 601.583 390.545 588.914 375.84 588.169C368.565 587.801 361.06 589.68 353.828 591.295C343.777 593.539 333.963 596.845 323.908 599.064C302.974 603.684 289.661 587.19 287.922 570.334C287.45 565.764 286.308 561.101 284.552 556.863C281.797 550.215 277.472 549.185 270.838 552.045C266.457 553.934 261.847 555.713 257.171 556.4C249.666 557.505 245.184 553.568 244.101 546.002C243.012 538.397 243.597 531.616 252.186 528.312C255.335 527.099 254.456 524.92 252.363 523.413C244.486 517.742 236.266 512.311 226.456 511.178C217.554 510.15 208.488 510.118 199.512 510.351C195.675 510.45 191.884 512.334 187.753 513.604Z" fill="#F8B31B"/>
<path d="M273.632 676.765C255.615 683.411 243.437 680.403 232.74 666.898C223.145 654.785 222.456 640.519 230.808 626.921C238.28 614.756 253.317 608.303 267.044 611.37C280.384 614.351 290.075 625.884 292.059 641.142C294.429 659.361 289.176 669.672 273.632 676.765Z" fill="#F7B21B"/>
<path d="M608.894 199.187C616.228 209.255 615.161 216.976 606.263 224.819C604.154 226.678 602.566 229.91 602.123 232.728C600.895 240.539 598.787 242.922 591.419 245.185C569.692 251.86 549.248 231.977 555.363 208.572C558.299 197.332 562.614 187.016 575.015 182.933C580.943 180.982 586.658 181.413 591.65 185.117C597.509 189.463 603.018 194.283 608.894 199.187Z" fill="#F6B21A"/>
<path d="M703.134 402.714C717.056 403.112 724.055 411.02 722.311 423.847C721.398 430.569 717.097 434.077 709.714 433.603C702.104 433.115 695.06 430.692 688.891 426.113C682.755 421.559 682.126 415.613 687.233 409.89C691.313 405.32 696.667 403.255 703.134 402.714Z" fill="#F5B11A"/>
<path d="M639.194 323.971C625.964 322.311 622.114 314.491 628.644 303.26C632.168 297.2 637.064 292.583 643.726 290.15C649.264 288.127 654.029 290.059 656.623 295.318C662.151 306.526 655.887 325.563 639.194 323.971Z" fill="#F4B01A"/>
<path d="M737.765 512.446C732.174 519.31 724.24 518.721 717.023 519.785C713.86 520.251 710.348 519.719 707.229 518.824C700.663 516.94 698.259 510.618 701.385 504.537C705.965 495.629 718.926 490.32 728.401 493.472C736.256 496.084 740.426 504.223 737.765 512.446Z" fill="#F3B01A"/>
<path d="M568.377 620.395C562.258 608.49 567.924 598.965 580.904 598.944C584.684 598.939 588.585 599.219 592.221 600.169C600.058 602.217 603.105 608.918 600.098 616.499C594.711 630.083 579.052 632.174 568.377 620.395Z" fill="#F4B11A"/>
<path d="M414.472 717.407C408.192 706.359 411.916 694.514 422.183 691.907C426.286 690.865 430.167 691.167 433.291 694.356C436.07 697.193 439.077 699.923 441.292 703.172C445.485 709.321 443.929 715.812 437.777 720.045C430.432 725.097 421.014 724.141 414.472 717.407Z" fill="#F3B01A"/>
<path d="M306.973 182.141C309.272 177.936 310.939 173.603 313.869 170.441C318.154 165.819 323.474 166.361 327.85 170.844C334.421 177.575 334.393 190.004 327.777 196.674C324.406 200.073 320.343 200.931 315.861 199.579C311.265 198.193 307.85 195.35 306.988 190.448C306.537 187.886 306.906 185.179 306.973 182.141Z" fill="#F4B01A"/>
<path d="M375.749 161.289C372.65 169.521 367.26 173.126 360.701 171.694C353.536 170.13 348.89 163.52 349.435 155.667C350.031 147.088 355.43 140.825 362.089 140.986C369.564 141.166 375.798 148.02 376.062 156.416C376.109 157.901 375.922 159.394 375.749 161.289Z" fill="#F2AF1A"/>
<path d="M658.201 482.406C658.114 480.491 657.995 478.986 658.087 477.495C658.444 471.707 662.067 466.077 665.947 465.166C672.717 463.576 680.051 466.694 683.006 472.595C686.014 478.6 685.629 484.558 681.987 490.159C679.264 494.348 675.113 495.858 670.277 495.21C663.09 494.247 659.981 489.173 658.201 482.406Z" fill="#F3B01A"/>
<path d="M158.03 361.232C152.3 359.114 146.477 357.796 141.879 354.675C136.552 351.06 137.179 344.783 142.915 341.751C147.494 339.33 152.703 337.666 157.823 336.814C163.713 335.835 172.855 345.043 172.755 350.961C172.684 355.207 168.237 359.773 162.933 360.887C161.488 361.191 159.966 361.129 158.03 361.232Z" fill="#F5B11A"/>
<path d="M150.966 406.853C158.015 405.42 163.864 406.92 168.815 411.636C173.386 415.989 173.346 420.582 168.704 424.923C161.098 432.036 144.21 428.811 139.721 419.403C138.125 416.058 138.822 412.935 141.653 410.984C144.297 409.161 147.566 408.246 150.966 406.853Z" fill="#F2AF1A"/>
<path d="M562.87 327.104C564.839 321.615 569.396 322.137 573.353 322.34C577.689 322.562 582.102 323.731 583.918 328.413C585.812 333.292 579.699 339.75 574.372 338.447C568.564 337.026 564.224 333.743 562.87 327.104Z" fill="#EFAD1A"/>
</g>
<defs>
<clipPath id="clip0_2072_426">
<rect width="840" height="859" fill="white"/>
</clipPath>
</defs>
</svg>
