<svg xmlns="http://www.w3.org/2000/svg" viewBox="0 0 240 234">
  <path d="M0 0h240v234H0z" fill="#001E36"/>
  <path d="M54 164.1V61.2c0-.7.3-1.1 1-1.1 1.7 0 3.3 0 5.6-.1 2.4-.1 4.9-.1 7.6-.2 2.7-.1 5.6-.1 8.7-.2 3.1-.1 6.1-.1 9.1-.1 8.3 0 15.1 1 20.6 3.1 5 1.8 9.4 4.7 13 8.5 3.2 3.4 5.6 7.4 7.1 11.8 1.4 4.3 2.1 8.8 2.1 13.4 0 8.7-2 15.9-6 21.5-4 5.6-9.4 9.8-15.8 12.1-6.6 2.4-13.8 3.3-21.5 3.3-2.3 0-3.8 0-4.7-.1-.9-.1-2.2-.1-3.9-.1v31c.1.8-.5 1.5-1.3 1.6h-20.3c-.8 0-1.1-.4-1.1-1.5zm22.5-84.7v35.6c1.3.1 2.5.2 3.6.2h4.9c3.4 0 6.7-.5 9.9-1.5 2.9-.8 5.5-2.5 7.5-4.8 2-2.4 3-5.6 3-9.9 0-3-.6-5.7-1.8-8-1.2-2.3-3.1-4.1-5.8-5.4-2.7-1.3-6.4-2-11-2-2.4 0-4.5 0-6 .1-1.7.1-3.2.2-4.3.7z" fill="#31A8FF"/>
</svg>
