<?xml version="1.0" encoding="UTF-8"?>
<svg data-bbox="0 0 1440 79" xmlns="http://www.w3.org/2000/svg" viewBox="0 0 1440 79" height="79" width="1440" data-type="ugc">
    <g>
        <path fill="#DFE1E5" d="M1440 0v42H0V0z"/>
        <path fill="#EC6B5E" d="M33 22a6 6 0 1 1-12 0 6 6 0 1 1 12 0"/>
        <path fill="#F4BF4F" d="M53 22a6 6 0 1 1-12 0 6 6 0 1 1 12 0"/>
        <path fill="#61C453" d="M73 22a6 6 0 1 1-12 0 6 6 0 1 1 12 0"/>
        <g clip-path="url(#f104bdb6-a705-4e60-ab42-b508b79df23e)">
            <path fill="#ffffff" d="M87 16a8 8 0 0 1 8-8h224a8 8 0 0 1 8 8v26H87z"/>
            <path fill="url(#b91777fc-206a-4d17-8e94-bcfe2579592a)" d="M327 8v34h-44V8z"/>
            <path stroke-linejoin="round" stroke-linecap="round" stroke-width="1.5" stroke="#3D4043" d="m308 22 3 3m0 0 3-3m-3 3-3 3m3-3 3 3" fill="none"/>
            <path fill="#3D4043" d="M99.426 19.469V28h-1.612v-8.531zm5.121 0-3.422 4.16-1.957 2.092-.287-1.565 1.359-1.763 2.332-2.924zM102.754 28l-2.654-3.996 1.154-1.043L104.67 28zm3.946-9v9h-1.552v-9zm-.246 5.602h-.457q0-.663.176-1.22.175-.556.498-.966.323-.416.768-.645.45-.228.996-.228.468 0 .849.135.387.128.662.416.276.286.422.75.153.456.153 1.113V28h-1.559v-4.055q0-.44-.129-.691a.77.77 0 0 0-.369-.37 1.35 1.35 0 0 0-.58-.11q-.375 0-.645.146a1.2 1.2 0 0 0-.445.392 2 2 0 0 0-.258.58 3 3 0 0 0-.082.71m8.804 2.05v-2.924q0-.321-.111-.556a.8.8 0 0 0-.34-.363 1.2 1.2 0 0 0-.58-.13q-.31 0-.545.106a.8.8 0 0 0-.352.299.77.77 0 0 0-.123.434h-1.552q0-.393.187-.745.188-.357.533-.632.352-.282.838-.44a3.6 3.6 0 0 1 1.102-.158q.72 0 1.283.246.569.24.891.727.328.486.328 1.224v2.766q0 .474.058.814.065.334.188.58v.1h-1.576a2.3 2.3 0 0 1-.17-.61 5 5 0 0 1-.059-.738m.217-2.513.012.92h-.979a2.4 2.4 0 0 0-.639.076 1.2 1.2 0 0 0-.451.21.85.85 0 0 0-.263.329 1 1 0 0 0-.088.428q0 .234.105.421.111.188.317.3.21.105.492.105.41 0 .715-.164.304-.17.474-.41a.9.9 0 0 0 .182-.457l.445.668q-.082.24-.246.51-.164.269-.422.503a2.2 2.2 0 0 1-.621.387 2.2 2.2 0 0 1-.844.152q-.615 0-1.101-.246a1.96 1.96 0 0 1-.768-.674 1.74 1.74 0 0 1-.281-.972q0-.504.187-.891a1.7 1.7 0 0 1 .557-.65q.37-.27.914-.405.55-.14 1.26-.14zm7.585 2.642V28h-4.77v-1.219zm-.111-4.195L118.87 28h-1.019v-.955l4.055-5.385h1.043zm-.569-.926v1.225h-4.447V21.66zm3.302 0V28h-1.553v-6.34zm-1.658-1.658a.77.77 0 0 1 .234-.574q.24-.23.645-.229.404 0 .638.229a.76.76 0 0 1 .241.574.75.75 0 0 1-.241.568q-.234.23-.638.229-.405 0-.645-.229a.76.76 0 0 1-.234-.568M128.996 28h-1.559v-6.691q0-.785.317-1.325.322-.544.919-.826.604-.28 1.436-.281.487 0 .937.1.458.093.938.246l-.229 1.254a9 9 0 0 0-.679-.188 3.7 3.7 0 0 0-.862-.088q-.615 0-.919.281-.3.282-.299.827zm1.265-6.34v1.113h-3.779V21.66zm2.45 0V28h-1.553v-6.34zm2.926 1.295V28h-1.546v-6.34h1.464zm1.928-1.336-.023 1.442a4 4 0 0 0-.592-.047q-.357 0-.627.1-.27.093-.451.275-.175.181-.27.445a2 2 0 0 0-.105.586l-.334-.041q0-.604.123-1.12.123-.515.357-.902.235-.386.586-.597a1.55 1.55 0 0 1 .821-.217q.128 0 .275.023.152.018.24.053m3.46 6.498q-.72 0-1.295-.234a2.8 2.8 0 0 1-.978-.65 3 3 0 0 1-.615-.98 3.4 3.4 0 0 1-.211-1.206v-.235q0-.732.211-1.33.21-.603.597-1.037t.926-.668a2.95 2.95 0 0 1 1.189-.234q.674 0 1.19.229.516.222.861.632.347.41.522.985.175.568.175 1.26v.65h-4.968v-1.067h3.445v-.117a1.9 1.9 0 0 0-.141-.674 1.07 1.07 0 0 0-.398-.492q-.27-.187-.697-.187-.346 0-.604.152a1.2 1.2 0 0 0-.422.422 2.1 2.1 0 0 0-.246.645q-.082.375-.082.831v.235q0 .398.106.738.11.34.322.592.216.246.516.387.304.134.691.134.486 0 .879-.187a1.95 1.95 0 0 0 .691-.568l.78.808a2.77 2.77 0 0 1-1.348 1.002 3.4 3.4 0 0 1-1.096.164m9.44-4.383v1.225h-3.205v-1.225zm6.287 2.631 1.699-6.896h.92l.059 1.453L157.614 28h-.973zm-1.072-6.896 1.395 6.873V28h-1.061l-1.934-8.531zm5.514 6.843 1.371-6.843h1.605L162.237 28h-1.061zm-1.383-6.843 1.699 6.92.1 1.611h-.973l-1.811-7.084.071-1.447zm7.802 8.648q-.721 0-1.295-.234a2.85 2.85 0 0 1-.979-.65 3 3 0 0 1-.615-.98 3.4 3.4 0 0 1-.211-1.206v-.235q0-.732.211-1.33.211-.603.598-1.037t.925-.668q.54-.234 1.19-.234.674 0 1.189.229.516.222.862.632.345.41.521.985.176.568.176 1.26v.65h-4.969v-1.067h3.446v-.117a1.9 1.9 0 0 0-.141-.674 1.1 1.1 0 0 0-.399-.492q-.269-.187-.697-.187-.345 0-.603.152a1.2 1.2 0 0 0-.422.422 2 2 0 0 0-.246.645 4 4 0 0 0-.082.831v.235q0 .398.105.738.112.34.322.592.218.246.516.387.305.134.691.134.487 0 .879-.187.398-.193.692-.568l.779.808a2.6 2.6 0 0 1-.539.563q-.334.27-.809.44-.474.163-1.095.163M171.096 19h1.553v7.6l-.152 1.4h-1.401zm5.631 5.766v.123q0 .708-.158 1.3a3 3 0 0 1-.463 1.026 2.2 2.2 0 0 1-.773.668q-.458.234-1.073.234-.585 0-1.019-.228a2.06 2.06 0 0 1-.721-.645 3.6 3.6 0 0 1-.469-.99 7.6 7.6 0 0 1-.263-1.254v-.334a7.4 7.4 0 0 1 .263-1.254q.177-.569.469-.99.293-.422.721-.65a2.1 2.1 0 0 1 1.008-.229q.62 0 1.084.24.468.235.773.668.31.428.463 1.02.158.585.158 1.295m-1.553.123v-.123q0-.405-.064-.762a2.2 2.2 0 0 0-.211-.639 1.1 1.1 0 0 0-.398-.433 1.17 1.17 0 0 0-.633-.159q-.363 0-.621.123a1.2 1.2 0 0 0-.422.34q-.165.218-.258.51a3 3 0 0 0-.117.633v.914q.041.45.193.814.153.358.451.569.305.21.785.21.375 0 .627-.146.252-.152.399-.422.147-.275.205-.638.064-.363.064-.791m6.967-1.928V28h-1.546v-6.34h1.459zm-.228 1.64h-.475q0-.66.158-1.218.165-.557.481-.967.317-.416.779-.645a2.45 2.45 0 0 1 1.084-.228q.428 0 .785.129.358.123.616.392.263.264.404.692.141.421.141 1.014V28h-1.547v-4.072q0-.446-.129-.698a.7.7 0 0 0-.358-.351 1.4 1.4 0 0 0-.562-.106q-.363 0-.627.147a1.2 1.2 0 0 0-.428.392 1.9 1.9 0 0 0-.246.58 3 3 0 0 0-.076.71m3.855-.287-.638.118q.005-.598.164-1.12.158-.527.463-.92.31-.398.767-.62a2.4 2.4 0 0 1 1.067-.229q.468 0 .843.135.381.128.651.416.269.28.41.732.147.451.146 1.102V28h-1.558v-4.078q0-.463-.129-.71a.67.67 0 0 0-.358-.339 1.4 1.4 0 0 0-.55-.1 1.2 1.2 0 0 0-.563.123 1.15 1.15 0 0 0-.398.329q-.159.21-.24.492a2.2 2.2 0 0 0-.077.598m4.867.58v-.122q0-.698.199-1.284a3 3 0 0 1 .58-1.025q.38-.434.932-.674a3 3 0 0 1 1.254-.246q.714 0 1.265.246.557.24.938.674.38.433.58 1.025.2.586.199 1.284v.123q0 .69-.199 1.283-.2.585-.58 1.025-.381.434-.932.674-.55.24-1.26.24-.702 0-1.26-.24a2.6 2.6 0 0 1-.937-.674 3 3 0 0 1-.58-1.025 4 4 0 0 1-.199-1.283m1.547-.122v.123q0 .416.082.779.081.363.252.639.17.275.439.433.275.152.656.152.375 0 .645-.152.269-.158.439-.433.175-.276.258-.64.082-.362.082-.778v-.123q0-.411-.082-.768a2 2 0 0 0-.258-.639 1.23 1.23 0 0 0-1.095-.604 1.22 1.22 0 0 0-1.084.604 2 2 0 0 0-.252.639 3.4 3.4 0 0 0-.082.767m8.007 2.126q.328 0 .585-.128a1.03 1.03 0 0 0 .411-.364q.158-.234.17-.545h1.459a2.05 2.05 0 0 1-.364 1.155q-.352.51-.937.808a2.85 2.85 0 0 1-1.301.293q-.732 0-1.277-.246a2.5 2.5 0 0 1-.909-.685 3 3 0 0 1-.539-1.02 4.3 4.3 0 0 1-.175-1.242v-.188q0-.661.175-1.242.182-.58.539-1.02a2.5 2.5 0 0 1 .909-.685q.545-.246 1.271-.246.768 0 1.348.299.585.298.914.844.333.544.346 1.283h-1.459a1.4 1.4 0 0 0-.153-.61 1.1 1.1 0 0 0-.398-.433 1.15 1.15 0 0 0-.627-.164q-.393 0-.656.164-.258.165-.405.451-.14.281-.199.633-.053.345-.053.726v.188q0 .387.053.738.058.352.199.633.147.275.405.44.263.163.668.163m5.083-7.904V28h-1.547v-9.006zm3.972 2.666-2.759 3.1-1.495 1.517-.492-1.2 1.154-1.454 1.723-1.963zM207.662 28l-1.963-2.953 1.032-1.002L209.455 28zm6.056-1.506V21.66h1.559V28h-1.465zm.199-1.312.481-.012q0 .639-.141 1.178t-.439.937a2.05 2.05 0 0 1-.744.615q-.452.217-1.067.217a2.7 2.7 0 0 1-.855-.129 1.74 1.74 0 0 1-.668-.416 1.95 1.95 0 0 1-.428-.732q-.152-.45-.152-1.084V21.66h1.546v4.108q0 .315.071.527a1 1 0 0 0 .205.346q.135.129.31.187.182.053.387.053.563 0 .885-.223.328-.228.469-.61.14-.386.14-.866m4.158-2.303v7.558h-1.553V21.66h1.435zm4.072 1.887v.123q0 .69-.164 1.283-.159.585-.469 1.025a2.2 2.2 0 0 1-.773.68q-.458.24-1.055.24-.587 0-1.02-.223a2.1 2.1 0 0 1-.732-.644 3.6 3.6 0 0 1-.48-.967 7 7 0 0 1-.264-1.213v-.392q.087-.697.264-1.266a3.5 3.5 0 0 1 .48-.99q.298-.422.727-.65a2.14 2.14 0 0 1 1.013-.229q.604 0 1.061.229.462.227.779.656.316.428.475 1.02.158.59.158 1.318m-1.553.123v-.123q0-.422-.076-.78a2.1 2.1 0 0 0-.234-.633 1.2 1.2 0 0 0-.411-.427 1.16 1.16 0 0 0-.609-.153q-.357 0-.615.118t-.422.334a1.7 1.7 0 0 0-.258.515 3 3 0 0 0-.117.65v.973q.052.435.205.78t.445.55q.3.205.774.205.357 0 .609-.158t.41-.433q.159-.282.229-.645t.07-.773m6.05 1.377a.63.63 0 0 0-.105-.358q-.107-.158-.399-.287-.286-.135-.844-.252a6 6 0 0 1-.908-.264 3 3 0 0 1-.715-.38 1.7 1.7 0 0 1-.468-.534 1.5 1.5 0 0 1-.164-.714q0-.393.169-.739.17-.352.493-.615.322-.27.785-.422a3.2 3.2 0 0 1 1.043-.158q.809 0 1.388.264.587.263.897.726.31.458.31 1.031h-1.546a.9.9 0 0 0-.118-.457.8.8 0 0 0-.345-.328 1.2 1.2 0 0 0-.592-.129q-.323 0-.545.106a.8.8 0 0 0-.328.275.67.67 0 0 0-.111.375q0 .153.058.276.064.117.205.216.141.1.381.182.246.083.604.158.708.141 1.236.375.533.23.832.61.299.381.299.972 0 .423-.182.774-.182.345-.527.603a2.7 2.7 0 0 1-.826.405q-.481.14-1.084.14-.874 0-1.477-.31-.603-.317-.914-.797a1.85 1.85 0 0 1-.311-1.008h1.483q.018.369.199.592t.457.322q.282.094.592.094.351 0 .592-.094a.84.84 0 0 0 .363-.264.64.64 0 0 0 .123-.386"/>
        </g>
        <path stroke-linejoin="round" stroke-linecap="round" stroke-width="1.5" stroke="#3D4043" d="M355 20v5m0 5v-5m0 0h-5m5 0h5" fill="none"/>
        <path stroke-linejoin="round" stroke-linecap="round" stroke-width="1.5" stroke="#3D4043" d="m1414 23 4 4 4-4" fill="none"/>
        <path fill="#ffffff" d="M1440 42v36H0V42z"/>
        <path stroke-linejoin="round" stroke-linecap="round" stroke-width="1.5" stroke="#606367" d="M28 60H16m0 0 6-6m-6 6 6 6" fill="none"/>
        <path stroke-linejoin="round" stroke-linecap="round" stroke-width="1.5" stroke="#606367" d="M48 60h12m0 0-6-6m6 6-6 6" fill="none"/>
        <path fill="#606367" d="M86 53.75c1.981 0 3.745.923 4.89 2.36L93 54v5h-5l1.82-1.821a4.75 4.75 0 1 0 .412 4.98.75.75 0 0 1 1.336.683A6.25 6.25 0 1 1 86 53.75"/>
        <path fill="#F1F3F4" d="M1332 60c0 7.732-6.268 14-14 14H122c-7.732 0-14-6.268-14-14s6.268-14 14-14h1196c7.732 0 14 6.268 14 14"/>
        <path fill="#606367" d="M126 55a2.5 2.5 0 0 0-2.5 2.5v1h-.5a1 1 0 0 0-1 1v5a1 1 0 0 0 1 1h6a1 1 0 0 0 1-1v-5a1 1 0 0 0-1-1h-.5v-1A2.5 2.5 0 0 0 126 55m1.5 3.5v-1a1.5 1.5 0 0 0-3 0v1z" clip-rule="evenodd" fill-rule="evenodd"/>
        <path fill="#626365" d="M1282.44 53.558a.62.62 0 0 0-.88 0l-2 2a.614.614 0 0 0 0 .884.62.62 0 0 0 .88 0l.94-.933V62c0 .345.27.625.62.625s.62-.28.62-.625v-6.491l.94.933a.62.62 0 0 0 .88 0 .614.614 0 0 0 0-.884zm-4.82 5.942c0-.483.4-.875.88-.875h1c.35 0 .62-.28.62-.625a.62.62 0 0 0-.62-.625h-1c-1.17 0-2.12.951-2.12 2.125v6c0 1.174.95 2.125 2.12 2.125h7c1.17 0 2.12-.951 2.12-2.125v-6c0-1.174-.95-2.125-2.12-2.125h-1c-.35 0-.62.28-.62.625s.27.625.62.625h1c.48 0 .88.392.88.875v6c0 .483-.4.875-.88.875h-7a.88.88 0 0 1-.88-.875z" clip-rule="evenodd" fill-rule="evenodd"/>
        <path fill="#626365" d="M1313.38 53.88a.653.653 0 0 1 1.24 0l1.29 3.986h4.19c.63 0 .9.806.39 1.176l-3.39 2.464 1.29 3.986c.2.6-.49 1.097-1 .727l-3.39-2.464-3.39 2.464c-.51.37-1.2-.128-1-.727l1.29-3.986-3.39-2.464c-.51-.37-.24-1.176.39-1.176h4.19zm.62 2.142-.86 2.645a.66.66 0 0 1-.62.45h-2.78l2.25 1.634a.66.66 0 0 1 .24.727l-.86 2.644 2.25-1.634a.64.64 0 0 1 .76 0l2.25 1.634-.86-2.644a.66.66 0 0 1 .24-.727l2.25-1.635h-2.78a.66.66 0 0 1-.62-.449z" clip-rule="evenodd" fill-rule="evenodd"/>
        <path fill="#606367" d="M144.235 54.5V65h-1.271V54.5zm4.519 3.103-3.227 3.453-1.804 1.873-.103-1.347 1.292-1.545 2.297-2.434zM147.599 65l-2.639-3.527.656-1.128L149.089 65zm3.725-10.5V65h-1.264V54.5zm-.301 6.522-.526-.021q.007-.759.226-1.401.218-.65.615-1.128a2.74 2.74 0 0 1 2.167-1.005q.547 0 .984.15.438.143.745.465.315.321.479.834.164.506.164 1.237V65h-1.272v-4.86q0-.582-.17-.93a1.05 1.05 0 0 0-.499-.513q-.328-.165-.807-.164-.472 0-.861.198a2.1 2.1 0 0 0-.664.547 2.8 2.8 0 0 0-.43.8q-.15.444-.151.944m11.109 2.713v-3.807q0-.438-.178-.76a1.17 1.17 0 0 0-.519-.505q-.35-.177-.862-.178-.478 0-.841.164-.355.165-.56.431a.94.94 0 0 0-.198.574h-1.265q0-.396.205-.786.206-.39.588-.704.39-.321.93-.506a3.7 3.7 0 0 1 1.216-.191q.807 0 1.422.273.623.273.971.827.355.548.355 1.374v3.446q0 .369.062.786.069.417.198.718V65h-1.319a2.3 2.3 0 0 1-.15-.581 5 5 0 0 1-.055-.684m.219-3.22.013.89h-1.278q-.54 0-.964.088a2.2 2.2 0 0 0-.711.253 1.14 1.14 0 0 0-.588 1.025q0 .35.157.636.158.288.472.458.321.165.786.164.581 0 1.026-.246.444-.246.704-.601.267-.356.287-.69l.54.608a1.9 1.9 0 0 1-.26.635 3.1 3.1 0 0 1-1.401 1.196 2.7 2.7 0 0 1-1.08.206q-.752 0-1.32-.294a2.26 2.26 0 0 1-.875-.786 2.1 2.1 0 0 1-.307-1.115q0-.595.232-1.045.232-.459.67-.76.438-.307 1.053-.464t1.374-.157zm8.545 3.446V65h-5.38v-1.04zm-.199-5.462L165.803 65h-.773v-.93l4.861-6.466h.806zm-.56-.896v1.046h-5.052v-1.046zm3.568 0V65h-1.271v-7.397zm-1.367-1.961q0-.309.184-.52.192-.212.561-.212.362 0 .554.212a.73.73 0 0 1 .198.52.72.72 0 0 1-.198.505q-.192.206-.554.206-.369 0-.561-.206a.74.74 0 0 1-.184-.505M177.424 65h-1.265v-8.04q0-.84.328-1.42.328-.582.937-.883.608-.3 1.442-.3.493 0 .964.123.472.116.971.293l-.212 1.067a7 7 0 0 0-.732-.233 3.3 3.3 0 0 0-.902-.116q-.813 0-1.176.37-.355.361-.355 1.1zm1.511-7.397v.971h-3.945v-.97zm2.488 0V65h-1.265v-7.397zm3.343 1.163V65h-1.265v-7.397h1.23zm2.31-1.203-.007 1.175a2 2 0 0 0-.3-.04 3 3 0 0 0-.315-.014q-.438 0-.772.136a1.6 1.6 0 0 0-.568.383 1.8 1.8 0 0 0-.369.588q-.129.335-.171.738l-.355.205q0-.67.13-1.257.137-.588.417-1.04.279-.458.711-.71.437-.26 1.039-.26.137 0 .314.034a1 1 0 0 1 .246.062m4.102 7.574q-.772 0-1.402-.26a3.2 3.2 0 0 1-1.073-.745 3.3 3.3 0 0 1-.683-1.135 4.2 4.2 0 0 1-.24-1.435v-.288q0-.902.267-1.606.267-.711.724-1.203a3.1 3.1 0 0 1 1.04-.745 3 3 0 0 1 1.203-.253q.792 0 1.367.273.58.273.95.766.369.485.547 1.148a5.5 5.5 0 0 1 .178 1.436v.567h-5.524v-1.032h4.259v-.096a3.2 3.2 0 0 0-.205-.957 1.7 1.7 0 0 0-.547-.765q-.376-.3-1.025-.301a1.72 1.72 0 0 0-1.415.718 2.7 2.7 0 0 0-.404.868 4.4 4.4 0 0 0-.143 1.182v.288q0 .525.143.99.151.459.431.807.287.35.69.547.411.198.93.199.67 0 1.135-.274.465-.273.813-.731l.766.608q-.24.363-.608.69-.37.33-.91.534-.533.204-1.264.205m4.375-.807q0-.321.198-.54.206-.225.588-.225.383 0 .581.225a.76.76 0 0 1 .205.54.75.75 0 0 1-.205.533q-.198.219-.581.219t-.588-.219a.77.77 0 0 1-.198-.533m6.631-.232q.45 0 .834-.185.382-.185.628-.506.247-.328.281-.745h1.203a2.26 2.26 0 0 1-.444 1.224 3.04 3.04 0 0 1-2.502 1.25q-.835 0-1.456-.293a2.9 2.9 0 0 1-1.026-.807 3.6 3.6 0 0 1-.608-1.176 5 5 0 0 1-.198-1.415v-.287q0-.745.198-1.408.204-.67.608-1.183.41-.512 1.026-.806.621-.294 1.456-.294.867 0 1.517.355a2.6 2.6 0 0 1 1.019.957q.375.602.41 1.367h-1.203a1.8 1.8 0 0 0-.26-.827 1.6 1.6 0 0 0-.602-.588 1.7 1.7 0 0 0-.881-.225q-.582 0-.978.232-.39.226-.622.615-.226.383-.328.855-.096.465-.096.95v.287q0 .486.096.957.096.473.321.855.232.383.622.615.397.226.985.226m4.033-2.714v-.157q0-.8.232-1.484.232-.69.67-1.196a3 3 0 0 1 1.06-.793 3.3 3.3 0 0 1 1.394-.287q.78 0 1.402.287.628.28 1.066.793.444.506.677 1.196.232.684.232 1.484v.157q0 .8-.232 1.483a3.6 3.6 0 0 1-.677 1.197 3.1 3.1 0 0 1-1.06.792q-.615.28-1.394.28-.78 0-1.401-.28a3.2 3.2 0 0 1-1.067-.792 3.6 3.6 0 0 1-.67-1.197 4.6 4.6 0 0 1-.232-1.483m1.264-.157v.157q0 .554.13 1.046.13.485.39.861.267.375.663.595.396.212.923.212.519 0 .909-.212.396-.219.656-.595t.39-.861q.137-.492.137-1.046v-.157q0-.548-.137-1.033a2.7 2.7 0 0 0-.396-.868 1.9 1.9 0 0 0-.657-.601 1.84 1.84 0 0 0-.916-.22q-.519 0-.916.22-.39.218-.656.601-.26.376-.39.868-.13.486-.13 1.033m8.313-2.154V65h-1.272v-7.397h1.204zm-.26 1.949-.588-.021q.007-.759.199-1.401.19-.65.567-1.128.376-.479.936-.739.561-.266 1.299-.266.52 0 .957.15.438.144.759.458.322.315.499.807.178.492.178 1.19V65h-1.265v-4.867q0-.582-.198-.93a1.14 1.14 0 0 0-.547-.506 2 2 0 0 0-.834-.164q-.561 0-.936.198a1.6 1.6 0 0 0-.602.547q-.225.35-.328.8a4.5 4.5 0 0 0-.096.944m4.792-.698-.847.26q.006-.608.198-1.169.198-.56.567-.998.376-.438.923-.69.547-.26 1.251-.26.594 0 1.053.157.465.158.779.485.321.322.485.828.165.506.164 1.203V65h-1.271v-4.874q0-.622-.198-.964a1.03 1.03 0 0 0-.547-.485 2.2 2.2 0 0 0-.834-.144q-.417 0-.738.144a1.5 1.5 0 0 0-.54.396 1.7 1.7 0 0 0-.335.568q-.11.321-.11.683"/>
        <path fill="#606367" d="M1356.5 55h2.5c1.1 0 2 .895 2 2v2.5h1.5a1.499 1.499 0 1 1 0 3h-1.5V65c0 1.105-.9 2-2 2h-2.5v-1.5a1.499 1.499 0 1 0-3 0V67h-2.5c-1.1 0-2-.895-2-2v-2.5h1.5a1.499 1.499 0 1 0 0-3h-1.5V57c0-1.105.9-2 2-2h2.5v-1a1.499 1.499 0 1 1 3 0z" clip-rule="evenodd" fill-rule="evenodd"/>
        <path fill="#606367" d="M1395 53h-14v14h14zm-5 2h-7v10h7z" clip-rule="evenodd" fill-rule="evenodd"/>
        <path fill="#606367" d="M1420 55a1.499 1.499 0 1 1-3 0 1.499 1.499 0 1 1 3 0m0 5.25a1.499 1.499 0 1 1-3 0 1.499 1.499 0 1 1 3 0m-1.5 6.75a1.499 1.499 0 1 0 0-3 1.499 1.499 0 1 0 0 3" clip-rule="evenodd" fill-rule="evenodd"/>
        <path fill="#DBDCDD" d="M1440 78v1H0v-1z"/>
        <defs fill="none">
            <linearGradient gradientUnits="userSpaceOnUse" y2="25" x2="283" y1="25" x1="327" id="b91777fc-206a-4d17-8e94-bcfe2579592a">
                <stop stop-color="#ffffff" offset=".593"/>
                <stop stop-opacity="0" stop-color="#ffffff" offset="1"/>
            </linearGradient>
            <clipPath id="f104bdb6-a705-4e60-ab42-b508b79df23e">
                <path fill="#ffffff" d="M87 16a8 8 0 0 1 8-8h224a8 8 0 0 1 8 8v26H87z"/>
            </clipPath>
        </defs>
    </g>
</svg>
