<svg width="3277" height="5877" viewBox="0 0 3277 5877" fill="none" xmlns="http://www.w3.org/2000/svg">
<g clip-path="url(#clip0_0_39)">
<g opacity="0.699452" filter="url(#filter0_f_0_39)">
<path fill-rule="evenodd" clip-rule="evenodd" d="M543.001 5802H2719C2745.15 5828.89 2726.09 5874 2688.58 5874H573.42C535.91 5874 516.853 5828.89 543.001 5802Z" fill="url(#paint0_linear_0_39)"/>
</g>
<g clip-path="url(#clip1_0_39)">
<g clip-path="url(#clip2_0_39)">
<g filter="url(#filter1_iii_0_39)">
<path fill-rule="evenodd" clip-rule="evenodd" d="M725 5859H578V5866C578 5869.31 610.907 5872 651.5 5872C692.093 5872 725 5869.31 725 5866V5859Z" fill="url(#paint1_linear_0_39)"/>
</g>
<g filter="url(#filter2_iii_0_39)">
<path fill-rule="evenodd" clip-rule="evenodd" d="M1736 5859H1541V5868.5V5869H1541.17C1544.13 5873.46 1586.58 5877 1638.5 5877C1690.42 5877 1732.87 5873.46 1735.83 5869H1736V5868.5V5859Z" fill="url(#paint2_linear_0_39)"/>
</g>
<g filter="url(#filter3_iii_0_39)">
<path fill-rule="evenodd" clip-rule="evenodd" d="M2696 5859H2549V5866C2549 5869.31 2581.91 5872 2622.5 5872C2663.09 5872 2696 5869.31 2696 5866V5859Z" fill="url(#paint3_linear_0_39)"/>
</g>
<g clip-path="url(#clip3_0_39)">
<g filter="url(#filter4_ii_0_39)">
<path fill-rule="evenodd" clip-rule="evenodd" d="M513.552 5836.42C505.918 5832 487.037 5813.02 487.037 5809.03C487.037 5805.04 2788.93 5805.04 2788.93 5809.03C2788.93 5813.02 2771.98 5830.34 2762.51 5835.91C2753.05 5841.49 2702.16 5859 2699.7 5859C2697.24 5859 578.666 5859 576.4 5859C574.134 5859 521.186 5840.83 513.552 5836.42Z" fill="url(#paint4_linear_0_39)"/>
<path fill-rule="evenodd" clip-rule="evenodd" d="M513.552 5836.42C505.918 5832 487.037 5813.02 487.037 5809.03C487.037 5805.04 2788.93 5805.04 2788.93 5809.03C2788.93 5813.02 2771.98 5830.34 2762.51 5835.91C2753.05 5841.49 2702.16 5859 2699.7 5859C2697.24 5859 578.666 5859 576.4 5859C574.134 5859 521.186 5840.83 513.552 5836.42Z" fill="url(#paint5_linear_0_39)"/>
</g>
<path fill-rule="evenodd" clip-rule="evenodd" d="M486.39 5790.1C486.435 5796.96 486.409 5806.03 486.39 5806.99C486.114 5821 548.6 5821 587.008 5821H2688.99C2727.4 5821 2790.33 5821 2789.7 5807C2789.66 5806.04 2789.83 5793.8 2789.7 5790.1C2769.64 5756.99 2726.77 5703.82 2726.77 5703.82C2718.76 5690.63 2672.29 5690.83 2664.02 5690.63C2664.02 5690.63 1998.39 5673 1638 5673C1277.73 5673 611.987 5690.63 611.987 5690.63C603.712 5690.83 558.059 5690.63 549.229 5703.82C528.904 5737.36 497.939 5771.04 486.39 5790.1Z" fill="url(#paint6_linear_0_39)"/>
<g filter="url(#filter5_d_0_39)">
<path fill-rule="evenodd" clip-rule="evenodd" d="M487.367 5786.9C477.402 5804 545.958 5804 587.008 5804H2688.99C2730.05 5804 2799.15 5804 2788.63 5786.9L2726.77 5684.82C2718.76 5671.63 2672.29 5671.83 2664.02 5671.63C2664.02 5671.63 1998.39 5654 1638 5654C1277.73 5654 611.987 5671.63 611.987 5671.63C603.712 5671.83 558.059 5671.63 549.229 5684.82C518.298 5735.86 487.367 5786.9 487.367 5786.9Z" fill="url(#paint7_linear_0_39)"/>
</g>
<mask id="mask0_0_39" style="mask-type:luminance" maskUnits="userSpaceOnUse" x="486" y="5654" width="2304" height="150">
<path fill-rule="evenodd" clip-rule="evenodd" d="M487.367 5786.9C477.402 5804 545.958 5804 587.008 5804H2688.99C2730.05 5804 2799.15 5804 2788.63 5786.9L2726.77 5684.82C2718.76 5671.63 2672.29 5671.83 2664.02 5671.63C2664.02 5671.63 1998.39 5654 1638 5654C1277.73 5654 611.987 5671.63 611.987 5671.63C603.712 5671.83 558.059 5671.63 549.229 5684.82C518.298 5735.86 487.367 5786.9 487.367 5786.9Z" fill="white"/>
</mask>
<g mask="url(#mask0_0_39)">
</g>
</g>
<path fill-rule="evenodd" clip-rule="evenodd" d="M1638 5699C1831.85 5699 1989 5690.94 1989 5681C1989 5671.06 1831.85 5663 1638 5663C1444.15 5663 1287 5671.06 1287 5681C1287 5690.94 1444.15 5699 1638 5699ZM1638 5698C1828.54 5698 1983 5690.39 1983 5681C1983 5671.61 1828.54 5664 1638 5664C1447.46 5664 1293 5671.61 1293 5681C1293 5690.39 1447.46 5698 1638 5698Z" fill="url(#paint8_linear_0_39)"/>
<path fill-rule="evenodd" clip-rule="evenodd" d="M1941 4781H1335V5680C1335 5681.1 1335.9 5682 1337 5682H1939C1940.1 5682 1941 5681.1 1941 5680V4781ZM1736 4787H1540V5022C1540 5070.05 1578.95 5109 1627 5109H1649C1697.05 5109 1736 5070.05 1736 5022V4787Z" fill="url(#paint9_linear_0_39)"/>
<rect x="1355" y="4787" width="2" height="895" fill="url(#paint10_linear_0_39)"/>
<rect x="1919" y="4787" width="2" height="895" fill="url(#paint11_linear_0_39)"/>
</g>
<g clip-path="url(#clip4_0_39)">
<g filter="url(#filter6_i_0_39)">
<g clip-path="url(#paint12_angular_0_39_clip_path)" data-figma-skip-parse="true"><g transform="matrix(0 2.727 -1.6385 0 1638.5 2727)"><foreignObject x="-1000" y="-1000" width="2000" height="2000"><div xmlns="http://www.w3.org/1999/xhtml" style="background:conic-gradient(from 90deg,rgba(191, 191, 191, 1) 0deg,rgba(191, 191, 191, 1) 39.8759deg,rgba(245, 245, 245, 1) 44.6864deg,rgba(191, 191, 191, 1) 49.1308deg,rgba(191, 191, 191, 1) 131.544deg,rgba(231, 231, 231, 1) 135.525deg,rgba(191, 191, 191, 1) 139.742deg,rgba(191, 191, 191, 1) 201.397deg,rgba(242, 242, 242, 1) 221.131deg,rgba(191, 191, 191, 1) 230.112deg,rgba(191, 191, 191, 1) 307.212deg,rgba(242, 242, 242, 1) 315.945deg,rgba(191, 191, 191, 1) 327.182deg,rgba(191, 191, 191, 1) 342.443deg,rgba(191, 191, 191, 1) 360deg);height:100%;width:100%;opacity:1"></div></foreignObject></g></g><path fill-rule="evenodd" clip-rule="evenodd" d="M3180 0V0C3233.57 0 3277 43.4252 3277 96.9947L3277 5357.01C3277 5410.57 3233.57 5454 3180 5454H96.9995C43.4281 5454 0 5410.57 0 5357.01L0 96.9947C0 43.4283 43.4341 0 96.9995 0L3180 0Z" data-figma-gradient-fill="{&#34;type&#34;:&#34;GRADIENT_ANGULAR&#34;,&#34;stops&#34;:[{&#34;color&#34;:{&#34;r&#34;:0.74901962280273438,&#34;g&#34;:0.74901962280273438,&#34;b&#34;:0.74901962280273438,&#34;a&#34;:1.0},&#34;position&#34;:0.0},{&#34;color&#34;:{&#34;r&#34;:0.74901962280273438,&#34;g&#34;:0.74901962280273438,&#34;b&#34;:0.74901962280273438,&#34;a&#34;:1.0},&#34;position&#34;:0.11076647043228149},{&#34;color&#34;:{&#34;r&#34;:0.96200042963027954,&#34;g&#34;:0.96200042963027954,&#34;b&#34;:0.96200042963027954,&#34;a&#34;:1.0},&#34;position&#34;:0.12412893027067184},{&#34;color&#34;:{&#34;r&#34;:0.74901962280273438,&#34;g&#34;:0.74901962280273438,&#34;b&#34;:0.74901962280273438,&#34;a&#34;:1.0},&#34;position&#34;:0.13647431135177612},{&#34;color&#34;:{&#34;r&#34;:0.74901962280273438,&#34;g&#34;:0.74901962280273438,&#34;b&#34;:0.74901962280273438,&#34;a&#34;:1.0},&#34;position&#34;:0.36540052294731140},{&#34;color&#34;:{&#34;r&#34;:0.90888071060180664,&#34;g&#34;:0.90888071060180664,&#34;b&#34;:0.90888071060180664,&#34;a&#34;:1.0},&#34;position&#34;:0.37645947933197021},{&#34;color&#34;:{&#34;r&#34;:0.74901962280273438,&#34;g&#34;:0.74901962280273438,&#34;b&#34;:0.74901962280273438,&#34;a&#34;:1.0},&#34;position&#34;:0.38817173242568970},{&#34;color&#34;:{&#34;r&#34;:0.74901962280273438,&#34;g&#34;:0.74901962280273438,&#34;b&#34;:0.74901962280273438,&#34;a&#34;:1.0},&#34;position&#34;:0.55943626165390015},{&#34;color&#34;:{&#34;r&#34;:0.94908589124679565,&#34;g&#34;:0.94908589124679565,&#34;b&#34;:0.94908589124679565,&#34;a&#34;:1.0},&#34;position&#34;:0.61425352096557617},{&#34;color&#34;:{&#34;r&#34;:0.74901962280273438,&#34;g&#34;:0.74901962280273438,&#34;b&#34;:0.74901962280273438,&#34;a&#34;:1.0},&#34;position&#34;:0.63920021057128906},{&#34;color&#34;:{&#34;r&#34;:0.74901962280273438,&#34;g&#34;:0.74901962280273438,&#34;b&#34;:0.74901962280273438,&#34;a&#34;:1.0},&#34;position&#34;:0.95122981071472168},{&#34;color&#34;:{&#34;r&#34;:0.74901962280273438,&#34;g&#34;:0.74901962280273438,&#34;b&#34;:0.74901962280273438,&#34;a&#34;:1.0},&#34;position&#34;:0.85336589813232422},{&#34;color&#34;:{&#34;r&#34;:0.94996279478073120,&#34;g&#34;:0.94996279478073120,&#34;b&#34;:0.94996279478073120,&#34;a&#34;:1.0},&#34;position&#34;:0.87762427330017090},{&#34;color&#34;:{&#34;r&#34;:0.74901962280273438,&#34;g&#34;:0.74901962280273438,&#34;b&#34;:0.74901962280273438,&#34;a&#34;:1.0},&#34;position&#34;:0.90883934497833252},{&#34;color&#34;:{&#34;r&#34;:0.74901962280273438,&#34;g&#34;:0.74901962280273438,&#34;b&#34;:0.74901962280273438,&#34;a&#34;:1.0},&#34;position&#34;:1.0}],&#34;stopsVar&#34;:[],&#34;transform&#34;:{&#34;m00&#34;:-1.0018834720182390e-12,&#34;m01&#34;:-3277.0,&#34;m02&#34;:3277.0,&#34;m10&#34;:5454.0,&#34;m11&#34;:-6.0197512122620034e-13,&#34;m12&#34;:2.2737367544323206e-12},&#34;opacity&#34;:1.0,&#34;blendMode&#34;:&#34;NORMAL&#34;,&#34;visible&#34;:true}"/>
</g>
<g filter="url(#filter7_di_0_39)">
<path d="M3180 19V19L96.9995 19C53.9298 19 19 53.9194 19 96.9947L19 5357.01C19 5400.08 53.9215 5435 96.9995 5435L3180 5435C3223.07 5435 3258 5400.08 3258 5357.01L3258 96.9947C3258 53.9186 3223.08 19 3180 19V19Z" fill="url(#paint13_linear_0_39)"/>
</g>
<g filter="url(#filter8_d_0_39)">
<path fill-rule="evenodd" clip-rule="evenodd" d="M150.628 2711.43C151.416 2710.22 152.205 2709.01 153 2707.81C149.767 2702.75 146.52 2697.7 143.272 2692.66C137.141 2683.13 131.01 2673.61 124.979 2663.98C135.431 2660.51 143.825 2653.03 147.092 2642.49C149.397 2635.05 149.096 2625.82 148.785 2616.28C148.597 2610.53 148.406 2604.66 148.78 2599H78.3889C78.6565 2604.79 78.4937 2610.54 78.336 2616.12C78.166 2622.13 78.0019 2627.93 78.3889 2633.35C79.5862 2650.1 89.7258 2660.23 103.202 2664.49C98.5312 2671.67 93.7386 2678.73 88.9459 2685.79C83.9173 2693.19 78.8886 2700.6 74 2708.15C77.0894 2713 80.2535 2717.89 83.4219 2722.78C89.4909 2732.15 95.5751 2741.55 101.178 2750.79H78.3889L78.3889 2798.68H100.84C100.883 2795.85 100.86 2792.95 100.838 2790.04C100.801 2785.33 100.764 2780.61 101.008 2776.17H148.78V2750.79H124.809C122.81 2747.65 120.803 2744.51 118.795 2741.38C113.434 2733 108.072 2724.63 102.865 2716.1C103.3 2715.43 103.706 2714.74 104.112 2714.04C104.827 2712.81 105.541 2711.59 106.41 2710.52C109.502 2715.31 112.645 2720.06 115.787 2724.81C120.075 2731.28 124.363 2737.76 128.523 2744.36C132.08 2739.63 135.321 2734.59 138.483 2729.47C131.758 2718.94 125.076 2708.36 118.393 2697.78C117.831 2696.9 117.269 2696.01 116.708 2695.12C117.366 2694.25 117.966 2693.33 118.565 2692.41C119.164 2691.49 119.763 2690.57 120.421 2689.7C123.426 2694.43 126.458 2699.13 129.49 2703.83C133.751 2710.43 138.012 2717.04 142.197 2723.72C145.176 2719.79 147.902 2715.61 150.628 2711.43ZM100.84 2623.2H126.16C126.4 2623.18 126.638 2623.17 126.667 2623.37C127.135 2630.7 126.38 2635.98 122.784 2639.1C117.395 2643.79 107.283 2642.72 103.202 2637.41C100.729 2634.19 100.771 2630.14 100.825 2624.94C100.831 2624.37 100.837 2623.79 100.84 2623.2ZM148.78 2830.66L148.78 2805.28C148.752 2805.08 148.513 2805.1 148.274 2805.11H148.273H78.3889V2853H100.84L100.84 2830.66H148.78Z" fill="url(#paint14_linear_0_39)"/>
</g>
<rect x="19" y="4836" width="4" height="19" transform="rotate(90 19 4836)" fill="#3F3F3F"/>
<rect x="19" y="614" width="4" height="19" transform="rotate(90 19 614)" fill="#3F3F3F"/>
</g>
</g>
<rect x="3099" y="167" width="5120" height="2880" transform="rotate(90 3099 167)" fill="#1D2129"/>
</g>
<defs>
<filter id="filter0_f_0_39" x="520.036" y="5791.13" width="2221.93" height="93.7463" filterUnits="userSpaceOnUse" color-interpolation-filters="sRGB">
<feFlood flood-opacity="0" result="BackgroundImageFix"/>
<feBlend mode="normal" in="SourceGraphic" in2="BackgroundImageFix" result="shape"/>
<feGaussianBlur stdDeviation="5.43656" result="effect1_foregroundBlur_0_39"/>
</filter>
<filter id="filter1_iii_0_39" x="578" y="5858" width="147" height="15" filterUnits="userSpaceOnUse" color-interpolation-filters="sRGB">
<feFlood flood-opacity="0" result="BackgroundImageFix"/>
<feBlend mode="normal" in="SourceGraphic" in2="BackgroundImageFix" result="shape"/>
<feColorMatrix in="SourceAlpha" type="matrix" values="0 0 0 0 0 0 0 0 0 0 0 0 0 0 0 0 0 0 127 0" result="hardAlpha"/>
<feOffset dy="1"/>
<feGaussianBlur stdDeviation="2.5"/>
<feComposite in2="hardAlpha" operator="arithmetic" k2="-1" k3="1"/>
<feColorMatrix type="matrix" values="0 0 0 0 1 0 0 0 0 1 0 0 0 0 1 0 0 0 0.231686 0"/>
<feBlend mode="normal" in2="shape" result="effect1_innerShadow_0_39"/>
<feColorMatrix in="SourceAlpha" type="matrix" values="0 0 0 0 0 0 0 0 0 0 0 0 0 0 0 0 0 0 127 0" result="hardAlpha"/>
<feOffset dy="1"/>
<feGaussianBlur stdDeviation="1.5"/>
<feComposite in2="hardAlpha" operator="arithmetic" k2="-1" k3="1"/>
<feColorMatrix type="matrix" values="0 0 0 0 0 0 0 0 0 0 0 0 0 0 0 0 0 0 0.613026 0"/>
<feBlend mode="normal" in2="effect1_innerShadow_0_39" result="effect2_innerShadow_0_39"/>
<feColorMatrix in="SourceAlpha" type="matrix" values="0 0 0 0 0 0 0 0 0 0 0 0 0 0 0 0 0 0 127 0" result="hardAlpha"/>
<feOffset dy="-3"/>
<feGaussianBlur stdDeviation="0.5"/>
<feComposite in2="hardAlpha" operator="arithmetic" k2="-1" k3="1"/>
<feColorMatrix type="matrix" values="0 0 0 0 0 0 0 0 0 0 0 0 0 0 0 0 0 0 0.449643 0"/>
<feBlend mode="normal" in2="effect2_innerShadow_0_39" result="effect3_innerShadow_0_39"/>
</filter>
<filter id="filter2_iii_0_39" x="1541" y="5858" width="195" height="20" filterUnits="userSpaceOnUse" color-interpolation-filters="sRGB">
<feFlood flood-opacity="0" result="BackgroundImageFix"/>
<feBlend mode="normal" in="SourceGraphic" in2="BackgroundImageFix" result="shape"/>
<feColorMatrix in="SourceAlpha" type="matrix" values="0 0 0 0 0 0 0 0 0 0 0 0 0 0 0 0 0 0 127 0" result="hardAlpha"/>
<feOffset dy="1"/>
<feGaussianBlur stdDeviation="2.5"/>
<feComposite in2="hardAlpha" operator="arithmetic" k2="-1" k3="1"/>
<feColorMatrix type="matrix" values="0 0 0 0 1 0 0 0 0 1 0 0 0 0 1 0 0 0 0.231686 0"/>
<feBlend mode="normal" in2="shape" result="effect1_innerShadow_0_39"/>
<feColorMatrix in="SourceAlpha" type="matrix" values="0 0 0 0 0 0 0 0 0 0 0 0 0 0 0 0 0 0 127 0" result="hardAlpha"/>
<feOffset dy="1"/>
<feGaussianBlur stdDeviation="1.5"/>
<feComposite in2="hardAlpha" operator="arithmetic" k2="-1" k3="1"/>
<feColorMatrix type="matrix" values="0 0 0 0 0 0 0 0 0 0 0 0 0 0 0 0 0 0 0.613026 0"/>
<feBlend mode="normal" in2="effect1_innerShadow_0_39" result="effect2_innerShadow_0_39"/>
<feColorMatrix in="SourceAlpha" type="matrix" values="0 0 0 0 0 0 0 0 0 0 0 0 0 0 0 0 0 0 127 0" result="hardAlpha"/>
<feOffset dy="-3"/>
<feGaussianBlur stdDeviation="0.5"/>
<feComposite in2="hardAlpha" operator="arithmetic" k2="-1" k3="1"/>
<feColorMatrix type="matrix" values="0 0 0 0 0 0 0 0 0 0 0 0 0 0 0 0 0 0 0.449643 0"/>
<feBlend mode="normal" in2="effect2_innerShadow_0_39" result="effect3_innerShadow_0_39"/>
</filter>
<filter id="filter3_iii_0_39" x="2549" y="5858" width="147" height="15" filterUnits="userSpaceOnUse" color-interpolation-filters="sRGB">
<feFlood flood-opacity="0" result="BackgroundImageFix"/>
<feBlend mode="normal" in="SourceGraphic" in2="BackgroundImageFix" result="shape"/>
<feColorMatrix in="SourceAlpha" type="matrix" values="0 0 0 0 0 0 0 0 0 0 0 0 0 0 0 0 0 0 127 0" result="hardAlpha"/>
<feOffset dy="1"/>
<feGaussianBlur stdDeviation="2.5"/>
<feComposite in2="hardAlpha" operator="arithmetic" k2="-1" k3="1"/>
<feColorMatrix type="matrix" values="0 0 0 0 1 0 0 0 0 1 0 0 0 0 1 0 0 0 0.231686 0"/>
<feBlend mode="normal" in2="shape" result="effect1_innerShadow_0_39"/>
<feColorMatrix in="SourceAlpha" type="matrix" values="0 0 0 0 0 0 0 0 0 0 0 0 0 0 0 0 0 0 127 0" result="hardAlpha"/>
<feOffset dy="1"/>
<feGaussianBlur stdDeviation="1.5"/>
<feComposite in2="hardAlpha" operator="arithmetic" k2="-1" k3="1"/>
<feColorMatrix type="matrix" values="0 0 0 0 0 0 0 0 0 0 0 0 0 0 0 0 0 0 0.613026 0"/>
<feBlend mode="normal" in2="effect1_innerShadow_0_39" result="effect2_innerShadow_0_39"/>
<feColorMatrix in="SourceAlpha" type="matrix" values="0 0 0 0 0 0 0 0 0 0 0 0 0 0 0 0 0 0 127 0" result="hardAlpha"/>
<feOffset dy="-3"/>
<feGaussianBlur stdDeviation="0.5"/>
<feComposite in2="hardAlpha" operator="arithmetic" k2="-1" k3="1"/>
<feColorMatrix type="matrix" values="0 0 0 0 0 0 0 0 0 0 0 0 0 0 0 0 0 0 0.449643 0"/>
<feBlend mode="normal" in2="effect2_innerShadow_0_39" result="effect3_innerShadow_0_39"/>
</filter>
<filter id="filter4_ii_0_39" x="481.037" y="5806.04" width="2313.89" height="52.9639" filterUnits="userSpaceOnUse" color-interpolation-filters="sRGB">
<feFlood flood-opacity="0" result="BackgroundImageFix"/>
<feBlend mode="normal" in="SourceGraphic" in2="BackgroundImageFix" result="shape"/>
<feColorMatrix in="SourceAlpha" type="matrix" values="0 0 0 0 0 0 0 0 0 0 0 0 0 0 0 0 0 0 127 0" result="hardAlpha"/>
<feOffset dx="10"/>
<feGaussianBlur stdDeviation="3"/>
<feComposite in2="hardAlpha" operator="arithmetic" k2="-1" k3="1"/>
<feColorMatrix type="matrix" values="0 0 0 0 0 0 0 0 0 0 0 0 0 0 0 0 0 0 0.502293 0"/>
<feBlend mode="normal" in2="shape" result="effect1_innerShadow_0_39"/>
<feColorMatrix in="SourceAlpha" type="matrix" values="0 0 0 0 0 0 0 0 0 0 0 0 0 0 0 0 0 0 127 0" result="hardAlpha"/>
<feOffset dx="-10"/>
<feGaussianBlur stdDeviation="3"/>
<feComposite in2="hardAlpha" operator="arithmetic" k2="-1" k3="1"/>
<feColorMatrix type="matrix" values="0 0 0 0 0 0 0 0 0 0 0 0 0 0 0 0 0 0 0.502293 0"/>
<feBlend mode="normal" in2="effect1_innerShadow_0_39" result="effect2_innerShadow_0_39"/>
</filter>
<filter id="filter5_d_0_39" x="485.389" y="5654" width="2305.32" height="154" filterUnits="userSpaceOnUse" color-interpolation-filters="sRGB">
<feFlood flood-opacity="0" result="BackgroundImageFix"/>
<feColorMatrix in="SourceAlpha" type="matrix" values="0 0 0 0 0 0 0 0 0 0 0 0 0 0 0 0 0 0 127 0" result="hardAlpha"/>
<feOffset dy="3"/>
<feGaussianBlur stdDeviation="0.5"/>
<feColorMatrix type="matrix" values="0 0 0 0 0 0 0 0 0 0 0 0 0 0 0 0 0 0 0.101591 0"/>
<feBlend mode="normal" in2="BackgroundImageFix" result="effect1_dropShadow_0_39"/>
<feBlend mode="normal" in="SourceGraphic" in2="effect1_dropShadow_0_39" result="shape"/>
</filter>
<filter id="filter6_i_0_39" x="0" y="0" width="3277" height="5454" filterUnits="userSpaceOnUse" color-interpolation-filters="sRGB">
<feFlood flood-opacity="0" result="BackgroundImageFix"/>
<feBlend mode="normal" in="SourceGraphic" in2="BackgroundImageFix" result="shape"/>
<feColorMatrix in="SourceAlpha" type="matrix" values="0 0 0 0 0 0 0 0 0 0 0 0 0 0 0 0 0 0 127 0" result="hardAlpha"/>
<feOffset/>
<feGaussianBlur stdDeviation="1"/>
<feComposite in2="hardAlpha" operator="arithmetic" k2="-1" k3="1"/>
<feColorMatrix type="matrix" values="0 0 0 0 0 0 0 0 0 0 0 0 0 0 0 0 0 0 0.253255 0"/>
<feBlend mode="normal" in2="shape" result="effect1_innerShadow_0_39"/>
</filter>
<clipPath id="paint12_angular_0_39_clip_path"><path fill-rule="evenodd" clip-rule="evenodd" d="M3180 0V0C3233.57 0 3277 43.4252 3277 96.9947L3277 5357.01C3277 5410.57 3233.57 5454 3180 5454H96.9995C43.4281 5454 0 5410.57 0 5357.01L0 96.9947C0 43.4283 43.4341 0 96.9995 0L3180 0Z"/></clipPath><filter id="filter7_di_0_39" x="18" y="18" width="3241" height="5418" filterUnits="userSpaceOnUse" color-interpolation-filters="sRGB">
<feFlood flood-opacity="0" result="BackgroundImageFix"/>
<feColorMatrix in="SourceAlpha" type="matrix" values="0 0 0 0 0 0 0 0 0 0 0 0 0 0 0 0 0 0 127 0" result="hardAlpha"/>
<feOffset/>
<feGaussianBlur stdDeviation="0.5"/>
<feColorMatrix type="matrix" values="0 0 0 0 0 0 0 0 0 0 0 0 0 0 0 0 0 0 0.247934 0"/>
<feBlend mode="normal" in2="BackgroundImageFix" result="effect1_dropShadow_0_39"/>
<feBlend mode="normal" in="SourceGraphic" in2="effect1_dropShadow_0_39" result="shape"/>
<feColorMatrix in="SourceAlpha" type="matrix" values="0 0 0 0 0 0 0 0 0 0 0 0 0 0 0 0 0 0 127 0" result="hardAlpha"/>
<feOffset/>
<feGaussianBlur stdDeviation="0.5"/>
<feComposite in2="hardAlpha" operator="arithmetic" k2="-1" k3="1"/>
<feColorMatrix type="matrix" values="0 0 0 0 0 0 0 0 0 0 0 0 0 0 0 0 0 0 0.386634 0"/>
<feBlend mode="normal" in2="shape" result="effect2_innerShadow_0_39"/>
</filter>
<filter id="filter8_d_0_39" x="74" y="2597" width="83" height="258" filterUnits="userSpaceOnUse" color-interpolation-filters="sRGB">
<feFlood flood-opacity="0" result="BackgroundImageFix"/>
<feColorMatrix in="SourceAlpha" type="matrix" values="0 0 0 0 0 0 0 0 0 0 0 0 0 0 0 0 0 0 127 0" result="hardAlpha"/>
<feOffset dx="2"/>
<feGaussianBlur stdDeviation="1"/>
<feColorMatrix type="matrix" values="0 0 0 0 0 0 0 0 0 0 0 0 0 0 0 0 0 0 0.499066 0"/>
<feBlend mode="normal" in2="BackgroundImageFix" result="effect1_dropShadow_0_39"/>
<feBlend mode="normal" in="SourceGraphic" in2="effect1_dropShadow_0_39" result="shape"/>
</filter>
<linearGradient id="paint0_linear_0_39" x1="2771.79" y1="5838" x2="490.21" y2="5838" gradientUnits="userSpaceOnUse">
<stop stop-opacity="0.01"/>
<stop offset="0.057936"/>
<stop offset="0.938832"/>
<stop offset="1" stop-opacity="0.01"/>
</linearGradient>
<linearGradient id="paint1_linear_0_39" x1="725" y1="5852.5" x2="578" y2="5852.5" gradientUnits="userSpaceOnUse">
<stop stop-color="#1D1D1D"/>
<stop offset="0.173469" stop-color="#363636"/>
<stop offset="0.306202" stop-color="#242424"/>
<stop offset="0.575627" stop-color="#474747"/>
<stop offset="1"/>
</linearGradient>
<linearGradient id="paint2_linear_0_39" x1="1736" y1="5850" x2="1541" y2="5850" gradientUnits="userSpaceOnUse">
<stop stop-color="#1D1D1D"/>
<stop offset="0.173469" stop-color="#363636"/>
<stop offset="0.306202" stop-color="#242424"/>
<stop offset="0.575627" stop-color="#474747"/>
<stop offset="1"/>
</linearGradient>
<linearGradient id="paint3_linear_0_39" x1="2696" y1="5852.5" x2="2549" y2="5852.5" gradientUnits="userSpaceOnUse">
<stop stop-color="#1D1D1D"/>
<stop offset="0.173469" stop-color="#363636"/>
<stop offset="0.306202" stop-color="#242424"/>
<stop offset="0.575627" stop-color="#474747"/>
<stop offset="1"/>
</linearGradient>
<linearGradient id="paint4_linear_0_39" x1="551.264" y1="5858.26" x2="2788.93" y2="5858.26" gradientUnits="userSpaceOnUse">
<stop stop-color="#2A2A2A"/>
<stop offset="0.498645" stop-color="#393939"/>
<stop offset="1" stop-color="#2C2C2C"/>
</linearGradient>
<linearGradient id="paint5_linear_0_39" x1="1062.51" y1="5832.52" x2="1062.51" y2="5859" gradientUnits="userSpaceOnUse">
<stop stop-opacity="0.01"/>
<stop offset="1" stop-opacity="0.37316"/>
</linearGradient>
<linearGradient id="paint6_linear_0_39" x1="2789.75" y1="5690.37" x2="486.389" y2="5690.37" gradientUnits="userSpaceOnUse">
<stop stop-color="#494949"/>
<stop offset="0.00548826" stop-color="#E4E4E4"/>
<stop offset="0.0146788" stop-color="white"/>
<stop offset="0.0262518" stop-color="#ECECEC"/>
<stop offset="0.035185" stop-color="#9C9C9C"/>
<stop offset="0.0428973" stop-color="#6C6B6B"/>
<stop offset="0.0502683" stop-color="#6E6E6E"/>
<stop offset="0.0606556" stop-color="#868686"/>
<stop offset="0.0960526" stop-color="#E2E2E2"/>
<stop offset="0.907582" stop-color="#E2E2E2"/>
<stop offset="0.941267" stop-color="#858585"/>
<stop offset="0.959083" stop-color="#777777"/>
<stop offset="0.97214" stop-color="#CBCBCB"/>
<stop offset="0.98448" stop-color="white"/>
<stop offset="0.993451" stop-color="#E4E4E4"/>
<stop offset="1" stop-color="#1C1C1C"/>
</linearGradient>
<linearGradient id="paint7_linear_0_39" x1="2881.18" y1="5665.91" x2="1949.39" y2="4529.46" gradientUnits="userSpaceOnUse">
<stop stop-color="#D1D1D1"/>
<stop offset="0.259865" stop-color="#F5F5F5"/>
<stop offset="0.706852" stop-color="#F4F4F4"/>
<stop offset="1" stop-color="#D2D2D2"/>
</linearGradient>
<linearGradient id="paint8_linear_0_39" x1="1287" y1="5699" x2="1989" y2="5699" gradientUnits="userSpaceOnUse">
<stop stop-color="#848484"/>
<stop offset="0.0993312" stop-color="#DDDDDD"/>
<stop offset="0.898922" stop-color="#DDDDDD"/>
<stop offset="1" stop-color="#848484"/>
</linearGradient>
<linearGradient id="paint9_linear_0_39" x1="1533.98" y1="5372.69" x2="1533.98" y2="5682" gradientUnits="userSpaceOnUse">
<stop stop-color="#8F8F8F"/>
<stop offset="0.550212" stop-color="#BDBDBD"/>
<stop offset="1" stop-color="#DEDEDE"/>
</linearGradient>
<linearGradient id="paint10_linear_0_39" x1="1355.63" y1="5329.79" x2="1355.63" y2="5664.13" gradientUnits="userSpaceOnUse">
<stop stop-color="#777777"/>
<stop offset="1" stop-color="#D1D1D1"/>
</linearGradient>
<linearGradient id="paint11_linear_0_39" x1="1919.63" y1="5329.79" x2="1919.63" y2="5664.13" gradientUnits="userSpaceOnUse">
<stop stop-color="#777777"/>
<stop offset="1" stop-color="#D1D1D1"/>
</linearGradient>
<linearGradient id="paint13_linear_0_39" x1="2707.59" y1="-1269.97" x2="814.221" y2="41.2152" gradientUnits="userSpaceOnUse">
<stop stop-color="#2C2C2C"/>
<stop offset="1" stop-color="#1B1B1B"/>
</linearGradient>
<linearGradient id="paint14_linear_0_39" x1="74" y1="2599" x2="74" y2="2853" gradientUnits="userSpaceOnUse">
<stop stop-color="#B4B4B4"/>
<stop offset="1" stop-color="#727272"/>
</linearGradient>
<clipPath id="clip0_0_39">
<rect width="3277" height="5877" fill="white"/>
</clipPath>
<clipPath id="clip1_0_39">
<rect width="3277" height="5877" fill="white"/>
</clipPath>
<clipPath id="clip2_0_39">
<rect width="2304" height="1096" fill="white" transform="translate(486 4781)"/>
</clipPath>
<clipPath id="clip3_0_39">
<rect width="2304" height="205" fill="white" transform="translate(486 5654)"/>
</clipPath>
<clipPath id="clip4_0_39">
<rect width="5454" height="3277" fill="white" transform="matrix(0 1 -1 0 3277 0)"/>
</clipPath>
</defs>
</svg>
