<?xml version="1.0" encoding="UTF-8"?>
<svg data-bbox="0 0 3863.88 2245" xmlns="http://www.w3.org/2000/svg" viewBox="0 0 3864 2207" height="2207" width="3864" data-type="ugc">
    <g>
        <g clip-path="url(#3607425a-4cc3-400d-a68d-f35ec87dfd68)">
            <g filter="url(#eb4b37dc-bd07-4753-8522-d3a509245425)">
                <path fill="#333333" d="M3371 2204.8H492.875L0 2206.47l471.358-39.89v-23.89H3396.23l-.56 24.16 468.21 39.62z" clip-rule="evenodd" fill-rule="evenodd"/>
            </g>
            <g clip-path="url(#2a06451c-487c-48fc-806d-099f6c8f1fcc)">
                <g clip-path="url(#4872a4a8-a058-4938-8066-7d769f4317cd)">
                    <g filter="url(#b9e1674d-2857-4c36-ac1f-d58e0e52c3fe)">
                        <path fill="#1E1E1E" d="M3587 1814v299a5 5 0 0 1-5 5H292a5 5 0 0 1-5-5v-299a5 5 0 0 1 5-5h3290a5 5 0 0 1 5 5"/>
                    </g>
                    <g clip-path="url(#14cfba81-7af9-4a1b-bdd0-1d52b18de2f0)">
                        <path fill="url(#76f1e3db-f3a9-45f2-afc3-bce02c4aafab)" d="M3590 55v1979c0 30.376-24.624 55-55 55H337c-30.376 0-55-24.624-55-55V55c0-30.376 24.624-55 55-55h3198c30.376 0 55 24.624 55 55"/>
                        <mask height="2089" width="3308" y="0" x="282" maskUnits="userSpaceOnUse" style="mask-type:luminance" id="050a0df3-1a5a-4304-b035-1bc38c83341a" fill="none">
                            <path fill="#ffffff" d="M3590 55v1979c0 30.376-24.624 55-55 55H337c-30.376 0-55-24.624-55-55V55c0-30.376 24.624-55 55-55h3198c30.376 0 55 24.624 55 55"/>
                        </mask>
                        <g mask="url(#050a0df3-1a5a-4304-b035-1bc38c83341a)">
                            <g filter="url(#7ecf461a-01a8-435d-8059-7be7b7ed7e08)">
                                <path fill="#282828" d="M3661 2032v213H234v-213z"/>
                            </g>
                            <path stroke-width="4" stroke="#2D2D2D" fill="url(#8c7bb6f6-8b7f-4cd1-a348-24c5609a3414)" d="M551 1979.5c0 10.217-8.283 18.5-18.5 18.5s-18.5-8.283-18.5-18.5 8.283-18.5 18.5-18.5 18.5 8.283 18.5 18.5z"/>
                            <g filter="url(#f476d6a8-7f5d-40fb-8123-0c412ac5ec7d)">
                                <path fill="url(#2dcec744-fd45-4c21-8740-8cc21d09f06d)" d="m1922.87 1938.86-2.76-1.86c-3.87 2.54-7.72 5.09-11.58 7.63-7.27 4.82-14.55 9.63-21.9 14.36-2.65-8.2-8.36-14.79-16.41-17.35-5.69-1.81-12.73-1.58-20.02-1.33-4.4.15-8.88.3-13.2 0v55.25c4.42-.21 8.82-.09 13.08.04 4.59.13 9.02.26 13.16-.04 12.79-.94 20.52-8.9 23.78-19.48 5.48 3.67 10.87 7.43 16.27 11.19 5.65 3.95 11.31 7.89 17.07 11.73 3.71-2.42 7.44-4.91 11.18-7.39 7.16-4.77 14.33-9.54 21.4-13.94v17.89h36.57v-17.62c-2.16-.04-4.38-.02-6.59 0-3.61.03-7.21.06-10.6-.14v-37.49h-19.38v18.81c-2.41 1.57-4.8 3.15-7.19 4.72-6.4 4.21-12.8 8.42-19.31 12.51-.51-.34-1.04-.66-1.58-.98-.93-.56-1.87-1.12-2.69-1.81 3.67-2.42 7.29-4.89 10.92-7.35 4.94-3.37 9.89-6.74 14.93-10-3.61-2.79-7.46-5.34-11.37-7.82a6259 6259 0 0 1-26.24 17.09c-.66-.51-1.36-.98-2.07-1.46-.7-.47-1.4-.94-2.06-1.45 3.61-2.36 7.2-4.74 10.79-7.12 5.04-3.34 10.08-6.69 15.19-9.97-3-2.34-6.19-4.48-9.39-6.62m-67.39 39.08v-19.88c-.01-.18-.02-.37.13-.39 5.6-.37 9.63.22 12.02 3.04 3.58 4.23 2.76 12.17-1.29 15.37-2.46 1.94-5.56 1.91-9.53 1.87-.43-.01-.87-.01-1.33-.01m158.46-37.63h-19.39c-.15.02-.14.21-.13.4v54.85H2031v-17.62h-17.06z" clip-rule="evenodd" fill-rule="evenodd"/>
                            </g>
                        </g>
                    </g>
                    <g clip-path="url(#b2d46458-1cd5-4631-b099-f089dbd6ff60)">
                        <g filter="url(#b00d2213-4b4a-4a3d-a1f6-817ad6c4ae30)">
                            <path fill="url(#34b5624d-cfbb-4fbd-94b5-7a37e5e370f3)" d="M336.998 0C306.623 0 282 24.626 282 55.003V2034c0 30.38 24.623 55 54.998 55H3535c30.38 0 55-24.63 55-55V55.003C3590 24.617 3565.38 0 3535 0zM299 2034V55.003C299 34.013 316.012 17 336.998 17H3535c20.99 0 38 17.009 38 38.003V2034c0 20.99-17.01 38-38 38H336.998c-20.989 0-37.998-17.01-37.998-38" clip-rule="evenodd" fill-rule="evenodd"/>
                        </g>
                        <g filter="url(#ebbbf8c3-9cbf-40df-b8a7-6985f0786fed)">
                            <path fill-opacity=".01" fill="url(#b748a242-3789-4608-8dee-96f6b2279ddf)" d="M3590 55v1979c0 30.376-24.624 55-55 55H337c-30.376 0-55-24.624-55-55V55c0-30.376 24.624-55 55-55h3198c30.376 0 55 24.624 55 55"/>
                        </g>
                    </g>
                </g>
                <g clip-path="url(#043dfc89-ed78-4646-9630-8df4967abd37)">
                    <g clip-path="url(#f7a2ad58-9f56-4ede-bb48-ec1039acd4c2)">
                        <g filter="url(#9e495440-04fc-4559-a805-fa2b18a0e123)">
                            <path fill="url(#8ab923ff-df5d-4c72-851a-98c21e2f32a2)" d="m413 2183.37 55.804 20.55c.553.2 1.138.31 1.728.31H3407.01c.75 0 1.49-.17 2.16-.5l43.17-20.69z" clip-rule="evenodd" fill-rule="evenodd"/>
                        </g>
                        <mask height="22" width="3040" y="2183" x="413" maskUnits="userSpaceOnUse" style="mask-type:luminance" id="ce6dd9f0-1032-475c-83fe-91b74e5b6e79" fill="none">
                            <path fill="#ffffff" d="m413 2183.37 55.804 20.55c.553.2 1.138.31 1.728.31H3407.01c.75 0 1.49-.17 2.16-.5l43.17-20.69z" clip-rule="evenodd" fill-rule="evenodd"/>
                        </mask>
                        <g mask="url(#ce6dd9f0-1032-475c-83fe-91b74e5b6e79)">
                            <path fill="#2A2A2A" opacity=".4" d="M3452 2196v8H451v-8z"/>
                            <path fill="url(#3f15025d-8349-49e0-a8db-656da4d83cab)" opacity=".4" d="M3452 2200v8H451v-8z"/>
                        </g>
                    </g>
                    <g filter="url(#57a326ef-d99b-4813-bbb1-a9a6ad03e008)">
                        <path fill="url(#50cbba9d-7064-4f17-af1f-7341642e3fc1)" d="M3843.17 2132.08c2.96.01 3.9 3.33 1.22 4.59-28.46 13.32-133.85 51.39-409.53 51.39H3052v-.06H790.195v-.05h-352.25C108.148 2187.95 20 2132.81 20 2132.81l770.195-4.29v-.52H3190.2v.71z" clip-rule="evenodd" fill-rule="evenodd"/>
                        <path fill="url(#2b606e48-f086-4cce-a9c5-4978569b9e06)" d="M3843.17 2132.08c2.96.01 3.9 3.33 1.22 4.59-28.46 13.32-133.85 51.39-409.53 51.39H3052v-.06H790.195v-.05h-352.25C108.148 2187.95 20 2132.81 20 2132.81l770.195-4.29v-.52H3190.2v.71z" clip-rule="evenodd" fill-rule="evenodd"/>
                    </g>
                    <mask height="61" width="3826" y="2128" x="20" maskUnits="userSpaceOnUse" style="mask-type:luminance" id="90af2320-2a7c-4b01-949f-f07ad03379be" fill="none">
                        <path fill="#ffffff" d="M3843.17 2132.08c2.96.01 3.9 3.33 1.22 4.59-28.46 13.32-133.85 51.39-409.53 51.39H3052v-.06H790.195v-.05h-352.25C108.148 2187.95 20 2132.81 20 2132.81l770.195-4.29v-.52H3190.2v.71z" clip-rule="evenodd" fill-rule="evenodd"/>
                    </mask>
                    <g mask="url(#90af2320-2a7c-4b01-949f-f07ad03379be)">
                        <g filter="url(#c5ac0712-fa12-4678-9571-574b8804133f)">
                            <path fill="url(#f9949b58-2e87-4e97-b86e-ee8efbfa2c17)" d="M1207 2164.5c0 3.59-11.417 6.5-25.5 6.5s-25.5-2.91-25.5-6.5 11.417-6.5 25.5-6.5 25.5 2.91 25.5 6.5"/>
                        </g>
                        <g filter="url(#1c012f82-1a05-4dd6-9e1c-310e4a453cc8)">
                            <path fill="url(#aa76b31c-34ea-461b-919f-88be6c5626bd)" d="M163 2164.5c0 3.59-11.417 6.5-25.5 6.5s-25.5-2.91-25.5-6.5 11.417-6.5 25.5-6.5 25.5 2.91 25.5 6.5"/>
                        </g>
                        <g filter="url(#214561f4-6350-4dfc-b68a-de367f3b61de)">
                            <path fill="url(#4b2f1860-ceff-446a-85fe-fa754b2f809b)" d="M3765 2164.5c0 3.59-11.417 6.5-25.5 6.5s-25.5-2.91-25.5-6.5 11.417-6.5 25.5-6.5 25.5 2.91 25.5 6.5"/>
                        </g>
                        <g filter="url(#32e2d23b-104a-4f17-b70a-1df6bcde4153)">
                            <path fill="url(#eba4641e-84f9-4c4e-8db8-a9921ea76ef3)" d="M2714 2164.5c0 3.59-11.417 6.5-25.5 6.5s-25.5-2.91-25.5-6.5 11.417-6.5 25.5-6.5 25.5 2.91 25.5 6.5"/>
                        </g>
                        <g filter="url(#9f1ddec4-67c4-4c71-9d47-9a1aa51abb1d)" opacity=".4">
                            <path fill="#D8D8D8" d="M245 2181h3398v7H245z" clip-rule="evenodd" fill-rule="evenodd"/>
                        </g>
                    </g>
                    <g clip-path="url(#bfb07799-1dfa-4c8e-867a-41b0d342a689)">
                        <g filter="url(#f9916d59-25fa-4453-862f-12fa0234c667)">
                            <path fill="url(#7288f3c8-602e-4eac-8d41-d269cfa4efc4)" d="M19 2082c0-3.31 2.686-6 6-6h3822c3.31 0 6 2.69 6 6v25H19z"/>
                            <path fill="url(#f93ef194-e151-40d2-b476-9e9fc462da8f)" d="M19 2082c0-3.31 2.686-6 6-6h3822c3.31 0 6 2.69 6 6v25H19z"/>
                            <path fill="url(#d8e15b4a-67bc-4e19-81a2-40be047e92e8)" d="M19 2082c0-3.31 2.686-6 6-6h3822c3.31 0 6 2.69 6 6v25H19z"/>
                        </g>
                        <path fill="#1B1B1B" d="M1481 2107h18c0-7.18-4.03-13-9-13s-9 5.82-9 13" clip-rule="evenodd" fill-rule="evenodd"/>
                        <path fill="#1B1B1B" d="M2365 2107h18c0-7.18-4.03-13-9-13s-9 5.82-9 13" clip-rule="evenodd" fill-rule="evenodd"/>
                    </g>
                    <g clip-path="url(#61f67797-5211-4a08-b111-e24d18c58d44)">
                        <g filter="url(#cc7562d2-fcdf-499f-8033-0132b11649a7)">
                            <path fill="#C2C2C2" d="M19 2130a4 4 0 0 0 4 4h3826c2.21 0 4-1.79 4-4v-23H19z"/>
                            <path fill="url(#00febbdb-3e0c-4ab3-b11a-14a29372fa04)" d="M19 2130a4 4 0 0 0 4 4h3826c2.21 0 4-1.79 4-4v-23H19z"/>
                            <path fill="url(#ebbf174c-b3e8-4d58-84df-74c72d719614)" d="M19 2130a4 4 0 0 0 4 4h3826c2.21 0 4-1.79 4-4v-23H19z"/>
                            <path fill="url(#cf799d20-6bb2-4ff7-a9b2-5314a4789f98)" d="M19 2130a4 4 0 0 0 4 4h3826c2.21 0 4-1.79 4-4v-23H19z"/>
                            <path fill="url(#0e6533a1-718a-4ecf-a4b4-3dbcbeac13a3)" d="M19 2130a4 4 0 0 0 4 4h3826c2.21 0 4-1.79 4-4v-23H19z"/>
                            <path fill="url(#ab6a8421-0005-4ead-ac56-93589f620290)" d="M19 2130a4 4 0 0 0 4 4h3826c2.21 0 4-1.79 4-4v-23H19z"/>
                        </g>
                        <g filter="url(#62691e32-b3c8-4580-9c2a-a519dc76cebc)">
                            <path fill="#AFAFAF" d="M1854 2107v7c0 3.87 3.13 7 7 7h150c3.87 0 7-3.13 7-7v-7z" clip-rule="evenodd" fill-rule="evenodd"/>
                        </g>
                    </g>
                </g>
            </g>
            <path fill="#1D2129" opacity=".9" d="M3536 60v1800H336V60z"/>
        </g>
        <defs fill="none">
            <filter color-interpolation-filters="sRGB" filterUnits="userSpaceOnUse" height="109.983" width="3910.07" y="2119.59" x="-23.099" id="eb4b37dc-bd07-4753-8522-d3a509245425">
                <feFlood result="BackgroundImageFix" flood-opacity="0"/>
                <feBlend result="shape" in2="BackgroundImageFix" in="SourceGraphic"/>
                <feGaussianBlur result="effect1_foregroundBlur_0_2" stdDeviation="11.55"/>
            </filter>
            <filter color-interpolation-filters="sRGB" filterUnits="userSpaceOnUse" height="314.437" width="3305.44" y="1806.28" x="284.282" id="b9e1674d-2857-4c36-ac1f-d58e0e52c3fe">
                <feFlood result="BackgroundImageFix" flood-opacity="0"/>
                <feBlend result="shape" in2="BackgroundImageFix" in="SourceGraphic"/>
                <feGaussianBlur result="effect1_foregroundBlur_0_2" stdDeviation="1.359"/>
            </filter>
            <filter color-interpolation-filters="sRGB" filterUnits="userSpaceOnUse" height="376.097" width="3590.1" y="1950.45" x="152.452" id="7ecf461a-01a8-435d-8059-7be7b7ed7e08">
                <feFlood result="BackgroundImageFix" flood-opacity="0"/>
                <feBlend result="shape" in2="BackgroundImageFix" in="SourceGraphic"/>
                <feGaussianBlur result="effect1_foregroundBlur_0_2" stdDeviation="40.774"/>
            </filter>
            <filter color-interpolation-filters="sRGB" filterUnits="userSpaceOnUse" height="66" width="198" y="1937" x="1835" id="f476d6a8-7f5d-40fb-8123-0c412ac5ec7d">
                <feFlood result="BackgroundImageFix" flood-opacity="0"/>
                <feColorMatrix result="hardAlpha" values="0 0 0 0 0 0 0 0 0 0 0 0 0 0 0 0 0 0 127 0" in="SourceAlpha"/>
                <feOffset dy="2"/>
                <feGaussianBlur stdDeviation="1"/>
                <feColorMatrix values="0 0 0 0 0 0 0 0 0 0 0 0 0 0 0 0 0 0 0.499066 0"/>
                <feBlend result="effect1_dropShadow_0_2" in2="BackgroundImageFix"/>
                <feBlend result="shape" in2="effect1_dropShadow_0_2" in="SourceGraphic"/>
            </filter>
            <filter color-interpolation-filters="sRGB" filterUnits="userSpaceOnUse" height="2093" width="3312" y="0" x="280" id="b00d2213-4b4a-4a3d-a1f6-817ad6c4ae30">
                <feFlood result="BackgroundImageFix" flood-opacity="0"/>
                <feColorMatrix result="hardAlpha" values="0 0 0 0 0 0 0 0 0 0 0 0 0 0 0 0 0 0 127 0" in="SourceAlpha"/>
                <feOffset dy="2"/>
                <feGaussianBlur stdDeviation="1"/>
                <feColorMatrix values="0 0 0 0 0 0 0 0 0 0 0 0 0 0 0 0 0 0 0.1 0"/>
                <feBlend result="effect1_dropShadow_0_2" in2="BackgroundImageFix"/>
                <feBlend result="shape" in2="effect1_dropShadow_0_2" in="SourceGraphic"/>
                <feColorMatrix result="hardAlpha" values="0 0 0 0 0 0 0 0 0 0 0 0 0 0 0 0 0 0 127 0" in="SourceAlpha"/>
                <feOffset/>
                <feGaussianBlur stdDeviation="2"/>
                <feComposite k3="1" k2="-1" operator="arithmetic" in2="hardAlpha"/>
                <feColorMatrix values="0 0 0 0 0 0 0 0 0 0 0 0 0 0 0 0 0 0 0.49 0"/>
                <feBlend result="effect2_innerShadow_0_2" in2="shape"/>
            </filter>
            <filter color-interpolation-filters="sRGB" filterUnits="userSpaceOnUse" height="2091" width="3308" y="0" x="282" id="ebbbf8c3-9cbf-40df-b8a7-6985f0786fed">
                <feFlood result="BackgroundImageFix" flood-opacity="0"/>
                <feBlend result="shape" in2="BackgroundImageFix" in="SourceGraphic"/>
                <feColorMatrix result="hardAlpha" values="0 0 0 0 0 0 0 0 0 0 0 0 0 0 0 0 0 0 127 0" in="SourceAlpha"/>
                <feMorphology result="effect1_innerShadow_0_2" in="SourceAlpha" radius="3"/>
                <feOffset/>
                <feGaussianBlur stdDeviation="1"/>
                <feComposite k3="1" k2="-1" operator="arithmetic" in2="hardAlpha"/>
                <feColorMatrix values="0 0 0 0 0.215686 0 0 0 0 0.215686 0 0 0 0 0.215686 0 0 0 1 0"/>
                <feBlend result="effect1_innerShadow_0_2" in2="shape"/>
                <feColorMatrix result="hardAlpha" values="0 0 0 0 0 0 0 0 0 0 0 0 0 0 0 0 0 0 127 0" in="SourceAlpha"/>
                <feOffset dy="9"/>
                <feGaussianBlur stdDeviation="1"/>
                <feComposite k3="1" k2="-1" operator="arithmetic" in2="hardAlpha"/>
                <feColorMatrix values="0 0 0 0 0.360784 0 0 0 0 0.360784 0 0 0 0 0.360784 0 0 0 1 0"/>
                <feBlend result="effect2_innerShadow_0_2" in2="effect1_innerShadow_0_2"/>
            </filter>
            <filter color-interpolation-filters="sRGB" filterUnits="userSpaceOnUse" height="24.191" width="3039.34" y="2183.04" x="413" id="9e495440-04fc-4559-a805-fa2b18a0e123">
                <feFlood result="BackgroundImageFix" flood-opacity="0"/>
                <feBlend result="shape" in2="BackgroundImageFix" in="SourceGraphic"/>
                <feColorMatrix result="hardAlpha" values="0 0 0 0 0 0 0 0 0 0 0 0 0 0 0 0 0 0 127 0" in="SourceAlpha"/>
                <feOffset dy="7"/>
                <feGaussianBlur stdDeviation="1.5"/>
                <feComposite k3="1" k2="-1" operator="arithmetic" in2="hardAlpha"/>
                <feColorMatrix values="0 0 0 0 0 0 0 0 0 0 0 0 0 0 0 0 0 0 0.3 0"/>
                <feBlend result="effect1_innerShadow_0_2" in2="shape"/>
            </filter>
            <filter color-interpolation-filters="sRGB" filterUnits="userSpaceOnUse" height="63.056" width="3825.97" y="2125" x="20" id="57a326ef-d99b-4813-bbb1-a9a6ad03e008">
                <feFlood result="BackgroundImageFix" flood-opacity="0"/>
                <feBlend result="shape" in2="BackgroundImageFix" in="SourceGraphic"/>
                <feColorMatrix result="hardAlpha" values="0 0 0 0 0 0 0 0 0 0 0 0 0 0 0 0 0 0 127 0" in="SourceAlpha"/>
                <feOffset dy="-3"/>
                <feGaussianBlur stdDeviation="10"/>
                <feComposite k3="1" k2="-1" operator="arithmetic" in2="hardAlpha"/>
                <feColorMatrix values="0 0 0 0 0 0 0 0 0 0 0 0 0 0 0 0 0 0 0.5 0"/>
                <feBlend result="effect1_innerShadow_0_2" in2="shape"/>
            </filter>
            <filter color-interpolation-filters="sRGB" filterUnits="userSpaceOnUse" height="18.437" width="56.437" y="2155.28" x="1153.28" id="c5ac0712-fa12-4678-9571-574b8804133f">
                <feFlood result="BackgroundImageFix" flood-opacity="0"/>
                <feBlend result="shape" in2="BackgroundImageFix" in="SourceGraphic"/>
                <feGaussianBlur result="effect1_foregroundBlur_0_2" stdDeviation="1.359"/>
            </filter>
            <filter color-interpolation-filters="sRGB" filterUnits="userSpaceOnUse" height="18.437" width="56.437" y="2155.28" x="109.282" id="1c012f82-1a05-4dd6-9e1c-310e4a453cc8">
                <feFlood result="BackgroundImageFix" flood-opacity="0"/>
                <feBlend result="shape" in2="BackgroundImageFix" in="SourceGraphic"/>
                <feGaussianBlur result="effect1_foregroundBlur_0_2" stdDeviation="1.359"/>
            </filter>
            <filter color-interpolation-filters="sRGB" filterUnits="userSpaceOnUse" height="18.437" width="56.437" y="2155.28" x="3711.28" id="214561f4-6350-4dfc-b68a-de367f3b61de">
                <feFlood result="BackgroundImageFix" flood-opacity="0"/>
                <feBlend result="shape" in2="BackgroundImageFix" in="SourceGraphic"/>
                <feGaussianBlur result="effect1_foregroundBlur_0_2" stdDeviation="1.359"/>
            </filter>
            <filter color-interpolation-filters="sRGB" filterUnits="userSpaceOnUse" height="18.437" width="56.437" y="2155.28" x="2660.28" id="32e2d23b-104a-4f17-b70a-1df6bcde4153">
                <feFlood result="BackgroundImageFix" flood-opacity="0"/>
                <feBlend result="shape" in2="BackgroundImageFix" in="SourceGraphic"/>
                <feGaussianBlur result="effect1_foregroundBlur_0_2" stdDeviation="1.359"/>
            </filter>
            <filter color-interpolation-filters="sRGB" filterUnits="userSpaceOnUse" height="12.437" width="3403.44" y="2178.28" x="242.282" id="9f1ddec4-67c4-4c71-9d47-9a1aa51abb1d">
                <feFlood result="BackgroundImageFix" flood-opacity="0"/>
                <feBlend result="shape" in2="BackgroundImageFix" in="SourceGraphic"/>
                <feGaussianBlur result="effect1_foregroundBlur_0_2" stdDeviation="1.359"/>
            </filter>
            <filter color-interpolation-filters="sRGB" filterUnits="userSpaceOnUse" height="32" width="3834" y="2076" x="19" id="f9916d59-25fa-4453-862f-12fa0234c667">
                <feFlood result="BackgroundImageFix" flood-opacity="0"/>
                <feBlend result="shape" in2="BackgroundImageFix" in="SourceGraphic"/>
                <feColorMatrix result="hardAlpha" values="0 0 0 0 0 0 0 0 0 0 0 0 0 0 0 0 0 0 127 0" in="SourceAlpha"/>
                <feMorphology result="effect1_innerShadow_0_2" in="SourceAlpha" radius="3"/>
                <feOffset dy="1"/>
                <feGaussianBlur stdDeviation="3"/>
                <feComposite k3="1" k2="-1" operator="arithmetic" in2="hardAlpha"/>
                <feColorMatrix values="0 0 0 0 0 0 0 0 0 0 0 0 0 0 0 0 0 0 0.3 0"/>
                <feBlend result="effect1_innerShadow_0_2" in2="shape"/>
            </filter>
            <filter color-interpolation-filters="sRGB" filterUnits="userSpaceOnUse" height="30" width="3834" y="2106" x="19" id="cc7562d2-fcdf-499f-8033-0132b11649a7">
                <feFlood result="BackgroundImageFix" flood-opacity="0"/>
                <feBlend result="shape" in2="BackgroundImageFix" in="SourceGraphic"/>
                <feColorMatrix result="hardAlpha" values="0 0 0 0 0 0 0 0 0 0 0 0 0 0 0 0 0 0 127 0" in="SourceAlpha"/>
                <feOffset dy="-3"/>
                <feGaussianBlur stdDeviation=".5"/>
                <feComposite k3="1" k2="-1" operator="arithmetic" in2="hardAlpha"/>
                <feColorMatrix values="0 0 0 0 0 0 0 0 0 0 0 0 0 0 0 0 0 0 0.3 0"/>
                <feBlend result="effect1_innerShadow_0_2" in2="shape"/>
                <feColorMatrix result="hardAlpha" values="0 0 0 0 0 0 0 0 0 0 0 0 0 0 0 0 0 0 127 0" in="SourceAlpha"/>
                <feOffset dy="6"/>
                <feGaussianBlur stdDeviation="1"/>
                <feComposite k3="1" k2="-1" operator="arithmetic" in2="hardAlpha"/>
                <feColorMatrix values="0 0 0 0 0 0 0 0 0 0 0 0 0 0 0 0 0 0 0.3 0"/>
                <feBlend result="effect2_innerShadow_0_2" in2="effect1_innerShadow_0_2"/>
            </filter>
            <filter color-interpolation-filters="sRGB" filterUnits="userSpaceOnUse" height="14" width="164" y="2107" x="1854" id="62691e32-b3c8-4580-9c2a-a519dc76cebc">
                <feFlood result="BackgroundImageFix" flood-opacity="0"/>
                <feBlend result="shape" in2="BackgroundImageFix" in="SourceGraphic"/>
                <feColorMatrix result="hardAlpha" values="0 0 0 0 0 0 0 0 0 0 0 0 0 0 0 0 0 0 127 0" in="SourceAlpha"/>
                <feOffset dy="3"/>
                <feComposite k3="1" k2="-1" operator="arithmetic" in2="hardAlpha"/>
                <feColorMatrix values="0 0 0 0 0 0 0 0 0 0 0 0 0 0 0 0 0 0 0.1 0"/>
                <feBlend result="effect1_innerShadow_0_2" in2="shape"/>
            </filter>
            <linearGradient gradientUnits="userSpaceOnUse" y2="1999" x2="1837" y1="1937" x1="1837" id="2dcec744-fd45-4c21-8740-8cc21d09f06d">
                <stop stop-color="#BDBDBD"/>
                <stop stop-color="#B4B4B4" offset="1"/>
            </linearGradient>
            <linearGradient gradientUnits="userSpaceOnUse" y2="1853.96" x2="1189.56" y1="-502.214" x1="1931.46" id="34b5624d-cfbb-4fbd-94b5-7a37e5e370f3">
                <stop stop-color="#4B4B4B"/>
                <stop stop-color="#343434" offset="1"/>
            </linearGradient>
            <linearGradient gradientUnits="userSpaceOnUse" y2="2198" x2="472.168" y1="2198" x1="3410.43" id="3f15025d-8349-49e0-a8db-656da4d83cab">
                <stop stop-color="#292929"/>
                <stop stop-color="#4E4E4E" offset=".631"/>
                <stop stop-color="#2D2D2D" offset="1"/>
            </linearGradient>
            <linearGradient gradientUnits="userSpaceOnUse" y2="2188.06" x2="20" y1="2128" x1="20" id="50cbba9d-7064-4f17-af1f-7341642e3fc1">
                <stop stop-color="#D8D8D8"/>
                <stop stop-color="#646464" offset="1"/>
            </linearGradient>
            <linearGradient gradientUnits="userSpaceOnUse" y2="2107" x2="19" y1="2076" x1="19" id="7288f3c8-602e-4eac-8d41-d269cfa4efc4">
                <stop stop-color="#2A2A2A"/>
                <stop stop-color="#383838" offset="1"/>
            </linearGradient>
            <linearGradient gradientUnits="userSpaceOnUse" y2="2090.21" x2="12.001" y1="2090.21" x1="331.398" id="f93ef194-e151-40d2-b476-9e9fc462da8f">
                <stop stop-opacity=".01" stop-color="#414141"/>
                <stop stop-opacity=".3" stop-color="#6D6D6D" offset=".855"/>
                <stop stop-color="#6D6D6D" offset=".917"/>
                <stop stop-opacity=".01" stop-color="#3D3D3D" offset="1"/>
            </linearGradient>
            <linearGradient gradientUnits="userSpaceOnUse" y2="2090.69" x2="3657.94" y1="2090.69" x1="3858.38" id="d8e15b4a-67bc-4e19-81a2-40be047e92e8">
                <stop stop-opacity=".01" stop-color="#2F2F2F"/>
                <stop stop-color="#6C6C6C" offset=".145"/>
                <stop stop-opacity=".5" stop-color="#6B6B6B" offset=".269"/>
                <stop stop-opacity=".01" stop-color="#343434" offset="1"/>
            </linearGradient>
            <linearGradient gradientUnits="userSpaceOnUse" y2="2121.19" x2="12.001" y1="2121.19" x1="208.27" id="00febbdb-3e0c-4ab3-b11a-14a29372fa04">
                <stop stop-opacity=".01" stop-color="#414141"/>
                <stop stop-color="#5E5E5E" offset=".917"/>
                <stop stop-opacity=".01" stop-color="#3D3D3D" offset="1"/>
            </linearGradient>
            <linearGradient gradientUnits="userSpaceOnUse" y2="2121.21" x2="3657.94" y1="2121.21" x1="3858.38" id="ebbf174c-b3e8-4d58-84df-74c72d719614">
                <stop stop-color="#5D5D5D"/>
                <stop stop-color="#5D5D5D" offset=".103"/>
                <stop stop-opacity=".01" stop-color="#343434" offset="1"/>
            </linearGradient>
            <linearGradient gradientUnits="userSpaceOnUse" y2="2120.6" x2="27.602" y1="2120.6" x1="57.322" id="cf799d20-6bb2-4ff7-a9b2-5314a4789f98">
                <stop stop-opacity=".01" stop-color="#ffffff"/>
                <stop stop-color="#ffffff" offset=".502"/>
                <stop stop-color="#ffffff" offset=".771"/>
                <stop stop-opacity=".01" stop-color="#ffffff" offset="1"/>
            </linearGradient>
            <linearGradient gradientUnits="userSpaceOnUse" y2="2120.39" x2="3848.39" y1="2120.39" x1="3818.09" id="0e6533a1-718a-4ecf-a4b4-3dbcbeac13a3">
                <stop stop-opacity=".01" stop-color="#ffffff"/>
                <stop stop-color="#ffffff" offset=".54"/>
                <stop stop-color="#ffffff" offset=".832"/>
                <stop stop-opacity=".01" stop-color="#ffffff" offset="1"/>
            </linearGradient>
            <radialGradient gradientTransform="matrix(0 2089 -3308 0 1936 0)" gradientUnits="userSpaceOnUse" r="1" cy="0" cx="0" id="76f1e3db-f3a9-45f2-afc3-bce02c4aafab">
                <stop stop-color="#4E4E4E"/>
                <stop stop-color="#363636" offset="1"/>
            </radialGradient>
            <radialGradient gradientTransform="rotate(90 -723.5 1256)scale(16.5)" gradientUnits="userSpaceOnUse" r="1" cy="0" cx="0" id="8c7bb6f6-8b7f-4cd1-a348-24c5609a3414">
                <stop stop-color="#3F3F3F"/>
                <stop stop-color="#3F3F3F" offset="1"/>
            </radialGradient>
            <radialGradient gradientTransform="matrix(0 2089 -3308 0 1936 0)" gradientUnits="userSpaceOnUse" r="1" cy="0" cx="0" id="b748a242-3789-4608-8dee-96f6b2279ddf">
                <stop stop-color="#4E4E4E"/>
                <stop stop-color="#363636" offset="1"/>
            </radialGradient>
            <radialGradient gradientUnits="userSpaceOnUse" gradientTransform="matrix(914.77 854.465 -122550 6.37812 1932.66 2183.04)" r="1" cy="0" cx="0" id="8ab923ff-df5d-4c72-851a-98c21e2f32a2">
                <stop stop-color="#9B9B9B"/>
                <stop stop-color="#626262" offset="1"/>
            </radialGradient>
            <radialGradient gradientUnits="userSpaceOnUse" gradientTransform="matrix(2015.76 1274.7 -81321 31.5968 1935.69 2128)" r="1" cy="0" cx="0" id="2b606e48-f086-4cce-a9c5-4978569b9e06">
                <stop stop-opacity=".01" stop-color="#ffffff"/>
                <stop stop-opacity=".5" offset="1"/>
            </radialGradient>
            <radialGradient gradientTransform="matrix(0 7.09289 -95.1081 0 1181.5 2163.91)" gradientUnits="userSpaceOnUse" r="1" cy="0" cx="0" id="f9949b58-2e87-4e97-b86e-ee8efbfa2c17">
                <stop stop-color="#2D2D2D"/>
                <stop stop-color="#585858" offset="1"/>
            </radialGradient>
            <radialGradient gradientTransform="matrix(0 7.09289 -95.1081 0 137.5 2163.91)" gradientUnits="userSpaceOnUse" r="1" cy="0" cx="0" id="aa76b31c-34ea-461b-919f-88be6c5626bd">
                <stop stop-color="#2D2D2D"/>
                <stop stop-color="#585858" offset="1"/>
            </radialGradient>
            <radialGradient gradientTransform="matrix(0 7.09289 -95.1081 0 3739.5 2163.91)" gradientUnits="userSpaceOnUse" r="1" cy="0" cx="0" id="4b2f1860-ceff-446a-85fe-fa754b2f809b">
                <stop stop-color="#2D2D2D"/>
                <stop stop-color="#585858" offset="1"/>
            </radialGradient>
            <radialGradient gradientTransform="matrix(0 7.09289 -95.1081 0 2688.5 2163.91)" gradientUnits="userSpaceOnUse" r="1" cy="0" cx="0" id="eba4641e-84f9-4c4e-8db8-a9921ea76ef3">
                <stop stop-color="#2D2D2D"/>
                <stop stop-color="#585858" offset="1"/>
            </radialGradient>
            <radialGradient gradientUnits="userSpaceOnUse" gradientTransform="matrix(308.234 -1421.14 -201802 -2.17066 1936 2120.5)" r="1" cy="0" cx="0" id="ab6a8421-0005-4ead-ac56-93589f620290">
                <stop stop-color="#E4E4E4"/>
                <stop stop-opacity=".01" stop-color="#E4E4E4" offset="1"/>
            </radialGradient>
            <clipPath id="3607425a-4cc3-400d-a68d-f35ec87dfd68">
                <path fill="#ffffff" d="M3864 0v2207H0V0z"/>
            </clipPath>
            <clipPath id="2a06451c-487c-48fc-806d-099f6c8f1fcc">
                <path fill="#ffffff" d="M3853 0v2205H19V0z"/>
            </clipPath>
            <clipPath id="4872a4a8-a058-4938-8066-7d769f4317cd">
                <path fill="#ffffff" d="M3590 0v2118H282V0z"/>
            </clipPath>
            <clipPath id="14cfba81-7af9-4a1b-bdd0-1d52b18de2f0">
                <path fill="#ffffff" d="M3590 0v2089H282V0z"/>
            </clipPath>
            <clipPath id="b2d46458-1cd5-4631-b099-f089dbd6ff60">
                <path fill="#ffffff" d="M3590 0v2089H282V0z"/>
            </clipPath>
            <clipPath id="043dfc89-ed78-4646-9630-8df4967abd37">
                <path fill="#ffffff" d="M3853 2076v129H19v-129z"/>
            </clipPath>
            <clipPath id="f7a2ad58-9f56-4ede-bb48-ec1039acd4c2">
                <path fill="#ffffff" d="M3453 2183v22H413v-22z"/>
            </clipPath>
            <clipPath id="bfb07799-1dfa-4c8e-867a-41b0d342a689">
                <path fill="#ffffff" d="M3853 2076v31H19v-31z"/>
            </clipPath>
            <clipPath id="61f67797-5211-4a08-b111-e24d18c58d44">
                <path fill="#ffffff" d="M3853 2107v27H19v-27z"/>
            </clipPath>
        </defs>
    </g>
</svg>
