<?xml version="1.0" encoding="UTF-8"?>
<svg data-bbox="0 0 5454 4367" xmlns="http://www.w3.org/2000/svg" viewBox="0 0 5454 4367" height="4367" width="5454" data-type="ugc">
    <g>
        <g clip-path="url(#67a74842-e779-4cb9-adbb-565d82c24cd0)">
            <g filter="url(#37309b88-2998-4538-9dc2-359e3e0aacc4)" opacity=".699">
                <path fill="url(#53a72741-0762-4060-a704-373260a38ac7)" d="M1632 4292h2176c26.15 26.89 7.09 72-30.42 72H1662.42c-37.51 0-56.57-45.11-30.42-72" clip-rule="evenodd" fill-rule="evenodd"/>
            </g>
            <g clip-path="url(#113754f4-ea77-4dd2-bba2-25e471976f7a)">
                <g clip-path="url(#06598e4e-75ef-45e5-9395-17255e4bad57)">
                    <g filter="url(#615eb6e4-b756-47e6-9cfa-916c83c63199)">
                        <path fill="url(#f5c930e1-acb6-4ea7-b057-9412f04f8082)" d="M1814 4349h-147v7c0 3.31 32.91 6 73.5 6s73.5-2.69 73.5-6z" clip-rule="evenodd" fill-rule="evenodd"/>
                    </g>
                    <g filter="url(#db562c94-5e42-4594-8d3b-51feca3b2a82)">
                        <path fill="url(#e4b813b6-7641-4b37-b60b-b7f062953b94)" d="M2825 4349h-195v10h.17c2.96 4.46 45.41 8 97.33 8s94.37-3.54 97.33-8h.17z" clip-rule="evenodd" fill-rule="evenodd"/>
                    </g>
                    <g filter="url(#c3b66fd7-53e1-4759-bbd6-fa0c377fe68d)">
                        <path fill="url(#42606abc-5295-468f-bea4-2fa7918a8fef)" d="M3785 4349h-147v7c0 3.31 32.91 6 73.5 6s73.5-2.69 73.5-6z" clip-rule="evenodd" fill-rule="evenodd"/>
                    </g>
                    <g clip-path="url(#d01a5a54-2ce2-4877-a685-c60b43219c56)">
                        <g filter="url(#c2bceeb5-5042-4de1-b105-9b04db7dd43e)">
                            <path fill="url(#06ce0e0f-0f5b-4468-8779-b96febd5a96a)" d="M1602.55 4326.42c-7.63-4.42-26.51-23.4-26.51-27.39s2301.89-3.99 2301.89 0-16.95 21.31-26.42 26.88c-9.46 5.58-60.35 23.09-62.81 23.09H1665.4c-2.27 0-55.21-18.17-62.85-22.58" clip-rule="evenodd" fill-rule="evenodd"/>
                            <path fill="url(#e7656775-d740-4948-971c-b489f35b8f12)" d="M1602.55 4326.42c-7.63-4.42-26.51-23.4-26.51-27.39s2301.89-3.99 2301.89 0-16.95 21.31-26.42 26.88c-9.46 5.58-60.35 23.09-62.81 23.09H1665.4c-2.27 0-55.21-18.17-62.85-22.58" clip-rule="evenodd" fill-rule="evenodd"/>
                        </g>
                        <path fill="url(#dd6d6278-349b-4276-b899-54ee5108751a)" d="M1575.39 4280.1c.05 6.86.02 15.93 0 16.89-.28 14.01 62.21 14.01 100.62 14.01h2101.98c38.41 0 101.34 0 100.71-14-.04-.96.13-13.2 0-16.9-20.06-33.11-62.93-86.28-62.93-86.28-8.01-13.19-54.48-12.99-62.75-13.19 0 0-665.63-17.63-1026.02-17.63-360.27 0-1026.01 17.63-1026.01 17.63-8.28.2-53.93 0-62.76 13.19-20.33 33.54-51.29 67.22-62.84 86.28" clip-rule="evenodd" fill-rule="evenodd"/>
                        <g filter="url(#3b1677e2-9708-4e8f-90b2-fb2d6f4c0076)">
                            <path fill="url(#88e6ba78-8529-4018-b3f7-6cc6c81e8ced)" d="M1576.37 4276.9c-9.97 17.1 58.59 17.1 99.64 17.1h2101.98c41.06 0 110.16 0 99.64-17.1l-61.86-102.08c-8.01-13.19-54.48-12.99-62.75-13.19 0 0-665.63-17.63-1026.02-17.63-360.27 0-1026.01 17.63-1026.01 17.63-8.28.2-53.93 0-62.76 13.19z" clip-rule="evenodd" fill-rule="evenodd"/>
                        </g>
                    </g>
                    <path fill="url(#f7d3f4d3-ed03-42d5-b19d-5373f4dddf22)" d="M2727 4189c193.85 0 351-8.06 351-18s-157.15-18-351-18-351 8.06-351 18 157.15 18 351 18m0-1c189.99 0 344-7.61 344-17s-154.01-17-344-17-344 7.61-344 17 154.01 17 344 17" clip-rule="evenodd" fill-rule="evenodd"/>
                    <path fill="url(#6302af30-502f-48a7-920d-e0e3506912f6)" d="M3030 3271h-606v899c0 1.1.9 2 2 2h602c1.1 0 2-.9 2-2zm-205 6h-196v235c0 48.05 38.95 87 87 87h22c48.05 0 87-38.95 87-87z" clip-rule="evenodd" fill-rule="evenodd"/>
                    <path fill="url(#20a52787-cdd9-4559-869a-f64a2ef5e05c)" d="M2446 3277v895h-2v-895z"/>
                    <path fill="url(#6c273078-7415-4132-a578-6b0fa47fce99)" d="M3010 3277v895h-2v-895z"/>
                </g>
                <g clip-path="url(#9974a653-c077-4e4b-b020-529ce9897e15)">
                    <g filter="url(#5c6ae8a9-8a01-49c2-820a-300c347cf19d)">
                        <path d="M0 97C0 43.428 43.425 0 96.995 0H5357.01c53.56 0 96.99 43.434 96.99 97v3083c0 53.57-43.43 97-96.99 97H96.995C43.428 3277 0 3233.57 0 3180z" clip-rule="evenodd" fill="none"/>
                    </g>
                    <g filter="url(#713bd38c-810a-4bab-9aa1-045ebce02755)">
                        <path fill="url(#e008f763-38a4-4c6b-bbd9-6d0013974977)" d="M19 97v3083c0 43.07 34.92 78 77.995 78H5357.01c43.07 0 77.99-34.92 77.99-78V97c0-43.07-34.92-78-77.99-78H96.995C53.919 19 19 53.922 19 97"/>
                    </g>
                    <g filter="url(#d8f34533-f7d7-4b64-bd5b-08d8968db117)">
                        <path fill="url(#cfa9c4aa-b07e-4c13-a3fd-cf85348e1bd6)" d="M2711.43 3126.37c-1.21-.79-2.42-1.58-3.62-2.37-5.06 3.23-10.11 6.48-15.15 9.73-9.53 6.13-19.05 12.26-28.68 18.29-3.47-10.45-10.95-18.84-21.49-22.11-7.44-2.31-16.67-2.01-26.21-1.69-5.75.18-11.62.37-17.28 0v70.39c5.79-.27 11.54-.1 17.12.05 6.01.17 11.81.34 17.23-.05 16.75-1.2 26.88-11.34 31.14-24.81 7.18 4.67 14.24 9.46 21.3 14.25 7.4 5.03 14.81 10.06 22.36 14.95 4.85-3.09 9.74-6.25 14.63-9.42 9.37-6.07 18.77-12.16 28.01-17.76v22.79h47.89v-22.45c-2.83-.04-5.73-.02-8.64 0-4.71.04-9.43.08-13.87-.17v-47.77h-25.38v23.97c-3.14 2-6.28 4.01-9.41 6.01-8.38 5.37-16.75 10.73-25.28 15.93-.67-.43-1.36-.84-2.06-1.24-1.23-.72-2.45-1.43-3.52-2.3 4.79-3.09 9.54-6.23 14.29-9.38 6.47-4.28 12.95-8.57 19.55-12.73-4.73-3.56-9.77-6.8-14.89-9.96-10.53 6.72-21.11 13.4-31.69 20.09-.88.56-1.77 1.12-2.66 1.68-.87-.66-1.79-1.26-2.71-1.86-.92-.59-1.84-1.19-2.71-1.85 4.73-3.01 9.43-6.04 14.13-9.07 6.6-4.26 13.21-8.52 19.89-12.71-3.93-2.98-8.11-5.7-12.29-8.43m-88.23 49.79v-25.32c-.02-.24-.03-.48.17-.51 7.33-.46 12.61.29 15.73 3.89 4.69 5.38 3.62 15.5-1.69 19.58-3.22 2.47-7.27 2.43-12.47 2.37-.57 0-1.15-.01-1.74-.01m207.46-47.94h-25.38c-.2.03-.18.27-.17.51v69.88H2853v-22.45h-22.34z" clip-rule="evenodd" fill-rule="evenodd"/>
                    </g>
                    <path fill="#3F3F3F" d="M4840 3258v19h-4v-19z"/>
                    <path fill="#3F3F3F" d="M618 3258v19h-4v-19z"/>
                </g>
            </g>
            <path fill="#1D2129" d="M5287 178v2880H167V178z"/>
        </g>
        <defs fill="none">
            <linearGradient gradientUnits="userSpaceOnUse" y2="4328" x2="1579.21" y1="4328" x1="3860.79" id="53a72741-0762-4060-a704-373260a38ac7">
                <stop stop-opacity=".01"/>
                <stop offset=".058"/>
                <stop offset=".939"/>
                <stop stop-opacity=".01" offset="1"/>
            </linearGradient>
            <linearGradient gradientUnits="userSpaceOnUse" y2="4342.5" x2="1667" y1="4342.5" x1="1814" id="f5c930e1-acb6-4ea7-b057-9412f04f8082">
                <stop stop-color="#1D1D1D"/>
                <stop stop-color="#363636" offset=".173"/>
                <stop stop-color="#242424" offset=".306"/>
                <stop stop-color="#474747" offset=".576"/>
                <stop offset="1"/>
            </linearGradient>
            <linearGradient gradientUnits="userSpaceOnUse" y2="4340" x2="2630" y1="4340" x1="2825" id="e4b813b6-7641-4b37-b60b-b7f062953b94">
                <stop stop-color="#1D1D1D"/>
                <stop stop-color="#363636" offset=".173"/>
                <stop stop-color="#242424" offset=".306"/>
                <stop stop-color="#474747" offset=".576"/>
                <stop offset="1"/>
            </linearGradient>
            <linearGradient gradientUnits="userSpaceOnUse" y2="4342.5" x2="3638" y1="4342.5" x1="3785" id="42606abc-5295-468f-bea4-2fa7918a8fef">
                <stop stop-color="#1D1D1D"/>
                <stop stop-color="#363636" offset=".173"/>
                <stop stop-color="#242424" offset=".306"/>
                <stop stop-color="#474747" offset=".576"/>
                <stop offset="1"/>
            </linearGradient>
            <linearGradient gradientUnits="userSpaceOnUse" y2="4348.26" x2="3877.93" y1="4348.26" x1="1640.26" id="06ce0e0f-0f5b-4468-8779-b96febd5a96a">
                <stop stop-color="#2A2A2A"/>
                <stop stop-color="#393939" offset=".499"/>
                <stop stop-color="#2C2C2C" offset="1"/>
            </linearGradient>
            <linearGradient gradientUnits="userSpaceOnUse" y2="4349" x2="2151.51" y1="4322.52" x1="2151.51" id="e7656775-d740-4948-971c-b489f35b8f12">
                <stop stop-opacity=".01"/>
                <stop stop-opacity=".373" offset="1"/>
            </linearGradient>
            <linearGradient gradientUnits="userSpaceOnUse" y2="4180.37" x2="1575.39" y1="4180.37" x1="3878.75" id="dd6d6278-349b-4276-b899-54ee5108751a">
                <stop stop-color="#494949"/>
                <stop stop-color="#E4E4E4" offset=".005"/>
                <stop stop-color="#ffffff" offset=".015"/>
                <stop stop-color="#ECECEC" offset=".026"/>
                <stop stop-color="#9C9C9C" offset=".035"/>
                <stop stop-color="#6C6B6B" offset=".043"/>
                <stop stop-color="#6E6E6E" offset=".05"/>
                <stop stop-color="#868686" offset=".061"/>
                <stop stop-color="#E2E2E2" offset=".096"/>
                <stop stop-color="#E2E2E2" offset=".908"/>
                <stop stop-color="#858585" offset=".941"/>
                <stop stop-color="#777777" offset=".959"/>
                <stop stop-color="#CBCBCB" offset=".972"/>
                <stop stop-color="#ffffff" offset=".984"/>
                <stop stop-color="#E4E4E4" offset=".993"/>
                <stop stop-color="#1C1C1C" offset="1"/>
            </linearGradient>
            <linearGradient gradientUnits="userSpaceOnUse" y2="3019.46" x2="3038.39" y1="4155.91" x1="3970.18" id="88e6ba78-8529-4018-b3f7-6cc6c81e8ced">
                <stop stop-color="#D1D1D1"/>
                <stop stop-color="#F5F5F5" offset=".26"/>
                <stop stop-color="#F4F4F4" offset=".707"/>
                <stop stop-color="#D2D2D2" offset="1"/>
            </linearGradient>
            <linearGradient gradientUnits="userSpaceOnUse" y2="4189" x2="3078" y1="4189" x1="2376" id="f7d3f4d3-ed03-42d5-b19d-5373f4dddf22">
                <stop stop-color="#848484"/>
                <stop stop-color="#DDDDDD" offset=".099"/>
                <stop stop-color="#DDDDDD" offset=".899"/>
                <stop stop-color="#848484" offset="1"/>
            </linearGradient>
            <linearGradient gradientUnits="userSpaceOnUse" y2="4172" x2="2452.38" y1="3355.39" x1="2452.38" id="6302af30-502f-48a7-920d-e0e3506912f6">
                <stop stop-color="#8F8F8F"/>
                <stop stop-color="#BDBDBD" offset=".329"/>
                <stop stop-color="#C9C9C9" offset=".592"/>
                <stop stop-color="#DEDEDE" offset="1"/>
            </linearGradient>
            <linearGradient gradientUnits="userSpaceOnUse" y2="4154.13" x2="2444.02" y1="3277" x1="2444.02" id="20a52787-cdd9-4559-869a-f64a2ef5e05c">
                <stop stop-color="#777777"/>
                <stop stop-color="#D1D1D1" offset="1"/>
            </linearGradient>
            <linearGradient gradientUnits="userSpaceOnUse" y2="4154.13" x2="3008.02" y1="3277" x1="3008.02" id="6c273078-7415-4132-a578-6b0fa47fce99">
                <stop stop-color="#777777"/>
                <stop stop-color="#D1D1D1" offset="1"/>
            </linearGradient>
            <linearGradient gradientUnits="userSpaceOnUse" y2="1584.1" x2="2946.99" y1="-399.895" x1="3241.97" id="e008f763-38a4-4c6b-bbd9-6d0013974977">
                <stop stop-color="#2C2C2C"/>
                <stop stop-color="#1B1B1B" offset="1"/>
            </linearGradient>
            <linearGradient gradientUnits="userSpaceOnUse" y2="3203" x2="2599" y1="3124" x1="2599" id="cfa9c4aa-b07e-4c13-a3fd-cf85348e1bd6">
                <stop stop-color="#B4B4B4"/>
                <stop stop-color="#727272" offset="1"/>
            </linearGradient>
            <filter color-interpolation-filters="sRGB" filterUnits="userSpaceOnUse" height="93.746" width="2221.93" y="4281.13" x="1609.04" id="37309b88-2998-4538-9dc2-359e3e0aacc4">
                <feFlood result="BackgroundImageFix" flood-opacity="0"/>
                <feBlend result="shape" in2="BackgroundImageFix" in="SourceGraphic"/>
                <feGaussianBlur result="effect1_foregroundBlur_0_2" stdDeviation="5.437"/>
            </filter>
            <filter color-interpolation-filters="sRGB" filterUnits="userSpaceOnUse" height="15" width="147" y="4348" x="1667" id="615eb6e4-b756-47e6-9cfa-916c83c63199">
                <feFlood result="BackgroundImageFix" flood-opacity="0"/>
                <feBlend result="shape" in2="BackgroundImageFix" in="SourceGraphic"/>
                <feColorMatrix result="hardAlpha" values="0 0 0 0 0 0 0 0 0 0 0 0 0 0 0 0 0 0 127 0" in="SourceAlpha"/>
                <feOffset dy="1"/>
                <feGaussianBlur stdDeviation="2.5"/>
                <feComposite k3="1" k2="-1" operator="arithmetic" in2="hardAlpha"/>
                <feColorMatrix values="0 0 0 0 1 0 0 0 0 1 0 0 0 0 1 0 0 0 0.231686 0"/>
                <feBlend result="effect1_innerShadow_0_2" in2="shape"/>
                <feColorMatrix result="hardAlpha" values="0 0 0 0 0 0 0 0 0 0 0 0 0 0 0 0 0 0 127 0" in="SourceAlpha"/>
                <feOffset dy="1"/>
                <feGaussianBlur stdDeviation="1.5"/>
                <feComposite k3="1" k2="-1" operator="arithmetic" in2="hardAlpha"/>
                <feColorMatrix values="0 0 0 0 0 0 0 0 0 0 0 0 0 0 0 0 0 0 0.613026 0"/>
                <feBlend result="effect2_innerShadow_0_2" in2="effect1_innerShadow_0_2"/>
                <feColorMatrix result="hardAlpha" values="0 0 0 0 0 0 0 0 0 0 0 0 0 0 0 0 0 0 127 0" in="SourceAlpha"/>
                <feOffset dy="-3"/>
                <feGaussianBlur stdDeviation=".5"/>
                <feComposite k3="1" k2="-1" operator="arithmetic" in2="hardAlpha"/>
                <feColorMatrix values="0 0 0 0 0 0 0 0 0 0 0 0 0 0 0 0 0 0 0.449643 0"/>
                <feBlend result="effect3_innerShadow_0_2" in2="effect2_innerShadow_0_2"/>
            </filter>
            <filter color-interpolation-filters="sRGB" filterUnits="userSpaceOnUse" height="20" width="195" y="4348" x="2630" id="db562c94-5e42-4594-8d3b-51feca3b2a82">
                <feFlood result="BackgroundImageFix" flood-opacity="0"/>
                <feBlend result="shape" in2="BackgroundImageFix" in="SourceGraphic"/>
                <feColorMatrix result="hardAlpha" values="0 0 0 0 0 0 0 0 0 0 0 0 0 0 0 0 0 0 127 0" in="SourceAlpha"/>
                <feOffset dy="1"/>
                <feGaussianBlur stdDeviation="2.5"/>
                <feComposite k3="1" k2="-1" operator="arithmetic" in2="hardAlpha"/>
                <feColorMatrix values="0 0 0 0 1 0 0 0 0 1 0 0 0 0 1 0 0 0 0.231686 0"/>
                <feBlend result="effect1_innerShadow_0_2" in2="shape"/>
                <feColorMatrix result="hardAlpha" values="0 0 0 0 0 0 0 0 0 0 0 0 0 0 0 0 0 0 127 0" in="SourceAlpha"/>
                <feOffset dy="1"/>
                <feGaussianBlur stdDeviation="1.5"/>
                <feComposite k3="1" k2="-1" operator="arithmetic" in2="hardAlpha"/>
                <feColorMatrix values="0 0 0 0 0 0 0 0 0 0 0 0 0 0 0 0 0 0 0.613026 0"/>
                <feBlend result="effect2_innerShadow_0_2" in2="effect1_innerShadow_0_2"/>
                <feColorMatrix result="hardAlpha" values="0 0 0 0 0 0 0 0 0 0 0 0 0 0 0 0 0 0 127 0" in="SourceAlpha"/>
                <feOffset dy="-3"/>
                <feGaussianBlur stdDeviation=".5"/>
                <feComposite k3="1" k2="-1" operator="arithmetic" in2="hardAlpha"/>
                <feColorMatrix values="0 0 0 0 0 0 0 0 0 0 0 0 0 0 0 0 0 0 0.449643 0"/>
                <feBlend result="effect3_innerShadow_0_2" in2="effect2_innerShadow_0_2"/>
            </filter>
            <filter color-interpolation-filters="sRGB" filterUnits="userSpaceOnUse" height="15" width="147" y="4348" x="3638" id="c3b66fd7-53e1-4759-bbd6-fa0c377fe68d">
                <feFlood result="BackgroundImageFix" flood-opacity="0"/>
                <feBlend result="shape" in2="BackgroundImageFix" in="SourceGraphic"/>
                <feColorMatrix result="hardAlpha" values="0 0 0 0 0 0 0 0 0 0 0 0 0 0 0 0 0 0 127 0" in="SourceAlpha"/>
                <feOffset dy="1"/>
                <feGaussianBlur stdDeviation="2.5"/>
                <feComposite k3="1" k2="-1" operator="arithmetic" in2="hardAlpha"/>
                <feColorMatrix values="0 0 0 0 1 0 0 0 0 1 0 0 0 0 1 0 0 0 0.231686 0"/>
                <feBlend result="effect1_innerShadow_0_2" in2="shape"/>
                <feColorMatrix result="hardAlpha" values="0 0 0 0 0 0 0 0 0 0 0 0 0 0 0 0 0 0 127 0" in="SourceAlpha"/>
                <feOffset dy="1"/>
                <feGaussianBlur stdDeviation="1.5"/>
                <feComposite k3="1" k2="-1" operator="arithmetic" in2="hardAlpha"/>
                <feColorMatrix values="0 0 0 0 0 0 0 0 0 0 0 0 0 0 0 0 0 0 0.613026 0"/>
                <feBlend result="effect2_innerShadow_0_2" in2="effect1_innerShadow_0_2"/>
                <feColorMatrix result="hardAlpha" values="0 0 0 0 0 0 0 0 0 0 0 0 0 0 0 0 0 0 127 0" in="SourceAlpha"/>
                <feOffset dy="-3"/>
                <feGaussianBlur stdDeviation=".5"/>
                <feComposite k3="1" k2="-1" operator="arithmetic" in2="hardAlpha"/>
                <feColorMatrix values="0 0 0 0 0 0 0 0 0 0 0 0 0 0 0 0 0 0 0.449643 0"/>
                <feBlend result="effect3_innerShadow_0_2" in2="effect2_innerShadow_0_2"/>
            </filter>
            <filter color-interpolation-filters="sRGB" filterUnits="userSpaceOnUse" height="52.964" width="2313.89" y="4296.04" x="1570.04" id="c2bceeb5-5042-4de1-b105-9b04db7dd43e">
                <feFlood result="BackgroundImageFix" flood-opacity="0"/>
                <feBlend result="shape" in2="BackgroundImageFix" in="SourceGraphic"/>
                <feColorMatrix result="hardAlpha" values="0 0 0 0 0 0 0 0 0 0 0 0 0 0 0 0 0 0 127 0" in="SourceAlpha"/>
                <feOffset dx="10"/>
                <feGaussianBlur stdDeviation="3"/>
                <feComposite k3="1" k2="-1" operator="arithmetic" in2="hardAlpha"/>
                <feColorMatrix values="0 0 0 0 0 0 0 0 0 0 0 0 0 0 0 0 0 0 0.502293 0"/>
                <feBlend result="effect1_innerShadow_0_2" in2="shape"/>
                <feColorMatrix result="hardAlpha" values="0 0 0 0 0 0 0 0 0 0 0 0 0 0 0 0 0 0 127 0" in="SourceAlpha"/>
                <feOffset dx="-10"/>
                <feGaussianBlur stdDeviation="3"/>
                <feComposite k3="1" k2="-1" operator="arithmetic" in2="hardAlpha"/>
                <feColorMatrix values="0 0 0 0 0 0 0 0 0 0 0 0 0 0 0 0 0 0 0.502293 0"/>
                <feBlend result="effect2_innerShadow_0_2" in2="effect1_innerShadow_0_2"/>
            </filter>
            <filter color-interpolation-filters="sRGB" filterUnits="userSpaceOnUse" height="154" width="2305.32" y="4144" x="1574.39" id="3b1677e2-9708-4e8f-90b2-fb2d6f4c0076">
                <feFlood result="BackgroundImageFix" flood-opacity="0"/>
                <feColorMatrix result="hardAlpha" values="0 0 0 0 0 0 0 0 0 0 0 0 0 0 0 0 0 0 127 0" in="SourceAlpha"/>
                <feOffset dy="3"/>
                <feGaussianBlur stdDeviation=".5"/>
                <feColorMatrix values="0 0 0 0 0 0 0 0 0 0 0 0 0 0 0 0 0 0 0.101591 0"/>
                <feBlend result="effect1_dropShadow_0_2" in2="BackgroundImageFix"/>
                <feBlend result="shape" in2="effect1_dropShadow_0_2" in="SourceGraphic"/>
            </filter>
            <filter color-interpolation-filters="sRGB" filterUnits="userSpaceOnUse" height="3277" width="5454" y="0" x="0" id="5c6ae8a9-8a01-49c2-820a-300c347cf19d">
                <feFlood result="BackgroundImageFix" flood-opacity="0"/>
                <feBlend result="shape" in2="BackgroundImageFix" in="SourceGraphic"/>
                <feColorMatrix result="hardAlpha" values="0 0 0 0 0 0 0 0 0 0 0 0 0 0 0 0 0 0 127 0" in="SourceAlpha"/>
                <feOffset/>
                <feGaussianBlur stdDeviation="1"/>
                <feComposite k3="1" k2="-1" operator="arithmetic" in2="hardAlpha"/>
                <feColorMatrix values="0 0 0 0 0 0 0 0 0 0 0 0 0 0 0 0 0 0 0.253255 0"/>
                <feBlend result="effect1_innerShadow_0_2" in2="shape"/>
            </filter>
            <filter color-interpolation-filters="sRGB" filterUnits="userSpaceOnUse" height="3241" width="5418" y="18" x="18" id="713bd38c-810a-4bab-9aa1-045ebce02755">
                <feFlood result="BackgroundImageFix" flood-opacity="0"/>
                <feColorMatrix result="hardAlpha" values="0 0 0 0 0 0 0 0 0 0 0 0 0 0 0 0 0 0 127 0" in="SourceAlpha"/>
                <feOffset/>
                <feGaussianBlur stdDeviation=".5"/>
                <feColorMatrix values="0 0 0 0 0 0 0 0 0 0 0 0 0 0 0 0 0 0 0.247934 0"/>
                <feBlend result="effect1_dropShadow_0_2" in2="BackgroundImageFix"/>
                <feBlend result="shape" in2="effect1_dropShadow_0_2" in="SourceGraphic"/>
                <feColorMatrix result="hardAlpha" values="0 0 0 0 0 0 0 0 0 0 0 0 0 0 0 0 0 0 127 0" in="SourceAlpha"/>
                <feOffset/>
                <feGaussianBlur stdDeviation=".5"/>
                <feComposite k3="1" k2="-1" operator="arithmetic" in2="hardAlpha"/>
                <feColorMatrix values="0 0 0 0 0 0 0 0 0 0 0 0 0 0 0 0 0 0 0.386634 0"/>
                <feBlend result="effect2_innerShadow_0_2" in2="shape"/>
            </filter>
            <filter color-interpolation-filters="sRGB" filterUnits="userSpaceOnUse" height="83" width="258" y="3124" x="2597" id="d8f34533-f7d7-4b64-bd5b-08d8968db117">
                <feFlood result="BackgroundImageFix" flood-opacity="0"/>
                <feColorMatrix result="hardAlpha" values="0 0 0 0 0 0 0 0 0 0 0 0 0 0 0 0 0 0 127 0" in="SourceAlpha"/>
                <feOffset dy="2"/>
                <feGaussianBlur stdDeviation="1"/>
                <feColorMatrix values="0 0 0 0 0 0 0 0 0 0 0 0 0 0 0 0 0 0 0.499066 0"/>
                <feBlend result="effect1_dropShadow_0_2" in2="BackgroundImageFix"/>
                <feBlend result="shape" in2="effect1_dropShadow_0_2" in="SourceGraphic"/>
            </filter>
            <clipPath id="67a74842-e779-4cb9-adbb-565d82c24cd0">
                <path fill="#ffffff" d="M5454 0v4367H0V0z"/>
            </clipPath>
            <clipPath id="113754f4-ea77-4dd2-bba2-25e471976f7a">
                <path fill="#ffffff" d="M5454 0v4367H0V0z"/>
            </clipPath>
            <clipPath id="06598e4e-75ef-45e5-9395-17255e4bad57">
                <path fill="#ffffff" d="M3879 3271v1096H1575V3271z"/>
            </clipPath>
            <clipPath id="d01a5a54-2ce2-4877-a685-c60b43219c56">
                <path fill="#ffffff" d="M3879 4144v205H1575v-205z"/>
            </clipPath>
            <clipPath id="9974a653-c077-4e4b-b020-529ce9897e15">
                <path fill="#ffffff" d="M5454 0v3277H0V0z"/>
            </clipPath>
        </defs>
    </g>
</svg>
