<svg width="4122" height="2408" viewBox="0 0 4122 2408" fill="none" xmlns="http://www.w3.org/2000/svg">
<g clip-path="url(#clip0_0_2)">
<g filter="url(#filter0_f_0_2)">
<path fill-rule="evenodd" clip-rule="evenodd" d="M3597.96 2382.53L2060.69 2384.29L523.416 2382.53L75.2145 2382L56.5994 2386.51C54.0105 2387.14 51.9118 2388.34 51.9118 2389.19L0 2404.46C0 2404.7 0.669682 2405.03 1.53611 2405.18C1.53611 2405.18 12.3824 2407.41 51.9118 2407.41C91.4413 2407.41 2000.95 2407.41 2000.95 2407.41L2060.69 2407.36L2120.42 2407.41C2120.42 2407.41 4029.93 2407.41 4069.46 2407.41C4108.99 2407.41 4119.84 2405.18 4119.84 2405.18C4120.71 2405.03 4121.38 2404.7 4121.38 2404.46L4069.46 2389.19C4069.46 2388.34 4067.36 2387.14 4064.78 2386.51L4046.16 2382L3597.96 2382.53V2382.53Z" fill="#3C3C3C"/>
</g>
<g clip-path="url(#clip1_0_2)">
<g clip-path="url(#clip2_0_2)">
<g clip-path="url(#clip3_0_2)">
<g filter="url(#filter1_i_0_2)">
<path fill-rule="evenodd" clip-rule="evenodd" d="M1988.71 2308.22H496.078C496.078 2308.22 472.757 2310.38 453.842 2295.92C436.666 2282.78 439.697 2278.46 429.105 2278.46C423.891 2278.46 419.832 2283.4 419.832 2294.09V2339.25C419.832 2339.25 417.916 2343.16 417.094 2346.47C416.272 2349.79 416.197 2352.71 416.197 2352.71C416.197 2352.71 412.512 2355.02 410.684 2358.54C408.855 2362.05 408.104 2365.14 406.74 2366.58L398.673 2376.06C398.673 2376.06 430.625 2369.01 446.986 2366.58C463.347 2364.15 2006.76 2363.08 2006.76 2363.08L2006.71 2362.64C2211.04 2362.78 3667.56 2363.86 3682.77 2366.13C3699.13 2368.56 3731.08 2375.61 3731.08 2375.61L3723.02 2366.13C3721.65 2364.68 3720.9 2361.6 3719.07 2358.08C3717.24 2354.57 3713.56 2352.26 3713.56 2352.26C3713.56 2352.26 3713.48 2349.33 3712.66 2346.02C3711.84 2342.7 3709.92 2338.8 3709.92 2338.8V2293.63C3709.92 2282.94 3705.86 2278 3700.65 2278C3690.06 2278 3693.09 2282.33 3675.91 2295.46C3657 2309.92 3633.68 2307.77 3633.68 2307.77H1988.76L1988.71 2308.22V2308.22Z" fill="url(#paint0_linear_0_2)"/>
</g>
</g>
</g>
<g clip-path="url(#clip4_0_2)">
<rect x="15" y="2327" width="4097" height="69" rx="6.5" fill="#D8D8D8"/>
<mask id="mask0_0_2" style="mask-type:luminance" maskUnits="userSpaceOnUse" x="15" y="2327" width="4097" height="69">
<rect x="15" y="2327" width="4097" height="69" rx="6.5" fill="white"/>
</mask>
<g mask="url(#mask0_0_2)">
</g>
<g clip-path="url(#clip5_0_2)">
<path fill-rule="evenodd" clip-rule="evenodd" d="M74.5977 2396.55C28.3594 2396.55 15.8189 2396.38 15.8189 2396.38C14.9472 2395.72 14.2734 2382.22 14.2734 2381.11V2321.76C14.2734 2317.9 17.385 2312.45 19.9897 2309.6L38.7188 2289.12L2052.33 2299.54L4088.2 2289L4106.93 2309.49C4109.54 2312.34 4111.65 2317.79 4111.65 2321.64V2381C4111.65 2382.11 4112.97 2396.6 4112.1 2397.27C4112.1 2397.27 4098.56 2396.44 4052.32 2396.44H2091.92L74.5977 2396.55Z" fill="url(#paint1_linear_0_2)"/>
<mask id="mask1_0_2" style="mask-type:luminance" maskUnits="userSpaceOnUse" x="14" y="2289" width="4099" height="109">
<path fill-rule="evenodd" clip-rule="evenodd" d="M74.5977 2396.55C28.3594 2396.55 15.8189 2396.38 15.8189 2396.38C14.9472 2395.72 14.2734 2382.22 14.2734 2381.11V2321.76C14.2734 2317.9 17.385 2312.45 19.9897 2309.6L38.7188 2289.12L2052.33 2299.54L4088.2 2289L4106.93 2309.49C4109.54 2312.34 4111.65 2317.79 4111.65 2321.64V2381C4111.65 2382.11 4112.97 2396.6 4112.1 2397.27C4112.1 2397.27 4098.56 2396.44 4052.32 2396.44H2091.92L74.5977 2396.55Z" fill="white"/>
</mask>
<g mask="url(#mask1_0_2)">
<g opacity="0.6" filter="url(#filter2_f_0_2)">
<ellipse cx="2066.5" cy="2412.5" rx="1982.5" ry="17.5" fill="#383838"/>
</g>
<g opacity="0.6" filter="url(#filter3_f_0_2)">
<ellipse cx="801" cy="30" rx="801" ry="30" transform="matrix(1 0 0 -1 1265.5 2422.75)" fill="#EBEBEB"/>
</g>
</g>
</g>
<path fill-rule="evenodd" clip-rule="evenodd" d="M433.398 1851L0.758019 2330.38H3851.55C3893.89 2330.38 3966.81 2157.45 3938.81 2125.7C3826.6 1998.45 3709.53 1858.98 3709.53 1858.98L433.398 1851Z" fill="url(#paint2_linear_0_2)"/>
<g filter="url(#filter4_d_0_2)">
<path fill-rule="evenodd" clip-rule="evenodd" d="M2042.28 2322.43H2714.24C2749.6 2322.43 2756.52 2329.84 2756.52 2329.84C2757.93 2330.71 2758.39 2332.72 2757.65 2334.2C2757.65 2334.2 2741.68 2368.68 2719.18 2368.68C2698.79 2368.68 2153.18 2368.68 2050.55 2368.68C2050.55 2368.68 1427.88 2368.68 1405.38 2368.68C1382.87 2368.68 1366.9 2334.2 1366.9 2334.2C1366.16 2332.72 1366.62 2330.71 1368.03 2329.84C1368.03 2329.84 1374.95 2322.43 1410.32 2322.43H2042.28V2322.43Z" fill="url(#paint3_linear_0_2)"/>
</g>
</g>
<g clip-path="url(#clip6_0_2)">
<g filter="url(#filter5_i_0_2)">
<rect x="700" width="122" height="17" rx="3.5" fill="#9C9C99"/>
</g>
<g filter="url(#filter6_i_0_2)">
<rect x="952" width="245" height="17" rx="3.5" fill="#9C9C99"/>
</g>
<g filter="url(#filter7_i_0_2)">
<path fill-rule="evenodd" clip-rule="evenodd" d="M494.009 7C455.347 7 424 38.3445 424 77.0068V2238.99C424 2277.66 455.341 2309 494.009 2309H3635.99C3674.65 2309 3706 2277.66 3706 2238.99V77.0068C3706 38.3354 3674.66 7 3635.99 7H494.009ZM437 2238.99V77.0068C437 45.5228 462.528 20 494.009 20H3635.99C3667.48 20 3693 45.5117 3693 77.0068V2238.99C3693 2270.48 3667.47 2296 3635.99 2296H494.009C462.524 2296 437 2270.49 437 2238.99Z" fill="url(#paint4_linear_0_2)"/>
</g>
<rect x="437" y="20" width="3256" height="2276" rx="57" fill="#080909"/>
</g>
</g>
<rect x="561" y="159" width="3000" height="2000" fill="#1D2129"/>
</g>
<defs>
<filter id="filter0_f_0_2" x="-13.5914" y="2368.41" width="4148.56" height="52.5969" filterUnits="userSpaceOnUse" color-interpolation-filters="sRGB">
<feFlood flood-opacity="0" result="BackgroundImageFix"/>
<feBlend mode="normal" in="SourceGraphic" in2="BackgroundImageFix" result="shape"/>
<feGaussianBlur stdDeviation="6.7957" result="effect1_foregroundBlur_0_2"/>
</filter>
<filter id="filter1_i_0_2" x="398.673" y="2278" width="3332.41" height="99.0647" filterUnits="userSpaceOnUse" color-interpolation-filters="sRGB">
<feFlood flood-opacity="0" result="BackgroundImageFix"/>
<feBlend mode="normal" in="SourceGraphic" in2="BackgroundImageFix" result="shape"/>
<feColorMatrix in="SourceAlpha" type="matrix" values="0 0 0 0 0 0 0 0 0 0 0 0 0 0 0 0 0 0 127 0" result="hardAlpha"/>
<feOffset dy="3"/>
<feGaussianBlur stdDeviation="0.5"/>
<feComposite in2="hardAlpha" operator="arithmetic" k2="-1" k3="1"/>
<feColorMatrix type="matrix" values="0 0 0 0 0 0 0 0 0 0 0 0 0 0 0 0 0 0 0.5 0"/>
<feBlend mode="normal" in2="shape" result="effect1_innerShadow_0_2"/>
</filter>
<filter id="filter2_f_0_2" x="24.9779" y="2335.98" width="4083.04" height="153.044" filterUnits="userSpaceOnUse" color-interpolation-filters="sRGB">
<feFlood flood-opacity="0" result="BackgroundImageFix"/>
<feBlend mode="normal" in="SourceGraphic" in2="BackgroundImageFix" result="shape"/>
<feGaussianBlur stdDeviation="29.511" result="effect1_foregroundBlur_0_2"/>
</filter>
<filter id="filter3_f_0_2" x="1227.44" y="2324.69" width="1678.11" height="136.112" filterUnits="userSpaceOnUse" color-interpolation-filters="sRGB">
<feFlood flood-opacity="0" result="BackgroundImageFix"/>
<feBlend mode="normal" in="SourceGraphic" in2="BackgroundImageFix" result="shape"/>
<feGaussianBlur stdDeviation="19.028" result="effect1_foregroundBlur_0_2"/>
</filter>
<filter id="filter4_d_0_2" x="1364.55" y="2321.43" width="1395.45" height="50.2502" filterUnits="userSpaceOnUse" color-interpolation-filters="sRGB">
<feFlood flood-opacity="0" result="BackgroundImageFix"/>
<feColorMatrix in="SourceAlpha" type="matrix" values="0 0 0 0 0 0 0 0 0 0 0 0 0 0 0 0 0 0 127 0" result="hardAlpha"/>
<feOffset dy="1"/>
<feGaussianBlur stdDeviation="1"/>
<feColorMatrix type="matrix" values="0 0 0 0 0.972549 0 0 0 0 0.972549 0 0 0 0 0.972549 0 0 0 1 0"/>
<feBlend mode="normal" in2="BackgroundImageFix" result="effect1_dropShadow_0_2"/>
<feBlend mode="normal" in="SourceGraphic" in2="effect1_dropShadow_0_2" result="shape"/>
</filter>
<filter id="filter5_i_0_2" x="700" y="0" width="122" height="18" filterUnits="userSpaceOnUse" color-interpolation-filters="sRGB">
<feFlood flood-opacity="0" result="BackgroundImageFix"/>
<feBlend mode="normal" in="SourceGraphic" in2="BackgroundImageFix" result="shape"/>
<feColorMatrix in="SourceAlpha" type="matrix" values="0 0 0 0 0 0 0 0 0 0 0 0 0 0 0 0 0 0 127 0" result="hardAlpha"/>
<feOffset dy="3"/>
<feGaussianBlur stdDeviation="0.5"/>
<feComposite in2="hardAlpha" operator="arithmetic" k2="-1" k3="1"/>
<feColorMatrix type="matrix" values="0 0 0 0 0.941176 0 0 0 0 0.941176 0 0 0 0 0.937255 0 0 0 1 0"/>
<feBlend mode="normal" in2="shape" result="effect1_innerShadow_0_2"/>
</filter>
<filter id="filter6_i_0_2" x="952" y="0" width="245" height="18" filterUnits="userSpaceOnUse" color-interpolation-filters="sRGB">
<feFlood flood-opacity="0" result="BackgroundImageFix"/>
<feBlend mode="normal" in="SourceGraphic" in2="BackgroundImageFix" result="shape"/>
<feColorMatrix in="SourceAlpha" type="matrix" values="0 0 0 0 0 0 0 0 0 0 0 0 0 0 0 0 0 0 127 0" result="hardAlpha"/>
<feOffset dy="3"/>
<feGaussianBlur stdDeviation="0.5"/>
<feComposite in2="hardAlpha" operator="arithmetic" k2="-1" k3="1"/>
<feColorMatrix type="matrix" values="0 0 0 0 0.941176 0 0 0 0 0.941176 0 0 0 0 0.937255 0 0 0 1 0"/>
<feBlend mode="normal" in2="shape" result="effect1_innerShadow_0_2"/>
</filter>
<filter id="filter7_i_0_2" x="424" y="7" width="3282" height="2302" filterUnits="userSpaceOnUse" color-interpolation-filters="sRGB">
<feFlood flood-opacity="0" result="BackgroundImageFix"/>
<feBlend mode="normal" in="SourceGraphic" in2="BackgroundImageFix" result="shape"/>
<feColorMatrix in="SourceAlpha" type="matrix" values="0 0 0 0 0 0 0 0 0 0 0 0 0 0 0 0 0 0 127 0" result="hardAlpha"/>
<feOffset/>
<feGaussianBlur stdDeviation="1"/>
<feComposite in2="hardAlpha" operator="arithmetic" k2="-1" k3="1"/>
<feColorMatrix type="matrix" values="0 0 0 0 0.815686 0 0 0 0 0.815686 0 0 0 0 0.815686 0 0 0 1 0"/>
<feBlend mode="normal" in2="shape" result="effect1_innerShadow_0_2"/>
</filter>
<linearGradient id="paint0_linear_0_2" x1="-1286.71" y1="2278" x2="-1286.71" y2="2376.06" gradientUnits="userSpaceOnUse">
<stop stop-color="white"/>
<stop offset="0.112052" stop-color="#F2F2F2"/>
<stop offset="0.148617" stop-color="#DDDDDD"/>
<stop offset="0.171937" stop-color="#F9F9F9"/>
<stop offset="0.325781" stop-color="#F4F3F3"/>
<stop offset="0.493353" stop-color="#CACACA"/>
<stop offset="0.613171" stop-color="white"/>
<stop offset="0.623532" stop-color="#919191"/>
<stop offset="0.645493" stop-color="#8E8E8E"/>
<stop offset="0.656345" stop-color="#6E6E6E"/>
<stop offset="0.676628" stop-color="#6B6B6B"/>
<stop offset="0.687305" stop-color="#BBBBBB"/>
<stop offset="0.737856" stop-color="#B9B9B9"/>
<stop offset="0.747345" stop-color="#DADADA"/>
<stop offset="0.770986" stop-color="#DADADA"/>
<stop offset="0.780047" stop-color="#909090"/>
<stop offset="0.801629" stop-color="#8E8E8E"/>
<stop offset="0.81199" stop-color="#BABABB"/>
<stop offset="0.862269" stop-color="#B8B8B9"/>
<stop offset="0.874629" stop-color="#A5A5A5"/>
<stop offset="0.898177" stop-color="#A3A3A3"/>
<stop offset="0.909895" stop-color="#D8D8D8"/>
<stop offset="1" stop-color="#D8D8D8"/>
</linearGradient>
<linearGradient id="paint1_linear_0_2" x1="14.2734" y1="2397.27" x2="4112.4" y2="2397.27" gradientUnits="userSpaceOnUse">
<stop stop-color="#B4B4B4"/>
<stop offset="0.0149932" stop-color="white"/>
<stop offset="0.034456" stop-color="#F3F3F3"/>
<stop offset="0.319017" stop-color="#EAEAEA"/>
<stop offset="0.505619" stop-color="#E5E5E5"/>
<stop offset="0.971463" stop-color="#E8E8E8"/>
<stop offset="0.986553" stop-color="#FEFEFE"/>
<stop offset="1" stop-color="#ADADAD"/>
</linearGradient>
<linearGradient id="paint2_linear_0_2" x1="0.75798" y1="2537.92" x2="4118.75" y2="2537.92" gradientUnits="userSpaceOnUse">
<stop stop-color="#939393"/>
<stop offset="0.00801921" stop-color="#BFBFBF"/>
<stop offset="0.0248891" stop-color="#E4E4E4"/>
<stop offset="0.318704" stop-color="#F4F4F4"/>
<stop offset="0.507354" stop-color="#BBBBBB"/>
<stop offset="0.678483" stop-color="#F4F4F4"/>
<stop offset="0.914733" stop-color="#EAEAEA"/>
<stop offset="0.986681" stop-color="#DCDCDC"/>
<stop offset="1" stop-color="#949494"/>
</linearGradient>
<linearGradient id="paint3_linear_0_2" x1="1366.55" y1="2368.68" x2="2758" y2="2368.68" gradientUnits="userSpaceOnUse">
<stop stop-color="#878787"/>
<stop offset="0.0309898" stop-color="#FAFAFA"/>
<stop offset="0.0351082" stop-color="#F5F5F5"/>
<stop offset="0.965896" stop-color="#FAFAFA"/>
<stop offset="0.969815" stop-color="#FAFAFA"/>
<stop offset="1" stop-color="#7D7D7D"/>
</linearGradient>
<linearGradient id="paint4_linear_0_2" x1="455.2" y1="7" x2="455.2" y2="2265.23" gradientUnits="userSpaceOnUse">
<stop stop-color="#939393"/>
<stop offset="0.526626" stop-color="#ABACAC"/>
<stop offset="0.817961" stop-color="#BABBBB"/>
<stop offset="1" stop-color="#909090"/>
</linearGradient>
<clipPath id="clip0_0_2">
<rect width="4122" height="2408" fill="white"/>
</clipPath>
<clipPath id="clip1_0_2">
<rect width="4097" height="2396" fill="white" transform="translate(15)"/>
</clipPath>
<clipPath id="clip2_0_2">
<rect width="3334" height="99" fill="white" transform="translate(398 2278)"/>
</clipPath>
<clipPath id="clip3_0_2">
<rect width="3334" height="99" fill="white" transform="translate(398 2278)"/>
</clipPath>
<clipPath id="clip4_0_2">
<rect width="4097" height="69" fill="white" transform="translate(15 2327)"/>
</clipPath>
<clipPath id="clip5_0_2">
<rect width="4099" height="109" fill="white" transform="translate(14 2289)"/>
</clipPath>
<clipPath id="clip6_0_2">
<rect width="3282" height="2309" fill="white" transform="translate(424)"/>
</clipPath>
</defs>
</svg>
