<svg width="2286" height="1532" viewBox="0 0 2286 1532" fill="none" xmlns="http://www.w3.org/2000/svg">
<g clip-path="url(#clip0_0_2)">
<g clip-path="url(#clip1_0_2)">
<g filter="url(#filter0_d_0_2)">
<ellipse cx="1143" cy="1513.99" rx="1143" ry="17.9884" fill="black" fill-opacity="0.01"/>
</g>
<g filter="url(#filter1_d_0_2)">
<ellipse cx="1142.69" cy="1512.62" rx="1104.9" ry="14.3907" fill="black" fill-opacity="0.01"/>
</g>
<g filter="url(#filter2_d_0_2)">
<ellipse cx="1144.52" cy="1510.91" rx="1028.7" ry="7.19534" fill="black" fill-opacity="0.01"/>
</g>
</g>
<g clip-path="url(#clip2_0_2)">
<g clip-path="url(#clip3_0_2)">
<g filter="url(#filter3_ii_0_2)">
<path fill-rule="evenodd" clip-rule="evenodd" d="M2195.44 0H2104C2103.45 0 2103 0.448 2103 1H183C183 0.448 182.552 0 182 0H90.817C65.513 0 45 20.513 45 45.818V1468.18C45 1493.49 65.513 1514 90.817 1514H2194.82C2220.22 1514 2241 1493.22 2241 1467.82V45.561C2241 20.398 2220.6 0 2195.44 0" fill="url(#paint0_linear_0_2)"/>
<path fill-rule="evenodd" clip-rule="evenodd" d="M2195.44 0H2104C2103.45 0 2103 0.448 2103 1H183C183 0.448 182.552 0 182 0H90.817C65.513 0 45 20.513 45 45.818V1468.18C45 1493.49 65.513 1514 90.817 1514H2194.82C2220.22 1514 2241 1493.22 2241 1467.82V45.561C2241 20.398 2220.6 0 2195.44 0" fill="url(#paint1_radial_0_2)" fill-opacity="0.9"/>
<path fill-rule="evenodd" clip-rule="evenodd" d="M2195.44 0H2104C2103.45 0 2103 0.448 2103 1H183C183 0.448 182.552 0 182 0H90.817C65.513 0 45 20.513 45 45.818V1468.18C45 1493.49 65.513 1514 90.817 1514H2194.82C2220.22 1514 2241 1493.22 2241 1467.82V45.561C2241 20.398 2220.6 0 2195.44 0" fill="url(#paint2_radial_0_2)" fill-opacity="0.9"/>
<path fill-rule="evenodd" clip-rule="evenodd" d="M2195.44 0H2104C2103.45 0 2103 0.448 2103 1H183C183 0.448 182.552 0 182 0H90.817C65.513 0 45 20.513 45 45.818V1468.18C45 1493.49 65.513 1514 90.817 1514H2194.82C2220.22 1514 2241 1493.22 2241 1467.82V45.561C2241 20.398 2220.6 0 2195.44 0" fill="url(#paint3_radial_0_2)" fill-opacity="0.7"/>
<path fill-rule="evenodd" clip-rule="evenodd" d="M2195.44 0H2104C2103.45 0 2103 0.448 2103 1H183C183 0.448 182.552 0 182 0H90.817C65.513 0 45 20.513 45 45.818V1468.18C45 1493.49 65.513 1514 90.817 1514H2194.82C2220.22 1514 2241 1493.22 2241 1467.82V45.561C2241 20.398 2220.6 0 2195.44 0" fill="url(#paint4_radial_0_2)" fill-opacity="0.3"/>
<path fill-rule="evenodd" clip-rule="evenodd" d="M2195.44 0H2104C2103.45 0 2103 0.448 2103 1H183C183 0.448 182.552 0 182 0H90.817C65.513 0 45 20.513 45 45.818V1468.18C45 1493.49 65.513 1514 90.817 1514H2194.82C2220.22 1514 2241 1493.22 2241 1467.82V45.561C2241 20.398 2220.6 0 2195.44 0" fill="url(#paint5_linear_0_2)" fill-opacity="0.4"/>
<path fill-rule="evenodd" clip-rule="evenodd" d="M2195.44 0H2104C2103.45 0 2103 0.448 2103 1H183C183 0.448 182.552 0 182 0H90.817C65.513 0 45 20.513 45 45.818V1468.18C45 1493.49 65.513 1514 90.817 1514H2194.82C2220.22 1514 2241 1493.22 2241 1467.82V45.561C2241 20.398 2220.6 0 2195.44 0" fill="url(#paint6_linear_0_2)" fill-opacity="0.5" style="mix-blend-mode:multiply"/>
</g>
<mask id="mask0_0_2" style="mask-type:luminance" maskUnits="userSpaceOnUse" x="45" y="0" width="2196" height="1514">
<path fill-rule="evenodd" clip-rule="evenodd" d="M2195.44 0H2104C2103.45 0 2103 0.448 2103 1H183C183 0.448 182.552 0 182 0H90.817C65.513 0 45 20.513 45 45.818V1468.18C45 1493.49 65.513 1514 90.817 1514H2194.82C2220.22 1514 2241 1493.22 2241 1467.82V45.561C2241 20.398 2220.6 0 2195.44 0" fill="white"/>
</mask>
<g mask="url(#mask0_0_2)">
<rect width="205" height="110" transform="matrix(-0.866025 0.5 0.5 0.866025 2270.77 -62.8814)" fill="url(#paint7_linear_0_2)" fill-opacity="0.4" style="mix-blend-mode:multiply"/>
<rect x="13.2324" y="-62.8814" width="205" height="110" transform="rotate(30 13.2324 -62.8814)" fill="url(#paint8_linear_0_2)" fill-opacity="0.4" style="mix-blend-mode:multiply"/>
<rect x="-61.1017" y="1518.47" width="205" height="110" transform="rotate(-45 -61.1017 1518.47)" fill="url(#paint9_linear_0_2)" fill-opacity="0.4" style="mix-blend-mode:multiply"/>
<rect width="205" height="110" transform="matrix(-0.707107 -0.707107 -0.707107 0.707107 2345.64 1518.47)" fill="url(#paint10_linear_0_2)" fill-opacity="0.4" style="mix-blend-mode:multiply"/>
<g opacity="0.4" filter="url(#filter4_ii_0_2)">
<rect x="183" width="1920" height="10" fill="url(#paint11_radial_0_2)"/>
<rect x="183" width="1920" height="10" fill="url(#paint12_radial_0_2)"/>
</g>
</g>
</g>
<g filter="url(#filter5_d_0_2)">
<mask id="path-11-outside-1_0_2" maskUnits="userSpaceOnUse" x="52" y="7" width="2182" height="1500" fill="black">
<rect fill="white" x="52" y="7" width="2182" height="1500"/>
<path fill-rule="evenodd" clip-rule="evenodd" d="M2231 118.663V305.336C2232.29 307.288 2233 309.593 2233 311.97V1468C2233 1488.99 2215.99 1506 2195 1506H91C70.014 1506 53 1488.99 53 1468V311.97C53 309.594 53.7055 307.289 55 305.337V118.662C53.7055 116.71 53 114.406 53 112.029V46C53 25.013 70.014 8 91 8H2195C2215.99 8 2233 25.013 2233 46V112.029C2233 114.407 2232.29 116.711 2231 118.663Z"/>
</mask>
<path d="M2231 305.336H2230V305.638L2230.17 305.889L2231 305.336ZM2231 118.663L2230.17 118.11L2230 118.362V118.663H2231ZM55 305.337L55.8334 305.89L56 305.639V305.337H55ZM55 118.662H56V118.36L55.8333 118.109L55 118.662ZM2231 305.336H2232V118.663H2231H2230V305.336H2231ZM2233 311.97H2234C2234 309.395 2233.24 306.898 2231.83 304.783L2231 305.336L2230.17 305.889C2231.35 307.678 2232 309.791 2232 311.97H2233ZM2233 1468H2234V311.97H2233H2232V1468H2233ZM2195 1506V1507C2216.54 1507 2234 1489.54 2234 1468H2233H2232C2232 1488.43 2215.43 1505 2195 1505V1506ZM91 1506V1507H2195V1506V1505H91V1506ZM53 1468H52C52 1489.54 69.4617 1507 91 1507V1506V1505C70.5663 1505 54 1488.43 54 1468H53ZM53 311.97H52V1468H53H54V311.97H53ZM55 305.337L54.1666 304.785C52.7644 306.899 52 309.395 52 311.97H53H54C54 309.792 54.6467 307.679 55.8334 305.89L55 305.337ZM55 118.662H54V305.337H55H56V118.662H55ZM53 112.029H52C52 114.604 52.7644 117.1 54.1667 119.214L55 118.662L55.8333 118.109C54.6467 116.32 54 114.208 54 112.029H53ZM53 46H52V112.029H53H54V46H53ZM91 8V7C69.4617 7 52 24.4607 52 46H53H54C54 25.5653 70.5663 9 91 9V8ZM2195 8V7H91V8V9H2195V8ZM2233 46H2234C2234 24.4607 2216.54 7 2195 7V8V9C2215.43 9 2232 25.5653 2232 46H2233ZM2233 112.029H2234V46H2233H2232V112.029H2233ZM2231 118.663L2231.83 119.216C2233.24 117.101 2234 114.605 2234 112.029H2233H2232C2232 114.209 2231.35 116.321 2230.17 118.11L2231 118.663Z" fill="url(#paint13_linear_0_2)" mask="url(#path-11-outside-1_0_2)"/>
</g>
<rect x="55" y="109" width="54" height="218" fill="#111111"/>
<rect x="2177" y="109" width="54" height="218" fill="#111111"/>
<g filter="url(#filter6_dii_0_2)">
<path fill-rule="evenodd" clip-rule="evenodd" d="M2229.49 120.514C2231.74 118.264 2233 115.212 2233 112.029V46C2233 25.013 2215.99 8 2195 8H91C70.014 8 53 25.013 53 46V112.029C53 115.212 54.265 118.264 56.515 120.514L64.486 128.485C66.736 130.735 68 133.788 68 136.97V287.029C68 290.212 66.736 293.264 64.486 295.514L56.515 303.485C54.265 305.735 53 308.788 53 311.97V1468C53 1488.99 70.014 1506 91 1506H2195C2215.99 1506 2233 1488.99 2233 1468V311.97C2233 308.788 2231.74 305.735 2229.49 303.485L2221.51 295.514C2219.26 293.264 2218 290.212 2218 287.029V136.97C2218 133.788 2219.26 130.735 2221.51 128.485L2229.49 120.514Z" fill="url(#paint14_linear_0_2)"/>
</g>
<rect x="177" y="111" width="1932" height="1294" fill="#2A2929"/>
<g clip-path="url(#clip4_0_2)">
<g opacity="0.5" clip-path="url(#clip5_0_2)">
<circle cx="1143" cy="63" r="17" fill="url(#paint15_radial_0_2)"/>
<g clip-path="url(#clip6_0_2)">
<g filter="url(#filter7_d_0_2)">
<circle cx="1143" cy="63" r="8" fill="url(#paint16_linear_0_2)"/>
</g>
<mask id="mask1_0_2" style="mask-type:luminance" maskUnits="userSpaceOnUse" x="1135" y="55" width="16" height="16">
<circle cx="1143" cy="63" r="8" fill="white"/>
</mask>
<g mask="url(#mask1_0_2)">
<g filter="url(#filter8_f_0_2)">
<circle cx="1139" cy="66" r="2" fill="#4297D8"/>
</g>
<g filter="url(#filter9_f_0_2)">
<circle cx="1145" cy="64" r="3" fill="#17154B"/>
</g>
<g filter="url(#filter10_f_0_2)">
<circle cx="1149" cy="59" r="2" fill="#A3D1FA"/>
</g>
<g filter="url(#filter11_f_0_2)">
<ellipse cx="1140.59" cy="59.7896" rx="3" ry="1" transform="rotate(-30 1140.59 59.7896)" fill="#2934CD"/>
</g>
</g>
</g>
</g>
<g filter="url(#filter12_ii_0_2)">
<circle cx="1195.5" cy="63.5" r="7.5" fill="#212121"/>
<circle cx="1195.5" cy="63.5" r="7.5" fill="url(#paint17_linear_0_2)" fill-opacity="0.2"/>
</g>
<g clip-path="url(#clip7_0_2)">
<circle opacity="0.2" cx="1237" cy="63" r="6" fill="url(#paint18_linear_0_2)"/>
<circle opacity="0.6" cx="1237" cy="63" r="4" fill="#0A0A0A"/>
</g>
</g>
<path fill-rule="evenodd" clip-rule="evenodd" d="M2163.85 737.039C2172.81 735.58 2181.95 734.303 2190.91 733.027V733.392V756.737C2181.95 756.737 2172.81 756.919 2163.85 756.919V737.039ZM2141 740.14C2147.76 739.045 2154.53 738.133 2161.48 737.404V756.919C2154.53 756.919 2147.76 757.101 2141 757.101V740.14ZM2141 759.108C2147.76 759.108 2154.53 759.29 2161.48 759.108V778.805C2154.53 777.893 2147.76 776.981 2141 776.069V759.108ZM2163.85 759.29H2190.91V781.906V783C2181.95 781.541 2172.81 780.447 2163.85 779.17V759.29Z" fill="white"/>
<path fill-rule="evenodd" clip-rule="evenodd" d="M2163.85 737.039C2172.81 735.58 2181.95 734.303 2190.91 733.027V733.392V756.737C2181.95 756.737 2172.81 756.919 2163.85 756.919V737.039ZM2141 740.14C2147.76 739.045 2154.53 738.133 2161.48 737.404V756.919C2154.53 756.919 2147.76 757.101 2141 757.101V740.14ZM2141 759.108C2147.76 759.108 2154.53 759.29 2161.48 759.108V778.805C2154.53 777.893 2147.76 776.981 2141 776.069V759.108ZM2163.85 759.29H2190.91V781.906V783C2181.95 781.541 2172.81 780.447 2163.85 779.17V759.29Z" fill="url(#paint19_linear_0_2)" fill-opacity="0.15"/>
</g>
<rect x="183" y="117" width="1920" height="1280" fill="#1D2129"/>
</g>
<defs>
<filter id="filter0_d_0_2" x="-34" y="1462" width="2354" height="103.977" filterUnits="userSpaceOnUse" color-interpolation-filters="sRGB">
<feFlood flood-opacity="0" result="BackgroundImageFix"/>
<feColorMatrix in="SourceAlpha" type="matrix" values="0 0 0 0 0 0 0 0 0 0 0 0 0 0 0 0 0 0 127 0" result="hardAlpha"/>
<feOffset/>
<feGaussianBlur stdDeviation="17"/>
<feColorMatrix type="matrix" values="0 0 0 0 0 0 0 0 0 0 0 0 0 0 0 0 0 0 0.12 0"/>
<feBlend mode="normal" in2="BackgroundImageFix" result="effect1_dropShadow_0_2"/>
<feBlend mode="normal" in="SourceGraphic" in2="effect1_dropShadow_0_2" result="shape"/>
</filter>
<filter id="filter1_d_0_2" x="27.7921" y="1488.23" width="2229.8" height="48.7814" filterUnits="userSpaceOnUse" color-interpolation-filters="sRGB">
<feFlood flood-opacity="0" result="BackgroundImageFix"/>
<feColorMatrix in="SourceAlpha" type="matrix" values="0 0 0 0 0 0 0 0 0 0 0 0 0 0 0 0 0 0 127 0" result="hardAlpha"/>
<feOffset/>
<feGaussianBlur stdDeviation="5"/>
<feColorMatrix type="matrix" values="0 0 0 0 0 0 0 0 0 0 0 0 0 0 0 0 0 0 0.16 0"/>
<feBlend mode="normal" in2="BackgroundImageFix" result="effect1_dropShadow_0_2"/>
<feBlend mode="normal" in="SourceGraphic" in2="effect1_dropShadow_0_2" result="shape"/>
</filter>
<filter id="filter2_d_0_2" x="105.824" y="1493.71" width="2077.4" height="34.3907" filterUnits="userSpaceOnUse" color-interpolation-filters="sRGB">
<feFlood flood-opacity="0" result="BackgroundImageFix"/>
<feColorMatrix in="SourceAlpha" type="matrix" values="0 0 0 0 0 0 0 0 0 0 0 0 0 0 0 0 0 0 127 0" result="hardAlpha"/>
<feOffset/>
<feGaussianBlur stdDeviation="5"/>
<feColorMatrix type="matrix" values="0 0 0 0 0 0 0 0 0 0 0 0 0 0 0 0 0 0 0.24 0"/>
<feBlend mode="normal" in2="BackgroundImageFix" result="effect1_dropShadow_0_2"/>
<feBlend mode="normal" in="SourceGraphic" in2="effect1_dropShadow_0_2" result="shape"/>
</filter>
<filter id="filter3_ii_0_2" x="45" y="0" width="2196" height="1515" filterUnits="userSpaceOnUse" color-interpolation-filters="sRGB">
<feFlood flood-opacity="0" result="BackgroundImageFix"/>
<feBlend mode="normal" in="SourceGraphic" in2="BackgroundImageFix" result="shape"/>
<feColorMatrix in="SourceAlpha" type="matrix" values="0 0 0 0 0 0 0 0 0 0 0 0 0 0 0 0 0 0 127 0" result="hardAlpha"/>
<feOffset dy="3"/>
<feComposite in2="hardAlpha" operator="arithmetic" k2="-1" k3="1"/>
<feColorMatrix type="matrix" values="0 0 0 0 1 0 0 0 0 1 0 0 0 0 1 0 0 0 0.8 0"/>
<feBlend mode="normal" in2="shape" result="effect1_innerShadow_0_2"/>
<feColorMatrix in="SourceAlpha" type="matrix" values="0 0 0 0 0 0 0 0 0 0 0 0 0 0 0 0 0 0 127 0" result="hardAlpha"/>
<feOffset dy="1"/>
<feGaussianBlur stdDeviation="1"/>
<feComposite in2="hardAlpha" operator="arithmetic" k2="-1" k3="1"/>
<feColorMatrix type="matrix" values="0 0 0 0 0 0 0 0 0 0 0 0 0 0 0 0 0 0 0.2 0"/>
<feBlend mode="normal" in2="effect1_innerShadow_0_2" result="effect2_innerShadow_0_2"/>
</filter>
<filter id="filter4_ii_0_2" x="182" y="0" width="1922" height="10" filterUnits="userSpaceOnUse" color-interpolation-filters="sRGB">
<feFlood flood-opacity="0" result="BackgroundImageFix"/>
<feBlend mode="normal" in="SourceGraphic" in2="BackgroundImageFix" result="shape"/>
<feColorMatrix in="SourceAlpha" type="matrix" values="0 0 0 0 0 0 0 0 0 0 0 0 0 0 0 0 0 0 127 0" result="hardAlpha"/>
<feOffset dx="1"/>
<feGaussianBlur stdDeviation="1"/>
<feComposite in2="hardAlpha" operator="arithmetic" k2="-1" k3="1"/>
<feColorMatrix type="matrix" values="0 0 0 0 0 0 0 0 0 0 0 0 0 0 0 0 0 0 0.3 0"/>
<feBlend mode="normal" in2="shape" result="effect1_innerShadow_0_2"/>
<feColorMatrix in="SourceAlpha" type="matrix" values="0 0 0 0 0 0 0 0 0 0 0 0 0 0 0 0 0 0 127 0" result="hardAlpha"/>
<feOffset dx="-1"/>
<feGaussianBlur stdDeviation="1"/>
<feComposite in2="hardAlpha" operator="arithmetic" k2="-1" k3="1"/>
<feColorMatrix type="matrix" values="0 0 0 0 0 0 0 0 0 0 0 0 0 0 0 0 0 0 0.3 0"/>
<feBlend mode="normal" in2="effect1_innerShadow_0_2" result="effect2_innerShadow_0_2"/>
</filter>
<filter id="filter5_d_0_2" x="49" y="4" width="2188" height="1506" filterUnits="userSpaceOnUse" color-interpolation-filters="sRGB">
<feFlood flood-opacity="0" result="BackgroundImageFix"/>
<feColorMatrix in="SourceAlpha" type="matrix" values="0 0 0 0 0 0 0 0 0 0 0 0 0 0 0 0 0 0 127 0" result="hardAlpha"/>
<feOffset/>
<feGaussianBlur stdDeviation="1.5"/>
<feColorMatrix type="matrix" values="0 0 0 0 0 0 0 0 0 0 0 0 0 0 0 0 0 0 0.5 0"/>
<feBlend mode="normal" in2="BackgroundImageFix" result="effect1_dropShadow_0_2"/>
<feBlend mode="normal" in="SourceGraphic" in2="effect1_dropShadow_0_2" result="shape"/>
</filter>
<filter id="filter6_dii_0_2" x="52" y="8" width="2182" height="1500" filterUnits="userSpaceOnUse" color-interpolation-filters="sRGB">
<feFlood flood-opacity="0" result="BackgroundImageFix"/>
<feColorMatrix in="SourceAlpha" type="matrix" values="0 0 0 0 0 0 0 0 0 0 0 0 0 0 0 0 0 0 127 0" result="hardAlpha"/>
<feOffset dy="1"/>
<feGaussianBlur stdDeviation="0.5"/>
<feColorMatrix type="matrix" values="0 0 0 0 0 0 0 0 0 0 0 0 0 0 0 0 0 0 1 0"/>
<feBlend mode="normal" in2="BackgroundImageFix" result="effect1_dropShadow_0_2"/>
<feBlend mode="normal" in="SourceGraphic" in2="effect1_dropShadow_0_2" result="shape"/>
<feColorMatrix in="SourceAlpha" type="matrix" values="0 0 0 0 0 0 0 0 0 0 0 0 0 0 0 0 0 0 127 0" result="hardAlpha"/>
<feOffset dx="2"/>
<feGaussianBlur stdDeviation="0.5"/>
<feComposite in2="hardAlpha" operator="arithmetic" k2="-1" k3="1"/>
<feColorMatrix type="matrix" values="0 0 0 0 1 0 0 0 0 1 0 0 0 0 1 0 0 0 0.1 0"/>
<feBlend mode="normal" in2="shape" result="effect2_innerShadow_0_2"/>
<feColorMatrix in="SourceAlpha" type="matrix" values="0 0 0 0 0 0 0 0 0 0 0 0 0 0 0 0 0 0 127 0" result="hardAlpha"/>
<feOffset dx="-2"/>
<feGaussianBlur stdDeviation="0.5"/>
<feComposite in2="hardAlpha" operator="arithmetic" k2="-1" k3="1"/>
<feColorMatrix type="matrix" values="0 0 0 0 1 0 0 0 0 1 0 0 0 0 1 0 0 0 0.1 0"/>
<feBlend mode="normal" in2="effect2_innerShadow_0_2" result="effect3_innerShadow_0_2"/>
</filter>
<filter id="filter7_d_0_2" x="1131" y="51" width="24" height="24" filterUnits="userSpaceOnUse" color-interpolation-filters="sRGB">
<feFlood flood-opacity="0" result="BackgroundImageFix"/>
<feColorMatrix in="SourceAlpha" type="matrix" values="0 0 0 0 0 0 0 0 0 0 0 0 0 0 0 0 0 0 127 0" result="hardAlpha"/>
<feMorphology radius="2" operator="dilate" in="SourceAlpha" result="effect1_dropShadow_0_2"/>
<feOffset/>
<feGaussianBlur stdDeviation="1"/>
<feColorMatrix type="matrix" values="0 0 0 0 0 0 0 0 0 0 0 0 0 0 0 0 0 0 0.5 0"/>
<feBlend mode="normal" in2="BackgroundImageFix" result="effect1_dropShadow_0_2"/>
<feBlend mode="normal" in="SourceGraphic" in2="effect1_dropShadow_0_2" result="shape"/>
</filter>
<filter id="filter8_f_0_2" x="1134.28" y="61.2817" width="9.43656" height="9.43656" filterUnits="userSpaceOnUse" color-interpolation-filters="sRGB">
<feFlood flood-opacity="0" result="BackgroundImageFix"/>
<feBlend mode="normal" in="SourceGraphic" in2="BackgroundImageFix" result="shape"/>
<feGaussianBlur stdDeviation="1.35914" result="effect1_foregroundBlur_0_2"/>
</filter>
<filter id="filter9_f_0_2" x="1139.28" y="58.2817" width="11.4366" height="11.4366" filterUnits="userSpaceOnUse" color-interpolation-filters="sRGB">
<feFlood flood-opacity="0" result="BackgroundImageFix"/>
<feBlend mode="normal" in="SourceGraphic" in2="BackgroundImageFix" result="shape"/>
<feGaussianBlur stdDeviation="1.35914" result="effect1_foregroundBlur_0_2"/>
</filter>
<filter id="filter10_f_0_2" x="1144.28" y="54.2817" width="9.43656" height="9.43656" filterUnits="userSpaceOnUse" color-interpolation-filters="sRGB">
<feFlood flood-opacity="0" result="BackgroundImageFix"/>
<feBlend mode="normal" in="SourceGraphic" in2="BackgroundImageFix" result="shape"/>
<feGaussianBlur stdDeviation="1.35914" result="effect1_foregroundBlur_0_2"/>
</filter>
<filter id="filter11_f_0_2" x="1135.22" y="55.339" width="10.729" height="8.90124" filterUnits="userSpaceOnUse" color-interpolation-filters="sRGB">
<feFlood flood-opacity="0" result="BackgroundImageFix"/>
<feBlend mode="normal" in="SourceGraphic" in2="BackgroundImageFix" result="shape"/>
<feGaussianBlur stdDeviation="1.35914" result="effect1_foregroundBlur_0_2"/>
</filter>
<filter id="filter12_ii_0_2" x="1188" y="56" width="15" height="16" filterUnits="userSpaceOnUse" color-interpolation-filters="sRGB">
<feFlood flood-opacity="0" result="BackgroundImageFix"/>
<feBlend mode="normal" in="SourceGraphic" in2="BackgroundImageFix" result="shape"/>
<feColorMatrix in="SourceAlpha" type="matrix" values="0 0 0 0 0 0 0 0 0 0 0 0 0 0 0 0 0 0 127 0" result="hardAlpha"/>
<feOffset dy="1"/>
<feGaussianBlur stdDeviation="0.5"/>
<feComposite in2="hardAlpha" operator="arithmetic" k2="-1" k3="1"/>
<feColorMatrix type="matrix" values="0 0 0 0 0 0 0 0 0 0 0 0 0 0 0 0 0 0 1 0"/>
<feBlend mode="normal" in2="shape" result="effect1_innerShadow_0_2"/>
<feColorMatrix in="SourceAlpha" type="matrix" values="0 0 0 0 0 0 0 0 0 0 0 0 0 0 0 0 0 0 127 0" result="hardAlpha"/>
<feOffset dy="-1"/>
<feComposite in2="hardAlpha" operator="arithmetic" k2="-1" k3="1"/>
<feColorMatrix type="matrix" values="0 0 0 0 1 0 0 0 0 1 0 0 0 0 1 0 0 0 0.05 0"/>
<feBlend mode="normal" in2="effect1_innerShadow_0_2" result="effect2_innerShadow_0_2"/>
</filter>
<linearGradient id="paint0_linear_0_2" x1="45" y1="0" x2="45" y2="1514" gradientUnits="userSpaceOnUse">
<stop stop-color="#C1C1C1"/>
<stop offset="1" stop-color="#909090"/>
</linearGradient>
<radialGradient id="paint1_radial_0_2" cx="0" cy="0" r="1" gradientUnits="userSpaceOnUse" gradientTransform="translate(45) rotate(90) scale(146.992 213.207)">
<stop stop-color="white"/>
<stop offset="1" stop-color="white" stop-opacity="0.01"/>
</radialGradient>
<radialGradient id="paint2_radial_0_2" cx="0" cy="0" r="1" gradientUnits="userSpaceOnUse" gradientTransform="translate(2241) rotate(90) scale(146.992 213.207)">
<stop stop-color="white"/>
<stop offset="1" stop-color="white" stop-opacity="0.01"/>
</radialGradient>
<radialGradient id="paint3_radial_0_2" cx="0" cy="0" r="1" gradientUnits="userSpaceOnUse" gradientTransform="translate(1143 757) rotate(90) scale(467.377 2132.34)">
<stop stop-color="white" stop-opacity="0.01"/>
<stop offset="1" stop-color="white" stop-opacity="0.5"/>
</radialGradient>
<radialGradient id="paint4_radial_0_2" cx="0" cy="0" r="1" gradientUnits="userSpaceOnUse" gradientTransform="translate(1120.22 1514) rotate(90) scale(498.75 1898.81)">
<stop/>
<stop offset="1" stop-opacity="0.01"/>
</radialGradient>
<linearGradient id="paint5_linear_0_2" x1="1107.61" y1="1465.2" x2="1107.61" y2="1514" gradientUnits="userSpaceOnUse">
<stop stop-color="white" stop-opacity="0.5"/>
<stop offset="1" stop-opacity="0.5"/>
</linearGradient>
<linearGradient id="paint6_linear_0_2" x1="45" y1="0" x2="45" y2="1514" gradientUnits="userSpaceOnUse">
<stop stop-color="white" stop-opacity="0.5"/>
<stop offset="0.0254035" stop-color="white" stop-opacity="0.5"/>
<stop offset="0.045714" stop-opacity="0.5"/>
<stop offset="0.0983374" stop-opacity="0.5"/>
<stop offset="0.16883" stop-color="#7A7777" stop-opacity="0.5"/>
<stop offset="0.191128" stop-opacity="0.5"/>
<stop offset="0.341913" stop-color="white" stop-opacity="0.5"/>
<stop offset="1" stop-color="white" stop-opacity="0.5"/>
</linearGradient>
<linearGradient id="paint7_linear_0_2" x1="0" y1="0" x2="0" y2="110" gradientUnits="userSpaceOnUse">
<stop stop-color="white"/>
<stop offset="0.401915" stop-color="white"/>
<stop offset="0.466575"/>
<stop offset="1" stop-color="white"/>
</linearGradient>
<linearGradient id="paint8_linear_0_2" x1="13.2324" y1="-62.8814" x2="13.2324" y2="47.1186" gradientUnits="userSpaceOnUse">
<stop stop-color="white"/>
<stop offset="0.401915" stop-color="white"/>
<stop offset="0.466575"/>
<stop offset="1" stop-color="white"/>
</linearGradient>
<linearGradient id="paint9_linear_0_2" x1="-61.1017" y1="1518.47" x2="-61.1017" y2="1628.47" gradientUnits="userSpaceOnUse">
<stop stop-color="white"/>
<stop offset="0.401915" stop-color="white"/>
<stop offset="0.466575"/>
<stop offset="1" stop-color="white"/>
</linearGradient>
<linearGradient id="paint10_linear_0_2" x1="0" y1="0" x2="0" y2="110" gradientUnits="userSpaceOnUse">
<stop stop-color="white"/>
<stop offset="0.401915" stop-color="white"/>
<stop offset="0.466575"/>
<stop offset="1" stop-color="white"/>
</linearGradient>
<radialGradient id="paint11_radial_0_2" cx="0" cy="0" r="1" gradientUnits="userSpaceOnUse" gradientTransform="translate(184.265 11.9697) rotate(90) scale(9.35547 1796.25)">
<stop/>
<stop offset="1" stop-opacity="0.01"/>
</radialGradient>
<radialGradient id="paint12_radial_0_2" cx="0" cy="0" r="1" gradientUnits="userSpaceOnUse" gradientTransform="translate(2103 11.5781) rotate(90) scale(9.35547 1796.25)">
<stop/>
<stop offset="1" stop-opacity="0.01"/>
</radialGradient>
<linearGradient id="paint13_linear_0_2" x1="53" y1="8" x2="53" y2="1506" gradientUnits="userSpaceOnUse">
<stop stop-color="white" stop-opacity="0.3"/>
<stop offset="1" stop-color="white" stop-opacity="0.01"/>
</linearGradient>
<linearGradient id="paint14_linear_0_2" x1="53" y1="8" x2="53" y2="1506" gradientUnits="userSpaceOnUse">
<stop stop-color="#212121"/>
<stop offset="0.218653" stop-color="#0C0C0C"/>
<stop offset="1" stop-color="#151514"/>
</linearGradient>
<radialGradient id="paint15_radial_0_2" cx="0" cy="0" r="1" gradientUnits="userSpaceOnUse" gradientTransform="translate(1158.66 91.7844) rotate(49.5605) scale(28.3408)">
<stop stop-color="#E3E0E0"/>
<stop offset="1" stop-color="#252728"/>
</radialGradient>
<linearGradient id="paint16_linear_0_2" x1="1135" y1="55" x2="1135" y2="71" gradientUnits="userSpaceOnUse">
<stop stop-color="#3343AC"/>
<stop offset="1" stop-color="#1E2462"/>
</linearGradient>
<linearGradient id="paint17_linear_0_2" x1="1186" y1="58.75" x2="1191.5" y2="73.75" gradientUnits="userSpaceOnUse">
<stop stop-color="white" stop-opacity="0.5"/>
<stop offset="1" stop-opacity="0.01"/>
</linearGradient>
<linearGradient id="paint18_linear_0_2" x1="1228.25" y1="60.125" x2="1234.5" y2="72.125" gradientUnits="userSpaceOnUse">
<stop/>
<stop offset="1" stop-color="#111111"/>
</linearGradient>
<linearGradient id="paint19_linear_0_2" x1="2141" y1="733.027" x2="2141" y2="783" gradientUnits="userSpaceOnUse">
<stop stop-color="white" stop-opacity="0.5"/>
<stop offset="1" stop-opacity="0.5"/>
</linearGradient>
<clipPath id="clip0_0_2">
<rect width="2286" height="1532" fill="white"/>
</clipPath>
<clipPath id="clip1_0_2">
<rect width="2286" height="36" fill="white" transform="translate(0 1496)"/>
</clipPath>
<clipPath id="clip2_0_2">
<rect width="2196" height="1514" fill="white" transform="translate(45)"/>
</clipPath>
<clipPath id="clip3_0_2">
<rect width="2196" height="1514" fill="white" transform="translate(45)"/>
</clipPath>
<clipPath id="clip4_0_2">
<rect width="117" height="34" fill="white" transform="translate(1126 46)"/>
</clipPath>
<clipPath id="clip5_0_2">
<rect width="34" height="34" fill="white" transform="translate(1126 46)"/>
</clipPath>
<clipPath id="clip6_0_2">
<rect width="16" height="16" fill="white" transform="translate(1135 55)"/>
</clipPath>
<clipPath id="clip7_0_2">
<rect width="12" height="12" fill="white" transform="translate(1231 57)"/>
</clipPath>
</defs>
</svg>
