<?xml version="1.0" encoding="UTF-8"?>
<svg data-bbox="0 0 1440 77" xmlns="http://www.w3.org/2000/svg" viewBox="0 0 1440 76" height="76" width="1440" data-type="ugc">
    <g>
        <g clip-path="url(#2fbd4b58-a844-403e-b587-814bc8c0855d)">
            <mask fill="#ffffff" id="8552fd8f-2b19-4019-8d40-5dc55c294fcd">
                <path d="M0 25.6c0-8.96 0-13.441 1.744-16.864a16 16 0 0 1 6.992-6.992C12.16 0 16.64 0 25.6 0h1388.8c8.96 0 13.44 0 16.86 1.744a16.05 16.05 0 0 1 7 6.992C1440 12.16 1440 16.64 1440 25.6V76H0z"/>
            </mask>
            <path fill="#ffffff" d="M0 25.6c0-8.96 0-13.441 1.744-16.864a16 16 0 0 1 6.992-6.992C12.16 0 16.64 0 25.6 0h1388.8c8.96 0 13.44 0 16.86 1.744a16.05 16.05 0 0 1 7 6.992C1440 12.16 1440 16.64 1440 25.6V76H0z"/>
            <path fill="#1E1E1E" d="M1440 0v36H0V0z"/>
            <path fill="#ED6B5D" d="M32 18a6 6 0 1 1-12 0 6 6 0 0 1 12 0"/>
            <path fill="#F4BE50" d="M52 18a6 6 0 1 1-12 0 6 6 0 0 1 12 0"/>
            <path fill="#61C554" d="M72 18a6 6 0 1 1-12 0 6 6 0 0 1 12 0"/>
            <path fill="#1E1E1E" d="M348 4H92c4.4 0 8 3.6 8 8v16c0 4.4 3.6 8 8 8h224c4.4 0 8-1.6 8-6V12c0-4.4 3.6-8 8-8"/>
            <path fill="#1E1E1E" d="M100 4h240v24a8 8 0 0 1-8 8H108a8 8 0 0 1-8-8z"/>
            <path fill="#ffffff" d="M116.148 16.225 113.324 24h-1.154l3.252-8.531h.744zM118.516 24l-2.83-7.775-.018-.756h.744L119.676 24zm-.147-3.158v.926h-4.793v-.926zm3.369-1.828V24h-1.084v-6.34h1.026zm-.258 1.576-.451-.018q.006-.65.194-1.2.187-.557.527-.968a2.35 2.35 0 0 1 1.857-.861q.47 0 .844.129.375.123.639.398.27.276.41.715.141.435.141 1.06V24h-1.09v-4.166q0-.498-.147-.797a.9.9 0 0 0-.427-.44 1.54 1.54 0 0 0-.692-.14q-.403 0-.738.17a1.8 1.8 0 0 0-.568.469q-.235.298-.37.685a2.5 2.5 0 0 0-.129.809m5.52.31v-.134q0-.686.199-1.272.2-.591.574-1.025.375-.44.909-.68a2.8 2.8 0 0 1 1.195-.246q.668 0 1.201.246.54.24.914.68.38.433.58 1.025.2.586.199 1.272v.134q0 .686-.199 1.272-.2.585-.58 1.025-.375.434-.908.68-.528.24-1.195.24a2.9 2.9 0 0 1-1.201-.24 2.7 2.7 0 0 1-.915-.68 3.1 3.1 0 0 1-.574-1.025A3.9 3.9 0 0 1 127 20.9m1.084-.134v.134q0 .476.111.897.112.415.334.738.229.323.569.51.34.182.791.182.445 0 .779-.182.34-.187.562-.51.223-.322.334-.738.118-.421.118-.897v-.134q0-.47-.118-.885a2.3 2.3 0 0 0-.339-.744 1.6 1.6 0 0 0-.563-.516 1.6 1.6 0 0 0-.785-.187q-.446 0-.785.187a1.7 1.7 0 0 0-.563.516 2.4 2.4 0 0 0-.334.744 3.4 3.4 0 0 0-.111.885m8.701-3.106v.832h-3.428v-.832zm-2.267-1.54h1.084v6.31q0 .322.099.486a.48.48 0 0 0 .258.217q.158.053.34.053.135 0 .281-.024.153-.03.229-.047l.005.885a3 3 0 0 1-.339.076 2.6 2.6 0 0 1-.498.041q-.399 0-.733-.158a1.18 1.18 0 0 1-.533-.527q-.193-.375-.193-1.008zm4.623-1.12v9h-1.084v-9zm-.258 5.59-.451-.018q.006-.65.193-1.2.188-.557.527-.968a2.35 2.35 0 0 1 1.858-.861q.469 0 .844.129.374.123.638.398.27.276.41.715.141.435.141 1.06V24h-1.09v-4.166q0-.498-.146-.797a.9.9 0 0 0-.428-.44 1.54 1.54 0 0 0-.691-.14q-.405 0-.739.17a1.8 1.8 0 0 0-.568.469q-.234.298-.369.685a2.5 2.5 0 0 0-.129.809m8.414 3.527q-.663 0-1.201-.223a2.7 2.7 0 0 1-.92-.638 2.85 2.85 0 0 1-.586-.973 3.6 3.6 0 0 1-.205-1.23v-.246q0-.774.228-1.377.23-.61.621-1.032.393-.421.891-.638a2.6 2.6 0 0 1 1.031-.217q.68 0 1.172.234.498.235.815.657.316.416.468.984.153.563.153 1.23v.487h-4.735v-.885h3.651v-.082a2.7 2.7 0 0 0-.176-.82 1.5 1.5 0 0 0-.469-.657q-.323-.257-.879-.257a1.47 1.47 0 0 0-1.213.615 2.3 2.3 0 0 0-.345.744q-.123.439-.123 1.014v.246q0 .45.123.85.129.392.369.69.246.3.592.47.352.17.796.17.574 0 .973-.235a2.4 2.4 0 0 0 .697-.627l.657.522a3 3 0 0 1-.522.591q-.317.282-.779.457a3 3 0 0 1-1.084.176m4.816-5.46V24h-1.084v-6.34h1.055zm1.981-1.032-.006 1.008a1.6 1.6 0 0 0-.258-.035 3 3 0 0 0-.269-.012q-.375 0-.663.117a1.4 1.4 0 0 0-.486.328q-.2.21-.316.504a2.4 2.4 0 0 0-.147.633l-.304.176q0-.574.111-1.078.117-.504.357-.891.24-.393.61-.61a1.7 1.7 0 0 1 1.16-.193.8.8 0 0 1 .211.053m7.289 3.03h-2.279v-.92h2.279q.662 0 1.072-.212.41-.21.598-.585.193-.376.193-.856a1.8 1.8 0 0 0-.193-.826 1.43 1.43 0 0 0-.598-.621q-.41-.24-1.072-.24h-2.016V24h-1.131v-8.531h3.147q.966 0 1.635.334.668.334 1.013.925.346.586.346 1.342 0 .82-.346 1.4-.345.58-1.013.886-.669.298-1.635.298m5.344-1.999V24h-1.084v-6.34h1.054zm1.98-1.031-.006 1.008a1.6 1.6 0 0 0-.258-.035 3 3 0 0 0-.269-.012q-.375 0-.662.117a1.4 1.4 0 0 0-.487.328 1.6 1.6 0 0 0-.316.504 2.5 2.5 0 0 0-.147.633l-.304.176q0-.574.111-1.078a2.9 2.9 0 0 1 .358-.891 1.75 1.75 0 0 1 .609-.61 1.7 1.7 0 0 1 1.16-.193.8.8 0 0 1 .211.053m.598 3.275v-.134q0-.686.199-1.272.2-.591.574-1.025.375-.44.908-.68a2.8 2.8 0 0 1 1.196-.246q.667 0 1.201.246.539.24.914.68.38.433.58 1.025.2.586.199 1.272v.134q0 .686-.199 1.272-.2.585-.58 1.025-.375.434-.908.68-.528.24-1.196.24t-1.201-.24a2.7 2.7 0 0 1-.914-.68 3.1 3.1 0 0 1-.574-1.025 3.9 3.9 0 0 1-.199-1.272m1.084-.134v.134q0 .476.111.897.112.415.334.738.228.323.568.51.34.182.791.182.446 0 .78-.182.34-.187.562-.51.223-.322.334-.738.117-.421.117-.897v-.134q0-.47-.117-.885a2.3 2.3 0 0 0-.34-.744 1.6 1.6 0 0 0-.562-.516 1.6 1.6 0 0 0-.785-.187q-.446 0-.786.187-.333.188-.562.516-.222.323-.334.744a3.4 3.4 0 0 0-.111.885m10.043 2.004V15h1.089v9h-.996zm-4.266-1.87v-.123q0-.726.176-1.318.182-.597.51-1.025.333-.428.791-.657a2.25 2.25 0 0 1 1.031-.234q.597 0 1.043.21.45.207.762.604.315.393.498.95.182.555.252 1.26v.538a5.5 5.5 0 0 1-.252 1.254 3 3 0 0 1-.498.95 2.1 2.1 0 0 1-.762.603 2.5 2.5 0 0 1-1.055.205q-.557 0-1.019-.24a2.4 2.4 0 0 1-.791-.674 3.3 3.3 0 0 1-.51-1.02 4.5 4.5 0 0 1-.176-1.283m1.09-.123v.123q0 .476.094.891.1.416.304.732.206.317.522.498.317.177.756.176.539 0 .884-.228.352-.23.563-.604.211-.375.328-.814v-1.412a3 3 0 0 0-.205-.621 1.9 1.9 0 0 0-.34-.54 1.5 1.5 0 0 0-.51-.38 1.65 1.65 0 0 0-.709-.141q-.445 0-.767.188-.316.181-.522.503a2.3 2.3 0 0 0-.304.739 4 4 0 0 0-.094.89m9.832 1.758V17.66h1.09V24h-1.037zm.205-1.336.451-.012q0 .633-.135 1.172a2.5 2.5 0 0 1-.421.926 2 2 0 0 1-.768.615q-.474.217-1.154.217-.463 0-.85-.135a1.7 1.7 0 0 1-.656-.416 1.9 1.9 0 0 1-.428-.732q-.147-.45-.146-1.084v-4.09h1.084v4.102q0 .427.093.709.1.275.264.44.17.157.375.222.211.064.434.064.69 0 1.095-.263.405-.27.58-.721.182-.457.182-1.014m5.074 2.028q.387 0 .715-.159.328-.158.539-.433a1.2 1.2 0 0 0 .24-.639h1.032a1.94 1.94 0 0 1-.381 1.049 2.6 2.6 0 0 1-2.145 1.072q-.714 0-1.248-.252a2.5 2.5 0 0 1-.879-.691 3.1 3.1 0 0 1-.521-1.008 4.2 4.2 0 0 1-.17-1.213v-.246q0-.639.17-1.207.176-.574.521-1.014.352-.44.879-.691.534-.252 1.248-.252.744 0 1.301.305.557.298.873.82.322.516.352 1.172h-1.032a1.55 1.55 0 0 0-.222-.71 1.4 1.4 0 0 0-.516-.503 1.44 1.44 0 0 0-.756-.193q-.498 0-.838.199-.333.194-.533.527a2.4 2.4 0 0 0-.281.733 4 4 0 0 0-.082.814v.246q0 .415.082.82t.275.733q.2.328.533.527.34.194.844.194m6.399-5.567v.832h-3.428v-.832zm-2.268-1.54h1.084v6.31q0 .322.1.486.1.165.257.217.159.053.34.053.135 0 .282-.024.151-.03.228-.047l.006.885a3 3 0 0 1-.34.076 2.6 2.6 0 0 1-.498.041q-.399 0-.732-.158a1.18 1.18 0 0 1-.534-.527q-.193-.375-.193-1.008z"/>
            <path fill="#909192" d="M327.823 16.183a.605.605 0 0 0-.856 0L324 19.146l-2.967-2.968a.605.605 0 1 0-.856.856L323.144 20l-2.967 2.967a.605.605 0 0 0 .856.856L324 20.855l2.967 2.968a.605.605 0 1 0 .856-.856L324.856 20l2.967-2.967a.61.61 0 0 0 0-.85"/>
            <path fill="#35363A" d="M588 36H332c4.4 0 8-3.6 8-8V12c0-4.4 3.6-8 8-8h224c4.4 0 8 1.6 8 6v18c0 4.4 3.6 8 8 8"/>
            <path fill="#35363A" d="M340 12a8 8 0 0 1 8-8h224a8 8 0 0 1 8 8v24H340z"/>
            <path fill="#ffffff" d="M381.553 15.469V24h-1.137l-4.295-6.58V24h-1.131v-8.531h1.131l4.313 6.597V15.47zm4.47 8.648a3.1 3.1 0 0 1-1.201-.223 2.7 2.7 0 0 1-.92-.638 2.85 2.85 0 0 1-.586-.973 3.6 3.6 0 0 1-.205-1.23v-.246q0-.774.229-1.377a3.1 3.1 0 0 1 .621-1.032q.393-.421.891-.638a2.6 2.6 0 0 1 1.031-.217q.68 0 1.172.234.498.235.814.657.316.416.469.984.152.563.152 1.23v.487h-4.734v-.885h3.65v-.082a2.7 2.7 0 0 0-.176-.82 1.47 1.47 0 0 0-.468-.657q-.322-.257-.879-.257a1.48 1.48 0 0 0-1.213.615 2.3 2.3 0 0 0-.346.744q-.123.439-.123 1.014v.246q0 .45.123.85.129.392.369.69.246.3.592.47.352.17.797.17.574 0 .973-.235.398-.234.697-.627l.656.522q-.205.31-.521.591-.316.282-.78.457-.456.176-1.084.176m5.338-1.242 1.629-5.215h.715l-.141 1.037L391.906 24h-.697zm-1.095-5.215 1.388 5.274.1 1.066h-.733l-1.839-6.34zm4.998 5.233 1.324-5.233h1.078l-1.84 6.34h-.726zm-1.401-5.233 1.594 5.127.182 1.213h-.692l-1.705-5.314-.14-1.026zm10.975-2.191V24h-1.113v-8.531zm2.742 0v.926h-6.592v-.926zm4.172 7.447v-3.264q0-.375-.152-.65a1 1 0 0 0-.446-.434q-.298-.152-.738-.152-.41 0-.721.14a1.25 1.25 0 0 0-.48.37.8.8 0 0 0-.17.492h-1.084q0-.34.176-.674t.504-.603q.333-.276.797-.434.469-.165 1.042-.164.692 0 1.219.234.534.235.832.71.305.468.305 1.177v2.953q0 .317.053.674.058.357.17.615V24h-1.131a2 2 0 0 1-.129-.498 4 4 0 0 1-.047-.586m.187-2.76.012.762h-1.096q-.462 0-.826.076a1.9 1.9 0 0 0-.609.217q-.246.146-.375.37a1 1 0 0 0-.129.509q0 .299.135.545.134.246.404.392.276.141.674.141.498 0 .879-.211.381-.21.603-.516.23-.304.246-.591l.463.521a1.6 1.6 0 0 1-.222.545 2.6 2.6 0 0 1-1.202 1.025 2.3 2.3 0 0 1-.925.176q-.645 0-1.131-.252a1.94 1.94 0 0 1-.75-.674 1.8 1.8 0 0 1-.264-.955q0-.51.199-.896.2-.393.575-.65.375-.265.902-.399.527-.135 1.178-.135zM414.535 15h1.09v7.77l-.094 1.23h-.996zm5.373 5.777v.123q0 .692-.164 1.284-.163.585-.48 1.02-.317.433-.774.673-.456.24-1.049.24-.603 0-1.06-.205a2.1 2.1 0 0 1-.762-.603 3.1 3.1 0 0 1-.498-.95 6 6 0 0 1-.252-1.254v-.539q.07-.702.252-1.26a3.1 3.1 0 0 1 .498-.949q.31-.398.762-.603.451-.21 1.049-.211.598 0 1.06.234.464.229.774.657.317.428.48 1.025.165.592.164 1.318m-1.09.123v-.123q0-.474-.088-.89a2.3 2.3 0 0 0-.281-.739 1.4 1.4 0 0 0-.51-.503q-.315-.188-.779-.188-.41 0-.715.14-.299.141-.509.381a2 2 0 0 0-.346.54q-.13.299-.194.62v1.413q.095.41.305.79.217.375.574.616.364.24.897.24a1.5 1.5 0 0 0 .75-.175q.317-.183.51-.499.198-.316.293-.732.093-.416.093-.89"/>
            <path fill="#909192" d="M567.823 16.183a.605.605 0 0 0-.856 0L564 19.146l-2.967-2.968a.605.605 0 1 0-.856.856L563.144 20l-2.967 2.967a.605.605 0 0 0 .856.856L564 20.855l2.967 2.968a.605.605 0 1 0 .856-.856L564.856 20l2.967-2.967a.61.61 0 0 0 0-.85"/>
            <path fill="#1E1E1E" d="M828 4H572c4.4 0 8 3.6 8 8v16c0 4.4 3.6 8 8 8h224c4.4 0 8-1.6 8-6V12c0-4.4 3.6-8 8-8"/>
            <path fill="#1E1E1E" d="M580 4h240v24a8 8 0 0 1-8 8H588a8 8 0 0 1-8-8z"/>
            <path fill="#ffffff" d="M596.148 16.225 593.324 24h-1.154l3.252-8.531h.744zM598.516 24l-2.83-7.775-.018-.756h.744L599.676 24zm-.147-3.158v.926h-4.793v-.926zm3.369-1.828V24h-1.084v-6.34h1.026zm-.258 1.576-.451-.018q.006-.65.194-1.2.187-.557.527-.968a2.35 2.35 0 0 1 1.857-.861q.47 0 .844.129.375.123.639.398.27.276.41.715.141.435.141 1.06V24h-1.09v-4.166q0-.498-.147-.797a.9.9 0 0 0-.427-.44 1.54 1.54 0 0 0-.692-.14q-.404 0-.738.17a1.8 1.8 0 0 0-.568.469q-.235.298-.37.685a2.5 2.5 0 0 0-.129.809m5.52.31v-.134q0-.686.199-1.272.2-.591.574-1.025.375-.44.909-.68a2.8 2.8 0 0 1 1.195-.246q.668 0 1.201.246.54.24.914.68.38.433.58 1.025.2.586.199 1.272v.134q0 .686-.199 1.272-.2.585-.58 1.025-.375.434-.908.68-.528.24-1.195.24a2.9 2.9 0 0 1-1.201-.24 2.7 2.7 0 0 1-.915-.68 3.1 3.1 0 0 1-.574-1.025A3.9 3.9 0 0 1 607 20.9m1.084-.134v.134q0 .476.111.897.112.415.334.738.229.323.569.51.34.182.791.182.445 0 .779-.182.34-.187.562-.51.223-.322.334-.738.118-.421.118-.897v-.134q0-.47-.118-.885a2.3 2.3 0 0 0-.339-.744 1.6 1.6 0 0 0-.563-.516 1.6 1.6 0 0 0-.785-.187q-.446 0-.785.187a1.7 1.7 0 0 0-.563.516 2.4 2.4 0 0 0-.334.744 3.4 3.4 0 0 0-.111.885m8.701-3.106v.832h-3.428v-.832zm-2.267-1.54h1.084v6.31q0 .322.099.486a.48.48 0 0 0 .258.217q.158.053.34.053.135 0 .281-.024.153-.03.229-.047l.005.885a3 3 0 0 1-.339.076 2.6 2.6 0 0 1-.498.041q-.399 0-.733-.158a1.18 1.18 0 0 1-.533-.527q-.193-.375-.193-1.008zm4.623-1.12v9h-1.084v-9zm-.258 5.59-.451-.018q.006-.65.193-1.2.188-.557.527-.968a2.35 2.35 0 0 1 1.858-.861q.468 0 .844.129.375.123.638.398.27.276.41.715.141.435.141 1.06V24h-1.09v-4.166q0-.498-.146-.797a.9.9 0 0 0-.428-.44 1.54 1.54 0 0 0-.691-.14q-.405 0-.739.17a1.8 1.8 0 0 0-.568.469q-.234.298-.369.685a2.5 2.5 0 0 0-.129.809m8.414 3.527q-.663 0-1.201-.223a2.7 2.7 0 0 1-.92-.638 2.85 2.85 0 0 1-.586-.973 3.6 3.6 0 0 1-.205-1.23v-.246q0-.774.228-1.377.23-.61.621-1.032.393-.421.891-.638a2.6 2.6 0 0 1 1.031-.217q.68 0 1.172.234.498.235.815.657.316.416.468.984.153.563.153 1.23v.487h-4.735v-.885h3.651v-.082a2.7 2.7 0 0 0-.176-.82 1.5 1.5 0 0 0-.469-.657q-.323-.257-.879-.257a1.47 1.47 0 0 0-1.213.615 2.3 2.3 0 0 0-.345.744q-.123.439-.123 1.014v.246q0 .45.123.85.129.392.369.69.246.3.592.47.351.17.796.17.574 0 .973-.235a2.4 2.4 0 0 0 .697-.627l.657.522a3 3 0 0 1-.522.591q-.317.282-.779.457a3 3 0 0 1-1.084.176m4.816-5.46V24h-1.084v-6.34h1.055zm1.981-1.032-.006 1.008a1.6 1.6 0 0 0-.258-.035 3 3 0 0 0-.269-.012q-.375 0-.663.117a1.4 1.4 0 0 0-.486.328q-.2.21-.316.504a2.4 2.4 0 0 0-.147.633l-.304.176q0-.574.111-1.078.117-.504.357-.891.24-.393.61-.61a1.7 1.7 0 0 1 1.16-.193.8.8 0 0 1 .211.053m7.289 3.03h-2.279v-.92h2.279q.662 0 1.072-.212.41-.21.598-.585.193-.376.193-.856a1.8 1.8 0 0 0-.193-.826 1.43 1.43 0 0 0-.598-.621q-.41-.24-1.072-.24h-2.016V24h-1.131v-8.531h3.147q.966 0 1.635.334.668.334 1.013.925.346.586.346 1.342 0 .82-.346 1.4-.345.58-1.013.886-.669.298-1.635.298m5.344-1.999V24h-1.084v-6.34h1.054zm1.98-1.031-.006 1.008a1.6 1.6 0 0 0-.258-.035 3 3 0 0 0-.269-.012q-.375 0-.662.117a1.4 1.4 0 0 0-.487.328 1.6 1.6 0 0 0-.316.504 2.5 2.5 0 0 0-.147.633l-.304.176q0-.574.111-1.078a2.9 2.9 0 0 1 .358-.891 1.75 1.75 0 0 1 .609-.61 1.7 1.7 0 0 1 1.16-.193.8.8 0 0 1 .211.053m.598 3.275v-.134q0-.686.199-1.272.2-.591.574-1.025.375-.44.908-.68a2.8 2.8 0 0 1 1.196-.246q.667 0 1.201.246.539.24.914.68.38.433.58 1.025.2.586.199 1.272v.134q0 .686-.199 1.272-.2.585-.58 1.025-.375.434-.908.68-.528.24-1.196.24t-1.201-.24a2.7 2.7 0 0 1-.914-.68 3.1 3.1 0 0 1-.574-1.025 3.9 3.9 0 0 1-.199-1.272m1.084-.134v.134q0 .476.111.897.111.415.334.738.229.323.568.51.34.182.791.182.446 0 .78-.182.34-.187.562-.51.223-.322.334-.738.117-.421.117-.897v-.134q0-.47-.117-.885a2.3 2.3 0 0 0-.34-.744 1.6 1.6 0 0 0-.562-.516 1.6 1.6 0 0 0-.785-.187q-.446 0-.786.187-.333.188-.562.516-.223.323-.334.744a3.4 3.4 0 0 0-.111.885m10.043 2.004V15h1.089v9h-.996zm-4.266-1.87v-.123q0-.726.176-1.318.182-.597.51-1.025.333-.428.791-.657a2.25 2.25 0 0 1 1.031-.234q.597 0 1.043.21.45.207.762.604.315.393.498.95.182.555.252 1.26v.538a5.5 5.5 0 0 1-.252 1.254 3 3 0 0 1-.498.95 2.1 2.1 0 0 1-.762.603 2.5 2.5 0 0 1-1.055.205q-.557 0-1.019-.24a2.4 2.4 0 0 1-.791-.674 3.3 3.3 0 0 1-.51-1.02 4.5 4.5 0 0 1-.176-1.283m1.09-.123v.123q0 .476.094.891.1.416.304.732.206.317.522.498.317.177.756.176.539 0 .884-.228.352-.23.563-.604.211-.375.328-.814v-1.412a3 3 0 0 0-.205-.621 1.9 1.9 0 0 0-.34-.54 1.5 1.5 0 0 0-.51-.38 1.65 1.65 0 0 0-.709-.141q-.445 0-.767.188-.317.181-.522.503a2.3 2.3 0 0 0-.304.739 4 4 0 0 0-.094.89m9.832 1.758V17.66h1.09V24h-1.037zm.205-1.336.451-.012q0 .633-.135 1.172a2.5 2.5 0 0 1-.421.926 2 2 0 0 1-.768.615q-.474.217-1.154.217-.463 0-.85-.135a1.7 1.7 0 0 1-.656-.416 1.9 1.9 0 0 1-.428-.732q-.146-.45-.146-1.084v-4.09h1.084v4.102q0 .427.093.709.1.275.264.44.17.157.375.222.211.064.434.064.69 0 1.095-.263.405-.27.58-.721.182-.457.182-1.014m5.074 2.028q.387 0 .715-.159.328-.158.539-.433a1.2 1.2 0 0 0 .24-.639h1.032a1.94 1.94 0 0 1-.381 1.049 2.6 2.6 0 0 1-2.145 1.072q-.714 0-1.248-.252a2.5 2.5 0 0 1-.879-.691 3.1 3.1 0 0 1-.521-1.008 4.2 4.2 0 0 1-.17-1.213v-.246q0-.639.17-1.207.176-.574.521-1.014.352-.44.879-.691.534-.252 1.248-.252.744 0 1.301.305.557.298.873.82.322.516.352 1.172h-1.032a1.55 1.55 0 0 0-.222-.71 1.4 1.4 0 0 0-.516-.503 1.44 1.44 0 0 0-.756-.193q-.498 0-.838.199-.333.194-.533.527a2.4 2.4 0 0 0-.281.733 4 4 0 0 0-.082.814v.246q0 .415.082.82t.275.733q.2.328.533.527.34.194.844.194m6.399-5.567v.832h-3.428v-.832zm-2.268-1.54h1.084v6.31q0 .322.1.486.1.165.257.217.159.053.34.053.135 0 .282-.024.152-.03.228-.047l.006.885a3 3 0 0 1-.34.076 2.6 2.6 0 0 1-.498.041q-.399 0-.732-.158a1.18 1.18 0 0 1-.534-.527q-.193-.375-.193-1.008z"/>
            <path fill="#909192" d="M807.823 16.183a.605.605 0 0 0-.856 0L804 19.146l-2.967-2.968a.605.605 0 1 0-.856.856L803.144 20l-2.967 2.967a.605.605 0 0 0 .856.856L804 20.855l2.967 2.968a.605.605 0 1 0 .856-.856L804.856 20l2.967-2.967a.61.61 0 0 0 0-.85"/>
            <path stroke-linejoin="round" stroke-linecap="round" stroke="#6B6C6E" d="M818 11v18" fill="none"/>
            <path fill="#6B6C6E" d="M839 20.833h-4.167V25a.836.836 0 0 1-.833.833.836.836 0 0 1-.833-.833v-4.167H829a.836.836 0 0 1-.833-.833c0-.458.375-.833.833-.833h4.167V15c0-.458.375-.833.833-.833s.833.375.833.833v4.167H839c.458 0 .833.375.833.833a.836.836 0 0 1-.833.833"/>
            <path fill="#35363A" d="M1440 36v40H0V36z"/>
            <path fill="#909192" d="M35 55H23.83l4.88-4.88c.39-.39.39-1.03 0-1.42a.996.996 0 0 0-1.41 0l-6.59 6.59a.996.996 0 0 0 0 1.41l6.59 6.59a.996.996 0 1 0 1.41-1.41L23.83 57H35c.55 0 1-.45 1-1s-.45-1-1-1"/>
            <path fill="#909192" d="M56.76 57h11.17l-4.88 4.88c-.39.39-.39 1.03 0 1.42s1.02.39 1.41 0l6.59-6.59a.996.996 0 0 0 0-1.41l-6.58-6.6a.996.996 0 1 0-1.41 1.41L67.93 55H56.76c-.55 0-1 .45-1 1s.45 1 1 1"/>
            <path fill="#909192" d="M105.279 50.706a7.45 7.45 0 0 0-6.074-2.166c-3.44.347-6.27 3.14-6.655 6.58-.515 4.546 3 8.38 7.433 8.38a7.48 7.48 0 0 0 6.758-4.274.94.94 0 0 0-.843-1.35.91.91 0 0 0-.825.497 5.62 5.62 0 0 1-6.374 3.102c-2.08-.459-3.758-2.156-4.2-4.236a5.626 5.626 0 0 1 5.484-6.862c1.556 0 2.944.647 3.956 1.669l-1.416 1.415c-.59.59-.178 1.603.657 1.603h3.365a.94.94 0 0 0 .937-.937v-3.365c0-.834-1.012-1.256-1.603-.666z"/>
            <path fill="#202124" d="M1312 56c0 8.837-7.163 16-16 16H144c-8.837 0-16-7.163-16-16s7.163-16 16-16h1152c8.837 0 16 7.163 16 16"/>
            <path fill="#909192" d="M163.348 51.469h1.095l2.795 6.955 2.789-6.955h1.102L167.66 60h-.855zm-.358 0h.967l.158 5.203V60h-1.125zm7.524 0h.966V60h-1.125v-3.328zm5.42 8.648q-.662 0-1.202-.222a2.7 2.7 0 0 1-.92-.64 2.8 2.8 0 0 1-.585-.972 3.6 3.6 0 0 1-.206-1.23v-.246q0-.774.229-1.377a3.1 3.1 0 0 1 .621-1.032q.393-.421.891-.638a2.6 2.6 0 0 1 1.031-.217q.68 0 1.172.234.498.235.814.657.316.415.469.984.152.562.152 1.23v.487h-4.734v-.885h3.65v-.082a2.7 2.7 0 0 0-.175-.82 1.5 1.5 0 0 0-.469-.657q-.323-.258-.879-.257a1.48 1.48 0 0 0-1.213.615 2.3 2.3 0 0 0-.346.744q-.123.439-.123 1.014v.246q0 .45.123.85.129.392.37.69.246.3.591.47.352.17.797.17.574 0 .973-.235.398-.234.697-.627l.656.522q-.204.31-.521.591-.317.282-.779.457a3 3 0 0 1-1.084.176m7.728-1.347V51h1.09v9h-.996zm-4.266-1.87v-.123q0-.727.176-1.318.181-.598.51-1.025.334-.428.791-.657a2.25 2.25 0 0 1 1.031-.234q.598 0 1.043.21.452.207.762.604.317.392.498.95.182.555.252 1.26v.538a5.5 5.5 0 0 1-.252 1.254 3 3 0 0 1-.498.95 2.1 2.1 0 0 1-.762.603 2.5 2.5 0 0 1-1.054.205 2.2 2.2 0 0 1-1.02-.24 2.4 2.4 0 0 1-.791-.674 3.3 3.3 0 0 1-.51-1.02 4.5 4.5 0 0 1-.176-1.283m1.09-.123v.123q0 .476.094.891.1.416.305.732.204.317.521.498.317.177.756.176.538 0 .885-.228.351-.23.562-.604.211-.375.329-.814v-1.412a3 3 0 0 0-.206-.621 2 2 0 0 0-.339-.54 1.5 1.5 0 0 0-.51-.38 1.65 1.65 0 0 0-.709-.141q-.445 0-.768.188-.317.181-.521.503a2.3 2.3 0 0 0-.305.739 4 4 0 0 0-.094.89m7.131-3.117V60h-1.09v-6.34zm-1.172-1.681q0-.264.159-.446.164-.18.48-.181.31 0 .475.181.17.182.17.445a.6.6 0 0 1-.17.434q-.165.176-.475.176-.317 0-.48-.176a.64.64 0 0 1-.159-.434m6.909 6.79V51h1.089v9h-.996zm-4.266-1.869v-.123q0-.727.176-1.318.182-.598.509-1.025.335-.428.791-.657a2.26 2.26 0 0 1 1.032-.234q.597 0 1.043.21.45.207.761.604.317.392.498.95.183.555.252 1.26v.538a5.5 5.5 0 0 1-.252 1.254 3 3 0 0 1-.498.95 2.1 2.1 0 0 1-.761.603 2.5 2.5 0 0 1-1.055.205q-.557 0-1.02-.24a2.4 2.4 0 0 1-.791-.674 3.3 3.3 0 0 1-.509-1.02 4.5 4.5 0 0 1-.176-1.283m1.09-.123v.123q0 .476.093.891.1.416.305.732.206.317.522.498.317.177.756.176.539 0 .884-.228.352-.23.563-.604.21-.375.328-.814v-1.412a3 3 0 0 0-.205-.621 1.9 1.9 0 0 0-.34-.54 1.5 1.5 0 0 0-.51-.38 1.65 1.65 0 0 0-.709-.141q-.446 0-.767.188-.316.181-.522.503a2.3 2.3 0 0 0-.305.739 4 4 0 0 0-.093.89m9.691 2.139v-3.264q0-.375-.152-.65a1 1 0 0 0-.446-.434q-.299-.152-.738-.152-.41 0-.721.14a1.25 1.25 0 0 0-.48.37.8.8 0 0 0-.17.492h-1.084q0-.34.176-.674.175-.334.504-.603.333-.276.797-.434a3.1 3.1 0 0 1 1.043-.164q.692 0 1.218.234.534.235.832.71.306.468.305 1.177v2.953q0 .317.053.674.059.357.17.615V60h-1.131a2 2 0 0 1-.129-.498 4 4 0 0 1-.047-.586m.188-2.76.011.762h-1.095q-.463 0-.827.076a1.9 1.9 0 0 0-.609.217q-.246.146-.375.37a1 1 0 0 0-.129.509q0 .299.135.545t.404.392q.275.141.674.141.498 0 .879-.211.38-.21.604-.516.228-.305.246-.591l.463.521a1.6 1.6 0 0 1-.223.545 2.6 2.6 0 0 1-1.201 1.025 2.3 2.3 0 0 1-.926.176q-.645 0-1.131-.252a1.94 1.94 0 0 1-.75-.674 1.8 1.8 0 0 1-.264-.955q0-.51.2-.896.199-.393.574-.65.375-.265.902-.399.527-.135 1.178-.135zm5.255-2.496v.832h-3.427v-.832zm-2.267-1.54h1.084v6.31q0 .323.1.486.1.165.257.217.159.052.34.052.135 0 .281-.023.153-.03.229-.047l.006.885a3 3 0 0 1-.34.076 2.6 2.6 0 0 1-.498.041q-.399 0-.733-.158a1.2 1.2 0 0 1-.533-.527q-.193-.375-.193-1.008zm7.277 6.796v-3.264q0-.375-.152-.65a1 1 0 0 0-.445-.434 1.6 1.6 0 0 0-.739-.152 1.7 1.7 0 0 0-.72.14 1.25 1.25 0 0 0-.481.37.8.8 0 0 0-.17.492h-1.084q0-.34.176-.674.175-.334.504-.603a2.5 2.5 0 0 1 .797-.434 3.1 3.1 0 0 1 1.043-.164q.691 0 1.219.234.532.235.832.71.304.468.304 1.177v2.953q0 .317.053.674.059.357.17.615V60h-1.131a2 2 0 0 1-.129-.498 4 4 0 0 1-.047-.586m.188-2.76.011.762h-1.095q-.463 0-.826.076-.364.071-.61.217t-.375.37a1 1 0 0 0-.129.509q0 .299.135.545t.404.392q.276.141.674.141.498 0 .879-.211.38-.21.604-.516.228-.305.246-.591l.463.521a1.6 1.6 0 0 1-.223.545 2.6 2.6 0 0 1-1.201 1.025 2.3 2.3 0 0 1-.926.176q-.645 0-1.131-.252a1.94 1.94 0 0 1-.75-.674 1.8 1.8 0 0 1-.264-.955q0-.51.2-.896.2-.393.574-.65.375-.265.902-.399.528-.135 1.178-.135zm2.619 3.27q0-.276.17-.463.175-.194.504-.194.328 0 .498.194.176.188.176.463 0 .27-.176.457-.17.187-.498.187t-.504-.187a.66.66 0 0 1-.17-.457m5.683-.2q.388 0 .715-.158.329-.158.539-.433.211-.281.241-.639h1.031a1.94 1.94 0 0 1-.381 1.049q-.345.48-.908.78a2.64 2.64 0 0 1-1.237.292q-.714 0-1.248-.252a2.5 2.5 0 0 1-.878-.691 3.1 3.1 0 0 1-.522-1.008 4.3 4.3 0 0 1-.17-1.213v-.246q0-.639.17-1.207.175-.574.522-1.014.351-.44.878-.691.534-.252 1.248-.252.745 0 1.301.305.557.298.873.82.322.516.352 1.172h-1.031a1.6 1.6 0 0 0-.223-.71 1.4 1.4 0 0 0-.516-.503 1.44 1.44 0 0 0-.756-.193q-.498 0-.837.199a1.47 1.47 0 0 0-.534.527 2.5 2.5 0 0 0-.281.733 4 4 0 0 0-.082.814v.246q0 .415.082.82t.276.733q.198.328.533.527.34.194.843.194m3.458-2.326v-.134q0-.686.199-1.272.2-.591.574-1.025.375-.44.908-.68a2.8 2.8 0 0 1 1.195-.246q.669 0 1.202.246.539.24.914.68.38.433.58 1.025.2.586.199 1.272v.134q0 .686-.199 1.272-.2.585-.58 1.025-.375.434-.908.68-.528.24-1.196.24t-1.201-.24a2.7 2.7 0 0 1-.914-.68 3.1 3.1 0 0 1-.574-1.025 3.9 3.9 0 0 1-.199-1.272m1.084-.134v.134q0 .476.111.897.11.416.334.738.228.323.568.51.34.182.791.182.446 0 .78-.182.34-.187.562-.51.222-.322.334-.738.117-.421.117-.897v-.134q0-.47-.117-.885a2.3 2.3 0 0 0-.34-.744 1.6 1.6 0 0 0-.562-.516 1.6 1.6 0 0 0-.786-.187q-.444 0-.785.187-.334.188-.562.516-.223.323-.334.744a3.4 3.4 0 0 0-.111.885m7.125-1.846V60h-1.09v-6.34h1.031zm-.223 1.67-.504-.018a4.3 4.3 0 0 1 .17-1.2 2.8 2.8 0 0 1 .486-.968q.323-.41.803-.633.48-.228 1.113-.228.446 0 .821.129.375.123.65.393t.428.69q.152.423.152 1.02V60h-1.084v-4.172q0-.498-.17-.797a.97.97 0 0 0-.469-.433 1.7 1.7 0 0 0-.714-.141q-.481 0-.803.17t-.516.469-.281.685a3.8 3.8 0 0 0-.082.809m4.107-.598-.726.223q.005-.522.17-1.002.17-.48.486-.856a2.3 2.3 0 0 1 .791-.591 2.5 2.5 0 0 1 1.072-.223q.51 0 .903.135.398.135.668.416.275.275.416.709t.14 1.031V60h-1.09v-4.178q0-.532-.17-.826a.88.88 0 0 0-.468-.416 1.9 1.9 0 0 0-.715-.123 1.5 1.5 0 0 0-.633.123 1.3 1.3 0 0 0-.463.34q-.188.21-.287.486a1.8 1.8 0 0 0-.094.586"/>
            <path fill="#909192" d="m1296.26 53.69-4.04-.35-1.57-3.709c-.29-.675-1.25-.675-1.54 0l-1.57 3.717-4.03.342c-.73.058-1.03.975-.47 1.458l3.06 2.65-.92 3.933a.83.83 0 0 0 1.24.9l3.46-2.083 3.46 2.092c.63.383 1.41-.184 1.24-.9l-.92-3.942 3.06-2.65c.56-.483.27-1.4-.46-1.458m-6.38 5.3-3.13 1.891.83-3.566-2.77-2.4 3.65-.317 1.42-3.358 1.43 3.366 3.65.317-2.77 2.4.83 3.567z"/>
            <path fill="#909192" d="M1346.92 54.858h-1.06v-4.713h-4.72v-1.069c0-1.029-.74-1.964-1.76-2.066a1.965 1.965 0 0 0-2.17 1.956v1.179h-4.7V54.7h1.09c1.03 0 1.96.692 2.16 1.697a2.127 2.127 0 0 1-2.08 2.545h-1.18V63.5h4.56v-1.1c0-1.029.69-1.964 1.69-2.16 1.35-.26 2.55.77 2.55 2.082V63.5h4.56v-4.714h1.17c1.16 0 2.08-.99 1.96-2.168-.1-1.021-1.05-1.76-2.07-1.76"/>
            <path fill="#909192" d="M1383.5 48.5h-15v15h15zm-5.36 2.143h-7.5v10.714h7.5z" clip-rule="evenodd" fill-rule="evenodd"/>
            <path fill="#909192" d="M1412.38 52.25c1.03 0 1.87-.844 1.87-1.875s-.84-1.875-1.87-1.875a1.88 1.88 0 0 0-1.88 1.875 1.88 1.88 0 0 0 1.88 1.875m0 1.875A1.88 1.88 0 0 0 1410.5 56a1.88 1.88 0 0 0 1.88 1.875c1.03 0 1.87-.844 1.87-1.875s-.84-1.875-1.87-1.875m0 5.625a1.88 1.88 0 0 0-1.88 1.875 1.88 1.88 0 0 0 1.88 1.875c1.03 0 1.87-.844 1.87-1.875s-.84-1.875-1.87-1.875"/>
        </g>
        <path mask="url(#8552fd8f-2b19-4019-8d40-5dc55c294fcd)" fill-opacity=".24" fill="#ffffff" d="M0 0h1440zm1440 77H0v-2h1440zM0 76V0zM1440 0v76z"/>
        <defs fill="none">
            <clipPath id="2fbd4b58-a844-403e-b587-814bc8c0855d">
                <path fill="#ffffff" d="M0 25.6c0-8.96 0-13.441 1.744-16.864a16 16 0 0 1 6.992-6.992C12.16 0 16.64 0 25.6 0h1388.8c8.96 0 13.44 0 16.86 1.744a16.05 16.05 0 0 1 7 6.992C1440 12.16 1440 16.64 1440 25.6V76H0z"/>
            </clipPath>
        </defs>
    </g>
</svg>
